<?xml version="1.0" encoding="UTF-8" standalone="no"?>
<!-- Created with Inkscape (http://www.inkscape.org/) -->

<svg
   xmlns:dc="http://purl.org/dc/elements/1.1/"
   xmlns:cc="http://creativecommons.org/ns#"
   xmlns:rdf="http://www.w3.org/1999/02/22-rdf-syntax-ns#"
   xmlns:svg="http://www.w3.org/2000/svg"
   xmlns="http://www.w3.org/2000/svg"
   xmlns:sodipodi="http://sodipodi.sourceforge.net/DTD/sodipodi-0.dtd"
   xmlns:inkscape="http://www.inkscape.org/namespaces/inkscape"
   width="124.01575"
   height="159.44882"
   id="svg2"
   sodipodi:version="0.32"
   inkscape:version="0.47 r22583"
   sodipodi:docname="fred.svg"
   version="1.0">
  <defs
     id="defs4">
    <inkscape:perspective
       sodipodi:type="inkscape:persp3d"
       inkscape:vp_x="0 : 170.07874 : 1"
       inkscape:vp_y="0 : 1000 : 0"
       inkscape:vp_z="453.5433 : 170.07874 : 1"
       inkscape:persp3d-origin="226.77165 : 113.38582 : 1"
       id="perspective3036" />
    <inkscape:perspective
       id="perspective3106"
       inkscape:persp3d-origin="0.5 : 0.33333333 : 1"
       inkscape:vp_z="1 : 0.5 : 1"
       inkscape:vp_y="0 : 1000 : 0"
       inkscape:vp_x="0 : 0.5 : 1"
       sodipodi:type="inkscape:persp3d" />
  </defs>
  <sodipodi:namedview
     id="base"
     pagecolor="#ffffff"
     bordercolor="#666666"
     borderopacity="1.0"
     inkscape:pageopacity="0.0"
     inkscape:pageshadow="2"
     inkscape:zoom="1.540463"
     inkscape:cx="-9.0540606"
     inkscape:cy="94.130521"
     inkscape:document-units="mm"
     inkscape:current-layer="layer1"
     inkscape:window-width="988"
     inkscape:window-height="724"
     inkscape:window-x="33"
     inkscape:window-y="22"
     width="12.8cm"
     height="9.6cm"
     units="cm"
     showgrid="false"
     grid_units="mm"
     inkscape:object-paths="false"
     inkscape:grid-points="true"
     inkscape:grid-bbox="true"
     inkscape:guide-points="true"
     showguides="true"
     inkscape:guide-bbox="true"
     inkscape:snap-grids="false"
     inkscape:snap-to-guides="true"
     inkscape:window-maximized="0">
    <sodipodi:guide
       orientation="vertical"
       position="-13.484127,-88.382775"
       id="guide3573" />
    <sodipodi:guide
       orientation="horizontal"
       position="-69.960654,-77.347132"
       id="guide3579" />
    <sodipodi:guide
       orientation="horizontal"
       position="-69.960654,-64.364022"
       id="guide3886" />
    <sodipodi:guide
       orientation="horizontal"
       position="-69.960654,197.24563"
       id="guide3988" />
    <sodipodi:guide
       orientation="horizontal"
       position="-69.960654,214.77283"
       id="guide4081" />
    <inkscape:grid
       id="GridFromPre046Settings"
       type="xygrid"
       originx="0px"
       originy="0px"
       spacingx="2mm"
       spacingy="2mm"
       color="#0000ff"
       empcolor="#0000ff"
       opacity="0.2"
       empopacity="0.4"
       empspacing="5"
       units="mm"
       visible="true"
       enabled="true"
       snapvisiblegridlinesonly="true" />
  </sodipodi:namedview>
  <metadata
     id="metadata7">
    <rdf:RDF>
      <cc:Work
         rdf:about="">
        <dc:format>image/svg+xml</dc:format>
        <dc:type
           rdf:resource="http://purl.org/dc/dcmitype/StillImage" />
        <dc:title></dc:title>
      </cc:Work>
    </rdf:RDF>
  </metadata>
  <g
     inkscape:label="Layer 1"
     inkscape:groupmode="layer"
     id="layer1"
     transform="translate(-69.960649,-790.35755)">
    <g
       id="g3112"
       transform="translate(-3.894936,-2.596622)">
      <path
         style="fill:#e8e7e5"
         d="m 76.476524,872.81391 0,-78.25336 58.904996,0 58.905,0 0,78.25336 0,78.25335 -58.905,0 -58.904996,0 0,-78.25335 z"
         id="path3128" />
      <path
         style="fill:#e8e4da"
         d="m 81.535219,950.49682 c -0.563753,-0.56962 -0.387894,-1.28831 0.254888,-1.04165 0.210471,0.0808 0.71338,-0.11329 1.117575,-0.43123 l 0.7349,-0.57807 0,0.85729 c 0,0.47151 -0.0783,1.06132 -0.173988,1.31069 -0.233518,0.60854 -1.277855,0.54533 -1.933375,-0.11703 z m 3.515515,0.21214 c -0.01378,-0.19707 -0.04603,-1.39022 -0.07166,-2.65144 l -0.0466,-2.29314 -3.869672,-0.18112 c -2.128319,-0.0996 -4.030907,-0.19636 -4.227974,-0.21499 -0.510099,-0.0482 -0.510099,-6.23062 0,-6.4376 0.27052,-0.10977 0.252964,-0.2263 -0.07166,-0.47567 -0.382189,-0.29359 -0.382189,-0.31666 0,-0.20762 0.23648,0.0675 0.799867,-0.25989 1.25197,-0.72748 0.763573,-0.78972 0.936774,-0.84024 2.43646,-0.71076 1.779938,0.15368 2.966702,-0.26589 3.483513,-1.23156 0.357073,-0.6672 0.854043,-0.49361 0.854043,0.2983 0,0.96279 1.101849,1.43255 3.360166,1.43255 1.799878,0 2.086038,-0.0692 2.086038,-0.50433 0,-0.27739 0.257978,-0.66545 0.573285,-0.86236 0.748386,-0.46738 0.730849,-1.35686 -0.03736,-1.89494 -0.60703,-0.42518 -0.60491,-0.43125 0.358303,-1.02576 0.908621,-0.56082 1.463591,-0.58606 2.673893,-0.12162 0.30551,0.11723 0.439327,0.0453 0.384932,-0.20696 -0.171507,-0.79532 1.119081,-0.58693 1.866549,0.30139 0.404888,0.48118 0.912173,0.87487 1.1273,0.87487 0.215128,0 0.535691,0.14455 0.712363,0.32122 0.43726,0.43726 0.58902,-0.96934 0.794247,-7.36156 l 0.166217,-5.17717 -0.89182,-2.13221 c -0.490501,-1.17272 -1.398028,-3.16894 -2.016726,-4.43606 -0.618699,-1.26711 -1.124907,-2.40147 -1.124907,-2.52081 0,-0.11934 -0.478271,-1.04854 -1.062824,-2.06489 -0.798671,-1.38863 -1.286889,-1.92186 -1.964346,-2.14544 -0.495836,-0.16364 -1.18217,-0.59626 -1.525186,-0.96139 -0.444129,-0.47275 -1.219545,-0.76937 -2.693593,-1.03038 -2.438981,-0.43186 -4.068094,-0.88693 -6.22624,-1.7392 -0.867093,-0.34242 -2.156984,-0.76517 -2.866424,-0.93943 -0.709439,-0.17426 -1.451126,-0.47409 -1.648193,-0.66629 -0.464328,-0.45286 -0.529223,-43.49487 -0.06641,-44.0438 0.907025,-1.07577 1.937689,-2.94023 1.675449,-3.03086 -0.166904,-0.0577 -0.677836,0.17191 -1.135404,0.51021 l -0.831942,0.61508 0,-0.88107 c 0,-0.67369 0.115626,-0.86125 0.491233,-0.79685 0.282683,0.0485 0.53499,-0.12874 0.594302,-0.4174 0.07183,-0.34958 -0.07706,-0.50162 -0.491233,-0.50162 -0.509877,0 -0.594302,-0.17646 -0.594302,-1.24212 0,-0.68317 0.06082,-1.30294 0.135157,-1.37727 0.292385,-0.29239 3.956812,0.27645 4.194135,0.65106 0.136514,0.21549 0.250182,0.80855 0.252596,1.31792 0.0035,0.74888 0.142548,0.9608 0.726291,1.10731 0.397046,0.0997 1.074239,0.0898 1.504872,-0.0219 0.430634,-0.1117 1.366209,-0.26574 2.079055,-0.34229 1.058553,-0.11369 1.395024,-0.0299 1.835941,0.45734 0.845323,0.93407 1.267446,0.74197 1.36611,-0.6217 l 0.08814,-1.21821 1.433212,0.10134 c 1.91451,0.13537 2.272399,0.37055 2.691225,1.76847 0.260374,0.86905 0.472124,1.14232 0.790487,1.02015 0.239166,-0.0918 0.74677,-0.16686 1.128009,-0.16686 0.665931,0 0.693162,-0.0774 0.693162,-1.9714 0,-2.36545 0.508851,-3.11195 1.384297,-2.03082 0.476685,0.58868 0.620289,0.61926 1.487878,0.31681 0.528149,-0.18411 1.196936,-0.54893 1.486193,-0.8107 0.306539,-0.27741 1.111109,-0.50555 1.928719,-0.54689 0.77154,-0.039 1.72235,-0.28032 2.11291,-0.53622 1.06403,-0.69718 9.13702,-0.74162 9.89631,-0.0545 1.03049,0.93258 2.55703,0.37272 1.68732,-0.61883 -0.23327,-0.26597 -0.50337,-0.74477 -0.60021,-1.06402 -0.0968,-0.31925 -0.63302,-1.05092 -1.19152,-1.62592 -0.81783,-0.842 -0.97926,-1.18966 -0.82948,-1.78643 0.11902,-0.47421 0.0183,-0.99678 -0.27962,-1.45154 -0.33974,-0.51852 -0.4142,-1.03184 -0.27549,-1.89927 0.16579,-1.03682 0.10221,-1.25627 -0.49761,-1.71743 -0.37823,-0.2908 -0.87101,-0.53159 -1.09508,-0.5351 -0.22406,-0.003 -0.63385,-0.21132 -0.91063,-0.4618 -0.71806,-0.64984 -2.48086,-0.99051 -3.37207,-0.65167 -0.50923,0.19361 -0.77623,0.18679 -0.8457,-0.0216 -0.0558,-0.1675 -0.39583,-0.30454 -0.75557,-0.30454 -0.35973,0 -0.98203,-0.25797 -1.38287,-0.57328 -0.55974,-0.44029 -1.16285,-0.57329 -2.59978,-0.57329 -1.029035,0 -2.169591,-0.11353 -2.534574,-0.2523 -0.364983,-0.13876 -0.740522,-0.23551 -0.834532,-0.21498 -0.09401,0.0205 -0.384222,-0.1397 -0.644916,-0.35606 -0.419695,-0.34831 -0.523247,-0.27549 -0.903983,0.63574 -0.236495,0.56602 -0.429992,1.13976 -0.429992,1.275 0,0.13524 -0.322567,0.54892 -0.716816,0.9193 -0.809866,0.76083 -1.939393,0.84982 -3.72614,0.29355 -0.630613,-0.19632 -1.701027,-0.42071 -2.378697,-0.49864 -1.249908,-0.14373 -1.536789,-0.70075 -0.463973,-0.90086 0.302242,-0.0564 0.720625,-0.24159 0.92974,-0.41158 0.540696,-0.43954 0.166064,-2.13136 -0.699835,-3.16042 -0.438588,-0.52123 -0.638508,-1.03232 -0.533378,-1.36355 0.09249,-0.2914 0.02702,-0.79353 -0.145476,-1.11585 -0.259551,-0.48497 -0.190394,-0.70927 0.401055,-1.30072 0.715559,-0.71556 1.123961,-0.81149 3.076384,-0.72264 1.37613,0.0626 1.622349,-0.40466 0.455482,-0.86442 -1.423497,-0.56087 -2.497897,-1.71405 -2.83157,-3.03919 -0.340972,-1.35412 -1.42764,-2.55251 -2.085603,-2.30003 -0.675226,0.25911 -0.809197,-0.27655 -0.310406,-1.2411 0.429033,-0.82966 0.380929,-1.43322 -0.114228,-1.43322 -0.123043,0 -0.375083,0.33222 -0.560087,0.73826 -0.295825,0.64926 -0.482774,0.72757 -1.550883,0.64957 -1.105391,-0.0807 -1.22313,-0.0247 -1.310443,0.6233 -0.144427,1.07189 -0.462011,1.23642 -1.595444,0.82656 -1.211162,-0.43796 -1.308334,-0.92338 -0.31512,-1.57415 0.908191,-0.59507 0.913406,-1.18616 0.01408,-1.59592 -0.436785,-0.19901 -0.774817,-0.6575 -0.893635,-1.21208 -0.105111,-0.4906 -0.272682,-1.02098 -0.372383,-1.17864 -0.0997,-0.15765 -0.181273,-0.60911 -0.181273,-1.00325 0,-0.52491 -0.172525,-0.7411 -0.644946,-0.8082 -0.725871,-0.10309 -0.777281,0.0253 -0.338411,0.84537 0.222856,0.41641 0.213864,0.68442 -0.03294,0.9818 -0.218001,0.26268 -0.272488,0.85571 -0.152274,1.65736 0.142981,0.95346 0.0807,1.3367 -0.263663,1.62249 -0.379309,0.3148 -0.540258,0.27823 -1.014187,-0.23048 -0.422851,-0.45387 -0.563327,-1.01046 -0.563327,-2.23197 0,-1.3676 0.114366,-1.7333 0.716606,-2.29143 0.394133,-0.36527 0.716606,-0.85116 0.716606,-1.07974 0,-0.22859 0.388668,-0.5511 0.863707,-0.7167 1.13995,-0.39739 1.286174,-0.89252 0.658525,-2.22987 -0.469744,-1.00089 -0.637946,-1.11668 -1.737764,-1.19629 l -1.21768,-0.0882 0,-2.27665 c 0,-1.32668 0.119607,-2.27666 0.286642,-2.27666 0.372819,0 0.372819,-1.05948 0,-1.28989 -0.443595,-0.27416 -0.376261,-7.79307 0.07166,-8.0021 0.286642,-0.13377 0.286642,-0.20065 0,-0.33441 -0.20732,-0.0968 -0.358303,-0.70069 -0.358303,-1.43322 l 0,-1.266 58.904995,0 58.905,0 0,32.57221 0,32.57222 -0.75557,0.64925 c -0.56469,0.48522 -0.71965,0.83716 -0.61338,1.39308 0.0832,0.43545 -0.0194,0.87797 -0.24768,1.06739 -0.21442,0.17796 -0.38986,0.49828 -0.38986,0.71182 0,0.54374 -1.33537,1.36028 -1.88173,1.15062 -0.24912,-0.0956 -0.72766,-0.0268 -1.06342,0.15291 -0.46392,0.24828 -0.63799,0.24417 -0.72509,-0.0171 -0.063,-0.18911 -0.34819,-0.56232 -0.63368,-0.82937 -0.28548,-0.26705 -0.56255,-0.87251 -0.61569,-1.34547 -0.0784,-0.69723 -0.24669,-0.87718 -0.88976,-0.9511 -0.43622,-0.0501 -0.71381,-0.2195 -0.61686,-0.37636 0.0969,-0.15686 -0.017,-0.5028 -0.25324,-0.76876 -0.23623,-0.26596 -0.62925,-0.96727 -0.87338,-1.55847 -0.34186,-0.82783 -0.60492,-1.07491 -1.14445,-1.07491 -0.71242,0 -1.04854,0.46694 -1.04854,1.45666 0,0.70808 -0.31241,0.69423 -1.26633,-0.0561 -0.95153,-0.74848 -1.30143,-0.47965 -0.7166,0.55055 0.30974,0.54562 0.66475,0.7687 1.21059,0.76072 0.59587,-0.009 0.77234,0.12554 0.77234,0.58761 0,0.32941 -0.13322,0.73214 -0.29604,0.89496 -0.51662,0.51661 0.012,1.25183 0.89999,1.25183 0.45609,0 0.82926,0.11967 0.82926,0.26593 0,0.15097 0.68154,0.19559 1.57653,0.10322 l 1.57654,-0.16271 0,0.8427 c 0,0.46348 -0.14393,0.98663 -0.31985,1.16254 -0.35729,0.35729 -0.93962,1.32852 -1.38027,2.30205 -0.18969,0.41908 -0.72451,0.75986 -1.5311,0.97559 -1.18961,0.31818 -1.92835,1.14172 -1.92835,2.14974 0,0.19729 -0.14156,1.01881 -0.31459,1.8256 -0.22955,1.07038 -0.48137,1.52934 -0.93159,1.69788 -0.38278,0.1433 -0.70886,0.10867 -0.85901,-0.0912 -0.14423,-0.19202 -0.16926,-0.0998 -0.0619,0.22815 0.16492,0.50408 -0.21715,1.01047 -0.77094,1.02178 -0.3175,0.006 -0.26141,-1.07965 0.0662,-1.28213 0.35758,-0.221 -1.49418,-1.86655 -2.10046,-1.86655 -0.55398,0 -1.15136,-1.03484 -0.93016,-1.61129 0.12331,-0.32132 0.29232,-0.34972 0.71983,-0.12092 0.9858,0.52758 1.54823,0.38081 1.32566,-0.34594 -0.10863,-0.35472 -0.17772,-0.83843 -0.15353,-1.07491 0.0242,-0.23648 0.0707,-0.96424 0.10329,-1.61724 0.0326,-0.653 0.22435,-1.38613 0.42606,-1.62917 0.3017,-0.36353 0.23308,-0.98604 -0.38693,-3.51025 -0.53173,-2.16483 -0.66403,-3.15797 -0.44927,-3.37273 0.16742,-0.16742 0.30439,-0.60976 0.30439,-0.98299 0,-0.52336 -0.11819,-0.64108 -0.51666,-0.51461 -0.28416,0.0902 -0.75769,-0.0123 -1.05228,-0.22767 -0.81726,-0.5976 -1.57158,-0.22728 -2.06892,1.0157 -0.38072,0.95151 -0.56395,1.11063 -1.19406,1.0369 -0.92448,-0.10819 -1.46431,-1.10765 -1.46999,-2.72163 -0.005,-1.50108 -0.42133,-1.80893 -0.83623,-0.61875 -0.47501,1.36262 -0.38514,2.67059 0.2212,3.21932 0.63333,0.57316 1.0155,2.86082 0.6058,3.62635 -0.15787,0.29498 -1.00888,0.76387 -1.89112,1.04197 -1.75063,0.55184 -1.51447,0.63763 -2.62845,-0.95484 -0.31259,-0.44685 -0.34958,-0.25975 -0.24467,1.23742 0.0688,0.98217 -0.005,1.89208 -0.16571,2.05318 -0.15912,0.15912 -0.20264,0.42953 -0.0967,0.60092 0.30516,0.49376 1.16961,0.36341 1.73529,-0.26166 0.32663,-0.36092 0.88285,-0.57329 1.50153,-0.57329 1.09558,0 1.19556,-0.65056 0.12421,-0.8082 -0.6623,-0.0975 -0.86662,-0.60431 -0.26419,-0.65538 0.80961,-0.0686 2.10773,0.10365 2.54635,0.33795 0.33493,0.1789 0.68589,0.0483 1.233,-0.45871 0.94517,-0.87595 1.4334,-0.89338 2.00891,-0.0717 0.67871,0.969 0.56911,1.08204 -1.05866,1.0919 -1.6953,0.0103 -2.62533,0.49916 -2.19523,1.15396 0.14937,0.2274 0.24046,0.99391 0.20243,1.70335 -0.0649,1.21096 -0.0214,1.29545 0.71168,1.38066 0.64655,0.0752 0.75349,0.1997 0.62184,0.72421 -0.18601,0.74114 0.75171,1.73662 1.88755,2.00382 0.7204,0.16947 3.14303,3.27136 3.14303,4.02428 0,0.39583 0.568,1.03958 0.91725,1.03958 0.12613,0 0.22932,-0.38696 0.22932,-0.85992 0,-1.30118 0.73913,-1.06917 1.53339,0.48131 0.25675,0.5012 0.69396,0.99327 0.97158,1.0935 0.27762,0.10022 1.14972,0.94484 1.93798,1.87691 1.41858,1.67739 1.44577,1.69295 2.66271,1.52371 0.86935,-0.1209 1.37312,-0.0478 1.71985,0.24962 0.91247,0.78265 1.1714,0.80864 1.76014,0.17671 0.6479,-0.69544 1.17993,-0.49506 0.70109,0.26405 -0.45179,0.71625 0.90028,3.2201 1.73885,3.2201 1.2561,0 1.67949,1.1708 0.8701,2.40609 -0.3847,0.58713 -0.3862,0.70774 -0.0126,1.0178 0.30957,0.25692 0.42247,0.96344 0.41883,2.62091 -0.005,2.17737 -0.0281,2.25679 -0.57653,1.96329 -0.423,-0.22638 -0.5488,-0.54313 -0.48403,-1.21874 0.0686,-0.71601 -0.0501,-0.97326 -0.55044,-1.19296 -0.54903,-0.24106 -0.61384,-0.43085 -0.46499,-1.36171 0.18088,-1.13116 -0.283,-1.55477 -0.55665,-0.50833 -0.0949,0.36273 -0.39098,0.57328 -0.80627,0.57328 -0.64414,0 -0.64053,0.0173 0.19448,0.93159 0.99983,1.09474 2.12536,2.67573 2.13443,2.99814 0.004,0.12462 0.25862,0.54906 0.56691,0.94319 0.52278,0.66835 0.56097,1.21335 0.56691,8.09208 l 0.006,7.37548 -1.05255,1.65376 c -1.85253,2.91066 -3.76049,4.88071 -5.49676,5.6756 -3.42771,1.56926 -8.90509,1.52788 -11.88849,-0.0898 -1.60703,-0.87138 -3.39362,-2.88657 -4.22463,-4.76521 -0.64269,-1.45291 -1.12888,-1.70889 -1.12888,-0.59436 0,0.39727 -0.34019,1.52592 -0.75598,2.50812 -0.70551,1.66661 -0.77312,2.21633 -1.01271,8.23527 -0.14121,3.5472 -0.22987,9.02924 -0.19702,12.1823 0.0868,8.33521 0.0744,9.1665 -0.18463,12.32052 -0.13343,1.62487 -0.39201,3.01836 -0.59837,3.22473 -0.53078,0.53078 -82.658645,0.53584 -82.695765,0.005 z m 13.210608,-2.93809 c 0,-0.80158 -0.694585,-0.98764 -0.973511,-0.26077 -0.217559,0.56695 0.0178,0.97738 0.560464,0.97738 0.249488,0 0.413047,-0.28376 0.413047,-0.71661 z m 0,-6.46637 c 0,-0.32461 -0.12899,-0.51048 -0.286643,-0.41304 -0.157653,0.0974 -0.286642,0.36302 -0.286642,0.5902 0,0.22718 0.128989,0.41305 0.286642,0.41305 0.157653,0 0.286643,-0.2656 0.286643,-0.59021 z m -0.05866,-4.6397 0.08466,-1.92758 -0.889281,0.81223 c -0.736441,0.67264 -0.857724,0.95518 -0.705664,1.64391 0.319685,1.44797 0.40915,1.59284 0.923135,1.49484 0.409002,-0.078 0.518243,-0.45444 0.587151,-2.0234 z m 19.996728,-60.00466 c -0.84965,-0.62128 -1.25619,-0.46506 -0.47744,0.18346 0.37705,0.31401 0.76381,0.49265 0.85947,0.39699 0.0957,-0.0957 -0.0763,-0.35686 -0.38203,-0.58045 z m 35.01963,-0.86635 c -0.0952,-0.0952 -0.34248,-0.10543 -0.5494,-0.0226 -0.22866,0.0915 -0.16074,0.15943 0.17318,0.17318 0.30217,0.0124 0.47147,-0.0553 0.37622,-0.15055 z m 19.85595,-1.37612 c 0,-0.57763 -2.318,-1.8549 -3.92957,-2.16528 -1.53172,-0.295 -3.1966,-0.85803 -4.59804,-1.55498 -2.34544,-1.16641 -2.84044,-1.38079 -4.40564,-1.90807 -0.91708,-0.30894 -1.82628,-0.56171 -2.02044,-0.56171 -0.56788,0 0.13992,0.56864 0.88684,0.71249 0.87768,0.16902 1.45459,0.68228 1.45459,1.2941 0,0.87409 -0.83619,2.54681 -1.43274,2.86608 -1.08653,0.58149 -0.65598,0.94976 0.89554,0.76601 0.89107,-0.10553 1.70892,-0.0453 2.07816,0.1531 0.37958,0.20394 2.41042,0.33794 5.39301,0.35586 2.63128,0.0158 4.87784,0.12242 4.99235,0.23693 0.33766,0.33766 0.68594,0.23889 0.68594,-0.19453 z m -24.93788,-0.60052 c -0.19626,-0.23648 -0.47004,-0.42996 -0.60838,-0.42996 -0.13835,0 -0.25155,0.19348 -0.25155,0.42996 0,0.24714 0.25869,0.42997 0.60838,0.42997 0.50829,0 0.54968,-0.0707 0.25155,-0.42997 z m 8.31026,-4.51461 c -0.003,-0.51867 -2.15686,-1.62147 -2.61424,-1.33879 -0.42594,0.26324 -0.4554,0.22822 0.89675,1.0659 1.13699,0.70438 1.72095,0.79717 1.71749,0.27289 z m 13.61788,0.0717 c -0.0974,-0.15766 -0.36303,-0.28665 -0.59021,-0.28665 -0.22717,0 -0.41304,0.12899 -0.41304,0.28665 0,0.15765 0.26559,0.28664 0.5902,0.28664 0.32461,0 0.51048,-0.12899 0.41305,-0.28664 z m -79.605651,-8.55499 c 0.08214,-0.24669 -0.05568,-0.34999 -0.382458,-0.28664 -0.280985,0.0545 -0.568674,0.27259 -0.639308,0.48471 -0.08214,0.2467 0.05568,0.34999 0.382457,0.28665 0.280986,-0.0545 0.568675,-0.2726 0.639309,-0.48472 z M 79.93649,860.48832 c 0.123763,-0.23647 0.294776,-0.65569 0.38003,-0.93158 0.08525,-0.2759 0.421571,-0.50163 0.747372,-0.50163 0.505562,0 0.546942,0.0849 0.282383,0.57921 -0.17049,0.31857 -0.240742,0.69124 -0.156114,0.82818 0.258539,0.41832 1.655967,0.6503 1.977929,0.32834 0.16638,-0.16639 0.58997,-0.30252 0.941312,-0.30252 0.663973,0 1.539679,-0.6816 1.539679,-1.1984 0,-0.17463 -0.440745,-0.24607 -1.067066,-0.17295 -1.301996,0.152 -2.517881,-0.37525 -2.018042,-0.87508 0.431558,-0.43156 1.727978,-0.42925 2.161079,0.004 0.258503,0.2585 0.472573,0.21468 0.917256,-0.18775 1.119893,-1.01347 0.756342,-1.29601 -1.667675,-1.29601 -2.025753,0 -2.31591,0.0711 -2.938084,0.7197 -0.379693,0.39583 -1.045071,1.0695 -1.478618,1.49704 -0.884751,0.8725 -1.089598,2.18424 -0.317365,2.03226 0.258995,-0.051 0.572161,-0.28617 0.695924,-0.52265 z M 107.952,859.3911 c 0.0485,-0.65777 0.0268,-1.19595 -0.0482,-1.19595 -0.65974,0 -1.04318,0.46783 -1.04318,1.27278 0,1.79495 0.95841,1.72748 1.09139,-0.0768 z m 60.54491,-0.33603 c 1.36666,0 1.4795,-0.39828 0.23567,-0.83188 -1.7542,-0.61152 -1.96658,-0.48108 -1.93787,1.19019 0.0245,1.42439 0.0402,1.45505 0.29484,0.57328 0.24528,-0.84948 0.36931,-0.93159 1.40736,-0.93159 z m -11.27098,-0.68659 c -0.0571,-0.17416 -0.50063,-0.35615 -0.98572,-0.40442 -0.65219,-0.0649 -0.99965,0.0802 -1.33367,0.55712 -0.41163,0.58769 -0.41105,0.68981 0.007,1.15126 0.43569,0.48143 0.50649,0.46958 1.43742,-0.24047 0.53854,-0.41076 0.93247,-0.88934 0.87542,-1.06349 z m 5.96711,1.24822 c 0.1014,-0.16407 0.43148,-0.21987 0.73352,-0.12401 0.41027,0.13022 0.54916,0.0358 0.54916,-0.37318 0,-0.47233 -0.14712,-0.52356 -1.07182,-0.37326 -0.69952,0.11371 -1.10509,0.34695 -1.16759,0.67149 -0.10446,0.54242 0.64777,0.69886 0.95673,0.19896 z m -40.81384,-1.69866 c 0.58768,-0.48958 0.60823,-0.565 0.15624,-0.57328 -0.73342,-0.0134 -1.6781,0.53961 -1.47714,0.86477 0.25036,0.40509 0.56922,0.33472 1.3209,-0.29149 z m 66.17448,-0.4395 c 0,-0.48243 -0.0525,-0.50182 -0.69316,-0.25597 -0.64048,0.24577 -0.56355,0.68593 0.11987,0.68593 0.31849,0 0.57329,-0.19109 0.57329,-0.42996 z m -89.307303,-1.90006 c 0.497802,-0.39157 0.676714,-0.70916 0.499393,-0.88648 -0.358012,-0.35801 -1.368766,0.17165 -1.774586,0.92994 -0.418822,0.78257 0.254224,0.75963 1.275193,-0.0435 z m 74.270363,-0.55547 c 0.30851,-0.49917 -0.0429,-0.60488 -0.436,-0.13118 -0.22609,0.27242 -0.24784,0.43689 -0.0578,0.43689 0.16765,0 0.38984,-0.13757 0.49376,-0.30571 z m 4.37491,-1.30538 c 0.0857,-0.88057 0.0686,-0.89345 -1.09933,-0.82755 -1.42695,0.0805 -2.72672,1.11589 -1.99747,1.59117 0.23648,0.15412 1.01041,0.24661 1.71985,0.20554 1.2158,-0.0704 1.29489,-0.12605 1.37695,-0.96916 z m -57.61147,-0.58828 c -0.11687,-0.9872 -0.80731,-1.25126 -0.80731,-0.30875 0,0.72647 0.2075,1.07491 0.6401,1.07491 0.14185,0 0.21709,-0.34477 0.16721,-0.76616 z m 48.14902,-0.46067 c 0.55584,-0.44524 -0.053,-0.88551 -0.92275,-0.66722 -0.49205,0.12349 -0.73759,0.38058 -0.73759,0.77226 0,0.47637 0.12167,0.54984 0.64495,0.38942 0.35471,-0.10875 0.81164,-0.33125 1.01539,-0.49446 z m -49.3338,-2.83991 c -0.0915,-0.22866 -0.15943,-0.16074 -0.17318,0.17318 -0.0124,0.30217 0.0553,0.47147 0.15055,0.37622 0.0952,-0.0952 0.10543,-0.34248 0.0226,-0.5494 z m 55.87263,-1.58847 c -0.29138,-0.29138 -0.5318,0.1473 -0.29273,0.53412 0.18059,0.29221 0.24811,0.29244 0.3452,0.001 0.0664,-0.19916 0.0428,-0.44004 -0.0525,-0.53529 z m -60.15309,-10.02618 c 0.50112,-1.07905 0.45702,-1.23051 -0.35831,-1.23051 -0.70062,0 -1.86317,0.8824 -1.86317,1.41418 0,0.14718 0.35472,0.32133 0.78826,0.38701 0.43355,0.0657 0.85277,0.13773 0.93159,0.16013 0.0788,0.0224 0.30456,-0.30648 0.50163,-0.73081 z m -20.965486,-1.06479 c 0.21605,-0.56301 -0.385167,-1.59893 -0.927979,-1.59893 -0.370579,0 -0.41357,-0.24143 -0.252077,-1.41563 l 0.194699,-1.41563 -1.009129,-0.18931 c -1.313532,-0.24642 -1.721982,5.7e-4 -1.301197,0.7868 0.175981,0.32883 0.256946,1.15697 0.179923,1.84032 -0.129042,1.14485 -0.06968,1.28753 0.755718,1.81637 1.0498,0.67262 2.138325,0.7538 2.360042,0.17601 z m 2.303982,-3.32502 c -0.311099,-0.52665 -0.433981,-1.0948 -0.316703,-1.46431 0.138195,-0.43542 0.08333,-0.56816 -0.196753,-0.47604 -0.608602,0.20015 -0.65779,2.19209 -0.07016,2.84141 0.778334,0.86005 1.22059,0.17724 0.583621,-0.90106 z m 2.251227,-1.14033 c 0.09744,-0.15765 0.04055,-0.28664 -0.126405,-0.28664 -0.166957,0 -0.303559,0.12899 -0.303559,0.28664 0,0.15765 0.05688,0.28664 0.126405,0.28664 0.06952,0 0.206124,-0.12899 0.303559,-0.28664 z m -1.863175,-2.16674 c 0,-0.5186 -0.155024,-0.69968 -0.598999,-0.69968 -0.329449,0 -0.813158,-0.25724 -1.074909,-0.57164 -0.345313,-0.41477 -0.593898,-0.49567 -0.905874,-0.2948 -0.570299,0.36719 -0.04417,1.2598 0.818169,1.38808 0.338965,0.0504 0.751478,0.34426 0.916696,0.65297 0.378469,0.70718 0.844917,0.44499 0.844917,-0.47493 z m -4.299636,-4.69642 c 0,-0.14872 -0.284971,-0.46999 -0.63327,-0.71395 -0.495241,-0.34688 -0.557718,-0.51911 -0.286642,-0.79019 0.522255,-0.52226 0.417864,-1.03066 -0.255511,-1.24438 -1.103337,-0.35018 -1.199737,0.28885 -0.254791,1.689 0.840253,1.24501 1.430214,1.68207 1.430214,1.05952 z m -4.156313,-4.02925 c 0.09744,-0.15765 -0.09605,-0.28664 -0.429964,-0.28664 -0.333915,0 -0.527399,0.12899 -0.429963,0.28664 0.09744,0.15765 0.290918,0.28664 0.429963,0.28664 0.139045,0 0.332528,-0.12899 0.429964,-0.28664 z m -2.43646,-4.58628 c 0,-0.31849 -0.191095,-0.57328 -0.429964,-0.57328 -0.238868,0 -0.429963,0.25479 -0.429963,0.57328 0,0.3185 0.191095,0.57329 0.429963,0.57329 0.238869,0 0.429964,-0.25479 0.429964,-0.57329 z m -1.251852,-2.71886 c 0.08989,-0.23425 -0.172008,-0.82431 -0.582281,-1.31189 -0.410106,-0.48738 -0.745648,-1.06974 -0.745648,-1.29412 0,-0.23875 -0.283371,-0.40797 -0.683175,-0.40797 -0.909999,0 -1.127565,0.90782 -0.558446,2.33019 0.394395,0.98569 0.553437,1.10952 1.425061,1.10952 0.603347,0 1.044025,-0.16393 1.144489,-0.42573 z m 4.261596,-2.72734 c 0.09744,-0.15765 0.04055,-0.28664 -0.126404,-0.28664 -0.166958,0 -0.303559,0.12899 -0.303559,0.28664 0,0.15765 0.05688,0.28664 0.126404,0.28664 0.06952,0 0.206124,-0.12899 0.303559,-0.28664 z m -4.235948,-1.33723 c 0.115616,-0.34726 -0.991389,-0.84036 -1.267269,-0.56448 -0.08642,0.0864 -0.07709,0.36571 0.02074,0.62064 0.196139,0.51113 1.070783,0.47173 1.246534,-0.0562 z m 1.562798,-2.16718 c -0.157653,-0.15766 -0.440642,-0.19147 -0.628863,-0.0751 -0.260007,0.16069 -0.252079,0.26721 0.033,0.4434 0.488993,0.30221 0.969422,0.005 0.595865,-0.36826 z m -9.054317,127.76158 c -0.569176,-0.86867 -0.624454,-5.84933 -0.06397,-5.76403 1.120834,0.1706 1.925687,2.35824 1.298662,3.52984 -0.286187,0.53475 -0.29123,0.88185 -0.02356,1.62207 0.448779,1.24108 0.435281,1.331 -0.199781,1.331 -0.297174,0 -0.752281,-0.32349 -1.011346,-0.71888 z m 12.444073,-1.57425 c 0,-0.15766 0.136602,-0.28665 0.303559,-0.28665 0.166958,0 0.22384,0.12899 0.126405,0.28665 -0.09744,0.15765 -0.234037,0.28664 -0.303559,0.28664 -0.06952,0 -0.126405,-0.12899 -0.126405,-0.28664 z m -12.32562,-5.89309 c 0,-0.24578 -0.107154,-0.38066 -0.238119,-0.29971 -0.130966,0.0809 -0.267069,-0.5684 -0.302452,-1.44299 -0.0503,-1.24332 0.01726,-1.54106 0.309779,-1.36511 0.307491,0.18496 0.307619,0.14296 7.17e-4,-0.23585 -0.317929,-0.39242 -0.282923,-0.4896 0.235669,-0.65419 1.5151,-0.48088 3.102504,0.86301 2.737448,2.31751 -0.377341,1.50345 -2.743042,2.95264 -2.743042,1.68034 z M 190.89207,878.54675 c 0,-0.39413 0.0651,-0.55537 0.14458,-0.3583 0.0795,0.19707 0.0795,0.51954 0,0.7166 -0.0795,0.19707 -0.14458,0.0358 -0.14458,-0.3583 z m -0.63648,-7.48622 c -0.31642,-0.59123 -0.18398,-3.4064 0.20835,-4.42879 0.40216,-1.048 0.66952,-0.18854 0.66952,2.15225 0,2.62709 -0.28907,3.37672 -0.87787,2.27654 z m -16.75064,-3.40619 c -0.0974,-0.15765 -0.0405,-0.28664 0.12641,-0.28664 0.16696,0 0.30356,0.12899 0.30356,0.28664 0,0.15766 -0.0569,0.28665 -0.12641,0.28665 -0.0695,0 -0.20612,-0.12899 -0.30356,-0.28665 z M 85.86406,853.15685 c -0.118239,-0.11925 -0.214981,-0.47909 -0.214981,-0.79965 0,-0.42188 0.08659,-0.49626 0.313523,-0.26932 0.172438,0.17244 0.26918,0.53228 0.214982,0.79965 -0.0542,0.26737 -0.195284,0.38856 -0.313524,0.26932 z m -9.029233,-2.33365 c -0.492331,-0.1766 -0.452369,-0.65404 0.05474,-0.65404 0.474784,0 0.850559,0.47266 0.523216,0.65812 -0.120811,0.0684 -0.380893,0.0666 -0.57796,-0.004 z m 13.994618,-1.12266 c -0.326749,-0.41539 -0.594089,-1.01088 -0.594089,-1.32331 0,-0.47831 0.124517,-0.53564 0.788267,-0.36293 1.985248,0.51659 3.528502,-0.1277 3.057887,-1.27662 -0.09872,-0.24101 -0.357725,-1.26788 -0.57557,-2.28195 -0.217845,-1.01407 -0.559136,-1.94727 -0.758424,-2.07377 -0.199288,-0.1265 -0.902933,-0.23198 -1.563656,-0.2344 -0.660722,-0.002 -1.282703,-0.13608 -1.38218,-0.29703 -0.267206,-0.43235 1.817154,-1.23066 3.287579,-1.25914 l 1.277371,-0.0247 0.388399,2.57978 c 0.456771,3.03391 0.472447,4.95204 0.04956,6.06432 -0.396674,1.04333 -0.734655,1.23536 -2.18363,1.24067 -0.955147,0.004 -1.317629,-0.14843 -1.791515,-0.75087 z m -13.994618,-1.15443 c -0.670615,-0.2706 -0.376879,-1.16613 0.501883,-1.53012 0.685734,-0.28404 0.947333,-0.28398 1.289891,2.9e-4 1.183107,0.98189 -0.207412,2.1691 -1.791774,1.5298 z m 4.562157,-1.26065 c 0.05268,-0.35993 0.267871,-0.71114 0.478204,-0.78046 0.259843,-0.0856 0.351722,0.0837 0.286642,0.52838 -0.05268,0.35993 -0.267871,0.71113 -0.478203,0.78046 -0.259844,0.0856 -0.351722,-0.0837 -0.286643,-0.52838 z m -3.773891,-4.79715 c -0.693636,-0.2444 -1.127675,-0.99591 -1.137453,-1.96944 -0.01058,-1.05374 0.370447,-1.26548 1.567417,-0.87103 1.202457,0.39625 1.903262,1.07346 1.804132,1.74336 -0.09268,0.62632 -1.545449,1.33974 -2.234096,1.09711 z m 5.013064,-5.04161 c -0.269019,-0.19671 -0.441085,-0.60711 -0.38237,-0.912 0.08119,-0.4216 0.346038,-0.55433 1.106079,-0.55433 0.862052,0 0.999322,0.0939 0.999322,0.68377 0,0.84757 -1.008019,1.30539 -1.723031,0.78256 z m -5.514688,-2.82223 c -0.82036,-0.39208 -0.815425,-0.82048 0.01847,-1.60388 0.734957,-0.69046 1.619382,-0.80557 2.145675,-0.27928 1.098192,1.09819 -0.640666,2.61128 -2.16415,1.88316 z m 0.788267,-9.79927 c 0,-0.24962 0.204232,-0.45385 0.45385,-0.45385 0.249618,0 0.402792,0.15317 0.340388,0.34039 -0.177166,0.5315 -0.794238,0.61965 -0.794238,0.11346 z"
         id="path3126" />
      <path
         style="fill:#c88c72"
         d="m 98.934907,943.5429 c 0.102757,-4.1384 0.269269,-10.81358 0.370026,-14.83374 l 0.183194,-7.30938 -1.646828,-3.58303 c -0.905755,-1.97067 -1.895726,-4.20896 -2.199934,-4.974 -0.875769,-2.2024 -2.424409,-4.41196 -3.458816,-4.93494 -0.51917,-0.26248 -1.228711,-0.73749 -1.576759,-1.05557 -0.389242,-0.35572 -1.621793,-0.7839 -3.202241,-1.11243 -1.413186,-0.29376 -3.643706,-0.92977 -4.956712,-1.41336 -1.313006,-0.48358 -2.967735,-1.00165 -3.677174,-1.15127 -0.70944,-0.14962 -1.515622,-0.34337 -1.791515,-0.43057 -0.469707,-0.14845 -0.501624,-1.15809 -0.501624,-15.86791 l 0,-15.70938 1.094113,-0.17496 c 2.155196,-0.34462 6.342294,-2.11002 7.512997,-3.16768 0.62721,-0.56664 1.260713,-1.03026 1.407785,-1.03026 0.147072,0 1.05791,-0.96742 2.024083,-2.14982 1.748605,-2.13994 1.763089,-2.14982 3.151004,-2.14982 1.384785,0 2.2952,-0.49562 2.2952,-1.24948 0,-0.3809 2.297821,-2.68293 3.431828,-3.43811 0.389798,-0.25959 1.047637,-0.47197 1.461865,-0.47197 0.414226,0 1.311161,-0.40423 1.993191,-0.89829 0.99189,-0.71852 1.33033,-0.83288 1.6912,-0.57146 0.24813,0.17976 0.64463,0.39981 0.88111,0.48901 1.16418,0.43911 1.28953,0.63065 1.19648,1.82818 -0.0825,1.06145 0.0272,1.31934 0.9368,2.20275 0.60364,0.58623 1.4312,1.06561 1.99857,1.15768 1.08322,0.17578 1.14078,0.0873 1.47251,-2.2638 0.18546,-1.31438 0.93538,-2.49213 1.03208,-1.62086 0.024,0.21636 0.0736,0.52238 0.11025,0.68004 0.0366,0.15765 0.0815,0.42305 0.0997,0.58978 0.033,0.30291 1.31942,0.92524 3.15724,1.52742 1.25939,0.41265 1.16116,0.44581 1.49218,-0.50375 0.27056,-0.77614 0.36357,-0.81607 1.63328,-0.70117 0.74051,0.067 1.90012,0.24713 2.57691,0.40027 1.11296,0.25183 1.42789,0.18477 3.29639,-0.70192 1.13622,-0.5392 2.32383,-1.26561 2.63914,-1.61426 0.31531,-0.34865 1.03371,-0.8689 1.59645,-1.15612 0.56274,-0.28722 1.57461,-0.98293 2.2486,-1.54603 0.67399,-0.5631 1.38546,-1.02382 1.58105,-1.02382 0.19559,0 0.96426,-0.60006 1.70817,-1.33345 1.18284,-1.16613 1.53945,-1.35097 2.84199,-1.47308 0.81919,-0.0768 1.57717,-0.27598 1.68441,-0.44262 0.28299,-0.43975 -0.27773,-1.33713 -0.83548,-1.33713 -0.26237,0 -1.95242,0.99967 -3.75568,2.22148 -4.0524,2.74573 -3.61076,2.50159 -5.51817,3.05046 -2.65265,0.76332 -2.55363,0.85355 -2.56143,-2.33385 -0.009,-3.53989 -0.27505,-4.65985 -1.54801,-6.50813 -0.56371,-0.81848 -1.02493,-1.68805 -1.02493,-1.93236 0,-0.24432 -0.28141,-1.07331 -0.62536,-1.8422 -0.54503,-1.21839 -0.61975,-1.8583 -0.58164,-4.98102 0.0241,-1.97066 -0.0823,-5.10714 -0.23644,-6.96994 -0.22786,-2.75439 -0.19953,-3.73468 0.15167,-5.24901 0.23751,-1.02416 0.43184,-2.24394 0.43184,-2.71064 0,-0.59442 0.35047,-1.22876 1.17027,-2.11813 0.71505,-0.77574 1.12498,-1.47012 1.05386,-1.78511 -0.20592,-0.91203 0.56401,-2.02931 1.54724,-2.24527 1.02025,-0.22408 1.85674,-0.69439 3.67858,-2.06827 0.77869,-0.58722 1.56537,-0.93158 2.12816,-0.93158 0.49106,0 1.37416,-0.25798 1.96245,-0.57329 0.5883,-0.3153 1.21189,-0.57328 1.38577,-0.57328 0.41664,0 3.69893,-2.03017 3.69893,-2.28787 0,-0.27206 1.34327,-0.8652 1.95937,-0.8652 0.27456,0 1.01018,-0.26233 1.63471,-0.58296 1.29206,-0.66333 2.02999,-0.57077 3.19158,0.40033 0.4457,0.37261 1.10985,0.77125 1.47589,0.88586 0.36604,0.11462 1.34028,0.75799 2.16498,1.42972 0.8247,0.67173 1.87367,1.34606 2.33105,1.49852 0.59186,0.19729 0.89991,0.54086 1.06859,1.19182 0.30156,1.16374 2.5778,3.53103 4.15473,4.32092 0.71993,0.36061 1.40739,0.98449 1.6926,1.53603 0.45149,0.8731 0.67602,1.22974 2.11132,3.35363 0.3153,0.46657 0.57328,1.09133 0.57328,1.38834 0,0.29701 0.25798,1.28984 0.57329,2.20629 0.60372,1.75477 0.73886,3.16022 0.32826,3.41399 -0.13477,0.0833 -0.52373,0.9158 -0.86437,1.85003 -0.37629,1.03201 -0.89882,1.88173 -1.33151,2.16523 -0.62309,0.40827 -0.71216,0.67476 -0.71216,2.13074 0,1.34869 -0.15637,1.90432 -0.825,2.93147 -0.45375,0.69706 -0.91679,1.78333 -1.02898,2.41395 -0.33232,1.86792 -3.18872,7.13435 -4.74567,8.74971 -0.7668,0.79558 -1.47598,1.73214 -1.57594,2.08124 -0.35442,1.23773 -1.97915,4.21777 -2.29954,4.21777 -0.17889,0 -0.46404,-0.30457 -0.63365,-0.67683 -0.37074,-0.81368 -1.29752,-1.11351 -1.95526,-0.63256 -0.65451,0.47859 -0.3219,1.31459 0.80606,2.02599 0.71462,0.45071 1.06786,1.03295 1.65211,2.72311 0.60055,1.73729 0.90738,2.23232 1.599,2.57978 2.25903,1.1349 6.50256,4.58627 5.6389,4.58627 -0.49828,0 -3.97326,2.44423 -6.5758,4.62527 -1.29126,1.08213 -2.47504,1.96751 -2.63064,1.96751 -0.35039,0 -1.47107,1.39424 -1.47107,1.83017 0,0.2076 0.77867,0.31964 2.22148,0.31964 1.93741,0 2.4414,0.11556 3.94133,0.90366 0.94592,0.49701 2.10682,1.05999 2.57978,1.25108 0.80063,0.32347 0.8191,0.36294 0.2679,0.57241 -0.32561,0.12373 -1.10994,0.13027 -1.74295,0.0145 -1.41306,-0.2584 -2.13186,-0.0131 -2.92831,0.99946 -0.8189,1.04106 -0.77442,1.4077 0.26016,2.14439 0.65158,0.46396 1.14239,0.58522 1.93484,0.47801 0.58399,-0.079 3.44809,-0.42386 6.36468,-0.76634 2.91658,-0.34248 5.66466,-0.80484 6.10685,-1.02746 0.66348,-0.33404 1.54004,-0.35532 5.01624,-0.12181 7.25648,0.48746 7.47255,0.56621 10.01354,3.64974 0.55214,0.67002 1.11166,1.21823 1.24338,1.21823 0.13173,0 0.92237,0.40805 1.75699,0.90679 0.83462,0.49874 2.39045,1.33663 3.45741,1.86197 1.06696,0.52534 2.50027,1.47167 3.18513,2.10295 0.68485,0.63127 1.43503,1.14777 1.66706,1.14777 0.62103,0 2.54041,1.94108 3.52701,3.56689 0.47296,0.77939 1.07623,1.7468 1.3406,2.14982 0.41081,0.62625 0.48372,1.63937 0.50162,6.97046 l 0.021,6.23771 -1.20636,1.78827 c -1.98568,2.94353 -3.99864,5.09803 -5.45048,5.83374 -2.82651,1.4323 -8.46304,1.47617 -11.24354,0.0875 -1.76168,-0.87983 -3.54426,-3.04451 -4.76043,-5.78084 -0.54295,-1.22163 -1.11617,-2.17892 -1.27383,-2.12732 -0.15765,0.0516 -0.35596,0.92212 -0.44068,1.93449 -0.0847,1.01237 -0.4859,2.7436 -0.8915,3.84717 -0.65968,1.79485 -0.76437,2.64144 -0.99254,8.02599 -0.14028,3.31072 -0.21505,8.47028 -0.16615,11.46569 0.0489,2.99541 0.003,7.92925 -0.10298,10.96407 l -0.19188,5.51787 -34.40904,0 -34.409043,0 0.186832,-7.52437 -7.2e-5,5e-5 z m 29.710523,-53.38713 c 0,-0.39414 -0.12899,-0.71661 -0.28664,-0.71661 -0.15766,0 -0.28665,0.32247 -0.28665,0.71661 0,0.39413 0.12899,0.7166 0.28665,0.7166 0.15765,0 0.28664,-0.32247 0.28664,-0.7166 z m 26.92238,-0.0255 c 1.00612,-0.84659 1.12088,-1.2644 0.3473,-1.2644 -0.6844,0 -2.04516,1.0628 -2.04516,1.59733 0,0.62918 0.72294,0.48742 1.69786,-0.33292 l 0,-10e-6 z m -21.58788,-6.19846 c 0.93909,-1.81602 -0.20502,-1.09302 -1.82567,1.15368 l -0.6475,0.89762 1.01627,-0.59962 c 0.55895,-0.32978 1.21455,-0.98304 1.4569,-1.45168 z m 19.65247,1.59324 c 0.5667,-0.51286 0.68136,-1.1145 0.26182,-1.37379 -0.29267,-0.18088 -2.03076,1.17741 -2.03076,1.58702 0,0.43738 1.21137,0.29136 1.76894,-0.21323 z m 20.47208,-0.52905 c -0.49083,-0.74909 -1.02949,-0.73531 -1.02949,0.0264 0,0.38589 1.14169,1.0457 1.40038,0.80931 0.0608,-0.0555 -0.10613,-0.43158 -0.37089,-0.83566 l 0,-5e-5 z m -49.80496,-1.69441 c 0.0534,-0.27529 -0.35523,-1.42804 -0.90801,-2.56166 -0.80322,-1.64721 -1.24004,-2.19319 -2.1752,-2.71878 -0.64358,-0.36171 -1.17015,-0.76125 -1.17015,-0.88787 0,-0.71152 -4.57342,-2.88575 -6.07068,-2.88603 -0.87714,-1.6e-4 -1.76587,0.7423 -1.48569,1.2412 0.9882,1.75961 1.93854,2.47104 3.85411,2.88519 0.40739,0.0881 1.24582,0.56305 1.86318,1.05549 0.61736,0.49243 1.71155,1.19499 2.43152,1.56123 0.78733,0.4005 1.62207,1.1389 2.09444,1.8527 0.79423,1.20016 1.38894,1.37424 1.56648,0.45853 z m 14.37839,-3.7516 c 0.37027,-0.39413 0.54423,-0.71661 0.38658,-0.71661 -0.15766,0 -0.58959,0.32248 -0.95986,0.71661 -0.37027,0.39413 -0.54423,0.71661 -0.38658,0.71661 0.15766,0 0.58959,-0.32248 0.95986,-0.71661 z m 9.06041,-10.89975 c 0.44376,-0.67728 0.44172,-0.76001 -0.0317,-1.28313 -0.68397,-0.75579 -1.00271,-0.47686 -1.00271,0.87743 0,1.30119 0.35614,1.44087 1.03442,0.4057 l -1e-5,0 z m -25.39902,-1.56919 c 0,-0.47296 -0.12899,-0.85993 -0.28664,-0.85993 -0.15766,0 -0.28665,0.38697 -0.28665,0.85993 0,0.47296 0.12899,0.85993 0.28665,0.85993 0.15765,0 0.28664,-0.38697 0.28664,-0.85993 z m 0.51978,-3.08141 c 0.10501,-1.08913 -0.4295,-1.2499 -1.22673,-0.36898 -0.65224,0.72073 -0.37237,1.51489 0.49068,1.39234 0.49573,-0.0704 0.66715,-0.30873 0.73605,-1.02336 z m 22.40857,-14.83009 c 0.50447,-0.60783 0.20008,-1.15501 -1.13343,-2.03748 -1.1267,-0.74562 -1.18336,-0.75397 -1.734,-0.25565 -0.92501,0.83712 -0.71477,1.53485 0.64899,2.15388 1.47722,0.67054 1.76265,0.68846 2.21844,0.13925 z m -2.03458,-6.10831 c 0.24456,-0.45697 0.64093,-0.5059 3.51096,-0.43336 3.0903,0.0781 3.2839,0.048 4.32067,-0.67042 0.71149,-0.49307 1.0854,-0.97431 1.0854,-1.39696 0,-0.70673 -0.0842,-0.71101 -4.96004,-0.25203 -1.46308,0.13773 -2.34516,0.0594 -3.53094,-0.31358 -1.78913,-0.56275 -1.97686,-0.85596 -2.32469,-3.63089 -0.25278,-2.01656 -0.75021,-2.55439 -1.88453,-2.03757 -0.58222,0.26528 -0.76223,0.64592 -1.02847,2.17481 -0.1775,1.01928 -0.2485,2.04669 -0.15777,2.28313 0.0954,0.24865 -0.20544,0.85175 -0.71364,1.43056 -1.02443,1.16675 -1.10935,1.64159 -0.2936,1.64159 0.79445,0 4.24438,1.13087 4.44621,1.45745 0.27675,0.44779 1.24073,0.2886 1.53044,-0.25273 z m 6.7818,-11.33591 c -0.40216,-0.52726 -0.73119,-1.18583 -0.73119,-1.4635 0,-0.27766 -0.32935,-0.89625 -0.73188,-1.37463 -0.40252,-0.47838 -0.6605,-1.05575 -0.57328,-1.28305 0.0872,-0.2273 0.15859,-0.67481 0.15859,-0.99447 0,-0.49344 0.14879,-0.56383 0.98541,-0.46616 1.16896,0.13647 1.42796,-0.3668 0.87077,-1.69198 -0.55504,-1.32005 -1.51945,-2.04819 -3.53894,-2.67195 -1.66903,-0.51551 -1.90778,-0.52842 -2.50734,-0.13557 -0.91291,0.59816 -1.32529,1.47006 -1.12844,2.38583 0.0969,0.4506 -0.0615,1.36755 -0.38087,2.20467 -0.51647,1.35394 -0.61575,1.44395 -1.79495,1.62745 -2.08859,0.32501 -2.86481,0.57984 -3.02315,0.99246 -0.26248,0.684 0.71697,1.78587 1.84542,2.07606 0.59184,0.1522 1.91449,0.5068 2.93924,0.788 1.02475,0.2812 3.15307,0.59015 4.7296,0.68656 1.57653,0.0964 3.03422,0.1986 3.23931,0.2271 0.2151,0.0299 0.0635,-0.35384 -0.3583,-0.90682 z m 1.37896,-3.19767 c 0.22034,-0.5742 -0.0757,-1.28989 -0.53362,-1.28989 -0.38315,0 -0.71661,0.61113 -0.71661,1.31333 0,0.54218 1.04067,0.52267 1.25023,-0.0235 l 0,6e-5 z M 130.75507,823.69 c 0.59304,-0.24779 1.08514,-0.73385 1.32207,-1.30584 0.49607,-1.19763 0.11371,-1.58993 -1.29251,-1.32613 -1.29295,0.24256 -2.42584,1.3153 -2.42584,2.29704 0,0.58964 0.13925,0.72963 0.72581,0.72963 0.39919,0 1.15091,-0.17762 1.67047,-0.3947 z m 46.76288,55.0122 c -1.10358,-1.15681 -2.45242,-2.81323 -2.99744,-3.68092 -0.79082,-1.259 -1.34076,-1.757 -2.7231,-2.46589 -0.95269,-0.48856 -1.96637,-0.88824 -2.25263,-0.88818 -0.6691,1.5e-4 -1.62935,-0.51252 -1.62935,-0.8699 0,-0.38753 3.0576,-0.34631 3.81685,0.0515 0.34436,0.1804 1.11019,0.76085 1.70184,1.28989 0.59166,0.52903 1.24636,0.96188 1.45491,0.96188 0.53469,0 1.41171,1.04165 2.33607,2.77456 0.43556,0.81657 1.29974,1.89276 1.9204,2.39153 0.87098,0.69995 1.10836,1.07558 1.04035,1.64629 -0.0485,0.40669 -0.21711,0.77389 -0.37476,0.81601 -0.15766,0.0421 -1.18957,-0.86991 -2.29314,-2.02673 l 0,-4e-5 z m -2.2958,0.98596 c -0.40892,-0.79075 -0.40706,-0.88054 0.0215,-1.04501 0.54685,-0.20985 0.97367,0.34119 0.97996,1.26514 0.006,0.90696 -0.47317,0.8016 -1.00153,-0.22013 l 7e-5,0 z m -23.77009,-5.9843 c -0.20366,-0.32953 0.51401,-0.60332 1.58141,-0.60332 0.89947,0 1.1238,0.40169 0.38308,0.68594 -0.67153,0.25769 -1.78306,0.21094 -1.96449,-0.0826 l 0,-2e-5 z"
         id="path3120"
         sodipodi:nodetypes="ccccssssssscccssssssssssssssssssssssssssssssssssssssssssssssssssssssssssssssssssssssssssssssssssssssssssssssssscccsssssssscccccccsssccssccccccccssccsscccsssssssssccsssccsscccsssccssccsssccssssssssssssccssssssssssssssssccsscccssssccssssssssssscccsscccsscc" />
      <path
         style="fill:#a35c4a"
         d="m 98.934907,943.5429 c 0.102757,-4.1384 0.269269,-10.81358 0.370026,-14.83374 l 0.183194,-7.30938 -1.646828,-3.58303 c -0.905755,-1.97067 -1.895726,-4.20896 -2.199934,-4.974 -0.875769,-2.2024 -2.424409,-4.41196 -3.458816,-4.93494 -0.51917,-0.26248 -1.228711,-0.73749 -1.576759,-1.05557 -0.389242,-0.35572 -1.621793,-0.7839 -3.202241,-1.11243 -1.413186,-0.29376 -3.643706,-0.92977 -4.956712,-1.41336 -1.313006,-0.48358 -2.967735,-1.00165 -3.677174,-1.15127 -0.70944,-0.14962 -1.515622,-0.34337 -1.791515,-0.43057 -0.469163,-0.14827 -0.501624,-1.11064 -0.501624,-14.87134 l 0,-14.71281 1.074909,-0.55604 c 0.5912,-0.30581 2.429294,-1.24117 4.084653,-2.07857 3.6039,-1.82312 6.878569,-4.46725 7.904987,-6.38288 0.392516,-0.73256 0.550721,-0.78826 2.238762,-0.78826 1.544305,0 1.968487,-0.11808 2.831676,-0.78827 0.558402,-0.43354 1.414568,-1.008 1.90259,-1.27656 0.589204,-0.32424 0.888788,-0.70945 0.891703,-1.14657 0.0073,-1.09178 0.402469,-1.45698 1.35115,-1.24862 0.702452,0.15429 0.934943,0.0638 1.311056,-0.51022 0.25146,-0.38376 0.89342,-0.96736 1.42658,-1.29688 0.84158,-0.52012 1.08917,-0.5539 1.87782,-0.25622 0.85927,0.32434 0.90842,0.42332 0.90842,1.82935 0,1.46466 0.0194,1.49784 1.32617,2.26363 0.72939,0.42745 1.72123,0.79443 2.20409,0.81551 0.75641,0.033 0.91585,-0.0906 1.15177,-0.89327 0.21572,-0.73394 0.42795,-0.93159 1.00027,-0.93159 0.83957,0 2.41585,0.45371 3.58515,1.03192 1.11487,0.55131 1.26879,0.52172 2.38536,-0.45864 1.12641,-0.98899 1.49708,-1.03261 3.36539,-0.39601 1.34984,0.45993 1.36808,0.45777 2.12922,-0.25207 0.42225,-0.39379 1.25105,-0.8704 1.84179,-1.05914 0.59073,-0.18874 1.6026,-0.78475 2.2486,-1.32447 0.64599,-0.53971 1.2863,-0.9813 1.4229,-0.9813 0.1366,0 0.94236,-0.56526 1.79056,-1.25613 0.84821,-0.69088 1.79163,-1.33531 2.09649,-1.43206 0.30486,-0.0968 1.05274,-0.66008 1.66197,-1.25182 0.94156,-0.91453 1.34548,-1.0974 2.69336,-1.21938 1.44386,-0.13066 1.61046,-0.21817 1.86267,-0.97842 0.22838,-0.68839 0.18202,-0.90446 -0.26407,-1.23101 -0.31491,-0.23053 -0.8406,-0.3242 -1.25767,-0.22411 -0.79731,0.19134 -4.09233,2.28132 -5.90547,3.74575 -1.32576,1.07077 -4.44329,1.98304 -4.97155,1.45479 -0.16612,-0.16613 -0.30459,-0.88895 -0.30771,-1.60627 -0.013,-2.97421 -0.54632,-5.26864 -1.57268,-6.76532 -0.54618,-0.79647 -1.08014,-1.89287 -1.18659,-2.43646 -0.10644,-0.5436 -0.35095,-1.24633 -0.54334,-1.56164 -0.4988,-0.81745 -0.80754,-3.35325 -0.73289,-6.01949 0.0353,-1.26122 -0.0737,-3.88174 -0.24234,-5.82337 -0.25446,-2.93053 -0.23317,-3.84657 0.12532,-5.39233 0.23751,-1.02416 0.43184,-2.24394 0.43184,-2.71064 0,-0.59442 0.35047,-1.22876 1.17027,-2.11813 0.71505,-0.77574 1.12498,-1.47012 1.05386,-1.78511 -0.20592,-0.91203 0.56401,-2.02931 1.54724,-2.24527 1.02025,-0.22408 1.85674,-0.69439 3.67858,-2.06827 0.77869,-0.58722 1.56537,-0.93158 2.12816,-0.93158 0.49106,0 1.37416,-0.25798 1.96245,-0.57329 0.5883,-0.3153 1.21189,-0.57328 1.38577,-0.57328 0.41664,0 3.69893,-2.03017 3.69893,-2.28787 0,-0.27206 1.34327,-0.8652 1.95937,-0.8652 0.27456,0 1.01018,-0.26233 1.63471,-0.58296 1.29206,-0.66333 2.02999,-0.57077 3.19158,0.40033 0.4457,0.37261 1.10985,0.77125 1.47589,0.88586 0.36604,0.11462 1.34028,0.75799 2.16498,1.42972 0.8247,0.67173 1.87367,1.34606 2.33105,1.49852 0.59186,0.19729 0.89991,0.54086 1.06859,1.19182 0.30156,1.16374 2.5778,3.53103 4.15473,4.32092 0.71993,0.36061 1.40739,0.98449 1.6926,1.53603 0.45149,0.8731 0.67602,1.22974 2.11132,3.35363 0.3153,0.46657 0.57328,1.09133 0.57328,1.38834 0,0.29701 0.25798,1.28984 0.57329,2.20629 0.60372,1.75477 0.73886,3.16022 0.32826,3.41399 -0.13477,0.0833 -0.52373,0.9158 -0.86437,1.85003 -0.37629,1.03201 -0.89882,1.88173 -1.33151,2.16523 -0.62309,0.40827 -0.71216,0.67476 -0.71216,2.13074 0,1.34869 -0.15637,1.90432 -0.825,2.93147 -0.45375,0.69706 -0.91564,1.78333 -1.02643,2.41395 -0.31023,1.7659 -3.27994,7.27772 -4.63111,8.59541 -0.73559,0.71737 -1.61879,2.09457 -2.34621,3.65855 -0.6416,1.37946 -1.30572,2.50812 -1.47583,2.50812 -0.1701,0 -0.67587,-0.4103 -1.12394,-0.91178 -0.77447,-0.86678 -0.85914,-0.89335 -1.71582,-0.53851 -0.64723,0.2681 -0.90114,0.5622 -0.90114,1.0438 0,0.7315 0.26377,1.03247 1.59537,1.82036 0.8421,0.49825 1.51796,1.80737 1.9613,3.79897 0.18072,0.81186 1.5793,1.95155 3.97875,3.24224 1.3347,0.71794 2.06409,1.75472 1.76337,2.5065 -0.0794,0.19843 -1.11522,1.07023 -2.30187,1.93732 -1.18665,0.86709 -2.58624,1.93125 -3.1102,2.3648 -0.52396,0.43355 -1.03237,0.78827 -1.1298,0.78827 -0.41654,0 -0.12118,-0.62481 0.57678,-1.22013 0.41466,-0.35368 0.93745,-1.07447 1.16176,-1.60177 0.36692,-0.86255 0.35599,-1.03509 -0.10898,-1.71986 -0.28424,-0.41862 -0.58659,-1.01911 -0.67188,-1.33441 -0.0853,-0.31531 -0.43064,-0.61328 -0.76745,-0.66215 -0.33681,-0.0489 -0.76653,-0.27461 -0.95493,-0.50163 -0.77474,-0.9335 -1.83147,-0.15501 -2.9013,2.1374 -0.51819,1.11037 -0.54563,1.3891 -0.23065,2.34349 0.46607,1.41219 0.22607,1.98577 -0.83088,1.98577 -0.68463,0 -1.03903,0.2742 -1.89586,1.46685 -0.62624,0.87168 -0.94892,1.57176 -0.79527,1.72541 0.29555,0.29555 1.81443,-0.2111 3.9104,-1.30441 0.76916,-0.40121 1.51261,-0.65893 1.65211,-0.57272 0.24675,0.1525 -1.21601,2.41351 -1.96191,3.03255 -0.40033,0.33225 -0.51051,1.10052 -0.15709,1.09542 0.11824,-0.002 0.84818,-0.19519 1.62209,-0.42996 1.81769,-0.55142 3.60158,-0.54358 4.40528,0.0194 0.86697,0.60725 0.80399,0.99939 -0.33836,2.1066 -1.27827,1.23894 -1.46068,2.20319 -0.58286,3.08102 0.80019,0.80018 2.23167,0.86995 4.85467,0.2366 2.77043,-0.66895 6.44945,-0.45474 6.44945,0.37551 0,0.45003 -2.13656,1.26164 -3.72252,1.41405 -1.91156,0.18371 -3.25341,0.93482 -3.73133,2.08864 -0.28286,0.68288 -0.28259,0.94521 0.001,1.28735 0.69957,0.84293 1.88628,0.50584 3.63779,-1.03332 l 1.66488,-1.46302 1.64819,0.17313 c 0.90651,0.0952 2.41062,0.2545 3.34248,0.35395 2.4073,0.2569 3.17863,0.0116 3.17863,-1.01111 0,-0.45065 -0.19348,-0.97994 -0.42996,-1.1762 -0.57402,-0.4764 -0.54361,-1.0666 0.0717,-1.39037 0.92571,-0.48713 4.44719,-0.65922 6.09115,-0.29767 0.86709,0.1907 2.02799,0.36191 2.57978,0.38048 1.68796,0.0568 2.16986,0.38872 3.5266,2.42908 0.89422,1.34477 1.608,2.08988 2.25813,2.35723 1.74629,0.71812 6.09306,3.04259 7.64775,4.08969 0.94502,0.63647 1.82808,1.01318 2.29314,0.97824 1.11511,-0.0838 2.21322,0.77696 3.20687,2.51368 0.48453,0.84688 0.99389,1.60957 1.1319,1.69486 0.138,0.0853 0.45257,0.5593 0.69903,1.05335 0.36436,0.73039 0.44811,2.04243 0.44811,7.02028 l 0,6.12201 -1.20635,1.78827 c -1.98569,2.94353 -3.99865,5.09803 -5.45049,5.83373 -2.8265,1.4323 -8.46303,1.47618 -11.24353,0.0875 -1.76168,-0.87983 -3.54426,-3.04451 -4.76043,-5.78085 -0.54295,-1.22162 -1.11618,-2.17891 -1.27383,-2.12731 -0.15765,0.0516 -0.35596,0.92212 -0.44068,1.93449 -0.0847,1.01237 -0.4859,2.7436 -0.89151,3.84717 -0.65968,1.79485 -0.76437,2.64143 -0.99253,8.02599 -0.14028,3.31072 -0.21505,8.47028 -0.16615,11.46569 0.0489,2.99541 0.003,7.92924 -0.10298,10.96407 l -0.19189,5.51786 -34.40904,0 -34.409036,0 0.186833,-7.52436 3.3e-4,0 z m 92.251103,-39.54709 c -0.20568,-0.20568 -0.33919,-0.2226 -0.33919,-0.043 0,0.16291 0.086,0.38219 0.19109,0.48729 0.1051,0.1051 0.25774,0.12445 0.33919,0.043 0.0815,-0.0815 -0.005,-0.30073 -0.19109,-0.48729 z m -34.7371,-13.58676 c 1.97987,-1.78869 1.3431,-3.09567 -0.945,-1.93961 -1.85697,0.93824 -2.82262,2.39349 -1.84894,2.78638 0.90471,0.36506 1.72917,0.11519 2.79394,-0.84677 z m -27.45574,-0.13338 c 0.11243,-0.38126 0.26964,-1.02205 0.34934,-1.424 0.10438,-0.52636 0.75492,-1.12346 2.32543,-2.13441 1.30804,-0.84199 2.36007,-1.75385 2.62927,-2.27894 0.24683,-0.48143 0.68851,-1.18295 0.98152,-1.55893 0.66901,-0.85843 0.67393,-1.17957 0.0181,-1.17957 -0.52023,0 -5.90088,5.44519 -6.94315,7.02644 -0.56802,0.86174 -0.7365,1.88222 -0.37109,2.24763 0.33957,0.33957 0.79795,0.0229 1.0106,-0.69822 l -2e-5,0 z m 46.94824,-3.43557 c 0,-0.16826 -0.41921,-0.82464 -0.93158,-1.45864 -2.31669,-2.8666 -2.11524,-2.69344 -2.63325,-2.26353 -0.30241,0.25097 -0.4458,0.72043 -0.39114,1.28058 0.0737,0.75535 0.33715,1.01904 1.80616,1.80786 1.8837,1.01152 2.14981,1.08996 2.14981,0.63373 z m -51.65294,-2.33119 c 0.18918,-0.18918 0.34397,-0.71643 0.34397,-1.17165 0,-1.14443 -1.85939,-4.36384 -2.96094,-5.12669 -0.49981,-0.34613 -1.38436,-1.04938 -1.96567,-1.5628 -1.6559,-1.46247 -5.30285,-3.04764 -6.62199,-2.87828 -1.24575,0.15994 -1.92359,0.62314 -1.92359,1.31448 0,0.88864 2.07075,2.55272 4.08627,3.28378 1.06313,0.38561 2.33721,1.04126 2.83129,1.457 0.49408,0.41575 1.39364,1.00859 1.99902,1.31743 0.61062,0.31151 1.6186,1.2626 2.26391,2.13612 1.23248,1.66835 1.40254,1.7758 1.94773,1.23061 z m 43.9136,-1.94917 c 0,-0.15765 -0.12899,-0.28664 -0.28664,-0.28664 -0.15765,0 -0.28664,0.12899 -0.28664,0.28664 0,0.15766 0.12899,0.28665 0.28664,0.28665 0.15765,0 0.28664,-0.12899 0.28664,-0.28665 z M 137.90849,881.08 c 0.55236,-0.29394 1.56455,-1.15792 3.42115,-2.92022 0.40218,-0.38174 0.47141,-0.61754 0.24715,-0.8418 -0.22425,-0.22425 -0.4984,-0.13592 -0.97872,0.31531 -0.36697,0.34475 -0.80329,0.62682 -0.9696,0.62682 -0.50965,0 -3.2437,2.31581 -3.2437,2.74749 0,0.49193 0.67507,0.524 1.52372,0.0724 z m -12.98941,-8.56282 c 0,-0.43138 -0.88193,-1.70977 -1.17954,-1.70977 -0.37616,0 -0.30747,1.26476 0.0903,1.66252 0.42216,0.42216 1.08924,0.4511 1.08924,0.0473 l 0,-5e-5 z m -1.42925,-2.49804 c 0.002,-0.11824 0.0344,-1.82456 0.0717,-3.79182 0.0622,-3.2853 0.0243,-3.58538 -0.46423,-3.68155 -0.56668,-0.11154 -2.47782,1.527 -2.47782,2.12439 0,0.18869 0.19965,0.41968 0.44366,0.51331 0.33009,0.12667 0.39859,0.41043 0.26762,1.10856 -0.20428,1.08894 0.21725,2.37868 1.07764,3.29715 0.60545,0.64633 1.07405,0.83263 1.08147,0.42996 l -4e-5,0 z m 17.32691,-12.21047 c 0.83125,-0.60783 0.27894,-1.13316 -0.95343,-0.90685 -1.19141,0.21879 -1.62152,0.53292 -1.34416,0.98171 0.26871,0.43477 1.66273,0.38935 2.29759,-0.0749 l 0,4e-5 z m -1.13558,-4.77309 c -0.0974,-0.15765 -0.29853,-0.28664 -0.44688,-0.28664 -0.14835,0 -0.26973,0.12899 -0.26973,0.28664 0,0.15766 0.2011,0.28665 0.44688,0.28665 0.24579,0 0.36716,-0.12899 0.26973,-0.28665 z m 5.92526,-1.04767 c 0.28831,-0.26091 0.52419,-0.69464 0.52419,-0.96383 0,-0.2692 0.38697,-0.97638 0.85993,-1.57152 0.9989,-1.25696 1.0963,-2.03617 0.28664,-2.29314 -0.64923,-0.20606 -0.78555,-1.33963 -0.21498,-1.78775 0.19707,-0.15477 0.78782,-0.36288 1.31278,-0.46247 1.784,-0.33843 2.91859,-1.07566 3.54495,-2.30344 0.5696,-1.1165 0.58923,-1.42677 0.37387,-5.90838 -0.24855,-5.17242 -0.24826,-6.03474 0.003,-8.16971 0.16243,-1.38186 0.11348,-1.51022 -1.36611,-3.58213 -1.80699,-2.53038 -2.82337,-3.2872 -5.02966,-3.74523 -1.49504,-0.31037 -1.7253,-0.28616 -2.82454,0.29699 -0.72375,0.38395 -1.42403,0.56279 -1.77166,0.45246 -0.36417,-0.11559 -0.71445,-0.0104 -0.95578,0.28698 -1.86147,2.29392 -2.99902,3.30799 -4.01883,3.5826 -0.61831,0.16649 -1.60867,0.74041 -2.20081,1.27537 -1.01837,0.92003 -1.16187,0.96386 -2.65237,0.81002 -1.50609,-0.15544 -1.60983,-0.12212 -2.34685,0.75377 -1.33526,1.58687 -0.85541,2.13161 1.23559,1.40268 1.21607,-0.42392 5.06882,0.12558 6.69415,0.95476 2.36532,1.20669 3.47371,1.43573 7.92642,1.63789 3.93563,0.17868 4.58431,0.28013 5.66118,0.88536 1.15354,0.64833 1.21618,0.75104 1.21517,1.99233 -10e-4,1.76988 -0.74798,2.88431 -2.56285,3.82591 -1.89114,0.98115 -3.80322,1.03706 -5.48518,0.16038 -1.56311,-0.81475 -2.2676,-2.00653 -2.26895,-3.83842 -10e-4,-1.62951 -0.3441,-2.13548 -1.44719,-2.13548 -1.11064,0 -1.57857,0.7341 -2.07514,3.25556 -0.31016,1.57495 -0.65579,2.4801 -1.14923,3.00974 -1.64445,1.76507 -1.64338,2.78991 0.003,2.52279 1.25778,-0.2041 4.47854,0.92478 5.47156,1.9178 l 0.71086,0.71086 -0.60803,0.95606 c -0.66939,1.05252 -1.06458,1.84138 -1.30263,2.60021 -0.13047,0.41591 -0.37591,0.46746 -1.49517,0.31404 -1.06643,-0.14617 -1.31226,-0.10307 -1.20735,0.21166 0.0725,0.21735 0.50906,0.47307 0.97023,0.56826 0.46117,0.0952 1.12151,0.35075 1.46741,0.56793 0.55011,0.34539 0.70067,0.32992 1.20164,-0.12346 0.71005,-0.64258 2.13675,-0.28515 2.26526,0.56752 0.30043,1.99339 0.41921,2.12246 1.25616,1.36503 l -6.8e-4,0 z m -12.1454,-4.45586 c 0.4805,-0.4805 0.43713,-2.21805 -0.0601,-2.40887 -0.6022,-0.23108 -2.10631,0.64948 -2.33382,1.36631 -0.34357,1.08247 1.53564,1.90086 2.39394,1.04256 l -2e-5,0 z m 1.13224,-7.10559 c 1.18938,-0.72518 1.23291,-1.43635 0.0879,-1.43635 -0.83981,0 -1.73611,0.84684 -1.73611,1.64031 0,0.52246 0.5731,0.45154 1.6482,-0.20396 l 10e-6,0 z m -4.78703,-0.7271 c 0.46513,-0.24053 0.8457,-0.56139 0.8457,-0.71302 0,-0.39829 -2.18105,-1.71608 -2.84026,-1.71608 -0.81916,0 -1.50335,0.82117 -1.40328,1.68423 0.0862,0.7433 0.18659,0.79277 2.32293,1.14446 0.12607,0.0208 0.60978,-0.15907 1.07491,-0.39959 z m 1.43698,-14.73301 c 0.85177,-0.73015 1.44647,-1.54104 1.70523,-2.32509 0.36773,-1.11422 0.35613,-1.23407 -0.15575,-1.60836 -0.56367,-0.41217 -1.57033,-0.33901 -3.02903,0.22014 -0.80806,0.30975 -1.97816,2.12264 -1.97816,3.06487 0,0.58574 1.22861,1.77493 1.83017,1.77144 0.17581,-10e-4 0.9082,-0.50637 1.62754,-1.123 z m 46.53986,53.63761 c -0.95775,-0.89856 -2.36926,-2.50442 -3.13669,-3.56858 -0.76742,-1.06416 -1.51176,-1.93483 -1.65409,-1.93483 -0.14232,0 -0.63199,-0.26576 -1.08815,-0.59058 -0.45617,-0.32482 -1.35635,-0.74403 -2.0004,-0.93159 -1.32578,-0.38608 -1.60611,-0.867 -0.58921,-1.01081 1.27497,-0.1803 2.64512,0.26958 3.7059,1.21681 0.5818,0.51951 1.44302,1.12582 1.91384,1.34734 0.54034,0.25424 1.28299,1.11275 2.01379,2.32798 0.63678,1.05886 1.65023,2.37626 2.25211,2.92757 1.01589,0.93052 1.23786,1.59504 0.593,1.7753 -0.1478,0.0413 -1.05234,-0.66006 -2.0101,-1.55861 z"
         id="path3118"
         sodipodi:nodetypes="ccccssssssscccsssssssssssssssssssssssssssssssssssssssssssssssssssssssssssssssssssssssssssssssssssssssssssssssssssssscccssssssssssssscccsssssssscccccccsssccssccssssssscccssssccsssssssssccsssccsssssccsscccsssssscccsscccsssccssssssssssssssssssssssssssssscccssssssscccsscccsscccssssccsssssccssssssssssc" />
      <path
         style="fill:#5a251c"
         d="m 99.049461,946.40955 c 0.03933,-2.56199 0.200346,-9.12495 0.357807,-14.58436 0.322725,-11.18939 0.459023,-10.14601 -2.000896,-15.31706 -0.820069,-1.72388 -1.66474,-3.61192 -1.877045,-4.19563 -0.640817,-1.76185 -2.375114,-4.23584 -3.185307,-4.54388 -0.415347,-0.15791 -1.107685,-0.58373 -1.538531,-0.94627 -0.492566,-0.41446 -1.674817,-0.84934 -3.184864,-1.17151 -2.339751,-0.49919 -5.390301,-1.42782 -7.417751,-2.25807 -0.551786,-0.22597 -1.617168,-0.4993 -2.367515,-0.60742 l -1.364267,-0.19659 0.07438,-13.89895 0.07438,-13.89896 1.719854,-0.70195 c 0.95353,-0.38918 2.161995,-0.66997 2.712146,-0.63017 0.746663,0.054 1.066819,-0.0701 1.293368,-0.5015 0.831073,-1.58246 1.594018,-2.29839 4.134209,-3.87945 2.583756,-1.60817 2.798713,-1.815 3.272458,-3.14887 l 0.507052,-1.42763 1.698092,0 c 1.45801,0 1.831213,-0.11596 2.639654,-0.82018 1.402616,-1.2218 2.764667,-1.82974 4.524591,-2.01954 l 1.576534,-0.17003 0.15794,-1.18324 c 0.2019,-1.5125 1.7819,-3.24902 2.52303,-2.77297 0.36218,0.23265 0.46739,0.73364 0.4519,2.15181 -0.0191,1.7484 0.0136,1.84209 0.60339,1.72934 0.34298,-0.0656 1.22725,0.0857 1.96505,0.33623 1.74492,0.59242 2.04699,0.57569 2.72386,-0.15085 0.91112,-0.97796 2.78472,-1.03883 4.54348,-0.1476 0.80542,0.40814 1.54713,1.00271 1.64824,1.32126 0.28505,0.89813 0.69069,0.69155 1.26278,-0.64309 0.69719,-1.62647 1.19441,-2.0184 2.11609,-1.66798 0.39799,0.15132 0.80826,0.41207 0.91171,0.57945 0.3665,0.59301 1.28581,0.30487 1.72268,-0.53994 0.32414,-0.62682 0.87427,-1.00384 2.13606,-1.46392 0.93471,-0.34081 1.98944,-0.92831 2.34384,-1.30556 0.35441,-0.37724 0.80428,-0.68589 0.99971,-0.68589 0.33405,0 2.69388,-1.64222 5.86959,-4.08466 1.18221,-0.90924 1.61638,-1.0749 2.81703,-1.0749 1.37624,0 1.4298,-0.0315 1.76089,-1.03467 0.33291,-1.00874 0.37015,-1.03009 1.48553,-0.85173 0.62923,0.10062 1.51484,0.37468 1.96803,0.60903 0.54921,0.28401 1.20071,0.36585 1.95381,0.24542 1.11594,-0.17845 1.13364,-0.16703 1.43749,0.92726 0.58251,2.09789 0.33275,2.23048 -2.273,1.20674 -0.86487,-0.33979 -2.24968,-0.6742 -3.07736,-0.74313 -1.35434,-0.1128 -1.50487,-0.0681 -1.50487,0.44643 0,0.63305 1.23688,1.20114 2.61519,1.20114 0.60805,0 0.91948,0.21211 1.25007,0.85139 0.42351,0.81899 0.41233,0.86969 -0.29381,1.33238 -0.81347,0.533 -3.70987,0.66723 -5.78771,0.26822 -1.02801,-0.19741 -1.24277,-0.15539 -1.40813,0.27552 -0.25276,0.65871 0.58546,1.28548 1.71915,1.28548 0.46838,0 1.53869,0.21659 2.37847,0.48131 2.08887,0.65846 3.49885,0.31759 4.15961,-1.00561 0.65517,-1.312 0.73325,-1.3569 1.3651,-0.78509 0.30539,0.27638 0.98026,0.7163 1.4997,0.97761 0.7704,0.38755 1.05138,0.79992 1.52467,2.23762 0.72179,2.1926 1.93428,3.7164 3.84346,4.83026 2.18096,1.27242 2.23326,1.92026 0.29363,3.63739 -0.85271,0.75489 -1.65846,1.37395 -1.79056,1.37569 -0.1321,0.002 -0.15165,-0.52085 -0.0434,-1.16132 0.14337,-0.84862 0.0805,-1.29568 -0.23186,-1.64819 -0.23572,-0.26604 -0.4753,-0.73846 -0.53238,-1.0498 -0.0571,-0.31135 -0.4011,-0.71431 -0.76448,-0.89548 -0.36338,-0.18116 -1.01424,-0.66811 -1.44636,-1.0821 -0.96317,-0.92278 -1.62853,-0.95725 -2.08063,-0.10778 -0.18879,0.35472 -0.70346,1.09641 -1.14371,1.64819 -0.44026,0.55179 -1.01407,1.51704 -1.27514,2.14501 -0.26108,0.62796 -0.71042,1.44144 -0.99855,1.80773 -0.28812,0.36629 -0.74508,1.33587 -1.01547,2.15463 -0.27038,0.81876 -0.67641,1.77321 -0.90228,2.12099 -0.22587,0.34779 -0.31833,0.78175 -0.20548,0.96435 0.28732,0.4649 2.13534,0.17073 3.70696,-0.59008 0.71099,-0.34418 1.43931,-0.57692 1.61849,-0.51719 0.44394,0.14798 -3.05055,4.15434 -4.0944,4.69413 -0.46051,0.23814 -1.54275,1.07185 -2.40498,1.85269 -0.86223,0.78085 -1.74428,1.41971 -1.96009,1.41971 -0.21583,0 -0.88934,0.6127 -1.49671,1.36156 -0.60737,0.74885 -2.10269,2.35672 -3.32295,3.57304 -1.22025,1.21632 -2.30071,2.53846 -2.40101,2.93808 -0.2707,1.07858 0.0848,2.15981 0.71008,2.15981 0.73022,0 1.23902,-0.68838 1.44122,-1.94986 0.15096,-0.94187 0.36111,-1.16272 1.88727,-1.98342 0.94456,-0.50794 1.93391,-0.92715 2.19854,-0.93158 0.72615,-0.0122 1.38202,-0.8135 1.38202,-1.68852 0,-1.0952 1.99136,-2.90582 3.19587,-2.90582 0.90637,0 1.69329,-0.68961 4.16461,-3.6496 1.04142,-1.24734 2.25581,-1.79191 4.00289,-1.79501 1.21538,-0.002 1.38855,0.62708 0.52342,1.90192 -0.89363,1.31684 -0.91723,2.69791 -0.0628,3.67481 l 0.64494,0.73738 2.0065,-0.40538 c 1.10357,-0.22296 2.66673,-0.56583 3.47369,-0.76193 1.47533,-0.35852 3.13555,-0.19263 2.84105,0.28388 -0.087,0.14075 -0.9835,0.53056 -1.99226,0.86625 -2.18652,0.72763 -3.16693,1.5601 -3.57411,3.0348 -0.37368,1.35337 -0.11379,1.7135 1.41273,1.9576 1.18399,0.18933 2.16555,-0.15819 3.74501,-1.32592 0.76695,-0.56701 2.28089,-0.61133 2.45738,-0.0719 0.0523,0.15981 -0.51821,0.5117 -1.26779,0.78198 -1.78242,0.64271 -4.08595,2.62041 -4.08595,3.508 0,0.77341 1.15324,1.29563 2.86122,1.29563 0.87767,0 1.19941,-0.18136 1.90682,-1.07491 1.2163,-1.53632 2.11137,-3.07262 2.11137,-3.62395 0,-0.63497 0.93353,-0.95322 3.47493,-1.18466 1.16303,-0.10592 2.60228,-0.43782 3.19833,-0.73756 1.29267,-0.65005 2.56167,-0.69653 3.60164,-0.13191 0.41846,0.22718 1.47027,0.63166 2.33736,0.89883 0.8671,0.26718 2.08566,0.85523 2.70791,1.30679 1.31521,0.95442 1.50908,0.98467 2.21527,0.34558 0.43119,-0.39023 0.65601,-0.41592 1.25429,-0.14332 0.40091,0.18266 1.07757,0.33297 1.5037,0.33401 0.42613,10e-4 1.16175,0.26673 1.63471,0.59042 0.47296,0.3237 1.51932,0.88833 2.32525,1.25474 0.80592,0.36641 1.64435,0.90914 1.86317,1.20607 0.21882,0.29693 0.73151,0.75253 1.13932,1.01245 0.87356,0.55678 1.7476,3.01265 1.67568,4.70835 -0.026,0.61338 0.16203,1.68209 0.41788,2.3749 0.28707,0.77737 0.4454,1.9958 0.41353,3.18228 -0.0426,1.58453 0.0613,2.0813 0.5909,2.82499 0.74885,1.05167 1.31285,1.14604 1.76788,0.29581 0.36487,-0.68175 -0.0607,-5.32335 -0.61955,-6.75768 -0.17252,-0.44278 -0.5019,-1.83697 -0.73195,-3.0982 -0.23004,-1.26123 -0.49017,-2.64786 -0.57807,-3.08141 -0.10042,-0.49535 -0.0374,-0.78826 0.16962,-0.78826 0.48415,0 1.3301,1.01485 2.9138,3.49559 l 1.40812,2.2057 0,6.1547 c 0,3.38509 -0.10892,6.1977 -0.24205,6.25025 -0.13313,0.0525 -0.7995,0.93398 -1.48083,1.95872 -0.68133,1.02475 -1.50757,2.14361 -1.8361,2.48637 -0.32853,0.34275 -0.9198,0.97645 -1.31394,1.4082 -0.39413,0.43176 -1.42604,1.11874 -2.29313,1.52663 -1.45005,0.68211 -1.87551,0.74045 -5.30289,0.72716 -3.49953,-0.0136 -3.82011,-0.0629 -5.26675,-0.8111 -2.12029,-1.09655 -3.26106,-2.44849 -4.68498,-5.55224 -0.66903,-1.45829 -1.3801,-2.65144 -1.58017,-2.65144 -0.2537,0 -0.36375,0.52297 -0.36375,1.72849 0,1.17818 -0.21907,2.25048 -0.68809,3.36805 -1.35782,3.23541 -1.38527,3.56125 -1.46647,17.40488 -0.0425,7.25205 -0.17493,14.63667 -0.29422,16.41027 l -0.21689,3.22473 -34.13916,2.2e-4 -34.139156,2.3e-4 0.07151,-4.65816 -3.3e-5,-3e-5 z m 80.331659,-53.80724 c 0,-0.15211 -0.25798,-0.41462 -0.57328,-0.58337 -0.44348,-0.23734 -0.57329,-0.21799 -0.57329,0.0855 0,0.21575 0.086,0.47827 0.1911,0.58337 0.28865,0.28865 0.95547,0.229 0.95547,-0.0855 z m -54.75877,-7.44394 c 0.81076,-1.51493 -0.4722,-5.26109 -2.27803,-6.65169 -0.48321,-0.37209 -1.46882,-1.16459 -2.19024,-1.76111 -0.72143,-0.59651 -1.97601,-1.41968 -2.78796,-1.82926 -0.81195,-0.40958 -2.01831,-1.1321 -2.6808,-1.60561 -1.09205,-0.78055 -1.34111,-0.84281 -2.66746,-0.66687 -1.29196,0.17139 -1.56078,0.11175 -2.29998,-0.51025 -1.68584,-1.41854 -3.49723,-1.22175 -3.37619,0.36679 0.0319,0.41795 -0.0484,0.93187 -0.17827,1.14205 -0.31615,0.51154 0.31225,0.88145 1.50674,0.88695 0.75889,0.004 1.28459,0.32081 2.58246,1.55876 1.3027,1.24256 2.1148,1.73145 4.04837,2.43711 1.33033,0.48551 2.748,1.18004 3.15039,1.54339 0.40238,0.36335 1.27528,1.00684 1.93978,1.42997 0.6645,0.42314 1.82541,1.54338 2.57979,2.48943 1.42866,1.79166 2.14877,2.10951 2.6514,1.17034 z m 1.12101,-13.93318 c -0.008,-0.9978 0.0721,-2.62864 0.17729,-3.6241 0.12521,-1.18523 0.0707,-2.10672 -0.15799,-2.66985 -0.19207,-0.47296 -0.4297,-1.31139 -0.52807,-1.86317 -0.16129,-0.9047 -0.28002,-1.01175 -1.20872,-1.08973 -1.64,-0.13771 -3.37954,1.35736 -4.17922,3.59186 -0.60243,1.68337 -0.60934,1.81204 -0.16075,2.99643 0.7208,1.9031 1.44887,2.81406 2.2491,2.81406 0.46927,0 0.81033,0.23506 1.02514,0.70653 0.34233,0.75132 1.49366,1.29015 2.30638,1.0794 0.40013,-0.10375 0.48819,-0.4623 0.47684,-1.94143 z m -25.46325,-2.14421 c 0.80538,-0.43102 1.19756,-1.34599 0.98728,-2.30338 -0.18067,-0.8226 -0.22821,-0.843 -1.953915,-0.83872 -2.240052,0.006 -2.791472,0.30238 -1.785843,0.96129 0.40354,0.26441 0.73371,0.69335 0.73371,0.95319 0,0.51949 0.796583,1.52084 1.209839,1.52084 0.143584,0 0.507603,-0.13195 0.808929,-0.29322 z m 74.70606,15.53831 c -0.52104,-0.57575 -1.19477,-2.29822 -0.9821,-2.51089 0.50115,-0.50115 1.93734,1.30056 1.93734,2.43041 0,0.73842 -0.33432,0.76659 -0.95524,0.0805 l 0,-2e-5 z m 3.79061,-5.46741 c -0.72052,-0.58413 -0.65343,-1.02645 0.11119,-0.73303 0.43961,0.16869 0.90018,0.96299 0.68383,1.17934 -0.0602,0.0602 -0.41796,-0.14064 -0.79502,-0.44631 z m -2.15586,-2.11 c -1.30485,-1.40342 -2.686,-3.26703 -2.686,-3.62428 0,-0.45243 0.62586,-0.39165 1.37574,0.13358 0.50626,0.35461 1.77453,2.41688 2.58742,4.20731 0.24563,0.541 -0.49342,0.12633 -1.27716,-0.71661 z m -4.26419,-4.5173 c -0.0984,-0.15913 -0.65417,-0.54039 -1.23515,-0.84726 -1.0439,-0.55136 -1.04693,-0.55808 -0.25798,-0.5706 0.88075,-0.014 2.0751,0.65192 2.32165,1.29442 0.1797,0.4683 -0.54834,0.57678 -0.82852,0.12344 z m -26.16695,-18.22984 -0.94407,-0.98132 0.86667,-1.0705 c 2.59433,-3.20447 3.41583,-4.35918 4.41399,-6.20432 0.60465,-1.11774 1.29833,-2.40108 1.5415,-2.85187 0.64762,-1.20052 0.91539,-4.21066 0.92957,-10.44993 0.008,-3.66149 -0.0997,-5.74877 -0.31888,-6.16281 -0.79366,-1.49913 -3.7332,-4.74252 -4.74292,-5.23317 -1.63936,-0.79663 -6.09804,-0.73272 -7.73341,0.11084 -0.65933,0.3401 -1.28347,0.75538 -1.38697,0.92285 -0.32188,0.52082 -2.77241,-0.0199 -4.14453,-0.91445 -1.74841,-1.13992 -2.28787,-1.22893 -4.15628,-0.68577 -1.39788,0.40638 -1.72516,0.64615 -2.4809,1.81761 -0.8335,1.29199 -0.86315,1.44407 -0.69606,3.56948 0.15112,1.92213 0.0916,2.38262 -0.44381,3.43205 -0.86833,1.70207 -1.9093,4.62769 -2.41721,6.79348 -0.35236,1.50251 -0.37353,2.26267 -0.11554,4.14699 0.30151,2.20204 0.90598,4.18906 1.27436,4.18906 0.53257,0 1.86357,-0.94076 1.86357,-1.31719 0,-0.63483 1.25819,-0.39486 1.38381,0.26392 0.0549,0.2878 -0.13619,0.69581 -0.42459,0.90669 -0.50467,0.36903 -0.50023,0.43309 0.11814,1.70588 0.35337,0.72735 0.64249,1.63093 0.64249,2.00795 0,0.89463 0.27622,1.59231 0.6304,1.59231 0.15534,0 0.59532,-0.24612 0.97774,-0.54693 0.38242,-0.30081 1.57226,-0.8133 2.64409,-1.13885 1.49785,-0.45496 2.04384,-0.77038 2.35964,-1.36316 0.32429,-0.60871 0.33429,-0.79693 0.0474,-0.89323 -1.13869,-0.38228 -1.55345,-1.69603 -0.77972,-2.46976 0.69298,-0.69299 2.78134,-0.88519 3.81425,-0.35105 0.4859,0.25127 1.11913,0.45685 1.40719,0.45685 0.28806,0 0.81042,0.2008 1.1608,0.44621 0.99091,0.69406 0.82749,1.83367 -0.43784,3.05334 -1.01119,0.97469 -1.23241,1.05251 -3.73182,1.31286 -2.88882,0.30091 -2.93644,0.32396 -7.17842,3.47351 -1.50065,1.1142 -2.46019,1.61149 -3.37826,1.75082 -0.73103,0.11094 -1.35481,0.0772 -1.45101,-0.0784 -0.0928,-0.15017 -0.39462,-1.59997 -0.67069,-3.22178 -0.40697,-2.39081 -0.69198,-3.23931 -1.50628,-4.48434 -0.55239,-0.84456 -1.09533,-2.05153 -1.20653,-2.68215 -0.11121,-0.63061 -0.3726,-1.34005 -0.58087,-1.57653 -0.35377,-0.40168 -0.69115,-2.55889 -0.76212,-4.87292 -0.0169,-0.55178 -0.14467,-3.18204 -0.28389,-5.845 -0.20381,-3.8988 -0.17264,-5.18278 0.16004,-6.59278 0.22724,-0.96306 0.49233,-2.23374 0.58909,-2.82374 0.1243,-0.75787 0.4667,-1.30473 1.1666,-1.86317 0.80699,-0.6439 0.99066,-0.98595 0.99067,-1.84489 0,-1.18821 0.5974,-1.95457 1.52535,-1.95682 0.65086,-0.002 1.29243,-0.37164 3.35173,-1.93332 0.67564,-0.51238 1.51474,-0.93159 1.86469,-0.93159 1.77628,0 6.43034,-2.1853 7.5645,-3.55189 0.2086,-0.25134 0.91245,-0.59174 1.56411,-0.75645 0.65167,-0.1647 1.65174,-0.5001 2.22239,-0.74534 0.94138,-0.40457 1.11901,-0.40376 1.91666,0.009 0.48351,0.25003 0.96061,0.58647 1.06021,0.74763 0.0996,0.16116 0.65574,0.49134 1.23584,0.73372 0.58011,0.24239 1.65801,0.94938 2.39533,1.5711 0.73733,0.62172 1.6608,1.25215 2.05217,1.40095 0.45339,0.17237 0.77928,0.57874 0.89815,1.11994 0.22121,1.00717 3.01562,3.76462 4.37744,4.31955 0.69234,0.28213 1.2686,0.95511 2.27012,2.65115 0.73823,1.25017 1.44934,2.33923 1.58024,2.42014 0.13091,0.0809 0.23801,0.42056 0.23801,0.75479 0,0.33423 0.28529,1.49347 0.63397,2.5761 0.47685,1.48057 0.55784,2.0903 0.32681,2.46025 -0.16894,0.27051 -0.5159,1.20989 -0.77104,2.08752 -0.26528,0.91253 -0.83471,1.98373 -1.33006,2.50206 -0.74242,0.77687 -0.86618,1.12498 -0.86618,2.43637 0,1.19964 -0.17777,1.80366 -0.82333,2.79738 -0.45284,0.69705 -0.90143,1.7881 -0.99688,2.42455 -0.26869,1.79172 -3.14698,7.04308 -4.7357,8.64017 -0.89871,0.90346 -1.54327,1.8822 -1.85475,2.81638 -0.26256,0.78746 -0.76712,1.77461 -1.12126,2.19368 l -0.64388,0.76193 -0.94408,-0.98132 5e-5,-3.2e-4 z m -1.7869,-15.20463 c -2.48341,-1.6584 -3.00229,-2.8147 -2.1637,-4.82173 0.50156,-1.20041 1.4791,-1.44679 4.82929,-1.21716 2.91779,0.19999 3.75248,0.73327 3.88103,2.47959 0.11579,1.57307 -0.38101,2.29754 -2.23517,3.25952 -1.69939,0.88167 -3.27594,0.99129 -4.31145,0.29978 z m -13.03435,-1.23507 c -0.47296,-0.11123 -1.24689,-0.40176 -1.71985,-0.64563 -0.47296,-0.24387 -1.2733,-0.53239 -1.77852,-0.64116 -1.07003,-0.23036 -1.37211,-0.89361 -1.09056,-2.39441 0.32113,-1.71174 0.91814,-2.5428 2.31107,-3.21711 1.61608,-0.78233 3.3556,-0.65629 6.32257,0.4581 2.22125,0.83431 3.04393,1.43935 2.86286,2.10551 -0.0678,0.24944 -0.2063,1.06469 -0.30775,1.81166 -0.22076,1.62534 -0.7835,2.29274 -1.73241,2.05458 -0.37436,-0.094 -1.10671,-0.0412 -1.62746,0.11732 -1.57857,0.48042 -2.33953,0.5629 -3.23995,0.35114 z"
         id="path3116"
         sodipodi:nodetypes="cssssssscccccssscccscccssssssssssssssssssssssssssssssssssssssssssssssssssssssssssssssssssscccssssssssssssssssssssssssssssssssscccsssssssssssscccccccsssccssssssssssssssccsssssssssccsssssccsscccssccsssccsssccccssssssssssssssssssssssssssssssssssssssssssssssssssssssssssssssssssssscccccssssccsssssssssc" />
      <path
         style="fill:#0b0809"
         d="m 99.24441,950.42231 c 0.122606,-0.58982 0.608019,-23.57953 0.582533,-27.58937 -0.0096,-1.51012 -0.258569,-2.26182 -2.041176,-6.16281 -1.116634,-2.4436 -2.107205,-4.66831 -2.201268,-4.9438 -0.434082,-1.27132 -2.254246,-3.66982 -3.115308,-4.10516 -0.519169,-0.26248 -1.218242,-0.72766 -1.553494,-1.03371 -0.335253,-0.30606 -1.689638,-0.81523 -3.009745,-1.13149 -3.002776,-0.71938 -5.865159,-1.5786 -6.986472,-2.09719 -0.47296,-0.21873 -1.666108,-0.55466 -2.651441,-0.7465 l -1.791515,-0.3488 0,-6.26884 c 0,-3.44786 0.112288,-6.26884 0.249528,-6.26884 0.13724,0 0.709414,-0.48371 1.271497,-1.07491 0.562083,-0.5912 2.01061,-2.10601 3.21895,-3.36625 1.208339,-1.26024 2.376103,-2.63773 2.59503,-3.06109 0.218928,-0.42336 0.665212,-0.85454 0.991743,-0.95818 0.434037,-0.13776 0.56978,-0.38613 0.504768,-0.9236 -0.06281,-0.51926 0.0563,-0.75677 0.405575,-0.80872 0.271974,-0.0405 0.835339,-0.34166 1.251921,-0.66934 0.416582,-0.32768 0.862337,-0.53095 0.990566,-0.4517 0.12823,0.0793 0.326482,-0.007 0.440561,-0.19151 0.122151,-0.19765 0.08372,-0.25916 -0.09348,-0.14965 -0.165492,0.10228 -0.378906,-0.0173 -0.474252,-0.26579 -0.274603,-0.71561 -0.205726,-0.97816 0.256607,-0.97816 0.23648,0 0.429963,0.20728 0.429963,0.46063 0,0.32525 0.147423,0.40072 0.501624,0.25679 0.275893,-0.11212 0.881245,-0.31754 1.345227,-0.45649 0.463981,-0.13896 1.30241,-0.6983 1.863175,-1.24297 1.189756,-1.15563 2.215167,-1.59774 3.705677,-1.59774 1.190354,0 4.379526,0.98786 5.469626,1.69425 0.83523,0.54123 2.73055,1.11136 4.82978,1.45284 0.8359,0.13597 1.67433,0.3725 1.86317,0.52562 0.18885,0.15312 1.76224,0.68048 3.49643,1.1719 2.32132,0.65781 3.60675,1.20842 4.87292,2.08732 0.94592,0.65659 1.8061,1.33259 1.9115,1.50223 0.10541,0.16964 1.09769,1.25879 2.20508,2.42035 1.98853,2.08581 2.02491,2.10791 2.9428,1.78793 1.2576,-0.43841 1.96985,-1.13231 1.96985,-1.91912 0,-0.35944 0.1258,-0.98439 0.27955,-1.38879 0.26961,-0.70913 0.36558,-0.73526 2.69966,-0.73526 2.6718,0 3.32692,0.14841 3.32692,0.75367 0,0.52626 -2.18833,2.90078 -2.87383,3.11835 -0.76926,0.24415 -2.03003,2.91849 -1.81048,3.84037 0.25066,1.05247 0.64144,1.46016 1.39958,1.46016 1.04863,0 1.55588,-0.2977 2.01281,-1.1813 0.2347,-0.45386 0.63344,-0.8252 0.88609,-0.8252 1.1057,0 4.61795,-2.39916 7.26525,-4.96277 1.08145,-1.04727 3.58656,-2.77657 4.0222,-2.77657 0.14692,0 0.25251,0.64833 0.23466,1.44073 -0.044,1.95168 0.5991,2.68847 2.16335,2.47866 0.61627,-0.0827 1.48244,-0.41789 1.92481,-0.74495 0.9991,-0.73866 1.58193,-0.75416 1.95769,-0.052 0.2259,0.4221 0.12911,0.78027 -0.43582,1.61275 l -0.72621,1.07014 0.63918,0.68038 c 0.35156,0.37422 0.97143,0.68236 1.3775,0.68478 1.05205,0.006 1.34622,0.28415 1.56589,1.47927 0.16222,0.88259 0.39004,1.14544 1.4029,1.61861 0.66507,0.31069 2.04008,0.63272 3.05558,0.7156 1.58028,0.12899 2.03435,0.0506 3.15078,-0.54369 0.71743,-0.38192 1.5812,-0.6944 1.91949,-0.6944 0.33828,0 1.24223,-0.42643 2.00877,-0.94761 1.84161,-1.25214 3.09194,-1.73572 3.93848,-1.52325 0.69463,0.17434 1.8982,1.84775 1.8982,2.6392 0,0.23222 0.3246,1.19343 0.72133,2.13603 0.39673,0.94259 0.9207,2.58332 1.16437,3.64605 0.39536,1.72428 1.49618,3.8781 2.2615,4.42478 0.44076,0.31484 0.46608,0.10695 0.11103,-0.91156 -0.24184,-0.69373 -0.24589,-1.08414 -0.0151,-1.4537 0.17994,-0.28813 0.23941,-0.97836 0.13838,-1.60615 -0.16098,-1.00046 -0.13383,-1.06522 0.29768,-0.70981 0.30188,0.24865 0.41587,0.62603 0.31295,1.03606 -0.10288,0.40993 -0.0149,0.70135 0.24136,0.79969 0.22178,0.0851 0.77957,0.90077 1.23955,1.81258 0.45998,0.91181 1.25554,2.06584 1.76791,2.56451 0.51238,0.49867 0.93159,1.10948 0.93159,1.35735 0,0.24787 0.32247,0.83392 0.71661,1.30231 0.83277,0.9897 0.87032,1.27106 0.28819,2.15951 -0.34515,0.52676 -0.35908,0.74023 -0.0717,1.09828 0.41999,0.52319 3.13846,1.09431 5.20583,1.09368 1.69861,-5.7e-4 2.60169,-0.44084 4.99618,-2.43602 0.94603,-0.78826 2.05236,-1.66496 2.45851,-1.94821 0.69489,-0.48462 0.73847,-0.65832 0.73847,-2.94336 0,-1.47596 -0.21477,-3.24132 -0.54762,-4.50123 -0.57621,-2.18115 -1.26257,-6.23441 -1.08566,-6.41133 0.12658,-0.12657 1.86366,2.40783 2.58847,3.77656 0.28888,0.54551 0.6436,0.99185 0.78827,0.99185 0.15127,0 0.26304,2.55775 0.26304,6.01948 0,3.38966 -0.11306,6.01949 -0.25877,6.01949 -0.14233,0 -0.74619,0.74169 -1.34192,1.6482 -1.94251,2.95585 -4.02446,5.11165 -5.64349,5.84364 -1.32975,0.60121 -1.91785,0.67718 -5.22477,0.67486 -3.48719,-0.002 -3.82041,-0.0521 -5.19188,-0.77316 -0.80604,-0.4238 -1.97418,-1.39005 -2.59587,-2.14721 -1.02718,-1.25104 -2.67468,-4.44789 -2.67468,-5.19004 0,-0.16609 -0.20715,-0.50913 -0.46034,-0.76231 -0.7712,-0.77121 -1.25952,-0.0478 -1.25952,1.86603 0,1.20539 -0.25023,2.28045 -0.90922,3.90624 -0.89713,2.21329 -0.91219,2.33083 -1.1318,8.83591 -0.12242,3.62602 -0.20565,8.01165 -0.18496,9.74583 0.0665,5.57042 0.0302,11.37974 -0.0917,14.68886 l -0.11875,3.22315 -34.04423,0.002 -34.044245,0.002 0.134064,-0.64495 -9e-6,-9e-4 z m 70.58197,-58.59446 c -0.34911,-0.34912 -0.19752,-0.95548 0.23887,-0.95548 0.23886,0 0.42996,0.2548 0.42996,0.57329 0,0.57106 -0.30543,0.74559 -0.66883,0.38219 z m -0.88236,-2.34769 c -0.2491,-0.40304 0.13406,-1.22998 0.5116,-1.10414 0.4243,0.14144 0.41727,1.12726 -0.009,1.26936 -0.18262,0.0609 -0.40877,-0.0135 -0.50255,-0.16522 l -5e-5,0 z m -36.61994,-7.24804 c -0.0685,-0.48391 -0.29896,-0.69201 -0.81223,-0.73338 -0.39413,-0.0318 -1.8625,-0.14152 -3.26305,-0.24391 l -2.54644,-0.18614 -1.78867,-1.61928 c -3.14852,-2.85032 -4.83426,-4.12463 -6.3493,-4.79965 -0.81318,-0.36231 -1.58661,-0.82685 -1.71873,-1.03232 -0.13211,-0.20546 -0.3052,-1.14325 -0.38465,-2.08397 -0.12479,-1.47766 -0.24773,-1.76817 -0.90346,-2.13489 -0.68071,-0.38069 -0.87388,-0.37268 -1.87256,0.0777 -1.63656,0.73799 -4.37817,0.25294 -7.50226,-1.32731 -1.93867,-0.98062 -2.49908,-1.41582 -2.94391,-2.2861 -0.4307,-0.84264 -0.71849,-1.07586 -1.33186,-1.0793 -0.43035,-0.002 -0.972547,-0.12461 -1.204895,-0.27154 -0.356218,-0.22527 -0.314678,-0.38188 0.264947,-0.99886 0.904548,-0.96285 1.728968,-0.92423 2.737288,0.12822 0.62891,0.65645 1.07848,0.85993 1.89988,0.85993 1.21641,0 1.59464,-0.33865 0.96339,-0.86255 -0.23475,-0.19482 -0.42681,-0.54868 -0.42681,-0.78636 0,-0.35121 0.255,-0.39643 1.36155,-0.24146 3.04699,0.42673 3.09075,0.44627 3.27095,1.4604 0.1577,0.8875 2.04245,0.96211 2.64305,0.10464 0.64908,-0.92669 0.90137,-0.44861 0.30027,0.56898 -0.47941,0.81158 -0.48009,0.89621 -0.0129,1.60917 0.54878,0.83756 1.52378,1.30024 2.73994,1.30024 0.50997,0 0.95845,0.22915 1.22029,0.6235 0.49794,0.74995 1.37578,0.54075 1.37578,-0.32786 0,-0.39118 -0.18814,-0.58228 -0.57328,-0.58228 -0.8434,0 -0.69781,-0.73222 0.28469,-1.43182 1.08355,-0.77156 1.64427,-0.50655 1.00206,0.4736 -0.78985,1.20546 -0.16767,2.91141 1.84579,5.06091 1.13768,1.21455 1.69901,1.50179 5.07151,2.59525 2.31331,0.75003 3.60966,0.87974 4.9815,0.49843 0.63566,-0.17669 0.7272,-0.37582 0.81047,-1.76294 0.0982,-1.63527 0.11686,-3.1764 0.0459,-3.78524 -0.023,-0.19706 0.0231,-0.8953 0.10236,-1.55163 0.17681,-1.46418 -0.30556,-2.21866 -1.42872,-2.23468 -0.62814,-0.009 -0.84139,-0.16285 -0.91169,-0.65792 -0.055,-0.38762 0.0883,-0.71534 0.3583,-0.81894 0.76439,-0.29332 0.4988,-0.98019 -0.54816,-1.41764 -0.62838,-0.26255 -1.06273,-0.67412 -1.17235,-1.11084 -0.0958,-0.38157 -0.42049,-0.91673 -0.72162,-1.18925 -1.00059,-0.90552 -0.55302,-1.80021 1.06578,-2.13048 0.6104,-0.12454 1.51278,-0.39021 2.00529,-0.59039 0.80032,-0.32529 0.97964,-0.29776 1.68761,0.25913 1.17854,0.92704 3.38714,1.49971 6.49695,1.68461 l 2.7739,0.16492 0.83462,-0.91379 c 0.91378,-1.00046 1.03047,-0.95469 1.892,0.74223 0.45626,0.89868 0.44847,0.93232 -0.50574,2.18241 -0.53304,0.69831 -1.04969,1.51297 -1.14813,1.81035 -0.0984,0.29738 -0.88316,1.37912 -1.74383,2.40387 -0.86068,1.02474 -1.81889,2.32718 -2.12937,2.8943 -0.31048,0.56711 -0.88694,1.24238 -1.28101,1.50059 -0.66541,0.43599 -0.71133,0.61305 -0.64404,2.48333 0.0399,1.10762 0.21522,2.15662 0.3897,2.3311 0.1958,0.1958 1.09436,0.27333 2.34738,0.20253 1.11658,-0.0631 2.02966,-0.046 2.02907,0.038 -0.003,0.46704 -1.23122,2.05499 -1.92008,2.483 -0.44107,0.27406 -1.51139,1.0988 -2.37848,1.83276 -0.8671,0.73397 -1.89901,1.49993 -2.29314,1.70214 -0.39414,0.20221 -1.06055,0.68817 -1.48092,1.07991 l -0.76431,0.71226 -0.0956,-0.67562 -2e-5,-7e-5 z m -6.78446,-0.15737 c -0.22113,-0.41318 -0.23681,-0.68775 -0.046,-0.80567 0.33599,-0.20765 0.6833,0.52691 0.50378,1.06546 -0.0791,0.23744 -0.24075,0.14572 -0.45777,-0.25979 l -1e-5,0 z m 49.89733,-6.96947 c -1.04403,-1.24357 -1.11026,-1.43145 -0.50461,-1.43145 0.37901,0 1.76104,2.21001 1.52785,2.44319 -0.052,0.052 -0.51243,-0.40331 -1.02324,-1.01174 z m -53.91226,-13.47043 c 0.34968,-0.47296 0.805,-0.87605 1.01183,-0.89575 0.48225,-0.046 0.69068,-0.10637 1.32001,-0.38264 0.2827,-0.1241 0.58584,-0.15379 0.67365,-0.066 0.30966,0.30966 -0.22647,0.77109 -0.89592,0.77109 -0.37273,0 -1.06093,0.32247 -1.52933,0.71661 -1.13827,0.95778 -1.35478,0.90431 -0.58024,-0.14333 l 0,2e-5 z m -19.08407,-1.10941 c -0.088,-0.14236 0.0321,-0.41824 0.26683,-0.61306 0.34703,-0.28801 0.42681,-0.27045 0.42681,0.0939 0,0.53513 -0.46751,0.88502 -0.69364,0.51913 l 0,3e-5 z m 35.00074,-4.91482 c -0.93508,-0.28069 -1.62987,-0.79936 -1.62987,-1.21673 0,-0.39309 3.4049,-0.0761 3.83116,0.35667 0.24313,0.24684 0.1848,0.43371 -0.23126,0.74078 -0.6189,0.45679 -0.80757,0.46821 -1.97003,0.11928 z m 9.1449,-1.89485 c -0.17336,-0.45178 0.21322,-0.90179 1.33587,-1.55504 0.63673,-0.3705 0.65845,0.0268 0.0643,1.17573 -0.48127,0.93066 -1.12199,1.10423 -1.40017,0.37931 z m -4.61196,-1.54011 c -0.0974,-0.15766 0.0884,-0.28664 0.41304,-0.28664 0.32461,0 0.59021,0.12898 0.59021,0.28664 0,0.15765 -0.18587,0.28664 -0.41305,0.28664 -0.22718,0 -0.49277,-0.12899 -0.5902,-0.28664 z m -3.67079,-0.75659 c -0.68047,-0.68047 1.10029,-0.91193 1.96781,-0.25578 0.51882,0.39242 0.47734,0.42147 -0.61405,0.42997 -0.64375,0.005 -1.25294,-0.0734 -1.35376,-0.17419 z m 11.84009,-2.52362 c 0,-0.26605 0.46398,-1.47493 1.03105,-2.68641 2.03185,-4.34077 2.08599,-4.62444 2.29946,-12.04792 0.23052,-8.01638 0.33894,-7.6088 -2.97375,-11.17905 l -2.21993,-2.39252 -2.29314,-0.28104 c -2.57889,-0.31606 -4.46462,-0.3131 -5.39316,0.008 -0.74242,0.2571 -4.15908,0.21217 -6.82798,-0.0898 -2.77479,-0.31395 -4.78929,0.31877 -5.77963,1.81528 -1.12105,1.69402 -2.206,4.47386 -2.22009,5.68832 -0.007,0.59595 -0.21324,1.5995 -0.45847,2.23012 -0.46561,1.19729 -1.44598,6.10524 -1.7252,8.6367 -0.0957,0.86795 0.0387,2.58654 0.32806,4.19355 0.64331,3.57283 0.53055,4.16632 -0.50415,2.65356 -0.56797,-0.83039 -0.78073,-1.49654 -0.78073,-2.44442 0,-0.94825 -0.15607,-1.4366 -0.57328,-1.79383 -0.69117,-0.5918 -0.70731,-0.9416 -0.1229,-2.66296 0.52353,-1.54202 0.37479,-2.25173 -0.41909,-1.99976 -0.51012,0.1619 -0.55958,-0.0786 -0.77706,-3.77825 -0.35973,-6.11978 -0.31436,-7.8191 0.24535,-9.18819 0.27523,-0.67321 0.50041,-1.6023 0.50041,-2.06464 0,-0.63732 0.27981,-1.06548 1.15697,-1.77039 0.98509,-0.79164 1.1313,-1.04666 0.98417,-1.71655 -0.25959,-1.1819 0.25324,-1.86406 1.55822,-2.07273 0.73946,-0.11825 1.59701,-0.57755 2.43916,-1.30643 1.39585,-1.20811 1.41411,-1.21588 4.1158,-1.75194 1.26777,-0.25155 2.42166,-0.76193 3.91093,-1.72987 1.16191,-0.75517 2.15998,-1.51532 2.21795,-1.6892 0.058,-0.17389 0.87782,-0.51426 1.82191,-0.75638 3.13836,-0.80487 3.2124,-0.80525 4.14431,-0.0211 0.47603,0.40056 1.15644,0.81788 1.51201,0.92739 0.35557,0.1095 1.29144,0.74336 2.0797,1.40858 0.78827,0.66521 1.72365,1.36312 2.07863,1.5509 0.35498,0.18778 0.82015,0.7596 1.03371,1.27072 0.44673,1.06918 2.96693,3.43579 4.48169,4.20857 0.70062,0.35743 1.29556,1.01624 1.85581,2.05506 0.45353,0.84094 1.13031,1.93525 1.50396,2.43179 0.59043,0.78464 0.69362,1.2912 0.7882,3.86968 0.14344,3.90998 -0.18384,5.59129 -1.28396,6.5961 -0.73911,0.67507 -0.85552,0.9836 -0.85552,2.26753 0,1.1049 -0.21126,1.86275 -0.82351,2.95424 -0.45293,0.80746 -0.89404,1.91957 -0.98024,2.47135 -0.21363,1.36743 -3.63098,7.73073 -4.43072,8.25024 -0.57955,0.37648 -0.64495,0.36992 -0.64495,-0.0648 l 0,5e-4 z m -11.75233,-2.03959 c 0,-0.24579 0.12899,-0.36716 0.28664,-0.26973 0.15765,0.0974 0.28664,0.29853 0.28664,0.44688 0,0.14835 -0.12899,0.26973 -0.28664,0.26973 -0.15765,0 -0.28664,-0.2011 -0.28664,-0.44688 z m -2.16963,-2.45159 c -0.21523,-0.34826 0.41963,-0.87348 0.87974,-0.72781 0.15765,0.0499 0.32835,0.3058 0.37932,0.56863 0.10645,0.54888 -0.9367,0.68076 -1.25906,0.15918 z m 7.48633,-7.30255 c -0.62302,-0.22814 -1.2263,-0.56614 -1.34063,-0.75112 -0.27366,-0.44281 0.44042,-1.79534 1.24563,-2.35933 0.80485,-0.56374 3.89229,-0.5993 5.18372,-0.0597 0.88772,0.37092 0.92314,0.44635 0.81978,1.74595 l -0.10803,1.35829 -0.96432,-0.18091 c -0.62553,-0.11735 -1.26424,-0.0258 -1.818,0.26054 -1.02813,0.53167 -1.53502,0.52937 -3.01815,-0.0137 l 0,-2e-5 z m -12.84621,-0.97803 c -0.31236,-0.3648 -0.84558,-0.57329 -1.46625,-0.57329 -1.26011,0 -1.51129,-0.63739 -0.75579,-1.91787 0.31845,-0.53973 0.57899,-1.21613 0.57899,-1.50312 0,-1.51392 2.20546,-1.60403 5.65074,-0.23087 1.34387,0.53562 1.53947,0.72782 1.9415,1.90773 0.41411,1.21535 0.41085,1.33861 -0.0443,1.67144 -0.72278,0.52851 -1.65478,0.43826 -2.24844,-0.21773 -0.51952,-0.57406 -0.52703,-0.57183 -1.44464,0.42997 -1.05553,1.15237 -1.5187,1.2432 -2.21178,0.43374 l -3e-5,0 z"
         id="path3114"
         sodipodi:nodetypes="cssssssscccssssssssssssssssssssssssssssssssssssssssscccssssssssssssssssssssssssssssssssssssssssssssscccccccssccsscccscccsssssssssssssssssssssssssssssssssssssssscccssssssssssssscccccsscccssccssssscccsscccsssccssccsssccssccsscccssssssssssssssssssssssssssssssssssssscccsssccssccssscccscccsssssssscc" />
    </g>
  </g>
</svg>
