<?xml version="1.0" encoding="UTF-8" standalone="no"?>
<!-- Created with Inkscape (http://www.inkscape.org/) -->

<svg
   xmlns:dc="http://purl.org/dc/elements/1.1/"
   xmlns:cc="http://creativecommons.org/ns#"
   xmlns:rdf="http://www.w3.org/1999/02/22-rdf-syntax-ns#"
   xmlns:svg="http://www.w3.org/2000/svg"
   xmlns="http://www.w3.org/2000/svg"
   xmlns:xlink="http://www.w3.org/1999/xlink"
   xmlns:sodipodi="http://sodipodi.sourceforge.net/DTD/sodipodi-0.dtd"
   xmlns:inkscape="http://www.inkscape.org/namespaces/inkscape"
   width="354.33069"
   height="212.59842"
   id="svg59465"
   version="1.1"
   inkscape:version="0.47 r22583"
   sodipodi:docname="last_dia.svg">
  <defs
     id="defs59467">
    <inkscape:perspective
       sodipodi:type="inkscape:persp3d"
       inkscape:vp_x="0 : 526.18109 : 1"
       inkscape:vp_y="0 : 1000 : 0"
       inkscape:vp_z="744.09448 : 526.18109 : 1"
       inkscape:persp3d-origin="372.04724 : 350.78739 : 1"
       id="perspective59473" />
    <inkscape:perspective
       id="perspective59920"
       inkscape:persp3d-origin="0.5 : 0.33333333 : 1"
       inkscape:vp_z="1 : 0.5 : 1"
       inkscape:vp_y="0 : 1000 : 0"
       inkscape:vp_x="0 : 0.5 : 1"
       sodipodi:type="inkscape:persp3d" />
    <inkscape:perspective
       id="perspective3400"
       inkscape:persp3d-origin="372.04724 : 350.78739 : 1"
       inkscape:vp_z="744.09448 : 526.18109 : 1"
       inkscape:vp_y="0 : 1000 : 0"
       inkscape:vp_x="0 : 526.18109 : 1"
       sodipodi:type="inkscape:persp3d" />
    <clipPath
       id="clipPath849"
       clipPathUnits="userSpaceOnUse">
      <path
         id="path851"
         d="m 325.984,24.573 112.293,0 0,42.467 -112.293,0 0,-42.467 z" />
    </clipPath>
    <radialGradient
       id="radialGradient833"
       spreadMethod="pad"
       gradientTransform="matrix(15.5551,5.54071,7.12129,-16.6878,349.607,45.6582)"
       gradientUnits="userSpaceOnUse"
       r="1"
       cy="0"
       cx="0"
       fy="0"
       fx="0">
      <stop
         id="stop835"
         offset="0"
         style="stop-opacity: 1; stop-color: rgb(254, 237, 194);" />
      <stop
         id="stop837"
         offset="0.870789"
         style="stop-opacity: 1; stop-color: rgb(251, 196, 63);" />
      <stop
         id="stop839"
         offset="0.870789"
         style="stop-opacity: 1; stop-color: rgb(251, 196, 63);" />
      <stop
         id="stop841"
         offset="1"
         style="stop-opacity: 1; stop-color: rgb(253, 220, 140);" />
    </radialGradient>
    <linearGradient
       id="linearGradient809"
       spreadMethod="pad"
       gradientTransform="matrix(35.1746,12.5291,16.1033,-37.7359,332.003,39.4177)"
       gradientUnits="userSpaceOnUse"
       y2="0"
       x2="1"
       y1="0"
       x1="0">
      <stop
         id="stop811"
         offset="0"
         style="stop-opacity: 1; stop-color: rgb(254, 233, 186);" />
      <stop
         id="stop813"
         offset="0.848312"
         style="stop-opacity: 1; stop-color: rgb(251, 190, 31);" />
      <stop
         id="stop815"
         offset="0.848312"
         style="stop-opacity: 1; stop-color: rgb(251, 190, 31);" />
      <stop
         id="stop817"
         offset="1"
         style="stop-opacity: 1; stop-color: rgb(253, 212, 110);" />
    </linearGradient>
    <radialGradient
       id="radialGradient789"
       spreadMethod="pad"
       gradientTransform="matrix(10.3662,3.69243,4.74577,-11.1211,354.456,45.7968)"
       gradientUnits="userSpaceOnUse"
       r="1"
       cy="0"
       cx="0"
       fy="0"
       fx="0">
      <stop
         id="stop791"
         offset="0"
         style="stop-opacity: 1; stop-color: rgb(255, 255, 255);" />
      <stop
         id="stop793"
         offset="1"
         style="stop-opacity: 1; stop-color: rgb(252, 210, 108);" />
    </radialGradient>
    <radialGradient
       id="radialGradient769"
       spreadMethod="pad"
       gradientTransform="matrix(10.3755,3.69576,4.75,-11.131,344.75,45.5874)"
       gradientUnits="userSpaceOnUse"
       r="1"
       cy="0"
       cx="0"
       fy="0"
       fx="0">
      <stop
         id="stop771"
         offset="0"
         style="stop-opacity: 1; stop-color: rgb(255, 255, 255);" />
      <stop
         id="stop773"
         offset="1"
         style="stop-opacity: 1; stop-color: rgb(252, 210, 108);" />
    </radialGradient>
    <clipPath
       id="clipPath749"
       clipPathUnits="userSpaceOnUse">
      <path
         id="path751"
         d="m 325.984,24.573 112.293,0 0,42.467 -112.293,0 0,-42.467 z" />
    </clipPath>
    <radialGradient
       r="1"
       fy="0"
       fx="0"
       cy="0"
       cx="0"
       spreadMethod="pad"
       gradientTransform="matrix(42.9428,0,0,-42.9428,155.14,533.419)"
       gradientUnits="userSpaceOnUse"
       id="radialGradient3162"
       xlink:href="#radialGradient2644"
       inkscape:collect="always" />
    <radialGradient
       r="1"
       fy="0"
       fx="0"
       cy="0"
       cx="0"
       spreadMethod="pad"
       gradientTransform="matrix(42.9428,0,0,-42.9428,155.14,533.419)"
       gradientUnits="userSpaceOnUse"
       id="radialGradient3129"
       xlink:href="#radialGradient2644"
       inkscape:collect="always" />
    <clipPath
       id="clipPath2966"
       clipPathUnits="userSpaceOnUse">
      <path
         id="path2968"
         d="m 100.898,201.084 87.7437,0 0,9.9209 -87.7437,0 0,-9.9209 z" />
    </clipPath>
    <clipPath
       id="clipPath2958"
       clipPathUnits="userSpaceOnUse">
      <path
         id="path2960"
         d="m 100.898,202.5051 90.44,0 0,8.5 -90.44,0 0,-8.5 z" />
    </clipPath>
    <radialGradient
       id="radialGradient2924"
       spreadMethod="pad"
       gradientTransform="matrix(32.2071,0,0,-32.2074,151.197,374.46)"
       gradientUnits="userSpaceOnUse"
       r="1"
       cy="0"
       cx="0"
       fy="0"
       fx="0">
      <stop
         id="stop2926"
         offset="0"
         style="stop-opacity: 1; stop-color: rgb(72, 100, 146);" />
      <stop
         id="stop2928"
         offset="1"
         style="stop-opacity: 1; stop-color: rgb(19, 39, 70);" />
    </radialGradient>
    <clipPath
       id="clipPath2910"
       clipPathUnits="userSpaceOnUse">
      <path
         id="path2912"
         d="m 119.881,342.992 51.023,0 0,51.024 -51.023,0 0,-51.024 z" />
    </clipPath>
    <clipPath
       id="clipPath2872"
       clipPathUnits="userSpaceOnUse">
      <path
         id="path2874"
         d="m 132.885,229.393 22.677,0 0,22.677 -22.677,0 0,-22.677 z" />
    </clipPath>
    <radialGradient
       id="radialGradient2772"
       spreadMethod="pad"
       gradientTransform="matrix(42.9428,0,0,-42.9428,155.14,450.148)"
       gradientUnits="userSpaceOnUse"
       r="1"
       cy="0"
       cx="0"
       fy="0"
       fx="0">
      <stop
         id="stop2774"
         offset="0"
         style="stop-opacity: 1; stop-color: rgb(72, 100, 146);" />
      <stop
         id="stop2776"
         offset="1"
         style="stop-opacity: 1; stop-color: rgb(19, 39, 70);" />
    </radialGradient>
    <clipPath
       id="clipPath2758"
       clipPathUnits="userSpaceOnUse">
      <path
         id="path2760"
         d="m 113.386,408.189 68.031,0 0,68.032 -68.031,0 0,-68.032 z" />
    </clipPath>
    <radialGradient
       id="radialGradient2722"
       spreadMethod="pad"
       gradientTransform="matrix(17.8964,0,0,-17.8966,147.324,278.059)"
       gradientUnits="userSpaceOnUse"
       r="1"
       cy="0"
       cx="0"
       fy="0"
       fx="0">
      <stop
         id="stop2724"
         offset="0"
         style="stop-opacity: 1; stop-color: rgb(72, 100, 146);" />
      <stop
         id="stop2726"
         offset="1"
         style="stop-opacity: 1; stop-color: rgb(19, 39, 70);" />
    </radialGradient>
    <clipPath
       id="clipPath2708"
       clipPathUnits="userSpaceOnUse">
      <path
         id="path2710"
         d="m 129.923,260.574 28.346,0 0,28.346 -28.346,0 0,-28.346 z" />
    </clipPath>
    <radialGradient
       id="radialGradient2644"
       spreadMethod="pad"
       gradientTransform="matrix(42.9428,0,0,-42.9428,155.14,533.419)"
       gradientUnits="userSpaceOnUse"
       r="1"
       cy="0"
       cx="0"
       fy="0"
       fx="0">
      <stop
         id="stop2646"
         offset="0"
         style="stop-opacity: 1; stop-color: rgb(72, 100, 146);" />
      <stop
         id="stop2648"
         offset="1"
         style="stop-opacity: 1; stop-color: rgb(19, 39, 70);" />
    </radialGradient>
    <clipPath
       id="clipPath2630"
       clipPathUnits="userSpaceOnUse">
      <path
         id="path2632"
         d="m 113.386,491.4611 68.031,0 0,68.031 -68.031,0 0,-68.031 z" />
    </clipPath>
    <clipPath
       id="clipPath2458"
       clipPathUnits="userSpaceOnUse">
      <path
         id="path2460"
         d="m 0,0.89 595,0 0,841 -595,0 0,-841 z" />
    </clipPath>
    <inkscape:perspective
       id="perspective2450"
       inkscape:persp3d-origin="372.04724 : 350.78739 : 1"
       inkscape:vp_z="744.09448 : 526.18109 : 1"
       inkscape:vp_y="0 : 1000 : 0"
       inkscape:vp_x="0 : 526.18109 : 1"
       sodipodi:type="inkscape:persp3d" />
    <inkscape:perspective
       id="perspective60613"
       inkscape:persp3d-origin="0.5 : 0.33333333 : 1"
       inkscape:vp_z="1 : 0.5 : 1"
       inkscape:vp_y="0 : 1000 : 0"
       inkscape:vp_x="0 : 0.5 : 1"
       sodipodi:type="inkscape:persp3d" />
    <inkscape:perspective
       id="perspective60894"
       inkscape:persp3d-origin="0.5 : 0.33333333 : 1"
       inkscape:vp_z="1 : 0.5 : 1"
       inkscape:vp_y="0 : 1000 : 0"
       inkscape:vp_x="0 : 0.5 : 1"
       sodipodi:type="inkscape:persp3d" />
  </defs>
  <sodipodi:namedview
     id="base"
     pagecolor="#ffffff"
     bordercolor="#666666"
     borderopacity="1.0"
     inkscape:pageopacity="0.0"
     inkscape:pageshadow="2"
     inkscape:zoom="0.98994949"
     inkscape:cx="166.53299"
     inkscape:cy="90.779237"
     inkscape:document-units="px"
     inkscape:current-layer="layer1"
     showgrid="false"
     showguides="true"
     inkscape:guide-bbox="true"
     inkscape:window-width="884"
     inkscape:window-height="675"
     inkscape:window-x="0"
     inkscape:window-y="25"
     inkscape:window-maximized="0"
     units="cm">
    <sodipodi:guide
       orientation="0,1"
       position="110,862.85714"
       id="guide60619" />
  </sodipodi:namedview>
  <metadata
     id="metadata59470">
    <rdf:RDF>
      <cc:Work
         rdf:about="">
        <dc:format>image/svg+xml</dc:format>
        <dc:type
           rdf:resource="http://purl.org/dc/dcmitype/StillImage" />
        <dc:title></dc:title>
      </cc:Work>
    </rdf:RDF>
  </metadata>
  <g
     inkscape:label="Calque 1"
     inkscape:groupmode="layer"
     id="layer1"
     transform="translate(0,-839.76245)">
    <image
       y="921.59076"
       x="8.1040621"
       id="image59922"
       height="26.652224"
       width="26.652224"
       xlink:href="file:///home/guillaume/Posters/Liguenationalecontrelecancer.gif" />
    <g
       transform="matrix(0.42343967,0,0,0.42343967,-67.711879,720.51568)"
       id="layer1-0"
       inkscape:label="Calque 1">
      <g
         id="g745"
         transform="matrix(1.25,0,0,-1.25,-226.235,492.477)">
        <g
           clip-path="url(#clipPath749)"
           id="g747">
          <path
             id="path753"
             style="fill:none;stroke:#c02229;stroke-width:0.63;stroke-linecap:butt;stroke-linejoin:miter;stroke-miterlimit:4;stroke-opacity:1;stroke-dasharray:none"
             d="m 326.299,66.724 0,-41.837 0,41.837 z"
             sodipodi:nodetypes="ccc" />
        </g>
      </g>
      <path
         id="path755"
         style="fill:#c02229;fill-opacity:1;fill-rule:nonzero;stroke:none"
         d="m 181.6392,409.07433 58.175,0 0,52.29 -58.175,0 0,-52.29 z" />
      <g
         id="g757"
         transform="matrix(1.25,0,0,-1.25,-226.235,492.477)">
        <g
           id="g759">
          <g
             id="g765">
            <g
               id="g767">
              <path
                 id="path775"
                 style="fill:url(#radialGradient769);stroke:none"
                 d="m 343.124,58.391 c -7.567,-3.227 -10.823,-11.554 -7.258,-18.562 l 0,0 c 1.77,-3.476 4.931,-6.087 8.902,-7.349 l 0,0 0.446,-0.142 0.003,6.39 6.345,-0.138 c 1.409,-0.022 2.566,1.012 2.578,2.306 l 0,0 c 0.013,1.295 -1.125,2.366 -2.535,2.39 l 0,0 c -0.003,0 -6.036,0.041 -6.036,0.041 l 0,0 0.004,0 c -3.531,0.057 -6.378,2.737 -6.348,5.976 l 0,0 c 0.031,3.238 2.927,5.827 6.457,5.771 l 0,0 4.352,-0.101 0.083,4.69 c 10e-4,0.004 -0.382,0.011 -0.382,0.011 l 0,0 c -0.098,0.002 -0.197,0.003 -0.296,0.003 l 0,0 c -2.19,0 -4.313,-0.432 -6.315,-1.286 m -6.641,-18.299 c -3.406,6.694 -0.295,14.647 6.932,17.728 l 0,0 c 1.998,0.853 3.804,1.169 6.131,1.195 l 0,0 -0.101,-3.362 -3.757,0.049 c -3.906,0.062 -7.111,-2.804 -7.144,-6.388 l 0,0 c -0.033,-3.586 3.117,-6.553 7.024,-6.615 l 0,0 -0.068,0 6.103,-0.043 c 1.03,-0.016 1.865,-0.801 1.856,-1.748 l 0,0 c -0.009,-0.949 -0.858,-1.706 -1.891,-1.691 l 0,0 -6.989,0.115 -0.036,-6.108 c -3.792,1.206 -6.371,3.548 -8.06,6.868" />
            </g>
          </g>
        </g>
      </g>
      <g
         id="g777"
         transform="matrix(1.25,0,0,-1.25,-226.235,492.477)">
        <g
           id="g779">
          <g
             id="g785">
            <g
               id="g787">
              <path
                 id="path795"
                 style="fill:url(#radialGradient789);stroke:none"
                 d="m 353.938,51.432 -8.287,0.116 c -1.411,0.023 -2.568,-1.012 -2.58,-2.306 l 0,0 c -0.005,-0.626 0.254,-1.218 0.729,-1.67 l 0,0 c 0.48,-0.452 1.121,-0.708 1.806,-0.719 l 0,0 6.032,-0.097 c 3.53,-0.057 6.378,-2.713 6.348,-5.922 l 0,0 c -0.016,-1.563 -0.69,-3.022 -1.902,-4.112 l 0,0 c -1.221,-1.096 -2.839,-1.685 -4.555,-1.658 l 0,0 c -0.007,0 -2.032,-0.009 -2.032,-0.009 l 0,0 -0.334,-10e-4 -0.002,-0.309 -0.024,-2.736 -0.004,-0.315 0.341,-0.005 c 2.286,-0.036 4.5,0.396 6.582,1.284 l 0,0 c 7.567,3.228 10.824,11.554 7.258,18.562 l 0,0 c -1.78,3.496 -4.939,6.115 -8.898,7.373 l 0,0 -0.446,0.142 -0.032,-7.618 z m 0.711,6.716 c 3.592,-1.536 6.349,-3.536 8.048,-6.876 l 0,0 c 3.406,-6.693 0.295,-14.646 -6.931,-17.728 l 0,0 c -1.99,-0.848 -3.682,-1.154 -5.94,-1.185 l 0,0 0.022,2.051 1.724,0.026 c 1.967,-0.01 3.639,0.621 4.989,1.835 l 0,0 c 1.342,1.204 2.09,2.821 2.107,4.553 l 0,0 c 0.032,3.554 -3.119,6.498 -7.025,6.561 l 0,0 -6.031,0.095 c -0.503,0.009 -0.974,0.197 -1.326,0.53 l 0,0 c -0.348,0.329 -0.538,0.763 -0.534,1.22 l 0,0 c 0.009,0.949 0.858,1.706 1.892,1.69 l 0,0 c -0.003,-0.001 9.009,-0.239 9.009,-0.239 l 0,0 c 10e-4,0 -0.004,7.467 -0.004,7.467" />
            </g>
          </g>
        </g>
      </g>
      <g
         id="g797"
         transform="matrix(1.25,0,0,-1.25,-226.235,492.477)">
        <g
           id="g799">
          <g
             id="g805">
            <g
               id="g807">
              <path
                 id="path819"
                 style="fill:url(#linearGradient809);stroke:none"
                 d="M 342.022,63.416 C 331.452,59.651 326.246,48.633 330.419,38.855 l 0,0 c 4.173,-9.779 16.167,-14.671 26.739,-10.906 l 0,0 c 10.571,3.764 15.777,14.782 11.604,24.561 l 0,0 c -3.218,7.54 -11.089,12.175 -19.369,12.176 l 0,0 c -2.458,0 -4.951,-0.409 -7.371,-1.27 M 331.005,39.064 c -4.049,9.488 0.994,20.177 11.242,23.826 l 0,0 c 10.248,3.65 21.879,-1.1 25.929,-10.589 l 0,0 c 4.049,-9.489 -0.995,-20.176 -11.243,-23.827 l 0,0 c -2.343,-0.834 -4.759,-1.229 -7.139,-1.229 l 0,0 c -10e-4,0 -0.002,0 -0.003,0 l 0,0 c -8.03,0 -15.662,4.5 -18.786,11.819" />
            </g>
          </g>
        </g>
      </g>
      <g
         id="g821"
         transform="matrix(1.25,0,0,-1.25,-226.235,492.477)">
        <g
           id="g823">
          <g
             id="g829">
            <g
               id="g831">
              <path
                 id="path843"
                 style="fill:url(#radialGradient833);stroke:none"
                 d="M 342.701,60.997 C 333.627,57.52 329.343,47.81 333.151,39.351 l 0,0 c 1.662,-3.69 4.693,-6.711 8.535,-8.503 l 0,0 c 4.647,-2.168 10.051,-2.36 14.827,-0.53 l 0,0 c 4.778,1.832 8.443,5.501 10.058,10.069 l 0,0 c 1.335,3.776 1.155,7.888 -0.507,11.578 l 0,0 c -2.882,6.401 -9.586,10.278 -16.609,10.279 l 0,0 c -2.258,0 -4.547,-0.4 -6.754,-1.247 m 4.08,-31.167 c -1.726,0.27 -3.382,0.774 -4.927,1.494 l 0,0 c -3.713,1.732 -6.64,4.645 -8.242,8.203 l 0,0 c -1.599,3.552 -1.769,7.521 -0.479,11.173 l 0,0 c 1.573,4.447 5.141,8.02 9.791,9.803 l 0,0 c 2.747,1.052 5.761,1.429 8.718,1.089 l 0,0 0.117,-0.013 -0.004,-8.026 -5.588,0.075 c -0.391,-0.005 -0.768,-0.064 -1.133,-0.122 l 0,0 c 0,-10e-4 -0.224,-0.035 -0.224,-0.035 l 0,0 c -1.594,-0.244 -2.92,-1.111 -3.639,-2.378 l 0,0 c -0.553,-0.976 -0.682,-2.074 -0.364,-3.092 l 0,0 0.129,-0.349 c 0.418,-0.98 1.183,-1.608 1.75,-1.963 l 0,0 c 0.809,-0.505 1.766,-0.812 2.77,-0.888 l 0,0 c -0.004,0 6.171,-0.175 6.171,-0.175 l 0,0 c 1.982,-0.114 3.63,-1.206 4.103,-2.717 l 0,0 c 0.274,-0.873 0.158,-1.848 -0.318,-2.677 l 0,0 c -0.619,-1.076 -1.777,-1.808 -3.176,-2.005 l 0,0 -0.428,-0.073 c -0.239,-0.045 -0.444,-0.083 -0.679,-0.092 l 0,0 c -0.008,0 -4.049,0.058 -4.164,0.059 l 0,0 c -10e-4,-0.117 -0.063,-7.31 -0.063,-7.31 l 0,0 -0.121,0.019 z m 5.628,23.346 0.004,8.185 10e-4,0.127 0.123,-0.021 c 5.889,-0.967 10.773,-4.585 13.066,-9.678 l 0,0 c 1.602,-3.558 1.774,-7.527 0.485,-11.177 l 0,0 c -1.571,-4.442 -5.141,-8.014 -9.798,-9.798 l 0,0 c -2.707,-1.037 -5.685,-1.419 -8.614,-1.103 l 0,0 -0.119,0.012 0.058,6.718 3.592,-0.051 c 0.297,0.01 0.544,0.056 0.784,0.101 l 0,0 c 0.003,0 0.402,0.069 0.402,0.069 l 0,0 c 1.576,0.222 2.886,1.055 3.591,2.285 l 0,0 c 0.564,0.982 0.699,2.149 0.368,3.205 l 0,0 c -0.568,1.811 -2.484,3.117 -4.769,3.249 l 0,0 -6.166,0.174 c -0.885,0.068 -1.727,0.338 -2.438,0.782 l 0,0 c -0.473,0.296 -1.109,0.814 -1.448,1.609 l 0,0 -0.103,0.278 c -0.261,0.834 -0.148,1.746 0.317,2.567 l 0,0 c 0.633,1.115 1.809,1.879 3.229,2.096 l 0,0 0.227,0.035 c 0.36,0.058 0.7,0.112 1.037,0.116 l 0,0 c 0.004,0 6.052,-0.083 6.171,-0.084 l 0,0 c 0,0.118 0,0.304 0,0.304" />
            </g>
          </g>
        </g>
      </g>
    </g>
    <g
       transform="matrix(0.39592131,0,0,-0.39592131,-37.405839,1083.5507)"
       inkscape:label="T-CahierDesNormesA4-19"
       id="g2452">
      <g
         transform="translate(0.4,-1.20213)"
         clip-path="url(#clipPath2630)"
         id="g2628">
        <g
           id="g2634">
          <g
             id="g2636">
            <g
               id="g2642">
              <path
                 id="path2650"
                 style="fill:url(#radialGradient3162);stroke:none"
                 d="m 145.9594,559.4358 c -9.1453,0.5642 -17.3945,-3.0093 -24.5179,-10.6226 -9.2742,-9.9127 -9.0985,-16.8549 -6.568,-29.2877 1.659,-8.1471 6.4957,-16.0134 13.2699,-21.5818 7.8746,-6.4717 17.1278,-8.1377 26.7566,-4.8145 10.6116,3.6632 20.762,14.1493 24.686,25.5009 4.2732,12.3726 0.9896,23.5885 -9.0116,30.7697 -8.61,6.1837 -16.8908,9.5595 -24.615,10.036" />
            </g>
          </g>
        </g>
        <g
           id="g2652">
          <path
             id="path2654"
             style="fill:#ffffff;fill-opacity:1;fill-rule:nonzero;stroke:none"
             d="m 142.7422,498.0352 c 0,-0.2851 0.2297,-0.3864 0.8969,-0.3864 0.561,0 0.9157,0.0737 0.9157,0.4184 0,0.3405 -0.3505,0.4189 -0.879,0.4189 -0.5929,0 -0.9336,-0.0692 -0.9336,-0.4509 z m 1.8399,0.4509 0,-0.009 c 0.1609,-0.0649 0.368,-0.1885 0.368,-0.5437 0,-0.5783 -0.4833,-0.8091 -1.3336,-0.8091 -1.1004,0 -1.2703,0.3867 -1.2703,0.764 0,0.2663 0.1336,0.4687 0.3546,0.5608 l 0,0.01 -1.0992,0 0,0.4967 3.2844,0 0,-0.4691" />
          <path
             id="path2656"
             style="fill:#ffffff;fill-opacity:1;fill-rule:nonzero;stroke:none"
             d="m 143.3719,500.6573 -0.1328,0 c -0.3133,0 -0.5523,-0.1021 -0.5523,-0.3829 0,-0.3164 0.3125,-0.4132 0.6344,-0.4132 l 0.0507,0 0,0.7961 z m 0.3407,-0.7961 0.1429,0 c 0.3313,0 0.7539,0.0412 0.7539,0.4132 0,0.3548 -0.4051,0.3969 -0.5515,0.3969 l 0,0.4687 c 0.5469,0 0.8922,-0.3316 0.8922,-0.8688 0,-0.406 -0.1196,-0.9068 -1.2649,-0.9068 -0.6484,0 -1.339,0.138 -1.339,0.9152 0,0.69 0.4136,0.8744 1.1046,0.8744 l 0.2618,0 0,-1.2928 z m -2.286,0.4784 0,0.552 0.6625,-0.4876 0,-0.3412" />
          <path
             id="path2658"
             style="fill:#ffffff;fill-opacity:1;fill-rule:nonzero;stroke:none"
             d="m 144.5548,502.4556 c 0,0.2844 -0.2118,0.414 -0.8969,0.414 -0.5617,0 -0.9157,-0.074 -0.9157,-0.4187 0,-0.3405 0.3493,-0.4189 0.8782,-0.4189 0.5933,0 0.9344,0.074 0.9344,0.4236 z m -2.1438,-0.8928 0,0.4692 0.3031,0 0,0.009 c -0.2203,0.102 -0.3679,0.2853 -0.3679,0.5569 0,0.5659 0.4836,0.7955 1.3343,0.7955 1.0395,0 1.2696,-0.4224 1.2696,-0.7631 0,-0.2669 -0.1336,-0.4697 -0.3539,-0.5621 l 0,-0.008 1.0988,0 0,-0.4972" />
          <path
             id="path2660"
             style="fill:#ffffff;fill-opacity:1;fill-rule:nonzero;stroke:none"
             d="m 143.579,504.9304 c 0.1015,-0.1292 0.1609,-0.4048 0.2301,-0.5524 0.0691,-0.1424 0.2163,-0.202 0.4003,-0.202 0.2071,0 0.3727,0.1008 0.3727,0.308 0,0.2984 -0.2258,0.4464 -0.5891,0.4464 l -0.414,0 z m 0.7914,0.4697 c 0.0922,0 0.175,0.0543 0.175,0.1275 0,0.0328 -0.005,0.0656 -0.0145,0.0832 l 0.3223,0 c 0.0273,-0.0596 0.0602,-0.1472 0.0602,-0.2436 0,-0.2204 -0.0876,-0.4052 -0.3266,-0.4192 l 0,-0.009 c 0.2437,-0.1328 0.3633,-0.3264 0.3633,-0.6156 0,-0.396 -0.2215,-0.6444 -0.6946,-0.6444 -0.5523,0 -0.6672,0.24 -0.7773,0.5748 l -0.1063,0.3873 c -0.0507,0.1791 -0.1007,0.2895 -0.3171,0.2895 -0.225,0 -0.368,-0.078 -0.368,-0.3403 0,-0.3317 0.2344,-0.3781 0.4742,-0.3781 l 0,-0.4684 c -0.525,0 -0.8148,0.2156 -0.8148,0.8688 0,0.4372 0.1699,0.7877 0.6078,0.7877" />
          <path
             id="path2662"
             style="fill:#ffffff;fill-opacity:1;fill-rule:nonzero;stroke:none"
             d="m 143.1329,506.9724 -0.0645,0 c -0.1972,0 -0.3816,-0.0688 -0.3816,-0.3268 0,-0.1976 0.0918,-0.3536 0.3218,-0.3536 0.1938,0 0.2719,0.0872 0.3633,0.3492 l 0.111,0.3172 c 0.1242,0.368 0.3219,0.538 0.7121,0.538 0.5293,0 0.7551,-0.386 0.7551,-0.8871 0,-0.6261 -0.2899,-0.8144 -0.768,-0.8144 l -0.0922,0 0,0.4415 0.0781,0 c 0.2852,0 0.4414,0.1008 0.4414,0.3869 0,0.2707 -0.1382,0.4043 -0.3632,0.4043 -0.1844,0 -0.3032,-0.0968 -0.3633,-0.2716 l -0.143,-0.4048 c -0.1281,-0.3728 -0.3172,-0.5284 -0.7125,-0.5284 -0.4652,0 -0.6812,0.3356 -0.6812,0.8456 0,0.6305 0.3679,0.7736 0.6761,0.7736 l 0.1106,0" />
          <path
             id="path2664"
             style="fill:#ffffff;fill-opacity:1;fill-rule:nonzero;stroke:none"
             d="m 143.1329,508.9316 -0.0645,0 c -0.1972,0 -0.3816,-0.0688 -0.3816,-0.3263 0,-0.1977 0.0918,-0.3541 0.3218,-0.3541 0.1938,0 0.2719,0.0876 0.3633,0.3493 l 0.111,0.3179 c 0.1242,0.3672 0.3219,0.5376 0.7121,0.5376 0.5293,0 0.7551,-0.386 0.7551,-0.8875 0,-0.6257 -0.2899,-0.8141 -0.768,-0.8141 l -0.0922,0 0,0.4412 0.0781,0 c 0.2852,0 0.4414,0.1016 0.4414,0.3869 0,0.2711 -0.1382,0.4047 -0.3632,0.4047 -0.1844,0 -0.3032,-0.0968 -0.3633,-0.272 l -0.143,-0.4048 c -0.1281,-0.3716 -0.3172,-0.5288 -0.7125,-0.5288 -0.4652,0 -0.6812,0.336 -0.6812,0.846 0,0.6309 0.3679,0.7736 0.6761,0.7736 l 0.1106,0" />
          <path
             id="path2666"
             style="fill:#ffffff;fill-opacity:1;fill-rule:nonzero;stroke:none"
             d="m 143.3719,511.048 -0.1328,0 c -0.3133,0 -0.5523,-0.1016 -0.5523,-0.382 0,-0.3172 0.3125,-0.414 0.6344,-0.414 l 0.0507,0 0,0.796 z m 0.3407,-0.796 0.1429,0 c 0.3313,0 0.7539,0.0416 0.7539,0.414 0,0.354 -0.4051,0.3952 -0.5515,0.3952 l 0,0.4697 c 0.5469,0 0.8922,-0.3313 0.8922,-0.8696 0,-0.4045 -0.1196,-0.9061 -1.2649,-0.9061 -0.6484,0 -1.339,0.1384 -1.339,0.9157 0,0.6895 0.4136,0.8739 1.1046,0.8739 l 0.2618,0" />
          <path
             id="path2668"
             style="fill:#ffffff;fill-opacity:1;fill-rule:nonzero;stroke:none"
             d="m 142.411,511.9544 0,0.4968 0.3856,0 0,0.009 c -0.2754,0.1108 -0.4504,0.2945 -0.4504,0.5749 0,0.0556 0.009,0.0875 0.0187,0.1195 l 0.5063,0 c -0.009,-0.0368 -0.0282,-0.1236 -0.0282,-0.2063 0,-0.2257 0.1016,-0.4969 0.5618,-0.4969 l 1.4812,0 0,-0.4968" />
          <path
             id="path2670"
             style="fill:#ffffff;fill-opacity:1;fill-rule:nonzero;stroke:none"
             d="m 141.6016,514.4076 3.2844,0 0,0.2756 -3.2844,0 0,-0.2756 z" />
          <path
             id="path2672"
             style="fill:#ffffff;fill-opacity:1;fill-rule:nonzero;stroke:none"
             d="m 143.4462,516.4677 c -0.6079,-0.009 -0.8282,-0.1789 -0.8282,-0.5196 0,-0.3405 0.2203,-0.5108 0.8282,-0.5205 l 0,1.0401 z m 0.6296,0.2719 c 0.5204,-0.0415 0.8649,-0.3276 0.8649,-0.7867 0,-0.5156 -0.3586,-0.8189 -1.2789,-0.8189 -0.8465,0 -1.2742,0.3033 -1.2742,0.8416 0,0.5428 0.3722,0.7864 1.1867,0.7864 l 0.1015,0 0,-1.3344 0.1145,0 c 0.7039,0 0.9203,0.2489 0.9203,0.5205 0,0.2899 -0.207,0.4688 -0.6348,0.5147" />
          <path
             id="path2674"
             style="fill:#ffffff;fill-opacity:1;fill-rule:nonzero;stroke:none"
             d="m 143.6712,517.5808 c -0.134,-0.3451 -0.336,-0.4688 -0.5797,-0.4688 -0.5016,0 -0.7039,0.3129 -0.7039,0.7268 0,0.46 0.2355,0.6716 0.6808,0.6716 l 0.0692,0 0,-0.2764 -0.0692,0 c -0.3168,0 -0.4504,-0.1468 -0.4504,-0.4 0,-0.322 0.17,-0.4459 0.4137,-0.4459 0.1707,0 0.3035,0.0556 0.4098,0.3311 l 0.1515,0.4001 c 0.1242,0.3311 0.3539,0.4556 0.6207,0.4556 0.4192,0 0.727,-0.2393 0.727,-0.7548 0,-0.5017 -0.2071,-0.75 -0.7586,-0.75 l -0.0781,0 0,0.2763 0.064,0 c 0.3586,0 0.5426,0.1564 0.5426,0.4688 0,0.2948 -0.1652,0.4836 -0.4363,0.4836 -0.2164,0 -0.3547,-0.0876 -0.4516,-0.3311" />
          <path
             id="path2676"
             style="fill:#ffffff;fill-opacity:1;fill-rule:nonzero;stroke:none"
             d="m 142.7786,520.1374 0,-0.3449 -0.3676,0 0,0.3449 -0.2305,0 c -0.4687,0 -0.6164,0.225 -0.6164,0.6303 0,0.1052 0.004,0.1976 0.0137,0.2712 l 0.3824,0 0,-0.1378 c 0,-0.1842 0.0684,-0.2668 0.2344,-0.2668 l 0.2164,0 0,0.4046 0.3676,0 0,-0.4046 2.1074,0 0,-0.4969" />
          <path
             id="path2678"
             style="fill:#ffffff;fill-opacity:1;fill-rule:nonzero;stroke:none"
             d="m 142.411,521.2644 0,0.4968 0.3856,0 0,0.009 c -0.2754,0.1109 -0.4504,0.2945 -0.4504,0.5746 0,0.0557 0.009,0.0877 0.0187,0.1199 l 0.5063,0 c -0.009,-0.0369 -0.0282,-0.1242 -0.0282,-0.2066 0,-0.2254 0.1016,-0.4969 0.5618,-0.4969 l 1.4812,0 0,-0.4968" />
          <path
             id="path2680"
             style="fill:#ffffff;fill-opacity:1;fill-rule:nonzero;stroke:none"
             d="m 144.5821,523.5366 c 0,0.3631 -0.3043,0.4281 -0.9336,0.4281 -0.5477,0 -0.9344,-0.065 -0.9344,-0.4281 0,-0.3588 0.3867,-0.4228 0.9344,-0.4228 0.6293,0 0.9336,0.064 0.9336,0.4228 z m -2.2359,0 c 0,0.7227 0.5336,0.925 1.3023,0.925 0.768,0 1.3016,-0.2348 1.3016,-0.925 0,-0.6854 -0.5336,-0.9197 -1.3016,-0.9197 -0.7687,0 -1.3023,0.2018 -1.3023,0.9197" />
          <path
             id="path2682"
             style="fill:#ffffff;fill-opacity:1;fill-rule:nonzero;stroke:none"
             d="m 142.411,524.8427 0,0.4697 0.2898,0 0,0.0138 c -0.221,0.1237 -0.3546,0.3589 -0.3546,0.6346 0,0.3772 0.1699,0.6162 0.6719,0.6162 l 1.8679,0 0,-0.4969 -1.6976,0 c -0.3219,0 -0.4462,-0.0958 -0.4462,-0.3443 0,-0.2027 0.161,-0.3963 0.4829,-0.3963 l 1.6609,0 0,-0.4968" />
          <path
             id="path2684"
             style="fill:#ffffff;fill-opacity:1;fill-rule:nonzero;stroke:none"
             d="m 142.411,526.8348 0,0.3401 -0.7039,0 0,0.4969 0.7039,0 0,0.4049 0.3676,0 0,-0.4049 1.4769,0 c 0.1926,0 0.2625,0.0554 0.2625,0.2257 0,0.0735 -0.005,0.1334 -0.0144,0.1792 l 0.3683,0 c 0.0274,-0.1057 0.0415,-0.2439 0.0415,-0.3999 0,-0.3365 -0.0922,-0.5019 -0.5985,-0.5019 l -1.5363,0 0,-0.3401" />
          <path
             id="path2686"
             style="fill:#ffffff;fill-opacity:1;fill-rule:nonzero;stroke:none"
             d="m 142.411,528.3575 0,0.4969 2.475,0 0,-0.4969 -2.475,0 z m -0.8469,0 0,0.4969 0.4969,0 0,-0.4969" />
          <path
             id="path2688"
             style="fill:#ffffff;fill-opacity:1;fill-rule:nonzero;stroke:none"
             d="m 143.3719,530.5794 -0.1328,0 c -0.3133,0 -0.5523,-0.1016 -0.5523,-0.3818 0,-0.3177 0.3125,-0.4143 0.6344,-0.4143 l 0.0507,0 0,0.7961 z m 0.3407,-0.7961 0.1429,0 c 0.3313,0 0.7539,0.0414 0.7539,0.4143 0,0.3537 -0.4051,0.3952 -0.5515,0.3952 l 0,0.4696 c 0.5469,0 0.8922,-0.3314 0.8922,-0.8696 0,-0.4048 -0.1196,-0.9064 -1.2649,-0.9064 -0.6484,0 -1.339,0.1385 -1.339,0.9154 0,0.6903 0.4136,0.8739 1.1046,0.8739 l 0.2618,0 0,-1.2924 z m -2.286,-0.1194 0,0.5514 0.6625,0.2766 0,-0.3405" />
          <path
             id="path2690"
             style="fill:#ffffff;fill-opacity:1;fill-rule:nonzero;stroke:none"
             d="m 142.411,531.4857 0,0.496 0.3856,0 0,0.009 c -0.2754,0.1107 -0.4504,0.2948 -0.4504,0.5752 0,0.0555 0.009,0.0874 0.0187,0.1197 l 0.5063,0 c -0.009,-0.0368 -0.0282,-0.1244 -0.0282,-0.2074 0,-0.225 0.1016,-0.4969 0.5618,-0.4969 l 1.4812,0 0,-0.496" />
          <path
             id="path2692"
             style="fill:#ffffff;fill-opacity:1;fill-rule:nonzero;stroke:none"
             d="m 143.3719,534.1311 -0.1328,0 c -0.3133,0 -0.5523,-0.1016 -0.5523,-0.3822 0,-0.317 0.3125,-0.4139 0.6344,-0.4139 l 0.0507,0 0,0.7961 z m 0.3407,-0.7961 0.1429,0 c 0.3313,0 0.7539,0.0414 0.7539,0.4139 0,0.3541 -0.4051,0.3956 -0.5515,0.3956 l 0,0.4695 c 0.5469,0 0.8922,-0.3313 0.8922,-0.8697 0,-0.4046 -0.1196,-0.9061 -1.2649,-0.9061 -0.6484,0 -1.339,0.138 -1.339,0.9154 0,0.6899 0.4136,0.8744 1.1046,0.8744 l 0.2618,0" />
          <path
             id="path2694"
             style="fill:#ffffff;fill-opacity:1;fill-rule:nonzero;stroke:none"
             d="m 143.1329,536.1046 -0.0645,0 c -0.1972,0 -0.3816,-0.0687 -0.3816,-0.3266 0,-0.198 0.0918,-0.3545 0.3218,-0.3545 0.1938,0 0.2719,0.0875 0.3633,0.3498 l 0.111,0.3172 c 0.1242,0.3678 0.3219,0.5383 0.7121,0.5383 0.5293,0 0.7551,-0.3863 0.7551,-0.8883 0,-0.625 -0.2899,-0.8139 -0.768,-0.8139 l -0.0922,0 0,0.4421 0.0781,0 c 0.2852,0 0.4414,0.1005 0.4414,0.386 0,0.2717 -0.1382,0.4044 -0.3632,0.4044 -0.1844,0 -0.3032,-0.0959 -0.3633,-0.271 l -0.143,-0.4048 c -0.1281,-0.3725 -0.3172,-0.5289 -0.7125,-0.5289 -0.4652,0 -0.6812,0.3361 -0.6812,0.8463 0,0.6303 0.3679,0.773 0.6761,0.773 l 0.1106,0" />
          <path
             id="path2696"
             style="fill:#ffffff;fill-opacity:1;fill-rule:nonzero;stroke:none"
             d="m 134.7106,527.1761 -2.3332,0 -0.003,-0.0661 c -0.0188,-0.4525 -0.2875,-4.4222 -3.8398,-4.4222 -3.1743,0 -4.7852,2.8447 -4.7883,8.4556 0.003,5.611 1.614,8.4559 4.7883,8.4559 3.6128,0 3.8327,-4.2418 3.8398,-4.4221 l 0.003,-0.0656 2.3332,0 c 0.2156,0 0.4246,0.0883 0.5746,0.2422 0.1434,0.1478 0.2176,0.3391 0.2078,0.5381 -0.0484,1.1008 -0.6125,6.5924 -6.9914,6.5924 -5.1543,0 -7.8789,-3.9172 -7.8789,-11.329 0,-7.4265 2.7246,-11.3525 7.8789,-11.3525 6.1387,0 6.9028,5.0156 6.9906,6.5525 0.0157,0.2124 -0.0578,0.4161 -0.2062,0.5725 -0.1492,0.158 -0.3593,0.2483 -0.5754,0.2483" />
          <path
             id="path2698"
             style="fill:#66cde2;fill-opacity:1;fill-rule:nonzero;stroke:none"
             d="m 168.566,532.4921 8e-4,-8e-4 -2.0096,0.8766 c -1.9328,0.8491 -2.618,1.6748 -2.618,3.1577 0,1.9329 1.4136,3.2322 3.5184,3.2322 1.244,0 2.2648,-0.2552 3.5108,-1.5243 l 0.0684,-0.0696 1.0724,0.9811 c 0.6212,0.5766 0.4412,1.0959 0.182,1.4296 -1.0464,1.2343 -2.7256,1.912 -4.7308,1.912 -3.868,0 -6.6752,-2.523 -6.6752,-5.9994 0,-3.4186 2.154,-4.8477 4.4812,-5.8822 l 2.05,-0.9155 c 2.0612,-0.9242 3.0428,-1.7123 3.0428,-3.6951 0,-2.7041 -2.444,-3.4251 -3.8876,-3.4251 -1.2424,0 -2.6252,0.2657 -4.3244,2.1907 l -0.0664,0.0758 -1.1172,-0.9814 c -0.5744,-0.5053 -0.5796,-0.9391 -0.0192,-1.6596 1.538,-1.977 3.7928,-2.392 5.4144,-2.392 3.5048,0 7.0544,2.1533 7.0544,6.268 0,3.5617 -1.9776,5.1429 -4.9472,6.4213" />
          <path
             id="path2700"
             style="fill:#66cde2;fill-opacity:1;fill-rule:nonzero;stroke:none"
             d="m 150.3512,535.995 c 0,3.5016 -2.8375,6.4682 -6.3402,6.4682 -1.6476,0 -3.1476,-0.6281 -4.275,-1.6585 l 0,1.2038 -2.1094,0 c -0.6359,0 -0.8781,-0.4149 -0.8781,-0.8914 l 0,-20.433 c 0,-0.5748 0.3508,-0.8823 0.8684,-0.8823 l 2.1097,0 c 0,0 0,16.0684 0,16.0692 0,2.1107 1.7114,3.8225 3.8227,3.8225 2.1109,0 3.823,-1.7118 3.823,-3.8225 0,-8e-4 0,-16.0721 0,-16.0721 l 2.0961,0 c 0.5813,0 0.8828,0.3227 0.8828,0.8791 0,0 0,15.2969 0,15.317" />
          <path
             id="path2702"
             style="fill:#ffffff;fill-opacity:1;fill-rule:nonzero;stroke:none"
             d="m 161.2464,540.9357 c 0.1104,0.1366 0.1784,0.3083 0.1784,0.4968 0,0.3516 -0.2296,0.6469 -0.5444,0.7541 -0.6104,0.2043 -1.2604,0.3164 -1.9364,0.3164 -1.6476,0 -3.1476,-0.6281 -4.2752,-1.6582 l 0,1.2035 -2.1094,0 c -0.6355,0 -0.8785,-0.4148 -0.8785,-0.8916 l 0,-20.4326 c 0,-0.5752 0.352,-0.8826 0.8692,-0.8826 l 2.1095,0 c 0,0 0,16.0684 0,16.0691 0,2.1112 1.712,3.8229 3.8232,3.8229 0.5532,0 1.0776,-0.1202 1.552,-0.3315 l 1.2188,1.5293" />
        </g>
      </g>
    </g>
    <image
       y="955.27234"
       x="8.4067354"
       id="image60615"
       height="26.337936"
       width="22.982492"
       xlink:href="file:///home/guillaume/Posters/logo_arc_blanc_gros.jpg"
       inkscape:transform-center-x="1.7406355" />
    <image
       y="858.18591"
       x="37.229408"
       id="image60896"
       height="145.82211"
       width="234.63727"
       xlink:href="file:///home/guillaume/Presentations/inra_sept11/illus/equipe.jpg" />
    <text
       xml:space="preserve"
       style="font-size:16px;font-style:normal;font-variant:normal;font-weight:normal;font-stretch:normal;line-height:125%;letter-spacing:0px;word-spacing:0px;fill:#000000;fill-opacity:1;stroke:none;font-family:FreeSans;-inkscape-font-specification:FreeSans"
       x="180.81731"
       y="24.710047"
       id="text60900"
       sodipodi:linespacing="125%"
       transform="translate(0,839.76245)"><tspan
         sodipodi:role="line"
         x="180.81731"
         y="24.710047"
         id="tspan60904" /></text>
    <text
       xml:space="preserve"
       style="font-size:12px;font-style:normal;font-variant:normal;font-weight:normal;font-stretch:normal;text-align:start;line-height:125%;letter-spacing:0px;word-spacing:0px;writing-mode:lr-tb;text-anchor:start;fill:#000000;fill-opacity:1;stroke:none;font-family:FreeSans;-inkscape-font-specification:FreeSans"
       x="275.1777"
       y="915.33539"
       id="text60908"
       sodipodi:linespacing="125%"><tspan
         sodipodi:role="line"
         x="275.1777"
         y="915.33539"
         id="tspan60912">C. Lorenzo</tspan><tspan
         sodipodi:role="line"
         x="275.1777"
         y="930.33539"
         id="tspan60916">T. Courthéoux</tspan><tspan
         sodipodi:role="line"
         x="275.1777"
         y="945.33539"
         id="tspan60930">A. Merdes</tspan><tspan
         sodipodi:role="line"
         x="275.1777"
         y="960.33539"
         id="tspan60932">J. Hyams</tspan></text>
    <text
       xml:space="preserve"
       style="font-size:16px;font-style:normal;font-variant:normal;font-weight:normal;font-stretch:normal;line-height:125%;letter-spacing:0px;word-spacing:0px;fill:#000000;fill-opacity:1;stroke:none;font-family:FreeSans;-inkscape-font-specification:FreeSans"
       x="-65.659912"
       y="888.71613"
       id="text60918"
       sodipodi:linespacing="125%"><tspan
         sodipodi:role="line"
         x="-65.659912"
         y="908.71613"
         id="tspan60924" /></text>
    <text
       xml:space="preserve"
       style="font-size:12px;font-style:normal;font-variant:normal;font-weight:normal;font-stretch:normal;line-height:125%;letter-spacing:0px;word-spacing:0px;fill:#000000;fill-opacity:1;stroke:none;font-family:FreeSans;-inkscape-font-specification:FreeSans"
       x="22.162445"
       y="1037.1477"
       id="text61012"
       sodipodi:linespacing="125%"><tspan
         sodipodi:role="line"
         x="22.162445"
         y="1037.1477"
         id="tspan61016">C. Réyes</tspan></text>
    <text
       xml:space="preserve"
       style="font-size:12px;font-style:normal;font-variant:normal;font-weight:normal;font-stretch:normal;line-height:125%;letter-spacing:0px;word-spacing:0px;fill:#000000;fill-opacity:1;stroke:none;font-family:FreeSans;-inkscape-font-specification:FreeSans"
       x="59.802048"
       y="1023.0665"
       id="text61020"
       sodipodi:linespacing="125%"><tspan
         sodipodi:role="line"
         id="tspan61022"
         x="59.802048"
         y="1023.0665">Y. Gachet</tspan></text>
    <text
       xml:space="preserve"
       style="font-size:12px;font-style:normal;font-variant:normal;font-weight:normal;font-stretch:normal;line-height:125%;letter-spacing:0px;word-spacing:0px;fill:#000000;fill-opacity:1;stroke:none;font-family:FreeSans;-inkscape-font-specification:FreeSans"
       x="95.360443"
       y="1038.3177"
       id="text61024"
       sodipodi:linespacing="125%"><tspan
         sodipodi:role="line"
         id="tspan61026"
         x="95.360443"
         y="1038.3177"
         style="font-weight:bold">S. Tournier</tspan></text>
    <text
       xml:space="preserve"
       style="font-size:12px;font-style:normal;font-variant:normal;font-weight:normal;font-stretch:normal;line-height:125%;letter-spacing:0px;word-spacing:0px;fill:#000000;fill-opacity:1;stroke:none;font-family:FreeSans;-inkscape-font-specification:FreeSans"
       x="132.797"
       y="1023.0665"
       id="text61028"
       sodipodi:linespacing="125%"><tspan
         sodipodi:role="line"
         id="tspan61030"
         x="132.797"
         y="1023.0665">S. Goldstone</tspan></text>
    <text
       xml:space="preserve"
       style="font-size:12px;font-style:normal;font-variant:normal;font-weight:normal;font-stretch:normal;line-height:125%;letter-spacing:0px;word-spacing:0px;fill:#000000;fill-opacity:1;stroke:none;font-family:FreeSans;-inkscape-font-specification:FreeSans"
       x="211.60919"
       y="1023.0665"
       id="text61032"
       sodipodi:linespacing="125%"><tspan
         sodipodi:role="line"
         id="tspan61034"
         x="211.60919"
         y="1023.0665">C. Serrurier</tspan></text>
  </g>
</svg>
