<?xml version="1.0" encoding="UTF-8" standalone="no"?>
<!-- Created with Inkscape (http://www.inkscape.org/) -->
<svg
   xmlns:dc="http://purl.org/dc/elements/1.1/"
   xmlns:cc="http://web.resource.org/cc/"
   xmlns:rdf="http://www.w3.org/1999/02/22-rdf-syntax-ns#"
   xmlns:svg="http://www.w3.org/2000/svg"
   xmlns="http://www.w3.org/2000/svg"
   xmlns:sodipodi="http://sodipodi.sourceforge.net/DTD/sodipodi-0.dtd"
   xmlns:inkscape="http://www.inkscape.org/namespaces/inkscape"
   width="194.88188"
   height="77.952751"
   id="svg2"
   sodipodi:version="0.32"
   inkscape:version="0.45.1"
   sodipodi:docbase="/home/guillaume/article_kineto/illus"
   sodipodi:docname="markov.svg"
   version="1.0"
   inkscape:output_extension="org.inkscape.output.svg.inkscape"
   inkscape:export-filename="/home/guillaume/article_kineto/illus/markov.png"
   inkscape:export-xdpi="300.18503"
   inkscape:export-ydpi="300.18503">
  <sodipodi:namedview
     id="base"
     pagecolor="#ffffff"
     bordercolor="#666666"
     borderopacity="1.0"
     inkscape:pageopacity="0.0"
     inkscape:pageshadow="2"
     inkscape:zoom="1.979899"
     inkscape:cx="168.34555"
     inkscape:cy="69.519009"
     inkscape:document-units="px"
     inkscape:current-layer="g2484"
     width="5.5cm"
     height="2.2cm"
     units="cm"
     inkscape:window-width="1049"
     inkscape:window-height="627"
     inkscape:window-x="0"
     inkscape:window-y="199" />
  <defs
     id="defs4">
    <marker
       inkscape:stockid="Arrow1Mend"
       orient="auto"
       refY="0"
       refX="0"
       id="Arrow1Mend"
       style="overflow:visible">
      <path
         id="path3523"
         d="M 0,0 L 5,-5 L -12.5,0 L 5,5 L 0,0 z "
         style="fill-rule:evenodd;stroke:#000000;stroke-width:1pt;marker-start:none"
         transform="matrix(-0.4,0,0,-0.4,-4,0)" />
    </marker>
    <marker
       refY="0"
       id="Arrow2Mend"
       refX="0"
       style="overflow:visible"
       orient="auto"
       inkscape:stockid="Arrow2Mend">
      <path
         d="M 8.7185878,4.0337352 L -2.2072895,0.016013256 L 8.7185884,-4.0017078 C 6.97309,-1.6296469 6.9831476,1.6157441 8.7185878,4.0337352 z "
         style="font-size:12px;fill-rule:evenodd;stroke-width:0.625;stroke-linejoin:round"
         transform="scale(-0.6,-0.6)"
         id="path3216" />
    </marker>
  </defs>
  <metadata
     id="metadata7">
    <rdf:RDF>
      <cc:Work
         rdf:about="">
        <dc:format>image/svg+xml</dc:format>
        <dc:type
           rdf:resource="http://purl.org/dc/dcmitype/StillImage" />
      </cc:Work>
    </rdf:RDF>
  </metadata>
  <g
     inkscape:label="Calque 1"
     id="layer1"
     inkscape:groupmode="layer"
     transform="translate(-38.422132,-0.9421735)">
    <g
       id="g2245"
       transform="translate(-8.5050763,0.9898475)">
      <g
         transform="translate(59.642857,1.4285714)"
         id="g3168">
        <path
           sodipodi:type="arc"
           sodipodi:cx="47.857143"
           style="fill:none;stroke:#c20000;stroke-width:1;stroke-miterlimit:4;stroke-dasharray:none;stroke-opacity:1"
           sodipodi:open="true"
           transform="matrix(1.3541548,0,0,1.3541548,-20.698548,-23.143856)"
           sodipodi:start="1.2918376"
           sodipodi:end="7.5749021"
           d="M 50.315668,52.935155 A 8.9285717,8.8392859 0 1 1 50.316705,52.934861"
           sodipodi:cy="44.437572"
           sodipodi:rx="8.9285717"
           id="path3136"
           sodipodi:ry="8.8392859" />
        <path
           sodipodi:type="arc"
           sodipodi:cx="47.857143"
           style="fill:none;stroke:#c20000;stroke-width:1;stroke-miterlimit:4;stroke-dasharray:none;stroke-opacity:1"
           sodipodi:open="true"
           transform="matrix(1.3541548,0,0,1.3541548,20.664266,-22.418419)"
           sodipodi:start="1.2918376"
           sodipodi:end="7.5749021"
           d="M 50.315668,52.935155 A 8.9285717,8.8392859 0 1 1 50.316705,52.934861"
           sodipodi:cy="44.437572"
           sodipodi:rx="8.9285717"
           id="path3138"
           sodipodi:ry="8.8392859" />
        <path
           sodipodi:type="arc"
           sodipodi:cx="47.857143"
           style="fill:none;stroke:#c20000;stroke-width:1;stroke-miterlimit:4;stroke-dasharray:none;stroke-opacity:1"
           sodipodi:open="true"
           transform="matrix(1.3541548,0,0,1.3541548,62.027079,-21.934792)"
           sodipodi:start="1.2918376"
           sodipodi:end="7.5749021"
           d="M 50.315668,52.935155 A 8.9285717,8.8392859 0 1 1 50.316705,52.934861"
           sodipodi:cy="44.437572"
           sodipodi:rx="8.9285717"
           id="path3140"
           sodipodi:ry="8.8392859" />
        <path
           sodipodi:type="arc"
           sodipodi:cx="47.857143"
           style="fill:none;stroke:#c20000;stroke-width:1;stroke-miterlimit:4;stroke-dasharray:none;stroke-opacity:1"
           sodipodi:open="true"
           transform="matrix(1.3541548,0,0,1.3541548,103.38987,-22.418419)"
           sodipodi:start="1.2918376"
           sodipodi:end="7.5749021"
           d="M 50.315668,52.935155 A 8.9285717,8.8392859 0 1 1 50.316705,52.934861"
           sodipodi:cy="44.437572"
           sodipodi:rx="8.9285717"
           id="path3142"
           sodipodi:ry="8.8392859" />
        <text
           xml:space="preserve"
           style="font-size:12px;font-style:normal;font-weight:normal;fill:#000000;fill-opacity:1;stroke:none;stroke-width:1px;stroke-linecap:butt;stroke-linejoin:miter;stroke-opacity:1;font-family:Bitstream Vera Sans"
           id="text3144"
           y="41.405521"
           x="40.184586"><tspan
             sodipodi:role="line"
             id="tspan3146"
             y="41.405521"
             x="40.184586">1</tspan></text>
        <text
           xml:space="preserve"
           style="font-size:12px;font-style:normal;font-weight:normal;fill:#000000;fill-opacity:1;stroke:none;stroke-width:1px;stroke-linecap:butt;stroke-linejoin:miter;stroke-opacity:1;font-family:Bitstream Vera Sans"
           id="text3148"
           y="42.210056"
           x="81.814003"><tspan
             sodipodi:role="line"
             id="tspan3150"
             y="42.210056"
             x="81.814003">2</tspan></text>
        <text
           xml:space="preserve"
           style="font-size:12px;font-style:normal;font-weight:normal;fill:#000000;fill-opacity:1;stroke:none;stroke-width:1px;stroke-linecap:butt;stroke-linejoin:miter;stroke-opacity:1;font-family:Bitstream Vera Sans"
           id="text3152"
           y="42.608723"
           x="123.03912"><tspan
             sodipodi:role="line"
             id="tspan3154"
             y="42.608723"
             x="123.03912">3</tspan></text>
        <text
           xml:space="preserve"
           style="font-size:12px;font-style:normal;font-weight:normal;fill:#000000;fill-opacity:1;stroke:none;stroke-width:1px;stroke-linecap:butt;stroke-linejoin:miter;stroke-opacity:1;font-family:Bitstream Vera Sans"
           id="text3156"
           y="42.130955"
           x="164.42242"><tspan
             sodipodi:role="line"
             id="tspan3158"
             y="42.130955"
             x="164.42242">4</tspan></text>
      </g>
      <path
         style="fill:none;fill-rule:evenodd;stroke:#000000;stroke-width:1px;stroke-linecap:butt;stroke-linejoin:miter;marker-end:url(#Arrow2Mend);stroke-opacity:1"
         d="M 103.21429,24.43757 C 109.98192,13.170009 133.5822,21.993935 142.85714,25.151856"
         sodipodi:nodetypes="cc"
         id="path3184" />
      <path
         style="fill:none;fill-rule:evenodd;stroke:#000000;stroke-width:1px;stroke-linecap:butt;stroke-linejoin:miter;marker-end:url(#Arrow2Mend);stroke-opacity:1"
         d="M 146.32866,24.437569 C 153.0963,13.170008 176.69658,21.993934 185.97153,25.151855"
         sodipodi:nodetypes="cc"
         id="path3384" />
      <path
         style="fill:none;fill-rule:evenodd;stroke:#000000;stroke-width:1px;stroke-linecap:butt;stroke-linejoin:miter;marker-end:url(#Arrow2Mend);stroke-opacity:1"
         d="M 189.44304,24.437569 C 196.21067,13.170009 219.81095,21.993934 229.0859,25.151855"
         sodipodi:nodetypes="cc"
         id="path3386" />
      <path
         style="fill:none;fill-rule:evenodd;stroke:#000000;stroke-width:1px;stroke-linecap:butt;stroke-linejoin:miter;marker-end:url(#Arrow2Mend);stroke-opacity:1"
         d="M 230.45087,53.486458 C 223.68324,64.754019 200.08296,55.930093 190.80801,52.772172"
         sodipodi:nodetypes="cc"
         id="path3388" />
      <path
         style="fill:none;fill-rule:evenodd;stroke:#000000;stroke-width:1px;stroke-linecap:butt;stroke-linejoin:miter;marker-end:url(#Arrow2Mend);stroke-opacity:1"
         d="M 187.33649,53.486459 C 180.56887,64.75402 156.96858,55.930094 147.69363,52.772173"
         sodipodi:nodetypes="cc"
         id="path3390" />
      <path
         style="fill:none;fill-rule:evenodd;stroke:#000000;stroke-width:1px;stroke-linecap:butt;stroke-linejoin:miter;marker-end:url(#Arrow2Mend);stroke-opacity:1"
         d="M 144.22212,53.486459 C 137.45449,64.754019 113.85421,55.930094 104.57926,52.772173"
         sodipodi:nodetypes="cc"
         id="path3392" />
    </g>
    <g
       id="g2413"
       transform="matrix(3.2266257,0,0,3.2266257,-295.9168,-527.6358)">
      <g
         stroke-miterlimit="10.433"
         font-style="normal"
         style="font-style:normal;font-variant:normal;font-weight:normal;font-stretch:normal;letter-spacing:normal;word-spacing:normal;text-anchor:start;fill:none;fill-opacity:1;stroke:#000000;stroke-linecap:butt;stroke-linejoin:miter;stroke-miterlimit:10.43299961;stroke-dasharray:none;stroke-dashoffset:0;stroke-opacity:1"
         font-variant="normal"
         letter-spacing="normal"
         transform="matrix(0.1012373,0,0,-0.1012373,-17.716535,212.59843)"
         word-spacing="normal"
         font-weight="normal"
         fill-rule="even-odd"
         id="content"
         xml:space="preserve"
         font-stretch="normal"
         font-size-adjust="none"><path
           style="fill:#000000;stroke-width:0"
           id="path2416"
           d="M 1247.1,376.19 L 1247.2,376.35 L 1247.2,376.51 L 1247.2,376.66 L 1247.3,376.8 L 1247.3,376.94 L 1247.4,377.06 L 1247.4,377.19 L 1247.5,377.3 L 1247.5,377.41 L 1247.6,377.51 L 1247.6,377.61 L 1247.7,377.7 L 1247.8,377.78 L 1247.8,377.86 L 1247.9,377.94 L 1248,378 L 1248.1,378.07 L 1248.3,378.12 L 1248.4,378.18 L 1248.5,378.23 L 1248.7,378.27 L 1248.8,378.29 L 1248.9,378.31 L 1248.9,378.32 L 1249,378.34 L 1249.1,378.36 L 1249.2,378.37 L 1249.3,378.38 L 1249.4,378.4 L 1249.6,378.41 L 1249.7,378.42 L 1249.8,378.43 L 1249.9,378.44 L 1250,378.45 L 1250.2,378.45 L 1250.3,378.46 L 1250.5,378.46 L 1250.6,378.47 L 1250.8,378.47 L 1250.9,378.47 L 1251.1,378.48 L 1251.2,378.48 L 1251.4,378.48 C 1252.6,378.48 1253,378.48 1253,379.47 C 1253,380.02 1252.5,380.02 1251.7,380.02 L 1245.1,380.02 C 1243.8,380.02 1243.7,380.02 1243.1,379.07 L 1225,350.68 L 1221.1,378.88 C 1220.9,380.02 1220.8,380.02 1219.5,380.02 L 1212.7,380.02 C 1211.8,380.02 1211.2,380.02 1211.2,379.07 C 1211.2,378.48 1211.7,378.48 1212.7,378.48 C 1213.3,378.48 1214.2,378.43 1214.8,378.38 C 1215.6,378.28 1215.9,378.13 1215.9,377.58 C 1215.9,377.38 1215.8,377.23 1215.7,376.64 L 1209.4,351.28 C 1208.9,349.29 1208,347.7 1204,347.54 C 1203.7,347.54 1203.1,347.5 1203.1,346.6 C 1203.1,346.15 1203.4,346 1203.8,346 C 1205.4,346 1207.1,346.15 1208.8,346.15 C 1210.5,346.15 1212.3,346 1213.9,346 C 1214.2,346 1214.8,346 1214.8,347 C 1214.8,347.54 1214.2,347.54 1213.9,347.54 C 1211.1,347.59 1210.5,348.59 1210.5,349.73 C 1210.5,350.09 1210.6,350.33 1210.7,350.88 L 1217.5,378.03 L 1217.5,378.03 L 1221.8,347.14 C 1221.9,346.55 1222,346 1222.6,346 C 1223.1,346 1223.4,346.55 1223.7,346.9 L 1243.8,378.43 L 1243.8,378.43 L 1236.7,349.89 C 1236.2,347.94 1236.1,347.54 1232.2,347.54 C 1231.3,347.54 1230.8,347.54 1230.8,346.6 C 1230.8,346 1231.4,346 1231.5,346 C 1232.9,346 1236.3,346.15 1237.7,346.15 C 1239.8,346.15 1241.9,346 1243.9,346 C 1244.2,346 1244.9,346 1244.9,347 C 1244.9,347.54 1244.4,347.54 1243.5,347.54 C 1241.7,347.54 1240.2,347.54 1240.2,348.44 C 1240.2,348.64 1240.2,348.74 1240.5,349.64 L 1247.1,376.19 z " /><path
           style="fill:#000000;stroke-width:0"
           id="path2418"
           d="M 1265.9,390.15 L 1265.9,390.16 L 1265.9,390.16 L 1265.9,390.16 L 1265.9,390.17 L 1265.9,390.18 L 1265.9,390.18 L 1265.9,390.19 L 1265.9,390.19 L 1265.9,390.21 L 1265.9,390.23 L 1265.9,390.25 L 1265.9,390.26 L 1266,390.28 L 1266,390.31 L 1266,390.33 L 1266,390.35 L 1266,390.37 L 1266,390.4 L 1266,390.44 L 1266,390.47 L 1266,390.49 L 1266,390.52 L 1266,390.54 L 1266,390.56 L 1266,390.58 L 1266,390.6 L 1266,390.62 L 1266,390.64 L 1266,390.65 L 1266,390.66 L 1266,390.67 L 1266,390.67 L 1266,390.68 L 1266,390.69 L 1266,390.69 L 1266,390.7 L 1266,390.7 L 1266,390.7 L 1266,390.71 L 1266,390.71 L 1266.1,390.71 C 1266.1,390.89 1265.9,391.2 1265.5,391.2 C 1264.8,391.2 1261.9,390.92 1261,390.85 C 1260.8,390.82 1260.3,390.78 1260.3,390.05 C 1260.3,389.56 1260.8,389.56 1261.2,389.56 C 1262.8,389.56 1262.8,389.32 1262.8,389.04 C 1262.8,388.79 1262.8,388.58 1262.7,388.27 L 1257.8,368.54 C 1257.6,367.91 1257.6,367.84 1257.6,367.77 C 1257.6,367.24 1258,366.65 1258.8,366.65 C 1259.7,366.65 1260.2,367.35 1260.4,368.12 C 1260.5,368.25 1262,374.39 1262.1,374.88 C 1264.6,374.64 1266.6,373.84 1266.6,372.02 C 1266.6,371.85 1266.6,371.67 1266.5,371.32 C 1266.4,370.8 1266.4,370.62 1266.4,370.24 C 1266.4,367.77 1268.4,366.65 1270.1,366.65 C 1273.4,366.65 1274.5,371.95 1274.5,371.98 C 1274.5,372.44 1274,372.44 1273.9,372.44 C 1273.4,372.44 1273.4,372.27 1273.2,371.6 C 1272.8,370.1 1271.9,367.63 1270.2,367.63 C 1269.2,367.63 1268.9,368.5 1268.9,369.44 C 1268.9,370.04 1268.9,370.1 1269.2,371.01 C 1269.2,371.11 1269.3,371.71 1269.3,372.09 C 1269.3,375.2 1265.2,375.68 1263.7,375.79 C 1264.7,376.41 1266,377.57 1266.6,378.09 C 1268.4,379.76 1270.1,381.4 1272.1,381.4 C 1272.5,381.4 1272.9,381.3 1273.2,380.95 C 1271.7,380.7 1271.4,379.52 1271.4,379 C 1271.4,378.23 1272,377.7 1272.8,377.7 C 1273.7,377.7 1274.8,378.47 1274.8,379.94 C 1274.8,381.09 1273.9,382.38 1272.1,382.38 C 1270.1,382.38 1268.3,380.95 1266.5,379.31 C 1265,377.91 1263.9,376.83 1262.5,376.24 L 1265.9,390.15 z " /><path
           style="fill:#000000;stroke-width:0"
           id="path2420"
           d="M 1253.2,336.2 L 1253.2,336.15 L 1253.2,336.11 L 1253.2,336.06 L 1253.2,336.01 L 1253.2,335.96 L 1253.2,335.9 L 1253.2,335.85 L 1253.1,335.8 L 1253.1,335.68 L 1253.1,335.57 L 1253.1,335.46 L 1253,335.35 L 1253,335.3 L 1253,335.24 L 1253,335.19 L 1253,335.14 L 1253,335.1 L 1253,335.05 L 1253,335.01 L 1252.9,334.97 L 1252.9,334.93 L 1252.9,334.9 L 1252.9,334.87 L 1252.9,334.84 L 1252.9,334.81 L 1252.9,334.79 L 1252.9,334.79 L 1252.9,334.78 L 1252.9,334.77 L 1252.9,334.77 C 1252.9,334 1253.5,333.65 1254.1,333.65 C 1254.7,333.65 1255.3,334.11 1255.4,334.42 C 1255.6,334.73 1255.9,335.85 1256.1,336.58 C 1256.2,337.24 1256.6,338.85 1256.8,339.72 C 1257.1,340.48 1257.3,341.25 1257.4,342.05 C 1257.8,343.48 1257.9,343.76 1258.9,345.19 C 1259.9,346.59 1261.5,348.4 1264.1,348.4 C 1266.2,348.4 1266.2,346.62 1266.2,345.96 C 1266.2,343.87 1264.7,340 1264.1,338.53 C 1263.8,337.56 1263.6,337.24 1263.6,336.65 C 1263.6,334.8 1265.1,333.65 1266.9,333.65 C 1270.4,333.65 1271.9,338.46 1271.9,338.98 C 1271.9,339.44 1271.5,339.44 1271.4,339.44 C 1270.9,339.44 1270.9,339.23 1270.7,338.85 C 1269.9,336.06 1268.4,334.63 1267,334.63 C 1266.3,334.63 1266.2,335.12 1266.2,335.85 C 1266.2,336.65 1266.3,337.1 1267,338.67 C 1267.4,339.75 1268.8,343.45 1268.8,345.4 C 1268.8,348.79 1266.1,349.38 1264.3,349.38 C 1261.4,349.38 1259.4,347.6 1258.4,346.2 C 1258.1,348.61 1256.1,349.38 1254.7,349.38 C 1253.2,349.38 1252.3,348.3 1251.9,347.5 C 1251.1,346.2 1250.6,344.21 1250.6,344.04 C 1250.6,343.59 1251.1,343.59 1251.2,343.59 C 1251.7,343.59 1251.8,343.7 1252,344.64 C 1252.5,346.69 1253.2,348.4 1254.5,348.4 C 1255.4,348.4 1255.7,347.63 1255.7,346.69 C 1255.7,346.03 1255.4,344.74 1255.1,343.8 C 1254.9,342.86 1254.5,341.43 1254.4,340.66 L 1253.2,336.2 z " /></g>    </g>
    <g
       id="g2484"
       transform="matrix(6.8949456,0,0,6.8949456,-600.96617,-1026.4645)">
      <g
         font-style="normal"
         font-weight="normal"
         id="g2486"
         font-variant="normal"
         font-stretch="normal"
         stroke-miterlimit="10.433"
         word-spacing="normal"
         transform="matrix(0.1012373,0,0,-0.1012373,-17.49972,213.32213)"
         xml:space="preserve"
         font-size-adjust="none"
         fill-rule="even-odd"
         letter-spacing="normal"
         style="font-style:normal;font-variant:normal;font-weight:normal;font-stretch:normal;letter-spacing:normal;word-spacing:normal;text-anchor:start;fill:none;fill-opacity:1;stroke:#000000;stroke-linecap:butt;stroke-linejoin:miter;stroke-miterlimit:10.43299961;stroke-dasharray:none;stroke-dashoffset:0;stroke-opacity:1"><g
           id="g2536"
           transform="matrix(0.463479,0,0,0.463479,637.55875,451.99451)"><path
             style="fill:#000000;stroke-width:0"
             d="M 1195.1,361.74 L 1195.3,363.04 L 1198.7,376.59 C 1199.1,378.33 1199.2,378.48 1201.4,378.48 L 1206.2,378.48 C 1210.3,378.48 1212.9,377.13 1212.9,373.7 C 1212.9,371.75 1211.9,367.47 1210,365.68 C 1207.5,363.43 1204.5,363.04 1202.3,363.04 L 1195.3,363.04 L 1195.1,361.74 L 1203.6,361.74 C 1210.6,361.74 1217.6,366.92 1217.6,372.5 C 1217.6,376.34 1214.3,380.02 1207.8,380.02 L 1191.6,380.02 C 1190.7,380.02 1190.1,380.02 1190.1,379.07 C 1190.1,378.48 1190.6,378.48 1191.6,378.48 C 1192.2,378.48 1193.1,378.43 1193.7,378.38 C 1194.5,378.28 1194.8,378.13 1194.8,377.58 C 1194.8,377.38 1194.8,377.23 1194.6,376.64 L 1187.9,349.89 C 1187.4,347.94 1187.3,347.54 1183.4,347.54 C 1182.5,347.54 1182,347.54 1182,346.6 C 1182,346 1182.6,346 1182.7,346 C 1184.1,346 1187.7,346.15 1189.1,346.15 C 1190.1,346.15 1191.2,346.1 1192.2,346.1 C 1193.3,346.1 1194.4,346 1195.5,346 C 1195.8,346 1196.5,346 1196.5,347 C 1196.5,347.54 1196,347.54 1195.1,347.54 C 1193.2,347.54 1191.9,347.54 1191.9,348.44 C 1191.9,348.74 1192,348.99 1192,349.29 L 1195.1,361.74 z "
             id="path2488" /><path
             style="fill:#000000;stroke-width:0"
             d="M 1226.7,352.32 L 1226.6,352.43 L 1226.6,352.53 L 1226.5,352.64 L 1226.4,352.74 L 1226.3,352.84 L 1226.3,352.94 L 1226.2,353.03 L 1226.1,353.13 L 1226,353.22 L 1225.9,353.31 L 1225.8,353.39 L 1225.7,353.48 L 1225.6,353.56 L 1225.5,353.63 L 1225.4,353.71 L 1225.3,353.78 L 1225.2,353.85 L 1225,353.91 L 1224.9,353.97 L 1224.8,354.03 L 1224.7,354.08 L 1224.6,354.13 L 1224.4,354.18 L 1224.3,354.22 L 1224.2,354.26 L 1224,354.29 L 1223.9,354.31 L 1223.7,354.34 L 1223.6,354.36 L 1223.4,354.37 L 1223.3,354.38 L 1223.1,354.38 L 1223.1,353.4 C 1225.6,353.4 1226.2,350.75 1226.2,350.37 C 1226.2,350.23 1226.2,349.98 1226.1,349.88 L 1224.5,343.36 C 1224.2,342.38 1223.5,341.68 1222.7,341.02 C 1222.4,340.74 1221,339.63 1219.5,339.63 C 1218.2,339.63 1216.9,340.54 1216.9,343.01 C 1216.9,344.86 1218,348.7 1218.8,350.09 C 1220.4,352.88 1222.2,353.4 1223.1,353.4 L 1223.1,354.38 C 1218.7,354.38 1214.1,349.46 1214.1,344.44 C 1214.1,341.06 1216.4,338.65 1219.4,338.65 C 1221.3,338.65 1222.9,339.73 1224.3,341.09 C 1225,339 1227,338.65 1227.9,338.65 C 1229.2,338.65 1230.1,339.42 1230.7,340.5 C 1231.5,341.86 1231.9,343.85 1231.9,343.98 C 1231.9,344.44 1231.5,344.44 1231.3,344.44 C 1230.9,344.44 1230.8,344.3 1230.6,343.36 C 1230.2,341.68 1229.5,339.63 1228,339.63 C 1227.1,339.63 1226.9,340.39 1226.9,341.34 C 1226.9,341.93 1227.2,343.18 1227.4,344.09 C 1227.7,345.03 1228,346.46 1228.2,347.23 C 1228.5,348.52 1228.6,348.73 1228.9,349.88 C 1229.1,350.79 1229.5,352.43 1229.5,352.6 C 1229.5,353.37 1228.9,353.71 1228.3,353.71 C 1227.7,353.71 1226.9,353.3 1226.7,352.32 z "
             id="path2490" /></g><g
           id="g2532"
           transform="matrix(0.4656208,0,0,0.4656208,606.59321,369.93593)"><path
             style="fill:#000000;stroke-width:0"
             d="M 1260.1,361.74 L 1260.3,363.04 L 1263.7,376.59 C 1264.1,378.33 1264.2,378.48 1266.4,378.48 L 1271.2,378.48 C 1275.3,378.48 1277.9,377.13 1277.9,373.7 C 1277.9,371.75 1276.9,367.47 1275,365.68 C 1272.5,363.43 1269.5,363.04 1267.3,363.04 L 1260.3,363.04 L 1260.1,361.74 L 1268.6,361.74 C 1275.6,361.74 1282.6,366.92 1282.6,372.5 C 1282.6,376.34 1279.3,380.02 1272.8,380.02 L 1256.6,380.02 C 1255.7,380.02 1255.1,380.02 1255.1,379.07 C 1255.1,378.48 1255.6,378.48 1256.6,378.48 C 1257.2,378.48 1258.1,378.43 1258.7,378.38 C 1259.5,378.28 1259.8,378.13 1259.8,377.58 C 1259.8,377.38 1259.8,377.23 1259.6,376.64 L 1252.9,349.89 C 1252.4,347.94 1252.3,347.54 1248.4,347.54 C 1247.5,347.54 1247,347.54 1247,346.6 C 1247,346 1247.6,346 1247.7,346 C 1249.1,346 1252.7,346.15 1254.1,346.15 C 1255.1,346.15 1256.2,346.1 1257.2,346.1 C 1258.3,346.1 1259.4,346 1260.5,346 C 1260.8,346 1261.5,346 1261.5,347 C 1261.5,347.54 1261,347.54 1260.1,347.54 C 1258.2,347.54 1256.9,347.54 1256.9,348.44 C 1256.9,348.74 1257,348.99 1257,349.29 L 1260.1,361.74 z "
             id="path2492" /><path
             style="fill:#000000;stroke-width:0"
             d="M 1296.9,362.15 L 1296.9,362.16 L 1296.9,362.16 L 1296.9,362.16 L 1296.9,362.17 L 1296.9,362.18 L 1296.9,362.18 L 1296.9,362.19 L 1296.9,362.19 L 1296.9,362.21 L 1296.9,362.23 L 1296.9,362.25 L 1296.9,362.26 L 1297,362.28 L 1297,362.31 L 1297,362.33 L 1297,362.35 L 1297,362.37 L 1297,362.4 L 1297,362.44 L 1297,362.47 L 1297,362.49 L 1297,362.52 L 1297,362.54 L 1297,362.56 L 1297,362.58 L 1297,362.6 L 1297,362.62 L 1297,362.64 L 1297,362.65 L 1297,362.66 L 1297,362.67 L 1297,362.67 L 1297,362.68 L 1297,362.69 L 1297,362.69 L 1297,362.7 L 1297,362.7 L 1297,362.7 L 1297,362.71 L 1297,362.71 L 1297.1,362.71 C 1297.1,362.89 1296.9,363.2 1296.5,363.2 C 1295.8,363.2 1292.9,362.92 1292,362.85 C 1291.8,362.82 1291.3,362.78 1291.3,362.05 C 1291.3,361.56 1291.8,361.56 1292.2,361.56 C 1293.8,361.56 1293.8,361.32 1293.8,361.04 C 1293.8,360.79 1293.8,360.58 1293.7,360.27 L 1291.7,352.32 C 1291,353.47 1289.8,354.38 1288.1,354.38 L 1288.1,353.4 C 1290.6,353.4 1291.2,350.75 1291.2,350.37 C 1291.2,350.23 1291.2,349.98 1291.1,349.88 L 1289.5,343.36 C 1289.2,342.38 1288.5,341.68 1287.7,341.02 C 1287.4,340.74 1286,339.63 1284.5,339.63 C 1283.2,339.63 1281.9,340.54 1281.9,343.01 C 1281.9,344.86 1283,348.7 1283.8,350.09 C 1285.4,352.88 1287.2,353.4 1288.1,353.4 L 1288.1,354.38 C 1283.7,354.38 1279.1,349.46 1279.1,344.44 C 1279.1,341.06 1281.4,338.65 1284.4,338.65 C 1286.3,338.65 1287.9,339.73 1289.3,341.09 C 1290,339 1292,338.65 1292.9,338.65 C 1294.2,338.65 1295.1,339.42 1295.7,340.5 C 1296.5,341.86 1296.9,343.85 1296.9,343.98 C 1296.9,344.44 1296.5,344.44 1296.3,344.44 C 1295.9,344.44 1295.8,344.3 1295.6,343.36 C 1295.2,341.68 1294.5,339.63 1293,339.63 C 1292.1,339.63 1291.9,340.39 1291.9,341.34 C 1291.9,342 1292,342.31 1292.1,342.77 L 1296.9,362.15 z "
             id="path2494" /></g></g>      <path
         style="fill:none;fill-rule:evenodd;stroke:#000000;stroke-width:0.14503381px;stroke-linecap:butt;stroke-linejoin:miter;marker-end:url(#Arrow1Mend);stroke-opacity:1"
         d="M 96.465865,154.63324 L 98.663459,154.63324"
         id="path2540" />
    </g>
  </g>
</svg>
