<?xml version="1.0" encoding="UTF-8" standalone="no"?>
<!-- Created with Inkscape (http://www.inkscape.org/) -->

<svg
   xmlns:dc="http://purl.org/dc/elements/1.1/"
   xmlns:cc="http://creativecommons.org/ns#"
   xmlns:rdf="http://www.w3.org/1999/02/22-rdf-syntax-ns#"
   xmlns:svg="http://www.w3.org/2000/svg"
   xmlns="http://www.w3.org/2000/svg"
   xmlns:sodipodi="http://sodipodi.sourceforge.net/DTD/sodipodi-0.dtd"
   xmlns:inkscape="http://www.inkscape.org/namespaces/inkscape"
   width="159.44882"
   height="141.73228"
   id="svg7097"
   version="1.1"
   inkscape:version="0.47 r22583"
   sodipodi:docname="ablation_graph.svg">
  <defs
     id="defs7099">
    <inkscape:perspective
       sodipodi:type="inkscape:persp3d"
       inkscape:vp_x="0 : 526.18109 : 1"
       inkscape:vp_y="0 : 1000 : 0"
       inkscape:vp_z="744.09448 : 526.18109 : 1"
       inkscape:persp3d-origin="372.04724 : 350.78739 : 1"
       id="perspective7105" />
    <inkscape:perspective
       id="perspective7032"
       inkscape:persp3d-origin="0.5 : 0.33333333 : 1"
       inkscape:vp_z="1 : 0.5 : 1"
       inkscape:vp_y="0 : 1000 : 0"
       inkscape:vp_x="0 : 0.5 : 1"
       sodipodi:type="inkscape:persp3d" />
  </defs>
  <sodipodi:namedview
     id="base"
     pagecolor="#ffffff"
     bordercolor="#666666"
     borderopacity="1.0"
     inkscape:pageopacity="0.0"
     inkscape:pageshadow="2"
     inkscape:zoom="2.8"
     inkscape:cx="71.222492"
     inkscape:cy="68.990779"
     inkscape:document-units="px"
     inkscape:current-layer="layer1"
     showgrid="false"
     units="cm"
     inkscape:window-width="1345"
     inkscape:window-height="1073"
     inkscape:window-x="230"
     inkscape:window-y="101"
     inkscape:window-maximized="0" />
  <metadata
     id="metadata7102">
    <rdf:RDF>
      <cc:Work
         rdf:about="">
        <dc:format>image/svg+xml</dc:format>
        <dc:type
           rdf:resource="http://purl.org/dc/dcmitype/StillImage" />
        <dc:title></dc:title>
      </cc:Work>
    </rdf:RDF>
  </metadata>
  <g
     inkscape:label="Calque 1"
     inkscape:groupmode="layer"
     id="layer1"
     transform="translate(-171.88489,-510.59047)">
    <g
       id="g5109"
       transform="translate(-289.70099,190.06698)">
      <text
         xml:space="preserve"
         style="font-size:12px;font-style:normal;font-variant:normal;font-weight:normal;font-stretch:normal;text-align:start;line-height:124.00000095%;letter-spacing:0px;word-spacing:0px;writing-mode:lr-tb;text-anchor:start;fill:#000000;fill-opacity:1;stroke:none;font-family:Arial;-inkscape-font-specification:Arial"
         x="544.10358"
         y="456.65894"
         id="text27975"
         sodipodi:linespacing="124%"><tspan
           sodipodi:role="line"
           id="tspan27977"
           x="544.10358"
           y="456.65894"
           dy="0.71428573">Time (s)</tspan></text>
      <text
         xml:space="preserve"
         style="font-size:12px;font-style:normal;font-variant:normal;font-weight:normal;font-stretch:normal;text-align:start;line-height:124.00000095%;letter-spacing:0px;word-spacing:0px;writing-mode:lr-tb;text-anchor:start;fill:#000000;fill-opacity:1;stroke:none;font-family:Arial;-inkscape-font-specification:Arial"
         x="-429.92163"
         y="474.3222"
         id="text16661-4"
         sodipodi:linespacing="124%"
         transform="matrix(0,-1,1,0,0,0)"><tspan
           sodipodi:role="line"
           id="tspan16663-6"
           x="-429.92163"
           y="474.3222">Kt-kt distance (µm)</tspan></text>
      <path
         sodipodi:nodetypes="cc"
         id="path10189"
         d="M 618.56966,430.22991 507.7372,430.10826"
         style="font-size:12px;font-style:normal;font-variant:normal;font-weight:normal;font-stretch:normal;text-align:start;line-height:124.00000095%;writing-mode:lr-tb;text-anchor:start;fill:none;stroke:#000000;stroke-width:0.77858442;stroke-linecap:butt;stroke-linejoin:round;stroke-miterlimit:10;stroke-opacity:1;stroke-dasharray:none;font-family:Arial;-inkscape-font-specification:Arial" />
      <path
         id="path19372"
         d="m 507.64572,331.54089 -0.12166,98.96335"
         style="font-size:12px;font-style:normal;font-variant:normal;font-weight:normal;font-stretch:normal;text-align:start;line-height:124.00000095%;writing-mode:lr-tb;text-anchor:start;fill:none;stroke:#000000;stroke-width:0.77858442;stroke-linecap:butt;stroke-linejoin:round;stroke-miterlimit:10;stroke-opacity:1;stroke-dasharray:none;font-family:Arial;-inkscape-font-specification:Arial"
         sodipodi:nodetypes="cc" />
      <path
         d="m 505.57756,376.99712 0,0 c 0,-1.5231 1.23601,-2.75813 2.75814,-2.75813 1.52408,0 2.76008,1.23503 2.76008,2.75813 0,1.52408 -1.236,2.75911 -2.76008,2.75911 -1.52213,0 -2.75814,-1.23503 -2.75814,-2.75911"
         style="font-size:12px;font-style:normal;font-variant:normal;font-weight:normal;font-stretch:normal;text-align:start;line-height:124.00000095%;writing-mode:lr-tb;text-anchor:start;fill:#000000;fill-opacity:1;fill-rule:evenodd;stroke:none;font-family:Arial;-inkscape-font-specification:Arial"
         id="path19380" />
      <path
         style="font-size:12px;font-style:normal;font-variant:normal;font-weight:normal;font-stretch:normal;text-align:start;line-height:124.00000095%;writing-mode:lr-tb;text-anchor:start;fill:none;stroke:#000000;stroke-width:0.77858442;stroke-linecap:butt;stroke-linejoin:round;stroke-miterlimit:10;stroke-opacity:1;stroke-dasharray:none;font-family:Arial;-inkscape-font-specification:Arial"
         d="m 503.08368,350.21333 4.13818,-0.12166"
         id="path4934" />
      <path
         style="font-size:12px;font-style:normal;font-variant:normal;font-weight:normal;font-stretch:normal;text-align:start;line-height:124.00000095%;writing-mode:lr-tb;text-anchor:start;fill:none;stroke:#000000;stroke-width:0.77858442;stroke-linecap:butt;stroke-linejoin:round;stroke-miterlimit:10;stroke-opacity:1;stroke-dasharray:none;font-family:Arial;-inkscape-font-specification:Arial"
         d="m 503.08368,373.08425 4.13818,-0.12166"
         id="path4932" />
      <path
         style="font-size:12px;font-style:normal;font-variant:normal;font-weight:normal;font-stretch:normal;text-align:start;line-height:124.00000095%;writing-mode:lr-tb;text-anchor:start;fill:none;stroke:#000000;stroke-width:0.77858442;stroke-linecap:butt;stroke-linejoin:round;stroke-miterlimit:10;stroke-opacity:1;stroke-dasharray:none;font-family:Arial;-inkscape-font-specification:Arial"
         d="m 503.08368,418.82705 4.13818,-0.12165"
         id="path19384" />
      <path
         d="m 507.84714,362.47993 0,0 c 0,-1.52311 1.236,-2.75814 2.76008,-2.75814 1.52213,0 2.75813,1.23503 2.75813,2.75814 0,1.5231 -1.236,2.75813 -2.75813,2.75813 -1.52408,0 -2.76008,-1.23503 -2.76008,-2.75813"
         style="font-size:12px;font-style:normal;font-variant:normal;font-weight:normal;font-stretch:normal;text-align:start;line-height:124.00000095%;writing-mode:lr-tb;text-anchor:start;fill:#000000;fill-opacity:1;fill-rule:evenodd;stroke:none;font-family:Arial;-inkscape-font-specification:Arial"
         id="path19388" />
      <path
         d="m 511.74006,362.23662 0,0 c 0,-1.52311 1.236,-2.75814 2.76008,-2.75814 1.52213,0 2.75814,1.23503 2.75814,2.75814 0,1.5231 -1.23601,2.75813 -2.75814,2.75813 -1.52408,0 -2.76008,-1.23503 -2.76008,-2.75813"
         style="font-size:12px;font-style:normal;font-variant:normal;font-weight:normal;font-stretch:normal;text-align:start;line-height:124.00000095%;writing-mode:lr-tb;text-anchor:start;fill:#000000;fill-opacity:1;fill-rule:evenodd;stroke:none;font-family:Arial;-inkscape-font-specification:Arial"
         id="path19392" />
      <path
         d="m 515.63298,361.99331 0,0 c 0,-1.5231 1.236,-2.75813 2.76008,-2.75813 1.52213,0 2.75814,1.23503 2.75814,2.75813 0,1.52311 -1.23601,2.75814 -2.75814,2.75814 -1.52408,0 -2.76008,-1.23503 -2.76008,-2.75814"
         style="font-size:12px;font-style:normal;font-variant:normal;font-weight:normal;font-stretch:normal;text-align:start;line-height:124.00000095%;writing-mode:lr-tb;text-anchor:start;fill:#000000;fill-opacity:1;fill-rule:evenodd;stroke:none;font-family:Arial;-inkscape-font-specification:Arial"
         id="path19396" />
      <path
         d="m 519.5259,361.75 0,0 c 0,-1.5231 1.23601,-2.75813 2.76008,-2.75813 1.52214,0 2.75814,1.23503 2.75814,2.75813 0,1.52311 -1.236,2.75814 -2.75814,2.75814 -1.52407,0 -2.76008,-1.23503 -2.76008,-2.75814"
         style="font-size:12px;font-style:normal;font-variant:normal;font-weight:normal;font-stretch:normal;text-align:start;line-height:124.00000095%;writing-mode:lr-tb;text-anchor:start;fill:#000000;fill-opacity:1;fill-rule:evenodd;stroke:none;font-family:Arial;-inkscape-font-specification:Arial"
         id="path19400" />
      <path
         d="m 523.41882,361.5067 0,0 c 0,-1.52311 1.23601,-2.75814 2.76009,-2.75814 1.52213,0 2.75813,1.23503 2.75813,2.75814 0,1.5231 -1.236,2.75813 -2.75813,2.75813 -1.52408,0 -2.76009,-1.23503 -2.76009,-2.75813"
         style="font-size:12px;font-style:normal;font-variant:normal;font-weight:normal;font-stretch:normal;text-align:start;line-height:124.00000095%;writing-mode:lr-tb;text-anchor:start;fill:#000000;fill-opacity:1;fill-rule:evenodd;stroke:none;font-family:Arial;-inkscape-font-specification:Arial"
         id="path19404" />
      <path
         d="m 527.31175,371.239 0,0 c 0,-1.5231 1.236,-2.75813 2.76008,-2.75813 1.52213,0 2.75813,1.23503 2.75813,2.75813 0,1.52311 -1.236,2.75814 -2.75813,2.75814 -1.52408,0 -2.76008,-1.23503 -2.76008,-2.75814"
         style="font-size:12px;font-style:normal;font-variant:normal;font-weight:normal;font-stretch:normal;text-align:start;line-height:124.00000095%;writing-mode:lr-tb;text-anchor:start;fill:#000000;fill-opacity:1;fill-rule:evenodd;stroke:none;font-family:Arial;-inkscape-font-specification:Arial"
         id="path19408" />
      <path
         d="m 532.1779,377.32169 0,0 c 0,-1.5231 1.236,-2.75813 2.76008,-2.75813 1.52213,0 2.75814,1.23503 2.75814,2.75813 0,1.52311 -1.23601,2.75814 -2.75814,2.75814 -1.52408,0 -2.76008,-1.23503 -2.76008,-2.75814"
         style="font-size:12px;font-style:normal;font-variant:normal;font-weight:normal;font-stretch:normal;text-align:start;line-height:124.00000095%;writing-mode:lr-tb;text-anchor:start;fill:#000000;fill-opacity:1;fill-rule:evenodd;stroke:none;font-family:Arial;-inkscape-font-specification:Arial"
         id="path19412" />
      <path
         d="m 535.3409,388.27053 0,0 c 0,-1.5231 1.236,-2.75813 2.76008,-2.75813 1.52213,0 2.75814,1.23503 2.75814,2.75813 0,1.52311 -1.23601,2.75814 -2.75814,2.75814 -1.52408,0 -2.76008,-1.23503 -2.76008,-2.75814"
         style="font-size:12px;font-style:normal;font-variant:normal;font-weight:normal;font-stretch:normal;text-align:start;line-height:124.00000095%;writing-mode:lr-tb;text-anchor:start;fill:#000000;fill-opacity:1;fill-rule:evenodd;stroke:none;font-family:Arial;-inkscape-font-specification:Arial"
         id="path19416" />
      <path
         d="m 539.96374,384.86423 0,0 c 0,-1.52311 1.23601,-2.75814 2.76009,-2.75814 1.52213,0 2.75813,1.23503 2.75813,2.75814 0,1.5231 -1.236,2.75813 -2.75813,2.75813 -1.52408,0 -2.76009,-1.23503 -2.76009,-2.75813"
         style="font-size:12px;font-style:normal;font-variant:normal;font-weight:normal;font-stretch:normal;text-align:start;line-height:124.00000095%;writing-mode:lr-tb;text-anchor:start;fill:#000000;fill-opacity:1;fill-rule:evenodd;stroke:none;font-family:Arial;-inkscape-font-specification:Arial"
         id="path19420" />
      <path
         d="m 543.85667,393.38 0,0 c 0,-1.52311 1.236,-2.75814 2.76008,-2.75814 1.52213,0 2.75813,1.23503 2.75813,2.75814 0,1.5231 -1.236,2.75813 -2.75813,2.75813 -1.52408,0 -2.76008,-1.23503 -2.76008,-2.75813"
         style="font-size:12px;font-style:normal;font-variant:normal;font-weight:normal;font-stretch:normal;text-align:start;line-height:124.00000095%;writing-mode:lr-tb;text-anchor:start;fill:#000000;fill-opacity:1;fill-rule:evenodd;stroke:none;font-family:Arial;-inkscape-font-specification:Arial"
         id="path19424" />
      <path
         d="m 547.74959,397.02961 0,0 c 0,-1.52311 1.236,-2.75814 2.76008,-2.75814 1.52213,0 2.75813,1.23503 2.75813,2.75814 0,1.52311 -1.236,2.75813 -2.75813,2.75813 -1.52408,0 -2.76008,-1.23502 -2.76008,-2.75813"
         style="font-size:12px;font-style:normal;font-variant:normal;font-weight:normal;font-stretch:normal;text-align:start;line-height:124.00000095%;writing-mode:lr-tb;text-anchor:start;fill:#000000;fill-opacity:1;fill-rule:evenodd;stroke:none;font-family:Arial;-inkscape-font-specification:Arial"
         id="path19428" />
      <path
         d="m 551.64251,396.54299 0,0 c 0,-1.5231 1.236,-2.75813 2.75813,-2.75813 1.52408,0 2.76009,1.23503 2.76009,2.75813 0,1.52311 -1.23601,2.75814 -2.76009,2.75814 -1.52213,0 -2.75813,-1.23503 -2.75813,-2.75814"
         style="font-size:12px;font-style:normal;font-variant:normal;font-weight:normal;font-stretch:normal;text-align:start;line-height:124.00000095%;writing-mode:lr-tb;text-anchor:start;fill:#000000;fill-opacity:1;fill-rule:evenodd;stroke:none;font-family:Arial;-inkscape-font-specification:Arial"
         id="path19432" />
      <path
         d="m 556.02205,398.97607 0,0 c 0,-1.52311 1.236,-2.75813 2.75813,-2.75813 1.52408,0 2.76008,1.23502 2.76008,2.75813 0,1.52311 -1.236,2.75814 -2.76008,2.75814 -1.52213,0 -2.75813,-1.23503 -2.75813,-2.75814"
         style="font-size:12px;font-style:normal;font-variant:normal;font-weight:normal;font-stretch:normal;text-align:start;line-height:124.00000095%;writing-mode:lr-tb;text-anchor:start;fill:#000000;fill-opacity:1;fill-rule:evenodd;stroke:none;font-family:Arial;-inkscape-font-specification:Arial"
         id="path19436" />
      <path
         d="m 563.56458,401.40915 0,0 c 0,-1.52311 1.23601,-2.75814 2.75814,-2.75814 1.52408,0 2.76008,1.23503 2.76008,2.75814 0,1.5231 -1.236,2.75813 -2.76008,2.75813 -1.52213,0 -2.75814,-1.23503 -2.75814,-2.75813"
         style="font-size:12px;font-style:normal;font-variant:normal;font-weight:normal;font-stretch:normal;text-align:start;line-height:124.00000095%;writing-mode:lr-tb;text-anchor:start;fill:#000000;fill-opacity:1;fill-rule:evenodd;stroke:none;font-family:Arial;-inkscape-font-specification:Arial"
         id="path19440" />
      <path
         d="m 567.2142,400.43592 0,0 c 0,-1.52311 1.236,-2.75814 2.75813,-2.75814 1.52408,0 2.76008,1.23503 2.76008,2.75814 0,1.5231 -1.236,2.75813 -2.76008,2.75813 -1.52213,0 -2.75813,-1.23503 -2.75813,-2.75813"
         style="font-size:12px;font-style:normal;font-variant:normal;font-weight:normal;font-stretch:normal;text-align:start;line-height:124.00000095%;writing-mode:lr-tb;text-anchor:start;fill:#000000;fill-opacity:1;fill-rule:evenodd;stroke:none;font-family:Arial;-inkscape-font-specification:Arial"
         id="path19444" />
      <path
         d="m 571.35043,400.43592 0,0 c 0,-1.52311 1.236,-2.75814 2.75813,-2.75814 1.52408,0 2.76008,1.23503 2.76008,2.75814 0,1.5231 -1.236,2.75813 -2.76008,2.75813 -1.52213,0 -2.75813,-1.23503 -2.75813,-2.75813"
         style="font-size:12px;font-style:normal;font-variant:normal;font-weight:normal;font-stretch:normal;text-align:start;line-height:124.00000095%;writing-mode:lr-tb;text-anchor:start;fill:#000000;fill-opacity:1;fill-rule:evenodd;stroke:none;font-family:Arial;-inkscape-font-specification:Arial"
         id="path19448" />
      <path
         d="m 575.48666,400.43592 0,0 c 0,-1.52311 1.236,-2.75814 2.75813,-2.75814 1.52408,0 2.76008,1.23503 2.76008,2.75814 0,1.5231 -1.236,2.75813 -2.76008,2.75813 -1.52213,0 -2.75813,-1.23503 -2.75813,-2.75813"
         style="font-size:12px;font-style:normal;font-variant:normal;font-weight:normal;font-stretch:normal;text-align:start;line-height:124.00000095%;writing-mode:lr-tb;text-anchor:start;fill:#000000;fill-opacity:1;fill-rule:evenodd;stroke:none;font-family:Arial;-inkscape-font-specification:Arial"
         id="path19452" />
      <path
         d="m 578.89296,405.05876 0,0 c 0,-1.5231 1.23601,-2.75813 2.75814,-2.75813 1.52408,0 2.76008,1.23503 2.76008,2.75813 0,1.52311 -1.236,2.75814 -2.76008,2.75814 -1.52213,0 -2.75814,-1.23503 -2.75814,-2.75814"
         style="font-size:12px;font-style:normal;font-variant:normal;font-weight:normal;font-stretch:normal;text-align:start;line-height:124.00000095%;writing-mode:lr-tb;text-anchor:start;fill:#000000;fill-opacity:1;fill-rule:evenodd;stroke:none;font-family:Arial;-inkscape-font-specification:Arial"
         id="path19456" />
      <path
         d="m 583.2725,401.40915 0,0 c 0,-1.52311 1.236,-2.75814 2.75814,-2.75814 1.52408,0 2.76008,1.23503 2.76008,2.75814 0,1.5231 -1.236,2.75813 -2.76008,2.75813 -1.52214,0 -2.75814,-1.23503 -2.75814,-2.75813"
         style="font-size:12px;font-style:normal;font-variant:normal;font-weight:normal;font-stretch:normal;text-align:start;line-height:124.00000095%;writing-mode:lr-tb;text-anchor:start;fill:#000000;fill-opacity:1;fill-rule:evenodd;stroke:none;font-family:Arial;-inkscape-font-specification:Arial"
         id="path19460" />
      <path
         d="m 586.67881,405.30207 0,0 c 0,-1.52311 1.236,-2.75814 2.75813,-2.75814 1.52408,0 2.76009,1.23503 2.76009,2.75814 0,1.5231 -1.23601,2.75813 -2.76009,2.75813 -1.52213,0 -2.75813,-1.23503 -2.75813,-2.75813"
         style="font-size:12px;font-style:normal;font-variant:normal;font-weight:normal;font-stretch:normal;text-align:start;line-height:124.00000095%;writing-mode:lr-tb;text-anchor:start;fill:#000000;fill-opacity:1;fill-rule:evenodd;stroke:none;font-family:Arial;-inkscape-font-specification:Arial"
         id="path19464" />
      <path
         d="m 591.54496,404.81545 0,0 c 0,-1.5231 1.236,-2.75813 2.75814,-2.75813 1.52407,0 2.76008,1.23503 2.76008,2.75813 0,1.52311 -1.23601,2.75814 -2.76008,2.75814 -1.52214,0 -2.75814,-1.23503 -2.75814,-2.75814"
         style="font-size:12px;font-style:normal;font-variant:normal;font-weight:normal;font-stretch:normal;text-align:start;line-height:124.00000095%;writing-mode:lr-tb;text-anchor:start;fill:#000000;fill-opacity:1;fill-rule:evenodd;stroke:none;font-family:Arial;-inkscape-font-specification:Arial"
         id="path19468" />
      <path
         d="m 594.70796,402.13907 0,0 c 0,-1.52311 1.236,-2.75814 2.75814,-2.75814 1.52407,0 2.76008,1.23503 2.76008,2.75814 0,1.52311 -1.23601,2.75813 -2.76008,2.75813 -1.52214,0 -2.75814,-1.23502 -2.75814,-2.75813"
         style="font-size:12px;font-style:normal;font-variant:normal;font-weight:normal;font-stretch:normal;text-align:start;line-height:124.00000095%;writing-mode:lr-tb;text-anchor:start;fill:#000000;fill-opacity:1;fill-rule:evenodd;stroke:none;font-family:Arial;-inkscape-font-specification:Arial"
         id="path19472" />
      <path
         d="m 599.0875,402.62568 0,0 c 0,-1.5231 1.236,-2.75813 2.75813,-2.75813 1.52408,0 2.76008,1.23503 2.76008,2.75813 0,1.52311 -1.236,2.75814 -2.76008,2.75814 -1.52213,0 -2.75813,-1.23503 -2.75813,-2.75814"
         style="font-size:12px;font-style:normal;font-variant:normal;font-weight:normal;font-stretch:normal;text-align:start;line-height:124.00000095%;writing-mode:lr-tb;text-anchor:start;fill:#000000;fill-opacity:1;fill-rule:evenodd;stroke:none;font-family:Arial;-inkscape-font-specification:Arial"
         id="path19476" />
      <path
         d="m 603.71034,405.54538 0,0 c 0,-1.52311 1.236,-2.75814 2.75814,-2.75814 1.52408,0 2.76008,1.23503 2.76008,2.75814 0,1.5231 -1.236,2.75813 -2.76008,2.75813 -1.52214,0 -2.75814,-1.23503 -2.75814,-2.75813"
         style="font-size:12px;font-style:normal;font-variant:normal;font-weight:normal;font-stretch:normal;text-align:start;line-height:124.00000095%;writing-mode:lr-tb;text-anchor:start;fill:#000000;fill-opacity:1;fill-rule:evenodd;stroke:none;font-family:Arial;-inkscape-font-specification:Arial"
         id="path19480" />
      <path
         d="m 606.87334,405.05876 0,0 c 0,-1.5231 1.236,-2.75813 2.75814,-2.75813 1.52408,0 2.76008,1.23503 2.76008,2.75813 0,1.52311 -1.236,2.75814 -2.76008,2.75814 -1.52214,0 -2.75814,-1.23503 -2.75814,-2.75814"
         style="font-size:12px;font-style:normal;font-variant:normal;font-weight:normal;font-stretch:normal;text-align:start;line-height:124.00000095%;writing-mode:lr-tb;text-anchor:start;fill:#000000;fill-opacity:1;fill-rule:evenodd;stroke:none;font-family:Arial;-inkscape-font-specification:Arial"
         id="path19484" />
      <g
         transform="translate(-15.606577,-20.459022)"
         id="g3786">
        <path
           id="path19488"
           style="font-size:12px;font-style:normal;font-variant:normal;font-weight:normal;font-stretch:normal;text-align:start;line-height:124.00000095%;writing-mode:lr-tb;text-anchor:start;fill:#000000;fill-opacity:1;fill-rule:nonzero;stroke:none;font-family:Arial;-inkscape-font-specification:Arial"
           d="m 541.8806,461.18113 c 0,1.41 0.16625,2.35 0.49375,2.81875 0.33125,0.465 0.73875,0.6975 1.225,0.6975 0.48375,0 0.88875,-0.235 1.21875,-0.70375 0.33125,-0.46875 0.4975,-1.40625 0.4975,-2.8125 0,-1.41375 -0.16625,-2.35375 -0.4975,-2.81875 -0.33,-0.46375 -0.74,-0.6975 -1.23125,-0.6975 -0.485,0 -0.87125,0.20625 -1.15875,0.61625 -0.365,0.52375 -0.5475,1.49 -0.5475,2.9 m -1.08375,0 c 0,-1.01625 0.105,-1.8325 0.3125,-2.44875 0.21,-0.62125 0.52,-1.1 0.93,-1.435 0.415,-0.33625 0.935,-0.505 1.56,-0.505 0.45875,0 0.86375,0.0937 1.21125,0.28125 0.34875,0.18375 0.635,0.45125 0.86125,0.8025 0.2275,0.34875 0.405,0.775 0.535,1.2775 0.1275,0.5 0.1925,1.17625 0.1925,2.0275 0,1.00875 -0.105,1.8225 -0.31,2.44375 -0.2075,0.61625 -0.5175,1.095 -0.9325,1.43625 -0.41,0.335 -0.93,0.50375 -1.5575,0.50375 -0.83,0 -1.48,-0.2975 -1.95375,-0.89125 -0.56625,-0.715 -0.84875,-1.87875 -0.84875,-3.4925" />
      </g>
      <g
         transform="translate(-15.840043,-20)"
         id="g3781">
        <path
           style="font-size:12px;font-style:normal;font-variant:normal;font-weight:normal;font-stretch:normal;text-align:start;line-height:124.00000095%;writing-mode:lr-tb;text-anchor:start;fill:none;stroke:#000000;stroke-width:0.77858442;stroke-linecap:butt;stroke-linejoin:round;stroke-miterlimit:10;stroke-opacity:1;stroke-dasharray:none;font-family:Arial;-inkscape-font-specification:Arial"
           d="m 579.91591,450.3214 -0.12166,4.13817"
           id="path10193" />
        <path
           id="path6466"
           d="m 543.91591,450.3214 -0.12166,4.13817"
           style="font-size:12px;font-style:normal;font-variant:normal;font-weight:normal;font-stretch:normal;text-align:start;line-height:124.00000095%;writing-mode:lr-tb;text-anchor:start;fill:none;stroke:#000000;stroke-width:0.77858442;stroke-linecap:butt;stroke-linejoin:round;stroke-miterlimit:10;stroke-opacity:1;stroke-dasharray:none;font-family:Arial;-inkscape-font-specification:Arial" />
      </g>
      <g
         transform="translate(-14,-20)"
         id="g3775">
        <path
           id="path19376"
           style="font-size:12px;font-style:normal;font-variant:normal;font-weight:normal;font-stretch:normal;text-align:start;line-height:124.00000095%;writing-mode:lr-tb;text-anchor:start;fill:none;stroke:#000000;stroke-width:0.97323054;stroke-linecap:butt;stroke-linejoin:round;stroke-miterlimit:10;stroke-opacity:1;stroke-dasharray:none;font-family:Arial;-inkscape-font-specification:Arial"
           d="m 615.31915,450.5647 -0.12165,4.13818" />
      </g>
      <path
         style="font-size:12px;font-style:normal;font-variant:normal;font-weight:normal;font-stretch:normal;text-align:start;line-height:124.00000095%;writing-mode:lr-tb;text-anchor:start;fill:none;stroke:#000000;stroke-width:0.77858442;stroke-linecap:butt;stroke-linejoin:round;stroke-miterlimit:10;stroke-opacity:1;stroke-dasharray:none;font-family:Arial;-inkscape-font-specification:Arial"
         d="m 503.08368,395.95565 4.13818,-0.12166"
         id="path4958" />
      <path
         sodipodi:nodetypes="ccc"
         d="m 529.42171,371.80542 c 3.40631,5.48805 6.81261,10.97609 10.70554,15.2476 16.85729,20.47918 48.40759,18.71157 72.66723,18.81547"
         style="font-size:12px;font-style:normal;font-variant:normal;font-weight:normal;font-stretch:normal;text-align:start;line-height:124.00000095%;writing-mode:lr-tb;text-anchor:start;fill:none;stroke:#3366ff;stroke-width:1.1678766;stroke-linecap:butt;stroke-linejoin:round;stroke-miterlimit:10;stroke-opacity:1;stroke-dasharray:none;font-family:Arial;-inkscape-font-specification:Arial"
         id="path19636" />
      <path
         d="m 527.34832,338.8203 -0.2225,13.62375"
         style="font-size:12px;font-style:normal;font-variant:normal;font-weight:normal;font-stretch:normal;text-align:start;line-height:124.00000095%;writing-mode:lr-tb;text-anchor:start;fill:#2ad4ff;fill-opacity:1;fill-rule:nonzero;stroke:#00ccff;stroke-width:1.16999996;stroke-linecap:butt;stroke-linejoin:round;stroke-miterlimit:10;stroke-opacity:1;stroke-dasharray:none;font-family:Arial;-inkscape-font-specification:Arial"
         id="path19658" />
      <path
         d="m 529.67982,349.91893 -2.52875,4.985 -2.47125,-5.01375 5,0.0288 z"
         style="font-size:12px;font-style:normal;font-variant:normal;font-weight:normal;font-stretch:normal;text-align:start;line-height:124.00000095%;writing-mode:lr-tb;text-anchor:start;fill:#00ccff;fill-opacity:1;fill-rule:evenodd;stroke:none;font-family:Arial;-inkscape-font-specification:Arial"
         id="path19662" />
      <text
         xml:space="preserve"
         style="font-size:12px;font-style:normal;font-variant:normal;font-weight:normal;font-stretch:normal;text-align:start;line-height:125%;letter-spacing:0px;word-spacing:0px;writing-mode:lr-tb;text-anchor:start;fill:#000000;fill-opacity:1;stroke:none;font-family:Arial;-inkscape-font-specification:Arial"
         x="521.24573"
         y="335.49591"
         id="text28423"
         sodipodi:linespacing="125%"><tspan
           sodipodi:role="line"
           id="tspan28425"
           x="521.24573"
           y="335.49591">laser</tspan></text>
      <text
         sodipodi:linespacing="125%"
         id="text4924"
         y="419.94409"
         x="482.5"
         style="font-size:12px;font-style:normal;font-variant:normal;font-weight:normal;font-stretch:normal;line-height:125%;letter-spacing:0px;word-spacing:0px;fill:#000000;fill-opacity:1;stroke:none;font-family:Arial;-inkscape-font-specification:Arial"
         xml:space="preserve"><tspan
           y="419.94409"
           x="482.5"
           id="tspan4926-6"
           sodipodi:role="line"
           style="-inkscape-font-specification:Arial;font-family:Arial;font-weight:normal;font-style:normal;font-stretch:normal;font-variant:normal;font-size:12">0.4</tspan></text>
      <text
         sodipodi:linespacing="125%"
         id="text4999"
         y="396.7348"
         x="482.44727"
         style="font-size:12px;font-style:normal;font-variant:normal;font-weight:normal;font-stretch:normal;line-height:125%;letter-spacing:0px;word-spacing:0px;fill:#000000;fill-opacity:1;stroke:none;font-family:Arial;-inkscape-font-specification:Arial"
         xml:space="preserve"><tspan
           y="396.7348"
           x="482.44727"
           id="tspan5001"
           sodipodi:role="line">0.8</tspan></text>
      <text
         sodipodi:linespacing="125%"
         id="text5003"
         y="373.44238"
         x="482.55273"
         style="font-size:12px;font-style:normal;font-variant:normal;font-weight:normal;font-stretch:normal;line-height:125%;letter-spacing:0px;word-spacing:0px;fill:#000000;fill-opacity:1;stroke:none;font-family:Arial;-inkscape-font-specification:Arial"
         xml:space="preserve"><tspan
           y="373.44238"
           x="482.55273"
           id="tspan5005"
           sodipodi:role="line">1.2</tspan></text>
      <text
         sodipodi:linespacing="125%"
         id="text5047"
         y="350.31607"
         x="482.4707"
         style="font-size:12px;font-style:normal;font-variant:normal;font-weight:normal;font-stretch:normal;line-height:125%;letter-spacing:0px;word-spacing:0px;fill:#000000;fill-opacity:1;stroke:none;font-family:Arial;-inkscape-font-specification:Arial"
         xml:space="preserve"><tspan
           y="350.31607"
           x="482.4707"
           id="tspan5049"
           sodipodi:role="line">1.6</tspan></text>
      <text
         xml:space="preserve"
         style="font-size:12px;font-style:normal;font-variant:normal;font-weight:normal;font-stretch:normal;line-height:125%;letter-spacing:0px;word-spacing:0px;fill:#000000;fill-opacity:1;stroke:none;font-family:Arial;-inkscape-font-specification:Arial"
         x="557.16394"
         y="444.95886"
         id="text6496"
         sodipodi:linespacing="125%"><tspan
           sodipodi:role="line"
           id="tspan6498"
           x="557.16394"
           y="444.95886">20</tspan></text>
      <text
         xml:space="preserve"
         style="font-size:12px;font-style:normal;font-variant:normal;font-weight:normal;font-stretch:normal;line-height:125%;letter-spacing:0px;word-spacing:0px;fill:#000000;fill-opacity:1;stroke:none;font-family:Arial;-inkscape-font-specification:Arial"
         x="594.57434"
         y="444.95886"
         id="text6500"
         sodipodi:linespacing="125%"><tspan
           sodipodi:role="line"
           id="tspan6502"
           x="594.57434"
           y="444.95886">40</tspan></text>
    </g>
  </g>
</svg>
