<?xml version="1.0" encoding="ISO-8859-1" standalone="no"?>
<!DOCTYPE svg PUBLIC "-//W3C//DTD SVG 1.1//EN" "http://www.w3.org/Graphics/SVG/1.1/DTD/svg11.dtd">
<svg version="1.1" baseProfile="full" id="body" width="8in" height="8in" viewBox="0 0 1 1" preserveAspectRatio="none" xmlns="http://www.w3.org/2000/svg" xmlns:xlink="http://www.w3.org/1999/xlink" xmlns:ev="http://www.w3.org/2001/xml-events">
<title>SVG drawing</title>
<desc>This was produced by version 4.2 of GNU libplot, a free library for exporting 2-D vector graphics.</desc>
<rect id="background" x="0" y="0" width="1" height="1" stroke="none" fill="white"/>
<g id="content" transform="translate(-0.03125,1.1875) scale(1,-1) scale(0.0017361) " xml:space="preserve" stroke="black" stroke-linecap="butt" stroke-linejoin="miter" stroke-miterlimit="10.433" stroke-dasharray="none" stroke-dashoffset="0" stroke-opacity="1" fill="none" fill-rule="even-odd" fill-opacity="1" font-style="normal" font-variant="normal" font-weight="normal" font-stretch="normal" font-size-adjust="none" letter-spacing="normal" word-spacing="normal" text-anchor="start">
<line x1="50.879" y1="215.38" x2="50.879" y2="50.383" stroke-width="1" />
<line x1="309.5" y1="215.38" x2="309.5" y2="50.383" stroke-width="1" />
<line x1="310" y1="211.38" x2="302" y2="211.38" stroke-width="1" />
<line x1="50.379" y1="211.38" x2="58.379" y2="211.38" stroke-width="1" />
<path d="M31.613,214.07 V207 H32.84 V216.93 H32.031 C31.598,215.4,31.32,215.19,29.422,214.95 V214.07 Z " stroke-width="0" fill="black" />
<polygon points="37.664,208.46 36.215,208.46 36.215,207 37.664,207 " stroke-width="0" fill="black" />
<path d="M46.059,208.22 H40.855 C40.98,209.03,41.426,209.55,42.641,210.26 L44.035,211.02 C45.414,211.77,46.129,212.8,46.129,214.02 C46.129,214.84,45.793,215.61,45.207,216.14 C44.621,216.68,43.895,216.93,42.961,216.93 C41.707,216.93,40.77,216.48,40.227,215.64 C39.879,215.1,39.727,214.49,39.699,213.48 H40.926 C40.965,214.15,41.051,214.56,41.219,214.88 C41.539,215.48,42.18,215.85,42.918,215.85 C44.035,215.85,44.871,215.05,44.871,213.98 C44.871,213.2,44.41,212.53,43.531,212.03 L42.25,211.3 C40.184,210.12,39.586,209.18,39.473,207 H46.059 Z " stroke-width="0" fill="black" />
<line x1="310" y1="182.88" x2="302" y2="182.88" stroke-width="1" />
<line x1="50.379" y1="182.88" x2="58.379" y2="182.88" stroke-width="1" />
<path d="M31.613,185.07 V178 H32.84 V187.93 H32.031 C31.598,186.4,31.32,186.19,29.422,185.95 V185.07 Z " stroke-width="0" fill="black" />
<polygon points="37.664,179.46 36.215,179.46 36.215,178 37.664,178 " stroke-width="0" fill="black" />
<path d="M42.836,187.93 L42.75,187.92 L42.664,187.92 L42.579,187.92 L42.495,187.91 L42.411,187.9 L42.328,187.88 L42.246,187.87 L42.164,187.85 L42.084,187.83 L42.004,187.81 L41.925,187.79 L41.847,187.76 L41.771,187.73 L41.695,187.7 L41.62,187.67 L41.547,187.64 L41.475,187.6 L41.404,187.56 L41.334,187.52 L41.265,187.48 L41.198,187.44 L41.133,187.39 L41.068,187.34 L41.006,187.29 L40.944,187.24 L40.885,187.19 L40.827,187.13 L40.77,187.08 L40.716,187.02 L40.663,186.96 L40.612,186.9 L40.562,186.83 C39.922,185.96,39.602,184.64,39.602,182.8 C39.602,179.46,40.715,177.68,42.836,177.68 L42.809,178.7 C41.512,178.7,40.855,180.07,40.855,182.79 C40.855,185.5,41.512,186.83,42.836,186.83 H42.836 C44.16,186.83,44.816,185.49,44.816,182.83 C44.816,180.02,44.176,178.7,42.809,178.7 L42.836,177.68 C44.926,177.68,46.07,179.46,46.07,182.72 C46.07,184.65,45.766,185.94,45.109,186.83 C44.594,187.54,43.77,187.93,42.836,187.93 Z " stroke-width="0" fill="black" />
<line x1="310" y1="154.25" x2="302" y2="154.25" stroke-width="1" />
<line x1="50.379" y1="154.25" x2="58.379" y2="154.25" stroke-width="1" />
<path d="M31.836,159.93 L31.75,159.92 L31.664,159.92 L31.579,159.92 L31.495,159.91 L31.411,159.9 L31.328,159.88 L31.246,159.87 L31.164,159.85 L31.084,159.83 L31.004,159.81 L30.925,159.79 L30.847,159.76 L30.771,159.73 L30.695,159.7 L30.62,159.67 L30.547,159.64 L30.475,159.6 L30.404,159.56 L30.334,159.52 L30.265,159.48 L30.198,159.44 L30.133,159.39 L30.068,159.34 L30.006,159.29 L29.944,159.24 L29.885,159.19 L29.827,159.13 L29.77,159.08 L29.716,159.02 L29.663,158.96 L29.612,158.9 L29.562,158.83 C28.922,157.96,28.602,156.64,28.602,154.8 C28.602,151.46,29.715,149.68,31.836,149.68 L31.809,150.7 C30.512,150.7,29.855,152.07,29.855,154.79 C29.855,157.5,30.512,158.83,31.836,158.83 H31.836 C33.16,158.83,33.816,157.49,33.816,154.83 C33.816,152.02,33.176,150.7,31.809,150.7 L31.836,149.68 C33.926,149.68,35.07,151.46,35.07,154.72 C35.07,156.65,34.766,157.94,34.109,158.83 C33.594,159.54,32.77,159.93,31.836,159.93 Z " stroke-width="0" fill="black" />
<polygon points="37.664,151.46 36.215,151.46 36.215,150 37.664,150 " stroke-width="0" fill="black" />
<path d="M44.453,155.22 L44.547,155.28 L44.636,155.34 L44.722,155.39 L44.804,155.45 L44.882,155.51 L44.956,155.56 L45.027,155.62 L45.094,155.67 L45.158,155.73 L45.218,155.78 L45.275,155.84 L45.329,155.9 L45.379,155.96 L45.426,156.01 L45.47,156.07 L45.511,156.13 L45.549,156.19 L45.584,156.25 L45.616,156.32 L45.646,156.38 L45.673,156.45 L45.697,156.51 L45.718,156.58 L45.737,156.65 L45.753,156.72 L45.767,156.8 L45.779,156.87 L45.788,156.95 L45.796,157.03 L45.801,157.11 L45.804,157.19 L45.805,157.28 C45.805,158.83,44.594,159.93,42.836,159.93 C41.094,159.93,39.863,158.83,39.863,157.28 C39.863,156.35,40.199,155.85,41.203,155.22 C40.074,154.68,39.516,153.85,39.516,152.76 C39.516,150.94,40.883,149.68,42.836,149.68 L42.809,150.77 C41.609,150.77,40.77,151.57,40.77,152.73 C40.77,153.89,41.609,154.68,42.836,154.68 V155.71 C41.805,155.71,41.121,156.33,41.121,157.27 C41.121,158.22,41.805,158.83,42.836,158.83 H42.836 C43.883,158.83,44.551,158.22,44.551,157.25 C44.551,156.33,43.867,155.71,42.836,155.71 V154.68 H42.836 C44.062,154.68,44.898,153.89,44.898,152.73 C44.898,151.55,44.062,150.77,42.809,150.77 L42.836,149.68 C44.789,149.68,46.156,150.94,46.156,152.74 C46.156,153.85,45.598,154.68,44.453,155.22 Z " stroke-width="0" fill="black" />
<line x1="310" y1="125.75" x2="302" y2="125.75" stroke-width="1" />
<line x1="50.379" y1="125.75" x2="58.379" y2="125.75" stroke-width="1" />
<path d="M31.836,130.93 L31.75,130.92 L31.664,130.92 L31.579,130.92 L31.495,130.91 L31.411,130.9 L31.328,130.88 L31.246,130.87 L31.164,130.85 L31.084,130.83 L31.004,130.81 L30.925,130.79 L30.847,130.76 L30.771,130.73 L30.695,130.7 L30.62,130.67 L30.547,130.64 L30.475,130.6 L30.404,130.56 L30.334,130.52 L30.265,130.48 L30.198,130.44 L30.133,130.39 L30.068,130.34 L30.006,130.29 L29.944,130.24 L29.885,130.19 L29.827,130.13 L29.77,130.08 L29.716,130.02 L29.663,129.96 L29.612,129.9 L29.562,129.83 C28.922,128.96,28.602,127.64,28.602,125.8 C28.602,122.46,29.715,120.68,31.836,120.68 L31.809,121.7 C30.512,121.7,29.855,123.07,29.855,125.79 C29.855,128.5,30.512,129.83,31.836,129.83 H31.836 C33.16,129.83,33.816,128.49,33.816,125.83 C33.816,123.02,33.176,121.7,31.809,121.7 L31.836,120.68 C33.926,120.68,35.07,122.46,35.07,125.72 C35.07,127.65,34.766,128.94,34.109,129.83 C33.594,130.54,32.77,130.93,31.836,130.93 Z " stroke-width="0" fill="black" />
<polygon points="37.664,122.46 36.215,122.46 36.215,121 37.664,121 " stroke-width="0" fill="black" />
<path d="M45.945,128.34 L45.921,128.49 L45.891,128.63 L45.857,128.78 L45.818,128.91 L45.775,129.05 L45.727,129.18 L45.675,129.3 L45.619,129.43 L45.558,129.54 L45.493,129.66 L45.424,129.77 L45.351,129.87 L45.274,129.97 L45.193,130.06 L45.108,130.15 L45.019,130.24 L44.927,130.32 L44.831,130.4 L44.731,130.47 L44.628,130.53 L44.521,130.6 L44.411,130.65 L44.298,130.7 L44.181,130.75 L44.062,130.79 L43.939,130.83 L43.813,130.86 L43.684,130.88 L43.553,130.9 L43.418,130.91 L43.281,130.92 L43.141,130.93 C42.055,130.93,41.078,130.4,40.492,129.51 C39.879,128.55,39.602,127.33,39.602,125.52 C39.602,123.86,39.852,122.79,40.438,121.91 C40.965,121.11,41.832,120.68,42.918,120.68 L42.934,121.77 C41.789,121.77,40.926,122.72,40.926,124 C40.926,125.23,41.762,126.08,42.977,126.08 H42.977 C44.16,126.08,44.898,125.26,44.898,123.93 C44.898,122.68,44.062,121.77,42.934,121.77 L42.918,120.68 C44.801,120.68,46.156,122.08,46.156,124.02 C46.156,125.87,44.898,127.18,43.129,127.18 C42.152,127.18,41.387,126.8,40.855,126.07 C40.867,128.49,41.648,129.83,43.059,129.83 C43.922,129.83,44.523,129.29,44.719,128.34 Z " stroke-width="0" fill="black" />
<line x1="310" y1="97.25" x2="302" y2="97.25" stroke-width="1" />
<line x1="50.379" y1="97.25" x2="58.379" y2="97.25" stroke-width="1" />
<path d="M31.836,102.93 L31.75,102.92 L31.664,102.92 L31.579,102.92 L31.495,102.91 L31.411,102.9 L31.328,102.88 L31.246,102.87 L31.164,102.85 L31.084,102.83 L31.004,102.81 L30.925,102.79 L30.847,102.76 L30.771,102.73 L30.695,102.7 L30.62,102.67 L30.547,102.64 L30.475,102.6 L30.404,102.56 L30.334,102.52 L30.265,102.48 L30.198,102.44 L30.133,102.39 L30.068,102.34 L30.006,102.29 L29.944,102.24 L29.885,102.19 L29.827,102.13 L29.77,102.08 L29.716,102.02 L29.663,101.96 L29.612,101.9 L29.562,101.83 C28.922,100.96,28.602,99.637,28.602,97.801 C28.602,94.457,29.715,92.68,31.836,92.68 L31.809,93.699 C30.512,93.699,29.855,95.07,29.855,97.789 C29.855,100.5,30.512,101.83,31.836,101.83 H31.836 C33.16,101.83,33.816,100.49,33.816,97.828 C33.816,95.016,33.176,93.699,31.809,93.699 L31.836,92.68 C33.926,92.68,35.07,94.457,35.07,97.719 C35.07,99.648,34.766,100.94,34.109,101.83 C33.594,102.54,32.77,102.93,31.836,102.93 Z " stroke-width="0" fill="black" />
<polygon points="37.664,94.457 36.215,94.457 36.215,93 37.664,93 " stroke-width="0" fill="black" />
<polygon points="43.562,95.379 43.562,93 44.789,93 44.789,95.379 46.254,95.379 46.254,96.484 44.789,96.484 44.789,102.93 43.883,102.93 39.391,96.684 40.465,96.484 43.562,100.82 43.562,96.484 40.465,96.484 39.391,96.684 39.391,95.379 " stroke-width="0" fill="black" />
<line x1="310" y1="68.621" x2="302" y2="68.621" stroke-width="1" />
<line x1="50.379" y1="68.621" x2="58.379" y2="68.621" stroke-width="1" />
<path d="M31.836,73.926 L31.75,73.925 L31.664,73.921 L31.579,73.915 L31.495,73.907 L31.411,73.897 L31.328,73.884 L31.246,73.869 L31.164,73.852 L31.084,73.832 L31.004,73.811 L30.925,73.787 L30.847,73.761 L30.771,73.733 L30.695,73.703 L30.62,73.671 L30.547,73.637 L30.475,73.601 L30.404,73.562 L30.334,73.522 L30.265,73.48 L30.198,73.436 L30.133,73.39 L30.068,73.343 L30.006,73.293 L29.944,73.241 L29.885,73.188 L29.827,73.133 L29.77,73.076 L29.716,73.018 L29.663,72.958 L29.612,72.896 L29.562,72.832 C28.922,71.965,28.602,70.637,28.602,68.801 C28.602,65.457,29.715,63.68,31.836,63.68 L31.809,64.699 C30.512,64.699,29.855,66.07,29.855,68.789 C29.855,71.504,30.512,72.832,31.836,72.832 H31.836 C33.16,72.832,33.816,71.488,33.816,68.828 C33.816,66.016,33.176,64.699,31.809,64.699 L31.836,63.68 C33.926,63.68,35.07,65.457,35.07,68.719 C35.07,70.648,34.766,71.938,34.109,72.832 C33.594,73.535,32.77,73.926,31.836,73.926 Z " stroke-width="0" fill="black" />
<polygon points="37.664,65.457 36.215,65.457 36.215,64 37.664,64 " stroke-width="0" fill="black" />
<path d="M46.059,65.219 H40.855 C40.98,66.031,41.426,66.547,42.641,67.262 L44.035,68.02 C45.414,68.773,46.129,69.797,46.129,71.016 C46.129,71.84,45.793,72.609,45.207,73.141 C44.621,73.676,43.895,73.926,42.961,73.926 C41.707,73.926,40.77,73.477,40.227,72.637 C39.879,72.105,39.727,71.488,39.699,70.48 H40.926 C40.965,71.152,41.051,71.559,41.219,71.883 C41.539,72.484,42.18,72.848,42.918,72.848 C44.035,72.848,44.871,72.051,44.871,70.984 C44.871,70.203,44.41,69.531,43.531,69.027 L42.25,68.297 C40.184,67.121,39.586,66.184,39.473,64 H46.059 Z " stroke-width="0" fill="black" />
<path d="M3.8789,87.941 V86.441 H8.7578 C7.8008,85.809,7.2969,84.797,7.2969,83.531 C7.2969,81.078,9.2617,79.469,12.266,79.469 C15.453,79.469,17.414,81.039,17.414,83.586 L16.012,83.805 C16.012,82.141,14.551,81.039,12.356,81.039 C10.16,81.039,8.7031,82.141,8.7031,83.785 H8.7031 C8.7031,85.41,10.141,86.441,12.391,86.441 C14.57,86.441,16.012,85.395,16.012,83.805 L17.414,83.586 C17.414,84.887,16.93,85.789,15.758,86.602 H17 V87.941 Z " stroke-width="0" fill="black" />
<polygon points="7.5664,91.711 7.5664,90.211 17,90.211 17,91.711 " stroke-width="0" fill="black" />
<polygon points="3.8789,91.711 3.8789,90.191 5.7695,90.191 5.7695,91.711 " stroke-width="0" fill="black" />
<path d="M10.195,100.91 L10.024,100.9 L9.8576,100.89 L9.696,100.87 L9.5392,100.85 L9.3872,100.81 L9.2403,100.77 L9.0983,100.73 L8.9613,100.67 L8.8294,100.61 L8.7026,100.55 L8.581,100.47 L8.4646,100.39 L8.3534,100.31 L8.2475,100.21 L8.1469,100.11 L8.0518,100.01 L7.962,99.895 L7.8777,99.776 L7.799,99.651 L7.7258,99.52 L7.6581,99.383 L7.5962,99.24 L7.5399,99.09 L7.4894,98.935 L7.4446,98.774 L7.4057,98.606 L7.3726,98.433 L7.3455,98.254 L7.3243,98.069 L7.3091,97.879 L7.2999,97.682 L7.2969,97.48 C7.2969,95.277,8.4336,93.848,10.18,93.848 C11.652,93.848,12.356,94.605,12.894,96.848 L13.238,98.254 C13.488,99.305,13.867,99.719,14.551,99.719 C15.434,99.719,16.027,98.832,16.027,97.516 C16.027,96.703,15.793,96.016,15.398,95.637 C15.129,95.402,14.859,95.293,14.191,95.203 V93.613 C16.371,93.688,17.414,94.914,17.414,97.387 C17.414,99.773,16.242,101.29,14.426,101.29 C13.023,101.29,12.246,100.5,11.797,98.617 L11.457,97.172 C11.168,95.945,10.773,95.422,10.106,95.422 C9.2422,95.422,8.6836,96.195,8.6836,97.426 C8.6836,98.633,9.207,99.285,10.195,99.32 Z " stroke-width="0" fill="black" />
<path d="M7.5664,106.59 V105.04 H4.9766 V103.54 H7.5664 V102.25 H8.793 V103.54 H15.922 C16.875,103.54,17.414,104.18,17.414,105.36 C17.414,105.72,17.379,106.08,17.289,106.59 H16.027 C16.082,106.39,16.102,106.15,16.102,105.86 C16.102,105.21,15.922,105.04,15.254,105.04 H8.793 V106.59 Z " stroke-width="0" fill="black" />
<path d="M16.117,116.66 L16.12,116.65 L16.123,116.63 L16.126,116.62 L16.129,116.61 L16.131,116.59 L16.133,116.58 L16.136,116.57 L16.137,116.56 L16.139,116.54 L16.141,116.53 L16.142,116.52 L16.144,116.51 L16.145,116.5 L16.146,116.49 L16.147,116.48 L16.148,116.47 L16.149,116.45 L16.15,116.44 L16.151,116.42 L16.152,116.4 L16.152,116.39 L16.152,116.37 L16.152,116.35 L16.152,116.34 C16.152,115.81,15.883,115.52,15.414,115.52 H9.8711 C8.1992,115.52,7.2969,114.3,7.2969,111.96 C7.2969,110.59,7.6953,109.46,8.3945,108.82 C8.8828,108.39,9.4219,108.21,10.359,108.18 V109.69 C9.207,109.82,8.6836,110.5,8.6836,111.91 C8.6836,113.27,9.1875,114.02,10.09,114.02 H10.484 C11.113,114.02,11.383,113.64,11.527,112.45 C11.797,110.32,11.871,110,12.106,109.42 C12.555,108.32,13.398,107.76,14.625,107.76 C16.336,107.76,17.414,108.95,17.414,110.86 C17.414,112.06,17,113.02,16.027,114.08 L15.254,113.43 C15.812,112.82,16.102,112.07,16.102,111.19 C16.102,110.02,15.543,109.33,14.59,109.33 C13.598,109.33,13.094,110,12.859,111.61 C12.644,113.19,12.57,113.52,12.34,114.02 H14.031 C14.535,114.02,14.84,113.88,15.254,113.43 L16.027,114.08 C16.98,114.19,17.414,114.66,17.414,115.63 C17.414,115.94,17.379,116.18,17.254,116.66 Z " stroke-width="0" fill="black" />
<path d="M7.5664,118.27 H17 V119.78 H11.797 C9.8711,119.78,8.6133,120.79,8.6133,122.35 C8.6133,123.54,9.332,124.3,10.465,124.3 H17 V125.8 H9.8711 C8.3047,125.8,7.2969,124.62,7.2969,122.8 C7.2969,121.39,7.8398,120.48,9.1523,119.66 H7.5664 Z " stroke-width="0" fill="black" />
<path d="M10.734,135.51 L10.649,135.5 L10.566,135.49 L10.485,135.48 L10.405,135.47 L10.327,135.46 L10.251,135.45 L10.176,135.44 L10.103,135.43 L10.031,135.41 L9.9611,135.4 L9.8925,135.39 L9.8253,135.37 L9.6948,135.34 L9.5693,135.3 L9.4486,135.26 L9.3321,135.21 L9.2196,135.17 L9.1106,135.11 L9.0048,135.06 L8.9019,135 L8.8015,134.94 L8.7031,134.88 C7.8203,134.22,7.2969,133.09,7.2969,131.77 C7.2969,129.22,9.3125,127.56,12.445,127.56 C15.488,127.56,17.414,129.18,17.414,131.75 C17.414,134.01,16.062,135.43,13.762,135.61 V134.1 C15.273,133.84,16.027,133.07,16.027,131.79 C16.027,130.12,14.68,129.13,12.445,129.13 C10.09,129.13,8.6836,130.1,8.6836,131.75 C8.6836,133.02,9.4219,133.81,10.734,133.99 Z " stroke-width="0" fill="black" />
<path d="M12.789,145.27 L12.656,145.27 L12.526,145.26 L12.399,145.26 L12.275,145.26 L12.154,145.26 L12.037,145.25 L11.922,145.25 L11.81,145.24 L11.701,145.24 L11.594,145.23 L11.491,145.23 L11.389,145.22 L11.291,145.21 L11.194,145.2 L11.1,145.19 L11.008,145.18 L10.919,145.17 L10.831,145.15 L10.662,145.13 L10.5,145.09 L10.345,145.06 L10.196,145.02 L10.053,144.98 L9.9151,144.94 L9.7812,144.89 C8.2344,144.27,7.2969,142.83,7.2969,141.06 C7.2969,138.42,9.3125,136.72,12.41,136.72 C15.508,136.72,17.414,138.37,17.414,141.02 C17.414,143.19,16.191,144.69,14.137,145.07 V143.55 C15.379,143.13,16.027,142.29,16.027,141.07 C16.027,140.12,15.598,139.3,14.805,138.8 C14.266,138.44,13.723,138.31,12.789,138.29 L11.562,138.33 C9.8164,138.46,8.6836,139.52,8.6836,141.04 C8.6836,142.52,9.9062,143.66,11.457,143.66 C11.492,143.66,11.527,143.66,11.562,143.64 V138.33 L12.789,138.29 Z " stroke-width="0" fill="black" />
<path d="M3.8789,156.26 L4.331,155.93 L4.8027,155.62 L5.2921,155.32 L5.7969,155.04 L6.3154,154.78 L6.8454,154.54 L7.385,154.32 L7.9321,154.11 L8.4848,153.93 L9.041,153.77 L9.5987,153.64 L10.156,153.53 L10.711,153.44 L11.261,153.37 L11.534,153.35 L11.805,153.33 L12.073,153.32 L12.34,153.32 C15.184,153.32,18.457,154.46,20.816,156.26 V157.25 C18.242,155.67,15.219,154.78,12.34,154.78 C9.4766,154.78,6.4336,155.67,3.8789,157.25 Z " stroke-width="0" fill="black" />
<path d="M16.117,167.82 L16.12,167.81 L16.123,167.79 L16.126,167.78 L16.129,167.76 L16.131,167.75 L16.133,167.73 L16.136,167.72 L16.137,167.71 L16.139,167.7 L16.141,167.68 L16.142,167.67 L16.144,167.66 L16.145,167.65 L16.146,167.64 L16.147,167.63 L16.148,167.62 L16.149,167.61 L16.149,167.6 L16.15,167.59 L16.15,167.59 L16.151,167.58 L16.151,167.57 L16.152,167.55 L16.152,167.54 L16.152,167.53 L16.152,167.51 L16.152,167.5 C16.152,166.98,15.902,166.69,15.414,166.69 H7.5664 V165.19 H12.914 C14.84,165.19,16.102,164.18,16.102,162.6 C16.102,161.43,15.379,160.67,14.246,160.67 H7.5664 V159.18 H20.961 V160.67 H16.945 C17.27,161.12,17.414,161.65,17.414,162.3 C17.414,163.53,16.91,164.54,15.922,165.24 C16.945,165.28,17.414,165.77,17.414,166.8 C17.414,167.12,17.379,167.35,17.254,167.82 Z " stroke-width="0" fill="black" />
<path d="M7.5664,169.27 H17 V170.78 H11.078 C9.7109,170.78,8.6133,171.77,8.6133,173 C8.6133,174.12,9.2969,174.75,10.504,174.75 H17 V176.27 H11.078 C9.7109,176.27,8.6133,177.27,8.6133,178.49 C8.6133,179.59,9.3125,180.25,10.504,180.25 H17 V181.76 H9.9258 C8.2344,181.76,7.2969,180.79,7.2969,179.02 C7.2969,177.75,7.6758,176.99,8.7383,176.11 C7.7305,175.55,7.2969,174.79,7.2969,173.56 C7.2969,172.3,7.7656,171.47,8.8984,170.66 H7.5664 Z " stroke-width="0" fill="black" />
<path d="M20.816,184.68 L20.364,185.01 L19.891,185.32 L19.402,185.62 L18.897,185.9 L18.378,186.16 L17.848,186.4 L17.309,186.63 L16.762,186.83 L16.209,187.01 L15.653,187.17 L15.096,187.31 L14.539,187.42 L13.984,187.51 L13.434,187.57 L13.162,187.6 L12.891,187.61 L12.622,187.62 L12.356,187.62 C9.5117,187.62,6.2344,186.48,3.8789,184.68 V183.69 C6.4531,185.28,9.4766,186.16,12.356,186.16 C15.219,186.16,18.262,185.28,20.816,183.69 Z " stroke-width="0" fill="black" />
<line x1="50.379" y1="49.883" x2="310" y2="49.883" stroke-width="1" />
<line x1="50.379" y1="215.88" x2="310" y2="215.88" stroke-width="1" />
<line x1="305" y1="216.38" x2="305" y2="208.38" stroke-width="1" />
<line x1="305" y1="49.383" x2="305" y2="57.383" stroke-width="1" />
<path d="M296.61,40.07 V33 H297.84 V42.926 H297.03 C296.6,41.398,296.32,41.191,294.42,40.953 V40.07 Z " stroke-width="0" fill="black" />
<path d="M306.45,38.223 L306.55,38.28 L306.64,38.337 L306.72,38.394 L306.8,38.45 L306.88,38.506 L306.96,38.561 L307.03,38.617 L307.09,38.673 L307.16,38.729 L307.22,38.785 L307.27,38.841 L307.33,38.898 L307.38,38.955 L307.42,39.013 L307.47,39.072 L307.51,39.132 L307.55,39.192 L307.58,39.254 L307.62,39.317 L307.65,39.381 L307.67,39.446 L307.7,39.513 L307.72,39.581 L307.74,39.651 L307.75,39.723 L307.77,39.796 L307.78,39.871 L307.79,39.949 L307.8,40.029 L307.8,40.11 L307.8,40.195 L307.8,40.281 C307.8,41.832,306.59,42.926,304.84,42.926 C303.09,42.926,301.86,41.832,301.86,40.281 C301.86,39.355,302.2,38.852,303.2,38.223 C302.07,37.676,301.52,36.852,301.52,35.758 C301.52,33.938,302.88,32.68,304.84,32.68 L304.81,33.77 C303.61,33.77,302.77,34.566,302.77,35.73 C302.77,36.891,303.61,37.676,304.84,37.676 V38.711 C303.8,38.711,303.12,39.328,303.12,40.266 C303.12,41.219,303.8,41.832,304.84,41.832 H304.84 C305.88,41.832,306.55,41.219,306.55,40.254 C306.55,39.328,305.87,38.711,304.84,38.711 V37.676 H304.84 C306.06,37.676,306.9,36.891,306.9,35.73 C306.9,34.555,306.06,33.77,304.81,33.77 L304.84,32.68 C306.79,32.68,308.15,33.938,308.15,35.742 C308.15,36.852,307.59,37.676,306.45,38.223 Z " stroke-width="0" fill="black" />
<path d="M312.84,42.926 L312.75,42.925 L312.66,42.921 L312.58,42.915 L312.49,42.907 L312.41,42.897 L312.33,42.884 L312.25,42.869 L312.16,42.852 L312.08,42.832 L312,42.811 L311.93,42.787 L311.85,42.761 L311.77,42.733 L311.69,42.703 L311.62,42.671 L311.55,42.637 L311.47,42.601 L311.4,42.562 L311.33,42.522 L311.27,42.48 L311.2,42.436 L311.13,42.39 L311.07,42.343 L311.01,42.293 L310.94,42.241 L310.88,42.188 L310.83,42.133 L310.77,42.076 L310.72,42.018 L310.66,41.958 L310.61,41.896 L310.56,41.832 C309.92,40.965,309.6,39.637,309.6,37.801 C309.6,34.457,310.71,32.68,312.84,32.68 L312.81,33.699 C311.51,33.699,310.86,35.07,310.86,37.789 C310.86,40.504,311.51,41.832,312.84,41.832 H312.84 C314.16,41.832,314.82,40.488,314.82,37.828 C314.82,35.016,314.17,33.699,312.81,33.699 L312.84,32.68 C314.93,32.68,316.07,34.457,316.07,37.719 C316.07,39.648,315.76,40.938,315.11,41.832 C314.59,42.535,313.77,42.926,312.84,42.926 Z " stroke-width="0" fill="black" />
<line x1="263.38" y1="216.38" x2="263.38" y2="208.38" stroke-width="1" />
<line x1="263.38" y1="49.383" x2="263.38" y2="57.383" stroke-width="1" />
<path d="M255.61,40.07 V33 H256.84 V42.926 H256.03 C255.6,41.398,255.32,41.191,253.42,40.953 V40.07 Z " stroke-width="0" fill="black" />
<path d="M267.25,42.926 H260.64 V41.707 H265.98 C263.62,38.336,262.66,36.262,261.93,33 H263.23 C263.78,36.18,265.02,38.906,267.25,41.891 Z " stroke-width="0" fill="black" />
<path d="M270.84,42.926 L270.75,42.925 L270.66,42.921 L270.58,42.915 L270.49,42.907 L270.41,42.897 L270.33,42.884 L270.25,42.869 L270.16,42.852 L270.08,42.832 L270,42.811 L269.93,42.787 L269.85,42.761 L269.77,42.733 L269.69,42.703 L269.62,42.671 L269.55,42.637 L269.47,42.601 L269.4,42.562 L269.33,42.522 L269.27,42.48 L269.2,42.436 L269.13,42.39 L269.07,42.343 L269.01,42.293 L268.94,42.241 L268.88,42.188 L268.83,42.133 L268.77,42.076 L268.72,42.018 L268.66,41.958 L268.61,41.896 L268.56,41.832 C267.92,40.965,267.6,39.637,267.6,37.801 C267.6,34.457,268.71,32.68,270.84,32.68 L270.81,33.699 C269.51,33.699,268.86,35.07,268.86,37.789 C268.86,40.504,269.51,41.832,270.84,41.832 H270.84 C272.16,41.832,272.82,40.488,272.82,37.828 C272.82,35.016,272.17,33.699,270.81,33.699 L270.84,32.68 C272.93,32.68,274.07,34.457,274.07,37.719 C274.07,39.648,273.76,40.938,273.11,41.832 C272.59,42.535,271.77,42.926,270.84,42.926 Z " stroke-width="0" fill="black" />
<line x1="221.75" y1="216.38" x2="221.75" y2="208.38" stroke-width="1" />
<line x1="221.75" y1="49.383" x2="221.75" y2="57.383" stroke-width="1" />
<path d="M213.61,40.07 V33 H214.84 V42.926 H214.03 C213.6,41.398,213.32,41.191,211.42,40.953 V40.07 Z " stroke-width="0" fill="black" />
<path d="M224.95,40.336 L224.92,40.486 L224.89,40.633 L224.86,40.775 L224.82,40.914 L224.77,41.048 L224.73,41.178 L224.67,41.304 L224.62,41.426 L224.56,41.544 L224.49,41.657 L224.42,41.765 L224.35,41.869 L224.27,41.969 L224.19,42.064 L224.11,42.155 L224.02,42.24 L223.93,42.321 L223.83,42.397 L223.73,42.468 L223.63,42.535 L223.52,42.596 L223.41,42.652 L223.3,42.704 L223.18,42.75 L223.06,42.79 L222.94,42.826 L222.81,42.856 L222.68,42.881 L222.55,42.901 L222.42,42.915 L222.28,42.923 L222.14,42.926 C221.05,42.926,220.08,42.395,219.49,41.512 C218.88,40.547,218.6,39.328,218.6,37.523 C218.6,35.855,218.85,34.793,219.44,33.91 C219.96,33.113,220.83,32.68,221.92,32.68 L221.93,33.77 C220.79,33.77,219.93,34.723,219.93,35.996 C219.93,37.227,220.76,38.082,221.97,38.082 H221.97 C223.16,38.082,223.9,37.258,223.9,35.926 C223.9,34.68,223.06,33.77,221.93,33.77 L221.92,32.68 C223.8,32.68,225.15,34.078,225.15,36.023 C225.15,37.871,223.9,39.176,222.13,39.176 C221.15,39.176,220.38,38.797,219.85,38.066 C219.87,40.488,220.65,41.832,222.06,41.832 C222.92,41.832,223.52,41.289,223.72,40.336 Z " stroke-width="0" fill="black" />
<path d="M229.84,42.926 L229.75,42.925 L229.66,42.921 L229.58,42.915 L229.49,42.907 L229.41,42.897 L229.33,42.884 L229.25,42.869 L229.16,42.852 L229.08,42.832 L229,42.811 L228.93,42.787 L228.85,42.761 L228.77,42.733 L228.69,42.703 L228.62,42.671 L228.55,42.637 L228.47,42.601 L228.4,42.562 L228.33,42.522 L228.27,42.48 L228.2,42.436 L228.13,42.39 L228.07,42.343 L228.01,42.293 L227.94,42.241 L227.88,42.188 L227.83,42.133 L227.77,42.076 L227.72,42.018 L227.66,41.958 L227.61,41.896 L227.56,41.832 C226.92,40.965,226.6,39.637,226.6,37.801 C226.6,34.457,227.71,32.68,229.84,32.68 L229.81,33.699 C228.51,33.699,227.85,35.07,227.85,37.789 C227.85,40.504,228.51,41.832,229.84,41.832 H229.84 C231.16,41.832,231.82,40.488,231.82,37.828 C231.82,35.016,231.17,33.699,229.81,33.699 L229.84,32.68 C231.93,32.68,233.07,34.457,233.07,37.719 C233.07,39.648,232.76,40.938,232.1,41.832 C231.59,42.535,230.77,42.926,229.84,42.926 Z " stroke-width="0" fill="black" />
<line x1="180.12" y1="216.38" x2="180.12" y2="208.38" stroke-width="1" />
<line x1="180.12" y1="49.383" x2="180.12" y2="57.383" stroke-width="1" />
<path d="M172.61,40.07 V33 H173.84 V42.926 H173.03 C172.6,41.398,172.32,41.191,170.42,40.953 V40.07 Z " stroke-width="0" fill="black" />
<path d="M182.64,42.926 H177.54 L176.79,37.523 H177.93 C178.5,38.207,178.97,38.445,179.74,38.445 C181.06,38.445,181.9,37.535,181.9,36.066 C181.9,34.637,181.07,33.77,179.74,33.77 C178.66,33.77,178.01,34.316,177.71,35.438 H176.49 C176.66,34.625,176.79,34.23,177.09,33.867 C177.65,33.113,178.65,32.68,179.77,32.68 C181.76,32.68,183.15,34.133,183.15,36.234 C183.15,38.195,181.85,39.539,179.96,39.539 C179.26,39.539,178.71,39.355,178.13,38.938 L178.52,41.707 H182.64 Z " stroke-width="0" fill="black" />
<path d="M187.84,42.926 L187.75,42.925 L187.66,42.921 L187.58,42.915 L187.49,42.907 L187.41,42.897 L187.33,42.884 L187.25,42.869 L187.16,42.852 L187.08,42.832 L187,42.811 L186.93,42.787 L186.85,42.761 L186.77,42.733 L186.69,42.703 L186.62,42.671 L186.55,42.637 L186.47,42.601 L186.4,42.562 L186.33,42.522 L186.27,42.48 L186.2,42.436 L186.13,42.39 L186.07,42.343 L186.01,42.293 L185.94,42.241 L185.88,42.188 L185.83,42.133 L185.77,42.076 L185.72,42.018 L185.66,41.958 L185.61,41.896 L185.56,41.832 C184.92,40.965,184.6,39.637,184.6,37.801 C184.6,34.457,185.71,32.68,187.84,32.68 L187.81,33.699 C186.51,33.699,185.85,35.07,185.85,37.789 C185.85,40.504,186.51,41.832,187.84,41.832 H187.84 C189.16,41.832,189.82,40.488,189.82,37.828 C189.82,35.016,189.17,33.699,187.81,33.699 L187.84,32.68 C189.93,32.68,191.07,34.457,191.07,37.719 C191.07,39.648,190.76,40.938,190.1,41.832 C189.59,42.535,188.77,42.926,187.84,42.926 Z " stroke-width="0" fill="black" />
<line x1="138.62" y1="216.38" x2="138.62" y2="208.38" stroke-width="1" />
<line x1="138.62" y1="49.383" x2="138.62" y2="57.383" stroke-width="1" />
<path d="M130.61,40.07 V33 H131.84 V42.926 H131.03 C130.6,41.398,130.32,41.191,128.42,40.953 V40.07 Z " stroke-width="0" fill="black" />
<polygon points="139.56,35.379 139.56,33 140.79,33 140.79,35.379 142.25,35.379 142.25,36.484 140.79,36.484 140.79,42.926 139.88,42.926 135.39,36.684 136.46,36.484 139.56,40.824 139.56,36.484 136.46,36.484 135.39,36.684 135.39,35.379 " stroke-width="0" fill="black" />
<path d="M146.84,42.926 L146.75,42.925 L146.66,42.921 L146.58,42.915 L146.49,42.907 L146.41,42.897 L146.33,42.884 L146.25,42.869 L146.16,42.852 L146.08,42.832 L146,42.811 L145.93,42.787 L145.85,42.761 L145.77,42.733 L145.69,42.703 L145.62,42.671 L145.55,42.637 L145.47,42.601 L145.4,42.562 L145.33,42.522 L145.27,42.48 L145.2,42.436 L145.13,42.39 L145.07,42.343 L145.01,42.293 L144.94,42.241 L144.88,42.188 L144.83,42.133 L144.77,42.076 L144.72,42.018 L144.66,41.958 L144.61,41.896 L144.56,41.832 C143.92,40.965,143.6,39.637,143.6,37.801 C143.6,34.457,144.71,32.68,146.84,32.68 L146.81,33.699 C145.51,33.699,144.85,35.07,144.85,37.789 C144.85,40.504,145.51,41.832,146.84,41.832 H146.84 C148.16,41.832,148.82,40.488,148.82,37.828 C148.82,35.016,148.17,33.699,146.81,33.699 L146.84,32.68 C148.93,32.68,150.07,34.457,150.07,37.719 C150.07,39.648,149.76,40.938,149.1,41.832 C148.59,42.535,147.77,42.926,146.84,42.926 Z " stroke-width="0" fill="black" />
<line x1="97" y1="216.38" x2="97" y2="208.38" stroke-width="1" />
<line x1="97" y1="49.383" x2="97" y2="57.383" stroke-width="1" />
<path d="M88.613,40.07 V33 H89.84 V42.926 H89.031 C88.598,41.398,88.32,41.191,86.422,40.953 V40.07 Z " stroke-width="0" fill="black" />
<path d="M96.082,37.551 H96.234 L96.75,37.562 C98.102,37.562,98.801,36.949,98.801,35.758 C98.801,34.512,98.035,33.77,96.75,33.77 C95.414,33.77,94.758,34.441,94.672,35.883 H93.445 C93.504,35.086,93.641,34.566,93.879,34.121 C94.379,33.168,95.355,32.68,96.711,32.68 C98.746,32.68,100.06,33.895,100.06,35.773 C100.06,37.031,99.566,37.73,98.383,38.137 C99.301,38.504,99.762,39.203,99.762,40.195 C99.762,41.902,98.633,42.926,96.75,42.926 C94.758,42.926,93.695,41.832,93.656,39.719 H94.883 C94.895,40.32,94.953,40.656,95.105,40.965 C95.383,41.512,95.996,41.848,96.766,41.848 C97.852,41.848,98.508,41.203,98.508,40.152 C98.508,39.453,98.258,39.035,97.715,38.809 C97.379,38.672,96.945,38.613,96.082,38.602 Z " stroke-width="0" fill="black" />
<path d="M104.84,42.926 L104.75,42.925 L104.66,42.921 L104.58,42.915 L104.49,42.907 L104.41,42.897 L104.33,42.884 L104.25,42.869 L104.16,42.852 L104.08,42.832 L104,42.811 L103.93,42.787 L103.85,42.761 L103.77,42.733 L103.69,42.703 L103.62,42.671 L103.55,42.637 L103.47,42.601 L103.4,42.562 L103.33,42.522 L103.27,42.48 L103.2,42.436 L103.13,42.39 L103.07,42.343 L103.01,42.293 L102.94,42.241 L102.88,42.188 L102.83,42.133 L102.77,42.076 L102.72,42.018 L102.66,41.958 L102.61,41.896 L102.56,41.832 C101.92,40.965,101.6,39.637,101.6,37.801 C101.6,34.457,102.71,32.68,104.84,32.68 L104.81,33.699 C103.51,33.699,102.86,35.07,102.86,37.789 C102.86,40.504,103.51,41.832,104.84,41.832 H104.84 C106.16,41.832,106.82,40.488,106.82,37.828 C106.82,35.016,106.17,33.699,104.81,33.699 L104.84,32.68 C106.93,32.68,108.07,34.457,108.07,37.719 C108.07,39.648,107.76,40.938,107.11,41.832 C106.59,42.535,105.77,42.926,104.84,42.926 Z " stroke-width="0" fill="black" />
<line x1="55.379" y1="216.38" x2="55.379" y2="208.38" stroke-width="1" />
<line x1="55.379" y1="49.383" x2="55.379" y2="57.383" stroke-width="1" />
<path d="M47.613,40.07 V33 H48.84 V42.926 H48.031 C47.598,41.398,47.32,41.191,45.422,40.953 V40.07 Z " stroke-width="0" fill="black" />
<path d="M59.055,34.219 H53.855 C53.98,35.031,54.426,35.547,55.641,36.262 L57.035,37.02 C58.414,37.773,59.125,38.797,59.125,40.016 C59.125,40.84,58.789,41.609,58.203,42.141 C57.621,42.676,56.895,42.926,55.961,42.926 C54.707,42.926,53.77,42.477,53.227,41.637 C52.879,41.105,52.727,40.488,52.695,39.48 H53.926 C53.965,40.152,54.051,40.559,54.219,40.883 C54.539,41.484,55.18,41.848,55.918,41.848 C57.035,41.848,57.871,41.051,57.871,39.984 C57.871,39.203,57.41,38.531,56.531,38.027 L55.25,37.297 C53.184,36.121,52.586,35.184,52.473,33 H59.055 Z " stroke-width="0" fill="black" />
<path d="M62.836,42.926 L62.75,42.925 L62.664,42.921 L62.579,42.915 L62.495,42.907 L62.411,42.897 L62.328,42.884 L62.246,42.869 L62.164,42.852 L62.084,42.832 L62.004,42.811 L61.925,42.787 L61.847,42.761 L61.771,42.733 L61.695,42.703 L61.62,42.671 L61.547,42.637 L61.475,42.601 L61.404,42.562 L61.334,42.522 L61.265,42.48 L61.198,42.436 L61.133,42.39 L61.068,42.343 L61.006,42.293 L60.944,42.241 L60.885,42.188 L60.827,42.133 L60.77,42.076 L60.716,42.018 L60.663,41.958 L60.612,41.896 L60.562,41.832 C59.922,40.965,59.598,39.637,59.598,37.801 C59.598,34.457,60.715,32.68,62.836,32.68 L62.809,33.699 C61.512,33.699,60.855,35.07,60.855,37.789 C60.855,40.504,61.512,41.832,62.836,41.832 H62.836 C64.16,41.832,64.816,40.488,64.816,37.828 C64.816,35.016,64.172,33.699,62.809,33.699 L62.836,32.68 C64.926,32.68,66.07,34.457,66.07,37.719 C66.07,39.648,65.762,40.938,65.105,41.832 C64.59,42.535,63.77,42.926,62.836,42.926 Z " stroke-width="0" fill="black" />
<path d="M219.57,17.434 H218.02 V20.023 H216.53 V17.434 H215.25 V16.207 H216.53 V9.0781 C216.53,8.125,217.18,7.5859,218.35,7.5859 C218.71,7.5859,219.07,7.6211,219.57,7.7109 V8.9727 C219.38,8.918,219.14,8.8984,218.85,8.8984 C218.2,8.8984,218.02,9.0781,218.02,9.7461 V16.207 H219.57 Z " stroke-width="0" fill="black" />
<path d="M229.23,12.211 L229.23,12.344 L229.23,12.474 L229.23,12.601 L229.23,12.725 L229.23,12.846 L229.22,12.963 L229.22,13.078 L229.21,13.19 L229.21,13.299 L229.2,13.406 L229.19,13.509 L229.19,13.611 L229.18,13.709 L229.17,13.806 L229.16,13.9 L229.15,13.992 L229.13,14.081 L229.12,14.169 L229.09,14.338 L229.06,14.5 L229.03,14.655 L228.99,14.804 L228.95,14.947 L228.9,15.085 L228.85,15.219 C228.24,16.766,226.8,17.703,225.04,17.703 C222.41,17.703,220.72,15.688,220.72,12.59 C220.72,9.4922,222.36,7.5859,225,7.5859 C227.16,7.5859,228.66,8.8086,229.04,10.863 H227.52 C227.11,9.6211,226.27,8.9727,225.06,8.9727 C224.1,8.9727,223.29,9.4023,222.79,10.195 C222.43,10.734,222.3,11.277,222.29,12.211 L222.32,13.438 C222.45,15.184,223.51,16.316,225.02,16.316 C226.5,16.316,227.63,15.094,227.63,13.543 C227.63,13.508,227.63,13.473,227.61,13.438 H222.32 L222.29,12.211 Z " stroke-width="0" fill="black" />
<path d="M231.26,17.434 V8 H232.77 V13.922 C232.77,15.289,233.76,16.387,234.98,16.387 C236.1,16.387,236.73,15.703,236.73,14.496 V8 H238.24 V13.922 C238.24,15.289,239.23,16.387,240.46,16.387 C241.55,16.387,242.2,15.688,242.2,14.496 V8 H243.71 V15.074 C243.71,16.766,242.74,17.703,240.98,17.703 C239.72,17.703,238.96,17.324,238.08,16.262 C237.52,17.27,236.77,17.703,235.54,17.703 C234.29,17.703,233.46,17.234,232.65,16.102 V17.434 Z " stroke-width="0" fill="black" />
<path d="M245.97,4.0742 H247.48 V8.9883 C248.28,8.0195,249.16,7.5859,250.38,7.5859 L250.11,8.9883 C248.53,8.9883,247.48,10.43,247.48,12.644 C247.48,14.859,248.53,16.297,250.11,16.297 H250.11 C251.77,16.297,252.85,14.84,252.85,12.59 C252.85,10.449,251.75,8.9883,250.11,8.9883 L250.38,7.5859 C252.81,7.5859,254.41,9.5469,254.41,12.555 C254.41,15.723,252.87,17.703,250.36,17.703 C249.09,17.703,248.06,17.125,247.36,16.012 V17.434 H245.97 Z " stroke-width="0" fill="black" />
<path d="M262.88,14.805 L262.88,14.976 L262.87,15.142 L262.85,15.304 L262.82,15.461 L262.79,15.613 L262.75,15.76 L262.7,15.902 L262.65,16.039 L262.59,16.171 L262.52,16.297 L262.45,16.419 L262.37,16.535 L262.28,16.647 L262.19,16.752 L262.09,16.853 L261.98,16.948 L261.87,17.038 L261.75,17.122 L261.63,17.201 L261.5,17.274 L261.36,17.342 L261.22,17.404 L261.07,17.46 L260.91,17.511 L260.75,17.555 L260.59,17.594 L260.41,17.627 L260.24,17.655 L260.05,17.676 L259.86,17.691 L259.67,17.7 L259.46,17.703 C257.27,17.703,255.85,16.566,255.85,14.82 C255.85,13.348,256.6,12.644,258.83,12.106 L260.24,11.762 C261.28,11.512,261.7,11.133,261.7,10.449 C261.7,9.5664,260.81,8.9727,259.5,8.9727 C258.69,8.9727,258,9.207,257.63,9.6016 C257.39,9.8711,257.29,10.141,257.2,10.809 H255.61 C255.68,8.6289,256.91,7.5859,259.38,7.5859 C261.75,7.5859,263.26,8.7578,263.26,10.574 C263.26,11.977,262.47,12.754,260.6,13.203 L259.16,13.543 C257.93,13.832,257.41,14.227,257.41,14.894 C257.41,15.758,258.19,16.316,259.41,16.316 C260.62,16.316,261.27,15.793,261.3,14.805 Z " stroke-width="0" fill="black" />
<path d="M273.25,21.121 L272.92,20.669 L272.6,20.197 L272.31,19.708 L272.03,19.203 L271.77,18.685 L271.53,18.155 L271.31,17.615 L271.11,17.068 L270.92,16.515 L270.77,15.959 L270.63,15.401 L270.52,14.844 L270.43,14.289 L270.36,13.739 L270.34,13.466 L270.33,13.195 L270.32,12.927 L270.31,12.66 C270.31,9.8164,271.45,6.543,273.25,4.1836 H274.24 C272.65,6.7578,271.77,9.7812,271.77,12.66 C271.77,15.523,272.65,18.566,274.24,21.121 Z " stroke-width="0" fill="black" />
<path d="M282.88,14.805 L282.88,14.976 L282.87,15.142 L282.85,15.304 L282.82,15.461 L282.79,15.613 L282.75,15.76 L282.7,15.902 L282.65,16.039 L282.59,16.171 L282.52,16.297 L282.45,16.419 L282.37,16.535 L282.28,16.647 L282.19,16.752 L282.09,16.853 L281.98,16.948 L281.87,17.038 L281.75,17.122 L281.63,17.201 L281.5,17.274 L281.36,17.342 L281.22,17.404 L281.07,17.46 L280.91,17.511 L280.75,17.555 L280.59,17.594 L280.41,17.627 L280.24,17.655 L280.05,17.676 L279.86,17.691 L279.67,17.7 L279.46,17.703 C277.27,17.703,275.85,16.566,275.85,14.82 C275.85,13.348,276.6,12.644,278.83,12.106 L280.24,11.762 C281.28,11.512,281.7,11.133,281.7,10.449 C281.7,9.5664,280.81,8.9727,279.5,8.9727 C278.69,8.9727,278,9.207,277.63,9.6016 C277.39,9.8711,277.29,10.141,277.2,10.809 H275.61 C275.68,8.6289,276.91,7.5859,279.38,7.5859 C281.75,7.5859,283.26,8.7578,283.26,10.574 C283.26,11.977,282.47,12.754,280.6,13.203 L279.16,13.543 C277.93,13.832,277.41,14.227,277.41,14.894 C277.41,15.758,278.19,16.316,279.41,16.316 C280.62,16.316,281.27,15.793,281.3,14.805 Z " stroke-width="0" fill="black" />
<polygon points="287.44,9.8711 285.57,9.8711 285.57,8 287.44,8 " stroke-width="0" fill="black" />
<path d="M290.68,4.1836 L291.01,4.6364 L291.32,5.1085 L291.61,5.5982 L291.89,6.1033 L292.15,6.6218 L292.39,7.1518 L292.62,7.6913 L292.82,8.2383 L293,8.7907 L293.15,9.3467 L293.29,9.9042 L293.4,10.461 L293.49,11.016 L293.56,11.566 L293.58,11.838 L293.6,12.109 L293.61,12.378 L293.61,12.644 C293.61,15.488,292.47,18.766,290.68,21.121 H289.68 C291.27,18.547,292.15,15.523,292.15,12.644 C292.15,9.7812,291.27,6.7383,289.68,4.1836 Z " stroke-width="0" fill="black" />
<polyline points="117.75,184.75 118.75,182.25 119.62,179.88 120.62,177.62 121.5,175.38 122.5,173.12 123.38,171 124.38,168.88 125.25,166.75 126.25,164.75 127.25,162.75 128.12,160.75 129.12,158.88 130,157 131,155.12 131.88,153.38 132.88,151.5 133.75,149.88 134.75,148.12 135.62,146.5 136.62,144.88 137.5,143.25 138.5,141.75 139.38,140.12 140.38,138.62 141.25,137.25 142.25,135.75 143.12,134.38 144.12,133 145.12,131.62 146,130.38 147,129 147.88,127.75 148.88,126.5 149.75,125.25 150.75,124.12 151.62,122.88 152.62,121.75 153.5,120.62 154.5,119.62 155.38,118.5 156.38,117.5 157.25,116.38 158.25,115.38 159.12,114.38 160.12,113.5 161,112.5 162,111.5 163,110.62 163.88,109.75 164.88,108.88 165.75,108 166.75,107.12 167.62,106.38 168.62,105.5 169.5,104.75 170.5,104 171.38,103.25 172.38,102.5 173.25,101.75 174.25,101.12 175.12,100.38 176.12,99.621 177,99 178,98.383 178.88,97.75 179.88,97.121 180.88,96.5 181.75,95.883 182.75,95.25 183.62,94.75 184.62,94.121 185.5,93.621 186.5,93 187.38,92.5 188.38,92 189.25,91.5 190.25,91 191.12,90.5 192.12,90 193,89.5 194,89.121 194.88,88.621 195.88,88.121 196.75,87.75 197.75,87.383 198.75,86.883 199.62,86.5 200.62,86.121 201.5,85.75 202.5,85.383 203.38,85 204.38,84.621 205.25,84.25 206.25,83.883 207.12,83.5 208.12,83.25 209,82.883 210,82.5 210.88,82.25 211.88,81.883 212.75,81.621 213.75,81.25 214.62,81 215.62,80.75 216.62,80.5 217.5,80.121 218.5,79.883 219.38,79.621 220.38,79.383 221.25,79.121 222.25,78.883 223.12,78.621 224.12,78.383 225,78.121 226,78 226.88,77.75 227.88,77.5 228.75,77.25 229.75,77.121 230.62,76.883 231.62,76.621 232.5,76.5 233.5,76.25 234.5,76.121 235.38,75.883 236.38,75.75 237.25,75.5 238.25,75.383 239.12,75.25 240.12,75 241,74.883 242,74.75 242.88,74.5 243.88,74.383 244.75,74.25 245.75,74.121 246.62,74 247.62,73.883 248.5,73.621 249.5,73.5 250.38,73.383 251.38,73.25 252.38,73.121 253.25,73 254.25,72.883 255.12,72.75 256.12,72.621 257,72.5 258,72.383 258.88,72.383 259.88,72.25 260.75,72.121 261.75,72 262.62,71.883 263.62,71.75 264.5,71.75 265.5,71.621 266.38,71.5 267.38,71.383 268.25,71.383 269.25,71.25 270.25,71.121 271.12,71.121 272.12,71 273,70.883 274,70.883 274.88,70.75 275.88,70.621 276.75,70.621 277.75,70.5 278.62,70.5 279.62,70.383 280.5,70.383 281.5,70.25 282.38,70.25 283.38,70.121 284.25,70 285.25,70 286.12,70 287.12,69.883 288.12,69.883 289,69.75 290,69.75 290.88,69.621 291.88,69.621 292.75,69.5 293.75,69.5 294.62,69.5 295.62,69.383 296.5,69.383 297.5,69.25 298.38,69.25 299.38,69.25 300.25,69.121 301.25,69.121 302.12,69.121 303.12,69 304,69 305,69 " stroke-width="2" />
<line x1="52.379" y1="187.75" x2="58.379" y2="187.75" stroke="#3d983d" stroke-width="1" />
<line x1="52.379" y1="182.5" x2="58.379" y2="182.5" stroke="#3d983d" stroke-width="1" />
<line x1="55.379" y1="187.75" x2="55.379" y2="182.5" stroke="#3d983d" stroke-width="1" />
<line x1="114.75" y1="186.5" x2="120.75" y2="186.5" stroke="#3d983d" stroke-width="1" />
<line x1="114.75" y1="182.75" x2="120.75" y2="182.75" stroke="#3d983d" stroke-width="1" />
<line x1="117.75" y1="186.5" x2="117.75" y2="182.75" stroke="#3d983d" stroke-width="1" />
<line x1="135.62" y1="150" x2="141.62" y2="150" stroke="#3d983d" stroke-width="1" />
<line x1="135.62" y1="138" x2="141.62" y2="138" stroke="#3d983d" stroke-width="1" />
<line x1="138.62" y1="150" x2="138.62" y2="138" stroke="#3d983d" stroke-width="1" />
<line x1="177.25" y1="98.25" x2="183.25" y2="98.25" stroke="#3d983d" stroke-width="1" />
<line x1="177.25" y1="94.25" x2="183.25" y2="94.25" stroke="#3d983d" stroke-width="1" />
<line x1="180.25" y1="98.25" x2="180.25" y2="94.25" stroke="#3d983d" stroke-width="1" />
<line x1="218.75" y1="84" x2="224.75" y2="84" stroke="#3d983d" stroke-width="1" />
<line x1="218.75" y1="77.75" x2="224.75" y2="77.75" stroke="#3d983d" stroke-width="1" />
<line x1="221.75" y1="84" x2="221.75" y2="77.75" stroke="#3d983d" stroke-width="1" />
<line x1="260.38" y1="74.75" x2="266.38" y2="74.75" stroke="#3d983d" stroke-width="1" />
<line x1="260.38" y1="64" x2="266.38" y2="64" stroke="#3d983d" stroke-width="1" />
<line x1="263.38" y1="74.75" x2="263.38" y2="64" stroke="#3d983d" stroke-width="1" />
<line x1="302" y1="109.38" x2="308" y2="109.38" stroke="#3d983d" stroke-width="1" />
<line x1="305" y1="109.38" x2="305" y2="52.383" stroke="#3d983d" stroke-width="1" />
<polyline points="55.379,185.12 117.75,184.62 138.62,144 180.25,96.25 221.75,80.883 263.38,69.383 305,65.75 " stroke="#3d983d" stroke-width="1.5" />
<polygon points="52.379,188.12 58.379,188.12 58.379,182.12 52.379,182.12 " stroke="#3d983d" stroke-width="0" fill="#3d983d" fill-rule="nonzero" />
<polygon points="114.75,187.62 120.75,187.62 120.75,181.62 114.75,181.62 " stroke="#3d983d" stroke-width="0" fill="#3d983d" fill-rule="nonzero" />
<polygon points="135.62,147 141.62,147 141.62,141 135.62,141 " stroke="#3d983d" stroke-width="0" fill="#3d983d" fill-rule="nonzero" />
<polygon points="177.25,99.25 183.25,99.25 183.25,93.25 177.25,93.25 " stroke="#3d983d" stroke-width="0" fill="#3d983d" fill-rule="nonzero" />
<polygon points="218.75,83.883 224.75,83.883 224.75,77.883 218.75,77.883 " stroke="#3d983d" stroke-width="0" fill="#3d983d" fill-rule="nonzero" />
<polygon points="260.38,72.383 266.38,72.383 266.38,66.383 260.38,66.383 " stroke="#3d983d" stroke-width="0" fill="#3d983d" fill-rule="nonzero" />
<polygon points="302,68.75 308,68.75 308,62.75 302,62.75 " stroke="#3d983d" stroke-width="0" fill="#3d983d" fill-rule="nonzero" />
<line x1="163.5" y1="125.75" x2="163.5" y2="54.5" stroke="#2951cb" stroke-width="2" />
<path d="M155.72,33.18 L155.76,33.291 L155.8,33.4 L155.85,33.507 L155.89,33.611 L155.94,33.713 L155.98,33.813 L156.03,33.909 L156.08,34.003 L156.13,34.095 L156.18,34.184 L156.23,34.27 L156.28,34.354 L156.33,34.434 L156.39,34.512 L156.44,34.588 L156.5,34.66 C156.77,35,157.04,35.102,157.57,35.102 H159.03 C158.73,32.898,158.61,31.398,158.61,30.16 C158.61,28.02,159.35,26.738,160.58,26.738 C161.38,26.738,162.18,27.32,162.5,28.141 C162.73,28.719,162.82,29.281,162.85,30.219 H162.35 C162.2,29.078,161.92,28.68,161.3,28.68 C160.42,28.68,159.75,29.52,159.75,30.602 C159.75,30.922,159.79,31.539,159.84,32.238 C159.86,32.441,159.91,33.039,159.95,33.68 C160,34.441,160,34.641,160.06,35.102 H163.33 V37 H158.81 C157.77,37,157.15,36.738,156.52,36.039 C155.88,35.34,155.54,34.578,155.2,33.18 Z " stroke="#2951cb" stroke-width="0" fill="#2951cb" />
</g>
</svg>
