<?xml version="1.0" encoding="UTF-8" standalone="no"?>
<!-- Created with Inkscape (http://www.inkscape.org/) -->
<svg
   xmlns:dc="http://purl.org/dc/elements/1.1/"
   xmlns:cc="http://creativecommons.org/ns#"
   xmlns:rdf="http://www.w3.org/1999/02/22-rdf-syntax-ns#"
   xmlns:svg="http://www.w3.org/2000/svg"
   xmlns="http://www.w3.org/2000/svg"
   xmlns:sodipodi="http://sodipodi.sourceforge.net/DTD/sodipodi-0.dtd"
   xmlns:inkscape="http://www.inkscape.org/namespaces/inkscape"
   width="463.43027"
   height="226.5994"
   id="svg6770"
   sodipodi:version="0.32"
   inkscape:version="0.46"
   version="1.0"
   sodipodi:docname="aguila.svg"
   inkscape:output_extension="org.inkscape.output.svg.inkscape">
  <defs
     id="defs6772">
    <marker
       inkscape:stockid="Arrow1Lend"
       orient="auto"
       refY="0"
       refX="0"
       id="Arrow1Lend"
       style="overflow:visible">
      <path
         id="path3293"
         d="M 0,0 L 5,-5 L -12.5,0 L 5,5 L 0,0 z"
         style="fill-rule:evenodd;stroke:#000000;stroke-width:1pt;marker-start:none"
         transform="matrix(-0.8,0,0,-0.8,-10,0)" />
    </marker>
    <inkscape:perspective
       sodipodi:type="inkscape:persp3d"
       inkscape:vp_x="0 : 526.18109 : 1"
       inkscape:vp_y="0 : 1000 : 0"
       inkscape:vp_z="744.09448 : 526.18109 : 1"
       inkscape:persp3d-origin="372.04724 : 350.78739 : 1"
       id="perspective6778" />
    <inkscape:perspective
       id="perspective7096"
       inkscape:persp3d-origin="372.04724 : 350.78739 : 1"
       inkscape:vp_z="744.09448 : 526.18109 : 1"
       inkscape:vp_y="0 : 1000 : 0"
       inkscape:vp_x="0 : 526.18109 : 1"
       sodipodi:type="inkscape:persp3d" />
    <inkscape:perspective
       id="perspective7109"
       inkscape:persp3d-origin="372.04724 : 350.78739 : 1"
       inkscape:vp_z="744.09448 : 526.18109 : 1"
       inkscape:vp_y="0 : 1000 : 0"
       inkscape:vp_x="0 : 526.18109 : 1"
       sodipodi:type="inkscape:persp3d" />
    <inkscape:perspective
       id="perspective7961"
       inkscape:persp3d-origin="372.04724 : 350.78739 : 1"
       inkscape:vp_z="744.09448 : 526.18109 : 1"
       inkscape:vp_y="0 : 1000 : 0"
       inkscape:vp_x="0 : 526.18109 : 1"
       sodipodi:type="inkscape:persp3d" />
    <inkscape:perspective
       id="perspective7990"
       inkscape:persp3d-origin="372.04724 : 350.78739 : 1"
       inkscape:vp_z="744.09448 : 526.18109 : 1"
       inkscape:vp_y="0 : 1000 : 0"
       inkscape:vp_x="0 : 526.18109 : 1"
       sodipodi:type="inkscape:persp3d" />
  </defs>
  <sodipodi:namedview
     id="base"
     pagecolor="#ffffff"
     bordercolor="#666666"
     borderopacity="1.0"
     inkscape:pageopacity="0.0"
     inkscape:pageshadow="2"
     inkscape:zoom="0.98994949"
     inkscape:cx="351.80222"
     inkscape:cy="130.55232"
     inkscape:document-units="px"
     inkscape:current-layer="layer1"
     showgrid="false"
     inkscape:window-width="962"
     inkscape:window-height="733"
     inkscape:window-x="20"
     inkscape:window-y="25" />
  <metadata
     id="metadata6775">
    <rdf:RDF>
      <cc:Work
         rdf:about="">
        <dc:format>image/svg+xml</dc:format>
        <dc:type
           rdf:resource="http://purl.org/dc/dcmitype/StillImage" />
      </cc:Work>
    </rdf:RDF>
  </metadata>
  <g
     inkscape:label="Calque 1"
     inkscape:groupmode="layer"
     id="layer1"
     transform="translate(-104.37565,-53.762794)">
    <path
       style="opacity:1;fill:#000000;fill-opacity:1;fill-rule:nonzero;stroke:none;stroke-width:1;stroke-linecap:round;stroke-linejoin:round;stroke-miterlimit:4;stroke-dasharray:none;stroke-dashoffset:0;stroke-opacity:1"
       d=""
       id="path8036" />
    <path
       style="opacity:1;fill:#000000;fill-opacity:1;fill-rule:nonzero;stroke:none;stroke-width:1;stroke-linecap:round;stroke-linejoin:round;stroke-miterlimit:4;stroke-dasharray:none;stroke-dashoffset:0;stroke-opacity:1"
       d=""
       id="path8040" />
    <path
       style="opacity:1;fill:#6e6e6e;fill-opacity:1;fill-rule:nonzero;stroke:none;stroke-width:1;stroke-linecap:round;stroke-linejoin:round;stroke-miterlimit:4;stroke-dasharray:none;stroke-dashoffset:0;stroke-opacity:1"
       d=""
       id="path8070" />
    <text
       xml:space="preserve"
       style="font-size:14px;font-style:normal;font-variant:normal;font-weight:normal;font-stretch:normal;text-align:start;line-height:100%;writing-mode:lr-tb;text-anchor:start;fill:#000000;fill-opacity:1;stroke:none;stroke-width:1px;stroke-linecap:butt;stroke-linejoin:miter;stroke-opacity:1;font-family:Sans;-inkscape-font-specification:Sans"
       x="335.71429"
       y="263.07648"
       id="text8107"
       sodipodi:linespacing="100%"><tspan
         sodipodi:role="line"
         id="tspan8109"
         x="335.71429"
         y="263.07648"></tspan></text>
    <g
       id="g8660">
      <path
         sodipodi:nodetypes="czsc"
         id="path7663"
         d="M 191.34499,128.41305 C 191.34499,128.41305 304.7485,258.02588 345.5275,258.02588 C 386.33881,258.02588 375.50722,258.02588 422.01732,258.02588 C 464.74051,258.02588 567.30592,126.28824 567.30592,126.28824"
         style="fill:none;fill-rule:evenodd;stroke:#000000;stroke-width:1;stroke-linecap:butt;stroke-linejoin:miter;stroke-miterlimit:4;stroke-dasharray:1, 3;stroke-dashoffset:0;stroke-opacity:1" />
      <g
         transform="matrix(0.3612633,9.6800251e-2,-9.6800251e-2,0.3612633,148.22593,-73.270108)"
         id="g7654">
        <path
           style="fill:none;fill-rule:evenodd;stroke:#000000;stroke-width:1px;stroke-linecap:butt;stroke-linejoin:miter;stroke-opacity:1"
           d="M 259.39593,403.67692 C 291.60099,376.77003 281.86947,378.55852 277.9331,360.08091 C 274.95609,353.12503 219.17839,311.00617 237.22135,313.06587 C 256.46216,313.27964 286.24912,316.14516 304.97344,323.6509 C 318.21901,328.96046 302.53324,309.19595 294.15929,298.37614 C 282.68278,283.54759 347.11428,332.90369 337.75747,308.60195 C 330.63678,290.10791 387.16921,354.77325 392.5188,364.45898 C 393.49659,383.48858 373.78667,393.68127 368.30789,410.49005 C 363.08993,425.31695 350.16274,432.06219 345.69536,447.0307 C 344.58429,453.62578 349.02735,467.41091 348.94779,474.06559"
           id="path7117"
           sodipodi:nodetypes="cccssscccc" />
        <path
           style="fill:#787878;fill-opacity:1;fill-rule:evenodd;stroke:#000000;stroke-width:0.69286251px;stroke-linecap:butt;stroke-linejoin:miter;stroke-opacity:1"
           d="M 296.2206,522.56384 C 297.08871,526.03628 297.62039,530.12696 297.62039,533.76219 C 297.62039,538.60585 295.85134,538.73872 294.8208,542.86085 C 293.96771,546.27325 294.12091,549.7343 294.12091,553.3593 C 294.12091,555.96766 295.776,548.20472 297.62039,546.36033 C 300.50715,543.47358 305.10761,546.84857 306.01916,547.76012 C 308.81137,550.55235 310.91524,552.65622 313.01812,554.75909 C 315.36973,557.11069 317.08333,557.02196 317.9174,560.35826 C 318.94801,564.48071 319.78855,562.67223 318.6173,567.35723 C 317.8794,570.30883 318.84763,575.27753 319.31719,577.15579 C 320.14106,580.45125 320.59765,570.3955 322.11678,567.35723 C 323.73574,564.11931 324.15279,562.50571 327.01606,560.35826 C 329.23839,558.69152 333.87927,558.95847 336.81462,558.95847 C 340.2146,558.95847 341.40119,561.44535 343.11369,563.15785 C 344.81213,564.85629 340.68839,559.00716 339.6142,556.85878 C 338.47622,554.58281 332.51862,554.05919 330.51554,554.05919 C 328.30227,554.05919 325.98709,553.28746 324.21647,551.9595 C 323.56454,551.47056 331.79948,548.66396 332.61523,548.46002 C 337.37335,547.27049 337.46743,550.3714 338.21441,553.3593 C 339.01569,556.5644 338.91431,548.10936 338.91431,546.36033 C 338.91431,542.43338 333.39824,543.56074 330.51554,543.56074 C 326.78705,543.56074 324.84839,545.72841 322.81668,547.76012 C 319.79406,550.78274 319.35894,550.60146 317.21751,548.46002 C 314.59242,545.83494 313.61991,544.86243 310.91843,542.16095 C 308.72993,539.97245 309.5663,536.7524 308.81874,533.76219 C 308.1388,531.0424 308.07471,527.28656 307.41895,524.66353"
           id="path7123"
           sodipodi:nodetypes="csssssssssssssssssssssssss" />
        <path
           style="opacity:1;fill:#898989;fill-opacity:1;fill-rule:nonzero;stroke:none;stroke-width:1;stroke-linecap:round;stroke-linejoin:round;stroke-miterlimit:4;stroke-dasharray:none;stroke-dashoffset:0;stroke-opacity:1"
           d="M 417.08952,545.43643 C 415.14498,543.78122 411.05386,541.13499 407.99815,539.55591 C 397.44434,534.10206 392.96085,529.68214 392.88166,524.6537 C 392.83819,521.89498 393.19011,521.90225 385.49039,524.50083 C 378.51451,526.85515 375.2544,526.78708 357.49052,523.91645 C 345.93672,522.04939 336.47911,522.34116 321.82465,525.01684 C 317.27301,525.8479 307.98042,526.75723 301.17452,527.03754 L 288.80015,527.54723 L 288.80015,521.04715 C 288.80015,516.45578 288.34804,514.1718 287.26051,513.26922 C 285.39341,511.71967 283.89934,512.83334 285.5845,514.51851 C 286.24196,515.17595 286.77985,518.17608 286.77985,521.18548 C 286.77985,525.9466 286.55031,526.58092 285.01208,526.07039 C 284.03981,525.74768 279.83505,524.25876 275.66817,522.76165 C 269.41363,520.51446 266.32989,520.03095 257.9905,519.98999 C 252.43466,519.96269 245.61613,520.27155 242.83821,520.67631 L 237.78745,521.41227 L 242.99297,519.92201 C 245.85598,519.10233 252.96569,516.3955 258.7923,513.90681 C 264.61889,511.41812 271.0319,509.07316 273.04339,508.6958 C 275.05486,508.31845 276.99251,507.53743 277.34925,506.96022 C 278.69016,504.79059 268.99227,507.40687 257.22687,512.38882 C 250.63881,515.17846 242.77437,517.97986 239.75028,518.61417 C 225.05079,521.69741 209.97472,512.01252 200.03993,493.10421 C 194.20756,482.00376 184.75444,456.96442 184.75444,452.61607 C 184.75444,450.30243 185.93521,443.60225 187.37836,437.72681 C 190.17179,426.35405 190.11762,422.18729 187.09385,415.8464 C 181.28767,403.67069 144.65956,390.82166 99.661836,385.17552 C 92.087591,384.22512 85.587855,383.14489 85.217957,382.77499 C 83.385813,380.94285 94.195577,379.55282 108.48792,379.78272 C 142.67906,380.33269 144.86289,376.86655 118.05077,364.60461 C 110.38573,361.09917 104.25839,358.08617 104.43447,357.90906 C 104.61054,357.73197 107.38273,358.07288 110.59487,358.66667 C 122.517,360.87061 135.4443,359.48873 137.7461,355.76434 C 138.86976,353.94623 135.86236,350.22869 128.98981,344.94038 C 124.45887,341.4539 123.15848,339.97423 124.41306,339.73262 C 125.37696,339.54699 126.16559,338.97388 126.16559,338.45903 C 126.16559,336.65944 131.87556,337.48675 152.18287,342.22871 C 167.73306,345.85983 172.92624,346.72475 173.81886,345.83213 C 174.71149,344.93949 172.69136,342.28596 165.4025,334.7768 C 160.12751,329.34239 154.82336,323.58467 153.6155,321.98189 C 151.14346,318.70157 150.43929,312.21848 152.76466,314.14837 C 154.65715,315.71899 172.35051,324.34523 190.81535,332.69964 C 212.4585,342.49207 233.55519,353.13745 241.0607,358.05345 C 247.88656,362.52429 248.74126,364.06185 249.86292,373.88844 C 251.00272,383.87378 257.50834,406.51094 261.91058,415.80977 C 265.43723,423.2591 267.2964,425.83576 272.20408,430.07579 C 281.91191,438.46294 293.38936,446.27462 303.27721,451.22449 C 309.74427,454.46192 314.53012,457.78946 319.19103,462.28919 C 322.96024,465.92809 327.13289,469.0028 328.79405,469.36546 C 337.24384,471.21017 346.19202,474.3777 352.8309,477.87415 C 366.74744,485.20343 377.00716,488.07693 401.93118,491.62591 C 408.31703,492.53522 414.2601,493.66356 415.13795,494.13337 C 416.01578,494.60318 417.31214,496.9463 418.01873,499.3403 C 418.72533,501.73431 420.72834,507.1023 422.46989,511.26918 C 424.88017,517.03609 425.5655,520.05149 425.33971,523.89609 C 424.99667,529.73668 422.24965,545.56867 421.28186,547.28265 C 420.84476,548.05676 419.44238,547.43915 417.08952,545.43641 L 417.08952,545.43643 z"
           id="path7127" />
        <path
           style="fill:none;fill-rule:evenodd;stroke:#000000;stroke-width:1px;stroke-linecap:butt;stroke-linejoin:miter;stroke-opacity:1"
           d="M 289.01214,501.47086 C 272.80028,499.69133 244.13845,524.69981 225.45812,519.14785 C 201.38069,510.68754 195.03409,483.3895 185.9657,462.51659 C 177.36496,443.68176 196.45693,430.88064 184.98608,413.81012 C 167.42322,394.61469 105.21738,385.7966 80,383.79075 C 96.088407,372.69327 116.56633,382.74817 134.64281,377.47503 C 145.18981,374.39833 85.365573,353.30253 98.973776,355.52885 C 112.58198,357.75516 126.76796,362.34399 136.09083,356.1065 C 142.63889,351.72551 115.8279,340.39834 123.14227,339.09418 C 130.45664,337.79002 112.53549,330.79057 168.31073,345.08725 C 188.25218,350.19878 142.53995,324.23885 151.01104,311.68956 C 156.93969,319.20759 247.30209,352.9944 249.44865,364.2313 C 250.83971,381.4056 258.05667,411.08602 267.79849,424.78695 C 280.99019,437.33536 295.98173,448.30071 313.08004,454.76833 C 320.06259,460.8199 323.35875,469.48504 333.89053,469.40625 C 360.68892,476.10584 354.19033,485.0688 401.15372,490.51519 C 425.17935,493.30147 412.48716,490.97538 426.81275,518.25061 C 426.97436,529.64793 420.15043,563.29012 420.17642,549.50562 C 411.56836,538.92769 390.50126,536.961 391.81435,523.18708 C 374.21987,531.86593 365.65308,524.238 346.89775,523.5877 C 325.71511,522.76221 307.21359,531.45133 286.26269,527.98689 C 246.53877,509.15134 244.12352,533.51162 211.28809,516.56015 C 196.01025,508.67288 136.89939,433.93701 43.817089,503.86986 C 26.258406,517.06172 -1.9991209,456.44088 -3.3524529,435.30342 C 2.9725831,440.20129 152.86415,482.90598 187.38796,469.99525"
           id="path7115"
           sodipodi:nodetypes="cccccszszscccccscccccsscc" />
        <path
           style="fill:#787878;fill-opacity:1;fill-rule:evenodd;stroke:#000000;stroke-width:0.69286251px;stroke-linecap:butt;stroke-linejoin:miter;stroke-opacity:1"
           d="M 260.46596,516.24235 C 261.3279,516.46642 271.93728,524.6674 274.72636,531.64008 C 276.17308,535.25689 277.32981,539.25433 278.22584,542.83844 C 279.09395,546.31088 279.62563,550.40156 279.62563,554.03679 C 279.62563,558.88044 277.85658,559.01332 276.82604,563.13544 C 275.97295,566.54785 276.12615,570.0089 276.12615,573.6339 C 276.12615,576.24225 277.78124,568.47932 279.62563,566.63493 C 282.51238,563.74818 287.11285,567.12317 288.0244,568.03472 C 290.81661,570.82694 292.92048,572.93081 295.02336,575.03369 C 297.37496,577.38529 299.08857,577.29655 299.92264,580.63286 C 300.95325,584.75531 301.79378,582.94683 300.62254,587.63183 C 299.88464,590.58343 300.85287,595.55212 301.32243,597.43038 C 302.1463,600.72585 302.60289,590.6701 304.12202,587.63183 C 305.74098,584.39391 306.15803,582.78031 309.0213,580.63286 C 311.24363,578.96612 315.88451,579.23307 318.81985,579.23307 C 322.21983,579.23307 323.40642,581.71995 325.11892,583.43245 C 326.81737,585.13089 322.69363,579.28176 321.61944,577.13338 C 320.48146,574.85741 314.52386,574.33379 312.52078,574.33379 C 310.30751,574.33379 307.99233,573.56206 306.22171,572.2341 C 305.56977,571.74515 313.80472,568.93855 314.62047,568.73462 C 319.37859,567.54509 319.47267,570.646 320.21964,573.6339 C 321.02093,576.839 320.91955,568.38395 320.91955,566.63493 C 320.91955,562.70797 315.40348,563.83534 312.52078,563.83534 C 308.79229,563.83534 306.85363,566.00301 304.82192,568.03472 C 301.7993,571.05734 301.36418,570.87605 299.22274,568.73462 C 296.59766,566.10953 295.62515,565.13703 292.92367,562.43555 C 290.73517,560.24705 291.57153,557.027 290.82398,554.03679 C 290.14404,551.317 290.07995,547.56116 289.42419,544.93812 C 288.53061,541.36381 287.40477,538.26024 286.6246,535.13957 C 285.80857,531.87548 287.92837,529.22461 288.72429,526.04091 C 289.47505,523.03788 289.42419,519.64889 289.42419,516.24236 C 289.42419,512.32019 282.56888,509.0371 282.07527,508.54349"
           id="path7121"
           sodipodi:nodetypes="cssssssssssssssssssssssssssssssc" />
        <path
           style="opacity:1;fill:#919191;fill-opacity:1;fill-rule:nonzero;stroke:none;stroke-width:1;stroke-linecap:round;stroke-linejoin:round;stroke-miterlimit:4;stroke-dasharray:none;stroke-dashoffset:0;stroke-opacity:1"
           d="M 215.56409,517.46463 C 213.34176,516.45188 206.29594,511.54522 199.90673,506.56094 C 183.74629,493.95405 176.99563,489.55527 165.18795,483.9379 C 127.8673,466.18302 89.776311,471.04703 49.356229,498.72893 C 39.829278,505.2535 36.592982,505.68179 30.448951,501.23107 C 20.517525,494.0368 5.3098807,466.53859 -0.045897576,446.09084 C -1.1837435,441.74671 -1.9517928,438.0295 -1.7527018,437.8304 C -1.5535907,437.63128 2.876403,438.86416 8.0917499,440.57007 C 40.457835,451.15689 99.562214,465.15833 134.24681,470.45539 C 146.52966,472.33124 179.56835,473.064 185.29717,471.58763 C 188.18752,470.84274 188.44168,471.01832 189.68399,474.61809 C 190.40929,476.71969 193.7032,483.98351 197.0038,490.75984 C 203.45231,503.99898 210.92772,513.08332 218.78575,517.22986 C 223.59837,519.76938 221.03186,519.95641 215.56409,517.46465 L 215.56409,517.46463 z"
           id="path7129" />
        <path
           style="opacity:1;fill:#505050;fill-opacity:1;fill-rule:nonzero;stroke:none;stroke-width:1;stroke-linecap:round;stroke-linejoin:round;stroke-miterlimit:4;stroke-dasharray:none;stroke-dashoffset:0;stroke-opacity:1"
           d="M 339.30778,470.23081 C 335.1409,468.99059 330.4469,467.699 328.87668,467.36059 C 327.18921,466.99692 323.67793,464.2521 320.29038,460.64859 C 315.7699,455.83994 312.42483,453.50671 304.45752,449.605 C 293.40072,444.19031 274.87284,430.864 269.22051,424.26051 C 265.30299,419.68377 258.84132,405.38155 260.18332,404.25763 C 282.84193,385.28099 285.18484,381.16717 281.11974,367.49646 C 279.84215,363.20004 277.97927,358.65703 276.97998,357.40089 C 275.98067,356.14475 269.70827,350.16217 263.04126,344.10625 C 247.8206,330.2807 235.26207,317.41362 235.26207,315.64455 C 235.26207,311.59259 280.14497,316.69181 300.17554,323.01946 C 308.68258,325.70684 311.02351,325.60746 311.02351,322.55897 C 311.02351,320.59302 305.25125,311.13129 299.28512,303.31767 C 297.39649,300.84418 296.0559,298.61576 296.30606,298.36559 C 296.5562,298.11542 302.23335,300.961 308.92192,304.68908 C 332.68777,317.93574 340.42097,319.52024 339.01478,310.855 C 338.6902,308.85487 338.75989,307.21837 339.16964,307.21837 C 341.99561,307.21837 375.37305,343.09707 387.26901,358.92219 C 391.37793,364.38824 391.8069,365.45241 391.21629,368.71397 C 389.98724,375.50125 387.49635,380.18616 379.39455,390.94867 C 374.95659,396.84411 369.77174,405.05849 367.87263,409.20287 C 365.97351,413.34727 360.63463,421.84624 356.00842,428.08949 C 351.38222,434.33276 346.80701,441.50981 345.84129,444.0385 C 344.17256,448.40807 344.1733,449.18213 345.85653,459.64423 C 346.83064,465.6987 347.46028,471.06486 347.25576,471.56905 C 347.05125,472.07322 343.47466,471.47103 339.30778,470.23082 L 339.30778,470.23081 z"
           id="path7131" />
      </g>
      <g
         transform="matrix(0.220093,0,0,0.220093,303.72337,108.87404)"
         id="g8086">
        <path
           style="fill:none;fill-rule:evenodd;stroke:#000000;stroke-width:1px;stroke-linecap:butt;stroke-linejoin:miter;stroke-opacity:1"
           d="M 500.53059,644.26055 C 503.13373,642.13753 504.5712,642.00486 504.5712,637.69456 C 504.5712,634.82373 503.06452,634.40729 501.54074,635.16918 C 499.73751,636.0708 498.19463,638.83095 497.50013,640.21994 C 496.4305,642.3592 498.07619,645.91775 498.51028,646.78594"
           id="path8026" />
        <path
           style="opacity:1;fill:#000000;fill-opacity:1;fill-rule:nonzero;stroke:none;stroke-width:1;stroke-linecap:round;stroke-linejoin:round;stroke-miterlimit:4;stroke-dasharray:none;stroke-dashoffset:0;stroke-opacity:1"
           d="M 459.00364,652.49922 C 458.06443,652.02658 457.71327,651.41387 457.63293,650.10755 C 457.57352,649.14163 457.64502,648.62264 457.79183,648.95427 C 458.19114,649.85633 459.50871,649.1459 459.50871,648.0285 C 459.50871,647.49371 459.1695,646.24431 458.7549,645.25204 C 458.05229,643.57042 458.06085,643.47355 458.88117,643.82541 C 459.64417,644.15269 462.95484,645.26474 464.96109,645.86767 C 465.78821,646.11625 467.08486,649.17215 467.08486,650.87296 C 467.08486,651.79448 466.71376,652.30546 465.78929,652.65695 C 463.99111,653.3406 460.5151,653.25982 459.00364,652.49921 L 459.00364,652.49922 z"
           id="path8034" />
        <path
           style="opacity:1;fill:#000000;fill-opacity:1;fill-rule:nonzero;stroke:none;stroke-width:1;stroke-linecap:round;stroke-linejoin:round;stroke-miterlimit:4;stroke-dasharray:none;stroke-dashoffset:0;stroke-opacity:1"
           d="M 498.66282,643.12571 C 498.25723,640.17676 499.09687,638.14338 501.39623,636.50608 L 502.89287,635.44038 L 503.44572,636.47334 C 504.32277,638.11213 503.53354,640.8679 501.75968,642.3605 C 500.89222,643.0904 500.17909,644.03553 500.17493,644.46075 C 500.17075,644.88596 499.90613,645.32158 499.58686,645.42877 C 499.22867,645.54902 498.8748,644.66703 498.66281,643.12572 L 498.66282,643.12571 z"
           id="path8038" />
        <path
           style="opacity:1;fill:#000000;fill-opacity:1;fill-rule:nonzero;stroke:none;stroke-width:1;stroke-linecap:round;stroke-linejoin:round;stroke-miterlimit:4;stroke-dasharray:none;stroke-dashoffset:0;stroke-opacity:1"
           d="M 472.70047,523.04041 C 469.97303,519.94188 468.47509,515.95685 468.25841,511.22309 L 468.08502,507.43502 L 469.39991,510.9134 C 470.12308,512.8265 471.37028,515.4571 472.17146,516.75917 C 474.49145,520.52961 476.20359,525.36523 475.21863,525.36523 C 474.95914,525.36523 473.82598,524.31906 472.70046,523.04041 L 472.70047,523.04041 z"
           id="path8042" />
        <path
           id="path7996"
           style="fill:none;fill-rule:evenodd;stroke:#000000;stroke-width:1px;stroke-linecap:butt;stroke-linejoin:miter;stroke-opacity:1"
           d="M 440.93159,618.50166 C 438.34581,616.66519 435.61137,610.6448 433.35544,606.88491 C 432.04029,604.69298 432.34529,601.55215 432.34529,598.80369 C 432.34529,595.43651 432.34529,592.06934 432.34529,588.70216 C 432.34529,585.84007 432.34529,582.97797 432.34529,580.11587 C 432.34529,576.80718 430.85344,574.59121 429.31483,572.53972 C 427.12354,569.618 426.95003,565.85112 424.76915,562.94327 C 422.98673,560.56672 421.84808,558.50698 419.71838,556.37728 C 416.87127,553.53017 414.31927,551.6966 411.13209,549.30621 C 408.35423,547.22282 405.30485,545.49928 403.05087,543.2453 C 401.11646,541.3109 399.92721,540.62672 398.50518,539.20469 C 396.84707,537.54658 394.41153,535.89518 391.93919,534.659 C 388.85871,533.11877 387.70335,530.02137 385.87827,527.58794 C 383.60674,524.55922 380.29486,521.97696 378.8072,519.00164 C 377.72655,516.84032 377.75079,513.76583 377.29198,511.93057 C 376.59858,509.157 376.48277,507.61298 378.8072,505.86966 C 380.09928,504.9006 385.14169,506.19059 385.87827,506.37473 C 388.39671,507.00434 389.49999,511.09278 390.42396,512.94072 C 391.53575,515.1643 392.42977,516.46176 393.95949,517.99149 C 396.01338,520.04538 395.67224,521.1207 398.50518,522.53717 C 402.24223,524.4057 406.51899,524.77631 410.12193,526.57778 C 412.67492,527.85427 414.16321,530.1142 415.67777,532.13362 C 417.41238,534.44642 419.27514,534.72083 421.23361,536.67931 C 423.3512,538.79689 425.04562,539.98624 427.29453,542.23515 C 429.50309,544.44371 432.8512,545.51856 435.37575,546.78083 C 437.87007,548.028 439.20947,549.15105 441.43666,550.82144 C 443.79498,552.59018 445.01836,555.96453 445.98235,557.89251 C 447.27762,560.48306 449.63959,562.68162 450.52804,564.4585 C 451.77719,566.95681 452.04326,569.99713 452.04326,573.0448 C 452.04326,575.5353 452.54834,578.35995 452.54834,581.12602 C 452.54834,584.28738 452.97256,587.79278 453.55849,590.72247 C 454.13122,593.5861 454.44458,595.27696 455.07372,597.79354 C 455.63768,600.04938 457.42361,601.76851 458.60926,603.34938 C 460.60839,606.01489 462.14479,603.95407 462.14479,601.32907 C 462.14479,598.3735 461.76869,596.28916 461.13464,593.75293 C 460.52227,591.30348 460.01637,587.98085 459.11433,586.17678 C 457.38217,582.71246 456.78474,578.48715 455.07372,575.0651 C 453.89845,572.71457 454.56865,569.06954 454.56865,566.47881 C 454.56865,563.21655 455.34302,561.361 456.08387,558.39759 C 457.117,554.2651 458.10418,550.47854 458.10418,546.27576 C 458.10418,542.78423 459.11433,539.78208 459.11433,536.17423 C 459.11433,532.6387 459.11433,529.10316 459.11433,525.56763 C 459.11433,521.86374 459.11433,518.15984 459.11433,514.45595 C 459.11433,510.07862 459.11433,505.7013 459.11433,501.32397 C 459.11433,498.34695 458.10418,495.77632 458.10418,492.73767 C 458.10418,488.86164 459.52908,488.60674 461.63971,490.71737 C 463.29295,492.3706 468.1324,493.45864 469.72093,494.2529 C 472.08943,495.43715 474.39174,498.35607 476.28693,499.30366 C 479.01134,500.66587 479.54007,503.22486 480.32754,506.37473 C 480.92874,508.77954 480.83261,511.35729 480.83261,513.95088 C 480.83261,516.47626 480.83261,519.00164 480.83261,521.52702 C 480.83261,524.6327 480.25229,525.71812 479.31738,527.58794 C 477.66944,530.88382 476.72371,526.30463 475.78185,522.53717 C 474.72017,518.29046 471.27009,515.09674 470.22601,510.92042 C 469.69219,508.78515 468.48429,505.92175 467.70063,504.35443 C 466.80174,502.55665 467.19555,508.63773 467.19555,510.41534 C 467.19555,514.32605 467.99066,515.93866 469.21586,519.00164 C 470.29705,521.70461 471.68316,523.63003 474.26662,525.56763 C 476.59557,527.31434 477.46924,529.27532 478.81231,530.61839 C 480.45982,532.26591 480.32754,535.58802 480.32754,538.19454 C 480.32754,541.21579 481.33769,544.15805 481.33769,547.28591 C 481.33769,550.14801 481.33769,553.01011 481.33769,555.87221 C 481.33769,558.7713 481.79343,561.73579 482.34784,563.95343 C 483.0883,566.91525 482.64487,570.19231 483.35799,573.0448 C 483.87031,575.09406 483.86307,577.46029 483.86307,580.11587 C 483.86307,582.64125 483.86307,585.16663 483.86307,587.69201 C 483.86307,590.27611 481.53205,592.35405 480.32754,594.76308 C 479.16426,597.08963 478.32392,598.23187 477.80215,600.31892 C 477.18652,602.78146 477.29708,605.27911 477.29708,607.89506 C 477.29708,610.30777 477.39006,613.31776 477.80215,614.96613 C 478.24406,616.73376 483.25207,619.17983 484.36815,620.01689 C 486.80957,621.84796 487.39224,623.42457 489.92398,624.0575 C 492.52157,624.7069 495.54202,625.60383 497.50013,626.58288 C 499.21123,627.43844 501.78386,629.48236 503.05597,630.11842 C 505.98871,631.58479 502.92213,634.29286 502.04582,635.16918 C 500.18433,637.03067 498.88026,635.70957 498.00521,639.20979 C 497.47271,641.33979 498.17142,644.92542 498.51028,646.28086 C 498.98647,648.18562 501.65628,643.72659 503.56104,643.2504 C 505.255,642.82691 505.07627,649.2196 505.07627,650.32147 C 505.07627,652.84685 505.07627,655.37223 505.07627,657.89761 C 505.07627,661.25815 505.05998,662.18262 507.60165,663.45345 C 510.44569,664.87547 510.63211,664.44058 510.63211,668.50422 C 510.63211,671.80599 510.28343,672.73711 509.11688,675.07021 C 508.34521,676.61355 506.09325,678.25992 505.07627,679.61589 C 503.24111,682.06278 502.02119,682.77878 500.53059,683.15143 C 499.72232,683.35349 498.1515,678.18075 498.00521,677.59559 C 497.17195,674.26258 498.2594,673.80586 500.02551,672.03975 C 500.8673,671.19796 500.81932,669.65915 500.53059,668.50422 C 499.99976,666.3809 498.00521,672.37647 498.00521,674.56513 C 498.00521,676.75379 493.90189,673.01855 491.94429,672.03975 C 488.12438,670.1298 489.01705,672.24619 489.92398,674.06005 C 490.33108,674.87425 496.00001,674.94772 496.48998,675.07021 C 498.51987,675.57768 498.67404,679.26077 499.01536,680.62605 C 499.91883,684.23994 498.75076,684.98534 495.9849,685.67681 C 493.38696,686.32629 491.32406,686.68696 488.40876,686.68696 C 485.88337,686.68696 483.35799,686.68696 480.83261,686.68696 C 477.94315,686.68696 475.69566,681.96889 474.7717,680.12097 C 473.78775,678.15307 469.90046,672.22274 471.98983,671.1609 C 483.2808,665.42275 471.28235,668.45076 470.55252,671.37011 C 469.97469,673.68145 472.3685,676.82981 473.25647,678.60574 C 474.32824,680.74928 476.43816,683.42063 477.17979,684.90387 C 477.76883,686.08196 470.34232,684.27789 470.22601,684.16158 C 467.1459,681.08147 462.47913,679.61411 459.11433,677.09051 C 456.51652,675.14215 454.18636,672.13184 452.04326,670.52452 C 449.03517,668.26845 449.71616,667.49406 445.47727,667.49406 C 442.95189,667.49406 440.42651,667.49406 437.90113,667.49406 C 436.88977,667.49406 436.3859,656.99247 436.3859,655.87731 C 436.3859,652.20706 435.71005,649.14779 436.89098,646.78594 C 438.10549,644.35691 438.09096,646.3656 435.37575,642.74533 C 434.37043,641.4049 434.6612,637.36176 434.36559,636.17933 C 433.43903,632.47306 434.78852,632.13872 437.90113,632.13872 C 440.35332,632.13872 437.96925,629.38076 437.39605,627.08796 C 436.64424,624.08073 437.20802,622.08421 439.41636,621.53212 C 440.51202,621.25821 440.51214,619.55027 440.93159,618.50166 z M 458.10418,648.80624 C 459.93029,648.34971 457.55055,645.07651 457.09403,643.2504 C 456.54925,641.07128 461.41383,644.76563 463.66002,644.76563 C 466.56742,644.76563 467.1484,647.1024 467.70063,649.31132 C 468.66463,653.16734 467.07881,653.27426 464.16509,653.857 C 461.48857,654.39231 458.8414,653.468 457.5991,652.84685 C 456.60784,652.35122 456.23204,644.55688 455.07372,642.24025 C 454.88363,641.86007 453.77667,641.37555 453.55849,641.2301 M 431.84021,597.28846 C 431.3387,596.28543 419.36275,591.80735 416.18285,590.21739 C 411.8265,588.03922 405.71886,588.3397 402.54579,585.16663 C 399.73136,582.3522 399.75702,579.30398 399.01026,575.57018 C 398.10629,571.05037 396.60043,566.70992 394.46457,562.4382 C 392.50064,558.51034 391.38141,554.25158 389.41381,550.31637 C 387.99162,547.47199 387.18207,545.43005 386.38335,542.23515 C 385.61839,539.17533 384.9133,536.40015 384.36304,533.64885 C 383.90427,531.35498 381.8006,529.06608 380.32243,527.58794 C 378.38973,525.65528 378.02293,522.35933 379.43855,520.64313 M 395.9798,566.98389 C 394.98018,565.98428 385.27369,558.17566 381.33259,557.38744 C 378.03664,556.72825 377.3809,558.35313 375.27167,559.40774 C 374.54631,559.77042 374.76659,565.87701 374.76659,566.98388 C 374.76659,567.82568 374.76659,568.66747 374.76659,569.50927 M 400.02041,577.59048 C 400.02041,581.19352 391.99831,574.39347 388.90873,572.53972 C 386.47185,571.07759 384.26172,570.01434 381.33259,570.01434 C 378.98603,570.01434 375.77461,568.24551 374.26152,567.48896 C 371.70774,566.21207 368.27033,566.70496 367.69553,569.00419 C 367.23732,570.83701 363.68685,572.27122 362.13969,573.0448 C 361.892,573.16864 357.92195,568.11373 357.08892,567.48896 C 355.45582,566.26413 351.60545,566.98388 349.51278,566.98388 C 347.40968,566.98388 344.04139,568.98308 341.93664,569.50927 C 338.69567,570.31951 334.57299,569.70868 331.33004,570.51942 C 328.78274,571.15624 327.57619,574.99665 326.78435,576.58033 C 325.6445,578.86004 325.7501,581.67929 324.76404,583.6514 C 323.20483,586.76982 322.69831,588.59437 320.72343,591.22755 C 318.98012,593.55196 317.96752,596.50884 315.16759,599.30877 C 313.02565,601.45071 311.26297,606.03988 310.11683,608.90521 C 309.21097,611.16988 309.61176,614.38485 309.61176,616.98644 C 309.61176,621.27387 310.80748,624.42864 312.64221,628.09811 C 314.30367,631.42102 314.15744,639.33699 314.15744,643.2504 C 314.15744,645.71882 315.36987,649.21079 316.17775,650.82655 C 317.97789,654.42683 319.2082,658.68981 319.2082,663.95853 C 319.2082,667.92165 320.72343,671.14219 320.72343,675.07021 C 320.72343,677.15943 322.72066,680.25856 323.75389,681.6362 C 325.87745,684.46761 328.10613,685.98843 330.31988,688.20219 C 332.0305,689.91281 333.90285,690.22249 336.88587,690.22249 C 339.20767,690.22249 342.43594,693.25007 344.46202,694.26311 C 346.81918,695.44169 348.61177,696.08544 351.02801,697.29356 C 353.02029,698.2897 356.37279,697.44057 358.09908,698.30372 C 358.71389,698.61113 360.88738,706.93154 361.12954,707.90016 C 361.68664,710.12859 362.2475,712.37202 362.64476,713.96108 C 362.78314,714.51458 368.28927,716.38236 368.70568,716.48646 C 370.84196,717.02053 374.22905,716.60461 375.77675,716.99154 C 378.43406,717.65587 380.95985,717.5898 383.35289,716.99154 C 386.3946,716.23111 391.25142,718.36975 393.45442,720.022 C 396.08044,721.99151 398.54749,724.45574 400.52548,727.09306 C 402.31994,729.48567 405.12183,730.90646 407.59655,732.14383 C 410.43065,733.56087 415.48061,734.52876 418.70823,735.17428 C 422.99686,736.03201 427.10409,737.65206 431.33514,738.70982 C 434.1187,739.40571 437.34451,739.21489 440.42651,739.21489 C 445.31132,739.21489 450.06937,739.49938 454.56865,737.69966 C 457.06967,736.69925 460.03036,736.33424 462.64987,735.67936 C 465.70897,734.91458 468.67313,731.96439 471.74124,730.12352 C 474.78359,728.29811 477.43964,726.76924 479.82246,725.57783 C 480.81155,725.08329 482.94759,720.93748 483.86307,720.022 C 486.01834,717.86672 488.01505,717.72131 490.93414,716.99154 C 494.57228,716.082 494.31102,715.7936 495.9849,712.44585 C 497.20915,709.99735 497.8762,709.22736 500.53059,707.90016 C 502.5511,706.88991 503.86401,704.76885 505.07627,702.34433 C 506.02939,700.43809 506.08643,698.57655 506.08643,695.77833 C 506.08643,693.88542 503.15464,690.01734 502.55089,689.21234 C 500.40733,686.35426 502.59456,685.65498 504.5712,684.66666 C 505.88464,684.00993 503.81359,681.57249 503.81359,681.50993 M 374.20024,715.29248 C 374.70315,715.04102 378.70762,724.97318 379.81736,726.08291 C 381.66735,727.9329 383.46058,729.39283 386.38335,730.12352 C 388.68485,730.6989 389.53557,733.27574 390.92904,734.66921 C 393.47379,737.21396 393.5759,735.01231 394.96965,733.15398 C 396.70791,730.8363 395.95486,729.08843 393.95949,727.09306 C 391.3646,724.49817 396.21782,730.86661 396.98995,731.63875 C 398.43521,733.08401 399.23408,735.62193 400.02041,737.19459 C 401.32792,739.80961 403.44802,739.36814 406.08132,738.70982 C 407.00241,738.47955 408.34215,733.20205 408.6067,732.14383 C 408.78932,731.41338 407.93327,730.79696 407.59655,730.12352 M 429.81991,738.70982 C 429.97866,738.07482 439.11082,742.06203 441.94174,743.76058 C 444.50918,745.30104 446.30667,747.62043 448.00265,749.31642 C 450.32159,751.63535 453.43241,752.72587 455.5788,754.87226 C 457.37601,756.66947 460.84982,757.83151 463.15494,758.40779 C 465.23113,758.92684 467.72663,760.69363 470.22601,761.94333 C 472.29544,762.97804 475.2282,762.95348 477.29708,762.95348 C 480.50983,762.95348 479.41149,759.79436 478.81231,757.39764 C 478.39642,755.7341 475.15,753.73534 474.26662,752.85195 C 473.00393,751.58926 469.4684,752.59941 468.20571,751.33672 C 467.22401,750.35503 470.89945,750.66329 472.24632,750.32657 M 476.28693,750.32657 C 474.40462,748.44426 480.47196,753.68178 482.85292,754.87226 C 485.42102,756.15631 486.464,756.96811 488.40876,758.91287 C 490.36369,760.8678 490.32756,764.06272 490.93414,766.48901 C 491.7092,769.58927 492.31535,771.97784 489.41891,770.52962 C 486.77076,769.20555 485.03485,767.0749 482.85292,765.98394 C 480.06735,764.59115 479.17838,765.84494 477.29708,763.96363 C 476.93994,763.60649 477.29708,762.95348 477.29708,762.4484 M 482.85292,749.8215 C 480.70676,747.67533 487.71436,753.51491 490.42906,754.87226 C 492.31066,755.81306 495.23468,756.26491 497.50013,757.39764 C 498.57821,757.93668 499.89072,763.42449 500.02551,763.96363 C 500.50577,765.88468 501.57084,769.13481 502.04582,771.0347 C 502.89812,774.44392 497.01877,771.04655 495.9849,770.52962 C 493.32252,769.19843 492.01211,768.03815 489.92398,766.99409 M 473.25647,733.15398 C 472.74399,732.89774 477.94711,739.86493 478.81231,740.73012 C 481.13035,743.04816 485.27975,743.2555 488.40876,743.2555 C 491.44872,743.2555 493.52545,745.05624 495.9849,746.28596 C 498.75756,747.67229 500.67771,748.60052 502.04582,751.33672 C 503.19077,753.62662 503.05597,755.62314 503.05597,758.40779 C 503.05597,761.23286 502.55249,763.95724 502.04582,765.98394 C 501.6028,767.75599 500.03712,768.12761 498.51028,768.50932 M 481.84276,720.02199 C 481.76377,720.33795 492.89461,728.05834 494.97475,729.61844 C 497.50105,731.51317 501.69137,732.9391 504.5712,733.65905 C 507.0513,734.27908 509.6671,734.68049 511.64226,735.17428 C 514.56599,735.90521 515.48157,736.79197 516.69303,739.21489 C 517.78914,741.40713 517.58923,743.80988 518.20826,746.28596 C 518.8419,748.82055 518.60503,751.40859 519.21841,753.86211 C 519.83404,756.32464 519.72348,758.82229 519.72348,761.43825 C 519.72348,765.46402 516.72927,764.73937 514.16765,763.45855 C 512.16979,762.45963 509.93926,759.23016 508.61181,757.90272 C 506.87974,756.17065 505.34091,756.14705 503.05597,753.86211 M 519.21841,763.45855 C 518.70671,762.94686 514.83196,756.54672 512.14734,753.86211 M 520.22856,749.8215 C 518.96012,748.55305 515.58151,743.79378 513.66257,741.2352"
           sodipodi:nodetypes="cssssssssssssssssssssssssssssssssssssssssssssssssssssssssssssssssssssssssssssssssssssssssssssssssssssssssssssssssccssssssccssssssssccsssccsssssssssssssssssssssssssssssssssssssssssssssssssccsssssssssccsssssssssccssssssccsssssccssssssccsssssssssccccc" />
        <path
           style="opacity:1;fill:#000000;fill-opacity:1;fill-rule:nonzero;stroke:none;stroke-width:1;stroke-linecap:round;stroke-linejoin:round;stroke-miterlimit:4;stroke-dasharray:none;stroke-dashoffset:0;stroke-opacity:1"
           d="M 417.42258,590.17503 C 414.74099,588.96715 414.10576,588.75461 410.61767,587.89818 C 405.70171,586.69117 404.34019,586.11549 402.86069,584.61837 C 401.30263,583.04175 400.64195,581.47883 399.98022,577.80417 C 398.90486,571.83265 397.82602,568.42554 395.1838,562.65642 C 394.43629,561.02429 393.25191,558.21155 392.55185,556.40591 C 390.95543,552.28829 391.07728,552.57878 389.72277,549.66168 C 387.70608,545.31848 387.16084,543.51365 385.01293,534.07134 C 384.47215,531.69401 383.72731,530.45695 381.06761,527.51876 C 379.71428,526.02373 379.14284,524.7644 379.14284,523.27698 C 379.14284,522.7271 379.48256,521.49251 379.63387,521.49251 C 379.69022,521.49251 380.04315,521.84718 380.41816,522.28067 C 380.79318,522.71416 381.7831,523.80797 382.61799,524.71135 C 384.79916,527.07148 385.23634,527.62681 386.90053,530.15126 C 388.82388,533.06884 389.9464,534.21138 391.96934,535.31046 C 393.80893,536.30994 395.93334,537.71534 396.97406,538.62133 C 397.44048,539.02737 398.60531,540.03937 399.56258,540.87023 C 400.51985,541.70108 401.87127,542.91427 402.56575,543.56621 C 404.00203,544.91451 405.09869,545.75923 408.5004,548.13746 C 415.26014,552.8634 419.2365,556.32198 421.66615,559.58887 C 424.77692,563.77159 425.42333,564.89672 426.62042,568.21206 C 427.5602,570.81478 427.91283,571.48525 429.70851,574.08358 C 430.04447,574.56971 430.53672,575.42203 430.80239,575.97761 C 431.73008,577.91764 431.71569,577.7861 431.76646,584.78488 L 431.81203,591.06677 L 425.58578,591.05713 L 419.35954,591.0475 L 417.42258,590.17503 z"
           id="path8046" />
        <path
           style="opacity:1;fill:#848484;fill-opacity:1;fill-rule:nonzero;stroke:none;stroke-width:1;stroke-linecap:round;stroke-linejoin:round;stroke-miterlimit:4;stroke-dasharray:none;stroke-dashoffset:0;stroke-opacity:1"
           d="M 426.02904,593.64175 L 420.84353,591.34979 L 425.96853,591.20512 C 428.7873,591.12556 431.19104,591.15795 431.3102,591.27711 C 431.42934,591.39627 431.45657,592.49274 431.37068,593.71373 L 431.21452,595.9337 L 426.02904,593.64175 z"
           id="path8048" />
        <path
           style="opacity:1;fill:#000000;fill-opacity:1;fill-rule:nonzero;stroke:none;stroke-width:1;stroke-linecap:round;stroke-linejoin:round;stroke-miterlimit:4;stroke-dasharray:none;stroke-dashoffset:0;stroke-opacity:1"
           d="M 493.80994,674.30653 C 494.05274,673.91367 494.57282,673.59225 494.96568,673.59225 C 495.35853,673.59225 495.48131,673.91367 495.23851,674.30653 C 494.99571,674.69939 494.47563,675.02082 494.08278,675.02082 C 493.68993,675.02082 493.56714,674.69939 493.80994,674.30653 z"
           id="path8052" />
        <path
           style="opacity:1;fill:#000000;fill-opacity:1;fill-rule:nonzero;stroke:none;stroke-width:1;stroke-linecap:round;stroke-linejoin:round;stroke-miterlimit:4;stroke-dasharray:none;stroke-dashoffset:0;stroke-opacity:1"
           d="M 492.91017,674.25763 C 491.89285,674.13667 491.19818,674.02087 490.82494,673.91003 C 490.4124,673.78752 490.37982,673.75379 490.11817,673.17838 C 489.83283,672.55086 489.6279,671.8991 489.69489,671.83211 C 489.7731,671.7539 490.53666,671.99963 491.26724,672.33812 C 491.67978,672.52926 492.47045,672.98501 493.02428,673.35091 C 493.98703,673.98696 494.02397,674.02276 493.86547,674.1662 C 493.70728,674.30936 493.50669,674.32856 492.91017,674.25763 L 492.91017,674.25763 z"
           id="path8054" />
        <path
           style="opacity:1;fill:#000000;fill-opacity:1;fill-rule:nonzero;stroke:none;stroke-width:1;stroke-linecap:round;stroke-linejoin:round;stroke-miterlimit:4;stroke-dasharray:none;stroke-dashoffset:0;stroke-opacity:1"
           d="M 498.93696,672.2014 C 498.93696,672.03402 499.50189,670.31341 499.76698,669.67338 C 500.01163,669.08271 500.0517,669.03006 500.10675,669.22695 C 500.28403,669.86104 500.12731,670.99697 499.80231,671.43343 C 499.56194,671.75623 498.93696,672.31088 498.93696,672.2014 L 498.93696,672.2014 z"
           id="path8056" />
        <path
           style="opacity:1;fill:#3f3f3f;fill-opacity:1;fill-rule:nonzero;stroke:none;stroke-width:1;stroke-linecap:round;stroke-linejoin:round;stroke-miterlimit:4;stroke-dasharray:none;stroke-dashoffset:0;stroke-opacity:1"
           d="M 478.95602,684.73187 C 474.74307,679.41428 469.40814,671.79193 477.30733,667.75261 C 467.91143,666.32172 469.21757,676.33948 473.88169,681.12808 C 479.02898,687.18875 469.82712,683.27561 467.1853,680.8733 C 460.28239,677.2167 454.65563,671.74904 448.78018,666.69617 C 445.27935,666.69617 441.77851,666.69617 438.27768,666.69617 C 437.07662,659.41459 437.0888,651.95059 437.80865,644.65244 C 433.79711,639.8191 434.71581,633.47556 439.09337,630.8752 C 435.31487,623.91038 445.75723,618.92978 438.07523,613.2116 C 436.0425,609.19334 432.26657,605.42072 433.11548,600.58486 C 432.97328,592.91605 433.39592,585.11675 432.90892,577.5276 C 427.93437,567.01484 422.76496,555.93978 412.57222,549.45996 C 404.71607,543.45574 397.03652,537.1816 389.38665,530.96194 C 384.07392,524.38126 376.61375,517.3751 378.188,508.06913 C 385.89593,502.36041 389.51832,513.60699 393.15291,518.44237 C 398.09344,525.90204 408.75553,524.532 414.18689,531.3942 C 421.25114,538.91816 429.56656,545.15003 438.72528,549.86624 C 444.48062,555.27418 449.2514,562.71153 450.96779,570.52027 C 452.28223,581.45066 450.80705,593.73612 457.52103,603.19879 C 465.38064,609.51459 462.70422,593.45467 460.86487,589.73266 C 458.28465,580.41129 453.18543,570.94534 456.36691,561.07581 C 460.93494,540.26178 460.76038,518.70567 459.51842,497.54354 C 458.47592,493.50717 458.67598,487.94283 463.69869,492.78786 C 471.02738,495.65533 480.24228,500.83206 479.67266,509.94087 C 479.44127,513.92141 481.48604,526.57232 477.73754,525.75298 C 475.15582,518.18481 471.1476,511.20389 468.11647,503.82409 C 464.12924,506.40509 467.16872,518.15686 470.62347,522.59726 C 476.51409,528.13989 480.94626,534.71981 479.8838,543.18337 C 480.04536,557.82744 483.59781,572.30247 482.88826,586.94573 C 480.16384,594.59395 475.02614,601.68477 476.70321,610.30595 C 476.23519,618.92692 486.35915,623.03226 493.05486,625.89261 C 497.77252,627.4158 507.68335,631.77008 499.22197,636.1164 C 494.19706,640.05998 497.09449,652.12074 503.57124,644.77101 C 504.56621,650.63994 504.39357,656.64389 504.74707,662.57843 C 512.79457,665.19495 509.48162,675.84981 503.99587,679.63329 C 497.62225,685.53206 499.09952,671.89922 501.44329,668.81524 C 498.23067,664.28785 498.30131,678.34059 493.52615,672.11826 C 487.16212,667.34771 486.89434,675.68696 493.1868,675.63827 C 501.07968,676.17887 498.34682,687.907 490.64909,685.7112 C 486.79823,685.92744 482.52581,686.54946 478.95602,684.73187 z M 467.70731,653.43091 C 472.71308,644.8189 457.63147,640.64337 453.3068,641.7508 C 456.27144,647.63633 455.02222,657.29703 464.58721,654.43835 C 465.6606,654.33357 466.87604,654.21482 467.70731,653.43091 z"
           id="path8058" />
        <path
           style="opacity:1;fill:#6e6e6e;fill-opacity:1;fill-rule:nonzero;stroke:none;stroke-width:1;stroke-linecap:round;stroke-linejoin:round;stroke-miterlimit:4;stroke-dasharray:none;stroke-dashoffset:0;stroke-opacity:1"
           d="M 432.80057,738.23102 C 424.74859,735.04784 414.83446,735.53834 407.99064,730.05542 C 400.42942,729.87577 397.09985,719.06407 389.4799,717.14859 C 380.95457,714.968 370.35252,718.8935 363.18965,712.6786 C 361.04476,705.41498 360.87271,695.11238 350.82514,696.17097 C 341.93961,690.30295 329.72902,690.26005 323.90508,680.27829 C 319.01362,672.4415 321.29177,662.45583 318.17698,653.9754 C 313.03936,644.90569 316.6881,633.92547 311.92425,624.7835 C 308.81458,615.88015 310.43303,605.45384 316.88429,598.37132 C 322.98824,591.15983 325.58362,582.04646 329.24741,573.5935 C 336.03436,569.23775 345.84449,569.41633 353.91859,567.75966 C 357.3569,567.14718 358.81148,571.35435 361.3113,573.02196 C 365.63916,575.89474 369.14819,564.05192 373.81284,568.76982 C 379.44655,570.46884 388.59887,571.75565 394.09738,576.9562 C 400.74616,581.59934 404.27054,590.17322 414.1477,590.36456 C 419.96621,594.19431 432.83166,593.78716 431.6974,603.14914 C 431.98312,611.50784 444.49515,617.84677 436.59496,624.91604 C 437.43261,629.37283 438.97219,631.81214 433.73101,633.13535 C 434.88591,643.12429 436.2929,652.30407 436.15677,662.6503 C 435.60723,673.23744 450.57343,664.27335 454.03531,673.4291 C 460.45931,678.71053 467.4406,684.99694 475.97348,685.94752 C 484.20815,688.4144 494.48437,688.33314 501.82673,683.32456 C 507.23804,681.72918 496.9759,689.1174 503.30623,691.68718 C 510.11641,701.62261 497.03668,709.40471 491.71889,715.89708 C 482.72018,716.63973 480.22558,726.67373 471.99909,729.24176 C 461.97698,736.82812 448.90979,739.07024 436.59216,738.38511 C 435.32827,738.34544 434.0595,738.36694 432.80057,738.23102 z"
           id="path8064" />
        <path
           style="opacity:1;fill:#6e6e6e;fill-opacity:1;fill-rule:nonzero;stroke:none;stroke-width:1;stroke-linecap:round;stroke-linejoin:round;stroke-miterlimit:4;stroke-dasharray:none;stroke-dashoffset:0;stroke-opacity:1"
           d="M 401.76122,738.29409 C 401.50843,738.18144 400.64429,736.77875 399.8409,735.17701 C 399.03751,733.57526 397.93991,731.70224 397.40177,731.01474 C 396.86364,730.32724 396.32218,729.43929 396.19853,729.04152 C 395.90306,728.09101 393.52702,725.65759 392.8944,725.65759 C 392.0525,725.65759 392.33898,726.52835 393.89643,728.7033 L 395.39344,730.79385 L 394.3141,732.77928 C 393.72046,733.87129 392.98053,734.81399 392.66981,734.87418 C 392.32504,734.94097 391.33077,734.01344 390.11863,732.49425 C 388.65899,730.66485 387.77485,729.88922 386.78376,729.56862 C 382.47605,728.17516 380.7006,726.53109 378.27025,721.68511 L 376.33958,717.83548 L 378.11683,718.04597 C 379.09431,718.16174 381.07796,718.06547 382.52493,717.83205 C 385.5012,717.35192 387.32345,717.64974 390.49415,719.13445 C 392.84315,720.23439 397.03861,723.83238 399.44384,726.80962 C 401.33684,729.15282 402.53123,730.11508 405.8566,731.97613 L 407.70665,733.01152 L 406.90214,735.40212 C 406.45966,736.71694 406.01055,737.8798 405.9041,737.98624 C 405.61018,738.28017 402.28454,738.52728 401.76122,738.29409 L 401.76122,738.29409 z"
           id="path8072" />
        <path
           style="opacity:1;fill:#6e6e6e;fill-opacity:1;fill-rule:nonzero;stroke:none;stroke-width:1;stroke-linecap:round;stroke-linejoin:round;stroke-miterlimit:4;stroke-dasharray:none;stroke-dashoffset:0;stroke-opacity:1"
           d="M 498.82797,771.16052 C 490.49459,770.21541 491.66834,759.4278 485.53368,755.86039 C 482.89787,752.35728 472.6706,749.18291 480.78994,754.25858 C 485.73462,755.89112 494.08248,765.28585 488.17377,768.60919 C 482.87375,765.80943 478.14541,764.24669 479.66501,757.9974 C 478.80631,754.40756 467.43971,746.05872 469.45832,752.45767 C 478.76059,750.17943 481.20821,767.46775 470.48249,761.03192 C 461.4145,757.54004 452.52463,753.22645 445.7462,746.06667 C 443.05619,742.72477 432.63882,739.86847 441.97226,739.90639 C 453.90441,740.09434 465.564,736.17786 475.10309,729.02044 C 479.74855,724.32976 485.96871,721.05047 491.06446,727.58655 C 497.30936,734.10072 506.85825,733.37369 514.2097,737.59055 C 516.96732,738.45586 517.9272,744.96066 513.87196,742.02557 C 517.52195,746.71317 520.59972,755.44162 518.09791,760.09494 C 516.18525,757.15095 510.52267,752.09127 515.0843,758.42966 C 520.30244,767.70877 509.02274,758.73172 506.5893,755.69433 C 501.82506,750.46453 497.54786,743.97006 489.85075,742.95908 C 482.92174,743.57592 478.01593,739.23729 473.92831,734.14173 C 475.66997,743.52371 486.48735,743.47918 493.58942,745.67089 C 500.75726,747.59097 505.55634,757.31174 500.68926,763.15634 C 500.14054,754.8079 490.28964,755.57376 485.68056,750.77954 C 480.46417,749.93849 491.64116,757.28215 494.11102,756.46001 C 499.0955,758.62735 501.84742,769.24284 499.75124,771.58376 L 498.82797,771.16052 L 498.82797,771.16052 z"
           id="path8074" />
        <path
           style="opacity:1;fill:#6e6e6e;fill-opacity:1;fill-rule:nonzero;stroke:none;stroke-width:1;stroke-linecap:round;stroke-linejoin:round;stroke-miterlimit:4;stroke-dasharray:none;stroke-dashoffset:0;stroke-opacity:1"
           d="M 392.64985,573.66457 C 390.52481,572.10601 386.02481,570.035 382.64986,569.06231 C 377.68108,567.63024 376.43094,566.5915 376.07916,563.60246 C 375.43219,558.10484 379.34884,557.4146 386.71039,561.72877 C 393.44531,565.67566 397.75289,570.97781 396.98901,574.38053 C 396.59531,576.13436 395.84955,576.01128 392.64986,573.66457 L 392.64985,573.66457 z"
           id="path8076" />
      </g>
      <path
         id="path8113"
         d="M 337.5,261.64789 L 373.21429,261.64789"
         style="fill:none;fill-rule:evenodd;stroke:#000000;stroke-width:1px;stroke-linecap:butt;stroke-linejoin:miter;marker-end:url(#Arrow1Lend);stroke-opacity:1" />
      <path
         id="path8632"
         d="M 424.28572,259.50503 L 460.00001,259.50503"
         style="fill:none;fill-rule:evenodd;stroke:#000000;stroke-width:1px;stroke-linecap:butt;stroke-linejoin:miter;marker-end:url(#Arrow1Lend);stroke-opacity:1" />
      <g
         id="g8644">
        <text
           xml:space="preserve"
           style="font-size:14px;font-style:normal;font-variant:normal;font-weight:normal;font-stretch:normal;text-align:start;line-height:100%;writing-mode:lr-tb;text-anchor:start;fill:#000000;fill-opacity:1;stroke:none;stroke-width:1px;stroke-linecap:butt;stroke-linejoin:miter;stroke-opacity:1;font-family:Sans;-inkscape-font-specification:Sans"
           x="347.14285"
           y="277.36218"
           id="text8634"
           sodipodi:linespacing="100%"><tspan
             sodipodi:role="line"
             id="tspan8636"
             x="347.14285"
             y="277.36218"
             style="font-weight:bold">v</tspan></text>
        <text
           xml:space="preserve"
           style="font-size:14px;font-style:normal;font-variant:normal;font-weight:normal;font-stretch:normal;text-align:start;line-height:100%;writing-mode:lr-tb;text-anchor:start;fill:#000000;fill-opacity:1;stroke:none;stroke-width:1px;stroke-linecap:butt;stroke-linejoin:miter;stroke-opacity:1;font-family:Sans;-inkscape-font-specification:Sans"
           x="356.57144"
           y="280.36218"
           id="text8640"
           sodipodi:linespacing="100%"><tspan
             sodipodi:role="line"
             id="tspan8642"
             x="356.57144"
             y="280.36218"
             style="font-size:10px">i</tspan></text>
      </g>
      <g
         transform="translate(101.54505,-2.5290186)"
         id="g8650">
        <text
           xml:space="preserve"
           style="font-size:14px;font-style:normal;font-variant:normal;font-weight:normal;font-stretch:normal;text-align:start;line-height:100%;writing-mode:lr-tb;text-anchor:start;fill:#000000;fill-opacity:1;stroke:none;stroke-width:1px;stroke-linecap:butt;stroke-linejoin:miter;stroke-opacity:1;font-family:Sans;-inkscape-font-specification:Sans"
           x="347.14285"
           y="277.36218"
           id="text8652"
           sodipodi:linespacing="100%"><tspan
             sodipodi:role="line"
             id="tspan8654"
             x="347.14285"
             y="277.36218"
             style="font-weight:bold">v</tspan></text>
        <text
           xml:space="preserve"
           style="font-size:14px;font-style:normal;font-variant:normal;font-weight:normal;font-stretch:normal;text-align:start;line-height:100%;writing-mode:lr-tb;text-anchor:start;fill:#000000;fill-opacity:1;stroke:none;stroke-width:1px;stroke-linecap:butt;stroke-linejoin:miter;stroke-opacity:1;font-family:Sans;-inkscape-font-specification:Sans"
           x="356.57144"
           y="280.36218"
           id="text8656"
           sodipodi:linespacing="100%"><tspan
             sodipodi:role="line"
             id="tspan8658"
             x="356.57144"
             y="280.36218"
             style="font-size:10px">f</tspan></text>
      </g>
    </g>
  </g>
</svg>
