<?xml version="1.0" encoding="UTF-8" standalone="no"?>
<!-- Created with Inkscape (http://www.inkscape.org/) -->

<svg
   xmlns:dc="http://purl.org/dc/elements/1.1/"
   xmlns:cc="http://creativecommons.org/ns#"
   xmlns:rdf="http://www.w3.org/1999/02/22-rdf-syntax-ns#"
   xmlns:svg="http://www.w3.org/2000/svg"
   xmlns="http://www.w3.org/2000/svg"
   xmlns:sodipodi="http://sodipodi.sourceforge.net/DTD/sodipodi-0.dtd"
   xmlns:inkscape="http://www.inkscape.org/namespaces/inkscape"
   width="800px"
   height="600px"
   id="svg3169"
   version="1.1"
   inkscape:version="0.47 r22583"
   sodipodi:docname="animation.svg"
   inkscape:export-filename="/home/guillaume/Articles/article_kineto/animation/animation004.png"
   inkscape:export-xdpi="150"
   inkscape:export-ydpi="150">
  <sodipodi:namedview
     id="base"
     pagecolor="#ffffff"
     bordercolor="#666666"
     borderopacity="1.0"
     inkscape:pageopacity="0.0"
     inkscape:pageshadow="2"
     inkscape:zoom="1.6970563"
     inkscape:cx="384.51844"
     inkscape:cy="342.11151"
     inkscape:current-layer="layer1"
     inkscape:document-units="px"
     showgrid="false"
     inkscape:window-width="1106"
     inkscape:window-height="1130"
     inkscape:window-x="0"
     inkscape:window-y="0"
     inkscape:window-maximized="0"
     showguides="true"
     inkscape:guide-bbox="true" />
  <defs
     id="defs3171">
    <inkscape:perspective
       sodipodi:type="inkscape:persp3d"
       inkscape:vp_x="0 : 300 : 1"
       inkscape:vp_y="0 : 1000 : 0"
       inkscape:vp_z="800 : 300 : 1"
       inkscape:persp3d-origin="400 : 200 : 1"
       id="perspective3177" />
    <inkscape:perspective
       id="perspective3081"
       inkscape:persp3d-origin="0.5 : 0.33333333 : 1"
       inkscape:vp_z="1 : 0.5 : 1"
       inkscape:vp_y="0 : 1000 : 0"
       inkscape:vp_x="0 : 0.5 : 1"
       sodipodi:type="inkscape:persp3d" />
    <filter
       color-interpolation-filters="sRGB"
       inkscape:collect="always"
       id="filter42413-6-2-3-8-2">
      <feBlend
         inkscape:collect="always"
         mode="multiply"
         in2="BackgroundImage"
         id="feBlend42415-0-7-5-2-4" />
    </filter>
    <inkscape:perspective
       id="perspective5040"
       inkscape:persp3d-origin="0.5 : 0.33333333 : 1"
       inkscape:vp_z="1 : 0.5 : 1"
       inkscape:vp_y="0 : 1000 : 0"
       inkscape:vp_x="0 : 0.5 : 1"
       sodipodi:type="inkscape:persp3d" />
    <filter
       color-interpolation-filters="sRGB"
       inkscape:collect="always"
       id="filter42413-6-2-3-8-2-2">
      <feBlend
         inkscape:collect="always"
         mode="multiply"
         in2="BackgroundImage"
         id="feBlend42415-0-7-5-2-4-5" />
    </filter>
  </defs>
  <metadata
     id="metadata3174">
    <rdf:RDF>
      <cc:Work
         rdf:about="">
        <dc:format>image/svg+xml</dc:format>
        <dc:type
           rdf:resource="http://purl.org/dc/dcmitype/StillImage" />
        <dc:title></dc:title>
      </cc:Work>
    </rdf:RDF>
  </metadata>
  <g
     inkscape:groupmode="layer"
     id="layer2"
     inkscape:label="fond"
     sodipodi:insensitive="true">
    <rect
       style="color:#000000;fill:#e4f7f9;fill-opacity:1;fill-rule:nonzero;stroke:#ffffff;stroke-width:1.5;stroke-linecap:butt;stroke-linejoin:round;stroke-miterlimit:4;stroke-opacity:1;stroke-dasharray:none;stroke-dashoffset:0;marker:none;visibility:visible;display:inline;overflow:visible;enable-background:accumulate"
       id="rect5219"
       width="800"
       height="600"
       x="0"
       y="0" />
  </g>
  <g
     id="layer1"
     inkscape:label="Layer 1"
     inkscape:groupmode="layer"
     style="display:inline">
    <path
       id="path20798"
       d="m 200.86106,378.09311 410.495,0"
       style="color:#000000;fill:none;stroke:#ff7f2a;stroke-width:7.95619726;stroke-linecap:butt;stroke-linejoin:round;stroke-miterlimit:4;stroke-opacity:1;stroke-dasharray:none;stroke-dashoffset:0;marker:none;visibility:visible;display:inline;overflow:visible;enable-background:accumulate"
       sodipodi:nodetypes="cc" />
    <path
       sodipodi:type="arc"
       style="color:#000000;fill:none;stroke:#000000;stroke-width:1.01741254;stroke-linecap:round;stroke-linejoin:round;stroke-miterlimit:4;stroke-opacity:1;stroke-dasharray:none;stroke-dashoffset:0;marker:none;visibility:visible;display:inline;overflow:visible;enable-background:accumulate"
       id="path7815"
       sodipodi:cx="197.54796"
       sodipodi:cy="457.02246"
       sodipodi:rx="3.2703688"
       sodipodi:ry="2.7842329"
       d="m 200.81833,457.02246 a 3.2703688,2.7842329 0 1 1 -6.54074,0 3.2703688,2.7842329 0 1 1 6.54074,0 z"
       transform="matrix(1.2729914,0,0,1.5912392,67.484154,-376.40958)" />
    <path
       style="font-size:12px;font-style:normal;font-variant:normal;font-weight:normal;font-stretch:normal;text-align:start;line-height:107.00000525%;writing-mode:lr-tb;text-anchor:start;fill:#cccccc;fill-opacity:0.99452054;fill-rule:nonzero;stroke:#2769d9;stroke-width:0;stroke-linecap:butt;stroke-linejoin:miter;stroke-miterlimit:4;stroke-opacity:1;stroke-dasharray:none;display:inline;font-family:Arial;-inkscape-font-specification:Arial"
       d="m 381.09773,280.32988 c -0.17262,-29.19418 17.96781,-63.08338 17.96781,-92.62815 0,-64.59802 -23.70212,-50.76025 -22.34905,-31.68156 1.6853,39.25373 -10.57982,61.73325 -9.70542,101.02457 1.87801,20.09148 4.84272,83.38956 6.17204,103.50092 0.42813,12.8954 3.84279,35.59273 2.38829,96.07894 -0.33271,13.83581 21.80521,-9.06007 22.47181,-17.91885 5.1538,-68.4916 -13.66886,-71.1183 -16.56109,-96.19412 -0.7188,-12.25018 -0.31198,-49.93492 -0.38439,-62.18175 z"
       id="path4149"
       sodipodi:nodetypes="cscccsscs" />
    <path
       sodipodi:nodetypes="cccccccccccccccccccccccccccc"
       id="path7813-2"
       style="color:#000000;fill:none;stroke:#ab37c8;stroke-width:1.59123909;stroke-linecap:round;stroke-linejoin:round;stroke-miterlimit:4;stroke-opacity:1;stroke-dasharray:none;stroke-dashoffset:0;marker:none;visibility:visible;display:inline;overflow:visible;enable-background:accumulate"
       d="m 324.19764,350.69847 9.89006,0 m 16.224,-8.2841 7.00794,0.14019 0.0936,15.50829 -2.29644,0 -1.72139,4.49266 -1.72137,-8.73113 -1.72136,8.73113 -1.72138,-8.80125 -1.72137,8.80125 -1.72136,-8.80125 -1.72139,8.94147 c -0.87542,-3.091 -0.84593,-6.03598 -1.72137,-8.94147 l -1.72135,4.51894 -4.81804,-0.21035 0,-15.92898 10.84449,0 m -2.09,-3.18465 6.26607,0 -0.1871,6.93022 -6.54673,0 m 0.54112,-6.14181 2.40665,-0.0702 0,5.35339 -2.92025,0 m 14.27115,4.39979 10.47943,0" />
    <path
       sodipodi:nodetypes="cccccccccc"
       id="path3198-9"
       d="m 381.1846,294.18288 5.99071,0 4.03524,-22.51149 4.03525,43.86722 4.03523,-43.86722 4.03524,43.86722 4.03525,-43.86722 4.03524,43.86722 4.03525,-21.35573 4.51208,0"
       style="font-size:12px;font-style:normal;font-variant:normal;font-weight:normal;font-stretch:normal;text-align:start;line-height:107.00000525%;writing-mode:lr-tb;text-anchor:start;fill:none;stroke:#ff00ff;stroke-width:3.67314696;stroke-linecap:butt;stroke-linejoin:round;stroke-miterlimit:4;stroke-opacity:1;stroke-dasharray:none;display:inline;font-family:Arial;-inkscape-font-specification:Arial" />
    <path
       transform="matrix(1.2729914,0,0,1.5912392,67.511212,-410.18952)"
       d="m 200.81833,457.02246 a 3.2703688,2.7842329 0 1 1 -6.54074,0 3.2703688,2.7842329 0 1 1 6.54074,0 z"
       sodipodi:ry="2.7842329"
       sodipodi:rx="3.2703688"
       sodipodi:cy="457.02246"
       sodipodi:cx="197.54796"
       id="path22828"
       style="color:#000000;fill:none;stroke:#000000;stroke-width:1.01741254;stroke-linecap:round;stroke-linejoin:round;stroke-miterlimit:4;stroke-opacity:1;stroke-dasharray:none;stroke-dashoffset:0;marker:none;visibility:visible;display:inline;overflow:visible;enable-background:accumulate"
       sodipodi:type="arc" />
    <path
       d="m 324.19764,316.91853 9.89006,0 m 16.224,-8.2841 7.00794,0.14019 0.0936,15.50829 -2.29644,0 -1.72139,4.49266 -1.72137,-8.73113 -1.72136,8.73113 -1.72138,-8.80125 -1.72137,8.80125 -1.72136,-8.80125 -1.72139,8.94147 c -0.87542,-3.091 -0.84593,-6.03598 -1.72137,-8.94147 l -1.72135,4.51894 -4.81804,-0.21035 0,-15.92898 10.84449,0 m -2.09,-3.18465 6.26607,0 -0.1871,6.93022 -6.54673,0 m 0.54112,-6.14181 2.40665,-0.0702 0,5.35339 -2.92025,0 m 14.27115,4.39979 10.47943,0"
       style="color:#000000;fill:none;stroke:#ab37c8;stroke-width:1.59123909;stroke-linecap:round;stroke-linejoin:round;stroke-miterlimit:4;stroke-opacity:1;stroke-dasharray:none;stroke-dashoffset:0;marker:none;visibility:visible;display:inline;overflow:visible;enable-background:accumulate"
       id="path22832"
       sodipodi:nodetypes="cccccccccccccccccccccccccccc" />
    <path
       sodipodi:type="arc"
       style="color:#000000;fill:none;stroke:#000000;stroke-width:1.01741254;stroke-linecap:round;stroke-linejoin:round;stroke-miterlimit:4;stroke-opacity:1;stroke-dasharray:none;stroke-dashoffset:0;marker:none;visibility:visible;display:inline;overflow:visible;enable-background:accumulate"
       id="path22834"
       sodipodi:cx="197.54796"
       sodipodi:cy="457.02246"
       sodipodi:rx="3.2703688"
       sodipodi:ry="2.7842329"
       d="m 200.81833,457.02246 a 3.2703688,2.7842329 0 1 1 -6.54074,0 3.2703688,2.7842329 0 1 1 6.54074,0 z"
       transform="matrix(1.2729914,0,0,1.5912392,67.484154,-443.96945)" />
    <path
       sodipodi:nodetypes="cccccccccccccccccccccccccccc"
       id="path22838"
       style="color:#000000;fill:none;stroke:#ab37c8;stroke-width:1.59123909;stroke-linecap:round;stroke-linejoin:round;stroke-miterlimit:4;stroke-opacity:1;stroke-dasharray:none;stroke-dashoffset:0;marker:none;visibility:visible;display:inline;overflow:visible;enable-background:accumulate"
       d="m 324.19764,283.1386 9.89006,0 m 16.224,-8.2841 7.00794,0.14019 0.0936,15.50829 -2.29644,0 -1.72139,4.49266 -1.72137,-8.73113 -1.72136,8.73113 -1.72138,-8.80125 -1.72137,8.80125 -1.72136,-8.80125 -1.72139,8.94147 c -0.87542,-3.091 -0.84593,-6.03598 -1.72137,-8.94147 l -1.72135,4.51894 -4.81804,-0.21035 0,-15.92898 10.84449,0 m -2.09,-3.18465 6.26607,0 -0.1871,6.93022 -6.54673,0 m 0.54112,-6.14181 2.40665,-0.0702 0,5.35339 -2.92025,0 m 14.27115,4.39979 10.47943,0" />
    <path
       transform="matrix(1.2729914,0,0,1.5912392,66.272097,-481.03355)"
       d="m 200.81833,457.02246 a 3.2703688,2.7842329 0 1 1 -6.54074,0 3.2703688,2.7842329 0 1 1 6.54074,0 z"
       sodipodi:ry="2.7842329"
       sodipodi:rx="3.2703688"
       sodipodi:cy="457.02246"
       sodipodi:cx="197.54796"
       id="path22840"
       style="color:#000000;fill:none;stroke:#000000;stroke-width:1.01741254;stroke-linecap:round;stroke-linejoin:round;stroke-miterlimit:4;stroke-opacity:1;stroke-dasharray:none;stroke-dashoffset:0;marker:none;visibility:visible;display:inline;overflow:visible;enable-background:accumulate"
       sodipodi:type="arc" />
    <path
       d="m 321.84061,246.0745 10.42381,0 m 17.0996,-8.2841 7.38615,0.14019 0.0987,15.50829 -2.42038,0 -1.81429,4.49266 -1.81427,-8.73113 -1.81426,8.73113 -1.81428,-8.80125 -1.81427,8.80125 -1.81426,-8.80125 -1.81429,8.94147 c -0.92267,-3.091 -0.89159,-6.03598 -1.81427,-8.94147 l -1.81425,4.51894 -5.07807,-0.21035 0,-15.92898 11.42976,0 m -2.2028,-3.18465 6.60425,0 -0.1972,6.93022 -6.90005,0 m 0.57032,-6.14181 2.53654,-0.0702 0,5.35339 -3.07786,0 m 15.04135,4.39979 11.045,0"
       style="color:#000000;fill:none;stroke:#ab37c8;stroke-width:1.59123909;stroke-linecap:round;stroke-linejoin:round;stroke-miterlimit:4;stroke-opacity:1;stroke-dasharray:none;stroke-dashoffset:0;marker:none;visibility:visible;display:inline;overflow:visible;enable-background:accumulate"
       id="path22844"
       sodipodi:nodetypes="cccccccccccccccccccccccccccc" />
    <path
       style="fill:#4761e7;stroke:none;display:inline"
       d="m 304.29048,247.95454 c -3.67151,-2.24124 7.22809,-9.65436 9.2294,-9.16386 1.03944,0.2547 4.41102,5.99766 2.9754,6.76041 -1.43216,0.76096 -1.69105,-3.59883 -3.15539,-4.14291 -3.61362,-1.34265 -5.37791,8.78755 -9.04941,6.54636 z"
       id="path4549-0-9"
       sodipodi:nodetypes="cszsz"
       inkscape:transform-center-x="-4.4223389"
       inkscape:transform-center-y="-2.8510781" />
    <path
       id="path3012"
       style="color:#000000;fill:none;stroke:#4761e7;stroke-width:8.46136665;stroke-linecap:butt;stroke-linejoin:miter;stroke-miterlimit:4;stroke-opacity:1;stroke-dasharray:none;stroke-dashoffset:0;marker:none;visibility:visible;display:inline;overflow:visible;enable-background:accumulate"
       d="m 608.33347,350.82247 -113.40354,0 m 113.40354,-33.77994 -57.64242,0 m 57.64242,-33.77993 -94.97632,0 m 94.97632,-37.0641 -65.01334,0 m -352.47095,104.62397 78.03132,0 m -78.03132,-33.77994 37.00001,0 m -37.00001,-33.77993 73.7938,0 m -73.7938,-37.0641 116.94024,0"
       sodipodi:nodetypes="cccccccccccccccc" />
    <rect
       style="font-size:12px;font-style:normal;font-variant:normal;font-weight:normal;font-stretch:normal;text-align:start;line-height:107.00000525%;writing-mode:lr-tb;text-anchor:start;fill:#ff0000;fill-opacity:1;fill-rule:nonzero;stroke:none;display:inline;font-family:Arial;-inkscape-font-specification:Arial"
       id="spbR"
       width="28.650791"
       height="160.01732"
       x="181.9471"
       y="229.56523"
       inkscape:label="#rect4792" />
    <rect
       y="229.56523"
       x="-618.05292"
       height="160.01732"
       width="28.650791"
       id="spbL"
       style="font-size:12px;font-style:normal;font-variant:normal;font-weight:normal;font-stretch:normal;text-align:start;line-height:107.00000525%;writing-mode:lr-tb;text-anchor:start;fill:#ff0000;fill-opacity:1;fill-rule:nonzero;stroke:none;display:inline;font-family:Arial;-inkscape-font-specification:Arial"
       transform="scale(-1,1)"
       inkscape:label="#rect3018" />
    <path
       style="fill:#4761e7;stroke:none;display:inline"
       d="m 262.10031,285.54716 c -4.30024,-0.10522 1.43253,-11.97497 3.41097,-12.55084 1.02753,-0.29914 6.81888,2.98862 5.95697,4.36699 -0.8598,1.37509 -3.2639,-2.27115 -4.8041,-2.01017 -3.80082,0.64404 -0.26363,10.2992 -4.56384,10.19402 z"
       id="path4164" />
    <path
       style="fill:#4761e7;stroke:none;display:inline"
       d="m 225.36373,319.32709 c -4.30024,-0.10522 1.43253,-11.97497 3.41097,-12.55084 1.02753,-0.29914 6.81888,2.98862 5.95697,4.36699 -0.8598,1.37509 -3.2639,-2.27115 -4.8041,-2.01017 -3.80082,0.64404 -0.26363,10.2992 -4.56384,10.19402 z"
       id="path4166" />
    <path
       style="fill:#4761e7;stroke:none;display:inline"
       d="m 266.33254,353.10703 c -4.30024,-0.10522 1.43253,-11.97497 3.41097,-12.55084 1.02753,-0.29914 6.81888,2.98862 5.95697,4.36699 -0.8598,1.37509 -3.2639,-2.27115 -4.8041,-2.01017 -3.80082,0.64404 -0.26363,10.2992 -4.56384,10.19402 z"
       id="path4168" />
    <path
       style="fill:#4761e7;stroke:none;display:inline"
       d="m 515.90862,285.54716 c 4.30024,-0.10522 -1.43253,-11.97497 -3.41097,-12.55084 -1.02753,-0.29914 -6.81888,2.98862 -5.95697,4.36699 0.8598,1.37509 3.2639,-2.27115 4.8041,-2.01017 3.80082,0.64404 0.26363,10.2992 4.56384,10.19402 z"
       id="path4170"
       sodipodi:nodetypes="cszsz"
       inkscape:transform-center-x="3.9232878"
       inkscape:transform-center-y="-4.2802655" />
    <path
       inkscape:transform-center-y="-4.2802655"
       inkscape:transform-center-x="3.9232878"
       sodipodi:nodetypes="cszsz"
       id="path4172"
       d="m 553.17205,319.32709 c 4.30024,-0.10522 -1.43253,-11.97497 -3.41097,-12.55084 -1.02753,-0.29914 -6.81888,2.98862 -5.95697,4.36699 0.8598,1.37509 3.2639,-2.27115 4.8041,-2.01017 3.80082,0.64404 0.26363,10.2992 4.56384,10.19402 z"
       style="fill:#4761e7;stroke:none;display:inline" />
    <path
       inkscape:transform-center-y="-4.2802655"
       inkscape:transform-center-x="3.9232878"
       sodipodi:nodetypes="cszsz"
       id="path4176"
       d="m 545.90862,248.48306 c 4.30024,-0.10522 -1.43253,-11.97497 -3.41097,-12.55084 -1.02753,-0.29914 -6.81888,2.98862 -5.95697,4.36699 0.8598,1.37509 3.2639,-2.27115 4.8041,-2.01017 3.80082,0.64404 0.26363,10.2992 4.56384,10.19402 z"
       style="fill:#4761e7;stroke:none;display:inline" />
    <path
       sodipodi:nodetypes="csczcsscs"
       id="path5013"
       d="m 418.16664,261.6324 c -0.83709,-20.27988 -13.33333,-19.3101 -13.33333,-92.18187 0,-40.44171 24.68489,-36.37242 23.33182,-17.29373 -1.6853,39.25373 1.97237,70.72657 4.1317,100.41797 2.15933,29.6914 3.99611,69.24742 2.66679,89.35878 -0.42813,12.8954 -7.37832,55.03817 -5.92382,115.52438 0.33271,13.83581 -21.80521,-9.06007 -22.47181,-17.91885 -5.1538,-68.4916 10.13332,-73.47532 13.02555,-98.55114 0.7188,-12.25018 -0.58648,-58.9952 -1.4269,-79.35554 z"
       style="font-size:12px;font-style:normal;font-variant:normal;font-weight:normal;font-stretch:normal;text-align:start;line-height:107.00000525%;writing-mode:lr-tb;text-anchor:start;fill:#cccccc;fill-opacity:0.99452054;fill-rule:nonzero;stroke:#2769d9;stroke-width:0;stroke-linecap:butt;stroke-linejoin:miter;stroke-miterlimit:4;stroke-opacity:1;stroke-dasharray:none;display:inline;font-family:Arial;-inkscape-font-specification:Arial" />
    <path
       transform="matrix(-2.7205676,0,0,1.5912392,1562.6252,-380.57698)"
       d="m 440.32597,425.67249 a 3.5864964,51.23595 0 1 1 -7.17299,0 3.5864964,51.23595 0 1 1 7.17299,0 z"
       sodipodi:ry="51.23595"
       sodipodi:rx="3.5864964"
       sodipodi:cy="425.67249"
       sodipodi:cx="436.73947"
       id="path22951-2"
       style="color:#000000;fill:#44ab00;fill-opacity:1;fill-rule:evenodd;stroke:#00cd00;stroke-width:0;stroke-linecap:butt;stroke-linejoin:miter;stroke-miterlimit:4;stroke-opacity:1;stroke-dasharray:none;stroke-dashoffset:0;marker:none;visibility:visible;display:inline;overflow:visible;filter:url(#filter42413-6-2-3-8-2-2);enable-background:accumulate"
       sodipodi:type="arc" />
    <path
       transform="matrix(-1.2729914,0,0,1.5912392,738.80502,-376.40958)"
       d="m 200.81833,457.02246 a 3.2703688,2.7842329 0 1 1 -6.54074,0 3.2703688,2.7842329 0 1 1 6.54074,0 z"
       sodipodi:ry="2.7842329"
       sodipodi:rx="3.2703688"
       sodipodi:cy="457.02246"
       sodipodi:cx="197.54796"
       id="path5095"
       style="color:#000000;fill:none;stroke:#000000;stroke-width:1.01741254;stroke-linecap:round;stroke-linejoin:round;stroke-miterlimit:4;stroke-opacity:1;stroke-dasharray:none;stroke-dashoffset:0;marker:none;visibility:visible;display:inline;overflow:visible;enable-background:accumulate"
       sodipodi:type="arc" />
    <path
       style="fill:#4761e7;stroke:none;display:inline"
       d="m 500.49523,352.82684 c 3.6715,-2.24124 -7.22809,-9.65436 -9.22941,-9.16386 -1.03944,0.2547 -4.41101,5.99766 -2.97539,6.76041 1.43216,0.76096 1.69104,-3.59883 3.15539,-4.14291 3.61363,-1.34265 5.37791,8.78756 9.04941,6.54636 z"
       id="path4174"
       sodipodi:nodetypes="cszsz"
       inkscape:transform-center-x="4.8803731"
       inkscape:transform-center-y="-2.7069136" />
    <path
       d="m 482.80558,350.69847 -10.95757,0 m -17.97519,-8.2841 -7.76437,0.14019 -0.1037,15.50829 2.54431,0 1.9072,4.49266 1.90717,-8.73113 1.90716,8.73113 1.90718,-8.80125 1.90717,8.80125 1.90716,-8.80125 1.9072,8.94147 c 0.96991,-3.091 0.93724,-6.03598 1.90717,-8.94147 l 1.90715,4.51894 5.33809,-0.21035 0,-15.92898 -12.01503,0 m 2.31559,-3.18465 -6.94241,0 0.20729,6.93022 7.25337,0 m -0.59952,-6.14181 -2.66642,-0.0702 0,5.35339 3.23545,0 m -15.81155,4.39979 -11.61056,0"
       style="color:#000000;fill:none;stroke:#ab37c8;stroke-width:1.59123921;stroke-linecap:round;stroke-linejoin:round;stroke-miterlimit:4;stroke-opacity:1;stroke-dasharray:none;stroke-dashoffset:0;marker:none;visibility:visible;display:inline;overflow:visible;enable-background:accumulate"
       id="path5097"
       sodipodi:nodetypes="cccccccccccccccccccccccccccc" />
    <path
       sodipodi:type="arc"
       style="color:#000000;fill:none;stroke:#000000;stroke-width:1.01741254;stroke-linecap:round;stroke-linejoin:round;stroke-miterlimit:4;stroke-opacity:1;stroke-dasharray:none;stroke-dashoffset:0;marker:none;visibility:visible;display:inline;overflow:visible;enable-background:accumulate"
       id="path5099"
       sodipodi:cx="197.54796"
       sodipodi:cy="457.02246"
       sodipodi:rx="3.2703688"
       sodipodi:ry="2.7842329"
       d="m 200.81833,457.02246 a 3.2703688,2.7842329 0 1 1 -6.54074,0 3.2703688,2.7842329 0 1 1 6.54074,0 z"
       transform="matrix(-1.2729914,0,0,1.5912392,734.77796,-410.18952)" />
    <path
       sodipodi:nodetypes="cccccccccccccccccccccccccccc"
       id="path5101"
       style="color:#000000;fill:none;stroke:#ab37c8;stroke-width:1.59123909;stroke-linecap:round;stroke-linejoin:round;stroke-miterlimit:4;stroke-opacity:1;stroke-dasharray:none;stroke-dashoffset:0;marker:none;visibility:visible;display:inline;overflow:visible;enable-background:accumulate"
       d="m 478.09152,316.91853 -9.89006,0 m -16.224,-8.2841 -7.00794,0.14019 -0.0936,15.50829 2.29644,0 1.72139,4.49266 1.72137,-8.73113 1.72136,8.73113 1.72138,-8.80125 1.72137,8.80125 1.72136,-8.80125 1.72139,8.94147 c 0.87542,-3.091 0.84593,-6.03598 1.72137,-8.94147 l 1.72135,4.51894 4.81804,-0.21035 0,-15.92898 -10.84449,0 m 2.09,-3.18465 -6.26607,0 0.1871,6.93022 6.54673,0 m -0.54112,-6.14181 -2.40665,-0.0702 0,5.35339 2.92025,0 m -14.27115,4.39979 -10.47943,0" />
    <path
       transform="matrix(-1.2729914,0,0,1.5912392,734.80502,-443.96945)"
       d="m 200.81833,457.02246 a 3.2703688,2.7842329 0 1 1 -6.54074,0 3.2703688,2.7842329 0 1 1 6.54074,0 z"
       sodipodi:ry="2.7842329"
       sodipodi:rx="3.2703688"
       sodipodi:cy="457.02246"
       sodipodi:cx="197.54796"
       id="path5103"
       style="color:#000000;fill:none;stroke:#000000;stroke-width:1.01741254;stroke-linecap:round;stroke-linejoin:round;stroke-miterlimit:4;stroke-opacity:1;stroke-dasharray:none;stroke-dashoffset:0;marker:none;visibility:visible;display:inline;overflow:visible;enable-background:accumulate"
       sodipodi:type="arc" />
    <path
       d="m 478.09152,283.1386 -9.89006,0 m -16.224,-8.2841 -7.00794,0.14019 -0.0936,15.50829 2.29644,0 1.72139,4.49266 1.72137,-8.73113 1.72136,8.73113 1.72138,-8.80125 1.72137,8.80125 1.72136,-8.80125 1.72139,8.94147 c 0.87542,-3.091 0.84593,-6.03598 1.72137,-8.94147 l 1.72135,4.51894 4.81804,-0.21035 0,-15.92898 -10.84449,0 m 2.09,-3.18465 -6.26607,0 0.1871,6.93022 6.54673,0 m -0.54112,-6.14181 -2.40665,-0.0702 0,5.35339 2.92025,0 m -14.27115,4.39979 -10.47943,0"
       style="color:#000000;fill:none;stroke:#ab37c8;stroke-width:1.59123909;stroke-linecap:round;stroke-linejoin:round;stroke-miterlimit:4;stroke-opacity:1;stroke-dasharray:none;stroke-dashoffset:0;marker:none;visibility:visible;display:inline;overflow:visible;enable-background:accumulate"
       id="path5105"
       sodipodi:nodetypes="cccccccccccccccccccccccccccc" />
    <path
       sodipodi:type="arc"
       style="color:#000000;fill:none;stroke:#000000;stroke-width:1.01741254;stroke-linecap:round;stroke-linejoin:round;stroke-miterlimit:4;stroke-opacity:1;stroke-dasharray:none;stroke-dashoffset:0;marker:none;visibility:visible;display:inline;overflow:visible;enable-background:accumulate"
       id="path5107"
       sodipodi:cx="197.54796"
       sodipodi:cy="457.02246"
       sodipodi:rx="3.2703688"
       sodipodi:ry="2.7842329"
       d="m 200.81833,457.02246 a 3.2703688,2.7842329 0 1 1 -6.54074,0 3.2703688,2.7842329 0 1 1 6.54074,0 z"
       transform="matrix(-1.2729914,0,0,1.5912392,734.60633,-481.03355)" />
    <path
       sodipodi:nodetypes="cccccccccccccccccccccccccccc"
       id="path5109"
       style="color:#000000;fill:none;stroke:#ab37c8;stroke-width:1.59123909;stroke-linecap:round;stroke-linejoin:round;stroke-miterlimit:4;stroke-opacity:1;stroke-dasharray:none;stroke-dashoffset:0;marker:none;visibility:visible;display:inline;overflow:visible;enable-background:accumulate"
       d="m 478.09152,246.0745 -9.89006,0 m -16.224,-8.2841 -7.00794,0.14019 -0.0936,15.50829 2.29644,0 1.72139,4.49266 1.72137,-8.73113 1.72136,8.73113 1.72138,-8.80125 1.72137,8.80125 1.72136,-8.80125 1.72139,8.94147 c 0.87542,-3.091 0.84593,-6.03598 1.72137,-8.94147 l 1.72135,4.51894 4.81804,-0.21035 0,-15.92898 -10.84449,0 m 2.09,-3.18465 -6.26607,0 0.1871,6.93022 6.54673,0 m -0.54112,-6.14181 -2.40665,-0.0702 0,5.35339 2.92025,0 m -14.27115,4.39979 -10.47943,0" />
    <path
       transform="matrix(-2.7205676,0,0,1.5912392,1615.3383,-379.09189)"
       d="m 440.32597,425.67249 a 3.5864964,51.23595 0 1 1 -7.17299,0 3.5864964,51.23595 0 1 1 7.17299,0 z"
       sodipodi:ry="51.23595"
       sodipodi:rx="3.5864964"
       sodipodi:cy="425.67249"
       sodipodi:cx="436.73947"
       id="path22951"
       style="color:#000000;fill:#44ab00;fill-opacity:1;fill-rule:evenodd;stroke:#00cd00;stroke-width:0;stroke-linecap:butt;stroke-linejoin:miter;stroke-miterlimit:4;stroke-opacity:1;stroke-dasharray:none;stroke-dashoffset:0;marker:none;visibility:visible;display:inline;overflow:visible;filter:url(#filter42413-6-2-3-8-2);enable-background:accumulate"
       sodipodi:type="arc" />
  </g>
</svg>
