<?xml version="1.0" encoding="UTF-8" standalone="no"?>
<!-- Created with Inkscape (http://www.inkscape.org/) -->

<svg
   xmlns:dc="http://purl.org/dc/elements/1.1/"
   xmlns:cc="http://creativecommons.org/ns#"
   xmlns:rdf="http://www.w3.org/1999/02/22-rdf-syntax-ns#"
   xmlns:svg="http://www.w3.org/2000/svg"
   xmlns="http://www.w3.org/2000/svg"
   xmlns:sodipodi="http://sodipodi.sourceforge.net/DTD/sodipodi-0.dtd"
   xmlns:inkscape="http://www.inkscape.org/namespaces/inkscape"
   width="700"
   height="200"
   id="svg2"
   version="1.1"
   inkscape:version="0.48.3.1 r9886"
   sodipodi:docname="bandeau.svg"
   inkscape:export-filename="/home/guillaume/mitotic-machine.org/medias/bandeau.png"
   inkscape:export-xdpi="90"
   inkscape:export-ydpi="90">
  <defs
     id="defs4" />
  <sodipodi:namedview
     id="base"
     pagecolor="#ffffff"
     bordercolor="#666666"
     borderopacity="1.0"
     inkscape:pageopacity="0.0"
     inkscape:pageshadow="2"
     inkscape:zoom="0.7"
     inkscape:cx="328.71142"
     inkscape:cy="169.02874"
     inkscape:document-units="px"
     inkscape:current-layer="layer1"
     showgrid="false"
     borderlayer="false"
     inkscape:snap-page="true"
     showborder="true"
     inkscape:window-width="1083"
     inkscape:window-height="554"
     inkscape:window-x="753"
     inkscape:window-y="351"
     inkscape:window-maximized="0" />
  <metadata
     id="metadata7">
    <rdf:RDF>
      <cc:Work
         rdf:about="">
        <dc:format>image/svg+xml</dc:format>
        <dc:type
           rdf:resource="http://purl.org/dc/dcmitype/StillImage" />
        <dc:title></dc:title>
      </cc:Work>
    </rdf:RDF>
  </metadata>
  <g
     inkscape:label="Calque 1"
     inkscape:groupmode="layer"
     id="layer1"
     transform="translate(0,-852.36218)">
    <text
       xml:space="preserve"
       style="font-size:64px;font-style:normal;font-variant:normal;font-weight:normal;font-stretch:normal;text-align:end;line-height:89.99999762%;letter-spacing:0px;word-spacing:0px;writing-mode:lr-tb;text-anchor:end;fill:#000000;fill-opacity:1;stroke:none;font-family:Droid Sans;-inkscape-font-specification:Droid Sans"
       x="606"
       y="909.90131"
       id="text3917"
       sodipodi:linespacing="89.999998%"><tspan
         sodipodi:role="line"
         x="606"
         y="909.90131"
         id="tspan3929">The mitotic machine</tspan></text>
    <text
       xml:space="preserve"
       style="font-size:48px;font-style:normal;font-variant:normal;font-weight:normal;font-stretch:normal;text-align:end;line-height:125%;letter-spacing:0px;word-spacing:0px;writing-mode:lr-tb;text-anchor:end;fill:#000000;fill-opacity:1;stroke:none;font-family:Droid Sans;-inkscape-font-specification:Droid Sans"
       x="684.73438"
       y="1034.1793"
       id="text3923"
       sodipodi:linespacing="125%"><tspan
         sodipodi:role="line"
         id="tspan3925"
         x="684.73438"
         y="1034.1793">and other tiny intersting things</tspan></text>
    <g
       id="g3976"
       transform="translate(20,1.7562565)">
      <g
         transform="translate(-0.23274529,66.67007)"
         id="text3862"
         style="font-size:64px;font-style:normal;font-variant:normal;font-weight:normal;font-stretch:normal;line-height:125%;letter-spacing:0px;word-spacing:0px;fill:#000000;fill-opacity:1;stroke:none;font-family:Bitstream Charter;-inkscape-font-specification:Bitstream Charter">
        <path
           inkscape:connector-curvature="0"
           id="path3943"
           d="m 249.73376,883.54811 0,4.288 14.4,0 0,-4.288 -14.4,0" />
        <path
           inkscape:connector-curvature="0"
           id="path3945"
           d="m 270.10876,883.54811 0,4.288 14.4,0 0,-4.288 -14.4,0" />
        <path
           inkscape:connector-curvature="0"
           id="path3947"
           d="m 290.48376,883.54811 0,4.288 14.4,0 0,-4.288 -14.4,0" />
        <path
           inkscape:connector-curvature="0"
           id="path3949"
           d="m 334.60276,858.90811 c -0.256,0 -0.576,0 -0.832,0 -8.76799,0 -12.416,3.00801 -12.416,10.304 l 0,6.528 c 0,5.95199 -1.92001,8.256 -7.68,8.256 -0.512,0 -1.088,0 -1.664,-0.064 l 0,2.816 c 0.512,0 1.024,-0.064 1.472,-0.064 5.88799,0 7.872,2.30401 7.872,8.64 l 0,5.44 c 0,8.89599 2.56001,11.712 11.648,11.712 0.512,0 1.024,0 1.6,0 l 0,-2.496 c -7.232,-0.128 -8.128,-2.11201 -8.128,-8.512 l 0,-5.312 c 0,-6.39999 -2.36801,-9.472 -8.384,-10.816 6.39999,-1.344 8.384,-4.48001 8.384,-11.2 l 0,-5.184 c 0,-5.63199 1.728,-7.488 8.128,-7.68 l 0,-2.368" />
        <path
           inkscape:connector-curvature="0"
           id="path3951"
           d="m 343.07176,858.90811 0,2.368 c 6.39999,0.192 8.128,2.04801 8.128,7.68 l 0,5.184 c 0,6.71999 1.984,9.856 8.384,11.2 -6.016,1.344 -8.384,4.41601 -8.384,10.816 l 0,5.312 c 0,6.39999 -0.89601,8.384 -8.128,8.512 l 0,2.496 c 0.512,0 1.024,0 1.536,0 9.15199,0 11.712,-2.88001 11.712,-11.712 l 0,-5.44 c 0,-6.33599 1.984,-8.64 7.872,-8.64 0.448,0 0.96,0.064 1.472,0.064 l 0,-2.816 c -0.576,0.064 -1.152,0.064 -1.664,0.064 -5.76,0 -7.68,-2.30401 -7.68,-8.256 l 0,-6.528 c 0,-7.29599 -3.64801,-10.304 -12.416,-10.304 -0.256,0 -0.576,0 -0.832,0" />
        <path
           inkscape:connector-curvature="0"
           id="path3953"
           d="m 373.10876,883.54811 0,4.288 14.4,0 0,-4.288 -14.4,0" />
        <path
           inkscape:connector-curvature="0"
           id="path3955"
           d="m 393.48376,883.54811 0,4.288 14.4,0 0,-4.288 -14.4,0" />
      </g>
      <g
         transform="matrix(0.62361782,0.78172938,-0.78172938,0.62361782,850.05145,60.210501)"
         id="text3870"
         style="font-size:72px;font-style:normal;font-variant:normal;font-weight:normal;font-stretch:normal;line-height:125%;letter-spacing:0px;word-spacing:0px;fill:#000000;fill-opacity:1;stroke:none;font-family:Bitstream Charter;-inkscape-font-specification:Bitstream Charter">
        <path
           inkscape:connector-curvature="0"
           id="path3940"
           d="m 435.80215,868.81419 -2.808,4.392 2.304,9 1.008,0 2.304,-9 -2.808,-4.392 m 9.144,9.288 -7.776,4.968 0.288,0.936 9.216,-0.576 3.312,-4.032 -5.04,-1.296 m -7.992,7.056 -0.792,0.504 3.384,8.64 4.824,1.872 -0.288,-5.184 -7.128,-5.832 m -2.304,0 -7.2,5.832 -0.288,5.184 4.824,-1.8 3.384,-8.712 -0.72,-0.504 m -7.992,-7.056 -4.968,1.296 3.24,4.032 9.288,0.576 0.288,-0.864 -7.848,-5.04" />
      </g>
      <g
         style="font-size:72px;font-style:normal;font-variant:normal;font-weight:normal;font-stretch:normal;line-height:125%;letter-spacing:0px;word-spacing:0px;fill:#000000;fill-opacity:1;stroke:none;font-family:Bitstream Charter;-inkscape-font-specification:Bitstream Charter"
         id="g3972"
         transform="matrix(-0.62361782,0.78172938,0.78172938,0.62361782,-192.89943,60.210501)">
        <path
           d="m 435.80215,868.81419 -2.808,4.392 2.304,9 1.008,0 2.304,-9 -2.808,-4.392 m 9.144,9.288 -7.776,4.968 0.288,0.936 9.216,-0.576 3.312,-4.032 -5.04,-1.296 m -7.992,7.056 -0.792,0.504 3.384,8.64 4.824,1.872 -0.288,-5.184 -7.128,-5.832 m -2.304,0 -7.2,5.832 -0.288,5.184 4.824,-1.8 3.384,-8.712 -0.72,-0.504 m -7.992,-7.056 -4.968,1.296 3.24,4.032 9.288,0.576 0.288,-0.864 -7.848,-5.04"
           id="path3974"
           inkscape:connector-curvature="0" />
      </g>
    </g>
  </g>
</svg>
