<?xml version="1.0" encoding="UTF-8" standalone="no"?>
<!-- Created with Inkscape (http://www.inkscape.org/) -->

<svg
   xmlns:dc="http://purl.org/dc/elements/1.1/"
   xmlns:cc="http://creativecommons.org/ns#"
   xmlns:rdf="http://www.w3.org/1999/02/22-rdf-syntax-ns#"
   xmlns:svg="http://www.w3.org/2000/svg"
   xmlns="http://www.w3.org/2000/svg"
   xmlns:sodipodi="http://sodipodi.sourceforge.net/DTD/sodipodi-0.dtd"
   xmlns:inkscape="http://www.inkscape.org/namespaces/inkscape"
   width="212.59842"
   height="177.16534"
   id="svg52926"
   version="1.1"
   inkscape:version="0.47 r22583"
   sodipodi:docname="biorientation_theo.pdf">
  <defs
     id="defs52928">
    <inkscape:perspective
       sodipodi:type="inkscape:persp3d"
       inkscape:vp_x="0 : 526.18109 : 1"
       inkscape:vp_y="0 : 1000 : 0"
       inkscape:vp_z="744.09448 : 526.18109 : 1"
       inkscape:persp3d-origin="372.04724 : 350.78739 : 1"
       id="perspective52934" />
    <inkscape:perspective
       id="perspective52862"
       inkscape:persp3d-origin="0.5 : 0.33333333 : 1"
       inkscape:vp_z="1 : 0.5 : 1"
       inkscape:vp_y="0 : 1000 : 0"
       inkscape:vp_x="0 : 0.5 : 1"
       sodipodi:type="inkscape:persp3d" />
  </defs>
  <sodipodi:namedview
     id="base"
     pagecolor="#ffffff"
     bordercolor="#666666"
     borderopacity="1.0"
     inkscape:pageopacity="0.0"
     inkscape:pageshadow="2"
     inkscape:zoom="1.4"
     inkscape:cx="86.353329"
     inkscape:cy="106.67784"
     inkscape:document-units="px"
     inkscape:current-layer="layer1"
     showgrid="false"
     units="cm"
     inkscape:window-width="606"
     inkscape:window-height="469"
     inkscape:window-x="0"
     inkscape:window-y="25"
     inkscape:window-maximized="0" />
  <metadata
     id="metadata52931">
    <rdf:RDF>
      <cc:Work
         rdf:about="">
        <dc:format>image/svg+xml</dc:format>
        <dc:type
           rdf:resource="http://purl.org/dc/dcmitype/StillImage" />
        <dc:title></dc:title>
      </cc:Work>
    </rdf:RDF>
  </metadata>
  <g
     inkscape:label="Calque 1"
     inkscape:groupmode="layer"
     id="layer1"
     transform="translate(0,-875.19552)">
    <g
       style="display:inline"
       id="g205116"
       transform="matrix(0.81233843,0,0,-0.81233843,-259.51673,1458.2376)">
      <g
         id="g203978"
         transform="translate(325.9639,587.8578)">
        <path
           d="m 0,0 c -0.013,-0.073 -0.022,-0.139 -0.029,-0.199 -0.006,-0.06 -0.01,-0.115 -0.01,-0.164 0,-0.346 0.064,-0.641 0.193,-0.883 0.129,-0.242 0.326,-0.439 0.592,-0.59 l -0.68,0 0,-0.723 4.375,0 0,0.723 -2.304,0 c -0.494,0 -0.874,0.109 -1.139,0.326 -0.264,0.218 -0.396,0.53 -0.396,0.936 0,0.115 0.011,0.219 0.033,0.314 0.022,0.095 0.056,0.183 0.103,0.264 L 0,0 z m -1.176,-8.223 1.242,0 0,-0.527 0.559,0 0,0.527 2.375,0 c 0.547,0 0.924,0.106 1.131,0.317 0.207,0.211 0.31,0.593 0.31,1.148 l 0,0.738 -0.601,0 0,-0.738 C 3.84,-7.057 3.789,-7.256 3.688,-7.354 3.586,-7.451 3.357,-7.5 3,-7.5 l -2.375,0 0,1.48 -0.559,0 0,-1.48 -1.242,0 0,-0.723 z m 1.205,-1.851 c -0.045,-0.211 -0.068,-0.427 -0.068,-0.649 0,-0.682 0.205,-1.219 0.613,-1.611 0.409,-0.392 0.971,-0.588 1.684,-0.588 0.703,0 1.262,0.194 1.676,0.582 0.414,0.388 0.621,0.912 0.621,1.57 0,0.243 -0.024,0.471 -0.071,0.686 -0.046,0.215 -0.117,0.422 -0.211,0.623 l -0.664,0 c 0.113,-0.203 0.197,-0.407 0.252,-0.611 0.057,-0.205 0.084,-0.411 0.084,-0.619 0,-0.467 -0.147,-0.829 -0.443,-1.086 -0.295,-0.258 -0.71,-0.387 -1.244,-0.387 -0.533,0 -0.948,0.129 -1.244,0.387 -0.295,0.257 -0.444,0.619 -0.444,1.086 0,0.208 0.029,0.414 0.084,0.619 0.057,0.204 0.141,0.408 0.252,0.611 l -0.672,0 C 0.144,-9.659 0.075,-9.863 0.029,-10.074 m 1.838,-6.996 c -0.411,0.036 -0.73,0.175 -0.957,0.416 -0.226,0.24 -0.34,0.562 -0.34,0.963 0,0.354 0.118,0.638 0.352,0.853 0.234,0.215 0.549,0.325 0.941,0.33 l 0.004,-2.562 z m -1.338,2.767 c -0.379,-0.342 -0.568,-0.808 -0.568,-1.396 0,-0.656 0.211,-1.178 0.631,-1.565 0.421,-0.386 0.989,-0.58 1.705,-0.58 0.693,0 1.242,0.204 1.648,0.612 0.407,0.407 0.61,0.96 0.61,1.658 0,0.279 -0.029,0.553 -0.086,0.824 -0.057,0.271 -0.141,0.535 -0.25,0.793 l -0.68,0 c 0.136,-0.255 0.237,-0.512 0.305,-0.772 0.068,-0.259 0.101,-0.526 0.101,-0.802 0,-0.477 -0.129,-0.848 -0.388,-1.115 -0.259,-0.268 -0.636,-0.417 -1.131,-0.448 l 0,3.305 -0.352,0 c -0.65,0 -1.166,-0.171 -1.545,-0.514 m -2.166,-4.51 c 0,-0.492 0.112,-0.851 0.334,-1.078 0.223,-0.226 0.578,-0.339 1.065,-0.339 l 0.304,0 0,-0.688 0.559,0 0,0.688 3.816,0 0,0.722 -3.816,0 0,1.184 -0.559,0 0,-1.184 -0.386,0 c -0.271,0 -0.458,0.05 -0.563,0.151 -0.103,0.1 -0.156,0.279 -0.156,0.537 l 0,0.687 -0.598,0 0,-0.68 z m 3.504,-5.996 c -0.411,0.037 -0.73,0.176 -0.957,0.416 -0.226,0.241 -0.34,0.562 -0.34,0.963 0,0.354 0.118,0.639 0.352,0.854 0.234,0.215 0.549,0.325 0.941,0.33 l 0.004,-2.563 z m -1.338,2.768 c -0.379,-0.342 -0.568,-0.808 -0.568,-1.397 0,-0.656 0.211,-1.177 0.631,-1.564 0.421,-0.387 0.989,-0.58 1.705,-0.58 0.693,0 1.242,0.204 1.648,0.611 0.407,0.408 0.61,0.961 0.61,1.658 0,0.279 -0.029,0.554 -0.086,0.825 -0.057,0.271 -0.141,0.535 -0.25,0.793 l -0.68,0 c 0.136,-0.256 0.237,-0.513 0.305,-0.772 0.068,-0.259 0.101,-0.527 0.101,-0.803 0,-0.476 -0.129,-0.848 -0.388,-1.115 -0.259,-0.267 -0.636,-0.416 -1.131,-0.447 l 0,3.305 -0.352,0 c -0.65,0 -1.166,-0.172 -1.545,-0.514 m 3.912,-9.357 0,1.621 c 0,1.125 -0.235,1.953 -0.707,2.484 -0.47,0.531 -1.209,0.797 -2.214,0.797 -1,0 -1.735,-0.264 -2.206,-0.793 -0.469,-0.529 -0.705,-1.358 -0.705,-2.488 l 0,-1.621 5.832,0 z m -5.183,1.742 c 0,0.804 0.181,1.394 0.545,1.767 0.363,0.374 0.935,0.561 1.717,0.561 0.787,0 1.362,-0.187 1.726,-0.561 0.365,-0.373 0.547,-0.963 0.547,-1.767 l 0,-0.953 -4.535,0 0,0.953 z"
           style="fill:#231f20;fill-opacity:1;fill-rule:nonzero;stroke:none"
           id="path203980" />
      </g>
      <g
         id="g203982"
         transform="translate(326.1123,688.0624)">
        <path
           d="m 0,0 c 0.586,0.171 1.18,0.256 1.781,0.256 0.602,0 1.198,-0.085 1.787,-0.256 0.59,-0.17 1.184,-0.429 1.78,-0.775 l 0,0.625 C 4.736,0.24 4.135,0.533 3.543,0.727 2.952,0.921 2.365,1.018 1.781,1.018 1.201,1.018 0.616,0.921 0.027,0.727 -0.561,0.533 -1.162,0.24 -1.777,-0.15 l 0,-0.625 C -1.178,-0.429 -0.586,-0.17 0,0 m 4.293,-2.279 -0.992,0 0,-0.824 0.992,0 0,0.824 z M 0.279,-5.025 c -0.31,-0.258 -0.467,-0.638 -0.467,-1.141 0,-0.305 0.066,-0.573 0.196,-0.807 0.131,-0.233 0.327,-0.435 0.59,-0.607 l -0.68,0 0,-0.723 4.375,0 0,0.723 -2.473,0 c -0.426,0 -0.763,0.112 -1.011,0.336 -0.247,0.224 -0.371,0.53 -0.371,0.918 0,0.323 0.103,0.565 0.308,0.726 0.206,0.162 0.516,0.243 0.93,0.243 l 2.617,0 0,0.718 -2.641,0 c -0.603,0 -1.061,-0.129 -1.373,-0.386 m -1.154,-4.754 -0.91,0 0,-0.719 0.91,0 0,0.719 z m 5.168,0 -4.375,0 0,-0.719 4.375,0 0,0.719 z m -4.238,-5.6 c -0.161,-0.223 -0.243,-0.493 -0.243,-0.81 0,-0.315 0.065,-0.587 0.192,-0.817 0.128,-0.229 0.326,-0.426 0.594,-0.59 l -0.68,0 0,-0.722 4.375,0 0,0.722 -2.473,0 c -0.424,0 -0.76,0.109 -1.009,0.325 -0.248,0.216 -0.373,0.507 -0.373,0.875 0,0.31 0.101,0.539 0.302,0.687 0.202,0.148 0.514,0.223 0.936,0.223 l 2.617,0 0,0.722 -2.473,0 c -0.426,0 -0.763,0.109 -1.011,0.325 -0.247,0.216 -0.371,0.51 -0.371,0.882 0,0.305 0.101,0.532 0.304,0.68 0.203,0.148 0.515,0.223 0.934,0.223 l 2.617,0 0,0.722 -2.641,0 c -0.588,0 -1.042,-0.123 -1.361,-0.371 -0.318,-0.247 -0.479,-0.598 -0.479,-1.054 0,-0.339 0.078,-0.633 0.231,-0.883 0.154,-0.25 0.393,-0.465 0.715,-0.645 -0.307,-0.106 -0.541,-0.271 -0.703,-0.494 m -1.832,-4.932 c 0.615,-0.393 1.216,-0.686 1.804,-0.878 0.589,-0.193 1.174,-0.29 1.754,-0.29 0.584,0 1.171,0.098 1.762,0.291 0.592,0.195 1.193,0.487 1.805,0.877 l 0,0.625 c -0.596,-0.346 -1.19,-0.604 -1.78,-0.775 -0.589,-0.17 -1.185,-0.256 -1.787,-0.256 -0.601,0 -1.195,0.085 -1.781,0.254 -0.586,0.17 -1.178,0.429 -1.777,0.777 l 0,-0.625 z m 3.496,-8.105 c -0.411,0.037 -0.731,0.175 -0.957,0.416 -0.227,0.241 -0.34,0.562 -0.34,0.963 0,0.354 0.117,0.639 0.351,0.853 0.235,0.215 0.549,0.326 0.942,0.33 l 0.004,-2.562 z m -1.338,2.768 c -0.379,-0.343 -0.569,-0.808 -0.569,-1.397 0,-0.656 0.211,-1.178 0.631,-1.564 0.421,-0.387 0.99,-0.58 1.705,-0.58 0.694,0 1.243,0.204 1.649,0.611 0.406,0.408 0.609,0.96 0.609,1.658 0,0.279 -0.028,0.554 -0.086,0.824 -0.056,0.271 -0.14,0.535 -0.25,0.793 l -0.679,0 c 0.135,-0.255 0.237,-0.512 0.304,-0.771 0.069,-0.259 0.102,-0.527 0.102,-0.803 0,-0.477 -0.129,-0.848 -0.389,-1.115 -0.259,-0.267 -0.636,-0.416 -1.131,-0.447 l 0,3.304 -0.351,0 c -0.651,0 -1.166,-0.171 -1.545,-0.513 m -0.326,-8.11 c -0.161,-0.222 -0.243,-0.492 -0.243,-0.81 0,-0.315 0.065,-0.587 0.192,-0.817 0.128,-0.229 0.326,-0.426 0.594,-0.59 l -0.68,0 0,-0.722 4.375,0 0,0.722 -2.473,0 c -0.424,0 -0.76,0.109 -1.009,0.325 -0.248,0.216 -0.373,0.507 -0.373,0.875 0,0.31 0.101,0.539 0.302,0.687 0.202,0.149 0.514,0.223 0.936,0.223 l 2.617,0 0,0.722 -2.473,0 c -0.426,0 -0.763,0.109 -1.011,0.325 -0.247,0.216 -0.371,0.51 -0.371,0.882 0,0.305 0.101,0.532 0.304,0.68 0.203,0.149 0.515,0.223 0.934,0.223 l 2.617,0 0,0.722 -2.641,0 c -0.588,0 -1.042,-0.123 -1.361,-0.371 -0.318,-0.247 -0.479,-0.598 -0.479,-1.054 0,-0.339 0.078,-0.633 0.231,-0.883 0.154,-0.25 0.393,-0.465 0.715,-0.645 -0.307,-0.106 -0.541,-0.271 -0.703,-0.494 m -0.93,-4.416 -0.91,0 0,-0.719 0.91,0 0,0.719 z m 5.168,0 -4.375,0 0,-0.719 4.375,0 0,0.719 z m -5.617,-3.867 1.242,0 0,-0.527 0.559,0 0,0.527 2.375,0 c 0.546,0 0.923,0.105 1.13,0.316 0.207,0.211 0.311,0.594 0.311,1.149 l 0,0.738 -0.602,0 0,-0.738 c 0,-0.299 -0.05,-0.498 -0.152,-0.596 -0.101,-0.098 -0.33,-0.146 -0.687,-0.146 l -2.375,0 0,1.48 -0.559,0 0,-1.48 -1.242,0 0,-0.723 z m 2.269,-5.105 c -0.739,0.862 -1.29,1.292 -1.652,1.292 -0.281,0 -0.508,-0.113 -0.68,-0.339 -0.172,-0.227 -0.258,-0.529 -0.258,-0.907 0,-0.148 0.019,-0.309 0.055,-0.482 0.037,-0.173 0.092,-0.36 0.164,-0.561 l 0.481,0 c -0.091,0.188 -0.159,0.361 -0.205,0.52 -0.045,0.159 -0.069,0.306 -0.069,0.441 0,0.222 0.053,0.4 0.158,0.536 0.106,0.135 0.245,0.203 0.416,0.203 0.246,0 0.765,-0.448 1.559,-1.344 0.147,-0.164 0.26,-0.29 0.34,-0.379 l 0.43,0 0,2.336 -0.446,0 0,-1.656 c -0.07,0.081 -0.168,0.194 -0.293,0.34 m 0.774,-5.094 c -0.411,0.036 -0.731,0.175 -0.957,0.416 -0.227,0.241 -0.34,0.562 -0.34,0.963 0,0.354 0.117,0.638 0.351,0.853 0.235,0.215 0.549,0.325 0.942,0.33 l 0.004,-2.562 z m -1.338,2.767 c -0.379,-0.342 -0.569,-0.807 -0.569,-1.396 0,-0.656 0.211,-1.178 0.631,-1.565 0.421,-0.386 0.99,-0.58 1.705,-0.58 0.694,0 1.243,0.204 1.649,0.612 0.406,0.407 0.609,0.96 0.609,1.658 0,0.279 -0.028,0.554 -0.086,0.824 -0.056,0.271 -0.14,0.535 -0.25,0.793 l -0.679,0 c 0.135,-0.255 0.237,-0.512 0.304,-0.771 0.069,-0.259 0.102,-0.527 0.102,-0.803 0,-0.477 -0.129,-0.848 -0.389,-1.115 -0.259,-0.267 -0.636,-0.416 -1.131,-0.448 l 0,3.305 -0.351,0 c -0.651,0 -1.166,-0.171 -1.545,-0.514 m 4.654,-6.677 0,0.664 -6.574,2.031 0,-0.664 6.574,-2.031 z m -0.742,-4.098 0,3.359 -0.664,0 0,-1.289 -5.168,0 0,-0.789 0.281,-1.394 0.719,0 -0.281,1.402 4.449,0 0,-1.289 0.664,0 z M 0.279,-64.85 c -0.31,-0.257 -0.467,-0.637 -0.467,-1.14 0,-0.305 0.066,-0.573 0.196,-0.807 0.131,-0.233 0.327,-0.435 0.59,-0.607 l -0.68,0 0,-0.723 4.375,0 0,0.723 -2.473,0 c -0.426,0 -0.763,0.112 -1.011,0.336 -0.247,0.224 -0.371,0.53 -0.371,0.918 0,0.323 0.103,0.565 0.308,0.726 0.206,0.162 0.516,0.242 0.93,0.242 l 2.617,0 0,0.719 -2.641,0 c -0.603,0 -1.061,-0.129 -1.373,-0.387 m 0.143,-7.923 c 0.406,-0.356 0.969,-0.534 1.687,-0.534 0.717,0 1.279,0.178 1.686,0.534 0.408,0.355 0.611,0.847 0.611,1.474 0,0.625 -0.203,1.116 -0.611,1.473 -0.407,0.357 -0.969,0.535 -1.686,0.535 -0.718,0 -1.281,-0.178 -1.687,-0.535 -0.406,-0.357 -0.61,-0.848 -0.61,-1.473 0,-0.627 0.204,-1.119 0.61,-1.474 m 0.455,2.384 c 0.304,0.224 0.715,0.336 1.232,0.336 0.522,0 0.933,-0.112 1.235,-0.336 0.302,-0.223 0.453,-0.527 0.453,-0.91 0,-0.388 -0.151,-0.693 -0.451,-0.916 -0.301,-0.223 -0.713,-0.334 -1.237,-0.334 -0.523,0 -0.935,0.112 -1.236,0.336 -0.301,0.224 -0.451,0.529 -0.451,0.914 0,0.383 0.152,0.687 0.455,0.91 m -1.752,-4.109 -0.91,0 0,-0.719 0.91,0 0,0.719 z m 5.168,0 -4.375,0 0,-0.719 4.375,0 0,0.719 z m -5.617,-3.867 1.242,0 0,-0.528 0.559,0 0,0.528 2.375,0 c 0.546,0 0.923,0.105 1.13,0.316 0.207,0.211 0.311,0.594 0.311,1.149 l 0,0.738 -0.602,0 0,-0.738 c 0,-0.3 -0.05,-0.498 -0.152,-0.596 -0.101,-0.098 -0.33,-0.147 -0.687,-0.147 l -2.375,0 0,1.481 -0.559,0 0,-1.481 -1.242,0 0,-0.722 z m 5.262,-4.742 c 0.312,0.26 0.468,0.642 0.468,1.144 0,0.305 -0.064,0.572 -0.193,0.803 -0.129,0.23 -0.326,0.433 -0.592,0.607 l 0.672,0 0,0.719 -4.375,0 0,-0.719 2.48,0 c 0.428,0 0.765,-0.112 1.012,-0.338 0.248,-0.225 0.371,-0.531 0.371,-0.92 0,-0.322 -0.103,-0.564 -0.31,-0.726 -0.207,-0.161 -0.518,-0.242 -0.932,-0.242 l -2.621,0 0,-0.719 2.648,0 c 0.602,0 1.059,0.13 1.372,0.391 m 0.355,-1.821 -6.078,0 0,-0.719 6.078,0 0,0.719 z M 0.422,-90.32 c 0.406,-0.356 0.969,-0.534 1.687,-0.534 0.717,0 1.279,0.178 1.686,0.534 0.408,0.355 0.611,0.847 0.611,1.474 0,0.625 -0.203,1.117 -0.611,1.473 -0.407,0.357 -0.969,0.535 -1.686,0.535 -0.718,0 -1.281,-0.178 -1.687,-0.535 -0.406,-0.356 -0.61,-0.848 -0.61,-1.473 0,-0.627 0.204,-1.119 0.61,-1.474 m 0.455,2.384 c 0.304,0.225 0.715,0.336 1.232,0.336 0.522,0 0.933,-0.111 1.235,-0.336 0.302,-0.223 0.453,-0.527 0.453,-0.91 0,-0.387 -0.151,-0.693 -0.451,-0.916 -0.301,-0.222 -0.713,-0.334 -1.237,-0.334 -0.523,0 -0.935,0.113 -1.236,0.336 -0.301,0.224 -0.451,0.529 -0.451,0.914 0,0.383 0.152,0.687 0.455,0.91 m -1.006,-4.632 c -0.039,-0.235 -0.059,-0.485 -0.059,-0.75 0,-0.536 0.113,-0.951 0.336,-1.243 0.225,-0.291 0.542,-0.437 0.954,-0.437 0.338,0 0.605,0.099 0.798,0.297 0.195,0.198 0.338,0.519 0.432,0.965 l 0.059,0.25 c 0.096,0.445 0.197,0.734 0.3,0.865 0.105,0.132 0.254,0.197 0.45,0.197 0.211,0 0.375,-0.091 0.49,-0.273 0.116,-0.182 0.174,-0.443 0.174,-0.782 0,-0.252 -0.034,-0.507 -0.104,-0.765 -0.068,-0.258 -0.172,-0.52 -0.31,-0.785 l 0.742,0 c 0.092,0.281 0.16,0.549 0.205,0.802 0.046,0.254 0.068,0.498 0.068,0.733 0,0.562 -0.118,1.005 -0.355,1.326 -0.237,0.322 -0.559,0.482 -0.965,0.482 -0.357,0 -0.635,-0.107 -0.834,-0.322 -0.199,-0.215 -0.354,-0.577 -0.463,-1.088 l -0.055,-0.246 c -0.086,-0.385 -0.175,-0.641 -0.271,-0.769 -0.095,-0.128 -0.226,-0.192 -0.393,-0.192 -0.218,0 -0.382,0.09 -0.492,0.268 -0.109,0.179 -0.164,0.446 -0.164,0.803 0,0.234 0.026,0.461 0.078,0.679 0.053,0.219 0.131,0.43 0.235,0.633 l -0.68,0 c -0.078,-0.198 -0.137,-0.414 -0.176,-0.648 m 1.848,-6.602 c -0.411,0.037 -0.731,0.175 -0.957,0.416 -0.227,0.241 -0.34,0.562 -0.34,0.963 0,0.354 0.117,0.639 0.351,0.853 0.235,0.215 0.549,0.326 0.942,0.331 l 0.004,-2.563 z m -1.338,2.768 c -0.379,-0.343 -0.569,-0.808 -0.569,-1.397 0,-0.656 0.211,-1.178 0.631,-1.564 0.421,-0.387 0.99,-0.58 1.705,-0.58 0.694,0 1.243,0.204 1.649,0.611 0.406,0.408 0.609,0.96 0.609,1.658 0,0.279 -0.028,0.554 -0.086,0.824 -0.056,0.271 -0.14,0.536 -0.25,0.793 l -0.679,0 c 0.135,-0.255 0.237,-0.512 0.304,-0.771 0.069,-0.259 0.102,-0.526 0.102,-0.803 0,-0.476 -0.129,-0.848 -0.389,-1.115 -0.259,-0.267 -0.636,-0.416 -1.131,-0.447 l 0,3.304 -0.351,0 c -0.651,0 -1.166,-0.171 -1.545,-0.513"
           style="fill:#231f20;fill-opacity:1;fill-rule:nonzero;stroke:none"
           id="path203984" />
      </g>
      <g
         id="g203986"
         transform="translate(545.0791,506.3305)">
        <path
           d="M 0,0 0,2.606 C 0,2.962 0.047,3.291 0.141,3.59 0.203,3.788 0.308,3.941 0.454,4.052 0.602,4.163 0.767,4.219 0.951,4.219 1.157,4.219 1.363,4.158 1.57,4.036 L 1.86,4.819 C 1.566,5 1.277,5.09 0.993,5.09 0.797,5.09 0.616,5.034 0.452,4.922 0.288,4.809 0.109,4.577 -0.085,4.223 l 0,0.755 -0.759,0 L -0.844,0 0,0 z m -5.203,3.918 c 0.277,0.316 0.628,0.474 1.05,0.474 0.415,0 0.762,-0.159 1.043,-0.475 0.279,-0.318 0.419,-0.784 0.419,-1.4 0,-0.653 -0.139,-1.139 -0.417,-1.458 -0.279,-0.318 -0.626,-0.478 -1.045,-0.478 -0.422,0 -0.773,0.159 -1.05,0.476 -0.278,0.317 -0.418,0.795 -0.418,1.432 0,0.637 0.14,1.114 0.418,1.429 m -0.641,-3.36 c 0.43,-0.447 0.993,-0.671 1.691,-0.671 0.434,0 0.835,0.102 1.202,0.305 0.367,0.203 0.646,0.488 0.839,0.855 0.192,0.368 0.288,0.871 0.288,1.512 0,0.791 -0.217,1.41 -0.652,1.859 C -2.91,4.866 -3.469,5.09 -4.153,5.09 -4.77,5.09 -5.291,4.906 -5.719,4.538 -6.231,4.094 -6.488,3.411 -6.488,2.489 c 0,-0.841 0.215,-1.485 0.644,-1.931 M -10.669,0 l 0,2.723 c 0,0.391 0.047,0.697 0.141,0.919 0.093,0.222 0.251,0.398 0.47,0.527 0.221,0.13 0.456,0.195 0.706,0.195 0.334,0 0.593,-0.096 0.776,-0.288 0.182,-0.193 0.274,-0.499 0.274,-0.921 l 0,-3.155 0.844,0 0,3.155 c 0,0.487 -0.059,0.859 -0.176,1.115 -0.117,0.256 -0.311,0.457 -0.584,0.603 -0.271,0.145 -0.592,0.217 -0.961,0.217 -0.599,0 -1.096,-0.228 -1.49,-0.684 l 0,2.466 -0.844,0 0,-6.872 0.844,0 z m -2.817,0.886 c -0.222,-0.203 -0.498,-0.305 -0.83,-0.305 -0.413,0 -0.747,0.152 -1.003,0.455 -0.256,0.303 -0.384,0.789 -0.384,1.458 0,0.659 0.133,1.141 0.398,1.446 0.266,0.305 0.611,0.457 1.035,0.457 0.282,0 0.522,-0.084 0.72,-0.253 0.198,-0.169 0.337,-0.421 0.415,-0.755 l 0.821,0.127 c -0.097,0.503 -0.318,0.891 -0.662,1.164 -0.343,0.274 -0.786,0.41 -1.326,0.41 -0.428,0 -0.824,-0.1 -1.188,-0.302 -0.364,-0.202 -0.635,-0.504 -0.814,-0.907 -0.177,-0.403 -0.266,-0.873 -0.266,-1.411 0,-0.831 0.207,-1.47 0.621,-1.915 0.414,-0.445 0.961,-0.668 1.642,-0.668 0.544,0 1.002,0.162 1.376,0.486 0.373,0.323 0.606,0.771 0.697,1.342 l -0.83,0.108 c -0.06,-0.422 -0.201,-0.734 -0.422,-0.937 m -7.196,3.032 c 0.279,0.316 0.628,0.474 1.05,0.474 0.416,0 0.764,-0.159 1.043,-0.475 0.28,-0.318 0.42,-0.784 0.42,-1.4 0,-0.653 -0.14,-1.139 -0.417,-1.458 -0.278,-0.318 -0.627,-0.478 -1.046,-0.478 -0.422,0 -0.771,0.159 -1.05,0.476 -0.278,0.317 -0.417,0.795 -0.417,1.432 0,0.637 0.139,1.114 0.417,1.429 m -0.639,-3.36 c 0.429,-0.447 0.993,-0.671 1.689,-0.671 0.435,0 0.835,0.102 1.202,0.305 0.367,0.203 0.648,0.488 0.84,0.855 0.192,0.368 0.288,0.871 0.288,1.512 0,0.791 -0.218,1.41 -0.651,1.859 -0.435,0.448 -0.994,0.672 -1.679,0.672 -0.615,0 -1.138,-0.184 -1.565,-0.552 -0.513,-0.444 -0.769,-1.127 -0.769,-2.049 0,-0.841 0.215,-1.485 0.645,-1.931 m -1.527,0.164 c -0.125,0 -0.22,0.02 -0.288,0.061 -0.067,0.04 -0.115,0.095 -0.145,0.164 -0.03,0.069 -0.044,0.223 -0.044,0.464 l 0,2.911 0.848,0 0,0.656 -0.848,0 0,1.739 -0.839,-0.506 0,-1.233 -0.619,0 0,-0.656 0.619,0 0,-2.864 c 0,-0.506 0.034,-0.838 0.102,-0.997 0.07,-0.157 0.188,-0.285 0.357,-0.381 0.169,-0.097 0.406,-0.146 0.713,-0.146 0.187,0 0.399,0.025 0.637,0.075 l -0.122,0.745 C -22.63,0.733 -22.754,0.722 -22.848,0.722 m -5.734,3.286 c 0.264,0.259 0.59,0.389 0.977,0.389 0.428,0 0.777,-0.163 1.045,-0.488 0.175,-0.209 0.282,-0.523 0.319,-0.942 l -2.78,0 c 0.029,0.434 0.174,0.782 0.439,1.041 m 1.811,-3.183 c -0.218,-0.162 -0.483,-0.244 -0.792,-0.244 -0.416,0 -0.762,0.146 -1.041,0.436 -0.278,0.291 -0.432,0.71 -0.463,1.256 l 3.712,0 c 0.003,0.101 0.004,0.175 0.004,0.226 0,0.821 -0.211,1.459 -0.632,1.912 -0.422,0.453 -0.966,0.679 -1.631,0.679 -0.688,0 -1.247,-0.231 -1.679,-0.693 -0.431,-0.463 -0.646,-1.113 -0.646,-1.95 0,-0.81 0.212,-1.439 0.639,-1.887 0.427,-0.448 1.004,-0.673 1.733,-0.673 0.578,0 1.052,0.141 1.424,0.422 0.372,0.281 0.627,0.677 0.764,1.186 L -26.25,1.603 C -26.379,1.247 -26.552,0.987 -26.771,0.825 M -34.153,0 l 0,2.719 c 0,0.637 0.13,1.07 0.391,1.298 0.261,0.228 0.571,0.342 0.931,0.342 0.225,0 0.421,-0.05 0.588,-0.152 0.167,-0.102 0.283,-0.238 0.349,-0.408 0.066,-0.17 0.098,-0.427 0.098,-0.771 l 0,-3.028 0.844,0 0,3.061 c 0,0.391 -0.016,0.664 -0.047,0.82 -0.05,0.241 -0.138,0.449 -0.262,0.623 -0.126,0.176 -0.313,0.317 -0.565,0.425 -0.252,0.108 -0.528,0.161 -0.827,0.161 -0.691,0 -1.219,-0.273 -1.585,-0.82 l 0,0.708 -0.759,0 0,-4.978 0.844,0 z m -2.128,4.978 -0.844,0 0,-4.978 0.844,0 0,4.978 z m 0,1.894 -0.844,0 0,-0.97 0.844,0 0,0.97 z M -41.082,0 l 0,1.973 0.596,0.572 1.645,-2.545 1.04,0 -2.095,3.131 1.904,1.847 -1.093,0 -1.997,-2.025 0,3.919 -0.844,0 0,-6.872 0.844,0 z m -5.878,0 0,2.606 c 0,0.356 0.047,0.685 0.141,0.984 0.062,0.198 0.167,0.351 0.314,0.462 0.147,0.111 0.313,0.167 0.497,0.167 0.206,0 0.412,-0.061 0.618,-0.183 l 0.291,0.783 C -45.393,5 -45.682,5.09 -45.966,5.09 c -0.197,0 -0.378,-0.056 -0.542,-0.168 -0.164,-0.113 -0.343,-0.345 -0.536,-0.699 l 0,0.755 -0.76,0 0,-4.978 0.844,0 z m -5.098,4.008 c 0.265,0.259 0.59,0.389 0.978,0.389 0.428,0 0.776,-0.163 1.046,-0.488 0.175,-0.209 0.281,-0.523 0.318,-0.942 l -2.779,0 c 0.027,0.434 0.174,0.782 0.437,1.041 m 1.813,-3.183 c -0.22,-0.162 -0.484,-0.244 -0.793,-0.244 -0.415,0 -0.763,0.146 -1.04,0.436 -0.278,0.291 -0.434,0.71 -0.464,1.256 l 3.712,0 c 0.003,0.101 0.005,0.175 0.005,0.226 0,0.821 -0.211,1.459 -0.633,1.912 -0.422,0.453 -0.966,0.679 -1.631,0.679 -0.688,0 -1.247,-0.231 -1.679,-0.693 -0.43,-0.463 -0.646,-1.113 -0.646,-1.95 0,-0.81 0.213,-1.439 0.64,-1.887 0.426,-0.448 1.003,-0.673 1.732,-0.673 0.577,0 1.053,0.141 1.425,0.422 0.371,0.281 0.626,0.677 0.763,1.186 l -0.872,0.108 c -0.128,-0.356 -0.301,-0.616 -0.519,-0.778 m -7.048,3.101 c 0.276,0.336 0.594,0.504 0.954,0.504 0.362,0 0.674,-0.158 0.935,-0.474 0.26,-0.315 0.391,-0.79 0.391,-1.425 0,-0.665 -0.133,-1.157 -0.4,-1.474 -0.268,-0.317 -0.589,-0.476 -0.964,-0.476 -0.369,0 -0.683,0.153 -0.942,0.46 -0.259,0.306 -0.389,0.779 -0.389,1.42 0,0.641 0.139,1.129 0.415,1.465 m -0.335,-5.834 0,2.424 c 0.144,-0.182 0.327,-0.332 0.551,-0.451 0.223,-0.118 0.475,-0.178 0.757,-0.178 0.383,0 0.75,0.109 1.098,0.326 0.349,0.217 0.615,0.53 0.797,0.938 0.184,0.408 0.275,0.866 0.275,1.375 0,0.475 -0.083,0.912 -0.248,1.31 -0.166,0.399 -0.412,0.707 -0.737,0.926 -0.325,0.219 -0.7,0.328 -1.125,0.328 -0.325,0 -0.601,-0.063 -0.829,-0.189 -0.228,-0.127 -0.433,-0.317 -0.614,-0.57 l 0,0.647 -0.769,0 0,-6.886 0.844,0 z m -8,2.199 c 0.34,-0.269 0.832,-0.404 1.48,-0.404 0.39,0 0.74,0.069 1.049,0.204 0.31,0.136 0.546,0.328 0.71,0.577 0.164,0.249 0.246,0.513 0.246,0.794 0,0.288 -0.067,0.529 -0.201,0.722 -0.135,0.194 -0.319,0.342 -0.555,0.443 -0.237,0.102 -0.653,0.232 -1.249,0.392 -0.414,0.112 -0.662,0.184 -0.746,0.215 -0.147,0.059 -0.254,0.135 -0.324,0.225 -0.068,0.088 -0.102,0.186 -0.102,0.295 0,0.172 0.082,0.323 0.248,0.451 0.166,0.128 0.442,0.192 0.83,0.192 0.328,0 0.582,-0.072 0.762,-0.216 0.179,-0.143 0.288,-0.344 0.325,-0.6 l 0.825,0.113 c -0.053,0.322 -0.149,0.578 -0.29,0.771 -0.141,0.192 -0.359,0.344 -0.654,0.457 -0.295,0.112 -0.639,0.168 -1.03,0.168 -0.259,0 -0.502,-0.033 -0.728,-0.1 -0.227,-0.068 -0.406,-0.15 -0.537,-0.246 -0.175,-0.125 -0.314,-0.283 -0.414,-0.472 -0.102,-0.189 -0.153,-0.394 -0.153,-0.616 0,-0.243 0.062,-0.466 0.185,-0.668 0.124,-0.201 0.305,-0.359 0.544,-0.473 0.239,-0.114 0.668,-0.249 1.287,-0.406 0.459,-0.115 0.746,-0.211 0.862,-0.286 0.165,-0.109 0.248,-0.259 0.248,-0.449 0,-0.213 -0.094,-0.398 -0.281,-0.556 -0.188,-0.158 -0.475,-0.237 -0.862,-0.237 -0.385,0 -0.684,0.089 -0.898,0.267 -0.214,0.178 -0.345,0.435 -0.391,0.769 l -0.834,-0.131 c 0.093,-0.528 0.309,-0.927 0.648,-1.195 m -4.574,3.717 c 0.264,0.259 0.59,0.389 0.976,0.389 0.429,0 0.778,-0.163 1.046,-0.488 0.175,-0.209 0.282,-0.523 0.319,-0.942 l -2.78,0 c 0.029,0.434 0.174,0.782 0.439,1.041 m 1.811,-3.183 c -0.218,-0.162 -0.483,-0.244 -0.792,-0.244 -0.416,0 -0.762,0.146 -1.041,0.436 -0.278,0.291 -0.432,0.71 -0.464,1.256 l 3.712,0 c 0.004,0.101 0.005,0.175 0.005,0.226 0,0.821 -0.211,1.459 -0.633,1.912 -0.421,0.453 -0.965,0.679 -1.63,0.679 -0.688,0 -1.247,-0.231 -1.679,-0.693 -0.431,-0.463 -0.647,-1.113 -0.647,-1.95 0,-0.81 0.213,-1.439 0.64,-1.887 0.427,-0.448 1.004,-0.673 1.732,-0.673 0.579,0 1.053,0.141 1.425,0.422 0.372,0.281 0.627,0.677 0.764,1.186 l -0.871,0.108 c -0.129,-0.356 -0.302,-0.616 -0.521,-0.778 m -4.195,6.047 -0.844,0 0,-6.872 0.844,0 0,6.872 z M -74.733,0 l 0,4.978 -0.844,0 0,-2.667 c 0,-0.425 -0.046,-0.749 -0.138,-0.973 -0.093,-0.223 -0.249,-0.4 -0.472,-0.529 -0.221,-0.13 -0.459,-0.195 -0.711,-0.195 -0.253,0 -0.466,0.063 -0.638,0.19 -0.172,0.126 -0.284,0.3 -0.338,0.523 -0.034,0.152 -0.051,0.449 -0.051,0.89 l 0,2.761 -0.844,0 0,-3.084 c 0,-0.36 0.017,-0.622 0.051,-0.788 0.051,-0.247 0.137,-0.455 0.261,-0.626 0.123,-0.17 0.312,-0.312 0.567,-0.424 0.254,-0.112 0.529,-0.169 0.823,-0.169 0.666,0 1.192,0.281 1.58,0.844 l 0,-0.731 0.754,0 z m -8.184,3.917 c 0.269,0.32 0.587,0.48 0.956,0.48 0.365,0 0.677,-0.155 0.935,-0.464 0.257,-0.309 0.386,-0.789 0.386,-1.439 0,-0.635 -0.133,-1.112 -0.402,-1.432 -0.27,-0.321 -0.588,-0.481 -0.957,-0.481 -0.453,0 -0.813,0.217 -1.078,0.652 -0.162,0.266 -0.243,0.697 -0.243,1.293 0,0.607 0.133,1.07 0.403,1.391 m -0.395,-3.293 c 0.335,-0.491 0.796,-0.737 1.383,-0.737 0.591,0 1.098,0.233 1.52,0.699 0.422,0.465 0.633,1.125 0.633,1.978 0,0.359 -0.051,0.697 -0.151,1.013 -0.099,0.315 -0.238,0.585 -0.415,0.808 -0.177,0.223 -0.401,0.397 -0.675,0.52 -0.273,0.124 -0.563,0.185 -0.869,0.185 -0.553,0 -1.008,-0.223 -1.364,-0.67 l 0,2.452 -0.844,0 0,-6.872 0.782,0 0,0.624 z M -85.411,0 l 0,4.978 -0.844,0 0,-2.667 c 0,-0.425 -0.046,-0.749 -0.139,-0.973 -0.091,-0.223 -0.249,-0.4 -0.47,-0.529 -0.222,-0.13 -0.459,-0.195 -0.713,-0.195 -0.253,0 -0.465,0.063 -0.637,0.19 -0.172,0.126 -0.285,0.3 -0.338,0.523 -0.034,0.152 -0.052,0.449 -0.052,0.89 l 0,2.761 -0.843,0 0,-3.084 c 0,-0.36 0.017,-0.622 0.051,-0.788 0.05,-0.247 0.137,-0.455 0.26,-0.626 0.124,-0.17 0.313,-0.312 0.568,-0.424 0.255,-0.112 0.529,-0.169 0.823,-0.169 0.665,0 1.191,0.281 1.579,0.844 l 0,-0.731 0.755,0 z m -5.213,0.722 c -0.125,0 -0.221,0.02 -0.288,0.061 -0.067,0.04 -0.115,0.095 -0.146,0.164 -0.029,0.069 -0.044,0.223 -0.044,0.464 l 0,2.911 0.849,0 0,0.656 -0.849,0 0,1.739 -0.838,-0.506 0,-1.233 -0.62,0 0,-0.656 0.62,0 0,-2.864 c 0,-0.506 0.034,-0.838 0.102,-0.997 0.069,-0.157 0.188,-0.285 0.357,-0.381 0.168,-0.097 0.406,-0.146 0.712,-0.146 0.188,0 0.4,0.025 0.637,0.075 l -0.121,0.745 C -90.406,0.733 -90.53,0.722 -90.624,0.722 m -5.84,3.196 c 0.277,0.316 0.628,0.474 1.05,0.474 0.415,0 0.763,-0.159 1.043,-0.475 0.279,-0.318 0.419,-0.784 0.419,-1.4 0,-0.653 -0.139,-1.139 -0.417,-1.458 -0.278,-0.318 -0.626,-0.478 -1.045,-0.478 -0.422,0 -0.773,0.159 -1.05,0.476 -0.278,0.317 -0.418,0.795 -0.418,1.432 0,0.637 0.14,1.114 0.418,1.429 m -0.64,-3.36 c 0.429,-0.447 0.993,-0.671 1.69,-0.671 0.435,0 0.835,0.102 1.202,0.305 0.367,0.203 0.647,0.488 0.839,0.855 0.192,0.368 0.288,0.871 0.288,1.512 0,0.791 -0.217,1.41 -0.651,1.859 -0.435,0.448 -0.993,0.672 -1.678,0.672 -0.616,0 -1.138,-0.184 -1.565,-0.552 -0.513,-0.444 -0.77,-1.127 -0.77,-2.049 0,-0.841 0.215,-1.485 0.645,-1.931 M -99.797,0 l 0,2.606 c 0,0.356 0.047,0.685 0.141,0.984 0.062,0.198 0.167,0.351 0.313,0.462 0.148,0.111 0.313,0.167 0.497,0.167 0.206,0 0.413,-0.061 0.619,-0.183 l 0.29,0.783 C -98.229,5 -98.519,5.09 -98.804,5.09 -99,5.09 -99.181,5.034 -99.345,4.922 -99.509,4.809 -99.688,4.577 -99.882,4.223 l 0,0.755 -0.759,0 0,-4.978 0.844,0 z m -2.807,0.886 c -0.223,-0.203 -0.5,-0.305 -0.831,-0.305 -0.412,0 -0.747,0.152 -1.003,0.455 -0.256,0.303 -0.384,0.789 -0.384,1.458 0,0.659 0.133,1.141 0.398,1.446 0.266,0.305 0.611,0.457 1.036,0.457 0.282,0 0.522,-0.084 0.72,-0.253 0.198,-0.169 0.337,-0.421 0.415,-0.755 l 0.82,0.127 c -0.097,0.503 -0.317,0.891 -0.661,1.164 -0.344,0.274 -0.786,0.41 -1.327,0.41 -0.428,0 -0.824,-0.1 -1.187,-0.302 -0.365,-0.202 -0.636,-0.504 -0.814,-0.907 -0.179,-0.403 -0.267,-0.873 -0.267,-1.411 0,-0.831 0.207,-1.47 0.621,-1.915 0.414,-0.445 0.962,-0.668 1.643,-0.668 0.543,0 1.002,0.162 1.375,0.486 0.374,0.323 0.606,0.771 0.696,1.342 l -0.829,0.108 c -0.059,-0.422 -0.2,-0.734 -0.421,-0.937 m -4.112,4.092 -0.844,0 0,-4.978 0.844,0 0,4.978 z m 0,1.894 -0.844,0 0,-0.97 0.844,0 0,0.97 z M -114.718,0 l 0,2.583 c 0,0.453 0.046,0.8 0.137,1.041 0.09,0.24 0.236,0.423 0.437,0.548 0.203,0.125 0.422,0.187 0.66,0.187 0.312,0 0.537,-0.093 0.674,-0.281 0.138,-0.187 0.206,-0.469 0.206,-0.844 l 0,-3.234 0.844,0 0,2.892 c 0,0.513 0.116,0.885 0.347,1.118 0.231,0.233 0.522,0.349 0.872,0.349 0.194,0 0.362,-0.045 0.507,-0.136 0.143,-0.09 0.242,-0.21 0.297,-0.358 0.054,-0.149 0.082,-0.392 0.082,-0.729 l 0,-3.136 0.84,0 0,3.417 c 0,0.569 -0.133,0.99 -0.399,1.263 -0.265,0.274 -0.645,0.41 -1.14,0.41 -0.63,0 -1.143,-0.29 -1.537,-0.871 -0.096,0.275 -0.263,0.489 -0.499,0.642 -0.236,0.153 -0.539,0.229 -0.907,0.229 -0.331,0 -0.627,-0.074 -0.886,-0.222 -0.259,-0.149 -0.467,-0.345 -0.624,-0.588 l 0,0.698 -0.755,0 0,-4.978 0.844,0 z m -5.136,0 0,4.322 0.969,0 0,0.656 -0.969,0 0,0.46 c 0,0.299 0.052,0.504 0.159,0.613 0.106,0.11 0.287,0.164 0.544,0.164 0.156,0 0.321,-0.015 0.496,-0.047 l 0.127,0.737 c -0.287,0.056 -0.55,0.084 -0.787,0.084 -0.37,0 -0.657,-0.068 -0.861,-0.204 -0.205,-0.136 -0.347,-0.313 -0.428,-0.532 -0.06,-0.163 -0.09,-0.411 -0.09,-0.745 l 0,-0.53 -0.745,0 0,-0.656 0.745,0 0,-4.322 0.84,0 z m -5.411,3.918 c 0.279,0.316 0.629,0.474 1.051,0.474 0.415,0 0.763,-0.159 1.043,-0.475 0.279,-0.318 0.419,-0.784 0.419,-1.4 0,-0.653 -0.139,-1.139 -0.417,-1.458 -0.278,-0.318 -0.627,-0.478 -1.045,-0.478 -0.422,0 -0.772,0.159 -1.051,0.476 -0.277,0.317 -0.417,0.795 -0.417,1.432 0,0.637 0.14,1.114 0.417,1.429 m -0.639,-3.36 c 0.429,-0.447 0.993,-0.671 1.69,-0.671 0.434,0 0.835,0.102 1.202,0.305 0.367,0.203 0.647,0.488 0.839,0.855 0.193,0.368 0.288,0.871 0.288,1.512 0,0.791 -0.217,1.41 -0.651,1.859 -0.435,0.448 -0.994,0.672 -1.678,0.672 -0.616,0 -1.138,-0.184 -1.566,-0.552 -0.512,-0.444 -0.769,-1.127 -0.769,-2.049 0,-0.841 0.215,-1.485 0.645,-1.931 M -131.265,0 l 0,2.606 c 0,0.356 0.047,0.685 0.141,0.984 0.062,0.198 0.168,0.351 0.314,0.462 0.147,0.111 0.313,0.167 0.497,0.167 0.207,0 0.413,-0.061 0.619,-0.183 l 0.291,0.783 c -0.294,0.181 -0.583,0.271 -0.868,0.271 -0.197,0 -0.376,-0.056 -0.541,-0.168 -0.164,-0.113 -0.343,-0.345 -0.537,-0.699 l 0,0.755 -0.759,0 0,-4.978 0.843,0 z m -5.097,4.008 c 0.264,0.259 0.59,0.389 0.977,0.389 0.429,0 0.777,-0.163 1.046,-0.488 0.175,-0.209 0.281,-0.523 0.318,-0.942 l -2.779,0 c 0.028,0.434 0.174,0.782 0.438,1.041 m 1.812,-3.183 c -0.219,-0.162 -0.483,-0.244 -0.793,-0.244 -0.415,0 -0.761,0.146 -1.04,0.436 -0.278,0.291 -0.432,0.71 -0.464,1.256 l 3.712,0 c 0.003,0.101 0.005,0.175 0.005,0.226 0,0.821 -0.211,1.459 -0.633,1.912 -0.422,0.453 -0.966,0.679 -1.631,0.679 -0.687,0 -1.247,-0.231 -1.678,-0.693 -0.431,-0.463 -0.647,-1.113 -0.647,-1.95 0,-0.81 0.213,-1.439 0.64,-1.887 0.427,-0.448 1.004,-0.673 1.732,-0.673 0.578,0 1.053,0.141 1.425,0.422 0.372,0.281 0.626,0.677 0.764,1.186 l -0.872,0.108 c -0.128,-0.356 -0.301,-0.616 -0.52,-0.778 m -7.054,3.092 c 0.268,0.32 0.586,0.48 0.956,0.48 0.365,0 0.676,-0.155 0.934,-0.464 0.258,-0.309 0.387,-0.789 0.387,-1.439 0,-0.635 -0.134,-1.112 -0.402,-1.432 -0.27,-0.321 -0.588,-0.481 -0.958,-0.481 -0.453,0 -0.812,0.217 -1.078,0.652 -0.162,0.266 -0.243,0.697 -0.243,1.293 0,0.607 0.134,1.07 0.404,1.391 m -0.395,-3.293 c 0.335,-0.491 0.796,-0.737 1.383,-0.737 0.591,0 1.097,0.233 1.519,0.699 0.422,0.465 0.633,1.125 0.633,1.978 0,0.359 -0.051,0.697 -0.15,1.013 -0.1,0.315 -0.239,0.585 -0.415,0.808 -0.177,0.223 -0.402,0.397 -0.675,0.52 -0.274,0.124 -0.564,0.185 -0.869,0.185 -0.554,0 -1.008,-0.223 -1.365,-0.67 l 0,2.452 -0.843,0 0,-6.872 0.782,0 0,0.624 z M -149.93,0 l 0,2.583 c 0,0.453 0.045,0.8 0.136,1.041 0.091,0.24 0.236,0.423 0.439,0.548 0.201,0.125 0.42,0.187 0.658,0.187 0.312,0 0.538,-0.093 0.675,-0.281 0.137,-0.187 0.207,-0.469 0.207,-0.844 l 0,-3.234 0.843,0 0,2.892 c 0,0.513 0.116,0.885 0.347,1.118 0.231,0.233 0.521,0.349 0.872,0.349 0.193,0 0.362,-0.045 0.506,-0.136 0.143,-0.09 0.243,-0.21 0.298,-0.358 0.054,-0.149 0.082,-0.392 0.082,-0.729 l 0,-3.136 0.839,0 0,3.417 c 0,0.569 -0.133,0.99 -0.399,1.263 -0.265,0.274 -0.645,0.41 -1.138,0.41 -0.632,0 -1.145,-0.29 -1.539,-0.871 -0.096,0.275 -0.262,0.489 -0.499,0.642 -0.236,0.153 -0.538,0.229 -0.907,0.229 -0.331,0 -0.626,-0.074 -0.886,-0.222 -0.259,-0.149 -0.466,-0.345 -0.623,-0.588 l 0,0.698 -0.754,0 0,-4.978 0.843,0 z m -2.166,0 0,4.978 -0.843,0 0,-2.667 c 0,-0.425 -0.046,-0.749 -0.138,-0.973 -0.093,-0.223 -0.25,-0.4 -0.472,-0.529 -0.222,-0.13 -0.459,-0.195 -0.712,-0.195 -0.254,0 -0.466,0.063 -0.637,0.19 -0.172,0.126 -0.285,0.3 -0.338,0.523 -0.035,0.152 -0.052,0.449 -0.052,0.89 l 0,2.761 -0.844,0 0,-3.084 c 0,-0.36 0.018,-0.622 0.052,-0.788 0.05,-0.247 0.137,-0.455 0.261,-0.626 0.123,-0.17 0.312,-0.312 0.566,-0.424 0.255,-0.112 0.529,-0.169 0.823,-0.169 0.665,0 1.193,0.281 1.579,0.844 l 0,-0.731 0.755,0 z m -9.979,0 0,5.4 3.609,-5.4 0.933,0 0,6.872 -0.872,0 0,-5.395 -3.61,5.395 -0.932,0 0,-6.872 0.872,0 z"
           style="fill:#231f20;fill-opacity:1;fill-rule:nonzero;stroke:none"
           id="path203988" />
      </g>
      <g
         id="g203990"
         transform="translate(548.5361,510.3383)">
        <path
           d="m 0,0 c 0.265,0.259 0.59,0.389 0.978,0.389 0.427,0 0.776,-0.162 1.045,-0.488 0.175,-0.209 0.282,-0.523 0.319,-0.942 l -2.78,0 C -0.41,-0.606 -0.264,-0.259 0,0 M 1.813,-3.183 C 1.593,-3.345 1.329,-3.427 1.02,-3.427 c -0.416,0 -0.763,0.146 -1.041,0.436 -0.278,0.291 -0.433,0.71 -0.463,1.257 l 3.712,0 c 0.002,0.1 0.004,0.174 0.004,0.225 0,0.821 -0.211,1.459 -0.632,1.912 -0.422,0.453 -0.966,0.68 -1.631,0.68 -0.689,0 -1.247,-0.231 -1.679,-0.694 -0.431,-0.463 -0.646,-1.113 -0.646,-1.95 0,-0.81 0.212,-1.439 0.639,-1.887 0.427,-0.448 1.004,-0.673 1.733,-0.673 0.577,0 1.052,0.141 1.424,0.422 0.372,0.282 0.626,0.677 0.764,1.186 L 2.332,-2.405 C 2.204,-2.761 2.03,-3.021 1.813,-3.183"
           style="fill:#231f20;fill-opacity:1;fill-rule:nonzero;stroke:none"
           id="path203992" />
      </g>
      <g
         id="g203994"
         transform="translate(559.0898,673.7328)">
        <path
           d="m 0,0 c 0,-1.926 -1.582,-3.484 -3.531,-3.484 -1.953,0 -3.535,1.558 -3.535,3.484 0,1.926 1.582,3.484 3.535,3.484 C -1.582,3.484 0,1.926 0,0"
           style="fill:#a7a5a6;fill-opacity:1;fill-rule:evenodd;stroke:none"
           id="path203996" />
      </g>
      <g
         id="g203998"
         transform="translate(559.0898,673.7323)">
        <path
           d="m 0,0 c 0,-1.925 -1.582,-3.483 -3.531,-3.483 -1.953,0 -3.535,1.558 -3.535,3.483 0,1.926 1.582,3.485 3.535,3.485 C -1.582,3.485 0,1.926 0,0 z"
           style="fill:none;stroke:#a7a5a6;stroke-width:0.38299999;stroke-linecap:butt;stroke-linejoin:miter;stroke-miterlimit:10;stroke-opacity:1;stroke-dasharray:none"
           id="path204000" />
      </g>
      <g
         id="g204002"
         transform="translate(522.9258,651.7089)">
        <path
           d="m 0,0 c 0,-1.925 -1.582,-3.484 -3.535,-3.484 -1.949,0 -3.531,1.559 -3.531,3.484 0,1.922 1.582,3.485 3.531,3.485 C -1.582,3.485 0,1.922 0,0"
           style="fill:#a7a5a6;fill-opacity:1;fill-rule:evenodd;stroke:none"
           id="path204004" />
      </g>
      <g
         id="g204006"
         transform="translate(522.9258,651.7094)">
        <path
           d="m 0,0 c 0,-1.926 -1.582,-3.485 -3.535,-3.485 -1.949,0 -3.531,1.559 -3.531,3.485 0,1.921 1.582,3.485 3.531,3.485 C -1.582,3.485 0,1.921 0,0 z"
           style="fill:none;stroke:#a7a5a6;stroke-width:0.38299999;stroke-linecap:butt;stroke-linejoin:miter;stroke-miterlimit:10;stroke-opacity:1;stroke-dasharray:none"
           id="path204008" />
      </g>
      <g
         id="g204010"
         transform="translate(486.9883,617.8578)">
        <path
           d="m 0,0 c 0,-1.922 -1.582,-3.484 -3.531,-3.484 -1.953,0 -3.535,1.562 -3.535,3.484 0,1.926 1.582,3.484 3.535,3.484 C -1.582,3.484 0,1.926 0,0"
           style="fill:#a7a5a6;fill-opacity:1;fill-rule:evenodd;stroke:none"
           id="path204012" />
      </g>
      <g
         id="g204014"
         transform="translate(486.9883,617.8578)">
        <path
           d="m 0,0 c 0,-1.922 -1.582,-3.485 -3.531,-3.485 -1.953,0 -3.535,1.563 -3.535,3.485 0,1.926 1.582,3.484 3.535,3.484 C -1.582,3.484 0,1.926 0,0 z"
           style="fill:none;stroke:#a7a5a6;stroke-width:0.38299999;stroke-linecap:butt;stroke-linejoin:miter;stroke-miterlimit:10;stroke-opacity:1;stroke-dasharray:none"
           id="path204016" />
      </g>
      <g
         id="g204018"
         transform="translate(450.1289,614.3808)">
        <path
           d="m 0,0 c 0,-1.925 -1.582,-3.484 -3.535,-3.484 -1.953,0 -3.535,1.559 -3.535,3.484 0,1.926 1.582,3.485 3.535,3.485 C -1.582,3.485 0,1.926 0,0"
           style="fill:#a7a5a6;fill-opacity:1;fill-rule:evenodd;stroke:none"
           id="path204020" />
      </g>
      <g
         id="g204022"
         transform="translate(450.1289,614.3813)">
        <path
           d="m 0,0 c 0,-1.925 -1.582,-3.485 -3.535,-3.485 -1.953,0 -3.535,1.56 -3.535,3.485 0,1.926 1.582,3.484 3.535,3.484 C -1.582,3.484 0,1.926 0,0 z"
           style="fill:none;stroke:#a7a5a6;stroke-width:0.38299999;stroke-linecap:butt;stroke-linejoin:miter;stroke-miterlimit:10;stroke-opacity:1;stroke-dasharray:none"
           id="path204024" />
      </g>
      <g
         id="g204026"
         transform="translate(414.4258,556.4198)">
        <path
           d="m 0,0 c 0,-1.921 -1.582,-3.484 -3.535,-3.484 -1.953,0 -3.535,1.563 -3.535,3.484 0,1.926 1.582,3.485 3.535,3.485 C -1.582,3.485 0,1.926 0,0"
           style="fill:#a7a5a6;fill-opacity:1;fill-rule:evenodd;stroke:none"
           id="path204028" />
      </g>
      <g
         id="g204030"
         transform="translate(414.4258,556.4198)">
        <path
           d="m 0,0 c 0,-1.921 -1.582,-3.484 -3.535,-3.484 -1.953,0 -3.535,1.563 -3.535,3.484 0,1.926 1.582,3.485 3.535,3.485 C -1.582,3.485 0,1.926 0,0 z"
           style="fill:none;stroke:#a7a5a6;stroke-width:0.38299999;stroke-linecap:butt;stroke-linejoin:miter;stroke-miterlimit:10;stroke-opacity:1;stroke-dasharray:none"
           id="path204032" />
      </g>
      <g
         id="g204034"
         transform="translate(378.2578,556.4198)">
        <path
           d="m 0,0 c 0,-1.921 -1.582,-3.484 -3.535,-3.484 -1.949,0 -3.531,1.563 -3.531,3.484 0,1.926 1.582,3.485 3.531,3.485 C -1.582,3.485 0,1.926 0,0"
           style="fill:#a7a5a6;fill-opacity:1;fill-rule:evenodd;stroke:none"
           id="path204036" />
      </g>
      <g
         id="g204038"
         transform="translate(378.2578,556.4198)">
        <path
           d="m 0,0 c 0,-1.921 -1.582,-3.484 -3.535,-3.484 -1.949,0 -3.531,1.563 -3.531,3.484 0,1.926 1.582,3.485 3.531,3.485 C -1.582,3.485 0,1.926 0,0 z"
           style="fill:none;stroke:#a7a5a6;stroke-width:0.38299999;stroke-linecap:butt;stroke-linejoin:miter;stroke-miterlimit:10;stroke-opacity:1;stroke-dasharray:none"
           id="path204040" />
      </g>
      <g
         id="g204042"
         transform="translate(354.5977,578.7841)">
        <path
           d="m 0,0 6.559,0 m -7.215,47.703 6.558,0 m -5.894,48.527 6.558,0 m 194.469,-139.398 0,-4.098 m -36.312,3.691 0,-4.101 m -36.149,4.508 0,-4.098 m -36.226,3.937 0,-4.101 m -36.231,3.937 0,-4.101 m -36.476,3.773 0,-4.101 m 204.343,0.246 -224.589,0 m 0.492,166.887 0,-166.887 M 18.73,-29.454 197.215,92.394"
           style="fill:none;stroke:#231f20;stroke-width:0.80000001;stroke-linecap:butt;stroke-linejoin:miter;stroke-miterlimit:4;stroke-opacity:1;stroke-dasharray:none"
           id="path204044" />
      </g>
      <g
         id="g204046"
         transform="translate(350.166,582.9271)">
        <path
           d="M 0,0 -0.544,0 C -0.69,-0.297 -0.94,-0.603 -1.294,-0.918 -1.646,-1.234 -2.06,-1.503 -2.531,-1.725 l 0,-0.816 c 0.262,0.097 0.558,0.243 0.888,0.437 0.33,0.193 0.596,0.387 0.799,0.581 l 0,-5.377 L 0,-6.9 0,0 z m -4.411,-5.939 -0.961,0 0,-0.961 0.961,0 0,0.961 z m -5.47,4.749 c 0.231,0.328 0.54,0.492 0.928,0.492 0.393,0 0.723,-0.186 0.986,-0.558 0.265,-0.372 0.397,-1.124 0.397,-2.255 0,-1.125 -0.132,-1.875 -0.397,-2.25 -0.263,-0.375 -0.59,-0.562 -0.976,-0.562 -0.388,0 -0.714,0.186 -0.978,0.56 -0.265,0.373 -0.396,1.124 -0.396,2.252 0,1.128 0.145,1.902 0.436,2.321 m -0.624,-5.115 c 0.378,-0.475 0.899,-0.712 1.562,-0.712 0.503,0 0.919,0.135 1.249,0.405 0.329,0.271 0.577,0.654 0.743,1.149 0.165,0.495 0.248,1.146 0.248,1.952 0,0.681 -0.052,1.223 -0.154,1.624 -0.104,0.402 -0.247,0.742 -0.427,1.022 -0.182,0.28 -0.411,0.494 -0.69,0.642 C -8.252,-0.074 -8.575,0 -8.943,0 c -0.5,0 -0.915,-0.134 -1.245,-0.403 -0.33,-0.269 -0.579,-0.651 -0.746,-1.146 -0.167,-0.495 -0.251,-1.149 -0.251,-1.962 0,-1.291 0.227,-2.222 0.68,-2.794"
           style="fill:#231f20;fill-opacity:1;fill-rule:nonzero;stroke:none"
           id="path204048" />
      </g>
      <g
         id="g204050"
         transform="translate(346.9834,677.1464)">
        <path
           d="m 0,0 c 0.231,0.328 0.54,0.492 0.928,0.492 0.393,0 0.722,-0.186 0.987,-0.557 0.264,-0.373 0.396,-1.124 0.396,-2.255 0,-1.125 -0.132,-1.875 -0.396,-2.25 -0.265,-0.375 -0.59,-0.563 -0.977,-0.563 -0.388,0 -0.714,0.187 -0.978,0.56 -0.264,0.374 -0.397,1.125 -0.397,2.253 0,1.128 0.146,1.901 0.437,2.32 m -0.624,-5.114 c 0.379,-0.475 0.898,-0.713 1.562,-0.713 0.502,0 0.918,0.136 1.249,0.406 0.33,0.27 0.577,0.653 0.743,1.149 0.165,0.495 0.248,1.146 0.248,1.952 0,0.681 -0.052,1.222 -0.155,1.624 C 2.92,-0.294 2.778,0.046 2.597,0.326 2.415,0.605 2.186,0.819 1.907,0.968 1.63,1.116 1.306,1.19 0.938,1.19 0.438,1.19 0.022,1.056 -0.308,0.788 -0.637,0.519 -0.886,0.137 -1.053,-0.358 -1.22,-0.854 -1.304,-1.508 -1.304,-2.32 c 0,-1.291 0.227,-2.222 0.68,-2.794 m -2.84,6.304 -0.544,0 C -4.155,0.894 -4.405,0.587 -4.758,0.272 -5.111,-0.044 -5.523,-0.313 -5.995,-0.534 l 0,-0.816 c 0.262,0.097 0.558,0.242 0.888,0.436 0.33,0.194 0.596,0.388 0.799,0.581 l 0,-5.376 0.844,0 0,6.899 z"
           style="fill:#231f20;fill-opacity:1;fill-rule:nonzero;stroke:none"
           id="path204052" />
      </g>
      <g
         id="g204054"
         transform="translate(350.166,630.1405)">
        <path
           d="M 0,0 -0.544,0 C -0.69,-0.297 -0.94,-0.604 -1.294,-0.919 -1.646,-1.234 -2.06,-1.503 -2.531,-1.725 l 0,-0.816 c 0.262,0.097 0.558,0.242 0.888,0.436 0.33,0.194 0.596,0.388 0.799,0.582 l 0,-5.377 L 0,-6.9 0,0 z"
           style="fill:#231f20;fill-opacity:1;fill-rule:nonzero;stroke:none"
           id="path204056" />
      </g>
      <g
         id="g204058"
         transform="translate(371.3311,520.7724)">
        <path
           d="m 0,0 c 0.094,0.153 0.212,0.306 0.355,0.457 0.144,0.152 0.469,0.44 0.976,0.865 0.607,0.512 1.04,0.916 1.301,1.209 0.261,0.294 0.447,0.574 0.559,0.84 C 3.305,3.636 3.36,3.906 3.36,4.182 3.36,4.722 3.168,5.175 2.784,5.541 2.399,5.906 1.878,6.089 1.219,6.089 0.565,6.089 0.045,5.92 -0.343,5.581 -0.73,5.242 -0.954,4.749 -1.013,4.102 l 0.867,-0.089 c 0.003,0.431 0.126,0.768 0.371,1.012 0.244,0.244 0.568,0.366 0.974,0.366 0.385,0 0.697,-0.115 0.936,-0.345 C 2.374,4.816 2.493,4.535 2.493,4.2 2.493,3.881 2.362,3.543 2.1,3.186 1.837,2.828 1.332,2.342 0.586,1.73 0.104,1.336 -0.264,0.989 -0.519,0.689 -0.773,0.389 -0.958,0.084 -1.074,-0.225 -1.146,-0.412 -1.179,-0.607 -1.172,-0.811 l 4.542,0 L 3.37,0 0,0 z"
           style="fill:#231f20;fill-opacity:1;fill-rule:nonzero;stroke:none"
           id="path204060" />
      </g>
      <g
         id="g204062"
         transform="translate(408.5244,523.3642)">
        <path
           d="M 0,0 2.151,3.099 2.151,0 0,0 z m 2.995,-2.419 0,1.646 0.929,0 0,0.773 -0.929,0 0,4.453 -0.688,0 L -0.829,0 l 0,-0.773 2.98,0 0,-1.646 0.844,0 z"
           style="fill:#231f20;fill-opacity:1;fill-rule:nonzero;stroke:none"
           id="path204064" />
      </g>
      <g
         id="g204066"
         transform="translate(445.2861,523.5849)">
        <path
           d="m 0,0 c 0.261,0.262 0.59,0.394 0.987,0.394 0.407,0 0.744,-0.133 1.015,-0.399 0.27,-0.266 0.405,-0.601 0.405,-1.008 0,-0.4 -0.131,-0.729 -0.393,-0.989 -0.263,-0.259 -0.596,-0.389 -0.999,-0.389 -0.259,0 -0.501,0.062 -0.727,0.185 -0.225,0.124 -0.394,0.298 -0.508,0.523 -0.114,0.225 -0.172,0.458 -0.172,0.699 0,0.393 0.131,0.721 0.392,0.984 M 0.199,2.93 C 0.412,3.136 0.679,3.239 1.001,3.239 1.319,3.239 1.586,3.133 1.8,2.922 2.015,2.711 2.121,2.451 2.121,2.142 2.121,1.845 2.018,1.594 1.81,1.39 1.602,1.185 1.335,1.083 1.011,1.083 c -0.335,0 -0.607,0.103 -0.817,0.309 -0.209,0.206 -0.313,0.472 -0.313,0.797 0,0.288 0.106,0.534 0.318,0.741 M -0.919,0.143 c -0.227,-0.302 -0.34,-0.676 -0.34,-1.123 0,-0.6 0.208,-1.101 0.624,-1.502 0.415,-0.402 0.962,-0.602 1.641,-0.602 0.678,0 1.224,0.199 1.64,0.6 0.416,0.4 0.624,0.893 0.624,1.481 0,0.425 -0.111,0.79 -0.331,1.097 C 2.719,0.4 2.397,0.622 1.976,0.759 2.316,0.887 2.57,1.069 2.737,1.305 2.905,1.541 2.988,1.818 2.988,2.137 2.988,2.637 2.806,3.062 2.44,3.41 2.074,3.758 1.592,3.933 0.991,3.933 0.395,3.933 -0.083,3.762 -0.442,3.422 -0.802,3.081 -0.981,2.661 -0.981,2.161 -0.981,1.83 -0.897,1.545 -0.729,1.308 -0.56,1.07 -0.301,0.887 0.05,0.759 -0.369,0.65 -0.692,0.444 -0.919,0.143"
           style="fill:#231f20;fill-opacity:1;fill-rule:nonzero;stroke:none"
           id="path204068" />
      </g>
      <g
         id="g204070"
         transform="translate(483.9004,524.2479)">
        <path
           d="m 0,0 c 0.266,0.273 0.59,0.41 0.971,0.41 0.384,0 0.703,-0.137 0.956,-0.41 0.253,-0.274 0.38,-0.648 0.38,-1.123 0,-0.494 -0.128,-0.884 -0.385,-1.172 -0.256,-0.288 -0.563,-0.431 -0.918,-0.431 -0.244,0 -0.477,0.069 -0.699,0.208 -0.222,0.14 -0.395,0.342 -0.518,0.608 -0.123,0.265 -0.185,0.543 -0.185,0.834 0,0.444 0.132,0.802 0.398,1.076 M 2.426,3.143 C 2.081,3.446 1.638,3.598 1.098,3.598 0.372,3.598 -0.204,3.335 -0.633,2.81 -1.123,2.207 -1.368,1.241 -1.368,-0.087 c 0,-1.187 0.222,-2.04 0.665,-2.557 0.444,-0.517 1.017,-0.776 1.721,-0.776 0.412,0 0.781,0.099 1.106,0.295 0.325,0.197 0.58,0.481 0.767,0.852 0.185,0.37 0.278,0.771 0.278,1.202 0,0.656 -0.197,1.191 -0.593,1.605 C 2.181,0.948 1.702,1.155 1.14,1.155 0.817,1.155 0.51,1.08 0.216,0.93 -0.078,0.78 -0.326,0.551 -0.529,0.241 -0.523,0.929 -0.443,1.458 -0.29,1.83 -0.137,2.202 0.072,2.485 0.338,2.679 0.541,2.829 0.777,2.904 1.046,2.904 1.38,2.904 1.661,2.783 1.89,2.543 2.027,2.393 2.133,2.152 2.208,1.821 L 3.047,1.887 C 2.979,2.421 2.771,2.839 2.426,3.143 m -5.918,0.455 -0.543,0 C -4.183,3.3 -4.433,2.994 -4.785,2.679 -5.139,2.363 -5.551,2.094 -6.023,1.873 l 0,-0.816 c 0.262,0.096 0.558,0.242 0.888,0.436 0.33,0.194 0.596,0.387 0.799,0.581 l 0,-5.377 0.844,0 0,6.901 z"
           style="fill:#231f20;fill-opacity:1;fill-rule:nonzero;stroke:none"
           id="path204072" />
      </g>
      <g
         id="g204074"
         transform="translate(520.0176,521.1005)">
        <path
           d="M 0,0 C 0.094,0.153 0.213,0.305 0.356,0.457 0.5,0.608 0.825,0.897 1.331,1.322 1.938,1.834 2.371,2.237 2.632,2.531 2.893,2.825 3.08,3.104 3.192,3.37 3.305,3.636 3.361,3.906 3.361,4.181 3.361,4.722 3.169,5.175 2.784,5.541 2.4,5.906 1.878,6.089 1.219,6.089 0.565,6.089 0.045,5.919 -0.342,5.581 -0.729,5.241 -0.953,4.749 -1.013,4.102 L -0.146,4.013 C -0.143,4.444 -0.019,4.781 0.225,5.025 0.469,5.269 0.794,5.391 1.2,5.391 1.584,5.391 1.896,5.276 2.135,5.046 2.374,4.816 2.494,4.534 2.494,4.2 2.494,3.881 2.362,3.543 2.1,3.185 1.838,2.827 1.333,2.342 0.586,1.729 0.104,1.336 -0.264,0.989 -0.518,0.689 -0.772,0.389 -0.958,0.084 -1.073,-0.225 -1.146,-0.413 -1.179,-0.608 -1.172,-0.811 l 4.542,0 L 3.37,0 0,0 z m -5.707,-0.394 c 0.398,-0.359 0.899,-0.539 1.502,-0.539 0.669,0 1.223,0.209 1.66,0.626 0.438,0.417 0.656,0.926 0.656,1.526 0,0.444 -0.113,0.813 -0.338,1.108 -0.224,0.296 -0.541,0.49 -0.947,0.584 0.313,0.144 0.549,0.338 0.708,0.581 0.159,0.244 0.239,0.514 0.239,0.811 0,0.313 -0.084,0.608 -0.251,0.886 -0.167,0.278 -0.408,0.498 -0.723,0.659 -0.317,0.161 -0.661,0.241 -1.036,0.241 -0.544,0 -0.999,-0.155 -1.365,-0.466 C -5.967,5.312 -6.201,4.874 -6.305,4.308 l 0.844,-0.15 c 0.063,0.412 0.203,0.722 0.422,0.928 0.219,0.206 0.492,0.31 0.82,0.31 0.331,0 0.602,-0.102 0.811,-0.305 0.21,-0.204 0.314,-0.46 0.314,-0.769 0,-0.391 -0.143,-0.68 -0.431,-0.867 -0.288,-0.188 -0.611,-0.282 -0.97,-0.282 -0.034,0 -0.08,0.003 -0.136,0.01 L -4.725,2.442 c 0.238,0.063 0.436,0.094 0.595,0.094 0.391,0 0.713,-0.126 0.966,-0.377 0.253,-0.252 0.38,-0.572 0.38,-0.959 0,-0.406 -0.137,-0.747 -0.41,-1.022 -0.274,-0.275 -0.609,-0.412 -1.006,-0.412 -0.334,0 -0.618,0.105 -0.851,0.316 -0.232,0.211 -0.397,0.556 -0.494,1.034 L -6.389,1.003 c 0.056,-0.572 0.284,-1.038 0.682,-1.397"
           style="fill:#231f20;fill-opacity:1;fill-rule:nonzero;stroke:none"
           id="path204076" />
      </g>
      <g
         id="g204078"
         transform="translate(555.9092,522.3803)">
        <path
           d="M 0,0 2.152,3.099 2.152,0 0,0 z m 2.996,-2.418 0,1.645 0.928,0 0,0.773 -0.928,0 0,4.453 -0.689,0 L -0.829,0 l 0,-0.773 2.981,0 0,-1.645 0.844,0 z m -7.557,3.302 c 0.266,0.273 0.589,0.41 0.971,0.41 0.384,0 0.703,-0.137 0.956,-0.41 0.253,-0.274 0.38,-0.648 0.38,-1.123 0,-0.494 -0.129,-0.885 -0.385,-1.172 -0.256,-0.287 -0.562,-0.431 -0.919,-0.431 -0.243,0 -0.476,0.07 -0.698,0.209 -0.222,0.138 -0.394,0.341 -0.517,0.607 -0.124,0.265 -0.186,0.543 -0.186,0.834 0,0.443 0.133,0.802 0.398,1.076 m 2.426,3.143 C -2.48,4.33 -2.923,4.481 -3.464,4.481 -4.188,4.481 -4.766,4.219 -5.193,3.694 -5.684,3.091 -5.93,2.125 -5.93,0.797 c 0,-1.188 0.223,-2.04 0.666,-2.557 0.444,-0.517 1.018,-0.776 1.721,-0.776 0.412,0 0.781,0.098 1.105,0.295 0.326,0.198 0.582,0.481 0.767,0.851 0.187,0.37 0.279,0.771 0.279,1.202 0,0.657 -0.198,1.192 -0.592,1.606 -0.396,0.414 -0.875,0.621 -1.438,0.621 -0.321,0 -0.629,-0.075 -0.923,-0.225 -0.294,-0.15 -0.542,-0.379 -0.745,-0.689 0.006,0.688 0.086,1.217 0.238,1.589 0.154,0.372 0.364,0.655 0.629,0.849 0.203,0.149 0.439,0.225 0.707,0.225 0.335,0 0.617,-0.121 0.844,-0.361 0.138,-0.15 0.244,-0.391 0.319,-0.722 l 0.839,0.066 c -0.068,0.534 -0.275,0.953 -0.621,1.256"
           style="fill:#231f20;fill-opacity:1;fill-rule:nonzero;stroke:none"
           id="path204080" />
      </g>
      <g
         id="g204082"
         transform="translate(350.5254,535.8729)">
        <path
           d="M 0,0 -0.544,0 C -0.69,-0.297 -0.94,-0.603 -1.294,-0.919 -1.646,-1.234 -2.06,-1.503 -2.531,-1.725 l 0,-0.816 c 0.262,0.097 0.558,0.243 0.888,0.437 0.33,0.193 0.596,0.387 0.799,0.581 l 0,-5.377 L 0,-6.9 0,0 z m -7.214,-1.19 c 0.232,0.328 0.54,0.492 0.928,0.492 0.393,0 0.723,-0.186 0.987,-0.558 0.264,-0.372 0.396,-1.124 0.396,-2.255 0,-1.125 -0.132,-1.875 -0.396,-2.25 -0.264,-0.375 -0.59,-0.562 -0.977,-0.562 -0.388,0 -0.714,0.186 -0.978,0.56 -0.264,0.373 -0.396,1.124 -0.396,2.252 0,1.128 0.145,1.902 0.436,2.321 m -0.624,-5.115 c 0.379,-0.475 0.899,-0.712 1.562,-0.712 0.503,0 0.919,0.135 1.249,0.405 0.33,0.271 0.577,0.654 0.743,1.149 0.165,0.495 0.248,1.146 0.248,1.952 0,0.681 -0.052,1.223 -0.154,1.624 -0.104,0.402 -0.246,0.742 -0.427,1.022 -0.182,0.28 -0.411,0.494 -0.69,0.642 C -5.584,-0.074 -5.908,0 -6.276,0 c -0.5,0 -0.915,-0.134 -1.245,-0.403 -0.33,-0.269 -0.579,-0.651 -0.746,-1.146 -0.167,-0.495 -0.251,-1.149 -0.251,-1.962 0,-1.291 0.227,-2.222 0.68,-2.794 m -1.912,0.366 -0.961,0 0,-0.961 0.961,0 0,0.961 z m -5.471,4.749 c 0.232,0.328 0.541,0.492 0.929,0.492 0.394,0 0.723,-0.186 0.986,-0.558 0.265,-0.372 0.397,-1.124 0.397,-2.255 0,-1.125 -0.132,-1.875 -0.397,-2.25 -0.263,-0.375 -0.59,-0.562 -0.977,-0.562 -0.387,0 -0.713,0.186 -0.977,0.56 -0.264,0.373 -0.396,1.124 -0.396,2.252 0,1.128 0.145,1.902 0.435,2.321 m -0.623,-5.115 c 0.378,-0.475 0.899,-0.712 1.561,-0.712 0.504,0 0.92,0.135 1.25,0.405 0.329,0.271 0.577,0.654 0.742,1.149 0.166,0.495 0.249,1.146 0.249,1.952 0,0.681 -0.052,1.223 -0.155,1.624 -0.103,0.402 -0.245,0.742 -0.426,1.022 -0.182,0.28 -0.411,0.494 -0.69,0.642 -0.278,0.149 -0.601,0.223 -0.97,0.223 -0.5,0 -0.914,-0.134 -1.244,-0.403 -0.33,-0.269 -0.578,-0.651 -0.745,-1.146 -0.167,-0.495 -0.251,-1.149 -0.251,-1.962 0,-1.291 0.226,-2.222 0.679,-2.794"
           style="fill:#231f20;fill-opacity:1;fill-rule:nonzero;stroke:none"
           id="path204084" />
      </g>
      <g
         transform="translate(0,12.8)"
         id="g205470">
        <g
           transform="translate(501.1797,672.7383)"
           id="g204086">
          <path
             id="path204088"
             style="fill:#231f20;fill-opacity:1;fill-rule:nonzero;stroke:none"
             d="M 0,0 2.151,3.099 2.151,0 0,0 z m 2.995,-2.418 0,1.645 0.929,0 0,0.773 -0.929,0 0,4.453 -0.688,0 L -0.829,0 l 0,-0.773 2.98,0 0,-1.645 0.844,0 z m -4.246,2.91 -2.593,0 0,-0.848 2.593,0 0,0.848 z m -6.527,1.097 c 0.263,0.26 0.59,0.389 0.976,0.389 0.429,0 0.778,-0.162 1.046,-0.487 0.175,-0.21 0.281,-0.524 0.318,-0.943 l -2.779,0 c 0.029,0.435 0.174,0.782 0.439,1.041 m 1.811,-3.183 c -0.219,-0.162 -0.483,-0.243 -0.792,-0.243 -0.416,0 -0.762,0.145 -1.041,0.436 -0.278,0.29 -0.432,0.709 -0.464,1.256 l 3.712,0 c 0.004,0.1 0.005,0.175 0.005,0.225 0,0.822 -0.211,1.459 -0.633,1.912 -0.422,0.453 -0.966,0.68 -1.631,0.68 -0.687,0 -1.247,-0.231 -1.678,-0.694 -0.431,-0.462 -0.647,-1.112 -0.647,-1.95 0,-0.809 0.213,-1.438 0.64,-1.886 0.427,-0.449 1.004,-0.673 1.732,-0.673 0.578,0 1.053,0.14 1.425,0.422 0.372,0.281 0.627,0.676 0.764,1.186 l -0.871,0.108 c -0.129,-0.357 -0.302,-0.616 -0.521,-0.779 m -7.774,-0.407 c 0.398,-0.36 0.899,-0.54 1.502,-0.54 0.669,0 1.222,0.209 1.66,0.626 0.437,0.417 0.656,0.926 0.656,1.526 0,0.444 -0.113,0.813 -0.338,1.109 -0.224,0.295 -0.541,0.489 -0.947,0.583 0.312,0.144 0.549,0.338 0.708,0.581 0.159,0.244 0.239,0.514 0.239,0.811 0,0.313 -0.084,0.608 -0.251,0.887 -0.167,0.277 -0.408,0.497 -0.723,0.658 -0.317,0.161 -0.661,0.241 -1.036,0.241 -0.544,0 -1,-0.155 -1.365,-0.466 -0.365,-0.311 -0.599,-0.749 -0.703,-1.315 l 0.844,-0.15 c 0.062,0.412 0.203,0.722 0.422,0.928 0.219,0.207 0.492,0.31 0.82,0.31 0.331,0 0.602,-0.102 0.811,-0.305 0.21,-0.203 0.314,-0.46 0.314,-0.769 0,-0.39 -0.143,-0.679 -0.432,-0.867 -0.287,-0.187 -0.61,-0.281 -0.969,-0.281 -0.034,0 -0.08,0.003 -0.136,0.009 l -0.094,-0.741 c 0.238,0.063 0.436,0.094 0.595,0.094 0.391,0 0.713,-0.126 0.966,-0.377 0.253,-0.252 0.38,-0.571 0.38,-0.959 0,-0.406 -0.137,-0.747 -0.411,-1.022 -0.273,-0.275 -0.608,-0.412 -1.005,-0.412 -0.334,0 -0.619,0.105 -0.851,0.316 -0.232,0.211 -0.397,0.556 -0.494,1.034 l -0.844,-0.112 c 0.056,-0.572 0.283,-1.038 0.682,-1.397 m -4.287,2.325 -4.537,0 0,-0.788 4.537,0 0,0.788 z m 0,2.086 -4.537,0 0,-0.788 4.537,0 0,0.788 z M -29.294,1.507 c 0.276,0.336 0.594,0.504 0.953,0.504 0.363,0 0.675,-0.158 0.936,-0.473 0.26,-0.316 0.391,-0.791 0.391,-1.425 0,-0.666 -0.133,-1.157 -0.401,-1.475 -0.267,-0.317 -0.588,-0.475 -0.963,-0.475 -0.369,0 -0.683,0.153 -0.942,0.459 -0.259,0.306 -0.389,0.78 -0.389,1.42 0,0.641 0.138,1.129 0.415,1.465 m -0.336,-5.834 0,2.424 c 0.145,-0.181 0.328,-0.331 0.551,-0.45 0.224,-0.119 0.476,-0.178 0.758,-0.178 0.383,0 0.75,0.109 1.098,0.325 0.349,0.218 0.615,0.53 0.797,0.938 0.183,0.408 0.275,0.867 0.275,1.376 0,0.475 -0.083,0.912 -0.248,1.31 -0.166,0.398 -0.412,0.707 -0.737,0.926 -0.325,0.219 -0.7,0.328 -1.125,0.328 -0.325,0 -0.601,-0.063 -0.83,-0.19 -0.227,-0.127 -0.432,-0.316 -0.613,-0.569 l 0,0.647 -0.77,0 0,-6.887 0.844,0 z m -5.479,1.909 c -0.009,-0.285 -0.056,-0.503 -0.141,-0.655 -0.084,-0.151 -0.216,-0.266 -0.394,-0.344 l 0.235,-0.361 c 0.271,0.119 0.471,0.287 0.596,0.504 0.125,0.217 0.187,0.503 0.187,0.856 l 0,0.96 -0.961,0 0,-0.96 0.478,0 z m -2.85,5.971 c -0.429,-0.487 -0.832,-1.087 -1.212,-1.798 -0.38,-0.711 -0.671,-1.449 -0.874,-2.214 -0.203,-0.766 -0.309,-1.419 -0.319,-1.959 l 0.867,0 c 0.047,0.684 0.155,1.314 0.324,1.888 0.235,0.816 0.567,1.61 0.996,2.382 0.43,0.772 0.864,1.39 1.301,1.856 l 0,0.656 -4.449,0 0,-0.811 3.366,0 z m -8.084,-5.564 c 0.396,-0.35 0.905,-0.525 1.531,-0.525 0.762,0 1.364,0.278 1.805,0.834 0.362,0.453 0.543,0.991 0.543,1.613 0,0.653 -0.206,1.188 -0.618,1.603 -0.413,0.416 -0.919,0.624 -1.519,0.624 -0.454,0 -0.887,-0.144 -1.299,-0.431 l 0.371,1.846 2.742,0 0,0.806 -3.417,0 -0.666,-3.529 0.793,-0.103 c 0.124,0.196 0.296,0.356 0.515,0.48 0.218,0.124 0.464,0.185 0.736,0.185 0.437,0 0.791,-0.139 1.061,-0.417 0.271,-0.278 0.406,-0.658 0.406,-1.139 0,-0.506 -0.14,-0.913 -0.421,-1.219 -0.282,-0.306 -0.626,-0.459 -1.032,-0.459 -0.338,0 -0.626,0.109 -0.865,0.326 -0.239,0.217 -0.392,0.541 -0.457,0.973 l -0.886,-0.076 c 0.056,-0.578 0.282,-1.042 0.677,-1.392 m -4.767,2.559 c 0.261,0.263 0.59,0.394 0.987,0.394 0.406,0 0.744,-0.132 1.014,-0.398 0.271,-0.266 0.407,-0.602 0.407,-1.008 0,-0.4 -0.132,-0.73 -0.395,-0.989 -0.262,-0.259 -0.595,-0.389 -0.998,-0.389 -0.26,0 -0.502,0.062 -0.726,0.185 -0.225,0.123 -0.395,0.298 -0.509,0.523 -0.115,0.225 -0.171,0.458 -0.171,0.698 0,0.394 0.13,0.722 0.391,0.984 m 0.2,2.93 c 0.212,0.207 0.479,0.31 0.801,0.31 0.319,0 0.585,-0.106 0.799,-0.317 0.214,-0.211 0.322,-0.471 0.322,-0.78 0,-0.297 -0.105,-0.548 -0.312,-0.753 -0.208,-0.204 -0.475,-0.307 -0.8,-0.307 -0.334,0 -0.606,0.103 -0.815,0.31 -0.21,0.206 -0.315,0.472 -0.315,0.797 0,0.287 0.107,0.534 0.32,0.74 m -1.119,-2.787 c -0.226,-0.301 -0.339,-0.675 -0.339,-1.122 0,-0.6 0.208,-1.101 0.623,-1.503 0.416,-0.401 0.963,-0.602 1.64,-0.602 0.679,0 1.226,0.2 1.641,0.6 0.416,0.4 0.624,0.894 0.624,1.481 0,0.425 -0.11,0.791 -0.331,1.097 -0.22,0.307 -0.541,0.528 -0.963,0.666 0.341,0.128 0.595,0.31 0.762,0.546 0.167,0.236 0.251,0.513 0.251,0.832 0,0.5 -0.183,0.924 -0.549,1.272 -0.365,0.349 -0.849,0.523 -1.448,0.523 -0.597,0 -1.076,-0.17 -1.435,-0.511 -0.359,-0.34 -0.539,-0.761 -0.539,-1.261 0,-0.331 0.085,-0.615 0.253,-0.853 0.169,-0.237 0.429,-0.42 0.778,-0.548 -0.419,-0.109 -0.741,-0.315 -0.968,-0.617 m -2.465,0.375 c -0.251,-0.273 -0.573,-0.41 -0.963,-0.41 -0.388,0 -0.714,0.137 -0.978,0.41 -0.264,0.274 -0.396,0.629 -0.396,1.067 0,0.488 0.139,0.884 0.418,1.191 0.277,0.306 0.604,0.459 0.979,0.459 0.363,0 0.673,-0.142 0.931,-0.427 0.258,-0.284 0.387,-0.668 0.387,-1.153 0,-0.484 -0.126,-0.863 -0.378,-1.137 m -2.463,-3.154 c 0.34,-0.299 0.779,-0.448 1.317,-0.448 0.506,0 0.947,0.136 1.324,0.408 0.376,0.272 0.661,0.668 0.851,1.188 0.19,0.521 0.286,1.22 0.286,2.098 0,0.843 -0.097,1.488 -0.289,1.933 -0.191,0.446 -0.473,0.789 -0.844,1.03 -0.37,0.24 -0.778,0.36 -1.225,0.36 -0.618,0 -1.134,-0.212 -1.544,-0.637 -0.411,-0.425 -0.617,-0.986 -0.617,-1.683 0,-0.675 0.197,-1.219 0.59,-1.631 0.394,-0.413 0.875,-0.619 1.445,-0.619 0.34,0 0.656,0.084 0.949,0.251 0.292,0.167 0.522,0.385 0.691,0.654 0.003,-0.075 0.004,-0.131 0.004,-0.169 0,-0.35 -0.042,-0.694 -0.126,-1.031 -0.085,-0.338 -0.189,-0.606 -0.314,-0.804 -0.125,-0.199 -0.285,-0.357 -0.481,-0.476 -0.195,-0.119 -0.423,-0.178 -0.681,-0.178 -0.304,0 -0.552,0.086 -0.745,0.258 -0.195,0.171 -0.326,0.448 -0.395,0.83 l -0.81,-0.076 c 0.068,-0.54 0.273,-0.96 0.614,-1.258 m -1.974,0.63 -0.961,0 0,-0.961 0.961,0 0,0.961 z m -5.471,4.749 c 0.232,0.328 0.541,0.492 0.929,0.492 0.394,0 0.723,-0.186 0.986,-0.558 0.265,-0.372 0.397,-1.123 0.397,-2.255 0,-1.125 -0.132,-1.875 -0.397,-2.25 -0.263,-0.375 -0.589,-0.562 -0.977,-0.562 -0.387,0 -0.713,0.187 -0.977,0.56 -0.264,0.373 -0.396,1.124 -0.396,2.252 0,1.129 0.145,1.902 0.435,2.321 m -0.623,-5.114 c 0.378,-0.475 0.899,-0.713 1.561,-0.713 0.504,0 0.92,0.135 1.25,0.406 0.329,0.27 0.577,0.653 0.742,1.148 0.166,0.495 0.249,1.146 0.249,1.952 0,0.682 -0.052,1.223 -0.155,1.625 -0.103,0.401 -0.245,0.742 -0.426,1.022 -0.182,0.279 -0.411,0.493 -0.689,0.642 -0.279,0.148 -0.602,0.222 -0.971,0.222 -0.5,0 -0.914,-0.134 -1.244,-0.403 -0.33,-0.268 -0.578,-0.651 -0.745,-1.146 -0.167,-0.495 -0.251,-1.149 -0.251,-1.962 0,-1.29 0.226,-2.221 0.679,-2.793 m -4.279,2.147 -4.538,0 0,-0.788 4.538,0 0,0.788 z m 0,2.086 -4.538,0 0,-0.788 4.538,0 0,0.788 z m -13.008,1.284 2.175,0 c 0.509,0 0.882,-0.105 1.118,-0.314 0.236,-0.21 0.354,-0.477 0.354,-0.802 0,-0.222 -0.061,-0.427 -0.183,-0.616 -0.122,-0.189 -0.3,-0.327 -0.534,-0.413 -0.234,-0.086 -0.56,-0.129 -0.976,-0.129 l -1.954,0 0,2.274 z m 0,-6.112 0,3.051 1.055,0 c 0.234,0 0.402,-0.011 0.506,-0.033 0.14,-0.034 0.279,-0.095 0.415,-0.183 0.136,-0.087 0.29,-0.24 0.462,-0.459 0.172,-0.219 0.39,-0.535 0.656,-0.947 l 0.909,-1.429 1.144,0 -1.196,1.87 c -0.237,0.365 -0.489,0.67 -0.754,0.914 -0.125,0.112 -0.308,0.226 -0.548,0.342 0.659,0.09 1.146,0.303 1.462,0.637 0.315,0.335 0.473,0.746 0.473,1.233 0,0.379 -0.095,0.724 -0.286,1.036 -0.19,0.313 -0.445,0.531 -0.764,0.654 -0.319,0.124 -0.784,0.185 -1.397,0.185 l -3.047,0 0,-6.871 0.91,0 z m -10.861,0 0,2.718 c 0,0.638 0.131,1.071 0.392,1.299 0.26,0.228 0.571,0.342 0.93,0.342 0.225,0 0.421,-0.051 0.588,-0.152 0.167,-0.102 0.283,-0.238 0.35,-0.409 0.065,-0.17 0.097,-0.427 0.097,-0.771 l 0,-3.027 0.844,0 0,3.06 c 0,0.391 -0.016,0.664 -0.047,0.82 -0.05,0.241 -0.136,0.449 -0.261,0.624 -0.125,0.175 -0.314,0.316 -0.566,0.424 -0.251,0.108 -0.527,0.162 -0.827,0.162 -0.69,0 -1.219,-0.274 -1.584,-0.82 l 0,0.708 -0.76,0 0,-4.978 0.844,0 z m -3.005,2.189 c 0,-0.373 -0.045,-0.654 -0.136,-0.844 -0.119,-0.247 -0.304,-0.442 -0.557,-0.584 -0.253,-0.142 -0.542,-0.213 -0.867,-0.213 -0.329,0 -0.578,0.075 -0.749,0.225 -0.169,0.15 -0.254,0.337 -0.254,0.562 0,0.147 0.039,0.281 0.117,0.401 0.078,0.12 0.188,0.212 0.332,0.274 0.144,0.063 0.389,0.119 0.736,0.169 0.612,0.088 1.072,0.194 1.378,0.319 l 0,-0.309 z m 0.239,-2.189 0.881,0 c -0.105,0.19 -0.177,0.389 -0.213,0.597 -0.036,0.208 -0.053,0.704 -0.053,1.488 l 0,1.125 c 0,0.375 -0.015,0.635 -0.042,0.778 -0.051,0.232 -0.138,0.423 -0.263,0.575 -0.125,0.151 -0.32,0.277 -0.586,0.377 -0.266,0.1 -0.611,0.15 -1.036,0.15 -0.428,0 -0.805,-0.059 -1.13,-0.176 -0.325,-0.117 -0.573,-0.284 -0.745,-0.501 -0.172,-0.218 -0.295,-0.503 -0.37,-0.856 l 0.825,-0.112 c 0.09,0.353 0.23,0.599 0.419,0.738 0.189,0.139 0.482,0.209 0.879,0.209 0.425,0 0.745,-0.096 0.961,-0.286 0.159,-0.141 0.239,-0.383 0.239,-0.727 0,-0.031 -0.002,-0.105 -0.005,-0.22 -0.321,-0.113 -0.823,-0.21 -1.505,-0.291 -0.334,-0.04 -0.584,-0.083 -0.75,-0.126 -0.224,-0.063 -0.427,-0.155 -0.606,-0.277 -0.18,-0.122 -0.325,-0.284 -0.437,-0.485 -0.11,-0.202 -0.166,-0.424 -0.166,-0.668 0,-0.416 0.147,-0.757 0.441,-1.024 0.294,-0.267 0.713,-0.401 1.26,-0.401 0.332,0 0.642,0.054 0.931,0.164 0.289,0.109 0.59,0.297 0.902,0.562 0.026,-0.234 0.081,-0.439 0.169,-0.613 m -10.57,0 0,2.582 c 0,0.453 0.045,0.8 0.136,1.041 0.091,0.24 0.237,0.423 0.438,0.548 0.201,0.125 0.421,0.188 0.658,0.188 0.313,0 0.539,-0.094 0.676,-0.281 0.137,-0.188 0.206,-0.469 0.206,-0.844 l 0,-3.234 0.844,0 0,2.892 c 0,0.512 0.115,0.885 0.347,1.117 0.231,0.233 0.521,0.35 0.872,0.35 0.193,0 0.362,-0.045 0.506,-0.136 0.143,-0.091 0.243,-0.21 0.297,-0.359 0.055,-0.148 0.083,-0.391 0.083,-0.729 l 0,-3.135 0.838,0 0,3.417 c 0,0.568 -0.132,0.989 -0.398,1.263 -0.266,0.273 -0.646,0.41 -1.139,0.41 -0.632,0 -1.143,-0.291 -1.538,-0.872 -0.096,0.275 -0.263,0.489 -0.499,0.642 -0.235,0.153 -0.538,0.23 -0.907,0.23 -0.331,0 -0.626,-0.074 -0.886,-0.223 -0.259,-0.148 -0.467,-0.344 -0.623,-0.588 l 0,0.699 -0.755,0 0,-4.978 0.844,0 z m -3.206,0 0,2.606 c 0,0.356 0.047,0.684 0.141,0.984 0.062,0.197 0.167,0.351 0.313,0.462 0.148,0.111 0.313,0.166 0.497,0.166 0.206,0 0.413,-0.061 0.619,-0.183 l 0.29,0.783 c -0.293,0.182 -0.582,0.272 -0.867,0.272 -0.196,0 -0.377,-0.056 -0.541,-0.169 -0.164,-0.112 -0.343,-0.345 -0.537,-0.698 l 0,0.755 -0.759,0 0,-4.978 0.844,0 z m -2.995,2.189 c 0,-0.373 -0.046,-0.654 -0.137,-0.844 -0.118,-0.247 -0.305,-0.442 -0.557,-0.584 -0.253,-0.142 -0.542,-0.213 -0.868,-0.213 -0.328,0 -0.577,0.075 -0.747,0.225 -0.171,0.15 -0.256,0.337 -0.256,0.562 0,0.147 0.039,0.281 0.118,0.401 0.078,0.12 0.189,0.212 0.333,0.274 0.143,0.063 0.388,0.119 0.735,0.169 0.613,0.088 1.072,0.194 1.379,0.319 l 0,-0.309 z m 0.238,-2.189 0.882,0 c -0.106,0.19 -0.178,0.389 -0.214,0.597 -0.035,0.208 -0.054,0.704 -0.054,1.488 l 0,1.125 c 0,0.375 -0.013,0.635 -0.042,0.778 -0.049,0.232 -0.137,0.423 -0.262,0.575 -0.125,0.151 -0.321,0.277 -0.586,0.377 -0.266,0.1 -0.611,0.15 -1.036,0.15 -0.428,0 -0.805,-0.059 -1.129,-0.176 -0.325,-0.117 -0.575,-0.284 -0.746,-0.501 -0.172,-0.218 -0.295,-0.503 -0.37,-0.856 l 0.825,-0.112 c 0.091,0.353 0.23,0.599 0.42,0.738 0.188,0.139 0.481,0.209 0.879,0.209 0.424,0 0.745,-0.096 0.96,-0.286 0.16,-0.141 0.239,-0.383 0.239,-0.727 0,-0.031 -10e-4,-0.105 -0.004,-0.22 -0.322,-0.113 -0.824,-0.21 -1.505,-0.291 -0.335,-0.04 -0.585,-0.083 -0.75,-0.126 -0.226,-0.063 -0.428,-0.155 -0.607,-0.277 -0.18,-0.122 -0.326,-0.284 -0.436,-0.485 -0.111,-0.202 -0.167,-0.424 -0.167,-0.668 0,-0.416 0.147,-0.757 0.441,-1.024 0.293,-0.267 0.714,-0.401 1.261,-0.401 0.331,0 0.642,0.054 0.931,0.164 0.289,0.109 0.59,0.297 0.902,0.562 0.025,-0.234 0.081,-0.439 0.168,-0.613 m -7.68,4.007 c 0.264,0.26 0.59,0.389 0.977,0.389 0.429,0 0.777,-0.162 1.046,-0.487 0.175,-0.21 0.281,-0.524 0.318,-0.943 l -2.779,0 c 0.028,0.435 0.174,0.782 0.438,1.041 m 1.812,-3.183 c -0.219,-0.162 -0.483,-0.243 -0.792,-0.243 -0.416,0 -0.763,0.145 -1.041,0.436 -0.278,0.29 -0.433,0.709 -0.464,1.256 l 3.712,0 c 0.004,0.1 0.005,0.175 0.005,0.225 0,0.822 -0.211,1.459 -0.633,1.912 -0.422,0.453 -0.966,0.68 -1.631,0.68 -0.687,0 -1.247,-0.231 -1.679,-0.694 -0.43,-0.462 -0.646,-1.112 -0.646,-1.95 0,-0.809 0.213,-1.438 0.64,-1.886 0.426,-0.449 1.004,-0.673 1.732,-0.673 0.578,0 1.053,0.14 1.425,0.422 0.372,0.281 0.627,0.676 0.764,1.186 l -0.872,0.108 c -0.128,-0.357 -0.301,-0.616 -0.52,-0.779 m -7.048,3.101 c 0.276,0.336 0.595,0.504 0.954,0.504 0.363,0 0.674,-0.158 0.935,-0.473 0.261,-0.316 0.391,-0.791 0.391,-1.425 0,-0.666 -0.133,-1.157 -0.4,-1.475 -0.268,-0.317 -0.589,-0.475 -0.964,-0.475 -0.368,0 -0.682,0.153 -0.941,0.459 -0.26,0.306 -0.39,0.78 -0.39,1.42 0,0.641 0.139,1.129 0.415,1.465 m -0.335,-5.834 0,2.424 c 0.144,-0.181 0.327,-0.331 0.551,-0.45 0.224,-0.119 0.476,-0.178 0.757,-0.178 0.385,0 0.751,0.109 1.099,0.325 0.348,0.218 0.614,0.53 0.797,0.938 0.183,0.408 0.274,0.867 0.274,1.376 0,0.475 -0.082,0.912 -0.248,1.31 -0.166,0.398 -0.411,0.707 -0.737,0.926 -0.324,0.219 -0.699,0.328 -1.125,0.328 -0.324,0 -0.601,-0.063 -0.829,-0.19 -0.228,-0.127 -0.432,-0.316 -0.614,-0.569 l 0,0.647 -0.769,0 0,-6.887 0.844,0 z m -7.071,2.881 c 0.239,-0.364 0.568,-0.637 0.989,-0.818 0.42,-0.181 0.942,-0.272 1.564,-0.272 0.49,0 0.931,0.09 1.324,0.27 0.391,0.18 0.692,0.431 0.902,0.754 0.209,0.324 0.314,0.668 0.314,1.034 0,0.369 -0.095,0.694 -0.287,0.978 -0.19,0.282 -0.485,0.516 -0.885,0.7 -0.275,0.125 -0.782,0.271 -1.521,0.438 -0.739,0.168 -1.196,0.331 -1.371,0.49 -0.179,0.16 -0.267,0.363 -0.267,0.61 0,0.284 0.126,0.527 0.377,0.728 0.251,0.202 0.652,0.303 1.203,0.303 0.527,0 0.926,-0.111 1.197,-0.333 0.27,-0.222 0.429,-0.55 0.476,-0.984 l 0.872,0.065 c -0.016,0.403 -0.128,0.764 -0.338,1.083 -0.209,0.319 -0.508,0.56 -0.898,0.724 -0.388,0.164 -0.838,0.246 -1.347,0.246 -0.462,0 -0.883,-0.078 -1.261,-0.234 -0.378,-0.156 -0.666,-0.385 -0.862,-0.687 -0.198,-0.301 -0.296,-0.626 -0.296,-0.972 0,-0.316 0.081,-0.601 0.242,-0.856 0.16,-0.255 0.405,-0.468 0.733,-0.64 0.253,-0.134 0.696,-0.277 1.326,-0.429 0.632,-0.151 1.039,-0.263 1.224,-0.335 0.287,-0.109 0.494,-0.244 0.619,-0.405 0.125,-0.161 0.188,-0.349 0.188,-0.565 0,-0.213 -0.066,-0.408 -0.196,-0.588 -0.129,-0.18 -0.327,-0.321 -0.592,-0.424 -0.266,-0.103 -0.572,-0.155 -0.919,-0.155 -0.391,0 -0.743,0.068 -1.055,0.204 -0.313,0.136 -0.543,0.314 -0.691,0.534 -0.149,0.22 -0.243,0.503 -0.284,0.846 l -0.857,-0.075 c 0.012,-0.459 0.138,-0.871 0.377,-1.235" />
        </g>
        <g
           transform="translate(502.2207,685.1152)"
           id="g204090">
          <path
             id="path204092"
             style="fill:#231f20;fill-opacity:1;fill-rule:nonzero;stroke:none"
             d="M 0,0 2.152,3.098 2.152,0 0,0 z m 2.996,-2.419 0,1.646 0.928,0 0,0.773 -0.928,0 0,4.453 -0.689,0 L -0.829,0 l 0,-0.773 2.981,0 0,-1.646 0.844,0 z m -4.247,2.911 -2.593,0 0,-0.849 2.593,0 0,0.849 z m -6.527,1.097 c 0.263,0.259 0.59,0.389 0.977,0.389 0.428,0 0.777,-0.163 1.045,-0.487 0.175,-0.21 0.281,-0.524 0.318,-0.943 l -2.779,0 c 0.029,0.435 0.174,0.782 0.439,1.041 m 1.811,-3.183 c -0.219,-0.162 -0.482,-0.243 -0.792,-0.243 -0.416,0 -0.762,0.145 -1.041,0.435 -0.278,0.291 -0.432,0.71 -0.464,1.256 l 3.713,0 c 0.003,0.101 0.004,0.176 0.004,0.226 0,0.821 -0.211,1.459 -0.633,1.912 -0.422,0.453 -0.965,0.68 -1.631,0.68 -0.687,0 -1.247,-0.232 -1.677,-0.694 -0.432,-0.462 -0.648,-1.112 -0.648,-1.95 0,-0.809 0.214,-1.438 0.64,-1.887 0.427,-0.448 1.004,-0.672 1.732,-0.672 0.578,0 1.053,0.14 1.425,0.422 0.372,0.281 0.627,0.676 0.765,1.186 l -0.872,0.107 c -0.128,-0.356 -0.302,-0.615 -0.521,-0.778 m -7.774,-0.407 c 0.398,-0.36 0.899,-0.54 1.503,-0.54 0.668,0 1.221,0.209 1.659,0.626 0.437,0.417 0.656,0.926 0.656,1.526 0,0.444 -0.112,0.813 -0.338,1.108 -0.224,0.296 -0.54,0.49 -0.946,0.584 0.312,0.144 0.548,0.338 0.707,0.581 0.16,0.244 0.239,0.514 0.239,0.811 0,0.313 -0.083,0.608 -0.251,0.886 -0.167,0.278 -0.408,0.498 -0.723,0.659 -0.316,0.161 -0.661,0.241 -1.036,0.241 -0.544,0 -0.999,-0.155 -1.365,-0.466 -0.365,-0.311 -0.599,-0.749 -0.703,-1.315 l 0.844,-0.15 c 0.062,0.412 0.203,0.722 0.422,0.928 0.219,0.206 0.492,0.31 0.82,0.31 0.331,0 0.602,-0.102 0.812,-0.305 0.209,-0.203 0.313,-0.46 0.313,-0.769 0,-0.391 -0.143,-0.68 -0.431,-0.867 -0.288,-0.188 -0.611,-0.282 -0.97,-0.282 -0.034,0 -0.08,0.004 -0.136,0.01 l -0.094,-0.741 c 0.238,0.063 0.436,0.094 0.595,0.094 0.391,0 0.713,-0.126 0.966,-0.377 0.253,-0.252 0.38,-0.572 0.38,-0.959 0,-0.406 -0.137,-0.747 -0.411,-1.022 -0.273,-0.275 -0.608,-0.412 -1.005,-0.412 -0.334,0 -0.618,0.105 -0.851,0.316 -0.232,0.211 -0.397,0.556 -0.494,1.034 l -0.844,-0.113 c 0.056,-0.572 0.283,-1.037 0.682,-1.396 m -4.286,2.324 -4.538,0 0,-0.788 4.538,0 0,0.788 z m 0,2.086 -4.538,0 0,-0.788 4.538,0 0,0.788 z M -29.294,1.507 c 0.276,0.336 0.595,0.504 0.954,0.504 0.362,0 0.674,-0.158 0.935,-0.473 0.26,-0.316 0.391,-0.791 0.391,-1.426 0,-0.665 -0.133,-1.156 -0.4,-1.474 -0.268,-0.317 -0.589,-0.475 -0.964,-0.475 -0.368,0 -0.683,0.152 -0.942,0.459 -0.259,0.306 -0.389,0.779 -0.389,1.42 0,0.641 0.139,1.129 0.415,1.465 m -0.335,-5.834 0,2.424 c 0.144,-0.181 0.327,-0.331 0.551,-0.45 0.223,-0.119 0.475,-0.178 0.757,-0.178 0.383,0 0.751,0.108 1.098,0.325 0.349,0.218 0.615,0.53 0.797,0.938 0.184,0.408 0.275,0.866 0.275,1.376 0,0.475 -0.083,0.912 -0.248,1.31 -0.166,0.398 -0.412,0.707 -0.737,0.926 -0.325,0.219 -0.7,0.328 -1.125,0.328 -0.325,0 -0.601,-0.064 -0.829,-0.19 -0.228,-0.127 -0.433,-0.316 -0.614,-0.569 l 0,0.646 -0.769,0 0,-6.886 0.844,0 z m -5.48,1.908 c -0.009,-0.284 -0.056,-0.502 -0.141,-0.654 -0.084,-0.151 -0.215,-0.266 -0.394,-0.344 l 0.235,-0.361 c 0.272,0.118 0.471,0.286 0.596,0.504 0.125,0.217 0.187,0.502 0.187,0.855 l 0,0.961 -0.961,0 0,-0.961 0.478,0 z m -5.585,0.418 c 0.398,-0.36 0.899,-0.54 1.503,-0.54 0.668,0 1.221,0.209 1.659,0.626 0.437,0.417 0.656,0.926 0.656,1.526 0,0.444 -0.112,0.813 -0.338,1.108 -0.224,0.296 -0.54,0.49 -0.946,0.584 0.312,0.144 0.548,0.338 0.707,0.581 0.16,0.244 0.239,0.514 0.239,0.811 0,0.313 -0.083,0.608 -0.251,0.886 -0.167,0.278 -0.408,0.498 -0.723,0.659 -0.316,0.161 -0.662,0.241 -1.037,0.241 -0.544,0 -0.998,-0.155 -1.364,-0.466 -0.365,-0.311 -0.599,-0.749 -0.703,-1.315 l 0.844,-0.15 c 0.062,0.412 0.203,0.722 0.422,0.928 0.218,0.206 0.492,0.31 0.82,0.31 0.331,0 0.602,-0.102 0.811,-0.305 0.209,-0.203 0.314,-0.46 0.314,-0.769 0,-0.391 -0.144,-0.68 -0.431,-0.867 -0.288,-0.188 -0.611,-0.282 -0.97,-0.282 -0.035,0 -0.081,0.004 -0.136,0.01 l -0.094,-0.741 c 0.237,0.063 0.436,0.094 0.595,0.094 0.39,0 0.713,-0.126 0.966,-0.377 0.253,-0.252 0.38,-0.572 0.38,-0.959 0,-0.406 -0.137,-0.747 -0.411,-1.022 -0.273,-0.275 -0.608,-0.412 -1.006,-0.412 -0.333,0 -0.617,0.105 -0.85,0.316 -0.233,0.211 -0.398,0.556 -0.494,1.034 l -0.844,-0.113 c 0.056,-0.572 0.283,-1.037 0.682,-1.396 m -5.349,-0.01 c 0.396,-0.35 0.906,-0.525 1.531,-0.525 0.762,0 1.364,0.278 1.805,0.834 0.362,0.453 0.543,0.991 0.543,1.613 0,0.653 -0.206,1.187 -0.618,1.603 -0.413,0.416 -0.919,0.623 -1.519,0.623 -0.453,0 -0.887,-0.143 -1.299,-0.431 l 0.371,1.847 2.742,0 0,0.806 -3.417,0 -0.666,-3.529 0.793,-0.103 c 0.125,0.196 0.297,0.356 0.515,0.48 0.219,0.124 0.464,0.185 0.736,0.185 0.437,0 0.792,-0.139 1.061,-0.417 0.271,-0.278 0.406,-0.658 0.406,-1.139 0,-0.506 -0.14,-0.913 -0.421,-1.219 -0.282,-0.306 -0.625,-0.459 -1.032,-0.459 -0.338,0 -0.626,0.108 -0.865,0.325 -0.239,0.218 -0.392,0.542 -0.457,0.973 l -0.886,-0.075 c 0.056,-0.578 0.282,-1.042 0.677,-1.392 m -4.767,2.559 c 0.261,0.263 0.59,0.394 0.987,0.394 0.406,0 0.745,-0.133 1.014,-0.399 0.271,-0.265 0.407,-0.601 0.407,-1.007 0,-0.4 -0.132,-0.73 -0.395,-0.989 -0.262,-0.259 -0.595,-0.389 -0.998,-0.389 -0.26,0 -0.502,0.061 -0.726,0.185 -0.225,0.123 -0.395,0.298 -0.509,0.523 -0.115,0.224 -0.171,0.457 -0.171,0.698 0,0.394 0.131,0.722 0.391,0.984 m 0.2,2.93 c 0.212,0.206 0.479,0.31 0.801,0.31 0.319,0 0.585,-0.106 0.799,-0.317 0.214,-0.211 0.322,-0.471 0.322,-0.781 0,-0.296 -0.105,-0.547 -0.312,-0.752 -0.208,-0.205 -0.475,-0.307 -0.8,-0.307 -0.334,0 -0.606,0.103 -0.815,0.309 -0.209,0.207 -0.315,0.473 -0.315,0.797 0,0.288 0.107,0.535 0.32,0.741 m -1.119,-2.787 c -0.226,-0.301 -0.339,-0.675 -0.339,-1.122 0,-0.6 0.208,-1.101 0.623,-1.503 0.416,-0.401 0.963,-0.602 1.64,-0.602 0.679,0 1.226,0.2 1.641,0.6 0.416,0.4 0.624,0.894 0.624,1.481 0,0.425 -0.11,0.791 -0.331,1.097 -0.22,0.306 -0.541,0.528 -0.963,0.666 0.341,0.128 0.595,0.31 0.762,0.546 0.167,0.236 0.251,0.513 0.251,0.832 0,0.5 -0.183,0.924 -0.549,1.272 -0.365,0.349 -0.849,0.523 -1.448,0.523 -0.597,0 -1.076,-0.17 -1.435,-0.511 -0.359,-0.341 -0.539,-0.761 -0.539,-1.261 0,-0.331 0.085,-0.615 0.253,-0.853 0.169,-0.237 0.429,-0.42 0.778,-0.548 -0.419,-0.11 -0.741,-0.315 -0.968,-0.617 m -2.465,0.375 c -0.251,-0.273 -0.573,-0.41 -0.963,-0.41 -0.388,0 -0.714,0.137 -0.978,0.41 -0.263,0.274 -0.396,0.629 -0.396,1.067 0,0.487 0.139,0.884 0.418,1.19 0.277,0.306 0.604,0.46 0.979,0.46 0.363,0 0.673,-0.142 0.931,-0.427 0.258,-0.284 0.387,-0.668 0.387,-1.153 0,-0.484 -0.126,-0.863 -0.378,-1.137 m -2.463,-3.154 c 0.341,-0.299 0.779,-0.448 1.317,-0.448 0.506,0 0.947,0.136 1.324,0.408 0.376,0.272 0.661,0.668 0.851,1.188 0.19,0.521 0.286,1.22 0.286,2.098 0,0.843 -0.097,1.488 -0.289,1.933 -0.191,0.446 -0.473,0.788 -0.844,1.029 -0.37,0.241 -0.778,0.361 -1.225,0.361 -0.618,0 -1.134,-0.212 -1.544,-0.637 -0.411,-0.426 -0.617,-0.986 -0.617,-1.683 0,-0.675 0.197,-1.219 0.59,-1.631 0.394,-0.413 0.875,-0.619 1.445,-0.619 0.34,0 0.656,0.084 0.949,0.251 0.292,0.167 0.522,0.385 0.691,0.653 0.003,-0.074 0.004,-0.131 0.004,-0.168 0,-0.35 -0.042,-0.694 -0.126,-1.031 -0.085,-0.338 -0.189,-0.606 -0.314,-0.804 -0.125,-0.199 -0.285,-0.357 -0.481,-0.476 -0.195,-0.119 -0.423,-0.178 -0.681,-0.178 -0.304,0 -0.552,0.086 -0.745,0.258 -0.195,0.171 -0.326,0.448 -0.395,0.829 l -0.81,-0.075 c 0.068,-0.541 0.273,-0.96 0.614,-1.258 m -1.974,0.63 -0.961,0 0,-0.961 0.961,0 0,0.961 z m -5.471,4.749 c 0.232,0.328 0.541,0.492 0.929,0.492 0.394,0 0.723,-0.186 0.986,-0.558 0.265,-0.372 0.397,-1.123 0.397,-2.255 0,-1.125 -0.132,-1.875 -0.397,-2.25 -0.263,-0.375 -0.589,-0.562 -0.977,-0.562 -0.387,0 -0.713,0.186 -0.977,0.56 -0.264,0.373 -0.396,1.124 -0.396,2.252 0,1.128 0.145,1.902 0.435,2.321 m -0.623,-5.115 c 0.378,-0.474 0.899,-0.712 1.561,-0.712 0.504,0 0.92,0.135 1.25,0.406 0.329,0.27 0.577,0.652 0.742,1.148 0.166,0.495 0.249,1.146 0.249,1.952 0,0.681 -0.052,1.223 -0.155,1.624 -0.103,0.402 -0.245,0.742 -0.426,1.022 -0.182,0.28 -0.411,0.494 -0.689,0.642 -0.279,0.149 -0.602,0.223 -0.971,0.223 -0.5,0 -0.914,-0.134 -1.244,-0.403 -0.33,-0.269 -0.578,-0.651 -0.745,-1.146 -0.167,-0.495 -0.251,-1.149 -0.251,-1.962 0,-1.29 0.226,-2.221 0.679,-2.794 m -4.279,2.147 -4.538,0 0,-0.788 4.538,0 0,0.788 z m 0,2.086 -4.538,0 0,-0.788 4.538,0 0,0.788 z m -13.008,1.285 2.175,0 c 0.509,0 0.882,-0.105 1.118,-0.315 0.236,-0.209 0.354,-0.476 0.354,-0.801 0,-0.222 -0.061,-0.427 -0.183,-0.617 -0.122,-0.189 -0.3,-0.326 -0.534,-0.412 -0.234,-0.086 -0.56,-0.129 -0.976,-0.129 l -1.954,0 0,2.274 z m 0,-6.113 0,3.052 1.055,0 c 0.234,0 0.403,-0.011 0.506,-0.033 0.14,-0.035 0.279,-0.096 0.415,-0.183 0.136,-0.087 0.29,-0.241 0.462,-0.459 0.172,-0.219 0.39,-0.535 0.656,-0.947 l 0.909,-1.43 1.144,0 -1.196,1.871 c -0.237,0.365 -0.489,0.67 -0.754,0.914 -0.125,0.112 -0.308,0.226 -0.548,0.342 0.659,0.09 1.146,0.303 1.462,0.637 0.315,0.335 0.473,0.745 0.473,1.233 0,0.378 -0.095,0.723 -0.286,1.036 -0.19,0.312 -0.445,0.531 -0.764,0.654 -0.318,0.123 -0.784,0.185 -1.396,0.185 l -3.047,0 0,-6.872 0.909,0 z m -18.862,0 0,2.719 c 0,0.638 0.13,1.07 0.391,1.298 0.261,0.229 0.571,0.342 0.93,0.342 0.226,0 0.421,-0.05 0.589,-0.152 0.167,-0.101 0.283,-0.237 0.349,-0.408 0.065,-0.17 0.098,-0.427 0.098,-0.771 l 0,-3.028 0.844,0 0,3.061 c 0,0.391 -0.015,0.664 -0.047,0.82 -0.05,0.241 -0.137,0.449 -0.262,0.624 -0.125,0.175 -0.314,0.316 -0.565,0.424 -0.252,0.108 -0.527,0.162 -0.827,0.162 -0.691,0 -1.219,-0.274 -1.585,-0.82 l 0,0.707 -0.759,0 0,-4.978 0.844,0 z m -5.213,3.919 c 0.278,0.315 0.628,0.473 1.05,0.473 0.416,0 0.764,-0.158 1.043,-0.475 0.28,-0.318 0.42,-0.784 0.42,-1.4 0,-0.653 -0.14,-1.139 -0.417,-1.457 -0.279,-0.319 -0.627,-0.478 -1.046,-0.478 -0.422,0 -0.772,0.158 -1.05,0.475 -0.278,0.318 -0.417,0.795 -0.417,1.432 0,0.638 0.139,1.114 0.417,1.43 m -0.64,-3.361 c 0.43,-0.447 0.994,-0.67 1.69,-0.67 0.434,0 0.835,0.101 1.202,0.304 0.367,0.204 0.647,0.489 0.84,0.856 0.191,0.367 0.288,0.871 0.288,1.512 0,0.79 -0.218,1.41 -0.651,1.858 -0.435,0.449 -0.995,0.673 -1.679,0.673 -0.615,0 -1.138,-0.185 -1.566,-0.553 -0.512,-0.444 -0.768,-1.127 -0.768,-2.049 0,-0.841 0.215,-1.484 0.644,-1.931 m -4.819,-0.267 c 0.34,-0.269 0.832,-0.403 1.48,-0.403 0.39,0 0.74,0.068 1.049,0.203 0.31,0.137 0.546,0.328 0.71,0.577 0.164,0.249 0.246,0.513 0.246,0.794 0,0.288 -0.067,0.529 -0.201,0.723 -0.134,0.193 -0.319,0.341 -0.555,0.442 -0.237,0.102 -0.653,0.232 -1.249,0.392 -0.413,0.112 -0.662,0.184 -0.746,0.215 -0.147,0.06 -0.254,0.135 -0.324,0.226 -0.068,0.087 -0.102,0.186 -0.102,0.295 0,0.172 0.083,0.322 0.248,0.45 0.166,0.128 0.442,0.192 0.83,0.192 0.328,0 0.582,-0.072 0.762,-0.216 0.179,-0.143 0.288,-0.344 0.325,-0.599 l 0.825,0.112 c -0.053,0.322 -0.149,0.579 -0.29,0.771 -0.141,0.192 -0.359,0.345 -0.654,0.457 -0.295,0.113 -0.639,0.169 -1.03,0.169 -0.258,0 -0.502,-0.034 -0.728,-0.101 -0.227,-0.067 -0.405,-0.149 -0.537,-0.246 -0.175,-0.125 -0.313,-0.282 -0.414,-0.471 -0.102,-0.189 -0.153,-0.395 -0.153,-0.617 0,-0.243 0.062,-0.466 0.185,-0.668 0.124,-0.201 0.305,-0.359 0.544,-0.473 0.239,-0.114 0.668,-0.249 1.287,-0.406 0.459,-0.115 0.746,-0.211 0.862,-0.285 0.165,-0.11 0.248,-0.26 0.248,-0.45 0,-0.213 -0.093,-0.398 -0.281,-0.556 -0.187,-0.158 -0.475,-0.236 -0.862,-0.236 -0.385,0 -0.684,0.088 -0.898,0.267 -0.214,0.178 -0.344,0.434 -0.391,0.768 l -0.834,-0.131 c 0.093,-0.528 0.309,-0.926 0.648,-1.195 m -2.674,-0.291 0,2.607 c 0,0.355 0.047,0.684 0.141,0.984 0.062,0.197 0.167,0.35 0.314,0.461 0.147,0.112 0.313,0.167 0.496,0.167 0.207,0 0.414,-0.061 0.62,-0.183 l 0.291,0.783 c -0.294,0.181 -0.583,0.272 -0.868,0.272 -0.197,0 -0.378,-0.056 -0.542,-0.169 -0.164,-0.112 -0.342,-0.345 -0.536,-0.698 l 0,0.754 -0.759,0 0,-4.978 0.843,0 z m -2.995,2.189 c 0,-0.372 -0.046,-0.653 -0.136,-0.844 -0.119,-0.246 -0.304,-0.441 -0.558,-0.583 -0.253,-0.142 -0.542,-0.214 -0.867,-0.214 -0.328,0 -0.578,0.076 -0.747,0.225 -0.171,0.15 -0.256,0.338 -0.256,0.563 0,0.147 0.039,0.281 0.117,0.401 0.078,0.12 0.189,0.212 0.333,0.274 0.143,0.063 0.389,0.119 0.736,0.169 0.613,0.087 1.072,0.194 1.378,0.319 l 0,-0.31 z m 0.239,-2.189 0.881,0 c -0.106,0.191 -0.177,0.39 -0.213,0.598 -0.036,0.208 -0.054,0.704 -0.054,1.488 l 0,1.125 c 0,0.375 -0.014,0.634 -0.042,0.778 -0.05,0.231 -0.138,0.423 -0.263,0.575 -0.125,0.151 -0.32,0.277 -0.586,0.377 -0.266,0.1 -0.61,0.15 -1.035,0.15 -0.429,0 -0.805,-0.059 -1.13,-0.176 -0.325,-0.117 -0.573,-0.285 -0.745,-0.501 -0.172,-0.218 -0.296,-0.503 -0.371,-0.856 l 0.825,-0.113 c 0.091,0.353 0.23,0.599 0.42,0.739 0.188,0.139 0.481,0.208 0.879,0.208 0.425,0 0.745,-0.095 0.961,-0.285 0.159,-0.141 0.239,-0.383 0.239,-0.727 0,-0.031 -0.002,-0.105 -0.005,-0.22 -0.322,-0.113 -0.823,-0.21 -1.505,-0.291 -0.334,-0.041 -0.584,-0.083 -0.75,-0.127 -0.224,-0.062 -0.427,-0.155 -0.607,-0.276 -0.18,-0.122 -0.324,-0.284 -0.436,-0.485 -0.111,-0.202 -0.166,-0.425 -0.166,-0.668 0,-0.416 0.147,-0.757 0.441,-1.024 0.294,-0.268 0.714,-0.401 1.26,-0.401 0.332,0 0.642,0.054 0.931,0.164 0.289,0.109 0.59,0.297 0.902,0.562 0.025,-0.234 0.082,-0.439 0.169,-0.614 m -7.68,4.008 c 0.263,0.259 0.59,0.389 0.977,0.389 0.428,0 0.777,-0.163 1.045,-0.487 0.175,-0.21 0.281,-0.524 0.319,-0.943 l -2.78,0 c 0.029,0.435 0.174,0.782 0.439,1.041 m 1.811,-3.183 c -0.218,-0.162 -0.482,-0.243 -0.792,-0.243 -0.416,0 -0.762,0.145 -1.041,0.435 -0.278,0.291 -0.432,0.71 -0.464,1.256 l 3.713,0 c 0.003,0.101 0.004,0.176 0.004,0.226 0,0.821 -0.211,1.459 -0.633,1.912 -0.421,0.453 -0.964,0.68 -1.63,0.68 -0.688,0 -1.248,-0.232 -1.678,-0.694 -0.432,-0.462 -0.648,-1.112 -0.648,-1.95 0,-0.809 0.214,-1.438 0.64,-1.887 0.427,-0.448 1.004,-0.672 1.732,-0.672 0.579,0 1.053,0.14 1.425,0.422 0.372,0.281 0.627,0.676 0.765,1.186 l -0.872,0.107 c -0.128,-0.356 -0.302,-0.615 -0.521,-0.778 m -8.273,5.236 1.758,0 c 0.412,0 0.695,-0.02 0.848,-0.061 0.238,-0.065 0.429,-0.201 0.574,-0.405 0.146,-0.205 0.218,-0.451 0.218,-0.738 0,-0.397 -0.123,-0.705 -0.37,-0.924 -0.247,-0.219 -0.664,-0.328 -1.252,-0.328 l -1.776,0 0,2.456 z m 0,-6.061 0,2.794 1.763,0 c 0.971,0 1.643,0.202 2.015,0.607 0.372,0.405 0.558,0.899 0.558,1.483 0,0.341 -0.07,0.654 -0.209,0.938 -0.139,0.285 -0.322,0.506 -0.551,0.663 -0.228,0.158 -0.511,0.265 -0.848,0.321 -0.241,0.044 -0.589,0.066 -1.046,0.066 l -2.591,0 0,-6.872 0.909,0 z" />
        </g>
      </g>
    </g>
  </g>
</svg>
