<?xml version="1.0" encoding="UTF-8" standalone="no"?>
<!-- Created with Inkscape (http://www.inkscape.org/) -->
<svg
   xmlns:dc="http://purl.org/dc/elements/1.1/"
   xmlns:cc="http://creativecommons.org/ns#"
   xmlns:rdf="http://www.w3.org/1999/02/22-rdf-syntax-ns#"
   xmlns:svg="http://www.w3.org/2000/svg"
   xmlns="http://www.w3.org/2000/svg"
   xmlns:sodipodi="http://sodipodi.sourceforge.net/DTD/sodipodi-0.dtd"
   xmlns:inkscape="http://www.inkscape.org/namespaces/inkscape"
   width="557.34808"
   height="557.36407"
   id="svg2"
   sodipodi:version="0.32"
   inkscape:version="0.46"
   sodipodi:docname="bungee.svg"
   inkscape:output_extension="org.inkscape.output.svg.inkscape"
   version="1.0">
  <defs
     id="defs4">
    <marker
       inkscape:stockid="Arrow1Lend"
       orient="auto"
       refY="0"
       refX="0"
       id="Arrow1Lend"
       style="overflow:visible">
      <path
         id="path3454"
         d="M 0,0 L 5,-5 L -12.5,0 L 5,5 L 0,0 z"
         style="fill-rule:evenodd;stroke:#000000;stroke-width:1pt;marker-start:none"
         transform="matrix(-0.8,0,0,-0.8,-10,0)" />
    </marker>
    <inkscape:perspective
       sodipodi:type="inkscape:persp3d"
       inkscape:vp_x="0 : 526.18109 : 1"
       inkscape:vp_y="0 : 1000 : 0"
       inkscape:vp_z="744.09448 : 526.18109 : 1"
       inkscape:persp3d-origin="372.04724 : 350.78739 : 1"
       id="perspective10" />
  </defs>
  <sodipodi:namedview
     id="base"
     pagecolor="#ffffff"
     bordercolor="#666666"
     borderopacity="1.0"
     inkscape:pageopacity="0.0"
     inkscape:pageshadow="2"
     inkscape:zoom="0.7"
     inkscape:cx="433.38315"
     inkscape:cy="248.33994"
     inkscape:document-units="px"
     inkscape:current-layer="layer1"
     showgrid="false"
     inkscape:window-width="692"
     inkscape:window-height="678"
     inkscape:window-x="178"
     inkscape:window-y="35" />
  <metadata
     id="metadata7">
    <rdf:RDF>
      <cc:Work
         rdf:about="">
        <dc:format>image/svg+xml</dc:format>
        <dc:type
           rdf:resource="http://purl.org/dc/dcmitype/StillImage" />
      </cc:Work>
    </rdf:RDF>
  </metadata>
  <g
     inkscape:label="Calque 1"
     inkscape:groupmode="layer"
     id="layer1"
     transform="translate(-22.785714,-18.018408)">
    <path
       style="fill:none;fill-rule:evenodd;stroke:#00d405;stroke-width:1.45800555;stroke-linecap:butt;stroke-linejoin:miter;stroke-miterlimit:4;stroke-dasharray:none;stroke-opacity:1"
       d="M 223.31355,65.445913 L 209.77493,472.64604"
       id="path3434"
       sodipodi:nodetypes="cc" />
    <path
       id="path2383"
       style="fill:none;fill-rule:evenodd;stroke:#000000;stroke-width:3.64501405;stroke-linecap:butt;stroke-linejoin:round;stroke-miterlimit:4;stroke-dasharray:none;stroke-opacity:1"
       d="M 401.91924,556.48136 L 401.91922,87.836713 C 401.91922,87.836713 281.31812,65.966633 229.04142,65.966633 C 176.76473,65.966633 56.163627,87.836713 56.163627,87.836713 L 56.163628,557.93937"
       sodipodi:nodetypes="cczcc" />
    <path
       style="fill:none;fill-rule:evenodd;stroke:#000000;stroke-width:0.72900277px;stroke-linecap:butt;stroke-linejoin:miter;stroke-opacity:1"
       d="M 56.163627,229.47154 C 57.413353,156.56754 155.49482,66.654103 226.95855,66.174923 C 298.42229,65.695743 400.57274,168.02058 401.30914,229.16651"
       id="path3158"
       sodipodi:nodetypes="czz" />
    <path
       style="fill:none;fill-rule:evenodd;stroke:#00d405;stroke-width:1.45800555;stroke-linecap:butt;stroke-linejoin:miter;stroke-miterlimit:4;stroke-dasharray:none;stroke-opacity:1"
       d="M 222.79283,67.008063 L 217.79501,316.5205"
       id="path3432"
       sodipodi:nodetypes="cc" />
    <path
       style="fill:none;fill-rule:evenodd;stroke:#000000;stroke-width:0.72900277px;stroke-linecap:butt;stroke-linejoin:miter;stroke-opacity:1"
       d="M 56.163628,173.23418 L 72.826549,173.23418 L 55.804671,131.69405 L 101.98666,131.69405 L 76.409687,84.033833 L 164.47261,82.929223 L 157.36926,70.625853 L 225.72793,65.471023 L 283.19593,70.625853 L 279.09619,81.185063 L 367.55196,81.553273 L 342.2087,125.44908 L 398.79493,125.44908 L 376.05289,164.83945 L 400.87781,164.83945"
       id="path3160"
       sodipodi:nodetypes="ccccccccccccccc" />
    <g
       id="g3366"
       transform="matrix(0.4634467,0,0,0.4280024,93.84166,12.727876)">
      <path
         sodipodi:nodetypes="cccccccccccc"
         id="path3323"
         d="M 251.52101,103.16448 C 248.63328,131.85783 311.02302,122.66424 297.15616,76.783457 M 279.62643,75.028381 C 310.2937,88.122385 308.97449,51.970823 291.47817,61.844392 C 292.63077,53.445797 300.42126,36.635601 294.12367,31.006112 C 289.00093,24.372215 276.17096,11.942189 267.33924,12.937659 C 257.2259,13.296336 243.76441,17.181776 234.79779,25.693441 C 227.46474,34.074917 224.66198,58.669004 229.83413,71.318021 C 240.53664,83.690935 252.41047,85.485165 253.75123,93.111536 M 250.51782,90.191884 C 240.52753,94.933165 242.72749,95.488674 233.97523,100.45995 C 229.34553,105.00496 225.61691,122.24211 256.48392,117.04788"
         style="fill:none;fill-rule:evenodd;stroke:#000000;stroke-width:1px;stroke-linecap:butt;stroke-linejoin:miter;stroke-opacity:1" />
      <path
         transform="matrix(1.4514366,-0.7040386,0.597647,1.232101,-146.29433,183.41295)"
         d="M 276.93939,45.745171 A 6.7235703,12.221516 0 1 1 263.49225,45.745171 A 6.7235703,12.221516 0 1 1 276.93939,45.745171 z"
         sodipodi:ry="12.221516"
         sodipodi:rx="6.7235703"
         sodipodi:cy="45.745171"
         sodipodi:cx="270.21582"
         id="path3325"
         style="opacity:1;fill:#fefefe;fill-opacity:1;fill-rule:evenodd;stroke:#000000;stroke-width:1;stroke-linecap:round;stroke-linejoin:round;stroke-miterlimit:4;stroke-dasharray:none;stroke-dashoffset:0;stroke-opacity:1"
         sodipodi:type="arc" />
      <path
         transform="matrix(1.1812685,0,0,1.5942847,-27.76842,-24.407736)"
         d="M 274.76151,45.745171 A 4.5456862,7.6449366 0 1 1 265.67013,45.745171 A 4.5456862,7.6449366 0 1 1 274.76151,45.745171 z"
         sodipodi:ry="7.6449366"
         sodipodi:rx="4.5456862"
         sodipodi:cy="45.745171"
         sodipodi:cx="270.21582"
         id="path3327"
         style="opacity:1;fill:#fefefe;fill-opacity:1;fill-rule:evenodd;stroke:#000000;stroke-width:1;stroke-linecap:round;stroke-linejoin:round;stroke-miterlimit:4;stroke-dasharray:none;stroke-dashoffset:0;stroke-opacity:1"
         sodipodi:type="arc" />
      <path
         transform="matrix(0.4668548,0.2553118,-0.1620893,0.3843305,158.04506,-33.754295)"
         d="M 276.93939,45.745171 A 6.7235703,12.221516 0 1 1 263.49225,45.745171 A 6.7235703,12.221516 0 1 1 276.93939,45.745171 z"
         sodipodi:ry="12.221516"
         sodipodi:rx="6.7235703"
         sodipodi:cy="45.745171"
         sodipodi:cx="270.21582"
         id="path3356"
         style="opacity:1;fill:#000000;fill-opacity:1;fill-rule:evenodd;stroke:#000000;stroke-width:1;stroke-linecap:round;stroke-linejoin:round;stroke-miterlimit:4;stroke-dasharray:none;stroke-dashoffset:0;stroke-opacity:1"
         sodipodi:type="arc" />
      <path
         inkscape:transform-center-y="-3.9706572"
         inkscape:transform-center-x="-11.553175"
         transform="matrix(-0.2905488,0.1935795,0.2447978,0.2914025,358.23649,-14.590014)"
         d="M 276.93939,45.745171 A 6.7235703,12.221516 0 1 1 263.49225,45.745171 A 6.7235703,12.221516 0 1 1 276.93939,45.745171 z"
         sodipodi:ry="12.221516"
         sodipodi:rx="6.7235703"
         sodipodi:cy="45.745171"
         sodipodi:cx="270.21582"
         id="path3358"
         style="opacity:1;fill:#000000;fill-opacity:1;fill-rule:evenodd;stroke:#000000;stroke-width:1;stroke-linecap:round;stroke-linejoin:round;stroke-miterlimit:4;stroke-dasharray:none;stroke-dashoffset:0;stroke-opacity:1"
         sodipodi:type="arc" />
      <path
         id="path3360"
         d="M 257.92137,34.416858 C 259.35665,33.453732 264.77079,32.264231 268.24611,31.980812 C 271.37421,31.725706 274.84413,30.695877 275.80021,28.708025 C 276.63529,26.971756 276.27998,25.060117 274.92476,23.930884 C 274.18598,23.315306 273.64111,21.669725 273.33914,21.13779"
         style="fill:none;fill-rule:evenodd;stroke:#000000;stroke-width:2;stroke-linecap:round;stroke-linejoin:miter;stroke-miterlimit:4;stroke-dasharray:none;stroke-opacity:1" />
      <path
         sodipodi:nodetypes="cssc"
         id="path3362"
         d="M 283.22538,23.825889 C 282.72642,25.125618 282.37026,29.356187 283.53824,31.979653 C 284.07207,33.178738 288.33483,32.646843 289.38491,32.693901 C 290.8978,32.761718 295.25261,35.652189 296.60486,35.414658"
         style="fill:none;fill-rule:evenodd;stroke:#000000;stroke-width:2;stroke-linecap:round;stroke-linejoin:miter;stroke-miterlimit:4;stroke-dasharray:none;stroke-opacity:1" />
      <path
         id="path3364"
         d="M 263.1759,118.10399 C 256.73641,116.58768 252.81578,112.30635 252.3305,106.26085 C 252.13405,103.81362 251.8792,102.99796 251.31097,102.99796 C 250.69093,102.99796 250.59959,103.57393 250.80794,106.16954 C 251.0747,109.49273 252.28522,112.41965 254.46359,115.0085 L 255.75842,116.54733 L 251.93502,116.90562 C 241.30113,117.90209 234.87488,116.08234 232.5633,111.42003 C 231.45137,109.17731 231.40231,108.77157 231.94823,106.33215 C 232.27451,104.8742 232.87686,103.20247 233.28681,102.61718 C 234.12042,101.42705 243.3161,94.97685 247.78747,92.445878 C 249.38477,91.541746 250.69166,90.464332 250.69166,90.051634 C 250.69166,88.919996 251.47675,89.63425 252.4217,91.625594 C 253.29591,93.467814 254.22719,93.980128 254.22719,92.618811 C 254.22719,90.072782 251.12743,86.959441 243.38988,81.733998 C 240.34616,79.678474 236.10552,76.292049 233.96623,74.208609 C 230.18395,70.525093 230.053,70.315981 229.22133,66.632465 C 226.69354,55.436661 228.34094,39.321046 232.94817,30.1751 C 234.47779,27.138586 235.36785,26.086346 238.31729,23.82763 C 245.06606,18.659331 254.27008,15.127277 263.94804,13.991794 C 268.28767,13.482637 269.20568,13.519407 271.68769,14.30179 C 275.28341,15.435237 279.36435,17.848537 283.52161,21.299854 C 287.18835,24.343934 294.93172,32.662282 294.50029,33.093724 C 294.34729,33.246731 293.47257,32.984319 292.55648,32.510593 C 291.64039,32.036867 289.46565,31.534871 287.72372,31.395046 C 284.02272,31.097965 283.83799,30.825951 284.10509,26.066794 C 284.25288,23.433508 284.14569,22.937726 283.39682,22.790642 C 281.3899,22.396466 280.8483,29.686974 282.67714,32.478137 C 283.43381,33.632943 283.88943,33.802507 286.23581,33.802507 C 287.7158,33.802507 289.6603,34.058237 290.55691,34.370794 L 292.18711,34.939085 L 290.25349,35.81708 C 287.61165,37.016631 285.90556,40.492869 285.41691,45.6718 C 285.2825,47.096423 285.18435,47.005812 283.77562,44.156571 C 281.76257,40.085095 276.44043,34.717397 273.42009,33.712442 L 271.14725,32.956201 L 273.42009,31.946205 C 276.17644,30.72136 276.91705,29.885893 277.29139,27.579074 C 277.67064,25.242065 274.75687,20.09306 273.16755,20.291722 C 271.87231,20.453614 272.05967,21.788581 273.73961,24.367597 C 276.27183,28.255057 274.62253,29.677984 265.84395,31.179525 C 259.27032,32.303921 257.36852,32.925877 256.91857,34.098441 C 256.38023,35.501316 257.74201,35.723337 260.88499,34.745126 C 264.80671,33.524549 265.03754,33.552848 263.52204,35.068339 C 259.35964,39.230723 259.18034,47.845491 263.09516,55.576598 C 264.81368,58.970382 269.02459,63.334802 272.02128,64.828115 C 275.44976,66.536591 279.14265,66.595109 281.54087,64.978946 C 283.77457,63.473662 285.47985,60.885076 285.87798,58.395322 L 286.19836,56.391725 L 286.93384,57.85029 C 287.33833,58.652502 288.47341,60.065918 289.45623,60.991212 L 291.24317,62.673561 L 293.33392,61.875101 C 298.23118,60.004814 301.48804,61.348039 302.72579,65.748581 C 303.46126,68.363447 302.60605,71.241321 300.35207,73.736196 C 296.93132,77.522546 291.14536,78.131254 283.37635,75.522105 C 281.37281,74.849233 279.64864,74.382274 279.54488,74.484411 C 278.42177,75.589912 284.75017,78.031976 290.19408,78.593838 C 291.66619,78.745775 293.7166,78.636512 294.75052,78.351032 C 296.62251,77.834158 296.63277,77.839713 297.20408,79.6821 C 297.51961,80.699652 297.89044,84.486992 298.02812,88.098388 C 298.26208,94.235166 298.19007,94.928792 296.92674,98.70499 C 295.20109,103.86313 293.3391,106.74858 289.29496,110.53167 C 285.74711,113.85052 280.68213,116.56516 275.62003,117.86094 C 272.28204,118.71538 266.27093,118.83279 263.17588,118.10399 L 263.1759,118.10399 z"
         style="opacity:1;fill:#ee9eef;fill-opacity:1;fill-rule:evenodd;stroke:#000000;stroke-width:1.01015258;stroke-linecap:round;stroke-linejoin:round;stroke-miterlimit:4;stroke-dasharray:none;stroke-dashoffset:0;stroke-opacity:1" />
    </g>
    <path
       style="fill:none;fill-rule:evenodd;stroke:#00d405;stroke-width:1.00031948px;stroke-linecap:butt;stroke-linejoin:miter;stroke-opacity:1"
       d="M 209.2945,60.295003 C 216.31206,58.428703 228.00331,54.710053 236.92403,51.952323 C 242.62438,50.190133 247.92968,48.774163 254.27282,48.774163 C 259.69387,48.774163 258.77064,51.097383 258.77064,53.938673 C 258.77064,56.649123 249.90923,57.394043 246.56225,57.911373 C 239.93593,58.935593 234.26302,59.920193 227.92837,61.486813 C 223.76355,62.516813 220.86466,63.075893 216.36252,63.075893 C 209.94193,63.075893 220.61807,57.787643 222.78799,57.116833 C 227.30742,55.719713 231.99528,55.130483 236.92403,55.130483 C 240.77932,55.130483 244.63461,55.130483 248.48989,55.130483 C 252.68851,55.130483 252.34518,56.638923 252.34518,59.103183 C 252.34518,60.271243 246.36781,62.272203 244.63461,63.075893 C 241.60929,64.478753 237.51671,64.267703 233.7113,64.267703 C 229.73577,64.267703 230.49857,61.030033 230.49857,58.705913 C 230.49857,56.331573 236.24947,53.950563 239.49424,52.746863 C 242.45633,51.648033 246.27043,51.952323 249.77499,51.952323 C 254.07323,51.952323 256.0786,53.043683 258.12811,54.733213 C 260.61299,56.781663 262.63889,57.919393 265.19613,59.500463 C 268.11384,61.304413 269.87885,61.032383 272.26415,60.295003 C 276.02599,59.132073 268.7084,54.521143 268.40886,54.335943 C 265.02055,52.241043 261.48414,52.746863 256.843,52.746863 C 253.51267,52.746863 249.85471,54.683923 247.2048,56.322303 C 244.7665,57.829833 243.17677,58.812713 241.42186,59.897723 C 238.31087,61.821173 245.41844,62.799773 247.2048,63.075893 C 250.00673,63.508983 253.93775,63.075893 256.843,63.075893 C 261.72093,63.075893 261.34084,63.329313 261.34084,66.254053 C 261.34084,68.678213 262.35717,70.226763 258.12811,70.226763 C 253.64909,70.226763 252.82734,70.127603 250.41753,68.637683 C 247.64418,66.922993 250.32785,62.819523 252.34518,61.884073 C 254.778,60.755973 256.56498,60.834563 260.05575,60.295003 C 263.50619,59.761673 262.75235,62.991253 263.26848,64.267703 C 263.96131,65.981143 263.08256,68.700213 262.62593,69.829493 C 262.47009,70.214903 261.34084,69.829493 260.69829,69.829493"
       id="path3245" />
    <g
       id="g3376"
       transform="matrix(0.4634467,0,0,-0.4280024,93.84166,216.86145)">
      <path
         sodipodi:nodetypes="cccccccccccc"
         id="path3378"
         d="M 251.52101,103.16448 C 248.63328,131.85783 311.02302,122.66424 297.15616,76.783457 M 279.62643,75.028381 C 310.2937,88.122385 308.97449,51.970823 291.47817,61.844392 C 292.63077,53.445797 300.42126,36.635601 294.12367,31.006112 C 289.00093,24.372215 276.17096,11.942189 267.33924,12.937659 C 257.2259,13.296336 243.76441,17.181776 234.79779,25.693441 C 227.46474,34.074917 224.66198,58.669004 229.83413,71.318021 C 240.53664,83.690935 252.41047,85.485165 253.75123,93.111536 M 250.51782,90.191884 C 240.52753,94.933165 242.72749,95.488674 233.97523,100.45995 C 229.34553,105.00496 225.61691,122.24211 256.48392,117.04788"
         style="fill:none;fill-rule:evenodd;stroke:#000000;stroke-width:1px;stroke-linecap:butt;stroke-linejoin:miter;stroke-opacity:1" />
      <path
         transform="matrix(1.4514366,-0.7040386,0.597647,1.232101,-146.29433,183.41295)"
         d="M 276.93939,45.745171 A 6.7235703,12.221516 0 1 1 263.49225,45.745171 A 6.7235703,12.221516 0 1 1 276.93939,45.745171 z"
         sodipodi:ry="12.221516"
         sodipodi:rx="6.7235703"
         sodipodi:cy="45.745171"
         sodipodi:cx="270.21582"
         id="path3380"
         style="opacity:1;fill:#fefefe;fill-opacity:1;fill-rule:evenodd;stroke:#000000;stroke-width:1;stroke-linecap:round;stroke-linejoin:round;stroke-miterlimit:4;stroke-dasharray:none;stroke-dashoffset:0;stroke-opacity:1"
         sodipodi:type="arc" />
      <path
         transform="matrix(1.1812685,0,0,1.5942847,-27.76842,-24.407736)"
         d="M 274.76151,45.745171 A 4.5456862,7.6449366 0 1 1 265.67013,45.745171 A 4.5456862,7.6449366 0 1 1 274.76151,45.745171 z"
         sodipodi:ry="7.6449366"
         sodipodi:rx="4.5456862"
         sodipodi:cy="45.745171"
         sodipodi:cx="270.21582"
         id="path3382"
         style="opacity:1;fill:#fefefe;fill-opacity:1;fill-rule:evenodd;stroke:#000000;stroke-width:1;stroke-linecap:round;stroke-linejoin:round;stroke-miterlimit:4;stroke-dasharray:none;stroke-dashoffset:0;stroke-opacity:1"
         sodipodi:type="arc" />
      <path
         transform="matrix(0.4668548,0.2553118,-0.1620893,0.3843305,158.04506,-33.754295)"
         d="M 276.93939,45.745171 A 6.7235703,12.221516 0 1 1 263.49225,45.745171 A 6.7235703,12.221516 0 1 1 276.93939,45.745171 z"
         sodipodi:ry="12.221516"
         sodipodi:rx="6.7235703"
         sodipodi:cy="45.745171"
         sodipodi:cx="270.21582"
         id="path3384"
         style="opacity:1;fill:#000000;fill-opacity:1;fill-rule:evenodd;stroke:#000000;stroke-width:1;stroke-linecap:round;stroke-linejoin:round;stroke-miterlimit:4;stroke-dasharray:none;stroke-dashoffset:0;stroke-opacity:1"
         sodipodi:type="arc" />
      <path
         inkscape:transform-center-y="-3.9706572"
         inkscape:transform-center-x="-11.553175"
         transform="matrix(-0.2905488,0.1935795,0.2447978,0.2914025,358.23649,-14.590014)"
         d="M 276.93939,45.745171 A 6.7235703,12.221516 0 1 1 263.49225,45.745171 A 6.7235703,12.221516 0 1 1 276.93939,45.745171 z"
         sodipodi:ry="12.221516"
         sodipodi:rx="6.7235703"
         sodipodi:cy="45.745171"
         sodipodi:cx="270.21582"
         id="path3386"
         style="opacity:1;fill:#000000;fill-opacity:1;fill-rule:evenodd;stroke:#000000;stroke-width:1;stroke-linecap:round;stroke-linejoin:round;stroke-miterlimit:4;stroke-dasharray:none;stroke-dashoffset:0;stroke-opacity:1"
         sodipodi:type="arc" />
      <path
         id="path3388"
         d="M 257.92137,34.416858 C 259.35665,33.453732 264.77079,32.264231 268.24611,31.980812 C 271.37421,31.725706 274.84413,30.695877 275.80021,28.708025 C 276.63529,26.971756 276.27998,25.060117 274.92476,23.930884 C 274.18598,23.315306 273.64111,21.669725 273.33914,21.13779"
         style="fill:none;fill-rule:evenodd;stroke:#000000;stroke-width:2;stroke-linecap:round;stroke-linejoin:miter;stroke-miterlimit:4;stroke-dasharray:none;stroke-opacity:1" />
      <path
         sodipodi:nodetypes="cssc"
         id="path3390"
         d="M 283.22538,23.825889 C 282.72642,25.125618 282.37026,29.356187 283.53824,31.979653 C 284.07207,33.178738 288.33483,32.646843 289.38491,32.693901 C 290.8978,32.761718 295.25261,35.652189 296.60486,35.414658"
         style="fill:none;fill-rule:evenodd;stroke:#000000;stroke-width:2;stroke-linecap:round;stroke-linejoin:miter;stroke-miterlimit:4;stroke-dasharray:none;stroke-opacity:1" />
      <path
         id="path3392"
         d="M 263.1759,118.10399 C 256.73641,116.58768 252.81578,112.30635 252.3305,106.26085 C 252.13405,103.81362 251.8792,102.99796 251.31097,102.99796 C 250.69093,102.99796 250.59959,103.57393 250.80794,106.16954 C 251.0747,109.49273 252.28522,112.41965 254.46359,115.0085 L 255.75842,116.54733 L 251.93502,116.90562 C 241.30113,117.90209 234.87488,116.08234 232.5633,111.42003 C 231.45137,109.17731 231.40231,108.77157 231.94823,106.33215 C 232.27451,104.8742 232.87686,103.20247 233.28681,102.61718 C 234.12042,101.42705 243.3161,94.97685 247.78747,92.445878 C 249.38477,91.541746 250.69166,90.464332 250.69166,90.051634 C 250.69166,88.919996 251.47675,89.63425 252.4217,91.625594 C 253.29591,93.467814 254.22719,93.980128 254.22719,92.618811 C 254.22719,90.072782 251.12743,86.959441 243.38988,81.733998 C 240.34616,79.678474 236.10552,76.292049 233.96623,74.208609 C 230.18395,70.525093 230.053,70.315981 229.22133,66.632465 C 226.69354,55.436661 228.34094,39.321046 232.94817,30.1751 C 234.47779,27.138586 235.36785,26.086346 238.31729,23.82763 C 245.06606,18.659331 254.27008,15.127277 263.94804,13.991794 C 268.28767,13.482637 269.20568,13.519407 271.68769,14.30179 C 275.28341,15.435237 279.36435,17.848537 283.52161,21.299854 C 287.18835,24.343934 294.93172,32.662282 294.50029,33.093724 C 294.34729,33.246731 293.47257,32.984319 292.55648,32.510593 C 291.64039,32.036867 289.46565,31.534871 287.72372,31.395046 C 284.02272,31.097965 283.83799,30.825951 284.10509,26.066794 C 284.25288,23.433508 284.14569,22.937726 283.39682,22.790642 C 281.3899,22.396466 280.8483,29.686974 282.67714,32.478137 C 283.43381,33.632943 283.88943,33.802507 286.23581,33.802507 C 287.7158,33.802507 289.6603,34.058237 290.55691,34.370794 L 292.18711,34.939085 L 290.25349,35.81708 C 287.61165,37.016631 285.90556,40.492869 285.41691,45.6718 C 285.2825,47.096423 285.18435,47.005812 283.77562,44.156571 C 281.76257,40.085095 276.44043,34.717397 273.42009,33.712442 L 271.14725,32.956201 L 273.42009,31.946205 C 276.17644,30.72136 276.91705,29.885893 277.29139,27.579074 C 277.67064,25.242065 274.75687,20.09306 273.16755,20.291722 C 271.87231,20.453614 272.05967,21.788581 273.73961,24.367597 C 276.27183,28.255057 274.62253,29.677984 265.84395,31.179525 C 259.27032,32.303921 257.36852,32.925877 256.91857,34.098441 C 256.38023,35.501316 257.74201,35.723337 260.88499,34.745126 C 264.80671,33.524549 265.03754,33.552848 263.52204,35.068339 C 259.35964,39.230723 259.18034,47.845491 263.09516,55.576598 C 264.81368,58.970382 269.02459,63.334802 272.02128,64.828115 C 275.44976,66.536591 279.14265,66.595109 281.54087,64.978946 C 283.77457,63.473662 285.47985,60.885076 285.87798,58.395322 L 286.19836,56.391725 L 286.93384,57.85029 C 287.33833,58.652502 288.47341,60.065918 289.45623,60.991212 L 291.24317,62.673561 L 293.33392,61.875101 C 298.23118,60.004814 301.48804,61.348039 302.72579,65.748581 C 303.46126,68.363447 302.60605,71.241321 300.35207,73.736196 C 296.93132,77.522546 291.14536,78.131254 283.37635,75.522105 C 281.37281,74.849233 279.64864,74.382274 279.54488,74.484411 C 278.42177,75.589912 284.75017,78.031976 290.19408,78.593838 C 291.66619,78.745775 293.7166,78.636512 294.75052,78.351032 C 296.62251,77.834158 296.63277,77.839713 297.20408,79.6821 C 297.51961,80.699652 297.89044,84.486992 298.02812,88.098388 C 298.26208,94.235166 298.19007,94.928792 296.92674,98.70499 C 295.20109,103.86313 293.3391,106.74858 289.29496,110.53167 C 285.74711,113.85052 280.68213,116.56516 275.62003,117.86094 C 272.28204,118.71538 266.27093,118.83279 263.17588,118.10399 L 263.1759,118.10399 z"
         style="opacity:1;fill:#ee9eef;fill-opacity:1;fill-rule:evenodd;stroke:#000000;stroke-width:1.01015258;stroke-linecap:round;stroke-linejoin:round;stroke-miterlimit:4;stroke-dasharray:none;stroke-dashoffset:0;stroke-opacity:1" />
    </g>
    <g
       id="g3412"
       transform="matrix(0.4634467,0,0,-0.4280024,93.84166,520.24721)">
      <path
         sodipodi:nodetypes="cccccccccccc"
         id="path3414"
         d="M 251.52101,103.16448 C 248.63328,131.85783 311.02302,122.66424 297.15616,76.783457 M 279.62643,75.028381 C 310.2937,88.122385 308.97449,51.970823 291.47817,61.844392 C 292.63077,53.445797 300.42126,36.635601 294.12367,31.006112 C 289.00093,24.372215 276.17096,11.942189 267.33924,12.937659 C 257.2259,13.296336 243.76441,17.181776 234.79779,25.693441 C 227.46474,34.074917 224.66198,58.669004 229.83413,71.318021 C 240.53664,83.690935 252.41047,85.485165 253.75123,93.111536 M 250.51782,90.191884 C 240.52753,94.933165 242.72749,95.488674 233.97523,100.45995 C 229.34553,105.00496 225.61691,122.24211 256.48392,117.04788"
         style="fill:none;fill-rule:evenodd;stroke:#000000;stroke-width:1px;stroke-linecap:butt;stroke-linejoin:miter;stroke-opacity:1" />
      <path
         transform="matrix(1.4514366,-0.7040386,0.597647,1.232101,-146.29433,183.41295)"
         d="M 276.93939,45.745171 A 6.7235703,12.221516 0 1 1 263.49225,45.745171 A 6.7235703,12.221516 0 1 1 276.93939,45.745171 z"
         sodipodi:ry="12.221516"
         sodipodi:rx="6.7235703"
         sodipodi:cy="45.745171"
         sodipodi:cx="270.21582"
         id="path3416"
         style="opacity:1;fill:#fefefe;fill-opacity:1;fill-rule:evenodd;stroke:#000000;stroke-width:1;stroke-linecap:round;stroke-linejoin:round;stroke-miterlimit:4;stroke-dasharray:none;stroke-dashoffset:0;stroke-opacity:1"
         sodipodi:type="arc" />
      <path
         transform="matrix(1.1812685,0,0,1.5942847,-27.76842,-24.407736)"
         d="M 274.76151,45.745171 A 4.5456862,7.6449366 0 1 1 265.67013,45.745171 A 4.5456862,7.6449366 0 1 1 274.76151,45.745171 z"
         sodipodi:ry="7.6449366"
         sodipodi:rx="4.5456862"
         sodipodi:cy="45.745171"
         sodipodi:cx="270.21582"
         id="path3418"
         style="opacity:1;fill:#fefefe;fill-opacity:1;fill-rule:evenodd;stroke:#000000;stroke-width:1;stroke-linecap:round;stroke-linejoin:round;stroke-miterlimit:4;stroke-dasharray:none;stroke-dashoffset:0;stroke-opacity:1"
         sodipodi:type="arc" />
      <path
         transform="matrix(0.4668548,0.2553118,-0.1620893,0.3843305,158.04506,-33.754295)"
         d="M 276.93939,45.745171 A 6.7235703,12.221516 0 1 1 263.49225,45.745171 A 6.7235703,12.221516 0 1 1 276.93939,45.745171 z"
         sodipodi:ry="12.221516"
         sodipodi:rx="6.7235703"
         sodipodi:cy="45.745171"
         sodipodi:cx="270.21582"
         id="path3420"
         style="opacity:1;fill:#000000;fill-opacity:1;fill-rule:evenodd;stroke:#000000;stroke-width:1;stroke-linecap:round;stroke-linejoin:round;stroke-miterlimit:4;stroke-dasharray:none;stroke-dashoffset:0;stroke-opacity:1"
         sodipodi:type="arc" />
      <path
         inkscape:transform-center-y="-3.9706572"
         inkscape:transform-center-x="-11.553175"
         transform="matrix(-0.2905488,0.1935795,0.2447978,0.2914025,358.23649,-14.590014)"
         d="M 276.93939,45.745171 A 6.7235703,12.221516 0 1 1 263.49225,45.745171 A 6.7235703,12.221516 0 1 1 276.93939,45.745171 z"
         sodipodi:ry="12.221516"
         sodipodi:rx="6.7235703"
         sodipodi:cy="45.745171"
         sodipodi:cx="270.21582"
         id="path3422"
         style="opacity:1;fill:#000000;fill-opacity:1;fill-rule:evenodd;stroke:#000000;stroke-width:1;stroke-linecap:round;stroke-linejoin:round;stroke-miterlimit:4;stroke-dasharray:none;stroke-dashoffset:0;stroke-opacity:1"
         sodipodi:type="arc" />
      <path
         id="path3424"
         d="M 257.92137,34.416858 C 259.35665,33.453732 264.77079,32.264231 268.24611,31.980812 C 271.37421,31.725706 274.84413,30.695877 275.80021,28.708025 C 276.63529,26.971756 276.27998,25.060117 274.92476,23.930884 C 274.18598,23.315306 273.64111,21.669725 273.33914,21.13779"
         style="fill:none;fill-rule:evenodd;stroke:#000000;stroke-width:2;stroke-linecap:round;stroke-linejoin:miter;stroke-miterlimit:4;stroke-dasharray:none;stroke-opacity:1" />
      <path
         sodipodi:nodetypes="cssc"
         id="path3426"
         d="M 283.22538,23.825889 C 282.72642,25.125618 282.37026,29.356187 283.53824,31.979653 C 284.07207,33.178738 288.33483,32.646843 289.38491,32.693901 C 290.8978,32.761718 295.25261,35.652189 296.60486,35.414658"
         style="fill:none;fill-rule:evenodd;stroke:#000000;stroke-width:2;stroke-linecap:round;stroke-linejoin:miter;stroke-miterlimit:4;stroke-dasharray:none;stroke-opacity:1" />
      <path
         id="path3428"
         d="M 263.1759,118.10399 C 256.73641,116.58768 252.81578,112.30635 252.3305,106.26085 C 252.13405,103.81362 251.8792,102.99796 251.31097,102.99796 C 250.69093,102.99796 250.59959,103.57393 250.80794,106.16954 C 251.0747,109.49273 252.28522,112.41965 254.46359,115.0085 L 255.75842,116.54733 L 251.93502,116.90562 C 241.30113,117.90209 234.87488,116.08234 232.5633,111.42003 C 231.45137,109.17731 231.40231,108.77157 231.94823,106.33215 C 232.27451,104.8742 232.87686,103.20247 233.28681,102.61718 C 234.12042,101.42705 243.3161,94.97685 247.78747,92.445878 C 249.38477,91.541746 250.69166,90.464332 250.69166,90.051634 C 250.69166,88.919996 251.47675,89.63425 252.4217,91.625594 C 253.29591,93.467814 254.22719,93.980128 254.22719,92.618811 C 254.22719,90.072782 251.12743,86.959441 243.38988,81.733998 C 240.34616,79.678474 236.10552,76.292049 233.96623,74.208609 C 230.18395,70.525093 230.053,70.315981 229.22133,66.632465 C 226.69354,55.436661 228.34094,39.321046 232.94817,30.1751 C 234.47779,27.138586 235.36785,26.086346 238.31729,23.82763 C 245.06606,18.659331 254.27008,15.127277 263.94804,13.991794 C 268.28767,13.482637 269.20568,13.519407 271.68769,14.30179 C 275.28341,15.435237 279.36435,17.848537 283.52161,21.299854 C 287.18835,24.343934 294.93172,32.662282 294.50029,33.093724 C 294.34729,33.246731 293.47257,32.984319 292.55648,32.510593 C 291.64039,32.036867 289.46565,31.534871 287.72372,31.395046 C 284.02272,31.097965 283.83799,30.825951 284.10509,26.066794 C 284.25288,23.433508 284.14569,22.937726 283.39682,22.790642 C 281.3899,22.396466 280.8483,29.686974 282.67714,32.478137 C 283.43381,33.632943 283.88943,33.802507 286.23581,33.802507 C 287.7158,33.802507 289.6603,34.058237 290.55691,34.370794 L 292.18711,34.939085 L 290.25349,35.81708 C 287.61165,37.016631 285.90556,40.492869 285.41691,45.6718 C 285.2825,47.096423 285.18435,47.005812 283.77562,44.156571 C 281.76257,40.085095 276.44043,34.717397 273.42009,33.712442 L 271.14725,32.956201 L 273.42009,31.946205 C 276.17644,30.72136 276.91705,29.885893 277.29139,27.579074 C 277.67064,25.242065 274.75687,20.09306 273.16755,20.291722 C 271.87231,20.453614 272.05967,21.788581 273.73961,24.367597 C 276.27183,28.255057 274.62253,29.677984 265.84395,31.179525 C 259.27032,32.303921 257.36852,32.925877 256.91857,34.098441 C 256.38023,35.501316 257.74201,35.723337 260.88499,34.745126 C 264.80671,33.524549 265.03754,33.552848 263.52204,35.068339 C 259.35964,39.230723 259.18034,47.845491 263.09516,55.576598 C 264.81368,58.970382 269.02459,63.334802 272.02128,64.828115 C 275.44976,66.536591 279.14265,66.595109 281.54087,64.978946 C 283.77457,63.473662 285.47985,60.885076 285.87798,58.395322 L 286.19836,56.391725 L 286.93384,57.85029 C 287.33833,58.652502 288.47341,60.065918 289.45623,60.991212 L 291.24317,62.673561 L 293.33392,61.875101 C 298.23118,60.004814 301.48804,61.348039 302.72579,65.748581 C 303.46126,68.363447 302.60605,71.241321 300.35207,73.736196 C 296.93132,77.522546 291.14536,78.131254 283.37635,75.522105 C 281.37281,74.849233 279.64864,74.382274 279.54488,74.484411 C 278.42177,75.589912 284.75017,78.031976 290.19408,78.593838 C 291.66619,78.745775 293.7166,78.636512 294.75052,78.351032 C 296.62251,77.834158 296.63277,77.839713 297.20408,79.6821 C 297.51961,80.699652 297.89044,84.486992 298.02812,88.098388 C 298.26208,94.235166 298.19007,94.928792 296.92674,98.70499 C 295.20109,103.86313 293.3391,106.74858 289.29496,110.53167 C 285.74711,113.85052 280.68213,116.56516 275.62003,117.86094 C 272.28204,118.71538 266.27093,118.83279 263.17588,118.10399 L 263.1759,118.10399 z"
         style="opacity:1;fill:#ee9eef;fill-opacity:1;fill-rule:evenodd;stroke:#000000;stroke-width:1.01015258;stroke-linecap:round;stroke-linejoin:round;stroke-miterlimit:4;stroke-dasharray:none;stroke-dashoffset:0;stroke-opacity:1" />
    </g>
    <path
       style="fill:none;fill-rule:evenodd;stroke:#00d405;stroke-width:1.45800555;stroke-linecap:butt;stroke-linejoin:miter;stroke-miterlimit:4;stroke-dasharray:none;stroke-opacity:1"
       d="M 216.54424,67.008063 C 209.76296,70.143883 200.92275,77.562993 200.92275,88.878143 C 200.92275,101.79658 212.6906,99.292473 222.79283,99.292473 C 234.57151,99.292473 215.35025,99.292473 211.33708,99.292473 C 203.33748,99.292473 202.84319,107.76725 210.29565,110.74823 C 222.07256,115.45899 229.99951,110.12355 232.16573,99.292473 C 234.16638,89.289243 228.14661,87.836713 219.66854,87.836713 C 211.81278,87.836713 203.62938,100.96316 201.96418,107.62393 C 199.63255,116.95044 208.19292,118.03826 215.5028,118.03826 C 224.76757,118.03826 226.9769,111.863 224.8757,103.4582 C 221.85524,91.376363 208.98052,104.00559 207.17134,107.62393 C 201.46191,119.04279 199.70573,135.29092 212.37851,137.82548 C 220.57313,139.4644 223.1355,130.86467 221.7514,125.32828 C 219.11449,114.78063 204.46588,122.20023 201.96418,126.36971 C 198.61028,131.95956 198.38346,138.08266 199.88132,144.07407 C 201.49304,150.52096 215.05634,148.2398 219.66854,148.2398 C 227.14563,148.2398 225.91713,151.93956 225.91713,158.65413 C 225.91713,164.01975 219.54569,165.71451 214.46137,166.98559 C 207.03831,168.84135 205.97294,167.61346 204.04705,175.31705 C 203.7808,176.38204 206.12991,176.01134 207.17134,176.35848"
       id="path3430" />
    <g
       id="g3394"
       transform="matrix(0.4634467,0,0,-0.4280024,92.072801,361.19664)">
      <path
         sodipodi:nodetypes="cccccccccccc"
         id="path3396"
         d="M 251.52101,103.16448 C 248.63328,131.85783 311.02302,122.66424 297.15616,76.783457 M 279.62643,75.028381 C 310.2937,88.122385 308.97449,51.970823 291.47817,61.844392 C 292.63077,53.445797 300.42126,36.635601 294.12367,31.006112 C 289.00093,24.372215 276.17096,11.942189 267.33924,12.937659 C 257.2259,13.296336 243.76441,17.181776 234.79779,25.693441 C 227.46474,34.074917 224.66198,58.669004 229.83413,71.318021 C 240.53664,83.690935 252.41047,85.485165 253.75123,93.111536 M 250.51782,90.191884 C 240.52753,94.933165 242.72749,95.488674 233.97523,100.45995 C 229.34553,105.00496 225.61691,122.24211 256.48392,117.04788"
         style="fill:none;fill-rule:evenodd;stroke:#000000;stroke-width:1px;stroke-linecap:butt;stroke-linejoin:miter;stroke-opacity:1" />
      <path
         transform="matrix(1.4514366,-0.7040386,0.597647,1.232101,-146.29433,183.41295)"
         d="M 276.93939,45.745171 A 6.7235703,12.221516 0 1 1 263.49225,45.745171 A 6.7235703,12.221516 0 1 1 276.93939,45.745171 z"
         sodipodi:ry="12.221516"
         sodipodi:rx="6.7235703"
         sodipodi:cy="45.745171"
         sodipodi:cx="270.21582"
         id="path3398"
         style="opacity:1;fill:#fefefe;fill-opacity:1;fill-rule:evenodd;stroke:#000000;stroke-width:1;stroke-linecap:round;stroke-linejoin:round;stroke-miterlimit:4;stroke-dasharray:none;stroke-dashoffset:0;stroke-opacity:1"
         sodipodi:type="arc" />
      <path
         transform="matrix(1.1812685,0,0,1.5942847,-27.76842,-24.407736)"
         d="M 274.76151,45.745171 A 4.5456862,7.6449366 0 1 1 265.67013,45.745171 A 4.5456862,7.6449366 0 1 1 274.76151,45.745171 z"
         sodipodi:ry="7.6449366"
         sodipodi:rx="4.5456862"
         sodipodi:cy="45.745171"
         sodipodi:cx="270.21582"
         id="path3400"
         style="opacity:1;fill:#fefefe;fill-opacity:1;fill-rule:evenodd;stroke:#000000;stroke-width:1;stroke-linecap:round;stroke-linejoin:round;stroke-miterlimit:4;stroke-dasharray:none;stroke-dashoffset:0;stroke-opacity:1"
         sodipodi:type="arc" />
      <path
         transform="matrix(0.4668548,0.2553118,-0.1620893,0.3843305,158.04506,-33.754295)"
         d="M 276.93939,45.745171 A 6.7235703,12.221516 0 1 1 263.49225,45.745171 A 6.7235703,12.221516 0 1 1 276.93939,45.745171 z"
         sodipodi:ry="12.221516"
         sodipodi:rx="6.7235703"
         sodipodi:cy="45.745171"
         sodipodi:cx="270.21582"
         id="path3402"
         style="opacity:1;fill:#000000;fill-opacity:1;fill-rule:evenodd;stroke:#000000;stroke-width:1;stroke-linecap:round;stroke-linejoin:round;stroke-miterlimit:4;stroke-dasharray:none;stroke-dashoffset:0;stroke-opacity:1"
         sodipodi:type="arc" />
      <path
         inkscape:transform-center-y="-3.9706572"
         inkscape:transform-center-x="-11.553175"
         transform="matrix(-0.2905488,0.1935795,0.2447978,0.2914025,358.23649,-14.590014)"
         d="M 276.93939,45.745171 A 6.7235703,12.221516 0 1 1 263.49225,45.745171 A 6.7235703,12.221516 0 1 1 276.93939,45.745171 z"
         sodipodi:ry="12.221516"
         sodipodi:rx="6.7235703"
         sodipodi:cy="45.745171"
         sodipodi:cx="270.21582"
         id="path3404"
         style="opacity:1;fill:#000000;fill-opacity:1;fill-rule:evenodd;stroke:#000000;stroke-width:1;stroke-linecap:round;stroke-linejoin:round;stroke-miterlimit:4;stroke-dasharray:none;stroke-dashoffset:0;stroke-opacity:1"
         sodipodi:type="arc" />
      <path
         id="path3406"
         d="M 257.92137,34.416858 C 259.35665,33.453732 264.77079,32.264231 268.24611,31.980812 C 271.37421,31.725706 274.84413,30.695877 275.80021,28.708025 C 276.63529,26.971756 276.27998,25.060117 274.92476,23.930884 C 274.18598,23.315306 273.64111,21.669725 273.33914,21.13779"
         style="fill:none;fill-rule:evenodd;stroke:#000000;stroke-width:2;stroke-linecap:round;stroke-linejoin:miter;stroke-miterlimit:4;stroke-dasharray:none;stroke-opacity:1" />
      <path
         sodipodi:nodetypes="cssc"
         id="path3408"
         d="M 283.22538,23.825889 C 282.72642,25.125618 282.37026,29.356187 283.53824,31.979653 C 284.07207,33.178738 288.33483,32.646843 289.38491,32.693901 C 290.8978,32.761718 295.25261,35.652189 296.60486,35.414658"
         style="fill:none;fill-rule:evenodd;stroke:#000000;stroke-width:2;stroke-linecap:round;stroke-linejoin:miter;stroke-miterlimit:4;stroke-dasharray:none;stroke-opacity:1" />
      <path
         id="path3410"
         d="M 263.1759,118.10399 C 256.73641,116.58768 252.81578,112.30635 252.3305,106.26085 C 252.13405,103.81362 251.8792,102.99796 251.31097,102.99796 C 250.69093,102.99796 250.59959,103.57393 250.80794,106.16954 C 251.0747,109.49273 252.28522,112.41965 254.46359,115.0085 L 255.75842,116.54733 L 251.93502,116.90562 C 241.30113,117.90209 234.87488,116.08234 232.5633,111.42003 C 231.45137,109.17731 231.40231,108.77157 231.94823,106.33215 C 232.27451,104.8742 232.87686,103.20247 233.28681,102.61718 C 234.12042,101.42705 243.3161,94.97685 247.78747,92.445878 C 249.38477,91.541746 250.69166,90.464332 250.69166,90.051634 C 250.69166,88.919996 251.47675,89.63425 252.4217,91.625594 C 253.29591,93.467814 254.22719,93.980128 254.22719,92.618811 C 254.22719,90.072782 251.12743,86.959441 243.38988,81.733998 C 240.34616,79.678474 236.10552,76.292049 233.96623,74.208609 C 230.18395,70.525093 230.053,70.315981 229.22133,66.632465 C 226.69354,55.436661 228.34094,39.321046 232.94817,30.1751 C 234.47779,27.138586 235.36785,26.086346 238.31729,23.82763 C 245.06606,18.659331 254.27008,15.127277 263.94804,13.991794 C 268.28767,13.482637 269.20568,13.519407 271.68769,14.30179 C 275.28341,15.435237 279.36435,17.848537 283.52161,21.299854 C 287.18835,24.343934 294.93172,32.662282 294.50029,33.093724 C 294.34729,33.246731 293.47257,32.984319 292.55648,32.510593 C 291.64039,32.036867 289.46565,31.534871 287.72372,31.395046 C 284.02272,31.097965 283.83799,30.825951 284.10509,26.066794 C 284.25288,23.433508 284.14569,22.937726 283.39682,22.790642 C 281.3899,22.396466 280.8483,29.686974 282.67714,32.478137 C 283.43381,33.632943 283.88943,33.802507 286.23581,33.802507 C 287.7158,33.802507 289.6603,34.058237 290.55691,34.370794 L 292.18711,34.939085 L 290.25349,35.81708 C 287.61165,37.016631 285.90556,40.492869 285.41691,45.6718 C 285.2825,47.096423 285.18435,47.005812 283.77562,44.156571 C 281.76257,40.085095 276.44043,34.717397 273.42009,33.712442 L 271.14725,32.956201 L 273.42009,31.946205 C 276.17644,30.72136 276.91705,29.885893 277.29139,27.579074 C 277.67064,25.242065 274.75687,20.09306 273.16755,20.291722 C 271.87231,20.453614 272.05967,21.788581 273.73961,24.367597 C 276.27183,28.255057 274.62253,29.677984 265.84395,31.179525 C 259.27032,32.303921 257.36852,32.925877 256.91857,34.098441 C 256.38023,35.501316 257.74201,35.723337 260.88499,34.745126 C 264.80671,33.524549 265.03754,33.552848 263.52204,35.068339 C 259.35964,39.230723 259.18034,47.845491 263.09516,55.576598 C 264.81368,58.970382 269.02459,63.334802 272.02128,64.828115 C 275.44976,66.536591 279.14265,66.595109 281.54087,64.978946 C 283.77457,63.473662 285.47985,60.885076 285.87798,58.395322 L 286.19836,56.391725 L 286.93384,57.85029 C 287.33833,58.652502 288.47341,60.065918 289.45623,60.991212 L 291.24317,62.673561 L 293.33392,61.875101 C 298.23118,60.004814 301.48804,61.348039 302.72579,65.748581 C 303.46126,68.363447 302.60605,71.241321 300.35207,73.736196 C 296.93132,77.522546 291.14536,78.131254 283.37635,75.522105 C 281.37281,74.849233 279.64864,74.382274 279.54488,74.484411 C 278.42177,75.589912 284.75017,78.031976 290.19408,78.593838 C 291.66619,78.745775 293.7166,78.636512 294.75052,78.351032 C 296.62251,77.834158 296.63277,77.839713 297.20408,79.6821 C 297.51961,80.699652 297.89044,84.486992 298.02812,88.098388 C 298.26208,94.235166 298.19007,94.928792 296.92674,98.70499 C 295.20109,103.86313 293.3391,106.74858 289.29496,110.53167 C 285.74711,113.85052 280.68213,116.56516 275.62003,117.86094 C 272.28204,118.71538 266.27093,118.83279 263.17588,118.10399 L 263.1759,118.10399 z"
         style="opacity:1;fill:#ee9eef;fill-opacity:1;fill-rule:evenodd;stroke:#000000;stroke-width:1.01015258;stroke-linecap:round;stroke-linejoin:round;stroke-miterlimit:4;stroke-dasharray:none;stroke-dashoffset:0;stroke-opacity:1" />
    </g>
    <path
       sodipodi:type="arc"
       id="path3436"
       style="fill:#000000;stroke:none"
       sodipodi:cx="10"
       sodipodi:cy="789.50507"
       sodipodi:rx="1.5"
       sodipodi:ry="1.5"
       d="M 11.5,789.50507 A 1.5,1.5 0 1 1 8.5,789.50507 A 1.5,1.5 0 1 1 11.5,789.50507 z"
       transform="matrix(0.7290028,0,0,0.7290028,16.58919,-51.35442)" />
    <path
       style="fill:none;fill-rule:evenodd;stroke:#000000;stroke-width:3.64501405;stroke-linecap:butt;stroke-linejoin:miter;stroke-miterlimit:4;stroke-dasharray:none;stroke-opacity:1"
       d="M 27.003516,561.89682 L 425.87218,561.89682"
       id="path3440" />
    <path
       style="fill:none;fill-rule:evenodd;stroke:#000000;stroke-width:2;stroke-linecap:butt;stroke-linejoin:miter;marker-end:url(#Arrow1Lend);stroke-miterlimit:4;stroke-dasharray:none;stroke-opacity:1"
       d="M 476.59318,574.38249 L 476.59318,22.953916"
       id="path3446"
       sodipodi:nodetypes="cc" />
    <path
       style="fill:none;fill-rule:evenodd;stroke:#000000;stroke-width:1px;stroke-linecap:butt;stroke-linejoin:miter;stroke-opacity:1"
       d="M 464.67017,80.595435 L 488.91383,80.595435"
       id="path4226" />
    <path
       style="fill:none;fill-rule:evenodd;stroke:#000000;stroke-width:1px;stroke-linecap:butt;stroke-linejoin:miter;stroke-opacity:1"
       d="M 467.18069,560.48968 L 487.38374,560.48968"
       id="path4230" />
    <text
       xml:space="preserve"
       style="font-size:18px;font-style:normal;font-variant:normal;font-weight:normal;font-stretch:normal;text-align:start;line-height:100%;writing-mode:lr-tb;text-anchor:start;fill:#000000;fill-opacity:1;stroke:none;stroke-width:1px;stroke-linecap:butt;stroke-linejoin:miter;stroke-opacity:1;font-family:Sans;-inkscape-font-specification:Sans"
       x="493.19812"
       y="82.534515"
       id="text4232"
       sodipodi:linespacing="100%"><tspan
         sodipodi:role="line"
         id="tspan4234"
         x="493.19812"
         y="82.534515"
         style="font-size:28px">h</tspan></text>
    <text
       xml:space="preserve"
       style="font-size:18px;font-style:normal;font-variant:normal;font-weight:normal;font-stretch:normal;text-align:start;line-height:100%;writing-mode:lr-tb;text-anchor:start;fill:#000000;fill-opacity:1;stroke:none;stroke-width:1px;stroke-linecap:butt;stroke-linejoin:miter;stroke-opacity:1;font-family:Sans;-inkscape-font-specification:Sans"
       x="501.03568"
       y="567.48895"
       id="text4236"
       sodipodi:linespacing="100%"><tspan
         sodipodi:role="line"
         id="tspan4238"
         x="501.03568"
         y="567.48895" /></text>
    <text
       xml:space="preserve"
       style="font-size:18px;font-style:normal;font-variant:normal;font-weight:normal;font-stretch:normal;text-align:start;line-height:100%;writing-mode:lr-tb;text-anchor:start;fill:#000000;fill-opacity:1;stroke:none;stroke-width:1px;stroke-linecap:butt;stroke-linejoin:miter;stroke-opacity:1;font-family:Sans;-inkscape-font-specification:Sans"
       x="497.67233"
       y="560.2475"
       id="text4240"
       sodipodi:linespacing="100%"><tspan
         sodipodi:role="line"
         id="tspan4242"
         x="497.67233"
         y="560.2475"
         style="font-size:28px">0</tspan></text>
    <path
       style="fill:none;fill-rule:evenodd;stroke:#000000;stroke-width:1px;stroke-linecap:butt;stroke-linejoin:miter;stroke-opacity:1"
       d="M 468.4699,489.50504 L 488.67295,489.50504"
       id="path4244" />
    <g
       id="g4254"
       transform="translate(1.4285714,10)">
      <text
         sodipodi:linespacing="100%"
         id="text4246"
         y="488.07648"
         x="508.57144"
         style="font-size:18px;font-style:normal;font-variant:normal;font-weight:normal;font-stretch:normal;text-align:start;line-height:100%;writing-mode:lr-tb;text-anchor:start;fill:#000000;fill-opacity:1;stroke:none;stroke-width:1px;stroke-linecap:butt;stroke-linejoin:miter;stroke-opacity:1;font-family:Sans;-inkscape-font-specification:Sans"
         xml:space="preserve"><tspan
           y="488.07648"
           x="508.57144"
           id="tspan4248"
           sodipodi:role="line">min</tspan></text>
      <text
         sodipodi:linespacing="100%"
         id="text4250"
         y="480.41171"
         x="492.52817"
         style="font-size:18px;font-style:normal;font-variant:normal;font-weight:normal;font-stretch:normal;text-align:start;line-height:100%;writing-mode:lr-tb;text-anchor:start;fill:#000000;fill-opacity:1;stroke:none;stroke-width:1px;stroke-linecap:butt;stroke-linejoin:miter;stroke-opacity:1;font-family:Sans;-inkscape-font-specification:Sans"
         xml:space="preserve"><tspan
           style="font-size:28px"
           y="480.41171"
           x="492.52817"
           id="tspan4252"
           sodipodi:role="line">z</tspan></text>
    </g>
    <path
       style="fill:none;fill-rule:evenodd;stroke:#000000;stroke-width:1px;stroke-linecap:butt;stroke-linejoin:miter;stroke-opacity:1"
       d="M 467.31235,340.05247 L 487.5154,340.05247"
       id="path4260" />
    <text
       xml:space="preserve"
       style="font-size:18px;font-style:normal;font-variant:normal;font-weight:normal;font-stretch:normal;text-align:start;line-height:100%;writing-mode:lr-tb;text-anchor:start;fill:#000000;fill-opacity:1;stroke:none;stroke-width:1px;stroke-linecap:butt;stroke-linejoin:miter;stroke-opacity:1;font-family:Sans;-inkscape-font-specification:Sans"
       x="497.80399"
       y="339.81027"
       id="text4262"
       sodipodi:linespacing="100%"><tspan
         sodipodi:role="line"
         id="tspan4264"
         x="497.80399"
         y="339.81027"
         style="font-size:28px" /></text>
    <text
       xml:space="preserve"
       style="font-size:18px;font-style:normal;font-variant:normal;font-weight:normal;font-stretch:normal;text-align:start;line-height:100%;writing-mode:lr-tb;text-anchor:start;fill:#000000;fill-opacity:1;stroke:none;stroke-width:1px;stroke-linecap:butt;stroke-linejoin:miter;stroke-opacity:1;font-family:Sans;-inkscape-font-specification:Sans"
       x="502.85715"
       y="336.64789"
       id="text4266"
       sodipodi:linespacing="100%"><tspan
         sodipodi:role="line"
         id="tspan4268"
         x="502.85715"
         y="336.64789" /></text>
    <g
       id="g4280"
       transform="translate(-28.571429,48.214286)">
      <g
         transform="translate(29.784459,-185.65423)"
         id="g4270">
        <text
           xml:space="preserve"
           style="font-size:18px;font-style:normal;font-variant:normal;font-weight:normal;font-stretch:normal;text-align:start;line-height:100%;writing-mode:lr-tb;text-anchor:start;fill:#000000;fill-opacity:1;stroke:none;stroke-width:1px;stroke-linecap:butt;stroke-linejoin:miter;stroke-opacity:1;font-family:Sans;-inkscape-font-specification:Sans"
           x="531.07147"
           y="486.64792"
           id="text4272"
           sodipodi:linespacing="100%"><tspan
             sodipodi:role="line"
             id="tspan4274"
             x="531.07147"
             y="486.64792">max</tspan></text>
        <text
           xml:space="preserve"
           style="font-size:18px;font-style:normal;font-variant:normal;font-weight:normal;font-stretch:normal;text-align:start;line-height:100%;writing-mode:lr-tb;text-anchor:start;fill:#000000;fill-opacity:1;stroke:none;stroke-width:1px;stroke-linecap:butt;stroke-linejoin:miter;stroke-opacity:1;font-family:Sans;-inkscape-font-specification:Sans"
           x="492.52817"
           y="480.41171"
           id="text4276"
           sodipodi:linespacing="100%"><tspan
             sodipodi:role="line"
             id="tspan4278"
             x="492.52817"
             y="480.41171"
             style="font-size:28px">z(v    )</tspan></text>
      </g>
    </g>
  </g>
</svg>
