<?xml version="1.0" encoding="UTF-8" standalone="no"?>
<!-- Created with Inkscape (http://www.inkscape.org/) -->

<svg
   xmlns:dc="http://purl.org/dc/elements/1.1/"
   xmlns:cc="http://creativecommons.org/ns#"
   xmlns:rdf="http://www.w3.org/1999/02/22-rdf-syntax-ns#"
   xmlns:svg="http://www.w3.org/2000/svg"
   xmlns="http://www.w3.org/2000/svg"
   xmlns:sodipodi="http://sodipodi.sourceforge.net/DTD/sodipodi-0.dtd"
   xmlns:inkscape="http://www.inkscape.org/namespaces/inkscape"
   width="301.18109"
   height="194.8819"
   id="svg3171"
   version="1.1"
   inkscape:version="0.48.3.1 r9886"
   sodipodi:docname="carte_de_visite.svg">
  <defs
     id="defs3173" />
  <sodipodi:namedview
     id="base"
     pagecolor="#c3c3c3"
     bordercolor="#666666"
     borderopacity="1.0"
     inkscape:pageopacity="0.76470588"
     inkscape:pageshadow="2"
     inkscape:zoom="1.0209804"
     inkscape:cx="84.135157"
     inkscape:cy="59.632011"
     inkscape:document-units="px"
     inkscape:current-layer="layer1"
     showgrid="false"
     inkscape:window-width="1121"
     inkscape:window-height="734"
     inkscape:window-x="51"
     inkscape:window-y="85"
     inkscape:window-maximized="0"
     showguides="true"
     inkscape:guide-bbox="true">
    <sodipodi:guide
       orientation="0,1"
       position="224.29421,116.55463"
       id="guide4059" />
  </sodipodi:namedview>
  <metadata
     id="metadata3176">
    <rdf:RDF>
      <cc:Work
         rdf:about="">
        <dc:format>image/svg+xml</dc:format>
        <dc:type
           rdf:resource="http://purl.org/dc/dcmitype/StillImage" />
        <dc:title></dc:title>
      </cc:Work>
    </rdf:RDF>
  </metadata>
  <g
     inkscape:label="Calque 1"
     inkscape:groupmode="layer"
     id="layer1"
     transform="translate(0,-857.48045)">
    <g
       id="g4043"
       transform="translate(2.0926024,-6.3036004)">
      <g
         id="text4011"
         style="font-size:144px;font-style:normal;font-variant:normal;font-weight:normal;font-stretch:normal;text-align:end;line-height:125%;letter-spacing:0px;word-spacing:0px;text-anchor:end;fill:#e0e1f3;fill-opacity:1;stroke:none;font-family:Nimbus Roman No9 L;-inkscape-font-specification:Nimbus Roman No9 L"
         transform="matrix(1.1290488,0,0,1.1290488,281.1552,833.58782)">
        <path
           inkscape:connector-curvature="0"
           id="path4016"
           style="fill:#e0e1f3"
           d="m -203.55018,156.67705 c -9.93599,-2.592 -13.104,-6.91201 -13.104,-17.712 l 0,-24.192 c 0,-11.95199 -2.73601,-15.696001 -13.536,-18.431998 10.79999,-2.879997 13.536,-6.624012 13.536,-18.576 l 0,-24.192 c 0,-10.799989 3.16801,-15.120003 13.104,-17.712 l 0,-1.584 c -9.50399,0.144 -13.248,1.008003 -17.424,3.6 -4.176,2.591997 -6.336,8.208008 -6.336,16.416 l 0,25.632 c 0,10.07999 -2.59201,13.392003 -12.24,16.272 9.64799,3.023997 12.24,6.480008 12.24,16.415998 l 0,25.488 c 0,8.06399 2.304,13.968 6.336,16.56 4.032,2.592 7.92001,3.456 17.424,3.6 l 0,-1.584" />
        <path
           inkscape:connector-curvature="0"
           id="path4018"
           style="fill:#e0e1f3"
           d="m -166.04268,35.861052 c 9.93599,2.591997 13.104,6.912011 13.104,17.712 l 0,24.192 c 0,12.095988 2.73601,15.696003 13.536,18.432 -10.79999,2.879997 -13.536,6.624008 -13.536,18.575998 l 0,24.192 c 0,10.79999 -3.16801,15.12 -13.104,17.712 l 0,1.584 c 9.50399,-0.144 13.248,-1.008 17.424,-3.6 4.176,-2.592 6.336,-8.20801 6.336,-16.416 l 0,-25.632 c 0,-10.07999 2.59201,-13.392001 12.24,-16.415998 -9.64799,-2.879997 -12.24,-6.19201 -12.24,-16.272 l 0,-25.488 c 0,-8.063992 -2.304,-13.968003 -6.336,-16.56 -4.032,-2.591997 -7.77601,-3.456 -17.424,-3.6 l 0,1.584" />
      </g>
      <text
         sodipodi:linespacing="125%"
         id="text3179"
         y="904.4494"
         x="281.87097"
         style="font-size:32px;font-style:normal;font-variant:normal;font-weight:normal;font-stretch:normal;text-align:end;line-height:125%;letter-spacing:0px;word-spacing:0px;text-anchor:end;fill:#3139ae;fill-opacity:1;stroke:none;font-family:Ubuntu;-inkscape-font-specification:Ubuntu"
         xml:space="preserve"><tspan
           y="904.4494"
           x="281.87097"
           id="tspan3181"
           sodipodi:role="line">Guillaume Gay</tspan><tspan
           id="tspan3183"
           y="944.4494"
           x="281.87097"
           sodipodi:role="line" /></text>
      <text
         sodipodi:linespacing="125%"
         id="text3185"
         y="951.9848"
         x="282.15048"
         style="font-size:16px;font-style:normal;font-variant:normal;font-weight:normal;font-stretch:normal;text-align:end;line-height:125%;letter-spacing:0px;word-spacing:0px;text-anchor:end;fill:#3139ae;fill-opacity:1;stroke:none;font-family:Ubuntu;-inkscape-font-specification:Ubuntu"
         xml:space="preserve"><tspan
           style="font-size:32px;fill:#3139ae"
           id="tspan3971"
           y="951.9848"
           x="282.15048"
           sodipodi:role="line">---</tspan><tspan
           id="tspan3969"
           y="975.76202"
           x="282.15048"
           sodipodi:role="line">analyse de donées et  modélisation</tspan><tspan
           id="tspan3191"
           y="995.76202"
           x="282.15048"
           sodipodi:role="line">pour la Biologie</tspan></text>
      <text
         sodipodi:linespacing="125%"
         id="text3975"
         y="1031.4365"
         x="282.21741"
         style="font-size:12px;font-style:normal;font-variant:normal;font-weight:normal;font-stretch:normal;text-align:end;line-height:125%;letter-spacing:0px;word-spacing:0px;text-anchor:end;fill:#3139ae;fill-opacity:1;stroke:none;font-family:Ubuntu;-inkscape-font-specification:Ubuntu"
         xml:space="preserve"><tspan
           style="font-size:12px;fill:#3139ae"
           y="1031.4365"
           x="282.21741"
           id="tspan3977"
           sodipodi:role="line">mitotic-machine.org - SIRET : <tspan
   id="tspan4022"
   style="font-weight:bold">751 175 233 000 12</tspan></tspan><tspan
           id="tspan4020"
           style="font-size:12px;fill:#3139ae"
           y="1046.4365"
           x="282.21741"
           sodipodi:role="line">gllm.gay@google.com - +33 651 95 94 00</tspan></text>
    </g>
  </g>
</svg>
