<?xml version="1.0" encoding="UTF-8" standalone="no"?>
<!-- Created with Inkscape (http://www.inkscape.org/) -->
<svg
   xmlns:textext="http://www.iki.fi/pav/software/textext/"
   xmlns:dc="http://purl.org/dc/elements/1.1/"
   xmlns:cc="http://web.resource.org/cc/"
   xmlns:rdf="http://www.w3.org/1999/02/22-rdf-syntax-ns#"
   xmlns:svg="http://www.w3.org/2000/svg"
   xmlns="http://www.w3.org/2000/svg"
   xmlns:xlink="http://www.w3.org/1999/xlink"
   xmlns:sodipodi="http://sodipodi.sourceforge.net/DTD/sodipodi-0.dtd"
   xmlns:inkscape="http://www.inkscape.org/namespaces/inkscape"
   width="808"
   height="731"
   id="svg7132"
   sodipodi:version="0.32"
   inkscape:version="0.45.1"
   version="1.0"
   sodipodi:docbase="/home/glyg/taf/illustrations"
   sodipodi:docname="force_velocity_linear.svg"
   inkscape:output_extension="org.inkscape.output.svg.inkscape">
  <sodipodi:namedview
     id="base"
     pagecolor="#ffffff"
     bordercolor="#666666"
     borderopacity="1.0"
     inkscape:pageopacity="0.0"
     inkscape:pageshadow="2"
     inkscape:zoom="0.35"
     inkscape:cx="791.73736"
     inkscape:cy="239.13635"
     inkscape:document-units="px"
     inkscape:current-layer="layer2"
     inkscape:window-width="822"
     inkscape:window-height="590"
     inkscape:window-x="0"
     inkscape:window-y="24" />
  <defs
     id="defs7134" />
  <metadata
     id="metadata7137">
    <rdf:RDF>
      <cc:Work
         rdf:about="">
        <dc:format>image/svg+xml</dc:format>
        <dc:type
           rdf:resource="http://purl.org/dc/dcmitype/StillImage" />
      </cc:Work>
    </rdf:RDF>
  </metadata>
  <g
     id="layer1"
     inkscape:label="Calque 1"
     transform="translate(26.857151,10.280679)"
     inkscape:groupmode="layer">
    <image
       sodipodi:absref="/home/glyg/taf/pres2_nov07/illustrations/toba_06_force_velocity_back.png"
       y="-10.494958"
       x="-25.142866"
       height="731"
       xlink:href="/home/glyg/taf/pres2_nov07/illustrations/toba_06_force_velocity_back.png"
       width="808"
       id="image7361" />
    <path
       transform="translate(-26.857151,-10.280679)"
       style="fill:none;fill-rule:evenodd;stroke:#f50000;stroke-width:10.62992126;stroke-linecap:butt;stroke-linejoin:miter;stroke-opacity:1;stroke-miterlimit:4;stroke-dasharray:none"
       d="M 208.57143,102.42857 L 680,599.57143"
       id="path7198" />
  </g>
  <g
     inkscape:label="text"
     id="layer2"
     inkscape:groupmode="layer"
     style="display:inline">
    <g
       textext:preamble="header.inc"
       stroke-miterlimit="10.433"
       id="content"
       style="font-style:normal;font-variant:normal;font-weight:normal;font-stretch:normal;letter-spacing:normal;word-spacing:normal;text-anchor:start;fill:#fb0000;fill-opacity:1;stroke:#fe0000;stroke-linecap:butt;stroke-linejoin:miter;stroke-miterlimit:10.43299961;stroke-dasharray:none;stroke-dashoffset:0;stroke-opacity:1"
       textext:text="$F_{stall}$"
       letter-spacing="normal"
       transform="matrix(6.3721666,0,0,-6.3721666,-790.91457,5174.0612)"
       word-spacing="normal"
       font-weight="normal"
       fill-rule="even-odd"
       font-variant="normal"
       font-style="normal"
       xml:space="preserve"
       font-stretch="normal"
       font-size-adjust="none">
<path
   style="fill:#fb0000;fill-opacity:1;stroke:#fe0000;stroke-width:0;stroke-opacity:1"
   id="path7376"
   d="M 226.45,710.36 L 227.42,710.36 C 228.16,710.36 228.24,710.2 228.24,709.91 C 228.24,709.84 228.24,709.72 228.18,709.42 C 228.15,709.37 228.15,709.33 228.15,709.31 C 228.15,709.23 228.21,709.2 228.26,709.2 C 228.36,709.2 228.36,709.22 228.41,709.4 L 228.96,711.57 C 228.99,711.67 228.99,711.7 228.99,711.72 C 228.99,711.74 228.97,711.84 228.87,711.84 C 228.77,711.84 228.76,711.78 228.72,711.63 C 228.51,710.85 228.28,710.67 227.44,710.67 L 226.53,710.67 L 227.17,713.2 C 227.26,713.55 227.27,713.59 227.71,713.59 L 229.02,713.59 C 230.25,713.59 230.48,713.26 230.48,712.49 C 230.48,712.26 230.48,712.22 230.45,711.95 C 230.43,711.83 230.43,711.8 230.43,711.78 C 230.43,711.72 230.46,711.66 230.55,711.66 C 230.65,711.66 230.66,711.72 230.68,711.91 L 230.88,713.63 C 230.91,713.9 230.87,713.9 230.62,713.9 L 225.73,713.9 C 225.54,713.9 225.43,713.9 225.43,713.7 C 225.43,713.59 225.52,713.59 225.71,713.59 C 226.08,713.59 226.36,713.59 226.36,713.41 C 226.36,713.37 226.36,713.35 226.31,713.17 L 225,707.9 C 224.9,707.51 224.88,707.43 224.09,707.43 C 223.92,707.43 223.81,707.43 223.81,707.24 C 223.81,707.12 223.93,707.12 223.96,707.12 C 224.25,707.12 224.99,707.15 225.28,707.15 C 225.6,707.15 226.43,707.12 226.76,707.12 C 226.85,707.12 226.97,707.12 226.97,707.31 C 226.97,707.39 226.91,707.41 226.91,707.42 C 226.88,707.43 226.86,707.43 226.63,707.43 C 226.41,707.43 226.36,707.43 226.11,707.45 C 225.82,707.48 225.79,707.52 225.79,707.65 C 225.79,707.67 225.79,707.73 225.83,707.88 L 226.45,710.36 z " />
<path
   style="fill:#fb0000;fill-opacity:1;stroke:#fe0000;stroke-width:0;stroke-opacity:1"
   id="path7378"
   d="M 232.84,708.25 L 232.83,708.25 L 232.81,708.24 L 232.79,708.24 L 232.78,708.23 L 232.76,708.23 L 232.75,708.22 L 232.73,708.21 L 232.72,708.2 L 232.71,708.19 L 232.69,708.19 L 232.68,708.18 L 232.67,708.17 L 232.66,708.16 L 232.65,708.15 L 232.64,708.14 L 232.63,708.12 L 232.62,708.11 L 232.61,708.1 L 232.6,708.09 L 232.59,708.08 L 232.59,708.07 L 232.58,708.05 L 232.58,708.04 L 232.57,708.03 L 232.57,708.02 L 232.56,708 L 232.56,707.99 L 232.56,707.98 L 232.55,707.96 L 232.55,707.95 L 232.55,707.94 L 232.55,707.92 C 232.55,707.76 232.69,707.7 232.78,707.7 C 232.85,707.7 233.12,707.74 233.12,708.1 C 233.12,708.55 232.61,708.71 232.19,708.71 C 231.1,708.71 230.9,707.9 230.9,707.69 C 230.9,707.43 231.05,707.26 231.15,707.18 C 231.33,707.04 231.46,707.01 231.94,706.93 C 232.08,706.9 232.53,706.82 232.53,706.47 C 232.53,706.35 232.45,706.08 232.16,705.91 C 231.89,705.76 231.55,705.76 231.46,705.76 C 231.18,705.76 230.79,705.82 230.63,706.05 C 230.86,706.08 231.01,706.25 231.01,706.45 C 231.01,706.62 230.88,706.7 230.74,706.7 C 230.54,706.7 230.33,706.54 230.33,706.24 C 230.33,705.82 230.78,705.56 231.46,705.56 C 232.74,705.56 232.98,706.44 232.98,706.71 C 232.98,707.35 232.27,707.48 232.01,707.53 C 231.95,707.54 231.78,707.57 231.73,707.58 C 231.48,707.63 231.35,707.78 231.35,707.93 C 231.35,708.09 231.48,708.28 231.63,708.38 C 231.82,708.5 232.06,708.51 232.18,708.51 C 232.33,708.51 232.69,708.49 232.84,708.25 z " />
<path
   style="fill:#fb0000;fill-opacity:1;stroke:#fe0000;stroke-width:0;stroke-opacity:1"
   id="path7380"
   d="M 235.32,708.39 L 236.03,708.39 C 236.16,708.39 236.25,708.39 236.25,708.54 C 236.25,708.64 236.16,708.64 236.04,708.64 L 235.38,708.64 L 235.64,709.67 C 235.65,709.7 235.66,709.74 235.66,709.77 C 235.66,709.89 235.56,709.99 235.42,709.99 C 235.25,709.99 235.14,709.87 235.1,709.69 C 235.05,709.51 235.14,709.85 234.83,708.64 L 234.12,708.64 C 233.99,708.64 233.9,708.64 233.9,708.48 C 233.9,708.39 233.98,708.39 234.1,708.39 L 234.77,708.39 C 234.63,707.83 234.49,707.29 234.36,706.74 C 234.31,706.57 234.25,706.31 234.25,706.22 C 234.25,705.81 234.6,705.56 235,705.56 C 235.77,705.56 236.21,706.54 236.21,706.63 C 236.21,706.72 236.12,706.72 236.1,706.72 C 236.01,706.72 236.01,706.7 235.95,706.59 C 235.76,706.15 235.4,705.76 235.02,705.76 C 234.87,705.76 234.77,705.85 234.77,706.1 C 234.77,706.17 234.8,706.31 234.82,706.38 L 235.32,708.39 z " />
<path
   style="fill:#fb0000;fill-opacity:1;stroke:#fe0000;stroke-width:0;stroke-opacity:1"
   id="path7382"
   d="M 239.55,708.29 L 239.54,708.32 L 239.52,708.34 L 239.51,708.36 L 239.49,708.38 L 239.48,708.4 L 239.46,708.42 L 239.44,708.44 L 239.43,708.46 L 239.41,708.47 L 239.39,708.49 L 239.37,708.51 L 239.35,708.53 L 239.33,708.54 L 239.31,708.56 L 239.29,708.57 L 239.26,708.59 L 239.24,708.6 L 239.22,708.61 L 239.19,708.62 L 239.17,708.64 L 239.15,708.65 L 239.12,708.66 L 239.09,708.66 L 239.07,708.67 L 239.04,708.68 L 239.01,708.69 L 238.98,708.69 L 238.96,708.7 L 238.93,708.7 L 238.9,708.7 L 238.87,708.7 L 238.84,708.71 L 238.84,708.51 C 239.32,708.51 239.46,707.98 239.46,707.9 C 239.46,707.88 239.44,707.83 239.43,707.81 L 239.11,706.5 C 239.06,706.31 238.9,706.17 238.75,706.03 C 238.69,705.98 238.41,705.76 238.11,705.76 C 237.85,705.76 237.6,705.94 237.6,706.43 C 237.6,706.8 237.8,707.57 237.96,707.85 C 238.28,708.41 238.64,708.51 238.84,708.51 L 238.84,708.71 C 237.94,708.71 237.04,707.72 237.04,706.72 C 237.04,706.04 237.49,705.56 238.09,705.56 C 238.46,705.56 238.8,705.78 239.08,706.05 C 239.21,705.63 239.62,705.56 239.8,705.56 C 240.05,705.56 240.22,705.71 240.35,705.93 C 240.5,706.2 240.59,706.6 240.59,706.63 C 240.59,706.72 240.5,706.72 240.48,706.72 C 240.38,706.72 240.38,706.69 240.33,706.5 C 240.24,706.17 240.11,705.76 239.82,705.76 C 239.64,705.76 239.59,705.91 239.59,706.1 C 239.59,706.22 239.64,706.47 239.69,706.65 C 239.74,706.84 239.81,707.12 239.85,707.28 C 239.92,707.53 239.92,707.58 239.99,707.81 C 240.03,707.99 240.11,708.32 240.11,708.35 C 240.11,708.5 239.99,708.57 239.87,708.57 C 239.76,708.57 239.6,708.49 239.55,708.29 z " />
<path
   style="fill:#fb0000;fill-opacity:1;stroke:#fe0000;stroke-width:0;stroke-opacity:1"
   id="path7384"
   d="M 242.9,710.26 L 242.9,710.26 L 242.9,710.26 L 242.9,710.26 L 242.9,710.26 L 242.9,710.27 L 242.9,710.27 L 242.9,710.27 L 242.9,710.27 L 242.9,710.27 L 242.9,710.28 L 242.9,710.28 L 242.9,710.28 L 242.91,710.29 L 242.91,710.29 L 242.91,710.3 L 242.91,710.3 L 242.91,710.31 L 242.91,710.31 L 242.91,710.32 L 242.92,710.33 L 242.92,710.33 L 242.92,710.34 L 242.92,710.34 L 242.92,710.35 L 242.92,710.35 L 242.92,710.35 L 242.92,710.36 L 242.92,710.36 L 242.92,710.36 L 242.92,710.36 L 242.92,710.36 L 242.92,710.37 L 242.92,710.37 L 242.92,710.37 L 242.92,710.37 L 242.92,710.37 L 242.92,710.37 L 242.92,710.37 L 242.92,710.37 L 242.93,710.37 C 242.93,710.41 242.9,710.47 242.81,710.47 C 242.67,710.47 242.1,710.41 241.92,710.4 C 241.87,710.39 241.77,710.39 241.77,710.24 C 241.77,710.14 241.87,710.14 241.95,710.14 C 242.28,710.14 242.28,710.09 242.28,710.04 C 242.28,709.99 242.27,709.95 242.26,709.88 L 241.39,706.44 C 241.37,706.37 241.36,706.29 241.36,706.22 C 241.36,705.78 241.76,705.56 242.1,705.56 C 242.26,705.56 242.47,705.62 242.65,705.93 C 242.8,706.19 242.9,706.6 242.9,706.63 C 242.9,706.72 242.81,706.72 242.79,706.72 C 242.69,706.72 242.67,706.68 242.65,706.55 C 242.55,706.2 242.42,705.76 242.12,705.76 C 241.93,705.76 241.88,705.93 241.88,706.1 C 241.88,706.17 241.91,706.31 241.93,706.38 L 242.9,710.26 z " />
<path
   style="fill:#fb0000;fill-opacity:1;stroke:#fe0000;stroke-width:0;stroke-opacity:1"
   id="path7386"
   d="M 245.46,710.26 L 245.46,710.26 L 245.46,710.26 L 245.46,710.26 L 245.46,710.26 L 245.46,710.27 L 245.46,710.27 L 245.46,710.27 L 245.47,710.27 L 245.47,710.27 L 245.47,710.28 L 245.47,710.28 L 245.47,710.28 L 245.47,710.29 L 245.47,710.29 L 245.47,710.3 L 245.47,710.3 L 245.48,710.31 L 245.48,710.31 L 245.48,710.32 L 245.48,710.33 L 245.48,710.33 L 245.48,710.34 L 245.48,710.34 L 245.48,710.35 L 245.49,710.35 L 245.49,710.35 L 245.49,710.36 L 245.49,710.36 L 245.49,710.36 L 245.49,710.36 L 245.49,710.36 L 245.49,710.37 L 245.49,710.37 L 245.49,710.37 L 245.49,710.37 L 245.49,710.37 L 245.49,710.37 L 245.49,710.37 L 245.49,710.37 L 245.49,710.37 C 245.49,710.41 245.46,710.47 245.38,710.47 C 245.24,710.47 244.66,710.41 244.49,710.4 C 244.44,710.39 244.34,710.39 244.34,710.24 C 244.34,710.14 244.44,710.14 244.51,710.14 C 244.85,710.14 244.85,710.09 244.85,710.04 C 244.85,709.99 244.83,709.95 244.82,709.88 L 243.96,706.44 C 243.93,706.37 243.93,706.29 243.93,706.22 C 243.93,705.78 244.32,705.56 244.66,705.56 C 244.83,705.56 245.04,705.62 245.22,705.93 C 245.36,706.19 245.46,706.6 245.46,706.63 C 245.46,706.72 245.37,706.72 245.35,706.72 C 245.25,706.72 245.24,706.68 245.21,706.55 C 245.12,706.2 244.99,705.76 244.69,705.76 C 244.5,705.76 244.45,705.93 244.45,706.1 C 244.45,706.17 244.47,706.31 244.49,706.38 L 245.46,710.26 z " />
</g>    <g
       stroke-miterlimit="10.433"
       textext:text="$V_{max}$"
       font-stretch="normal"
       id="g7423"
       font-variant="normal"
       textext:preamble="header.inc"
       font-weight="normal"
       transform="matrix(6.7934745,0,0,-6.7934745,-1481.7204,4896.1296)"
       word-spacing="normal"
       font-style="normal"
       letter-spacing="normal"
       fill-rule="even-odd"
       xml:space="preserve"
       font-size-adjust="none"
       style="font-style:normal;font-variant:normal;font-weight:normal;font-stretch:normal;letter-spacing:normal;word-spacing:normal;text-anchor:start;fill:#fb0000;fill-opacity:1;stroke:#f80000;stroke-linecap:butt;stroke-linejoin:miter;stroke-miterlimit:10.43299961;stroke-dasharray:none;stroke-dashoffset:0;stroke-opacity:1">
<path
   id="path7425"
   d="M 229.69,712.79 L 229.73,712.86 L 229.78,712.93 L 229.82,712.99 L 229.87,713.05 L 229.91,713.1 L 229.96,713.15 L 230,713.2 L 230.04,713.25 L 230.08,713.29 L 230.13,713.32 L 230.17,713.36 L 230.21,713.39 L 230.25,713.42 L 230.29,713.44 L 230.33,713.47 L 230.37,713.49 L 230.41,713.51 L 230.45,713.52 L 230.49,713.54 L 230.53,713.55 L 230.57,713.56 L 230.6,713.57 L 230.64,713.58 L 230.68,713.59 L 230.71,713.6 L 230.75,713.6 L 230.82,713.61 L 230.89,713.61 L 230.96,713.62 C 231.08,713.63 231.09,713.8 231.09,713.81 C 231.09,713.89 231.04,713.93 230.96,713.93 C 230.71,713.93 230.42,713.9 230.15,713.9 C 229.82,713.9 229.48,713.93 229.16,713.93 C 229.1,713.93 228.97,713.93 228.97,713.74 C 228.97,713.63 229.06,713.62 229.13,713.62 C 229.4,713.6 229.59,713.5 229.59,713.29 C 229.59,713.14 229.44,712.92 229.44,712.91 L 226.38,708.05 L 225.7,713.32 C 225.7,713.49 225.93,713.62 226.39,713.62 C 226.53,713.62 226.64,713.62 226.64,713.82 C 226.64,713.91 226.56,713.93 226.5,713.93 C 226.1,713.93 225.67,713.9 225.27,713.9 C 225.09,713.9 224.9,713.91 224.72,713.91 C 224.54,713.91 224.35,713.93 224.18,713.93 C 224.11,713.93 223.99,713.93 223.99,713.74 C 223.99,713.62 224.08,713.62 224.24,713.62 C 224.8,713.62 224.81,713.53 224.84,713.28 L 225.62,707.13 C 225.65,706.93 225.69,706.9 225.82,706.9 C 225.98,706.9 226.02,706.95 226.1,707.08 L 229.69,712.79 z "
   style="fill:#fb0000;fill-opacity:1;stroke:#f80000;stroke-width:0;stroke-opacity:1" />
<path
   id="path7427"
   d="M 232.27,706.2 L 232.27,706.18 L 232.27,706.17 L 232.26,706.15 L 232.26,706.14 L 232.25,706.12 L 232.25,706.11 L 232.24,706.08 L 232.23,706.04 L 232.23,706.01 L 232.22,705.98 L 232.21,705.96 L 232.21,705.95 L 232.21,705.93 L 232.2,705.92 L 232.2,705.91 L 232.2,705.89 L 232.19,705.88 L 232.19,705.87 L 232.19,705.85 L 232.18,705.84 L 232.18,705.83 L 232.18,705.82 L 232.18,705.81 L 232.18,705.81 L 232.18,705.8 L 232.17,705.79 L 232.17,705.79 L 232.17,705.78 C 232.17,705.63 232.3,705.56 232.41,705.56 C 232.54,705.56 232.65,705.65 232.68,705.71 C 232.72,705.78 232.77,706 232.81,706.15 C 232.84,706.28 232.92,706.6 232.96,706.77 C 233,706.93 233.05,707.08 233.08,707.24 C 233.16,707.54 233.16,707.55 233.3,707.77 C 233.52,708.11 233.87,708.51 234.41,708.51 C 234.8,708.51 234.82,708.19 234.82,708.02 C 234.82,707.6 234.52,706.83 234.41,706.54 C 234.34,706.34 234.31,706.28 234.31,706.16 C 234.31,705.79 234.62,705.56 234.97,705.56 C 235.67,705.56 235.98,706.52 235.98,706.63 C 235.98,706.72 235.88,706.72 235.86,706.72 C 235.77,706.72 235.76,706.68 235.73,706.6 C 235.57,706.04 235.27,705.76 234.99,705.76 C 234.85,705.76 234.82,705.85 234.82,706 C 234.82,706.16 234.85,706.25 234.98,706.57 C 235.06,706.78 235.35,707.52 235.35,707.91 C 235.35,708.02 235.35,708.32 235.09,708.52 C 234.97,708.61 234.77,708.71 234.44,708.71 C 233.81,708.71 233.43,708.29 233.21,708 C 233.15,708.59 232.65,708.71 232.3,708.71 C 231.72,708.71 231.33,708.35 231.12,708.07 C 231.07,708.55 230.66,708.71 230.38,708.71 C 230.07,708.71 229.91,708.49 229.82,708.33 C 229.67,708.07 229.57,707.67 229.57,707.64 C 229.57,707.55 229.67,707.55 229.69,707.55 C 229.79,707.55 229.8,707.57 229.85,707.76 C 229.95,708.17 230.08,708.51 230.35,708.51 C 230.54,708.51 230.58,708.36 230.58,708.17 C 230.58,708.04 230.52,707.78 230.47,707.59 C 230.42,707.4 230.35,707.11 230.32,706.96 L 230.1,706.07 C 230.07,705.98 230.03,705.8 230.03,705.78 C 230.03,705.63 230.15,705.56 230.26,705.56 C 230.39,705.56 230.5,705.65 230.54,705.71 C 230.57,705.78 230.63,706 230.66,706.15 C 230.7,706.28 230.77,706.6 230.81,706.77 C 230.86,706.93 230.9,707.08 230.93,707.24 C 231.01,707.53 231.02,707.58 231.23,707.87 C 231.42,708.15 231.75,708.51 232.27,708.51 C 232.68,708.51 232.68,708.16 232.68,708.02 C 232.68,707.85 232.66,707.76 232.57,707.37 L 232.27,706.2 z "
   style="fill:#fb0000;fill-opacity:1;stroke:#f80000;stroke-width:0;stroke-opacity:1" />
<path
   id="path7429"
   d="M 239.25,708.29 L 239.24,708.32 L 239.22,708.34 L 239.21,708.36 L 239.19,708.38 L 239.18,708.4 L 239.16,708.42 L 239.14,708.44 L 239.13,708.46 L 239.11,708.47 L 239.09,708.49 L 239.07,708.51 L 239.05,708.53 L 239.03,708.54 L 239.01,708.56 L 238.99,708.57 L 238.96,708.59 L 238.94,708.6 L 238.92,708.61 L 238.89,708.62 L 238.87,708.64 L 238.85,708.65 L 238.82,708.66 L 238.79,708.66 L 238.77,708.67 L 238.74,708.68 L 238.71,708.69 L 238.68,708.69 L 238.66,708.7 L 238.63,708.7 L 238.6,708.7 L 238.57,708.7 L 238.54,708.71 L 238.54,708.51 C 239.02,708.51 239.15,707.98 239.15,707.9 C 239.15,707.88 239.14,707.83 239.13,707.81 L 238.81,706.5 C 238.76,706.31 238.6,706.17 238.45,706.03 C 238.39,705.98 238.11,705.76 237.81,705.76 C 237.55,705.76 237.3,705.94 237.3,706.43 C 237.3,706.8 237.5,707.57 237.66,707.85 C 237.98,708.41 238.34,708.51 238.54,708.51 L 238.54,708.71 C 237.64,708.71 236.74,707.72 236.74,706.72 C 236.74,706.04 237.19,705.56 237.79,705.56 C 238.16,705.56 238.5,705.78 238.78,706.05 C 238.91,705.63 239.32,705.56 239.5,705.56 C 239.75,705.56 239.92,705.71 240.05,705.93 C 240.2,706.2 240.29,706.6 240.29,706.63 C 240.29,706.72 240.2,706.72 240.18,706.72 C 240.08,706.72 240.08,706.69 240.03,706.5 C 239.94,706.17 239.81,705.76 239.52,705.76 C 239.34,705.76 239.29,705.91 239.29,706.1 C 239.29,706.22 239.34,706.47 239.39,706.65 C 239.44,706.84 239.51,707.12 239.55,707.28 C 239.62,707.53 239.62,707.58 239.68,707.81 C 239.73,707.99 239.81,708.32 239.81,708.35 C 239.81,708.5 239.68,708.57 239.57,708.57 C 239.46,708.57 239.29,708.49 239.25,708.29 z "
   style="fill:#fb0000;fill-opacity:1;stroke:#f80000;stroke-width:0;stroke-opacity:1" />
<path
   id="path7431"
   d="M 242.37,706.37 L 242.37,706.35 L 242.36,706.32 L 242.35,706.3 L 242.34,706.27 L 242.33,706.25 L 242.32,706.22 L 242.31,706.2 L 242.29,706.17 L 242.28,706.15 L 242.26,706.12 L 242.25,706.1 L 242.23,706.07 L 242.21,706.05 L 242.19,706.02 L 242.17,706 L 242.15,705.97 L 242.13,705.95 L 242.11,705.93 L 242.09,705.91 L 242.06,705.89 L 242.04,705.87 L 242.01,705.85 L 241.99,705.83 L 241.96,705.82 L 241.93,705.8 L 241.9,705.79 L 241.88,705.78 L 241.85,705.77 L 241.81,705.77 L 241.78,705.76 L 241.75,705.76 L 241.72,705.76 C 241.7,705.76 241.49,705.76 241.34,705.85 C 241.63,705.94 241.65,706.2 241.65,706.24 C 241.65,706.39 241.53,706.49 241.37,706.49 C 241.17,706.49 240.97,706.33 240.97,706.07 C 240.97,705.72 241.36,705.56 241.7,705.56 C 242.02,705.56 242.31,705.76 242.49,706.05 C 242.65,705.69 243.04,705.56 243.32,705.56 C 244.12,705.56 244.54,706.43 244.54,706.63 C 244.54,706.72 244.45,706.72 244.43,706.72 C 244.33,706.72 244.33,706.68 244.3,706.6 C 244.15,706.12 243.73,705.76 243.34,705.76 C 243.06,705.76 242.92,705.94 242.92,706.21 C 242.92,706.39 243.09,707.03 243.28,707.8 C 243.42,708.34 243.73,708.51 243.96,708.51 C 243.98,708.51 244.19,708.51 244.34,708.41 C 244.12,708.35 244.03,708.16 244.03,708.03 C 244.03,707.88 244.15,707.77 244.31,707.77 C 244.47,707.77 244.7,707.9 244.7,708.2 C 244.7,708.59 244.26,708.71 243.98,708.71 C 243.63,708.71 243.35,708.47 243.2,708.21 C 243.07,708.5 242.75,708.71 242.36,708.71 C 241.58,708.71 241.13,707.85 241.13,707.64 C 241.13,707.55 241.23,707.55 241.25,707.55 C 241.34,707.55 241.35,707.58 241.38,707.67 C 241.56,708.21 242,708.51 242.34,708.51 C 242.57,708.51 242.76,708.39 242.76,708.05 C 242.76,707.91 242.67,707.56 242.61,707.33 L 242.37,706.37 z "
   style="fill:#fb0000;fill-opacity:1;stroke:#f80000;stroke-width:0;stroke-opacity:1" />
</g>  </g>
</svg>
