<?xml version="1.0" encoding="UTF-8" standalone="no"?>
<!-- Created with Inkscape (http://www.inkscape.org/) -->

<svg
   xmlns:dc="http://purl.org/dc/elements/1.1/"
   xmlns:cc="http://creativecommons.org/ns#"
   xmlns:rdf="http://www.w3.org/1999/02/22-rdf-syntax-ns#"
   xmlns:svg="http://www.w3.org/2000/svg"
   xmlns="http://www.w3.org/2000/svg"
   xmlns:sodipodi="http://sodipodi.sourceforge.net/DTD/sodipodi-0.dtd"
   xmlns:inkscape="http://www.inkscape.org/namespaces/inkscape"
   width="210mm"
   height="297mm"
   id="svg2"
   version="1.1"
   inkscape:version="0.47 r22583"
   sodipodi:docname="fow_chart_diagram.svg">
  <sodipodi:namedview
     id="base"
     pagecolor="#ffffff"
     bordercolor="#666666"
     borderopacity="1.0"
     inkscape:pageopacity="0.0"
     inkscape:pageshadow="2"
     inkscape:zoom="0.98994949"
     inkscape:cx="448.69469"
     inkscape:cy="605.81328"
     inkscape:document-units="px"
     inkscape:current-layer="g6395"
     showgrid="false"
     inkscape:window-width="744"
     inkscape:window-height="674"
     inkscape:window-x="375"
     inkscape:window-y="76"
     inkscape:window-maximized="0"
     showguides="true"
     inkscape:guide-bbox="true"
     inkscape:snap-bbox="false"
     inkscape:snap-bbox-edge-midpoints="true"
     inkscape:snap-nodes="false"
     inkscape:snap-global="false">
    <sodipodi:guide
       orientation="1,0"
       position="331.83511,484.87322"
       id="guide5066" />
  </sodipodi:namedview>
  <defs
     id="defs4">
    <marker
       style="overflow:visible;"
       id="Arrow1Mend"
       refX="0.0"
       refY="0.0"
       orient="auto"
       inkscape:stockid="Arrow1Mend">
      <path
         transform="scale(0.4) rotate(180) translate(10,0)"
         style="fill-rule:evenodd;stroke:#000000;stroke-width:1.0pt;marker-start:none;"
         d="M 0.0,0.0 L 5.0,-5.0 L -12.5,0.0 L 5.0,5.0 L 0.0,0.0 z "
         id="path3952" />
    </marker>
    <inkscape:perspective
       id="perspective10"
       inkscape:persp3d-origin="372.04724 : 350.78739 : 1"
       inkscape:vp_z="744.09448 : 526.18109 : 1"
       inkscape:vp_y="0 : 1000 : 0"
       inkscape:vp_x="0 : 526.18109 : 1"
       sodipodi:type="inkscape:persp3d" />
    <inkscape:perspective
       sodipodi:type="inkscape:persp3d"
       inkscape:vp_x="0 : 0.5 : 1"
       inkscape:vp_y="0 : 1000 : 0"
       inkscape:vp_z="1 : 0.5 : 1"
       inkscape:persp3d-origin="0.5 : 0.33333333 : 1"
       id="perspective3690" />
    <inkscape:perspective
       sodipodi:type="inkscape:persp3d"
       inkscape:vp_x="0 : 0.5 : 1"
       inkscape:vp_y="0 : 1000 : 0"
       inkscape:vp_z="1 : 0.5 : 1"
       inkscape:persp3d-origin="0.5 : 0.33333333 : 1"
       id="perspective3712" />
    <inkscape:perspective
       sodipodi:type="inkscape:persp3d"
       inkscape:vp_x="0 : 0.5 : 1"
       inkscape:vp_y="0 : 1000 : 0"
       inkscape:vp_z="1 : 0.5 : 1"
       inkscape:persp3d-origin="0.5 : 0.33333333 : 1"
       id="perspective3734" />
    <inkscape:perspective
       sodipodi:type="inkscape:persp3d"
       inkscape:vp_x="0 : 0.5 : 1"
       inkscape:vp_y="0 : 1000 : 0"
       inkscape:vp_z="1 : 0.5 : 1"
       inkscape:persp3d-origin="0.5 : 0.33333333 : 1"
       id="perspective3756" />
    <inkscape:perspective
       sodipodi:type="inkscape:persp3d"
       inkscape:vp_x="0 : 0.5 : 1"
       inkscape:vp_y="0 : 1000 : 0"
       inkscape:vp_z="1 : 0.5 : 1"
       inkscape:persp3d-origin="0.5 : 0.33333333 : 1"
       id="perspective3778" />
    <inkscape:perspective
       sodipodi:type="inkscape:persp3d"
       inkscape:vp_x="0 : 0.5 : 1"
       inkscape:vp_y="0 : 1000 : 0"
       inkscape:vp_z="1 : 0.5 : 1"
       inkscape:persp3d-origin="0.5 : 0.33333333 : 1"
       id="perspective3800" />
    <inkscape:perspective
       sodipodi:type="inkscape:persp3d"
       inkscape:vp_x="0 : 0.5 : 1"
       inkscape:vp_y="0 : 1000 : 0"
       inkscape:vp_z="1 : 0.5 : 1"
       inkscape:persp3d-origin="0.5 : 0.33333333 : 1"
       id="perspective3822" />
    <inkscape:perspective
       sodipodi:type="inkscape:persp3d"
       inkscape:vp_x="0 : 0.5 : 1"
       inkscape:vp_y="0 : 1000 : 0"
       inkscape:vp_z="1 : 0.5 : 1"
       inkscape:persp3d-origin="0.5 : 0.33333333 : 1"
       id="perspective3926" />
    <inkscape:perspective
       sodipodi:type="inkscape:persp3d"
       inkscape:vp_x="0 : 0.5 : 1"
       inkscape:vp_y="0 : 1000 : 0"
       inkscape:vp_z="1 : 0.5 : 1"
       inkscape:persp3d-origin="0.5 : 0.33333333 : 1"
       id="perspective4583" />
    <inkscape:perspective
       sodipodi:type="inkscape:persp3d"
       inkscape:vp_x="0 : 0.5 : 1"
       inkscape:vp_y="0 : 1000 : 0"
       inkscape:vp_z="1 : 0.5 : 1"
       inkscape:persp3d-origin="0.5 : 0.33333333 : 1"
       id="perspective4631" />
    <inkscape:perspective
       sodipodi:type="inkscape:persp3d"
       inkscape:vp_x="0 : 0.5 : 1"
       inkscape:vp_y="0 : 1000 : 0"
       inkscape:vp_z="1 : 0.5 : 1"
       inkscape:persp3d-origin="0.5 : 0.33333333 : 1"
       id="perspective4695" />
    <inkscape:perspective
       sodipodi:type="inkscape:persp3d"
       inkscape:vp_x="0 : 0.5 : 1"
       inkscape:vp_y="0 : 1000 : 0"
       inkscape:vp_z="1 : 0.5 : 1"
       inkscape:persp3d-origin="0.5 : 0.33333333 : 1"
       id="perspective4721" />
    <inkscape:perspective
       sodipodi:type="inkscape:persp3d"
       inkscape:vp_x="0 : 0.5 : 1"
       inkscape:vp_y="0 : 1000 : 0"
       inkscape:vp_z="1 : 0.5 : 1"
       inkscape:persp3d-origin="0.5 : 0.33333333 : 1"
       id="perspective4760" />
    <inkscape:perspective
       id="perspective5030"
       inkscape:persp3d-origin="0.5 : 0.33333333 : 1"
       inkscape:vp_z="1 : 0.5 : 1"
       inkscape:vp_y="0 : 1000 : 0"
       inkscape:vp_x="0 : 0.5 : 1"
       sodipodi:type="inkscape:persp3d" />
    <inkscape:perspective
       id="perspective5262"
       inkscape:persp3d-origin="0.5 : 0.33333333 : 1"
       inkscape:vp_z="1 : 0.5 : 1"
       inkscape:vp_y="0 : 1000 : 0"
       inkscape:vp_x="0 : 0.5 : 1"
       sodipodi:type="inkscape:persp3d" />
    <marker
       style="overflow:visible"
       id="Arrow1Mend-5"
       refX="0"
       refY="0"
       orient="auto"
       inkscape:stockid="Arrow1Mend">
      <path
         transform="matrix(-0.4,0,0,-0.4,-4,0)"
         style="fill-rule:evenodd;stroke:#000000;stroke-width:1pt;marker-start:none"
         d="M 0,0 5,-5 -12.5,0 5,5 0,0 z"
         id="path3952-0" />
    </marker>
    <inkscape:perspective
       id="perspective5290"
       inkscape:persp3d-origin="0.5 : 0.33333333 : 1"
       inkscape:vp_z="1 : 0.5 : 1"
       inkscape:vp_y="0 : 1000 : 0"
       inkscape:vp_x="0 : 0.5 : 1"
       sodipodi:type="inkscape:persp3d" />
    <marker
       style="overflow:visible"
       id="Arrow1Mend-8"
       refX="0"
       refY="0"
       orient="auto"
       inkscape:stockid="Arrow1Mend">
      <path
         transform="matrix(-0.4,0,0,-0.4,-4,0)"
         style="fill-rule:evenodd;stroke:#000000;stroke-width:1pt;marker-start:none"
         d="M 0,0 5,-5 -12.5,0 5,5 0,0 z"
         id="path3952-7" />
    </marker>
    <inkscape:perspective
       id="perspective5290-7"
       inkscape:persp3d-origin="0.5 : 0.33333333 : 1"
       inkscape:vp_z="1 : 0.5 : 1"
       inkscape:vp_y="0 : 1000 : 0"
       inkscape:vp_x="0 : 0.5 : 1"
       sodipodi:type="inkscape:persp3d" />
    <marker
       style="overflow:visible"
       id="Arrow1Mend-2"
       refX="0"
       refY="0"
       orient="auto"
       inkscape:stockid="Arrow1Mend">
      <path
         transform="matrix(-0.4,0,0,-0.4,-4,0)"
         style="fill-rule:evenodd;stroke:#000000;stroke-width:1pt;marker-start:none"
         d="M 0,0 5,-5 -12.5,0 5,5 0,0 z"
         id="path3952-72" />
    </marker>
    <inkscape:perspective
       id="perspective5290-6"
       inkscape:persp3d-origin="0.5 : 0.33333333 : 1"
       inkscape:vp_z="1 : 0.5 : 1"
       inkscape:vp_y="0 : 1000 : 0"
       inkscape:vp_x="0 : 0.5 : 1"
       sodipodi:type="inkscape:persp3d" />
    <marker
       style="overflow:visible"
       id="Arrow1Mend-1"
       refX="0"
       refY="0"
       orient="auto"
       inkscape:stockid="Arrow1Mend">
      <path
         transform="matrix(-0.4,0,0,-0.4,-4,0)"
         style="fill-rule:evenodd;stroke:#000000;stroke-width:1pt;marker-start:none"
         d="M 0,0 5,-5 -12.5,0 5,5 0,0 z"
         id="path3952-06" />
    </marker>
    <inkscape:perspective
       id="perspective5290-9"
       inkscape:persp3d-origin="0.5 : 0.33333333 : 1"
       inkscape:vp_z="1 : 0.5 : 1"
       inkscape:vp_y="0 : 1000 : 0"
       inkscape:vp_x="0 : 0.5 : 1"
       sodipodi:type="inkscape:persp3d" />
    <marker
       style="overflow:visible"
       id="Arrow1Mend-4"
       refX="0"
       refY="0"
       orient="auto"
       inkscape:stockid="Arrow1Mend">
      <path
         transform="matrix(-0.4,0,0,-0.4,-4,0)"
         style="fill-rule:evenodd;stroke:#000000;stroke-width:1pt;marker-start:none"
         d="M 0,0 5,-5 -12.5,0 5,5 0,0 z"
         id="path3952-9" />
    </marker>
    <inkscape:perspective
       id="perspective5366"
       inkscape:persp3d-origin="0.5 : 0.33333333 : 1"
       inkscape:vp_z="1 : 0.5 : 1"
       inkscape:vp_y="0 : 1000 : 0"
       inkscape:vp_x="0 : 0.5 : 1"
       sodipodi:type="inkscape:persp3d" />
    <marker
       style="overflow:visible"
       id="Arrow1Mend-9"
       refX="0"
       refY="0"
       orient="auto"
       inkscape:stockid="Arrow1Mend">
      <path
         transform="matrix(-0.4,0,0,-0.4,-4,0)"
         style="fill-rule:evenodd;stroke:#000000;stroke-width:1pt;marker-start:none"
         d="M 0,0 5,-5 -12.5,0 5,5 0,0 z"
         id="path3952-1" />
    </marker>
    <inkscape:perspective
       id="perspective5394"
       inkscape:persp3d-origin="0.5 : 0.33333333 : 1"
       inkscape:vp_z="1 : 0.5 : 1"
       inkscape:vp_y="0 : 1000 : 0"
       inkscape:vp_x="0 : 0.5 : 1"
       sodipodi:type="inkscape:persp3d" />
    <marker
       style="overflow:visible"
       id="Arrow1Mend-7"
       refX="0"
       refY="0"
       orient="auto"
       inkscape:stockid="Arrow1Mend">
      <path
         transform="matrix(-0.4,0,0,-0.4,-4,0)"
         style="fill-rule:evenodd;stroke:#000000;stroke-width:1pt;marker-start:none"
         d="M 0,0 5,-5 -12.5,0 5,5 0,0 z"
         id="path3952-11" />
    </marker>
    <inkscape:perspective
       id="perspective5422"
       inkscape:persp3d-origin="0.5 : 0.33333333 : 1"
       inkscape:vp_z="1 : 0.5 : 1"
       inkscape:vp_y="0 : 1000 : 0"
       inkscape:vp_x="0 : 0.5 : 1"
       sodipodi:type="inkscape:persp3d" />
    <marker
       style="overflow:visible"
       id="Arrow1Mend-97"
       refX="0"
       refY="0"
       orient="auto"
       inkscape:stockid="Arrow1Mend">
      <path
         transform="matrix(-0.4,0,0,-0.4,-4,0)"
         style="fill-rule:evenodd;stroke:#000000;stroke-width:1pt;marker-start:none"
         d="M 0,0 5,-5 -12.5,0 5,5 0,0 z"
         id="path3952-76" />
    </marker>
    <inkscape:perspective
       id="perspective5450"
       inkscape:persp3d-origin="0.5 : 0.33333333 : 1"
       inkscape:vp_z="1 : 0.5 : 1"
       inkscape:vp_y="0 : 1000 : 0"
       inkscape:vp_x="0 : 0.5 : 1"
       sodipodi:type="inkscape:persp3d" />
    <marker
       style="overflow:visible"
       id="Arrow1Mend-3"
       refX="0"
       refY="0"
       orient="auto"
       inkscape:stockid="Arrow1Mend">
      <path
         transform="matrix(-0.4,0,0,-0.4,-4,0)"
         style="fill-rule:evenodd;stroke:#000000;stroke-width:1pt;marker-start:none"
         d="M 0,0 5,-5 -12.5,0 5,5 0,0 z"
         id="path3952-6" />
    </marker>
    <inkscape:perspective
       id="perspective5478"
       inkscape:persp3d-origin="0.5 : 0.33333333 : 1"
       inkscape:vp_z="1 : 0.5 : 1"
       inkscape:vp_y="0 : 1000 : 0"
       inkscape:vp_x="0 : 0.5 : 1"
       sodipodi:type="inkscape:persp3d" />
    <marker
       style="overflow:visible"
       id="Arrow1Mend-6"
       refX="0"
       refY="0"
       orient="auto"
       inkscape:stockid="Arrow1Mend">
      <path
         transform="matrix(-0.4,0,0,-0.4,-4,0)"
         style="fill-rule:evenodd;stroke:#000000;stroke-width:1pt;marker-start:none"
         d="M 0,0 5,-5 -12.5,0 5,5 0,0 z"
         id="path3952-3" />
    </marker>
    <inkscape:perspective
       id="perspective5506"
       inkscape:persp3d-origin="0.5 : 0.33333333 : 1"
       inkscape:vp_z="1 : 0.5 : 1"
       inkscape:vp_y="0 : 1000 : 0"
       inkscape:vp_x="0 : 0.5 : 1"
       sodipodi:type="inkscape:persp3d" />
    <marker
       style="overflow:visible"
       id="Arrow1Mend-48"
       refX="0"
       refY="0"
       orient="auto"
       inkscape:stockid="Arrow1Mend">
      <path
         transform="matrix(-0.4,0,0,-0.4,-4,0)"
         style="fill-rule:evenodd;stroke:#000000;stroke-width:1pt;marker-start:none"
         d="M 0,0 5,-5 -12.5,0 5,5 0,0 z"
         id="path3952-12" />
    </marker>
    <inkscape:perspective
       id="perspective5534"
       inkscape:persp3d-origin="0.5 : 0.33333333 : 1"
       inkscape:vp_z="1 : 0.5 : 1"
       inkscape:vp_y="0 : 1000 : 0"
       inkscape:vp_x="0 : 0.5 : 1"
       sodipodi:type="inkscape:persp3d" />
    <marker
       style="overflow:visible"
       id="Arrow1Mend-39"
       refX="0"
       refY="0"
       orient="auto"
       inkscape:stockid="Arrow1Mend">
      <path
         transform="matrix(-0.4,0,0,-0.4,-4,0)"
         style="fill-rule:evenodd;stroke:#000000;stroke-width:1pt;marker-start:none"
         d="M 0,0 5,-5 -12.5,0 5,5 0,0 z"
         id="path3952-08" />
    </marker>
    <inkscape:perspective
       id="perspective5562"
       inkscape:persp3d-origin="0.5 : 0.33333333 : 1"
       inkscape:vp_z="1 : 0.5 : 1"
       inkscape:vp_y="0 : 1000 : 0"
       inkscape:vp_x="0 : 0.5 : 1"
       sodipodi:type="inkscape:persp3d" />
    <marker
       style="overflow:visible"
       id="Arrow1Mend-50"
       refX="0"
       refY="0"
       orient="auto"
       inkscape:stockid="Arrow1Mend">
      <path
         transform="matrix(-0.4,0,0,-0.4,-4,0)"
         style="fill-rule:evenodd;stroke:#000000;stroke-width:1pt;marker-start:none"
         d="M 0,0 5,-5 -12.5,0 5,5 0,0 z"
         id="path3952-96" />
    </marker>
    <inkscape:perspective
       id="perspective5633"
       inkscape:persp3d-origin="0.5 : 0.33333333 : 1"
       inkscape:vp_z="1 : 0.5 : 1"
       inkscape:vp_y="0 : 1000 : 0"
       inkscape:vp_x="0 : 0.5 : 1"
       sodipodi:type="inkscape:persp3d" />
    <inkscape:perspective
       id="perspective5655"
       inkscape:persp3d-origin="0.5 : 0.33333333 : 1"
       inkscape:vp_z="1 : 0.5 : 1"
       inkscape:vp_y="0 : 1000 : 0"
       inkscape:vp_x="0 : 0.5 : 1"
       sodipodi:type="inkscape:persp3d" />
    <inkscape:perspective
       id="perspective5899"
       inkscape:persp3d-origin="0.5 : 0.33333333 : 1"
       inkscape:vp_z="1 : 0.5 : 1"
       inkscape:vp_y="0 : 1000 : 0"
       inkscape:vp_x="0 : 0.5 : 1"
       sodipodi:type="inkscape:persp3d" />
    <inkscape:perspective
       id="perspective6350"
       inkscape:persp3d-origin="0.5 : 0.33333333 : 1"
       inkscape:vp_z="1 : 0.5 : 1"
       inkscape:vp_y="0 : 1000 : 0"
       inkscape:vp_x="0 : 0.5 : 1"
       sodipodi:type="inkscape:persp3d" />
    <marker
       style="overflow:visible"
       id="Arrow1Mend-15"
       refX="0"
       refY="0"
       orient="auto"
       inkscape:stockid="Arrow1Mend">
      <path
         transform="matrix(-0.4,0,0,-0.4,-4,0)"
         style="fill-rule:evenodd;stroke:#000000;stroke-width:1pt;marker-start:none"
         d="M 0,0 5,-5 -12.5,0 5,5 0,0 z"
         id="path3952-98" />
    </marker>
    <inkscape:perspective
       id="perspective6378"
       inkscape:persp3d-origin="0.5 : 0.33333333 : 1"
       inkscape:vp_z="1 : 0.5 : 1"
       inkscape:vp_y="0 : 1000 : 0"
       inkscape:vp_x="0 : 0.5 : 1"
       sodipodi:type="inkscape:persp3d" />
    <inkscape:perspective
       id="perspective6596"
       inkscape:persp3d-origin="0.5 : 0.33333333 : 1"
       inkscape:vp_z="1 : 0.5 : 1"
       inkscape:vp_y="0 : 1000 : 0"
       inkscape:vp_x="0 : 0.5 : 1"
       sodipodi:type="inkscape:persp3d" />
    <marker
       style="overflow:visible"
       id="Arrow1Mend-30"
       refX="0"
       refY="0"
       orient="auto"
       inkscape:stockid="Arrow1Mend">
      <path
         transform="matrix(-0.4,0,0,-0.4,-4,0)"
         style="fill-rule:evenodd;stroke:#000000;stroke-width:1pt;marker-start:none"
         d="M 0,0 5,-5 -12.5,0 5,5 0,0 z"
         id="path3952-4" />
    </marker>
    <marker
       style="overflow:visible"
       id="marker6602"
       refX="0"
       refY="0"
       orient="auto"
       inkscape:stockid="Arrow1Mend">
      <path
         transform="matrix(-0.4,0,0,-0.4,-4,0)"
         style="fill-rule:evenodd;stroke:#000000;stroke-width:1pt;marker-start:none"
         d="M 0,0 5,-5 -12.5,0 5,5 0,0 z"
         id="path6604" />
    </marker>
  </defs>
  <metadata
     id="metadata7">
    <rdf:RDF>
      <cc:Work
         rdf:about="">
        <dc:format>image/svg+xml</dc:format>
        <dc:type
           rdf:resource="http://purl.org/dc/dcmitype/StillImage" />
        <dc:title></dc:title>
      </cc:Work>
    </rdf:RDF>
  </metadata>
  <g
     id="layer1"
     inkscape:groupmode="layer"
     inkscape:label="Calque 1">
    <g
       id="g6405"
       transform="translate(11.428571,202.85714)">
      <g
         id="g3899"
         transform="translate(0,4.1007996e-5)">
        <text
           sodipodi:linespacing="125%"
           id="text2816"
           y="172.32076"
           x="284.5311"
           style="font-size:10px;font-style:normal;font-variant:normal;font-weight:normal;font-stretch:normal;text-align:center;line-height:125%;writing-mode:lr-tb;text-anchor:middle;fill:#000000;fill-opacity:1;stroke:none;font-family:FreeSans;-inkscape-font-specification:FreeSans"
           xml:space="preserve"><tspan
             y="172.32076"
             x="284.5311"
             id="tspan2818"
             sodipodi:role="line">initialize</tspan></text>
        <rect
           y="160.57646"
           x="261.78577"
           height="16.428572"
           width="45.714287"
           id="rect2908"
           style="fill:none;stroke:#000000;stroke-width:1;stroke-linecap:round;stroke-miterlimit:4;stroke-opacity:1;stroke-dasharray:none" />
      </g>
      <g
         id="g3894"
         transform="translate(0,0.63287735)">
        <text
           sodipodi:linespacing="125%"
           id="text2820"
           y="200.84822"
           x="284.7579"
           style="font-size:10px;font-style:normal;font-variant:normal;font-weight:normal;font-stretch:normal;text-align:center;line-height:125%;writing-mode:lr-tb;text-anchor:middle;fill:#000000;fill-opacity:1;stroke:none;font-family:FreeSans;-inkscape-font-specification:FreeSans"
           xml:space="preserve"><tspan
             y="200.84822"
             x="284.7579"
             id="tspan2822"
             sodipodi:role="line">fix parameters</tspan></text>
        <rect
           y="190.66782"
           x="249.25766"
           height="15.220799"
           width="70.770477"
           id="rect2908-3"
           style="fill:none;stroke:#000000;stroke-width:1;stroke-linecap:round;stroke-miterlimit:4;stroke-opacity:1;stroke-dasharray:none" />
      </g>
      <g
         id="g3888"
         transform="translate(0,-1.2211866)">
        <text
           sodipodi:linespacing="125%"
           id="text2824"
           y="232.49931"
           x="284.52356"
           style="font-size:10px;font-style:normal;font-variant:normal;font-weight:normal;font-stretch:normal;text-align:center;line-height:125%;writing-mode:lr-tb;text-anchor:middle;fill:#000000;fill-opacity:1;stroke:none;font-family:FreeSans;-inkscape-font-specification:FreeSans"
           xml:space="preserve"><tspan
             y="232.49931"
             x="284.52356"
             id="tspan2826"
             sodipodi:role="line">attachment/</tspan><tspan
             id="tspan2828"
             y="244.99931"
             x="284.52356"
             sodipodi:role="line">detachment</tspan></text>
        <rect
           y="222.0383"
           x="255.11562"
           height="26.362034"
           width="59.054565"
           id="rect2908-3-7"
           style="fill:none;stroke:#000000;stroke-width:1;stroke-linecap:round;stroke-miterlimit:4;stroke-opacity:1;stroke-dasharray:none" />
      </g>
      <g
         id="g3882"
         transform="translate(0,-1.2778177)">
        <text
           sodipodi:linespacing="125%"
           id="text2830"
           y="273.57074"
           x="284.48962"
           style="font-size:10px;font-style:normal;font-variant:normal;font-weight:normal;font-stretch:normal;text-align:center;line-height:125%;writing-mode:lr-tb;text-anchor:middle;fill:#000000;fill-opacity:1;stroke:none;font-family:FreeSans;-inkscape-font-specification:FreeSans"
           xml:space="preserve"><tspan
             y="273.57074"
             x="284.48962"
             id="tspan2832"
             sodipodi:role="line">position dependant</tspan><tspan
             id="tspan2834"
             y="286.07074"
             x="284.48962"
             sodipodi:role="line">forces</tspan></text>
        <rect
           y="262.75259"
           x="236.90132"
           height="27.076319"
           width="95.483139"
           id="rect2908-3-7-2"
           style="fill:none;stroke:#000000;stroke-width:1;stroke-linecap:round;stroke-miterlimit:4;stroke-opacity:1;stroke-dasharray:none" />
      </g>
      <g
         id="g3872"
         transform="translate(0,-0.97725391)">
        <g
           style="text-align:center;text-anchor:middle"
           transform="translate(-18.225969,10.521591)"
           id="g2878">
          <text
             xml:space="preserve"
             style="font-size:10px;font-style:normal;font-variant:normal;font-weight:normal;font-stretch:normal;text-align:center;line-height:125%;writing-mode:lr-tb;text-anchor:middle;fill:#000000;fill-opacity:1;stroke:none;font-family:FreeSans;-inkscape-font-specification:FreeSans"
             x="302.85715"
             y="307.71933"
             id="text2836"
             sodipodi:linespacing="125%"><tspan
               sodipodi:role="line"
               id="tspan2838"
               x="302.85715"
               y="307.71933">Solve A<tspan
   style="font-weight:bold;text-align:center;text-anchor:middle;-inkscape-font-specification:Bitstream Vera Sans Bold"
   id="tspan2842">X</tspan> = B<tspan
   style="font-weight:bold;text-align:center;text-anchor:middle;-inkscape-font-specification:Bitstream Vera Sans Bold"
   id="tspan2840">X</tspan>+C</tspan></text>
          <text
             xml:space="preserve"
             style="font-size:10px;font-style:normal;font-variant:normal;font-weight:normal;font-stretch:normal;text-align:center;line-height:125%;writing-mode:lr-tb;text-anchor:middle;fill:#000000;fill-opacity:1;stroke:none;font-family:FreeSans;-inkscape-font-specification:FreeSans"
             x="301.0625"
             y="298.91467"
             id="text2874"
             sodipodi:linespacing="125%"><tspan
               sodipodi:role="line"
               id="tspan2876"
               x="301.0625"
               y="298.91467">.</tspan></text>
        </g>
        <rect
           y="303.82401"
           x="242.97276"
           height="19.219175"
           width="83.340279"
           id="rect2908-3-7-2-5"
           style="fill:none;stroke:#000000;stroke-width:1;stroke-linecap:round;stroke-miterlimit:4;stroke-opacity:1;stroke-dasharray:none" />
      </g>
      <g
         id="g3867"
         transform="translate(0,0.75188178)">
        <text
           sodipodi:linespacing="125%"
           id="text2886"
           y="347.00372"
           x="284.52289"
           style="font-size:10px;font-style:normal;font-variant:normal;font-weight:normal;font-stretch:normal;text-align:center;line-height:125%;writing-mode:lr-tb;text-anchor:middle;fill:#000000;fill-opacity:1;stroke:none;font-family:FreeSans;-inkscape-font-specification:FreeSans"
           xml:space="preserve"><tspan
             y="347.00372"
             x="284.52289"
             id="tspan2888"
             sodipodi:role="line">update positions</tspan></text>
        <rect
           y="335.57159"
           x="246.14893"
           height="17.754255"
           width="76.98793"
           id="rect2908-3-7-2-5-4"
           style="fill:none;stroke:#000000;stroke-width:0.92377818;stroke-linecap:round;stroke-miterlimit:4;stroke-opacity:1;stroke-dasharray:none" />
      </g>
      <g
         id="g3854"
         transform="translate(0.99998,20.205296)">
        <text
           sodipodi:linespacing="125%"
           id="text2904"
           y="408.4523"
           x="284.79611"
           style="font-size:10px;font-style:normal;font-variant:normal;font-weight:normal;font-stretch:normal;text-align:center;line-height:125%;writing-mode:lr-tb;text-anchor:middle;fill:#000000;fill-opacity:1;stroke:none;font-family:FreeSans;-inkscape-font-specification:FreeSans"
           xml:space="preserve"><tspan
             y="408.4523"
             x="284.79611"
             id="tspan2906"
             sodipodi:role="line">Ablation?</tspan></text>
        <path
           style="fill:none;stroke:#000000;stroke-width:0.92377818;stroke-linecap:round;stroke-miterlimit:4;stroke-opacity:1"
           d="m 253.24792,405.01147 30.39499,-13.54415 30.39499,13.54415 -30.39499,15.24583 -30.39499,-15.24583 z"
           id="rect2908-3-7-2-5-4-7-4"
           sodipodi:nodetypes="ccccc" />
      </g>
      <g
         transform="translate(196.7767,-31.428571)"
         id="g6395">
        <text
           sodipodi:linespacing="125%"
           id="text3904"
           y="192.79413"
           x="194.32181"
           style="font-size:10px;font-style:normal;font-variant:normal;font-weight:normal;font-stretch:normal;text-align:center;line-height:125%;writing-mode:lr-tb;text-anchor:middle;fill:#000000;fill-opacity:1;stroke:none;font-family:FreeSans;-inkscape-font-specification:FreeSans"
           xml:space="preserve"><tspan
             id="tspan3908"
             y="192.79413"
             x="194.32181"
             sodipodi:role="line">parameters</tspan></text>
        <text
           sodipodi:linespacing="125%"
           id="text3912"
           y="214.45628"
           x="190.93915"
           style="font-size:10px;font-style:normal;font-variant:normal;font-weight:normal;font-stretch:normal;text-align:center;line-height:125%;writing-mode:lr-tb;text-anchor:middle;fill:#000000;fill-opacity:1;stroke:none;font-family:FreeSans;-inkscape-font-specification:FreeSans"
           xml:space="preserve"><tspan
             y="214.45628"
             x="190.93915"
             id="tspan3914"
             sodipodi:role="line">measures</tspan></text>
        <path
           style="fill:none;stroke:#000000;stroke-width:1px;stroke-linecap:butt;stroke-linejoin:miter;stroke-opacity:1"
           d="m 168.25,211.20146 -9.64285,0 0,-10.71429"
           id="path6645" />
        <path
           style="fill:none;stroke:#000000;stroke-width:1px;stroke-linecap:butt;stroke-linejoin:miter;stroke-opacity:1;marker-end:url(#marker6602)"
           d="m 168.25,189.7729 -9.64285,0 0,10.71429 -13.84524,0 0,30.08158 -19.26445,0"
           id="path3916-3" />
      </g>
      <g
         transform="translate(0.79003,-11.057851)"
         id="g5349">
        <g
           transform="translate(-0.79003669,19.337127)"
           id="g3859">
          <g
             id="g2898"
             transform="translate(-3.3887598,3.6602612)"
             style="text-align:center;text-anchor:middle" />
        </g>
        <path
           sodipodi:nodetypes="ccccc"
           id="rect2908-3-7-2-5-4-7-4-8"
           d="m 253.45787,393.34847 30.39499,-13.54415 30.39499,13.54415 -30.39499,15.24583 -30.39499,-15.24583 z"
           style="fill:none;stroke:#000000;stroke-width:0.92377818;stroke-linecap:round;stroke-miterlimit:4;stroke-opacity:1" />
      </g>
      <g
         id="g4780"
         transform="translate(13.239391,17.226419)">
        <path
           sodipodi:nodetypes="ccccc"
           id="rect2908-3-7-2-5-4-7-4-8-6"
           d="m 351.74966,365.0642 30.39499,-13.54415 30.39499,13.54415 -30.39499,15.24583 -30.39499,-15.24583 z"
           style="fill:none;stroke:#000000;stroke-width:0.92377818;stroke-linecap:round;stroke-miterlimit:4;stroke-opacity:1" />
        <text
           sodipodi:linespacing="125%"
           id="text4709"
           y="369.50504"
           x="382.14285"
           style="font-size:10px;font-style:normal;font-variant:normal;font-weight:normal;font-stretch:normal;text-align:center;line-height:125%;writing-mode:lr-tb;text-anchor:middle;fill:#000000;fill-opacity:1;stroke:none;font-family:FreeSans;-inkscape-font-specification:FreeSans"
           xml:space="preserve"><tspan
             y="369.50504"
             x="382.14285"
             id="tspan4711"
             sodipodi:role="line">SAC ?</tspan></text>
      </g>
      <g
         id="g4741"
         transform="translate(13.745451,-32.948534)">
        <path
           sodipodi:nodetypes="ccccc"
           id="rect2908-3-7-2-5-4-7-4-8-6-8"
           d="m 351.2436,307.11063 30.39499,-13.54415 30.39499,13.54415 -30.39499,15.24583 -30.39499,-15.24583 z"
           style="fill:none;stroke:#000000;stroke-width:0.92377818;stroke-linecap:round;stroke-miterlimit:4;stroke-opacity:1" />
        <text
           sodipodi:linespacing="125%"
           id="text4709-8"
           y="311.66647"
           x="381.42679"
           style="font-size:10px;font-style:normal;font-variant:normal;font-weight:normal;font-stretch:normal;text-align:center;line-height:125%;writing-mode:lr-tb;text-anchor:middle;fill:#000000;fill-opacity:1;stroke:none;font-family:FreeSans;-inkscape-font-specification:FreeSans"
           xml:space="preserve"><tspan
             y="311.66647"
             x="381.42679"
             id="tspan4711-4"
             sodipodi:role="line">END ?</tspan></text>
      </g>
      <g
         id="g4774"
         transform="translate(24.658066,-9.0913724)">
        <text
           sodipodi:linespacing="125%"
           id="text4746"
           y="432.45398"
           x="370.86417"
           style="font-size:10px;font-style:normal;font-variant:normal;font-weight:normal;font-stretch:normal;text-align:center;line-height:125%;writing-mode:lr-tb;text-anchor:middle;fill:#000000;fill-opacity:1;stroke:none;font-family:FreeSans;-inkscape-font-specification:FreeSans"
           xml:space="preserve"><tspan
             y="432.45398"
             x="370.86417"
             id="tspan4748"
             sodipodi:role="line">perform</tspan><tspan
             id="tspan4750"
             y="444.95398"
             x="370.86417"
             sodipodi:role="line">ablation</tspan></text>
        <rect
           style="fill:none;stroke:#000000;stroke-width:1;stroke-linecap:round;stroke-miterlimit:4;stroke-opacity:1;stroke-dasharray:none"
           id="rect2908-3-7-2-3"
           width="51.036423"
           height="27.076319"
           x="345.20776"
           y="421.62082" />
      </g>
      <g
         transform="translate(21.050762,54.10262)"
         id="g5055">
        <g
           id="g4885"
           transform="matrix(0.23146768,0,0,0.23146768,112.09498,180.25352)">
          <g
             word-spacing="normal"
             letter-spacing="normal"
             font-size-adjust="none"
             font-stretch="normal"
             font-weight="normal"
             font-variant="normal"
             font-style="normal"
             fill-rule="even-odd"
             stroke-miterlimit="10.433"
             xml:space="preserve"
             transform="matrix(1.0629921,0,0,-1.0629921,-186.02362,789.27165)"
             id="content"
             style="font-style:normal;font-variant:normal;font-weight:normal;font-stretch:normal;letter-spacing:normal;word-spacing:normal;text-anchor:start;fill:none;stroke:#000000;stroke-linecap:butt;stroke-linejoin:miter;stroke-miterlimit:10.43299961;stroke-opacity:1;stroke-dasharray:none;stroke-dashoffset:0"><path
               id="path4888"
               d="m 1174.9,347.94 0,-0.03 0,-0.03 0,-0.03 0,-0.03 0,-0.06 0,-0.05 0,-0.05 -0.1,-0.05 0,-0.05 0,-0.04 0,-0.04 0,-0.04 0,-0.04 0,-0.03 0,-0.04 0,-0.03 0,-0.03 0,-0.03 0,-0.03 0,-0.03 0,-0.02 0,-0.03 -0.1,-0.05 0,-0.06 0,-0.05 0,-0.05 0,-0.03 0,-0.03 0,-0.03 0,-0.03 c 0,-0.9 0.7,-1.35 1.5,-1.35 1.5,0 1.8,1.2 2.2,2.79 0.5,1.8 0.2,0.85 2.3,9.22 4.2,-0.15 8.5,-1 8.5,-4.24 0,-0.34 0,-0.6 -0.1,-1.09 -0.2,-0.8 -0.2,-1.35 -0.2,-1.75 0,-2.93 2,-4.93 4.6,-4.93 1.6,0 2.9,0.9 3.9,2.59 1.2,2.09 1.8,4.98 1.8,5.08 0,0.5 -0.4,0.5 -0.6,0.5 -0.5,0 -0.5,-0.2 -0.7,-0.89 -0.9,-3.44 -2.1,-6.18 -4.3,-6.18 -1.1,0 -1.6,0.65 -1.6,2.39 0,0.75 0.2,1.94 0.4,2.79 0.1,0.45 0.2,1.09 0.2,1.64 0,4.68 -6.8,5.03 -9.6,5.13 1.6,0.9 3.2,2.25 4.5,3.39 2.3,1.94 3.8,3.14 5.8,3.99 -0.1,-0.26 -0.3,-0.85 -0.3,-1.1 0,-0.6 0.4,-1.74 1.9,-1.74 1.6,0 2.7,1.44 2.7,2.69 0,0.45 -0.2,1.74 -2,1.74 -3,0 -6,-2.49 -8.2,-4.33 -3.3,-2.89 -4.5,-3.64 -6.3,-4.24 0.1,0.55 0.7,3.04 1,3.89 0.3,1.29 0.9,3.63 0.9,3.88 0,0.85 -0.6,1.35 -1.5,1.35 -0.1,0 -1.5,0 -2,-1.8 z"
               style="fill:#000000;stroke-width:0" /><path
               id="path4890"
               d="m 1211.3,360.79 0,0.06 0,0.05 0,0.05 0,0.06 0,0.06 0,0.05 -0.1,0.06 0,0.06 0,0.05 0,0.06 -0.1,0.05 0,0.06 0,0.05 -0.1,0.05 0,0.05 0,0.05 -0.1,0.05 0,0.05 -0.1,0.04 0,0.05 -0.1,0.04 0,0.03 -0.1,0.04 -0.1,0.03 0,0.03 -0.1,0.02 -0.1,0.02 -0.1,0.02 0,0.02 -0.1,0.01 -0.1,0 -0.1,0.01 c -0.9,0 -2,-0.91 -2,-1.92 0,-0.59 0.5,-1.32 1.4,-1.32 1.1,0 2,0.97 2,1.91 z"
               style="fill:#000000;stroke-width:0" /><path
               id="path4892"
               d="m 1204.2,343.08 -0.1,-0.17 0,-0.17 -0.1,-0.08 0,-0.09 0,-0.08 0,-0.09 0,-0.09 -0.1,-0.09 0,-0.1 0,-0.09 0,-0.1 0,-0.05 0,-0.05 0,-0.05 0,-0.06 0,-0.05 0,-0.06 c 0,-1.63 1.4,-2.96 3.3,-2.96 3.5,0 5,4.81 5,5.33 0,0.46 -0.4,0.46 -0.6,0.46 -0.4,0 -0.5,-0.21 -0.6,-0.59 -0.8,-2.79 -2.3,-4.22 -3.7,-4.22 -0.7,0 -0.9,0.45 -0.9,1.22 0,0.8 0.3,1.46 0.6,2.23 0.3,0.94 0.7,1.88 1.1,2.79 0.3,0.84 1.6,4.01 1.7,4.43 0.1,0.34 0.2,0.77 0.2,1.11 0,1.64 -1.4,2.97 -3.3,2.97 -3.5,0 -5.1,-4.74 -5.1,-5.34 0,-0.45 0.5,-0.45 0.6,-0.45 0.5,0 0.6,0.17 0.7,0.56 0.9,2.99 2.4,4.25 3.7,4.25 0.6,0 0.9,-0.28 0.9,-1.22 0,-0.8 -0.3,-1.32 -1.1,-3.48 z"
               style="fill:#000000;stroke-width:0" /><path
               id="path4894"
               d="m 1265.2,362.29 0.2,0 0.1,0 0.2,0.01 0,0 0.1,0 0.1,0.01 0,0.01 0.1,0.01 0.1,0.01 0.1,0.02 0,0.01 0.1,0.02 0,0.02 0.1,0.03 0.1,0.03 0,0.03 0.1,0.03 0,0.04 0.1,0.04 0,0.05 0.1,0.05 0,0.03 0,0.02 0,0.03 0,0.03 0,0.03 0,0.04 0.1,0.03 0,0.04 0,0.03 0,0.04 0,0.04 0,0.04 0,0.04 0,0.04 0,0.05 0,0.05 c 0,0.99 -0.9,0.99 -1.6,0.99 h -29.9 c -0.7,0 -1.6,0 -1.6,-0.99 0,-1 0.9,-1 1.7,-1 z"
               style="fill:#000000;stroke-width:0" /><path
               id="path4896"
               d="m 1265.3,352.62 0.1,0.01 0.1,0 0.2,0 0.1,0.01 0,0 0.1,0.01 0.1,0.01 0,0.01 0.1,0.01 0.1,0.01 0,0.02 0.1,0.02 0.1,0.02 0,0.02 0.1,0.03 0,0.03 0.1,0.04 0,0.04 0.1,0.04 0,0.04 0,0.03 0.1,0.03 0,0.02 0,0.03 0,0.03 0,0.03 0,0.03 0,0.03 0.1,0.04 0,0.03 0,0.04 0,0.04 0,0.04 0,0.04 0,0.04 0,0.04 0,0.05 0,0.04 c 0,1 -0.9,1 -1.7,1 h -29.7 c -0.8,0 -1.7,0 -1.7,-1 0,-1 0.9,-1 1.6,-1 z"
               style="fill:#000000;stroke-width:0" /><path
               id="path4898"
               d="m 1306.9,361.94 0,0.75 0,0.74 0,0.75 -0.1,0.74 0,0.75 -0.1,0.74 0,0.74 -0.1,0.73 -0.1,0.73 -0.2,0.73 -0.1,0.72 -0.2,0.72 -0.3,0.71 -0.2,0.71 -0.3,0.7 -0.1,0.35 -0.2,0.35 c -2.3,4.78 -6.3,5.58 -8.5,5.58 -2.9,0 -6.6,-1.3 -8.6,-5.93 -1.6,-3.44 -1.9,-7.32 -1.9,-11.31 0,-3.74 0.2,-8.22 2.3,-12.01 2.1,-4.03 5.8,-5.03 8.2,-5.03 v 1.1 c -1.9,0 -4.9,1.25 -5.8,6.03 -0.5,2.99 -0.5,7.57 -0.5,10.51 0,3.19 0,6.47 0.4,9.16 0.9,5.93 4.7,6.38 5.9,6.38 1.7,0 4.9,-0.9 5.9,-5.83 0.5,-2.79 0.5,-6.57 0.5,-9.71 0,-3.74 0,-7.13 -0.6,-10.31 -0.7,-4.73 -3.6,-6.23 -5.8,-6.23 h 0 v -1.1 c 2.7,0 6.5,1.05 8.7,5.78 1.6,3.44 1.8,7.32 1.8,11.26 z"
               style="fill:#000000;stroke-width:0" /></g>        </g>
        <rect
           style="fill:none;stroke:#000000;stroke-width:1;stroke-linecap:round;stroke-miterlimit:4;stroke-opacity:1;stroke-dasharray:none"
           id="rect2908-3-7-2-6"
           width="45.985649"
           height="16.974789"
           x="351.34045"
           y="266.14658" />
      </g>
      <path
         sodipodi:nodetypes="cc"
         id="path5068"
         d="m 284.6429,177.05069 0,12.5"
         style="fill:none;stroke:#000000;stroke-width:1px;stroke-linecap:butt;stroke-linejoin:miter;stroke-opacity:1;marker-end:url(#Arrow1Mend)" />
      <path
         sodipodi:nodetypes="cc"
         id="path5068-4"
         d="m 284.6429,206.56711 0,12.5"
         style="fill:none;stroke:#000000;stroke-width:1px;stroke-linecap:butt;stroke-linejoin:miter;stroke-opacity:1;marker-end:url(#Arrow1Mend)" />
      <path
         sodipodi:nodetypes="cc"
         id="path5068-4-1"
         d="m 284.64289,247.22478 0,12.5"
         style="fill:none;stroke:#000000;stroke-width:1px;stroke-linecap:butt;stroke-linejoin:miter;stroke-opacity:1;marker-end:url(#Arrow1Mend)" />
      <path
         sodipodi:nodetypes="cc"
         id="path5068-4-2"
         d="m 284.6429,288.59675 0,12.5"
         style="fill:none;stroke:#000000;stroke-width:1px;stroke-linecap:butt;stroke-linejoin:miter;stroke-opacity:1;marker-end:url(#Arrow1Mend)" />
      <path
         sodipodi:nodetypes="cc"
         id="path5068-4-15"
         d="m 284.64289,322.11159 0,12.5"
         style="fill:none;stroke:#000000;stroke-width:1px;stroke-linecap:butt;stroke-linejoin:miter;stroke-opacity:1;marker-end:url(#Arrow1Mend)" />
      <path
         sodipodi:nodetypes="cc"
         id="path5068-4-0-7"
         d="m 284.64289,397.74078 0,12.5"
         style="fill:none;stroke:#000000;stroke-width:1px;stroke-linecap:butt;stroke-linejoin:miter;stroke-opacity:1;marker-end:url(#Arrow1Mend)" />
      <path
         sodipodi:nodetypes="cc"
         id="path5068-4-0-7-5"
         d="m 314.66048,425.24692 53.25001,0"
         style="fill:none;stroke:#000000;stroke-width:1px;stroke-linecap:butt;stroke-linejoin:miter;stroke-opacity:1;marker-end:url(#Arrow1Mend)" />
      <path
         sodipodi:nodetypes="cc"
         id="path5068-4-0-7-5-7"
         d="m 314.73708,382.25757 47.69644,0"
         style="fill:none;stroke:#000000;stroke-width:1px;stroke-linecap:butt;stroke-linejoin:miter;stroke-opacity:1;marker-end:url(#Arrow1Mend)" />
      <path
         sodipodi:nodetypes="ccc"
         id="path5068-4-0-7-9"
         d="m 395.38756,397.78912 0,3.5406 -109.73454,0"
         style="fill:none;stroke:#000000;stroke-width:1px;stroke-linecap:butt;stroke-linejoin:miter;stroke-opacity:1;marker-end:url(#Arrow1Mend)" />
      <path
         sodipodi:nodetypes="cc"
         id="path5068-4-0-7-9-9"
         d="m 395.37842,368.8523 0,-29.95438"
         style="fill:none;stroke:#000000;stroke-width:1px;stroke-linecap:butt;stroke-linejoin:miter;stroke-opacity:1;marker-end:url(#Arrow1Mend)" />
      <path
         sodipodi:nodetypes="cc"
         id="path5068-4-2-8"
         d="m 395.44661,319.96222 0,-28.35522"
         style="fill:none;stroke:#000000;stroke-width:1px;stroke-linecap:butt;stroke-linejoin:miter;stroke-opacity:1;marker-end:url(#Arrow1Mend)" />
      <text
         sodipodi:linespacing="125%"
         id="text5597"
         y="378.08536"
         x="321.20819"
         style="font-size:10px;font-style:normal;font-variant:normal;font-weight:normal;font-stretch:normal;text-align:center;line-height:125%;writing-mode:lr-tb;text-anchor:middle;fill:#000000;fill-opacity:1;stroke:none;font-family:FreeSans;-inkscape-font-specification:FreeSans"
         xml:space="preserve"><tspan
           y="378.08536"
           x="321.20819"
           id="tspan5599"
           sodipodi:role="line">Y</tspan></text>
      <text
         sodipodi:linespacing="125%"
         id="text5601"
         y="404.34933"
         x="275.77164"
         style="font-size:10px;font-style:normal;font-variant:normal;font-weight:normal;font-stretch:normal;text-align:center;line-height:125%;writing-mode:lr-tb;text-anchor:middle;fill:#000000;fill-opacity:1;stroke:none;font-family:FreeSans;-inkscape-font-specification:FreeSans"
         xml:space="preserve"><tspan
           y="404.34933"
           x="275.77164"
           id="tspan5603"
           sodipodi:role="line">N</tspan></text>
      <text
         sodipodi:linespacing="125%"
         id="text5605"
         y="398.36963"
         x="367.01743"
         style="font-size:10px;font-style:normal;font-variant:normal;font-weight:normal;font-stretch:normal;text-align:center;line-height:125%;writing-mode:lr-tb;text-anchor:middle;fill:#000000;fill-opacity:1;stroke:none;font-family:FreeSans;-inkscape-font-specification:FreeSans"
         xml:space="preserve"><tspan
           y="398.36963"
           x="367.01743"
           id="tspan5607"
           sodipodi:role="line">Y</tspan></text>
      <text
         sodipodi:linespacing="125%"
         id="text5609"
         y="365.96353"
         x="403.05087"
         style="font-size:10px;font-style:normal;font-variant:normal;font-weight:normal;font-stretch:normal;text-align:center;line-height:125%;writing-mode:lr-tb;text-anchor:middle;fill:#000000;fill-opacity:1;stroke:none;font-family:FreeSans;-inkscape-font-specification:FreeSans"
         xml:space="preserve"><tspan
           y="365.96353"
           x="403.05087"
           id="tspan5611"
           sodipodi:role="line">N</tspan></text>
      <text
         sodipodi:linespacing="125%"
         id="text5613"
         y="270.80612"
         x="364.16"
         style="font-size:10px;font-style:normal;font-variant:normal;font-weight:normal;font-stretch:normal;text-align:center;line-height:125%;writing-mode:lr-tb;text-anchor:middle;fill:#000000;fill-opacity:1;stroke:none;font-family:FreeSans;-inkscape-font-specification:FreeSans"
         xml:space="preserve"><tspan
           y="270.80612"
           x="364.16"
           id="tspan5615"
           sodipodi:role="line">N</tspan></text>
      <g
         transform="translate(-87.832022,-134.51782)"
         id="g5674">
        <text
           xml:space="preserve"
           style="font-size:10px;font-style:normal;font-variant:normal;font-weight:normal;font-stretch:normal;text-align:center;line-height:125%;writing-mode:lr-tb;text-anchor:middle;fill:#000000;fill-opacity:1;stroke:none;font-family:FreeSans;-inkscape-font-specification:FreeSans"
           x="483.1698"
           y="344.11398"
           id="text5621"
           sodipodi:linespacing="125%"><tspan
             sodipodi:role="line"
             id="tspan5623"
             x="483.1698"
             y="344.11398">write / display</tspan></text>
        <rect
           style="fill:none;stroke:#000000;stroke-width:0.92377818;stroke-linecap:round;stroke-miterlimit:4;stroke-opacity:1;stroke-dasharray:none"
           id="rect2908-3-7-2-5-4-8"
           width="71.273643"
           height="17.754255"
           x="447.45297"
           y="332.68185" />
      </g>
      <g
         transform="translate(-78.359295,-38.547891)"
         id="g5669">
        <text
           xml:space="preserve"
           style="font-size:10px;font-style:normal;font-variant:normal;font-weight:normal;font-stretch:normal;text-align:center;line-height:125%;writing-mode:lr-tb;text-anchor:middle;fill:#000000;fill-opacity:1;stroke:none;font-family:FreeSans;-inkscape-font-specification:FreeSans"
           x="473.76154"
           y="280.60565"
           id="text5617"
           sodipodi:linespacing="125%"><tspan
             sodipodi:role="line"
             id="tspan5619"
             x="473.76154"
             y="280.60565">evaluate</tspan></text>
        <rect
           style="fill:none;stroke:#000000;stroke-width:0.92377818;stroke-linecap:round;stroke-miterlimit:4;stroke-opacity:1;stroke-dasharray:none"
           id="rect2908-3-7-2-5-4-8-5"
           width="49.84507"
           height="15.611399"
           x="448.8208"
           y="269.26996" />
      </g>
      <text
         sodipodi:linespacing="125%"
         id="text5597-6"
         y="421.64191"
         x="321.20819"
         style="font-size:10px;font-style:normal;font-variant:normal;font-weight:normal;font-stretch:normal;text-align:center;line-height:125%;writing-mode:lr-tb;text-anchor:middle;fill:#000000;fill-opacity:1;stroke:none;font-family:FreeSans;-inkscape-font-specification:FreeSans"
         xml:space="preserve"><tspan
           y="421.64191"
           x="321.20819"
           id="tspan5599-1"
           sodipodi:role="line">Y</tspan></text>
      <text
         sodipodi:linespacing="125%"
         id="text5597-8"
         y="258.29291"
         x="403.39841"
         style="font-size:10px;font-style:normal;font-variant:normal;font-weight:normal;font-stretch:normal;text-align:center;line-height:125%;writing-mode:lr-tb;text-anchor:middle;fill:#000000;fill-opacity:1;stroke:none;font-family:FreeSans;-inkscape-font-specification:FreeSans"
         xml:space="preserve"><tspan
           y="258.29291"
           x="403.39841"
           id="tspan5599-10"
           sodipodi:role="line">Y</tspan></text>
      <path
         style="fill:none;stroke:#bababa;stroke-width:1;stroke-linecap:round;stroke-miterlimit:4;stroke-opacity:1"
         d="m 230.57143,217.36218 115.08665,0 0,140.71428 -115.08665,0 0,-140.71428 z"
         id="rect6403"
         sodipodi:nodetypes="ccccc" />
      <path
         sodipodi:nodetypes="cc"
         id="path5068-4-0-7-5-7-5-3"
         d="m 365.168,274.20335 -30.40854,-0.0893"
         style="fill:none;stroke:#000000;stroke-width:1px;stroke-linecap:butt;stroke-linejoin:miter;stroke-opacity:1;marker-end:url(#Arrow1Mend)" />
      <path
         sodipodi:nodetypes="ccccc"
         id="path5679"
         d="m 398.0001,439.9572 0,6.31345 -173.70562,0 0,-212.25131 28.62912,0"
         style="fill:none;stroke:#000000;stroke-width:1px;stroke-linecap:butt;stroke-linejoin:miter;stroke-opacity:1;marker-end:url(#Arrow1Mend-50)" />
      <path
         sodipodi:nodetypes="cc"
         id="path5068-4-0"
         d="m 284.64289,354.53458 0,12.5"
         style="fill:none;stroke:#000000;stroke-width:1px;stroke-linecap:butt;stroke-linejoin:miter;stroke-opacity:1;marker-end:url(#Arrow1Mend)" />
      <path
         sodipodi:nodetypes="cc"
         id="path5068-4-2-4"
         d="m 395.35715,260.92318 0,-12.5"
         style="fill:none;stroke:#000000;stroke-width:1px;stroke-linecap:butt;stroke-linejoin:miter;stroke-opacity:1;marker-end:url(#Arrow1Mend)" />
      <path
         sodipodi:nodetypes="cc"
         id="path5068-4-15-44"
         d="m 395.35714,230.26546 0,-12.5"
         style="fill:none;stroke:#000000;stroke-width:1px;stroke-linecap:butt;stroke-linejoin:miter;stroke-opacity:1;marker-end:url(#Arrow1Mend)" />
    </g>
    <text
       xml:space="preserve"
       style="font-size:10px;font-style:normal;font-variant:normal;font-weight:normal;font-stretch:normal;text-align:center;line-height:125%;writing-mode:lr-tb;text-anchor:middle;fill:#000000;fill-opacity:1;stroke:none;font-family:FreeSans;-inkscape-font-specification:FreeSans"
       x="296.92392"
       y="588.409"
       id="text6569"
       sodipodi:linespacing="125%"><tspan
         sodipodi:role="line"
         id="tspan6571"
         x="296.92392"
         y="588.409">Anaphase</tspan></text>
  </g>
</svg>
