<?xml version="1.0" encoding="ISO-8859-1" standalone="no"?>
<!DOCTYPE svg PUBLIC "-//W3C//DTD SVG 1.1//EN" "http://www.w3.org/Graphics/SVG/1.1/DTD/svg11.dtd">
<svg version="1.1" baseProfile="full" id="body" width="8in" height="8in" viewBox="0 0 1 1" preserveAspectRatio="none" xmlns="http://www.w3.org/2000/svg" xmlns:xlink="http://www.w3.org/1999/xlink" xmlns:ev="http://www.w3.org/2001/xml-events">
<title>SVG drawing</title>
<desc>This was produced by version 4.2 of GNU libplot, a free library for exporting 2-D vector graphics.</desc>
<rect id="background" x="0" y="0" width="1" height="1" stroke="none" fill="white"/>
<g id="content" transform="translate(-0.03125,1.1875) scale(1,-1) scale(0.0017361) " xml:space="preserve" stroke="black" stroke-linecap="butt" stroke-linejoin="miter" stroke-miterlimit="10.433" stroke-dasharray="none" stroke-dashoffset="0" stroke-opacity="1" fill="none" fill-rule="even-odd" fill-opacity="1" font-style="normal" font-variant="normal" font-weight="normal" font-stretch="normal" font-size-adjust="none" letter-spacing="normal" word-spacing="normal" text-anchor="start">
<line x1="59.379" y1="215.38" x2="59.379" y2="45.25" stroke-width="1" />
<line x1="309.5" y1="215.38" x2="309.5" y2="45.25" stroke-width="1" />
<line x1="310" y1="211.38" x2="302" y2="211.38" stroke-width="1" />
<line x1="58.879" y1="211.38" x2="66.879" y2="211.38" stroke-width="1" />
<path d="M38.637,216.93 H33.535 L32.793,211.52 H33.926 C34.496,212.21,34.969,212.45,35.738,212.45 C37.062,212.45,37.898,211.54,37.898,210.07 C37.898,208.64,37.074,207.77,35.738,207.77 C34.664,207.77,34.008,208.32,33.715,209.44 H32.488 C32.656,208.62,32.793,208.23,33.086,207.87 C33.645,207.11,34.648,206.68,35.766,206.68 C37.758,206.68,39.152,208.13,39.152,210.23 C39.152,212.2,37.855,213.54,35.961,213.54 C35.262,213.54,34.707,213.35,34.133,212.94 L34.523,215.71 H38.637 Z " stroke-width="0" fill="black" />
<path d="M43.836,216.93 L43.75,216.92 L43.664,216.92 L43.579,216.92 L43.495,216.91 L43.411,216.9 L43.328,216.88 L43.246,216.87 L43.164,216.85 L43.084,216.83 L43.004,216.81 L42.925,216.79 L42.847,216.76 L42.771,216.73 L42.695,216.7 L42.62,216.67 L42.547,216.64 L42.475,216.6 L42.404,216.56 L42.334,216.52 L42.265,216.48 L42.198,216.44 L42.133,216.39 L42.068,216.34 L42.006,216.29 L41.944,216.24 L41.885,216.19 L41.827,216.13 L41.77,216.08 L41.716,216.02 L41.663,215.96 L41.612,215.9 L41.562,215.83 C40.922,214.96,40.598,213.64,40.598,211.8 C40.598,208.46,41.715,206.68,43.836,206.68 L43.809,207.7 C42.512,207.7,41.855,209.07,41.855,211.79 C41.855,214.5,42.512,215.83,43.836,215.83 H43.836 C45.16,215.83,45.816,214.49,45.816,211.83 C45.816,209.02,45.172,207.7,43.809,207.7 L43.836,206.68 C45.926,206.68,47.07,208.46,47.07,211.72 C47.07,213.65,46.762,214.94,46.105,215.83 C45.59,216.54,44.77,216.93,43.836,216.93 Z " stroke-width="0" fill="black" />
<path d="M51.836,216.93 L51.75,216.92 L51.664,216.92 L51.579,216.92 L51.495,216.91 L51.411,216.9 L51.328,216.88 L51.246,216.87 L51.164,216.85 L51.084,216.83 L51.004,216.81 L50.925,216.79 L50.847,216.76 L50.771,216.73 L50.695,216.7 L50.62,216.67 L50.547,216.64 L50.475,216.6 L50.404,216.56 L50.334,216.52 L50.265,216.48 L50.198,216.44 L50.133,216.39 L50.068,216.34 L50.006,216.29 L49.944,216.24 L49.885,216.19 L49.827,216.13 L49.77,216.08 L49.716,216.02 L49.663,215.96 L49.612,215.9 L49.562,215.83 C48.922,214.96,48.598,213.64,48.598,211.8 C48.598,208.46,49.715,206.68,51.836,206.68 L51.809,207.7 C50.512,207.7,49.855,209.07,49.855,211.79 C49.855,214.5,50.512,215.83,51.836,215.83 H51.836 C53.16,215.83,53.816,214.49,53.816,211.83 C53.816,209.02,53.172,207.7,51.809,207.7 L51.836,206.68 C53.926,206.68,55.07,208.46,55.07,211.72 C55.07,213.65,54.762,214.94,54.105,215.83 C53.59,216.54,52.77,216.93,51.836,216.93 Z " stroke-width="0" fill="black" />
<line x1="310" y1="181.5" x2="302" y2="181.5" stroke-width="1" />
<line x1="58.879" y1="181.5" x2="66.879" y2="181.5" stroke-width="1" />
<polygon points="36.559,179.38 36.559,177 37.785,177 37.785,179.38 39.25,179.38 39.25,180.48 37.785,180.48 37.785,186.93 36.879,186.93 32.391,180.68 33.465,180.48 36.559,184.82 36.559,180.48 33.465,180.48 32.391,180.68 32.391,179.38 " stroke-width="0" fill="black" />
<path d="M46.637,186.93 H41.535 L40.793,181.52 H41.926 C42.496,182.21,42.969,182.45,43.738,182.45 C45.062,182.45,45.898,181.54,45.898,180.07 C45.898,178.64,45.074,177.77,43.738,177.77 C42.664,177.77,42.008,178.32,41.715,179.44 H40.488 C40.656,178.62,40.793,178.23,41.086,177.87 C41.645,177.11,42.648,176.68,43.766,176.68 C45.758,176.68,47.152,178.13,47.152,180.23 C47.152,182.2,45.855,183.54,43.961,183.54 C43.262,183.54,42.707,183.35,42.133,182.94 L42.523,185.71 H46.637 Z " stroke-width="0" fill="black" />
<path d="M51.836,186.93 L51.75,186.92 L51.664,186.92 L51.579,186.92 L51.495,186.91 L51.411,186.9 L51.328,186.88 L51.246,186.87 L51.164,186.85 L51.084,186.83 L51.004,186.81 L50.925,186.79 L50.847,186.76 L50.771,186.73 L50.695,186.7 L50.62,186.67 L50.547,186.64 L50.475,186.6 L50.404,186.56 L50.334,186.52 L50.265,186.48 L50.198,186.44 L50.133,186.39 L50.068,186.34 L50.006,186.29 L49.944,186.24 L49.885,186.19 L49.827,186.13 L49.77,186.08 L49.716,186.02 L49.663,185.96 L49.612,185.9 L49.562,185.83 C48.922,184.96,48.598,183.64,48.598,181.8 C48.598,178.46,49.715,176.68,51.836,176.68 L51.809,177.7 C50.512,177.7,49.855,179.07,49.855,181.79 C49.855,184.5,50.512,185.83,51.836,185.83 H51.836 C53.16,185.83,53.816,184.49,53.816,181.83 C53.816,179.02,53.172,177.7,51.809,177.7 L51.836,176.68 C53.926,176.68,55.07,178.46,55.07,181.72 C55.07,183.65,54.762,184.94,54.105,185.83 C53.59,186.54,52.77,186.93,51.836,186.93 Z " stroke-width="0" fill="black" />
<line x1="310" y1="151.62" x2="302" y2="151.62" stroke-width="1" />
<line x1="58.879" y1="151.62" x2="66.879" y2="151.62" stroke-width="1" />
<polygon points="36.559,149.38 36.559,147 37.785,147 37.785,149.38 39.25,149.38 39.25,150.48 37.785,150.48 37.785,156.93 36.879,156.93 32.391,150.68 33.465,150.48 36.559,154.82 36.559,150.48 33.465,150.48 32.391,150.68 32.391,149.38 " stroke-width="0" fill="black" />
<path d="M43.836,156.93 L43.75,156.92 L43.664,156.92 L43.579,156.92 L43.495,156.91 L43.411,156.9 L43.328,156.88 L43.246,156.87 L43.164,156.85 L43.084,156.83 L43.004,156.81 L42.925,156.79 L42.847,156.76 L42.771,156.73 L42.695,156.7 L42.62,156.67 L42.547,156.64 L42.475,156.6 L42.404,156.56 L42.334,156.52 L42.265,156.48 L42.198,156.44 L42.133,156.39 L42.068,156.34 L42.006,156.29 L41.944,156.24 L41.885,156.19 L41.827,156.13 L41.77,156.08 L41.716,156.02 L41.663,155.96 L41.612,155.9 L41.562,155.83 C40.922,154.96,40.598,153.64,40.598,151.8 C40.598,148.46,41.715,146.68,43.836,146.68 L43.809,147.7 C42.512,147.7,41.855,149.07,41.855,151.79 C41.855,154.5,42.512,155.83,43.836,155.83 H43.836 C45.16,155.83,45.816,154.49,45.816,151.83 C45.816,149.02,45.172,147.7,43.809,147.7 L43.836,146.68 C45.926,146.68,47.07,148.46,47.07,151.72 C47.07,153.65,46.762,154.94,46.105,155.83 C45.59,156.54,44.77,156.93,43.836,156.93 Z " stroke-width="0" fill="black" />
<path d="M51.836,156.93 L51.75,156.92 L51.664,156.92 L51.579,156.92 L51.495,156.91 L51.411,156.9 L51.328,156.88 L51.246,156.87 L51.164,156.85 L51.084,156.83 L51.004,156.81 L50.925,156.79 L50.847,156.76 L50.771,156.73 L50.695,156.7 L50.62,156.67 L50.547,156.64 L50.475,156.6 L50.404,156.56 L50.334,156.52 L50.265,156.48 L50.198,156.44 L50.133,156.39 L50.068,156.34 L50.006,156.29 L49.944,156.24 L49.885,156.19 L49.827,156.13 L49.77,156.08 L49.716,156.02 L49.663,155.96 L49.612,155.9 L49.562,155.83 C48.922,154.96,48.598,153.64,48.598,151.8 C48.598,148.46,49.715,146.68,51.836,146.68 L51.809,147.7 C50.512,147.7,49.855,149.07,49.855,151.79 C49.855,154.5,50.512,155.83,51.836,155.83 H51.836 C53.16,155.83,53.816,154.49,53.816,151.83 C53.816,149.02,53.172,147.7,51.809,147.7 L51.836,146.68 C53.926,146.68,55.07,148.46,55.07,151.72 C55.07,153.65,54.762,154.94,54.105,155.83 C53.59,156.54,52.77,156.93,51.836,156.93 Z " stroke-width="0" fill="black" />
<line x1="310" y1="121.75" x2="302" y2="121.75" stroke-width="1" />
<line x1="58.879" y1="121.75" x2="66.879" y2="121.75" stroke-width="1" />
<path d="M35.082,121.55 H35.234 L35.75,121.56 C37.102,121.56,37.801,120.95,37.801,119.76 C37.801,118.51,37.035,117.77,35.75,117.77 C34.414,117.77,33.758,118.44,33.672,119.88 H32.445 C32.504,119.09,32.641,118.57,32.879,118.12 C33.379,117.17,34.355,116.68,35.711,116.68 C37.746,116.68,39.055,117.89,39.055,119.77 C39.055,121.03,38.566,121.73,37.383,122.14 C38.301,122.5,38.762,123.2,38.762,124.19 C38.762,125.9,37.633,126.93,35.75,126.93 C33.758,126.93,32.695,125.83,32.656,123.72 H33.883 C33.895,124.32,33.953,124.66,34.105,124.96 C34.383,125.51,34.996,125.85,35.766,125.85 C36.852,125.85,37.508,125.2,37.508,124.15 C37.508,123.45,37.258,123.04,36.715,122.81 C36.379,122.67,35.945,122.61,35.082,122.6 Z " stroke-width="0" fill="black" />
<path d="M46.637,126.93 H41.535 L40.793,121.52 H41.926 C42.496,122.21,42.969,122.44,43.738,122.44 C45.062,122.44,45.898,121.54,45.898,120.07 C45.898,118.64,45.074,117.77,43.738,117.77 C42.664,117.77,42.008,118.32,41.715,119.44 H40.488 C40.656,118.62,40.793,118.23,41.086,117.87 C41.645,117.11,42.648,116.68,43.766,116.68 C45.758,116.68,47.152,118.13,47.152,120.23 C47.152,122.19,45.855,123.54,43.961,123.54 C43.262,123.54,42.707,123.36,42.133,122.94 L42.523,125.71 H46.637 Z " stroke-width="0" fill="black" />
<path d="M51.836,126.93 L51.75,126.92 L51.664,126.92 L51.579,126.92 L51.495,126.91 L51.411,126.9 L51.328,126.88 L51.246,126.87 L51.164,126.85 L51.084,126.83 L51.004,126.81 L50.925,126.79 L50.847,126.76 L50.771,126.73 L50.695,126.7 L50.62,126.67 L50.547,126.64 L50.475,126.6 L50.404,126.56 L50.334,126.52 L50.265,126.48 L50.198,126.44 L50.133,126.39 L50.068,126.34 L50.006,126.29 L49.944,126.24 L49.885,126.19 L49.827,126.13 L49.77,126.08 L49.716,126.02 L49.663,125.96 L49.612,125.9 L49.562,125.83 C48.922,124.96,48.598,123.64,48.598,121.8 C48.598,118.46,49.715,116.68,51.836,116.68 L51.809,117.7 C50.512,117.7,49.855,119.07,49.855,121.79 C49.855,124.5,50.512,125.83,51.836,125.83 H51.836 C53.16,125.83,53.816,124.49,53.816,121.83 C53.816,119.02,53.172,117.7,51.809,117.7 L51.836,116.68 C53.926,116.68,55.07,118.46,55.07,121.72 C55.07,123.65,54.762,124.94,54.105,125.83 C53.59,126.54,52.77,126.93,51.836,126.93 Z " stroke-width="0" fill="black" />
<line x1="310" y1="91.75" x2="302" y2="91.75" stroke-width="1" />
<line x1="58.879" y1="91.75" x2="66.879" y2="91.75" stroke-width="1" />
<path d="M35.082,91.551 H35.234 L35.75,91.562 C37.102,91.562,37.801,90.949,37.801,89.758 C37.801,88.512,37.035,87.77,35.75,87.77 C34.414,87.77,33.758,88.441,33.672,89.883 H32.445 C32.504,89.086,32.641,88.566,32.879,88.121 C33.379,87.168,34.355,86.68,35.711,86.68 C37.746,86.68,39.055,87.895,39.055,89.773 C39.055,91.031,38.566,91.73,37.383,92.137 C38.301,92.504,38.762,93.203,38.762,94.195 C38.762,95.902,37.633,96.926,35.75,96.926 C33.758,96.926,32.695,95.832,32.656,93.719 H33.883 C33.895,94.32,33.953,94.656,34.105,94.965 C34.383,95.512,34.996,95.848,35.766,95.848 C36.852,95.848,37.508,95.203,37.508,94.152 C37.508,93.453,37.258,93.035,36.715,92.809 C36.379,92.672,35.945,92.613,35.082,92.602 Z " stroke-width="0" fill="black" />
<path d="M43.836,96.926 L43.75,96.925 L43.664,96.921 L43.579,96.915 L43.495,96.907 L43.411,96.897 L43.328,96.884 L43.246,96.869 L43.164,96.852 L43.084,96.832 L43.004,96.811 L42.925,96.787 L42.847,96.761 L42.771,96.733 L42.695,96.703 L42.62,96.671 L42.547,96.637 L42.475,96.601 L42.404,96.562 L42.334,96.522 L42.265,96.48 L42.198,96.436 L42.133,96.39 L42.068,96.343 L42.006,96.293 L41.944,96.241 L41.885,96.188 L41.827,96.133 L41.77,96.076 L41.716,96.018 L41.663,95.958 L41.612,95.896 L41.562,95.832 C40.922,94.965,40.598,93.637,40.598,91.801 C40.598,88.457,41.715,86.68,43.836,86.68 L43.809,87.699 C42.512,87.699,41.855,89.07,41.855,91.789 C41.855,94.504,42.512,95.832,43.836,95.832 H43.836 C45.16,95.832,45.816,94.488,45.816,91.828 C45.816,89.016,45.172,87.699,43.809,87.699 L43.836,86.68 C45.926,86.68,47.07,88.457,47.07,91.719 C47.07,93.648,46.762,94.938,46.105,95.832 C45.59,96.535,44.77,96.926,43.836,96.926 Z " stroke-width="0" fill="black" />
<path d="M51.836,96.926 L51.75,96.925 L51.664,96.921 L51.579,96.915 L51.495,96.907 L51.411,96.897 L51.328,96.884 L51.246,96.869 L51.164,96.852 L51.084,96.832 L51.004,96.811 L50.925,96.787 L50.847,96.761 L50.771,96.733 L50.695,96.703 L50.62,96.671 L50.547,96.637 L50.475,96.601 L50.404,96.562 L50.334,96.522 L50.265,96.48 L50.198,96.436 L50.133,96.39 L50.068,96.343 L50.006,96.293 L49.944,96.241 L49.885,96.188 L49.827,96.133 L49.77,96.076 L49.716,96.018 L49.663,95.958 L49.612,95.896 L49.562,95.832 C48.922,94.965,48.598,93.637,48.598,91.801 C48.598,88.457,49.715,86.68,51.836,86.68 L51.809,87.699 C50.512,87.699,49.855,89.07,49.855,91.789 C49.855,94.504,50.512,95.832,51.836,95.832 H51.836 C53.16,95.832,53.816,94.488,53.816,91.828 C53.816,89.016,53.172,87.699,51.809,87.699 L51.836,86.68 C53.926,86.68,55.07,88.457,55.07,91.719 C55.07,93.648,54.762,94.938,54.105,95.832 C53.59,96.535,52.77,96.926,51.836,96.926 Z " stroke-width="0" fill="black" />
<line x1="310" y1="61.883" x2="302" y2="61.883" stroke-width="1" />
<line x1="58.879" y1="61.883" x2="66.879" y2="61.883" stroke-width="1" />
<path d="M39.055,58.219 H33.855 C33.98,59.031,34.426,59.547,35.641,60.262 L37.035,61.02 C38.414,61.773,39.125,62.797,39.125,64.016 C39.125,64.84,38.789,65.609,38.203,66.141 C37.621,66.676,36.895,66.926,35.961,66.926 C34.707,66.926,33.77,66.477,33.227,65.637 C32.879,65.105,32.727,64.488,32.695,63.48 H33.926 C33.965,64.152,34.051,64.559,34.219,64.883 C34.539,65.484,35.18,65.848,35.918,65.848 C37.035,65.848,37.871,65.051,37.871,63.984 C37.871,63.203,37.41,62.531,36.531,62.027 L35.25,61.297 C33.184,60.121,32.586,59.184,32.473,57 H39.055 Z " stroke-width="0" fill="black" />
<path d="M46.637,66.926 H41.535 L40.793,61.523 H41.926 C42.496,62.207,42.969,62.445,43.738,62.445 C45.062,62.445,45.898,61.535,45.898,60.066 C45.898,58.637,45.074,57.77,43.738,57.77 C42.664,57.77,42.008,58.316,41.715,59.438 H40.488 C40.656,58.625,40.793,58.23,41.086,57.867 C41.645,57.113,42.648,56.68,43.766,56.68 C45.758,56.68,47.152,58.133,47.152,60.234 C47.152,62.195,45.855,63.539,43.961,63.539 C43.262,63.539,42.707,63.355,42.133,62.938 L42.523,65.707 H46.637 Z " stroke-width="0" fill="black" />
<path d="M51.836,66.926 L51.75,66.925 L51.664,66.921 L51.579,66.915 L51.495,66.907 L51.411,66.897 L51.328,66.884 L51.246,66.869 L51.164,66.852 L51.084,66.832 L51.004,66.811 L50.925,66.787 L50.847,66.761 L50.771,66.733 L50.695,66.703 L50.62,66.671 L50.547,66.637 L50.475,66.601 L50.404,66.562 L50.334,66.522 L50.265,66.48 L50.198,66.436 L50.133,66.39 L50.068,66.343 L50.006,66.293 L49.944,66.241 L49.885,66.188 L49.827,66.133 L49.77,66.076 L49.716,66.018 L49.663,65.958 L49.612,65.896 L49.562,65.832 C48.922,64.965,48.598,63.637,48.598,61.801 C48.598,58.457,49.715,56.68,51.836,56.68 L51.809,57.699 C50.512,57.699,49.855,59.07,49.855,61.789 C49.855,64.504,50.512,65.832,51.836,65.832 H51.836 C53.16,65.832,53.816,64.488,53.816,61.828 C53.816,59.016,53.172,57.699,51.809,57.699 L51.836,56.68 C53.926,56.68,55.07,58.457,55.07,61.719 C55.07,63.648,54.762,64.938,54.105,65.832 C53.59,66.535,52.77,66.926,51.836,66.926 Z " stroke-width="0" fill="black" />
<polygon points="3.8789,78.492 3.8789,76.801 17,76.801 17,78.492 " stroke-width="0" fill="black" />
<path d="M7.5664,81.258 H17 V82.77 H11.797 C9.8711,82.77,8.6133,83.777,8.6133,85.324 C8.6133,86.512,9.332,87.27,10.465,87.27 H17 V88.762 H9.8711 C8.3047,88.762,7.2969,87.594,7.2969,85.777 C7.2969,84.371,7.8398,83.473,9.1523,82.645 H7.5664 Z " stroke-width="0" fill="black" />
<path d="M7.5664,94.57 V93.023 H4.9766 V91.531 H7.5664 V90.25 H8.793 V91.531 H15.922 C16.875,91.531,17.414,92.176,17.414,93.348 C17.414,93.707,17.379,94.066,17.289,94.57 H16.027 C16.082,94.371,16.102,94.137,16.102,93.852 C16.102,93.203,15.922,93.023,15.254,93.023 H8.793 V94.57 Z " stroke-width="0" fill="black" />
<path d="M12.789,104.23 L12.656,104.23 L12.526,104.23 L12.399,104.23 L12.275,104.22 L12.154,104.22 L12.037,104.22 L11.922,104.21 L11.81,104.21 L11.701,104.2 L11.594,104.2 L11.491,104.19 L11.389,104.18 L11.291,104.17 L11.194,104.16 L11.1,104.15 L11.008,104.14 L10.919,104.13 L10.831,104.12 L10.662,104.09 L10.5,104.06 L10.345,104.02 L10.196,103.99 L10.053,103.95 L9.9151,103.9 L9.7812,103.85 C8.2344,103.24,7.2969,101.8,7.2969,100.04 C7.2969,97.41,9.3125,95.719,12.41,95.719 C15.508,95.719,17.414,97.355,17.414,100 C17.414,102.16,16.191,103.66,14.137,104.03 V102.52 C15.379,102.11,16.027,101.26,16.027,100.06 C16.027,99.102,15.598,98.293,14.805,97.789 C14.266,97.43,13.723,97.305,12.789,97.285 L11.562,97.32 C9.8164,97.445,8.6836,98.508,8.6836,100.02 C8.6836,101.5,9.9062,102.63,11.457,102.63 C11.492,102.63,11.527,102.63,11.562,102.61 V97.32 L12.789,97.285 Z " stroke-width="0" fill="black" />
<path d="M7.5664,106.26 H17 V107.77 H11.797 C9.8711,107.77,8.6133,108.78,8.6133,110.32 C8.6133,111.51,9.332,112.27,10.465,112.27 H17 V113.76 H9.8711 C8.3047,113.76,7.2969,112.59,7.2969,110.78 C7.2969,109.37,7.8398,108.47,9.1523,107.64 H7.5664 Z " stroke-width="0" fill="black" />
<path d="M10.195,122.88 L10.024,122.88 L9.8576,122.87 L9.696,122.85 L9.5392,122.82 L9.3872,122.79 L9.2403,122.75 L9.0983,122.7 L8.9613,122.65 L8.8294,122.59 L8.7026,122.52 L8.581,122.45 L8.4646,122.37 L8.3534,122.28 L8.2475,122.19 L8.1469,122.09 L8.0518,121.98 L7.962,121.87 L7.8777,121.75 L7.799,121.63 L7.7258,121.5 L7.6581,121.36 L7.5962,121.22 L7.5399,121.07 L7.4894,120.91 L7.4446,120.75 L7.4057,120.58 L7.3726,120.41 L7.3455,120.23 L7.3243,120.05 L7.3091,119.86 L7.2999,119.66 L7.2969,119.46 C7.2969,117.27,8.4336,115.84,10.18,115.84 C11.652,115.84,12.356,116.6,12.894,118.83 L13.238,120.23 C13.488,121.28,13.867,121.69,14.551,121.69 C15.434,121.69,16.027,120.81,16.027,119.5 C16.027,118.69,15.793,118,15.398,117.63 C15.129,117.39,14.859,117.29,14.191,117.19 V115.61 C16.371,115.68,17.414,116.91,17.414,119.37 C17.414,121.75,16.242,123.26,14.426,123.26 C13.023,123.26,12.246,122.47,11.797,120.6 L11.457,119.16 C11.168,117.93,10.773,117.41,10.106,117.41 C9.2422,117.41,8.6836,118.18,8.6836,119.41 C8.6836,120.61,9.207,121.26,10.195,121.3 Z " stroke-width="0" fill="black" />
<polygon points="7.5664,126.7 7.5664,125.21 17,125.21 17,126.7 " stroke-width="0" fill="black" />
<polygon points="3.8789,126.7 3.8789,125.19 5.7695,125.19 5.7695,126.7 " stroke-width="0" fill="black" />
<path d="M7.5664,132.57 V131.02 H4.9766 V129.53 H7.5664 V128.25 H8.793 V129.53 H15.922 C16.875,129.53,17.414,130.18,17.414,131.35 C17.414,131.71,17.379,132.07,17.289,132.57 H16.027 C16.082,132.37,16.102,132.14,16.102,131.85 C16.102,131.2,15.922,131.02,15.254,131.02 H8.793 V132.57 Z " stroke-width="0" fill="black" />
<path d="M12.789,142.23 L12.656,142.23 L12.526,142.23 L12.399,142.23 L12.275,142.22 L12.154,142.22 L12.037,142.22 L11.922,142.21 L11.81,142.21 L11.701,142.2 L11.594,142.2 L11.491,142.19 L11.389,142.18 L11.291,142.17 L11.194,142.16 L11.1,142.15 L11.008,142.14 L10.919,142.13 L10.831,142.12 L10.662,142.09 L10.5,142.06 L10.345,142.02 L10.196,141.99 L10.053,141.95 L9.9151,141.9 L9.7812,141.85 C8.2344,141.24,7.2969,139.8,7.2969,138.04 C7.2969,135.41,9.3125,133.72,12.41,133.72 C15.508,133.72,17.414,135.35,17.414,138 C17.414,140.16,16.191,141.66,14.137,142.03 V140.52 C15.379,140.1,16.027,139.26,16.027,138.05 C16.027,137.1,15.598,136.29,14.805,135.79 C14.266,135.43,13.723,135.3,12.789,135.29 L11.562,135.32 C9.8164,135.45,8.6836,136.51,8.6836,138.02 C8.6836,139.5,9.9062,140.63,11.457,140.63 C11.492,140.63,11.527,140.63,11.562,140.61 V135.32 L12.789,135.29 Z " stroke-width="0" fill="black" />
<polygon points="3.6797,138.54 6.3438,136.82 6.3438,137.9 3.6797,140.57 " stroke-width="0" fill="black" />
<path d="M3.8789,152.25 L4.331,151.92 L4.8027,151.6 L5.2921,151.31 L5.7969,151.03 L6.3154,150.77 L6.8454,150.53 L7.385,150.3 L7.9321,150.1 L8.4848,149.92 L9.041,149.77 L9.5987,149.63 L10.156,149.52 L10.711,149.43 L11.261,149.36 L11.534,149.34 L11.805,149.33 L12.073,149.32 L12.34,149.31 C15.184,149.31,18.457,150.45,20.816,152.25 V153.23 C18.242,151.65,15.219,150.77,12.34,150.77 C9.4766,150.77,6.4336,151.65,3.8789,153.23 Z " stroke-width="0" fill="black" />
<path d="M17,162.67 H7.5664 V161.18 H12.914 C14.84,161.18,16.102,160.17,16.102,158.6 C16.102,157.42,15.379,156.66,14.246,156.66 H7.5664 V155.17 H14.84 C16.406,155.17,17.414,156.34,17.414,158.18 C17.414,159.56,16.93,160.44,15.688,161.32 H17 Z " stroke-width="0" fill="black" />
<polygon points="15.129,167.44 15.129,165.57 17,165.57 17,167.44 " stroke-width="0" fill="black" />
<path d="M16.117,178.62 L16.12,178.61 L16.123,178.6 L16.126,178.58 L16.129,178.57 L16.131,178.56 L16.133,178.54 L16.136,178.53 L16.137,178.52 L16.139,178.51 L16.141,178.5 L16.142,178.49 L16.144,178.48 L16.145,178.47 L16.146,178.46 L16.147,178.45 L16.148,178.44 L16.149,178.42 L16.15,178.4 L16.151,178.38 L16.152,178.37 L16.152,178.35 L16.152,178.33 L16.152,178.32 L16.152,178.3 C16.152,177.78,15.883,177.49,15.414,177.49 H9.8711 C8.1992,177.49,7.2969,176.27,7.2969,173.95 C7.2969,172.58,7.6953,171.45,8.3945,170.82 C8.8828,170.39,9.4219,170.21,10.359,170.17 V171.68 C9.207,171.81,8.6836,172.49,8.6836,173.9 C8.6836,175.24,9.1875,176,10.09,176 H10.484 C11.113,176,11.383,175.62,11.527,174.43 C11.797,172.31,11.871,171.99,12.106,171.41 C12.555,170.31,13.398,169.75,14.625,169.75 C16.336,169.75,17.414,170.94,17.414,172.85 C17.414,174.04,17,174.99,16.027,176.05 L15.254,175.41 C15.812,174.79,16.102,174.05,16.102,173.18 C16.102,172,15.543,171.32,14.59,171.32 C13.598,171.32,13.094,171.99,12.859,173.59 C12.644,175.17,12.57,175.5,12.34,176 H14.031 C14.535,176,14.84,175.85,15.254,175.41 L16.027,176.05 C16.98,176.16,17.414,176.63,17.414,177.6 C17.414,177.91,17.379,178.14,17.254,178.62 Z " stroke-width="0" fill="black" />
<path d="M20.816,180.67 L20.364,181 L19.891,181.32 L19.402,181.61 L18.897,181.89 L18.378,182.15 L17.848,182.39 L17.309,182.61 L16.762,182.81 L16.209,182.99 L15.653,183.15 L15.096,183.29 L14.539,183.4 L13.984,183.49 L13.434,183.55 L13.162,183.58 L12.891,183.59 L12.622,183.6 L12.356,183.6 C9.5117,183.6,6.2344,182.47,3.8789,180.67 V179.68 C6.4531,181.27,9.4766,182.15,12.356,182.15 C15.219,182.15,18.262,181.27,20.816,179.68 Z " stroke-width="0" fill="black" />
<line x1="58.879" y1="44.75" x2="310" y2="44.75" stroke-width="1" />
<line x1="58.879" y1="215.88" x2="310" y2="215.88" stroke-width="1" />
<line x1="305" y1="216.38" x2="305" y2="211.88" stroke-width="1" />
<line x1="305" y1="44.25" x2="305" y2="48.75" stroke-width="1" />
<line x1="270.5" y1="216.38" x2="270.5" y2="208.38" stroke-width="1" />
<line x1="270.5" y1="44.25" x2="270.5" y2="52.25" stroke-width="1" />
<path d="M262.61,35.07 V28 H263.84 V37.926 H263.03 C262.6,36.398,262.32,36.191,260.42,35.953 V35.07 Z " stroke-width="0" fill="black" />
<path d="M274.05,29.219 H268.86 C268.98,30.031,269.43,30.547,270.64,31.262 L272.04,32.02 C273.41,32.773,274.12,33.797,274.12,35.016 C274.12,35.84,273.79,36.609,273.2,37.141 C272.62,37.676,271.89,37.926,270.96,37.926 C269.71,37.926,268.77,37.477,268.23,36.637 C267.88,36.105,267.73,35.488,267.7,34.48 H268.93 C268.96,35.152,269.05,35.559,269.22,35.883 C269.54,36.484,270.18,36.848,270.92,36.848 C272.04,36.848,272.87,36.051,272.87,34.984 C272.87,34.203,272.41,33.531,271.53,33.027 L270.25,32.297 C268.18,31.121,267.59,30.184,267.47,28 H274.05 Z " stroke-width="0" fill="black" />
<path d="M277.84,37.926 L277.75,37.925 L277.66,37.921 L277.58,37.915 L277.49,37.907 L277.41,37.897 L277.33,37.884 L277.25,37.869 L277.16,37.852 L277.08,37.832 L277,37.811 L276.93,37.787 L276.85,37.761 L276.77,37.733 L276.69,37.703 L276.62,37.671 L276.55,37.637 L276.47,37.601 L276.4,37.562 L276.33,37.522 L276.27,37.48 L276.2,37.436 L276.13,37.39 L276.07,37.343 L276.01,37.293 L275.94,37.241 L275.88,37.188 L275.83,37.133 L275.77,37.076 L275.72,37.018 L275.66,36.958 L275.61,36.896 L275.56,36.832 C274.92,35.965,274.6,34.637,274.6,32.801 C274.6,29.457,275.71,27.68,277.84,27.68 L277.81,28.699 C276.51,28.699,275.86,30.07,275.86,32.789 C275.86,35.504,276.51,36.832,277.84,36.832 H277.84 C279.16,36.832,279.82,35.488,279.82,32.828 C279.82,30.016,279.17,28.699,277.81,28.699 L277.84,27.68 C279.93,27.68,281.07,29.457,281.07,32.719 C281.07,34.648,280.76,35.938,280.11,36.832 C279.59,37.535,278.77,37.926,277.84,37.926 Z " stroke-width="0" fill="black" />
<line x1="236.12" y1="216.38" x2="236.12" y2="211.88" stroke-width="1" />
<line x1="236.12" y1="44.25" x2="236.12" y2="48.75" stroke-width="1" />
<line x1="201.62" y1="216.38" x2="201.62" y2="208.38" stroke-width="1" />
<line x1="201.62" y1="44.25" x2="201.62" y2="52.25" stroke-width="1" />
<path d="M199.45,33.223 L199.55,33.28 L199.64,33.337 L199.72,33.394 L199.8,33.45 L199.88,33.506 L199.96,33.561 L200.03,33.617 L200.09,33.673 L200.16,33.729 L200.22,33.785 L200.27,33.841 L200.33,33.898 L200.38,33.955 L200.42,34.013 L200.47,34.072 L200.51,34.132 L200.55,34.192 L200.58,34.254 L200.62,34.317 L200.65,34.381 L200.67,34.446 L200.7,34.513 L200.72,34.581 L200.74,34.651 L200.75,34.723 L200.77,34.796 L200.78,34.871 L200.79,34.949 L200.8,35.029 L200.8,35.11 L200.8,35.195 L200.8,35.281 C200.8,36.832,199.59,37.926,197.84,37.926 C196.09,37.926,194.86,36.832,194.86,35.281 C194.86,34.355,195.2,33.852,196.2,33.223 C195.07,32.676,194.52,31.852,194.52,30.758 C194.52,28.938,195.88,27.68,197.84,27.68 L197.81,28.77 C196.61,28.77,195.77,29.566,195.77,30.73 C195.77,31.891,196.61,32.676,197.84,32.676 V33.711 C196.8,33.711,196.12,34.328,196.12,35.266 C196.12,36.219,196.8,36.832,197.84,36.832 H197.84 C198.88,36.832,199.55,36.219,199.55,35.254 C199.55,34.328,198.87,33.711,197.84,33.711 V32.676 H197.84 C199.06,32.676,199.9,31.891,199.9,30.73 C199.9,29.555,199.06,28.77,197.81,28.77 L197.84,27.68 C199.79,27.68,201.15,28.938,201.15,30.742 C201.15,31.852,200.59,32.676,199.45,33.223 Z " stroke-width="0" fill="black" />
<path d="M205.84,37.926 L205.75,37.925 L205.66,37.921 L205.58,37.915 L205.49,37.907 L205.41,37.897 L205.33,37.884 L205.25,37.869 L205.16,37.852 L205.08,37.832 L205,37.811 L204.93,37.787 L204.85,37.761 L204.77,37.733 L204.69,37.703 L204.62,37.671 L204.55,37.637 L204.47,37.601 L204.4,37.562 L204.33,37.522 L204.27,37.48 L204.2,37.436 L204.13,37.39 L204.07,37.343 L204.01,37.293 L203.94,37.241 L203.88,37.188 L203.83,37.133 L203.77,37.076 L203.72,37.018 L203.66,36.958 L203.61,36.896 L203.56,36.832 C202.92,35.965,202.6,34.637,202.6,32.801 C202.6,29.457,203.71,27.68,205.84,27.68 L205.81,28.699 C204.51,28.699,203.85,30.07,203.85,32.789 C203.85,35.504,204.51,36.832,205.84,36.832 H205.84 C207.16,36.832,207.82,35.488,207.82,32.828 C207.82,30.016,207.17,28.699,205.81,28.699 L205.84,27.68 C207.93,27.68,209.07,29.457,209.07,32.719 C209.07,34.648,208.76,35.938,208.1,36.832 C207.59,37.535,206.77,37.926,205.84,37.926 Z " stroke-width="0" fill="black" />
<line x1="167.25" y1="216.38" x2="167.25" y2="211.88" stroke-width="1" />
<line x1="167.25" y1="44.25" x2="167.25" y2="48.75" stroke-width="1" />
<line x1="132.75" y1="216.38" x2="132.75" y2="208.38" stroke-width="1" />
<line x1="132.75" y1="44.25" x2="132.75" y2="52.25" stroke-width="1" />
<polygon points="129.56,30.379 129.56,28 130.79,28 130.79,30.379 132.25,30.379 132.25,31.484 130.79,31.484 130.79,37.926 129.88,37.926 125.39,31.684 126.46,31.484 129.56,35.824 129.56,31.484 126.46,31.484 125.39,31.684 125.39,30.379 " stroke-width="0" fill="black" />
<path d="M136.84,37.926 L136.75,37.925 L136.66,37.921 L136.58,37.915 L136.49,37.907 L136.41,37.897 L136.33,37.884 L136.25,37.869 L136.16,37.852 L136.08,37.832 L136,37.811 L135.93,37.787 L135.85,37.761 L135.77,37.733 L135.69,37.703 L135.62,37.671 L135.55,37.637 L135.47,37.601 L135.4,37.562 L135.33,37.522 L135.27,37.48 L135.2,37.436 L135.13,37.39 L135.07,37.343 L135.01,37.293 L134.94,37.241 L134.88,37.188 L134.83,37.133 L134.77,37.076 L134.72,37.018 L134.66,36.958 L134.61,36.896 L134.56,36.832 C133.92,35.965,133.6,34.637,133.6,32.801 C133.6,29.457,134.71,27.68,136.84,27.68 L136.81,28.699 C135.51,28.699,134.85,30.07,134.85,32.789 C134.85,35.504,135.51,36.832,136.84,36.832 H136.84 C138.16,36.832,138.82,35.488,138.82,32.828 C138.82,30.016,138.17,28.699,136.81,28.699 L136.84,27.68 C138.93,27.68,140.07,29.457,140.07,32.719 C140.07,34.648,139.76,35.938,139.1,36.832 C138.59,37.535,137.77,37.926,136.84,37.926 Z " stroke-width="0" fill="black" />
<line x1="98.379" y1="216.38" x2="98.379" y2="211.88" stroke-width="1" />
<line x1="98.379" y1="44.25" x2="98.379" y2="48.75" stroke-width="1" />
<line x1="63.879" y1="216.38" x2="63.879" y2="208.38" stroke-width="1" />
<line x1="63.879" y1="44.25" x2="63.879" y2="52.25" stroke-width="1" />
<path d="M63.836,37.926 L63.75,37.925 L63.664,37.921 L63.579,37.915 L63.495,37.907 L63.411,37.897 L63.328,37.884 L63.246,37.869 L63.164,37.852 L63.084,37.832 L63.004,37.811 L62.925,37.787 L62.847,37.761 L62.771,37.733 L62.695,37.703 L62.62,37.671 L62.547,37.637 L62.475,37.601 L62.404,37.562 L62.334,37.522 L62.265,37.48 L62.198,37.436 L62.133,37.39 L62.068,37.343 L62.006,37.293 L61.944,37.241 L61.885,37.188 L61.827,37.133 L61.77,37.076 L61.716,37.018 L61.663,36.958 L61.612,36.896 L61.562,36.832 C60.922,35.965,60.598,34.637,60.598,32.801 C60.598,29.457,61.715,27.68,63.836,27.68 L63.809,28.699 C62.512,28.699,61.855,30.07,61.855,32.789 C61.855,35.504,62.512,36.832,63.836,36.832 H63.836 C65.16,36.832,65.816,35.488,65.816,32.828 C65.816,30.016,65.172,28.699,63.809,28.699 L63.836,27.68 C65.926,27.68,67.07,29.457,67.07,32.719 C67.07,34.648,66.762,35.938,66.105,36.832 C65.59,37.535,64.77,37.926,63.836,37.926 Z " stroke-width="0" fill="black" />
<path d="M148.57,13.434 H147.02 V16.023 H145.53 V13.434 H144.25 V12.207 H145.53 V5.0781 C145.53,4.125,146.18,3.5859,147.35,3.5859 C147.71,3.5859,148.07,3.6211,148.57,3.7109 V4.9727 C148.38,4.918,148.14,4.8984,147.85,4.8984 C147.2,4.8984,147.02,5.0781,147.02,5.7461 V12.207 H148.57 Z " stroke-width="0" fill="black" />
<path d="M158.23,8.2109 L158.23,8.3444 L158.23,8.4745 L158.23,8.6014 L158.23,8.7252 L158.23,8.8458 L158.22,8.9635 L158.22,9.0782 L158.21,9.1901 L158.21,9.2992 L158.2,9.4056 L158.19,9.5094 L158.19,9.6107 L158.18,9.7094 L158.17,9.8058 L158.16,9.8999 L158.15,9.9917 L158.13,10.081 L158.12,10.169 L158.09,10.338 L158.06,10.5 L158.03,10.655 L157.99,10.804 L157.95,10.947 L157.9,11.085 L157.85,11.219 C157.24,12.766,155.8,13.703,154.04,13.703 C151.41,13.703,149.72,11.688,149.72,8.5898 C149.72,5.4922,151.36,3.5859,154,3.5859 C156.16,3.5859,157.66,4.8086,158.04,6.8633 H156.52 C156.11,5.6211,155.27,4.9727,154.06,4.9727 C153.1,4.9727,152.29,5.4023,151.79,6.1953 C151.43,6.7344,151.3,7.2773,151.29,8.2109 L151.32,9.4375 C151.45,11.184,152.51,12.316,154.02,12.316 C155.5,12.316,156.63,11.094,156.63,9.543 C156.63,9.5078,156.63,9.4727,156.61,9.4375 H151.32 L151.29,8.2109 Z " stroke-width="0" fill="black" />
<path d="M160.26,13.434 V4 H161.77 V9.9219 C161.77,11.289,162.76,12.387,163.98,12.387 C165.1,12.387,165.73,11.703,165.73,10.496 V4 H167.24 V9.9219 C167.24,11.289,168.23,12.387,169.46,12.387 C170.55,12.387,171.2,11.688,171.2,10.496 V4 H172.71 V11.074 C172.71,12.766,171.74,13.703,169.98,13.703 C168.72,13.703,167.96,13.324,167.08,12.262 C166.52,13.269,165.77,13.703,164.54,13.703 C163.29,13.703,162.46,13.234,161.65,12.102 V13.434 Z " stroke-width="0" fill="black" />
<path d="M174.97,0.074219 H176.48 V4.9883 C177.28,4.0195,178.16,3.5859,179.38,3.5859 L179.11,4.9883 C177.53,4.9883,176.48,6.4297,176.48,8.6445 C176.48,10.859,177.53,12.297,179.11,12.297 H179.11 C180.77,12.297,181.85,10.84,181.85,8.5898 C181.85,6.4492,180.75,4.9883,179.11,4.9883 L179.38,3.5859 C181.81,3.5859,183.41,5.5469,183.41,8.5547 C183.41,11.723,181.87,13.703,179.36,13.703 C178.09,13.703,177.06,13.125,176.36,12.012 V13.434 H174.97 Z " stroke-width="0" fill="black" />
<path d="M191.88,10.805 L191.88,10.976 L191.87,11.142 L191.85,11.304 L191.82,11.461 L191.79,11.613 L191.75,11.76 L191.7,11.902 L191.65,12.039 L191.59,12.171 L191.52,12.297 L191.45,12.419 L191.37,12.535 L191.28,12.647 L191.19,12.752 L191.09,12.853 L190.98,12.948 L190.87,13.038 L190.75,13.122 L190.63,13.201 L190.5,13.274 L190.36,13.342 L190.22,13.404 L190.07,13.46 L189.91,13.511 L189.75,13.555 L189.59,13.594 L189.41,13.627 L189.24,13.655 L189.05,13.676 L188.86,13.691 L188.67,13.7 L188.46,13.703 C186.27,13.703,184.85,12.566,184.85,10.82 C184.85,9.3477,185.6,8.6445,187.83,8.1055 L189.24,7.7617 C190.28,7.5117,190.7,7.1328,190.7,6.4492 C190.7,5.5664,189.81,4.9727,188.5,4.9727 C187.69,4.9727,187,5.207,186.63,5.6016 C186.4,5.8711,186.29,6.1406,186.2,6.8086 H184.61 C184.68,4.6289,185.91,3.5859,188.38,3.5859 C190.75,3.5859,192.26,4.7578,192.26,6.5742 C192.26,7.9766,191.47,8.7539,189.6,9.2031 L188.16,9.543 C186.93,9.832,186.41,10.227,186.41,10.894 C186.41,11.758,187.19,12.316,188.41,12.316 C189.62,12.316,190.27,11.793,190.3,10.805 Z " stroke-width="0" fill="black" />
<path d="M202.25,17.121 L201.92,16.669 L201.6,16.197 L201.31,15.708 L201.03,15.203 L200.77,14.685 L200.53,14.155 L200.31,13.615 L200.11,13.068 L199.92,12.515 L199.77,11.959 L199.63,11.401 L199.52,10.844 L199.43,10.289 L199.36,9.7391 L199.34,9.4663 L199.33,9.1954 L199.32,8.9266 L199.31,8.6602 C199.31,5.8164,200.45,2.543,202.25,0.18359 H203.24 C201.65,2.7578,200.77,5.7812,200.77,8.6602 C200.77,11.523,201.65,14.566,203.24,17.121 Z " stroke-width="0" fill="black" />
<path d="M211.88,10.805 L211.88,10.976 L211.87,11.142 L211.85,11.304 L211.82,11.461 L211.79,11.613 L211.75,11.76 L211.7,11.902 L211.65,12.039 L211.59,12.171 L211.52,12.297 L211.45,12.419 L211.37,12.535 L211.28,12.647 L211.19,12.752 L211.09,12.853 L210.98,12.948 L210.87,13.038 L210.75,13.122 L210.63,13.201 L210.5,13.274 L210.36,13.342 L210.22,13.404 L210.07,13.46 L209.91,13.511 L209.75,13.555 L209.59,13.594 L209.41,13.627 L209.24,13.655 L209.05,13.676 L208.86,13.691 L208.67,13.7 L208.46,13.703 C206.27,13.703,204.85,12.566,204.85,10.82 C204.85,9.3477,205.6,8.6445,207.83,8.1055 L209.24,7.7617 C210.28,7.5117,210.7,7.1328,210.7,6.4492 C210.7,5.5664,209.81,4.9727,208.5,4.9727 C207.69,4.9727,207,5.207,206.63,5.6016 C206.4,5.8711,206.29,6.1406,206.2,6.8086 H204.61 C204.68,4.6289,205.91,3.5859,208.38,3.5859 C210.75,3.5859,212.26,4.7578,212.26,6.5742 C212.26,7.9766,211.47,8.7539,209.6,9.2031 L208.16,9.543 C206.93,9.832,206.41,10.227,206.41,10.894 C206.41,11.758,207.19,12.316,208.41,12.316 C209.62,12.316,210.27,11.793,210.3,10.805 Z " stroke-width="0" fill="black" />
<polygon points="216.44,5.8711 214.57,5.8711 214.57,4 216.44,4 " stroke-width="0" fill="black" />
<path d="M219.68,0.18359 L220.01,0.63636 L220.32,1.1086 L220.61,1.5982 L220.89,2.1033 L221.15,2.6218 L221.39,3.1518 L221.62,3.6913 L221.82,4.2383 L222,4.7907 L222.15,5.3467 L222.29,5.9042 L222.4,6.4612 L222.49,7.0157 L222.56,7.5658 L222.58,7.8385 L222.6,8.1094 L222.61,8.3781 L222.61,8.6445 C222.61,11.488,221.47,14.766,219.68,17.121 H218.68 C220.27,14.547,221.15,11.523,221.15,8.6445 C221.15,5.7812,220.27,2.7383,218.68,0.18359 Z " stroke-width="0" fill="black" />
<polyline points="63.879,211.38 72.5,209 81.117,210.12 89.75,49.25 98.379,62 106.88,63.5 115.5,67.621 124.12,67.883 132.75,69.621 141.38,71.883 150,74.883 158.62,75.5 167.25,73.5 175.88,77 184.5,77.383 193,76.121 201.62,80.5 210.25,87.121 218.88,82.5 227.5,88.5 236.12,85.621 244.75,95.25 253.38,100.88 262,112.75 270.5,108.62 279.12,106.75 287.75,106.12 296.38,106.5 305,108.25 305,108.25 " stroke="#3d983d" stroke-width="1" />
<path d="M66.629,211.38 L66.625,211.24 L66.615,211.1 L66.597,210.96 L66.573,210.83 L66.542,210.7 L66.505,210.57 L66.462,210.44 L66.412,210.31 L66.357,210.19 L66.296,210.07 L66.23,209.96 L66.158,209.85 L66.082,209.74 L66,209.63 L65.913,209.54 L65.822,209.44 L65.727,209.35 L65.627,209.26 L65.523,209.18 L65.415,209.1 L65.303,209.03 L65.188,208.97 L65.07,208.9 L64.948,208.85 L64.823,208.8 L64.695,208.76 L64.565,208.72 L64.432,208.69 L64.297,208.66 L64.16,208.65 L64.02,208.64 L63.879,208.63 C62.363,208.63,61.129,209.87,61.129,211.38 C61.129,212.9,62.363,214.13,63.879,214.13 C65.395,214.13,66.629,212.9,66.629,211.38 Z " stroke="#3d983d" stroke-width="0.5" />
<line x1="63.879" y1="212.62" x2="63.879" y2="210" stroke="#3d983d" stroke-width="0.5" />
<line x1="62.617" y1="211.38" x2="65.25" y2="211.38" stroke="#3d983d" stroke-width="0.5" />
<path d="M75.25,209 L75.246,208.86 L75.236,208.72 L75.218,208.58 L75.194,208.45 L75.163,208.31 L75.126,208.18 L75.083,208.06 L75.033,207.93 L74.978,207.81 L74.917,207.69 L74.851,207.58 L74.78,207.46 L74.703,207.36 L74.621,207.25 L74.534,207.15 L74.443,207.06 L74.348,206.97 L74.248,206.88 L74.144,206.8 L74.036,206.72 L73.925,206.65 L73.809,206.58 L73.691,206.52 L73.569,206.47 L73.444,206.42 L73.317,206.37 L73.186,206.34 L73.053,206.31 L72.918,206.28 L72.781,206.26 L72.641,206.25 L72.5,206.25 C70.984,206.25,69.75,207.48,69.75,209 C69.75,210.52,70.984,211.75,72.5,211.75 C74.016,211.75,75.25,210.52,75.25,209 Z " stroke="#3d983d" stroke-width="0.5" />
<line x1="72.5" y1="210.25" x2="72.5" y2="207.62" stroke="#3d983d" stroke-width="0.5" />
<line x1="71.25" y1="209" x2="73.879" y2="209" stroke="#3d983d" stroke-width="0.5" />
<path d="M83.867,210.12 L83.864,209.98 L83.853,209.84 L83.835,209.7 L83.811,209.57 L83.78,209.43 L83.743,209.3 L83.7,209.18 L83.651,209.05 L83.595,208.93 L83.535,208.81 L83.468,208.7 L83.397,208.58 L83.32,208.48 L83.238,208.37 L83.152,208.27 L83.061,208.18 L82.965,208.09 L82.865,208 L82.761,207.92 L82.653,207.84 L82.542,207.77 L82.427,207.7 L82.308,207.64 L82.186,207.59 L82.061,207.54 L81.934,207.49 L81.803,207.46 L81.671,207.43 L81.535,207.4 L81.398,207.39 L81.258,207.37 L81.117,207.37 C79.602,207.37,78.367,208.6,78.367,210.12 C78.367,211.64,79.602,212.87,81.117,212.87 C82.633,212.87,83.867,211.64,83.867,210.12 Z " stroke="#3d983d" stroke-width="0.5" />
<line x1="81.117" y1="211.38" x2="81.117" y2="208.75" stroke="#3d983d" stroke-width="0.5" />
<line x1="79.879" y1="210.12" x2="82.5" y2="210.12" stroke="#3d983d" stroke-width="0.5" />
<path d="M92.5,49.25 L92.496,49.109 L92.486,48.969 L92.468,48.832 L92.444,48.697 L92.413,48.564 L92.376,48.433 L92.333,48.306 L92.283,48.181 L92.228,48.059 L92.167,47.941 L92.101,47.825 L92.03,47.714 L91.953,47.606 L91.871,47.502 L91.784,47.402 L91.693,47.307 L91.598,47.216 L91.498,47.129 L91.394,47.047 L91.286,46.97 L91.175,46.899 L91.059,46.833 L90.941,46.772 L90.819,46.717 L90.694,46.667 L90.567,46.624 L90.436,46.587 L90.303,46.556 L90.168,46.532 L90.031,46.514 L89.891,46.504 L89.75,46.5 C88.234,46.5,87,47.734,87,49.25 C87,50.766,88.234,52,89.75,52 C91.266,52,92.5,50.766,92.5,49.25 Z " stroke="#3d983d" stroke-width="0.5" />
<line x1="89.75" y1="50.5" x2="89.75" y2="47.883" stroke="#3d983d" stroke-width="0.5" />
<line x1="88.5" y1="49.25" x2="91.117" y2="49.25" stroke="#3d983d" stroke-width="0.5" />
<path d="M101.13,62 L101.13,61.859 L101.11,61.719 L101.1,61.582 L101.07,61.447 L101.04,61.314 L101.01,61.183 L100.96,61.056 L100.91,60.931 L100.86,60.809 L100.8,60.691 L100.73,60.575 L100.66,60.464 L100.58,60.356 L100.5,60.252 L100.41,60.152 L100.32,60.057 L100.23,59.966 L100.13,59.879 L100.02,59.797 L99.915,59.72 L99.803,59.649 L99.688,59.583 L99.57,59.522 L99.448,59.467 L99.323,59.417 L99.195,59.374 L99.065,59.337 L98.932,59.306 L98.797,59.282 L98.66,59.264 L98.52,59.254 L98.379,59.25 C96.863,59.25,95.629,60.484,95.629,62 C95.629,63.516,96.863,64.75,98.379,64.75 C99.895,64.75,101.13,63.516,101.13,62 Z " stroke="#3d983d" stroke-width="0.5" />
<line x1="98.379" y1="63.25" x2="98.379" y2="60.621" stroke="#3d983d" stroke-width="0.5" />
<line x1="97.117" y1="62" x2="99.75" y2="62" stroke="#3d983d" stroke-width="0.5" />
<path d="M109.63,63.5 L109.63,63.359 L109.61,63.219 L109.6,63.082 L109.57,62.947 L109.54,62.814 L109.51,62.683 L109.46,62.556 L109.41,62.431 L109.36,62.309 L109.3,62.191 L109.23,62.075 L109.16,61.964 L109.08,61.856 L109,61.752 L108.91,61.652 L108.82,61.557 L108.73,61.466 L108.63,61.379 L108.52,61.297 L108.42,61.22 L108.3,61.149 L108.19,61.083 L108.07,61.022 L107.95,60.967 L107.82,60.917 L107.7,60.874 L107.57,60.837 L107.43,60.806 L107.3,60.782 L107.16,60.764 L107.02,60.754 L106.88,60.75 C105.36,60.75,104.13,61.984,104.13,63.5 C104.13,65.016,105.36,66.25,106.88,66.25 C108.39,66.25,109.63,65.016,109.63,63.5 Z " stroke="#3d983d" stroke-width="0.5" />
<line x1="106.88" y1="64.75" x2="106.88" y2="62.121" stroke="#3d983d" stroke-width="0.5" />
<line x1="105.62" y1="63.5" x2="108.25" y2="63.5" stroke="#3d983d" stroke-width="0.5" />
<path d="M118.25,67.621 L118.25,67.48 L118.24,67.34 L118.22,67.203 L118.19,67.068 L118.16,66.935 L118.13,66.805 L118.08,66.677 L118.03,66.552 L117.98,66.43 L117.92,66.312 L117.85,66.197 L117.78,66.085 L117.7,65.977 L117.62,65.873 L117.53,65.773 L117.44,65.678 L117.35,65.587 L117.25,65.5 L117.14,65.418 L117.04,65.342 L116.92,65.27 L116.81,65.204 L116.69,65.143 L116.57,65.088 L116.44,65.038 L116.32,64.995 L116.19,64.958 L116.05,64.927 L115.92,64.903 L115.78,64.885 L115.64,64.875 L115.5,64.871 C113.98,64.871,112.75,66.105,112.75,67.621 C112.75,69.137,113.98,70.371,115.5,70.371 C117.02,70.371,118.25,69.137,118.25,67.621 Z " stroke="#3d983d" stroke-width="0.5" />
<line x1="115.5" y1="68.883" x2="115.5" y2="66.25" stroke="#3d983d" stroke-width="0.5" />
<line x1="114.25" y1="67.621" x2="116.88" y2="67.621" stroke="#3d983d" stroke-width="0.5" />
<path d="M126.87,67.883 L126.86,67.742 L126.85,67.602 L126.84,67.465 L126.81,67.329 L126.78,67.197 L126.74,67.066 L126.7,66.939 L126.65,66.814 L126.6,66.692 L126.53,66.573 L126.47,66.458 L126.4,66.347 L126.32,66.239 L126.24,66.135 L126.15,66.035 L126.06,65.939 L125.96,65.848 L125.87,65.762 L125.76,65.68 L125.65,65.603 L125.54,65.532 L125.43,65.465 L125.31,65.405 L125.19,65.349 L125.06,65.3 L124.93,65.257 L124.8,65.22 L124.67,65.189 L124.54,65.165 L124.4,65.147 L124.26,65.136 L124.12,65.133 C122.6,65.133,121.37,66.367,121.37,67.883 C121.37,69.398,122.6,70.633,124.12,70.633 C125.63,70.633,126.87,69.398,126.87,67.883 Z " stroke="#3d983d" stroke-width="0.5" />
<line x1="124.12" y1="69.121" x2="124.12" y2="66.5" stroke="#3d983d" stroke-width="0.5" />
<line x1="122.88" y1="67.883" x2="125.5" y2="67.883" stroke="#3d983d" stroke-width="0.5" />
<path d="M135.5,69.621 L135.5,69.48 L135.49,69.34 L135.47,69.203 L135.44,69.068 L135.41,68.935 L135.38,68.805 L135.33,68.677 L135.28,68.552 L135.23,68.43 L135.17,68.312 L135.1,68.197 L135.03,68.085 L134.95,67.977 L134.87,67.873 L134.78,67.773 L134.69,67.678 L134.6,67.587 L134.5,67.5 L134.39,67.418 L134.29,67.342 L134.17,67.27 L134.06,67.204 L133.94,67.143 L133.82,67.088 L133.69,67.038 L133.57,66.995 L133.44,66.958 L133.3,66.927 L133.17,66.903 L133.03,66.885 L132.89,66.875 L132.75,66.871 C131.23,66.871,130,68.105,130,69.621 C130,71.137,131.23,72.371,132.75,72.371 C134.27,72.371,135.5,71.137,135.5,69.621 Z " stroke="#3d983d" stroke-width="0.5" />
<line x1="132.75" y1="70.883" x2="132.75" y2="68.25" stroke="#3d983d" stroke-width="0.5" />
<line x1="131.5" y1="69.621" x2="134.12" y2="69.621" stroke="#3d983d" stroke-width="0.5" />
<path d="M144.13,71.883 L144.13,71.742 L144.11,71.602 L144.1,71.465 L144.07,71.329 L144.04,71.197 L144.01,71.066 L143.96,70.939 L143.91,70.814 L143.86,70.692 L143.8,70.573 L143.73,70.458 L143.66,70.347 L143.58,70.239 L143.5,70.135 L143.41,70.035 L143.32,69.939 L143.23,69.848 L143.13,69.762 L143.02,69.68 L142.92,69.603 L142.8,69.532 L142.69,69.465 L142.57,69.405 L142.45,69.349 L142.32,69.3 L142.2,69.257 L142.07,69.22 L141.93,69.189 L141.8,69.165 L141.66,69.147 L141.52,69.136 L141.38,69.133 C139.86,69.133,138.63,70.367,138.63,71.883 C138.63,73.398,139.86,74.633,141.38,74.633 C142.9,74.633,144.13,73.398,144.13,71.883 Z " stroke="#3d983d" stroke-width="0.5" />
<line x1="141.38" y1="73.121" x2="141.38" y2="70.5" stroke="#3d983d" stroke-width="0.5" />
<line x1="140.12" y1="71.883" x2="142.75" y2="71.883" stroke="#3d983d" stroke-width="0.5" />
<path d="M152.75,74.883 L152.75,74.742 L152.74,74.602 L152.72,74.465 L152.69,74.329 L152.66,74.197 L152.63,74.066 L152.58,73.939 L152.53,73.814 L152.48,73.692 L152.42,73.573 L152.35,73.458 L152.28,73.347 L152.2,73.239 L152.12,73.135 L152.03,73.035 L151.94,72.939 L151.85,72.848 L151.75,72.762 L151.64,72.68 L151.54,72.603 L151.42,72.532 L151.31,72.465 L151.19,72.405 L151.07,72.349 L150.94,72.3 L150.82,72.257 L150.69,72.22 L150.55,72.189 L150.42,72.165 L150.28,72.147 L150.14,72.136 L150,72.133 C148.48,72.133,147.25,73.367,147.25,74.883 C147.25,76.398,148.48,77.633,150,77.633 C151.52,77.633,152.75,76.398,152.75,74.883 Z " stroke="#3d983d" stroke-width="0.5" />
<line x1="150" y1="76.121" x2="150" y2="73.5" stroke="#3d983d" stroke-width="0.5" />
<line x1="148.75" y1="74.883" x2="151.38" y2="74.883" stroke="#3d983d" stroke-width="0.5" />
<path d="M161.37,75.5 L161.36,75.359 L161.35,75.219 L161.34,75.082 L161.31,74.947 L161.28,74.814 L161.24,74.683 L161.2,74.556 L161.15,74.431 L161.1,74.309 L161.03,74.191 L160.97,74.075 L160.9,73.964 L160.82,73.856 L160.74,73.752 L160.65,73.652 L160.56,73.557 L160.46,73.466 L160.37,73.379 L160.26,73.297 L160.15,73.22 L160.04,73.149 L159.93,73.083 L159.81,73.022 L159.69,72.967 L159.56,72.917 L159.43,72.874 L159.3,72.837 L159.17,72.806 L159.04,72.782 L158.9,72.764 L158.76,72.754 L158.62,72.75 C157.1,72.75,155.87,73.984,155.87,75.5 C155.87,77.016,157.1,78.25,158.62,78.25 C160.13,78.25,161.37,77.016,161.37,75.5 Z " stroke="#3d983d" stroke-width="0.5" />
<line x1="158.62" y1="76.75" x2="158.62" y2="74.121" stroke="#3d983d" stroke-width="0.5" />
<line x1="157.38" y1="75.5" x2="160" y2="75.5" stroke="#3d983d" stroke-width="0.5" />
<path d="M170,73.5 L170,73.359 L169.99,73.219 L169.97,73.082 L169.94,72.947 L169.91,72.814 L169.88,72.683 L169.83,72.556 L169.78,72.431 L169.73,72.309 L169.67,72.191 L169.6,72.075 L169.53,71.964 L169.45,71.856 L169.37,71.752 L169.28,71.652 L169.19,71.557 L169.1,71.466 L169,71.379 L168.89,71.297 L168.79,71.22 L168.67,71.149 L168.56,71.083 L168.44,71.022 L168.32,70.967 L168.19,70.917 L168.07,70.874 L167.94,70.837 L167.8,70.806 L167.67,70.782 L167.53,70.764 L167.39,70.754 L167.25,70.75 C165.73,70.75,164.5,71.984,164.5,73.5 C164.5,75.016,165.73,76.25,167.25,76.25 C168.77,76.25,170,75.016,170,73.5 Z " stroke="#3d983d" stroke-width="0.5" />
<line x1="167.25" y1="74.75" x2="167.25" y2="72.121" stroke="#3d983d" stroke-width="0.5" />
<line x1="166" y1="73.5" x2="168.62" y2="73.5" stroke="#3d983d" stroke-width="0.5" />
<path d="M178.63,77 L178.63,76.859 L178.61,76.719 L178.6,76.582 L178.57,76.447 L178.54,76.314 L178.51,76.183 L178.46,76.056 L178.41,75.931 L178.36,75.809 L178.3,75.691 L178.23,75.575 L178.16,75.464 L178.08,75.356 L178,75.252 L177.91,75.152 L177.82,75.057 L177.73,74.966 L177.63,74.879 L177.52,74.797 L177.42,74.72 L177.3,74.649 L177.19,74.583 L177.07,74.522 L176.95,74.467 L176.82,74.417 L176.7,74.374 L176.57,74.337 L176.43,74.306 L176.3,74.282 L176.16,74.264 L176.02,74.254 L175.88,74.25 C174.36,74.25,173.13,75.484,173.13,77 C173.13,78.516,174.36,79.75,175.88,79.75 C177.4,79.75,178.63,78.516,178.63,77 Z " stroke="#3d983d" stroke-width="0.5" />
<line x1="175.88" y1="78.25" x2="175.88" y2="75.621" stroke="#3d983d" stroke-width="0.5" />
<line x1="174.62" y1="77" x2="177.25" y2="77" stroke="#3d983d" stroke-width="0.5" />
<path d="M187.25,77.383 L187.25,77.242 L187.24,77.102 L187.22,76.965 L187.19,76.829 L187.16,76.697 L187.13,76.566 L187.08,76.439 L187.03,76.314 L186.98,76.192 L186.92,76.073 L186.85,75.958 L186.78,75.847 L186.7,75.739 L186.62,75.635 L186.53,75.535 L186.44,75.439 L186.35,75.348 L186.25,75.262 L186.14,75.18 L186.04,75.103 L185.92,75.032 L185.81,74.965 L185.69,74.905 L185.57,74.849 L185.44,74.8 L185.32,74.757 L185.19,74.72 L185.05,74.689 L184.92,74.665 L184.78,74.647 L184.64,74.636 L184.5,74.633 C182.98,74.633,181.75,75.867,181.75,77.383 C181.75,78.898,182.98,80.133,184.5,80.133 C186.02,80.133,187.25,78.898,187.25,77.383 Z " stroke="#3d983d" stroke-width="0.5" />
<line x1="184.5" y1="78.621" x2="184.5" y2="76" stroke="#3d983d" stroke-width="0.5" />
<line x1="183.25" y1="77.383" x2="185.88" y2="77.383" stroke="#3d983d" stroke-width="0.5" />
<path d="M195.75,76.121 L195.75,75.98 L195.74,75.84 L195.72,75.703 L195.69,75.568 L195.66,75.435 L195.63,75.305 L195.58,75.177 L195.53,75.052 L195.48,74.93 L195.42,74.812 L195.35,74.697 L195.28,74.585 L195.2,74.477 L195.12,74.373 L195.03,74.273 L194.94,74.178 L194.85,74.087 L194.75,74 L194.64,73.918 L194.54,73.842 L194.42,73.77 L194.31,73.704 L194.19,73.643 L194.07,73.588 L193.94,73.538 L193.82,73.495 L193.69,73.458 L193.55,73.427 L193.42,73.403 L193.28,73.385 L193.14,73.375 L193,73.371 C191.48,73.371,190.25,74.605,190.25,76.121 C190.25,77.637,191.48,78.871,193,78.871 C194.52,78.871,195.75,77.637,195.75,76.121 Z " stroke="#3d983d" stroke-width="0.5" />
<line x1="193" y1="77.383" x2="193" y2="74.75" stroke="#3d983d" stroke-width="0.5" />
<line x1="191.75" y1="76.121" x2="194.38" y2="76.121" stroke="#3d983d" stroke-width="0.5" />
<path d="M204.37,80.5 L204.36,80.359 L204.35,80.219 L204.34,80.082 L204.31,79.947 L204.28,79.814 L204.24,79.683 L204.2,79.556 L204.15,79.431 L204.1,79.309 L204.03,79.191 L203.97,79.075 L203.9,78.964 L203.82,78.856 L203.74,78.752 L203.65,78.652 L203.56,78.557 L203.46,78.466 L203.37,78.379 L203.26,78.297 L203.15,78.22 L203.04,78.149 L202.93,78.083 L202.81,78.022 L202.69,77.967 L202.56,77.917 L202.43,77.874 L202.3,77.837 L202.17,77.806 L202.04,77.782 L201.9,77.764 L201.76,77.754 L201.62,77.75 C200.1,77.75,198.87,78.984,198.87,80.5 C198.87,82.016,200.1,83.25,201.62,83.25 C203.13,83.25,204.37,82.016,204.37,80.5 Z " stroke="#3d983d" stroke-width="0.5" />
<line x1="201.62" y1="81.75" x2="201.62" y2="79.121" stroke="#3d983d" stroke-width="0.5" />
<line x1="200.38" y1="80.5" x2="203" y2="80.5" stroke="#3d983d" stroke-width="0.5" />
<path d="M213,87.121 L213,86.98 L212.99,86.84 L212.97,86.703 L212.94,86.568 L212.91,86.435 L212.88,86.305 L212.83,86.177 L212.78,86.052 L212.73,85.93 L212.67,85.812 L212.6,85.697 L212.53,85.585 L212.45,85.477 L212.37,85.373 L212.28,85.273 L212.19,85.178 L212.1,85.087 L212,85 L211.89,84.918 L211.79,84.842 L211.67,84.77 L211.56,84.704 L211.44,84.643 L211.32,84.588 L211.19,84.538 L211.07,84.495 L210.94,84.458 L210.8,84.427 L210.67,84.403 L210.53,84.385 L210.39,84.375 L210.25,84.371 C208.73,84.371,207.5,85.605,207.5,87.121 C207.5,88.637,208.73,89.871,210.25,89.871 C211.77,89.871,213,88.637,213,87.121 Z " stroke="#3d983d" stroke-width="0.5" />
<line x1="210.25" y1="88.383" x2="210.25" y2="85.75" stroke="#3d983d" stroke-width="0.5" />
<line x1="209" y1="87.121" x2="211.62" y2="87.121" stroke="#3d983d" stroke-width="0.5" />
<path d="M221.63,82.5 L221.63,82.359 L221.61,82.219 L221.6,82.082 L221.57,81.947 L221.54,81.814 L221.51,81.683 L221.46,81.556 L221.41,81.431 L221.36,81.309 L221.3,81.191 L221.23,81.075 L221.16,80.964 L221.08,80.856 L221,80.752 L220.91,80.652 L220.82,80.557 L220.73,80.466 L220.63,80.379 L220.52,80.297 L220.42,80.22 L220.3,80.149 L220.19,80.083 L220.07,80.022 L219.95,79.967 L219.82,79.917 L219.7,79.874 L219.57,79.837 L219.43,79.806 L219.3,79.782 L219.16,79.764 L219.02,79.754 L218.88,79.75 C217.36,79.75,216.13,80.984,216.13,82.5 C216.13,84.016,217.36,85.25,218.88,85.25 C220.4,85.25,221.63,84.016,221.63,82.5 Z " stroke="#3d983d" stroke-width="0.5" />
<line x1="218.88" y1="83.75" x2="218.88" y2="81.121" stroke="#3d983d" stroke-width="0.5" />
<line x1="217.62" y1="82.5" x2="220.25" y2="82.5" stroke="#3d983d" stroke-width="0.5" />
<path d="M230.25,88.5 L230.25,88.359 L230.24,88.219 L230.22,88.082 L230.19,87.947 L230.16,87.814 L230.13,87.683 L230.08,87.556 L230.03,87.431 L229.98,87.309 L229.92,87.191 L229.85,87.075 L229.78,86.964 L229.7,86.856 L229.62,86.752 L229.53,86.652 L229.44,86.557 L229.35,86.466 L229.25,86.379 L229.14,86.297 L229.04,86.22 L228.92,86.149 L228.81,86.083 L228.69,86.022 L228.57,85.967 L228.44,85.917 L228.32,85.874 L228.19,85.837 L228.05,85.806 L227.92,85.782 L227.78,85.764 L227.64,85.754 L227.5,85.75 C225.98,85.75,224.75,86.984,224.75,88.5 C224.75,90.016,225.98,91.25,227.5,91.25 C229.02,91.25,230.25,90.016,230.25,88.5 Z " stroke="#3d983d" stroke-width="0.5" />
<line x1="227.5" y1="89.75" x2="227.5" y2="87.121" stroke="#3d983d" stroke-width="0.5" />
<line x1="226.25" y1="88.5" x2="228.88" y2="88.5" stroke="#3d983d" stroke-width="0.5" />
<path d="M238.87,85.621 L238.86,85.48 L238.85,85.34 L238.84,85.203 L238.81,85.068 L238.78,84.935 L238.74,84.805 L238.7,84.677 L238.65,84.552 L238.6,84.43 L238.53,84.312 L238.47,84.197 L238.4,84.085 L238.32,83.977 L238.24,83.873 L238.15,83.773 L238.06,83.678 L237.96,83.587 L237.87,83.5 L237.76,83.418 L237.65,83.342 L237.54,83.27 L237.43,83.204 L237.31,83.143 L237.19,83.088 L237.06,83.038 L236.93,82.995 L236.8,82.958 L236.67,82.927 L236.54,82.903 L236.4,82.885 L236.26,82.875 L236.12,82.871 C234.6,82.871,233.37,84.105,233.37,85.621 C233.37,87.137,234.6,88.371,236.12,88.371 C237.63,88.371,238.87,87.137,238.87,85.621 Z " stroke="#3d983d" stroke-width="0.5" />
<line x1="236.12" y1="86.883" x2="236.12" y2="84.25" stroke="#3d983d" stroke-width="0.5" />
<line x1="234.88" y1="85.621" x2="237.5" y2="85.621" stroke="#3d983d" stroke-width="0.5" />
<path d="M247.5,95.25 L247.5,95.109 L247.49,94.969 L247.47,94.832 L247.44,94.697 L247.41,94.564 L247.38,94.433 L247.33,94.306 L247.28,94.181 L247.23,94.059 L247.17,93.941 L247.1,93.825 L247.03,93.714 L246.95,93.606 L246.87,93.502 L246.78,93.402 L246.69,93.307 L246.6,93.216 L246.5,93.129 L246.39,93.047 L246.29,92.97 L246.17,92.899 L246.06,92.833 L245.94,92.772 L245.82,92.717 L245.69,92.667 L245.57,92.624 L245.44,92.587 L245.3,92.556 L245.17,92.532 L245.03,92.514 L244.89,92.504 L244.75,92.5 C243.23,92.5,242,93.734,242,95.25 C242,96.766,243.23,98,244.75,98 C246.27,98,247.5,96.766,247.5,95.25 Z " stroke="#3d983d" stroke-width="0.5" />
<line x1="244.75" y1="96.5" x2="244.75" y2="93.883" stroke="#3d983d" stroke-width="0.5" />
<line x1="243.5" y1="95.25" x2="246.12" y2="95.25" stroke="#3d983d" stroke-width="0.5" />
<path d="M256.13,100.88 L256.13,100.74 L256.11,100.6 L256.1,100.46 L256.07,100.33 L256.04,100.2 L256.01,100.07 L255.96,99.939 L255.91,99.814 L255.86,99.692 L255.8,99.573 L255.73,99.458 L255.66,99.347 L255.58,99.239 L255.5,99.135 L255.41,99.035 L255.32,98.939 L255.23,98.848 L255.13,98.762 L255.02,98.68 L254.92,98.603 L254.8,98.532 L254.69,98.465 L254.57,98.405 L254.45,98.349 L254.32,98.3 L254.2,98.257 L254.07,98.22 L253.93,98.189 L253.8,98.165 L253.66,98.147 L253.52,98.136 L253.38,98.133 C251.86,98.133,250.63,99.367,250.63,100.88 C250.63,102.4,251.86,103.63,253.38,103.63 C254.9,103.63,256.13,102.4,256.13,100.88 Z " stroke="#3d983d" stroke-width="0.5" />
<line x1="253.38" y1="102.12" x2="253.38" y2="99.5" stroke="#3d983d" stroke-width="0.5" />
<line x1="252.12" y1="100.88" x2="254.75" y2="100.88" stroke="#3d983d" stroke-width="0.5" />
<path d="M264.75,112.75 L264.75,112.61 L264.74,112.47 L264.72,112.33 L264.69,112.2 L264.66,112.06 L264.63,111.93 L264.58,111.81 L264.53,111.68 L264.48,111.56 L264.42,111.44 L264.35,111.33 L264.28,111.21 L264.2,111.11 L264.12,111 L264.03,110.9 L263.94,110.81 L263.85,110.72 L263.75,110.63 L263.64,110.55 L263.54,110.47 L263.42,110.4 L263.31,110.33 L263.19,110.27 L263.07,110.22 L262.94,110.17 L262.82,110.12 L262.69,110.09 L262.55,110.06 L262.42,110.03 L262.28,110.01 L262.14,110 L262,110 C260.48,110,259.25,111.23,259.25,112.75 C259.25,114.27,260.48,115.5,262,115.5 C263.52,115.5,264.75,114.27,264.75,112.75 Z " stroke="#3d983d" stroke-width="0.5" />
<line x1="262" y1="114" x2="262" y2="111.38" stroke="#3d983d" stroke-width="0.5" />
<line x1="260.75" y1="112.75" x2="263.38" y2="112.75" stroke="#3d983d" stroke-width="0.5" />
<path d="M273.25,108.62 L273.25,108.48 L273.24,108.34 L273.22,108.2 L273.19,108.07 L273.16,107.93 L273.13,107.8 L273.08,107.68 L273.03,107.55 L272.98,107.43 L272.92,107.31 L272.85,107.2 L272.78,107.08 L272.7,106.98 L272.62,106.87 L272.53,106.77 L272.44,106.68 L272.35,106.59 L272.25,106.5 L272.14,106.42 L272.04,106.34 L271.92,106.27 L271.81,106.2 L271.69,106.14 L271.57,106.09 L271.44,106.04 L271.32,105.99 L271.19,105.96 L271.05,105.93 L270.92,105.9 L270.78,105.89 L270.64,105.87 L270.5,105.87 C268.98,105.87,267.75,107.11,267.75,108.62 C267.75,110.14,268.98,111.37,270.5,111.37 C272.02,111.37,273.25,110.14,273.25,108.62 Z " stroke="#3d983d" stroke-width="0.5" />
<line x1="270.5" y1="109.88" x2="270.5" y2="107.25" stroke="#3d983d" stroke-width="0.5" />
<line x1="269.25" y1="108.62" x2="271.88" y2="108.62" stroke="#3d983d" stroke-width="0.5" />
<path d="M281.87,106.75 L281.86,106.61 L281.85,106.47 L281.84,106.33 L281.81,106.2 L281.78,106.06 L281.74,105.93 L281.7,105.81 L281.65,105.68 L281.6,105.56 L281.53,105.44 L281.47,105.33 L281.4,105.21 L281.32,105.11 L281.24,105 L281.15,104.9 L281.06,104.81 L280.96,104.72 L280.87,104.63 L280.76,104.55 L280.65,104.47 L280.54,104.4 L280.43,104.33 L280.31,104.27 L280.19,104.22 L280.06,104.17 L279.93,104.12 L279.8,104.09 L279.67,104.06 L279.54,104.03 L279.4,104.01 L279.26,104 L279.12,104 C277.6,104,276.37,105.23,276.37,106.75 C276.37,108.27,277.6,109.5,279.12,109.5 C280.63,109.5,281.87,108.27,281.87,106.75 Z " stroke="#3d983d" stroke-width="0.5" />
<line x1="279.12" y1="108" x2="279.12" y2="105.38" stroke="#3d983d" stroke-width="0.5" />
<line x1="277.88" y1="106.75" x2="280.5" y2="106.75" stroke="#3d983d" stroke-width="0.5" />
<path d="M290.5,106.12 L290.5,105.98 L290.49,105.84 L290.47,105.7 L290.44,105.57 L290.41,105.43 L290.38,105.3 L290.33,105.18 L290.28,105.05 L290.23,104.93 L290.17,104.81 L290.1,104.7 L290.03,104.58 L289.95,104.48 L289.87,104.37 L289.78,104.27 L289.69,104.18 L289.6,104.09 L289.5,104 L289.39,103.92 L289.29,103.84 L289.17,103.77 L289.06,103.7 L288.94,103.64 L288.82,103.59 L288.69,103.54 L288.57,103.49 L288.44,103.46 L288.3,103.43 L288.17,103.4 L288.03,103.39 L287.89,103.37 L287.75,103.37 C286.23,103.37,285,104.61,285,106.12 C285,107.64,286.23,108.87,287.75,108.87 C289.27,108.87,290.5,107.64,290.5,106.12 Z " stroke="#3d983d" stroke-width="0.5" />
<line x1="287.75" y1="107.38" x2="287.75" y2="104.75" stroke="#3d983d" stroke-width="0.5" />
<line x1="286.5" y1="106.12" x2="289.12" y2="106.12" stroke="#3d983d" stroke-width="0.5" />
<path d="M299.13,106.5 L299.13,106.36 L299.11,106.22 L299.1,106.08 L299.07,105.95 L299.04,105.81 L299.01,105.68 L298.96,105.56 L298.91,105.43 L298.86,105.31 L298.8,105.19 L298.73,105.08 L298.66,104.96 L298.58,104.86 L298.5,104.75 L298.41,104.65 L298.32,104.56 L298.23,104.47 L298.13,104.38 L298.02,104.3 L297.92,104.22 L297.8,104.15 L297.69,104.08 L297.57,104.02 L297.45,103.97 L297.32,103.92 L297.2,103.87 L297.07,103.84 L296.93,103.81 L296.8,103.78 L296.66,103.76 L296.52,103.75 L296.38,103.75 C294.86,103.75,293.63,104.98,293.63,106.5 C293.63,108.02,294.86,109.25,296.38,109.25 C297.89,109.25,299.13,108.02,299.13,106.5 Z " stroke="#3d983d" stroke-width="0.5" />
<line x1="296.38" y1="107.75" x2="296.38" y2="105.12" stroke="#3d983d" stroke-width="0.5" />
<line x1="295.12" y1="106.5" x2="297.75" y2="106.5" stroke="#3d983d" stroke-width="0.5" />
<path d="M307.75,108.25 L307.75,108.11 L307.74,107.97 L307.72,107.83 L307.69,107.7 L307.66,107.56 L307.63,107.43 L307.58,107.31 L307.53,107.18 L307.48,107.06 L307.42,106.94 L307.35,106.83 L307.28,106.71 L307.2,106.61 L307.12,106.5 L307.03,106.4 L306.94,106.31 L306.85,106.22 L306.75,106.13 L306.64,106.05 L306.54,105.97 L306.42,105.9 L306.31,105.83 L306.19,105.77 L306.07,105.72 L305.94,105.67 L305.82,105.62 L305.69,105.59 L305.55,105.56 L305.42,105.53 L305.28,105.51 L305.14,105.5 L305,105.5 C303.48,105.5,302.25,106.73,302.25,108.25 C302.25,109.77,303.48,111,305,111 C306.52,111,307.75,109.77,307.75,108.25 Z " stroke="#3d983d" stroke-width="0.5" />
<line x1="305" y1="109.5" x2="305" y2="106.88" stroke="#3d983d" stroke-width="0.5" />
<line x1="303.75" y1="108.25" x2="306.38" y2="108.25" stroke="#3d983d" stroke-width="0.5" />
<polyline points="89.75,53.883 91.117,54.5 92.5,55 93.879,55.5 95.25,56 96.617,56.621 98,57.121 99.379,57.621 100.75,58.121 102.12,58.621 103.5,59.121 105,59.621 106.38,60.121 107.75,60.621 109.12,61.121 110.5,61.5 111.88,62 113.25,62.5 114.62,63 116,63.383 117.38,63.883 118.75,64.383 120.12,64.883 121.5,65.25 123,65.75 124.38,66.121 125.75,66.621 127.12,67 128.5,67.5 129.88,67.883 131.25,68.383 132.62,68.75 134,69.121 135.38,69.621 136.75,70 138.12,70.383 139.5,70.883 141,71.25 142.38,71.621 143.75,72 145.12,72.5 146.5,72.883 147.88,73.25 149.25,73.621 150.62,74 152,74.383 153.38,74.75 154.75,75.121 156.12,75.5 157.62,75.883 159,76.25 160.38,76.621 161.75,77 163.12,77.383 164.5,77.75 165.88,78 167.25,78.383 168.62,78.75 170,79.121 171.38,79.5 172.75,79.75 174.12,80.121 175.62,80.5 177,80.75 178.38,81.121 179.75,81.5 181.12,81.75 182.5,82.121 183.88,82.383 185.25,82.75 186.62,83 188,83.383 189.38,83.621 190.75,84 192.12,84.25 193.62,84.621 195,84.883 196.38,85.121 197.75,85.5 199.12,85.75 200.5,86.121 201.88,86.383 203.25,86.621 204.62,86.883 206,87.25 207.38,87.5 208.75,87.75 210.12,88 211.62,88.383 213,88.621 214.38,88.883 215.75,89.121 217.12,89.383 218.5,89.621 219.88,89.883 221.25,90.121 222.62,90.5 224,90.75 225.38,91 226.75,91.25 228.25,91.5 229.62,91.75 231,92 232.38,92.25 233.75,92.5 235.12,92.621 236.5,92.883 237.88,93.121 239.25,93.383 240.62,93.621 242,93.883 243.38,94.121 244.75,94.383 246.25,94.5 247.62,94.75 249,95 250.38,95.25 251.75,95.383 253.12,95.621 254.5,95.883 255.88,96.121 257.25,96.25 258.62,96.5 260,96.75 261.38,96.883 262.75,97.121 264.25,97.383 265.62,97.5 267,97.75 268.38,98 269.75,98.121 271.12,98.383 272.5,98.5 273.88,98.75 275.25,98.883 276.62,99.121 278,99.25 279.38,99.5 280.75,99.621 282.25,99.883 283.62,100 285,100.25 286.38,100.38 287.75,100.62 289.12,100.75 290.5,101 291.88,101.12 293.25,101.25 294.62,101.5 296,101.62 297.38,101.75 298.75,102 300.25,102.12 301.62,102.25 303,102.5 304.38,102.62 305,102.75 " stroke-width="1" />
</g>
</svg>
