<?xml version="1.0" encoding="ISO-8859-1" standalone="no"?>
<!DOCTYPE svg PUBLIC "-//W3C//DTD SVG 1.1//EN" "http://www.w3.org/Graphics/SVG/1.1/DTD/svg11.dtd">
<svg version="1.1" baseProfile="full" id="body" width="8in" height="8in" viewBox="0 0 1 1" preserveAspectRatio="none" xmlns="http://www.w3.org/2000/svg" xmlns:xlink="http://www.w3.org/1999/xlink" xmlns:ev="http://www.w3.org/2001/xml-events">
<title>SVG drawing</title>
<desc>This was produced by version 4.2 of GNU libplot, a free library for exporting 2-D vector graphics.</desc>
<rect id="background" x="0" y="0" width="1" height="1" stroke="none" fill="white"/>
<g id="content" transform="translate(-0.03125,1.1875) scale(1,-1) scale(0.0017361) " xml:space="preserve" stroke="black" stroke-linecap="butt" stroke-linejoin="miter" stroke-miterlimit="10.433" stroke-dasharray="none" stroke-dashoffset="0" stroke-opacity="1" fill="none" fill-rule="even-odd" fill-opacity="1" font-style="normal" font-variant="normal" font-weight="normal" font-stretch="normal" font-size-adjust="none" letter-spacing="normal" word-spacing="normal" text-anchor="start">
<line x1="59.379" y1="215.38" x2="59.379" y2="45.25" stroke-width="1" />
<line x1="309.5" y1="215.38" x2="309.5" y2="45.25" stroke-width="1" />
<line x1="310" y1="211.38" x2="302" y2="211.38" stroke-width="1" />
<line x1="58.879" y1="211.38" x2="66.879" y2="211.38" stroke-width="1" />
<text transform="translate(32.117,206.75) scale(0.69719,-0.7) " font-family="Helvetica,sans-serif" font-size="20px" stroke="none" fill="black" >500</text>
<line x1="310" y1="181.5" x2="302" y2="181.5" stroke-width="1" />
<line x1="58.879" y1="181.5" x2="66.879" y2="181.5" stroke-width="1" />
<text transform="translate(32.117,176.88) scale(0.69719,-0.7) " font-family="Helvetica,sans-serif" font-size="20px" stroke="none" fill="black" >450</text>
<line x1="310" y1="151.62" x2="302" y2="151.62" stroke-width="1" />
<line x1="58.879" y1="151.62" x2="66.879" y2="151.62" stroke-width="1" />
<text transform="translate(32.117,147) scale(0.69719,-0.7) " font-family="Helvetica,sans-serif" font-size="20px" stroke="none" fill="black" >400</text>
<line x1="310" y1="121.75" x2="302" y2="121.75" stroke-width="1" />
<line x1="58.879" y1="121.75" x2="66.879" y2="121.75" stroke-width="1" />
<text transform="translate(32.117,117.12) scale(0.69719,-0.7) " font-family="Helvetica,sans-serif" font-size="20px" stroke="none" fill="black" >350</text>
<line x1="310" y1="91.75" x2="302" y2="91.75" stroke-width="1" />
<line x1="58.879" y1="91.75" x2="66.879" y2="91.75" stroke-width="1" />
<text transform="translate(32.117,87.121) scale(0.69719,-0.7) " font-family="Helvetica,sans-serif" font-size="20px" stroke="none" fill="black" >300</text>
<line x1="310" y1="61.883" x2="302" y2="61.883" stroke-width="1" />
<line x1="58.879" y1="61.883" x2="66.879" y2="61.883" stroke-width="1" />
<text transform="translate(32.117,57.25) scale(0.69719,-0.7) " font-family="Helvetica,sans-serif" font-size="20px" stroke="none" fill="black" >250</text>
<text transform="matrix(0 0.89965 0.9 0 16.617 75.383) " font-family="Helvetica,sans-serif" font-size="20px" stroke="none" fill="black" >Intensité (u.a)</text>
<line x1="58.879" y1="44.75" x2="310" y2="44.75" stroke-width="1" />
<line x1="58.879" y1="215.88" x2="310" y2="215.88" stroke-width="1" />
<line x1="305" y1="216.38" x2="305" y2="211.88" stroke-width="1" />
<line x1="305" y1="44.25" x2="305" y2="48.75" stroke-width="1" />
<line x1="270.5" y1="216.38" x2="270.5" y2="208.38" stroke-width="1" />
<line x1="270.5" y1="44.25" x2="270.5" y2="52.25" stroke-width="1" />
<text transform="translate(258.88,27.75) scale(0.69719,-0.7) " font-family="Helvetica,sans-serif" font-size="20px" stroke="none" fill="black" >120</text>
<line x1="236.12" y1="216.38" x2="236.12" y2="211.88" stroke-width="1" />
<line x1="236.12" y1="44.25" x2="236.12" y2="48.75" stroke-width="1" />
<line x1="201.62" y1="216.38" x2="201.62" y2="208.38" stroke-width="1" />
<line x1="201.62" y1="44.25" x2="201.62" y2="52.25" stroke-width="1" />
<text transform="translate(193.88,27.75) scale(0.69719,-0.7) " font-family="Helvetica,sans-serif" font-size="20px" stroke="none" fill="black" >80</text>
<line x1="167.25" y1="216.38" x2="167.25" y2="211.88" stroke-width="1" />
<line x1="167.25" y1="44.25" x2="167.25" y2="48.75" stroke-width="1" />
<line x1="132.75" y1="216.38" x2="132.75" y2="208.38" stroke-width="1" />
<line x1="132.75" y1="44.25" x2="132.75" y2="52.25" stroke-width="1" />
<text transform="translate(125,27.75) scale(0.69719,-0.7) " font-family="Helvetica,sans-serif" font-size="20px" stroke="none" fill="black" >40</text>
<line x1="98.379" y1="216.38" x2="98.379" y2="211.88" stroke-width="1" />
<line x1="98.379" y1="44.25" x2="98.379" y2="48.75" stroke-width="1" />
<line x1="63.879" y1="216.38" x2="63.879" y2="208.38" stroke-width="1" />
<line x1="63.879" y1="44.25" x2="63.879" y2="52.25" stroke-width="1" />
<text transform="translate(60,27.75) scale(0.69719,-0.7) " font-family="Helvetica,sans-serif" font-size="20px" stroke="none" fill="black" >0</text>
<text transform="translate(144.38,4) scale(0.89995,-0.9) " font-family="Helvetica,sans-serif" font-size="20px" stroke="none" fill="black" >temps (s.)</text>
<polyline points="63.879,211.38 72.5,209 81.117,210.12 89.75,49.25 98.379,62 106.88,63.5 115.5,67.621 124.12,67.883 132.75,69.621 141.38,71.883 150,74.883 158.62,75.5 167.25,73.5 175.88,77 184.5,77.383 193,76.121 201.62,80.5 210.25,87.121 218.88,82.5 227.5,88.5 236.12,85.621 244.75,95.25 253.38,100.88 262,112.75 270.5,108.62 279.12,106.75 287.75,106.12 296.38,106.5 305,108.25 305,108.25 " stroke="#3d983d" stroke-width="1" />
<path d="M66.629,211.38 L66.625,211.24 L66.615,211.1 L66.597,210.96 L66.573,210.83 L66.542,210.7 L66.505,210.57 L66.462,210.44 L66.412,210.31 L66.357,210.19 L66.296,210.07 L66.23,209.96 L66.158,209.85 L66.082,209.74 L66,209.63 L65.913,209.54 L65.822,209.44 L65.727,209.35 L65.627,209.26 L65.523,209.18 L65.415,209.1 L65.303,209.03 L65.188,208.97 L65.07,208.9 L64.948,208.85 L64.823,208.8 L64.695,208.76 L64.565,208.72 L64.432,208.69 L64.297,208.66 L64.16,208.65 L64.02,208.64 L63.879,208.63 C62.363,208.63,61.129,209.87,61.129,211.38 C61.129,212.9,62.363,214.13,63.879,214.13 C65.395,214.13,66.629,212.9,66.629,211.38 Z " stroke="#3d983d" stroke-width="0.5" />
<line x1="63.879" y1="212.62" x2="63.879" y2="210" stroke="#3d983d" stroke-width="0.5" />
<line x1="62.617" y1="211.38" x2="65.25" y2="211.38" stroke="#3d983d" stroke-width="0.5" />
<path d="M75.25,209 L75.246,208.86 L75.236,208.72 L75.218,208.58 L75.194,208.45 L75.163,208.31 L75.126,208.18 L75.083,208.06 L75.033,207.93 L74.978,207.81 L74.917,207.69 L74.851,207.58 L74.78,207.46 L74.703,207.36 L74.621,207.25 L74.534,207.15 L74.443,207.06 L74.348,206.97 L74.248,206.88 L74.144,206.8 L74.036,206.72 L73.925,206.65 L73.809,206.58 L73.691,206.52 L73.569,206.47 L73.444,206.42 L73.317,206.37 L73.186,206.34 L73.053,206.31 L72.918,206.28 L72.781,206.26 L72.641,206.25 L72.5,206.25 C70.984,206.25,69.75,207.48,69.75,209 C69.75,210.52,70.984,211.75,72.5,211.75 C74.016,211.75,75.25,210.52,75.25,209 Z " stroke="#3d983d" stroke-width="0.5" />
<line x1="72.5" y1="210.25" x2="72.5" y2="207.62" stroke="#3d983d" stroke-width="0.5" />
<line x1="71.25" y1="209" x2="73.879" y2="209" stroke="#3d983d" stroke-width="0.5" />
<path d="M83.867,210.12 L83.864,209.98 L83.853,209.84 L83.835,209.7 L83.811,209.57 L83.78,209.43 L83.743,209.3 L83.7,209.18 L83.651,209.05 L83.595,208.93 L83.535,208.81 L83.468,208.7 L83.397,208.58 L83.32,208.48 L83.238,208.37 L83.152,208.27 L83.061,208.18 L82.965,208.09 L82.865,208 L82.761,207.92 L82.653,207.84 L82.542,207.77 L82.427,207.7 L82.308,207.64 L82.186,207.59 L82.061,207.54 L81.934,207.49 L81.803,207.46 L81.671,207.43 L81.535,207.4 L81.398,207.39 L81.258,207.37 L81.117,207.37 C79.602,207.37,78.367,208.6,78.367,210.12 C78.367,211.64,79.602,212.87,81.117,212.87 C82.633,212.87,83.867,211.64,83.867,210.12 Z " stroke="#3d983d" stroke-width="0.5" />
<line x1="81.117" y1="211.38" x2="81.117" y2="208.75" stroke="#3d983d" stroke-width="0.5" />
<line x1="79.879" y1="210.12" x2="82.5" y2="210.12" stroke="#3d983d" stroke-width="0.5" />
<path d="M92.5,49.25 L92.496,49.109 L92.486,48.969 L92.468,48.832 L92.444,48.697 L92.413,48.564 L92.376,48.433 L92.333,48.306 L92.283,48.181 L92.228,48.059 L92.167,47.941 L92.101,47.825 L92.03,47.714 L91.953,47.606 L91.871,47.502 L91.784,47.402 L91.693,47.307 L91.598,47.216 L91.498,47.129 L91.394,47.047 L91.286,46.97 L91.175,46.899 L91.059,46.833 L90.941,46.772 L90.819,46.717 L90.694,46.667 L90.567,46.624 L90.436,46.587 L90.303,46.556 L90.168,46.532 L90.031,46.514 L89.891,46.504 L89.75,46.5 C88.234,46.5,87,47.734,87,49.25 C87,50.766,88.234,52,89.75,52 C91.266,52,92.5,50.766,92.5,49.25 Z " stroke="#3d983d" stroke-width="0.5" />
<line x1="89.75" y1="50.5" x2="89.75" y2="47.883" stroke="#3d983d" stroke-width="0.5" />
<line x1="88.5" y1="49.25" x2="91.117" y2="49.25" stroke="#3d983d" stroke-width="0.5" />
<path d="M101.13,62 L101.13,61.859 L101.11,61.719 L101.1,61.582 L101.07,61.447 L101.04,61.314 L101.01,61.183 L100.96,61.056 L100.91,60.931 L100.86,60.809 L100.8,60.691 L100.73,60.575 L100.66,60.464 L100.58,60.356 L100.5,60.252 L100.41,60.152 L100.32,60.057 L100.23,59.966 L100.13,59.879 L100.02,59.797 L99.915,59.72 L99.803,59.649 L99.688,59.583 L99.57,59.522 L99.448,59.467 L99.323,59.417 L99.195,59.374 L99.065,59.337 L98.932,59.306 L98.797,59.282 L98.66,59.264 L98.52,59.254 L98.379,59.25 C96.863,59.25,95.629,60.484,95.629,62 C95.629,63.516,96.863,64.75,98.379,64.75 C99.895,64.75,101.13,63.516,101.13,62 Z " stroke="#3d983d" stroke-width="0.5" />
<line x1="98.379" y1="63.25" x2="98.379" y2="60.621" stroke="#3d983d" stroke-width="0.5" />
<line x1="97.117" y1="62" x2="99.75" y2="62" stroke="#3d983d" stroke-width="0.5" />
<path d="M109.63,63.5 L109.63,63.359 L109.61,63.219 L109.6,63.082 L109.57,62.947 L109.54,62.814 L109.51,62.683 L109.46,62.556 L109.41,62.431 L109.36,62.309 L109.3,62.191 L109.23,62.075 L109.16,61.964 L109.08,61.856 L109,61.752 L108.91,61.652 L108.82,61.557 L108.73,61.466 L108.63,61.379 L108.52,61.297 L108.42,61.22 L108.3,61.149 L108.19,61.083 L108.07,61.022 L107.95,60.967 L107.82,60.917 L107.7,60.874 L107.57,60.837 L107.43,60.806 L107.3,60.782 L107.16,60.764 L107.02,60.754 L106.88,60.75 C105.36,60.75,104.13,61.984,104.13,63.5 C104.13,65.016,105.36,66.25,106.88,66.25 C108.39,66.25,109.63,65.016,109.63,63.5 Z " stroke="#3d983d" stroke-width="0.5" />
<line x1="106.88" y1="64.75" x2="106.88" y2="62.121" stroke="#3d983d" stroke-width="0.5" />
<line x1="105.62" y1="63.5" x2="108.25" y2="63.5" stroke="#3d983d" stroke-width="0.5" />
<path d="M118.25,67.621 L118.25,67.48 L118.24,67.34 L118.22,67.203 L118.19,67.068 L118.16,66.935 L118.13,66.805 L118.08,66.677 L118.03,66.552 L117.98,66.43 L117.92,66.312 L117.85,66.197 L117.78,66.085 L117.7,65.977 L117.62,65.873 L117.53,65.773 L117.44,65.678 L117.35,65.587 L117.25,65.5 L117.14,65.418 L117.04,65.342 L116.92,65.27 L116.81,65.204 L116.69,65.143 L116.57,65.088 L116.44,65.038 L116.32,64.995 L116.19,64.958 L116.05,64.927 L115.92,64.903 L115.78,64.885 L115.64,64.875 L115.5,64.871 C113.98,64.871,112.75,66.105,112.75,67.621 C112.75,69.137,113.98,70.371,115.5,70.371 C117.02,70.371,118.25,69.137,118.25,67.621 Z " stroke="#3d983d" stroke-width="0.5" />
<line x1="115.5" y1="68.883" x2="115.5" y2="66.25" stroke="#3d983d" stroke-width="0.5" />
<line x1="114.25" y1="67.621" x2="116.88" y2="67.621" stroke="#3d983d" stroke-width="0.5" />
<path d="M126.87,67.883 L126.86,67.742 L126.85,67.602 L126.84,67.465 L126.81,67.329 L126.78,67.197 L126.74,67.066 L126.7,66.939 L126.65,66.814 L126.6,66.692 L126.53,66.573 L126.47,66.458 L126.4,66.347 L126.32,66.239 L126.24,66.135 L126.15,66.035 L126.06,65.939 L125.96,65.848 L125.87,65.762 L125.76,65.68 L125.65,65.603 L125.54,65.532 L125.43,65.465 L125.31,65.405 L125.19,65.349 L125.06,65.3 L124.93,65.257 L124.8,65.22 L124.67,65.189 L124.54,65.165 L124.4,65.147 L124.26,65.136 L124.12,65.133 C122.6,65.133,121.37,66.367,121.37,67.883 C121.37,69.398,122.6,70.633,124.12,70.633 C125.63,70.633,126.87,69.398,126.87,67.883 Z " stroke="#3d983d" stroke-width="0.5" />
<line x1="124.12" y1="69.121" x2="124.12" y2="66.5" stroke="#3d983d" stroke-width="0.5" />
<line x1="122.88" y1="67.883" x2="125.5" y2="67.883" stroke="#3d983d" stroke-width="0.5" />
<path d="M135.5,69.621 L135.5,69.48 L135.49,69.34 L135.47,69.203 L135.44,69.068 L135.41,68.935 L135.38,68.805 L135.33,68.677 L135.28,68.552 L135.23,68.43 L135.17,68.312 L135.1,68.197 L135.03,68.085 L134.95,67.977 L134.87,67.873 L134.78,67.773 L134.69,67.678 L134.6,67.587 L134.5,67.5 L134.39,67.418 L134.29,67.342 L134.17,67.27 L134.06,67.204 L133.94,67.143 L133.82,67.088 L133.69,67.038 L133.57,66.995 L133.44,66.958 L133.3,66.927 L133.17,66.903 L133.03,66.885 L132.89,66.875 L132.75,66.871 C131.23,66.871,130,68.105,130,69.621 C130,71.137,131.23,72.371,132.75,72.371 C134.27,72.371,135.5,71.137,135.5,69.621 Z " stroke="#3d983d" stroke-width="0.5" />
<line x1="132.75" y1="70.883" x2="132.75" y2="68.25" stroke="#3d983d" stroke-width="0.5" />
<line x1="131.5" y1="69.621" x2="134.12" y2="69.621" stroke="#3d983d" stroke-width="0.5" />
<path d="M144.13,71.883 L144.13,71.742 L144.11,71.602 L144.1,71.465 L144.07,71.329 L144.04,71.197 L144.01,71.066 L143.96,70.939 L143.91,70.814 L143.86,70.692 L143.8,70.573 L143.73,70.458 L143.66,70.347 L143.58,70.239 L143.5,70.135 L143.41,70.035 L143.32,69.939 L143.23,69.848 L143.13,69.762 L143.02,69.68 L142.92,69.603 L142.8,69.532 L142.69,69.465 L142.57,69.405 L142.45,69.349 L142.32,69.3 L142.2,69.257 L142.07,69.22 L141.93,69.189 L141.8,69.165 L141.66,69.147 L141.52,69.136 L141.38,69.133 C139.86,69.133,138.63,70.367,138.63,71.883 C138.63,73.398,139.86,74.633,141.38,74.633 C142.9,74.633,144.13,73.398,144.13,71.883 Z " stroke="#3d983d" stroke-width="0.5" />
<line x1="141.38" y1="73.121" x2="141.38" y2="70.5" stroke="#3d983d" stroke-width="0.5" />
<line x1="140.12" y1="71.883" x2="142.75" y2="71.883" stroke="#3d983d" stroke-width="0.5" />
<path d="M152.75,74.883 L152.75,74.742 L152.74,74.602 L152.72,74.465 L152.69,74.329 L152.66,74.197 L152.63,74.066 L152.58,73.939 L152.53,73.814 L152.48,73.692 L152.42,73.573 L152.35,73.458 L152.28,73.347 L152.2,73.239 L152.12,73.135 L152.03,73.035 L151.94,72.939 L151.85,72.848 L151.75,72.762 L151.64,72.68 L151.54,72.603 L151.42,72.532 L151.31,72.465 L151.19,72.405 L151.07,72.349 L150.94,72.3 L150.82,72.257 L150.69,72.22 L150.55,72.189 L150.42,72.165 L150.28,72.147 L150.14,72.136 L150,72.133 C148.48,72.133,147.25,73.367,147.25,74.883 C147.25,76.398,148.48,77.633,150,77.633 C151.52,77.633,152.75,76.398,152.75,74.883 Z " stroke="#3d983d" stroke-width="0.5" />
<line x1="150" y1="76.121" x2="150" y2="73.5" stroke="#3d983d" stroke-width="0.5" />
<line x1="148.75" y1="74.883" x2="151.38" y2="74.883" stroke="#3d983d" stroke-width="0.5" />
<path d="M161.37,75.5 L161.36,75.359 L161.35,75.219 L161.34,75.082 L161.31,74.947 L161.28,74.814 L161.24,74.683 L161.2,74.556 L161.15,74.431 L161.1,74.309 L161.03,74.191 L160.97,74.075 L160.9,73.964 L160.82,73.856 L160.74,73.752 L160.65,73.652 L160.56,73.557 L160.46,73.466 L160.37,73.379 L160.26,73.297 L160.15,73.22 L160.04,73.149 L159.93,73.083 L159.81,73.022 L159.69,72.967 L159.56,72.917 L159.43,72.874 L159.3,72.837 L159.17,72.806 L159.04,72.782 L158.9,72.764 L158.76,72.754 L158.62,72.75 C157.1,72.75,155.87,73.984,155.87,75.5 C155.87,77.016,157.1,78.25,158.62,78.25 C160.13,78.25,161.37,77.016,161.37,75.5 Z " stroke="#3d983d" stroke-width="0.5" />
<line x1="158.62" y1="76.75" x2="158.62" y2="74.121" stroke="#3d983d" stroke-width="0.5" />
<line x1="157.38" y1="75.5" x2="160" y2="75.5" stroke="#3d983d" stroke-width="0.5" />
<path d="M170,73.5 L170,73.359 L169.99,73.219 L169.97,73.082 L169.94,72.947 L169.91,72.814 L169.88,72.683 L169.83,72.556 L169.78,72.431 L169.73,72.309 L169.67,72.191 L169.6,72.075 L169.53,71.964 L169.45,71.856 L169.37,71.752 L169.28,71.652 L169.19,71.557 L169.1,71.466 L169,71.379 L168.89,71.297 L168.79,71.22 L168.67,71.149 L168.56,71.083 L168.44,71.022 L168.32,70.967 L168.19,70.917 L168.07,70.874 L167.94,70.837 L167.8,70.806 L167.67,70.782 L167.53,70.764 L167.39,70.754 L167.25,70.75 C165.73,70.75,164.5,71.984,164.5,73.5 C164.5,75.016,165.73,76.25,167.25,76.25 C168.77,76.25,170,75.016,170,73.5 Z " stroke="#3d983d" stroke-width="0.5" />
<line x1="167.25" y1="74.75" x2="167.25" y2="72.121" stroke="#3d983d" stroke-width="0.5" />
<line x1="166" y1="73.5" x2="168.62" y2="73.5" stroke="#3d983d" stroke-width="0.5" />
<path d="M178.63,77 L178.63,76.859 L178.61,76.719 L178.6,76.582 L178.57,76.447 L178.54,76.314 L178.51,76.183 L178.46,76.056 L178.41,75.931 L178.36,75.809 L178.3,75.691 L178.23,75.575 L178.16,75.464 L178.08,75.356 L178,75.252 L177.91,75.152 L177.82,75.057 L177.73,74.966 L177.63,74.879 L177.52,74.797 L177.42,74.72 L177.3,74.649 L177.19,74.583 L177.07,74.522 L176.95,74.467 L176.82,74.417 L176.7,74.374 L176.57,74.337 L176.43,74.306 L176.3,74.282 L176.16,74.264 L176.02,74.254 L175.88,74.25 C174.36,74.25,173.13,75.484,173.13,77 C173.13,78.516,174.36,79.75,175.88,79.75 C177.4,79.75,178.63,78.516,178.63,77 Z " stroke="#3d983d" stroke-width="0.5" />
<line x1="175.88" y1="78.25" x2="175.88" y2="75.621" stroke="#3d983d" stroke-width="0.5" />
<line x1="174.62" y1="77" x2="177.25" y2="77" stroke="#3d983d" stroke-width="0.5" />
<path d="M187.25,77.383 L187.25,77.242 L187.24,77.102 L187.22,76.965 L187.19,76.829 L187.16,76.697 L187.13,76.566 L187.08,76.439 L187.03,76.314 L186.98,76.192 L186.92,76.073 L186.85,75.958 L186.78,75.847 L186.7,75.739 L186.62,75.635 L186.53,75.535 L186.44,75.439 L186.35,75.348 L186.25,75.262 L186.14,75.18 L186.04,75.103 L185.92,75.032 L185.81,74.965 L185.69,74.905 L185.57,74.849 L185.44,74.8 L185.32,74.757 L185.19,74.72 L185.05,74.689 L184.92,74.665 L184.78,74.647 L184.64,74.636 L184.5,74.633 C182.98,74.633,181.75,75.867,181.75,77.383 C181.75,78.898,182.98,80.133,184.5,80.133 C186.02,80.133,187.25,78.898,187.25,77.383 Z " stroke="#3d983d" stroke-width="0.5" />
<line x1="184.5" y1="78.621" x2="184.5" y2="76" stroke="#3d983d" stroke-width="0.5" />
<line x1="183.25" y1="77.383" x2="185.88" y2="77.383" stroke="#3d983d" stroke-width="0.5" />
<path d="M195.75,76.121 L195.75,75.98 L195.74,75.84 L195.72,75.703 L195.69,75.568 L195.66,75.435 L195.63,75.305 L195.58,75.177 L195.53,75.052 L195.48,74.93 L195.42,74.812 L195.35,74.697 L195.28,74.585 L195.2,74.477 L195.12,74.373 L195.03,74.273 L194.94,74.178 L194.85,74.087 L194.75,74 L194.64,73.918 L194.54,73.842 L194.42,73.77 L194.31,73.704 L194.19,73.643 L194.07,73.588 L193.94,73.538 L193.82,73.495 L193.69,73.458 L193.55,73.427 L193.42,73.403 L193.28,73.385 L193.14,73.375 L193,73.371 C191.48,73.371,190.25,74.605,190.25,76.121 C190.25,77.637,191.48,78.871,193,78.871 C194.52,78.871,195.75,77.637,195.75,76.121 Z " stroke="#3d983d" stroke-width="0.5" />
<line x1="193" y1="77.383" x2="193" y2="74.75" stroke="#3d983d" stroke-width="0.5" />
<line x1="191.75" y1="76.121" x2="194.38" y2="76.121" stroke="#3d983d" stroke-width="0.5" />
<path d="M204.37,80.5 L204.36,80.359 L204.35,80.219 L204.34,80.082 L204.31,79.947 L204.28,79.814 L204.24,79.683 L204.2,79.556 L204.15,79.431 L204.1,79.309 L204.03,79.191 L203.97,79.075 L203.9,78.964 L203.82,78.856 L203.74,78.752 L203.65,78.652 L203.56,78.557 L203.46,78.466 L203.37,78.379 L203.26,78.297 L203.15,78.22 L203.04,78.149 L202.93,78.083 L202.81,78.022 L202.69,77.967 L202.56,77.917 L202.43,77.874 L202.3,77.837 L202.17,77.806 L202.04,77.782 L201.9,77.764 L201.76,77.754 L201.62,77.75 C200.1,77.75,198.87,78.984,198.87,80.5 C198.87,82.016,200.1,83.25,201.62,83.25 C203.13,83.25,204.37,82.016,204.37,80.5 Z " stroke="#3d983d" stroke-width="0.5" />
<line x1="201.62" y1="81.75" x2="201.62" y2="79.121" stroke="#3d983d" stroke-width="0.5" />
<line x1="200.38" y1="80.5" x2="203" y2="80.5" stroke="#3d983d" stroke-width="0.5" />
<path d="M213,87.121 L213,86.98 L212.99,86.84 L212.97,86.703 L212.94,86.568 L212.91,86.435 L212.88,86.305 L212.83,86.177 L212.78,86.052 L212.73,85.93 L212.67,85.812 L212.6,85.697 L212.53,85.585 L212.45,85.477 L212.37,85.373 L212.28,85.273 L212.19,85.178 L212.1,85.087 L212,85 L211.89,84.918 L211.79,84.842 L211.67,84.77 L211.56,84.704 L211.44,84.643 L211.32,84.588 L211.19,84.538 L211.07,84.495 L210.94,84.458 L210.8,84.427 L210.67,84.403 L210.53,84.385 L210.39,84.375 L210.25,84.371 C208.73,84.371,207.5,85.605,207.5,87.121 C207.5,88.637,208.73,89.871,210.25,89.871 C211.77,89.871,213,88.637,213,87.121 Z " stroke="#3d983d" stroke-width="0.5" />
<line x1="210.25" y1="88.383" x2="210.25" y2="85.75" stroke="#3d983d" stroke-width="0.5" />
<line x1="209" y1="87.121" x2="211.62" y2="87.121" stroke="#3d983d" stroke-width="0.5" />
<path d="M221.63,82.5 L221.63,82.359 L221.61,82.219 L221.6,82.082 L221.57,81.947 L221.54,81.814 L221.51,81.683 L221.46,81.556 L221.41,81.431 L221.36,81.309 L221.3,81.191 L221.23,81.075 L221.16,80.964 L221.08,80.856 L221,80.752 L220.91,80.652 L220.82,80.557 L220.73,80.466 L220.63,80.379 L220.52,80.297 L220.42,80.22 L220.3,80.149 L220.19,80.083 L220.07,80.022 L219.95,79.967 L219.82,79.917 L219.7,79.874 L219.57,79.837 L219.43,79.806 L219.3,79.782 L219.16,79.764 L219.02,79.754 L218.88,79.75 C217.36,79.75,216.13,80.984,216.13,82.5 C216.13,84.016,217.36,85.25,218.88,85.25 C220.4,85.25,221.63,84.016,221.63,82.5 Z " stroke="#3d983d" stroke-width="0.5" />
<line x1="218.88" y1="83.75" x2="218.88" y2="81.121" stroke="#3d983d" stroke-width="0.5" />
<line x1="217.62" y1="82.5" x2="220.25" y2="82.5" stroke="#3d983d" stroke-width="0.5" />
<path d="M230.25,88.5 L230.25,88.359 L230.24,88.219 L230.22,88.082 L230.19,87.947 L230.16,87.814 L230.13,87.683 L230.08,87.556 L230.03,87.431 L229.98,87.309 L229.92,87.191 L229.85,87.075 L229.78,86.964 L229.7,86.856 L229.62,86.752 L229.53,86.652 L229.44,86.557 L229.35,86.466 L229.25,86.379 L229.14,86.297 L229.04,86.22 L228.92,86.149 L228.81,86.083 L228.69,86.022 L228.57,85.967 L228.44,85.917 L228.32,85.874 L228.19,85.837 L228.05,85.806 L227.92,85.782 L227.78,85.764 L227.64,85.754 L227.5,85.75 C225.98,85.75,224.75,86.984,224.75,88.5 C224.75,90.016,225.98,91.25,227.5,91.25 C229.02,91.25,230.25,90.016,230.25,88.5 Z " stroke="#3d983d" stroke-width="0.5" />
<line x1="227.5" y1="89.75" x2="227.5" y2="87.121" stroke="#3d983d" stroke-width="0.5" />
<line x1="226.25" y1="88.5" x2="228.88" y2="88.5" stroke="#3d983d" stroke-width="0.5" />
<path d="M238.87,85.621 L238.86,85.48 L238.85,85.34 L238.84,85.203 L238.81,85.068 L238.78,84.935 L238.74,84.805 L238.7,84.677 L238.65,84.552 L238.6,84.43 L238.53,84.312 L238.47,84.197 L238.4,84.085 L238.32,83.977 L238.24,83.873 L238.15,83.773 L238.06,83.678 L237.96,83.587 L237.87,83.5 L237.76,83.418 L237.65,83.342 L237.54,83.27 L237.43,83.204 L237.31,83.143 L237.19,83.088 L237.06,83.038 L236.93,82.995 L236.8,82.958 L236.67,82.927 L236.54,82.903 L236.4,82.885 L236.26,82.875 L236.12,82.871 C234.6,82.871,233.37,84.105,233.37,85.621 C233.37,87.137,234.6,88.371,236.12,88.371 C237.63,88.371,238.87,87.137,238.87,85.621 Z " stroke="#3d983d" stroke-width="0.5" />
<line x1="236.12" y1="86.883" x2="236.12" y2="84.25" stroke="#3d983d" stroke-width="0.5" />
<line x1="234.88" y1="85.621" x2="237.5" y2="85.621" stroke="#3d983d" stroke-width="0.5" />
<path d="M247.5,95.25 L247.5,95.109 L247.49,94.969 L247.47,94.832 L247.44,94.697 L247.41,94.564 L247.38,94.433 L247.33,94.306 L247.28,94.181 L247.23,94.059 L247.17,93.941 L247.1,93.825 L247.03,93.714 L246.95,93.606 L246.87,93.502 L246.78,93.402 L246.69,93.307 L246.6,93.216 L246.5,93.129 L246.39,93.047 L246.29,92.97 L246.17,92.899 L246.06,92.833 L245.94,92.772 L245.82,92.717 L245.69,92.667 L245.57,92.624 L245.44,92.587 L245.3,92.556 L245.17,92.532 L245.03,92.514 L244.89,92.504 L244.75,92.5 C243.23,92.5,242,93.734,242,95.25 C242,96.766,243.23,98,244.75,98 C246.27,98,247.5,96.766,247.5,95.25 Z " stroke="#3d983d" stroke-width="0.5" />
<line x1="244.75" y1="96.5" x2="244.75" y2="93.883" stroke="#3d983d" stroke-width="0.5" />
<line x1="243.5" y1="95.25" x2="246.12" y2="95.25" stroke="#3d983d" stroke-width="0.5" />
<path d="M256.13,100.88 L256.13,100.74 L256.11,100.6 L256.1,100.46 L256.07,100.33 L256.04,100.2 L256.01,100.07 L255.96,99.939 L255.91,99.814 L255.86,99.692 L255.8,99.573 L255.73,99.458 L255.66,99.347 L255.58,99.239 L255.5,99.135 L255.41,99.035 L255.32,98.939 L255.23,98.848 L255.13,98.762 L255.02,98.68 L254.92,98.603 L254.8,98.532 L254.69,98.465 L254.57,98.405 L254.45,98.349 L254.32,98.3 L254.2,98.257 L254.07,98.22 L253.93,98.189 L253.8,98.165 L253.66,98.147 L253.52,98.136 L253.38,98.133 C251.86,98.133,250.63,99.367,250.63,100.88 C250.63,102.4,251.86,103.63,253.38,103.63 C254.9,103.63,256.13,102.4,256.13,100.88 Z " stroke="#3d983d" stroke-width="0.5" />
<line x1="253.38" y1="102.12" x2="253.38" y2="99.5" stroke="#3d983d" stroke-width="0.5" />
<line x1="252.12" y1="100.88" x2="254.75" y2="100.88" stroke="#3d983d" stroke-width="0.5" />
<path d="M264.75,112.75 L264.75,112.61 L264.74,112.47 L264.72,112.33 L264.69,112.2 L264.66,112.06 L264.63,111.93 L264.58,111.81 L264.53,111.68 L264.48,111.56 L264.42,111.44 L264.35,111.33 L264.28,111.21 L264.2,111.11 L264.12,111 L264.03,110.9 L263.94,110.81 L263.85,110.72 L263.75,110.63 L263.64,110.55 L263.54,110.47 L263.42,110.4 L263.31,110.33 L263.19,110.27 L263.07,110.22 L262.94,110.17 L262.82,110.12 L262.69,110.09 L262.55,110.06 L262.42,110.03 L262.28,110.01 L262.14,110 L262,110 C260.48,110,259.25,111.23,259.25,112.75 C259.25,114.27,260.48,115.5,262,115.5 C263.52,115.5,264.75,114.27,264.75,112.75 Z " stroke="#3d983d" stroke-width="0.5" />
<line x1="262" y1="114" x2="262" y2="111.38" stroke="#3d983d" stroke-width="0.5" />
<line x1="260.75" y1="112.75" x2="263.38" y2="112.75" stroke="#3d983d" stroke-width="0.5" />
<path d="M273.25,108.62 L273.25,108.48 L273.24,108.34 L273.22,108.2 L273.19,108.07 L273.16,107.93 L273.13,107.8 L273.08,107.68 L273.03,107.55 L272.98,107.43 L272.92,107.31 L272.85,107.2 L272.78,107.08 L272.7,106.98 L272.62,106.87 L272.53,106.77 L272.44,106.68 L272.35,106.59 L272.25,106.5 L272.14,106.42 L272.04,106.34 L271.92,106.27 L271.81,106.2 L271.69,106.14 L271.57,106.09 L271.44,106.04 L271.32,105.99 L271.19,105.96 L271.05,105.93 L270.92,105.9 L270.78,105.89 L270.64,105.87 L270.5,105.87 C268.98,105.87,267.75,107.11,267.75,108.62 C267.75,110.14,268.98,111.37,270.5,111.37 C272.02,111.37,273.25,110.14,273.25,108.62 Z " stroke="#3d983d" stroke-width="0.5" />
<line x1="270.5" y1="109.88" x2="270.5" y2="107.25" stroke="#3d983d" stroke-width="0.5" />
<line x1="269.25" y1="108.62" x2="271.88" y2="108.62" stroke="#3d983d" stroke-width="0.5" />
<path d="M281.87,106.75 L281.86,106.61 L281.85,106.47 L281.84,106.33 L281.81,106.2 L281.78,106.06 L281.74,105.93 L281.7,105.81 L281.65,105.68 L281.6,105.56 L281.53,105.44 L281.47,105.33 L281.4,105.21 L281.32,105.11 L281.24,105 L281.15,104.9 L281.06,104.81 L280.96,104.72 L280.87,104.63 L280.76,104.55 L280.65,104.47 L280.54,104.4 L280.43,104.33 L280.31,104.27 L280.19,104.22 L280.06,104.17 L279.93,104.12 L279.8,104.09 L279.67,104.06 L279.54,104.03 L279.4,104.01 L279.26,104 L279.12,104 C277.6,104,276.37,105.23,276.37,106.75 C276.37,108.27,277.6,109.5,279.12,109.5 C280.63,109.5,281.87,108.27,281.87,106.75 Z " stroke="#3d983d" stroke-width="0.5" />
<line x1="279.12" y1="108" x2="279.12" y2="105.38" stroke="#3d983d" stroke-width="0.5" />
<line x1="277.88" y1="106.75" x2="280.5" y2="106.75" stroke="#3d983d" stroke-width="0.5" />
<path d="M290.5,106.12 L290.5,105.98 L290.49,105.84 L290.47,105.7 L290.44,105.57 L290.41,105.43 L290.38,105.3 L290.33,105.18 L290.28,105.05 L290.23,104.93 L290.17,104.81 L290.1,104.7 L290.03,104.58 L289.95,104.48 L289.87,104.37 L289.78,104.27 L289.69,104.18 L289.6,104.09 L289.5,104 L289.39,103.92 L289.29,103.84 L289.17,103.77 L289.06,103.7 L288.94,103.64 L288.82,103.59 L288.69,103.54 L288.57,103.49 L288.44,103.46 L288.3,103.43 L288.17,103.4 L288.03,103.39 L287.89,103.37 L287.75,103.37 C286.23,103.37,285,104.61,285,106.12 C285,107.64,286.23,108.87,287.75,108.87 C289.27,108.87,290.5,107.64,290.5,106.12 Z " stroke="#3d983d" stroke-width="0.5" />
<line x1="287.75" y1="107.38" x2="287.75" y2="104.75" stroke="#3d983d" stroke-width="0.5" />
<line x1="286.5" y1="106.12" x2="289.12" y2="106.12" stroke="#3d983d" stroke-width="0.5" />
<path d="M299.13,106.5 L299.13,106.36 L299.11,106.22 L299.1,106.08 L299.07,105.95 L299.04,105.81 L299.01,105.68 L298.96,105.56 L298.91,105.43 L298.86,105.31 L298.8,105.19 L298.73,105.08 L298.66,104.96 L298.58,104.86 L298.5,104.75 L298.41,104.65 L298.32,104.56 L298.23,104.47 L298.13,104.38 L298.02,104.3 L297.92,104.22 L297.8,104.15 L297.69,104.08 L297.57,104.02 L297.45,103.97 L297.32,103.92 L297.2,103.87 L297.07,103.84 L296.93,103.81 L296.8,103.78 L296.66,103.76 L296.52,103.75 L296.38,103.75 C294.86,103.75,293.63,104.98,293.63,106.5 C293.63,108.02,294.86,109.25,296.38,109.25 C297.89,109.25,299.13,108.02,299.13,106.5 Z " stroke="#3d983d" stroke-width="0.5" />
<line x1="296.38" y1="107.75" x2="296.38" y2="105.12" stroke="#3d983d" stroke-width="0.5" />
<line x1="295.12" y1="106.5" x2="297.75" y2="106.5" stroke="#3d983d" stroke-width="0.5" />
<path d="M307.75,108.25 L307.75,108.11 L307.74,107.97 L307.72,107.83 L307.69,107.7 L307.66,107.56 L307.63,107.43 L307.58,107.31 L307.53,107.18 L307.48,107.06 L307.42,106.94 L307.35,106.83 L307.28,106.71 L307.2,106.61 L307.12,106.5 L307.03,106.4 L306.94,106.31 L306.85,106.22 L306.75,106.13 L306.64,106.05 L306.54,105.97 L306.42,105.9 L306.31,105.83 L306.19,105.77 L306.07,105.72 L305.94,105.67 L305.82,105.62 L305.69,105.59 L305.55,105.56 L305.42,105.53 L305.28,105.51 L305.14,105.5 L305,105.5 C303.48,105.5,302.25,106.73,302.25,108.25 C302.25,109.77,303.48,111,305,111 C306.52,111,307.75,109.77,307.75,108.25 Z " stroke="#3d983d" stroke-width="0.5" />
<line x1="305" y1="109.5" x2="305" y2="106.88" stroke="#3d983d" stroke-width="0.5" />
<line x1="303.75" y1="108.25" x2="306.38" y2="108.25" stroke="#3d983d" stroke-width="0.5" />
<polyline points="89.75,53.883 91.117,54.5 92.5,55 93.879,55.5 95.25,56 96.617,56.621 98,57.121 99.379,57.621 100.75,58.121 102.12,58.621 103.5,59.121 105,59.621 106.38,60.121 107.75,60.621 109.12,61.121 110.5,61.5 111.88,62 113.25,62.5 114.62,63 116,63.383 117.38,63.883 118.75,64.383 120.12,64.883 121.5,65.25 123,65.75 124.38,66.121 125.75,66.621 127.12,67 128.5,67.5 129.88,67.883 131.25,68.383 132.62,68.75 134,69.121 135.38,69.621 136.75,70 138.12,70.383 139.5,70.883 141,71.25 142.38,71.621 143.75,72 145.12,72.5 146.5,72.883 147.88,73.25 149.25,73.621 150.62,74 152,74.383 153.38,74.75 154.75,75.121 156.12,75.5 157.62,75.883 159,76.25 160.38,76.621 161.75,77 163.12,77.383 164.5,77.75 165.88,78 167.25,78.383 168.62,78.75 170,79.121 171.38,79.5 172.75,79.75 174.12,80.121 175.62,80.5 177,80.75 178.38,81.121 179.75,81.5 181.12,81.75 182.5,82.121 183.88,82.383 185.25,82.75 186.62,83 188,83.383 189.38,83.621 190.75,84 192.12,84.25 193.62,84.621 195,84.883 196.38,85.121 197.75,85.5 199.12,85.75 200.5,86.121 201.88,86.383 203.25,86.621 204.62,86.883 206,87.25 207.38,87.5 208.75,87.75 210.12,88 211.62,88.383 213,88.621 214.38,88.883 215.75,89.121 217.12,89.383 218.5,89.621 219.88,89.883 221.25,90.121 222.62,90.5 224,90.75 225.38,91 226.75,91.25 228.25,91.5 229.62,91.75 231,92 232.38,92.25 233.75,92.5 235.12,92.621 236.5,92.883 237.88,93.121 239.25,93.383 240.62,93.621 242,93.883 243.38,94.121 244.75,94.383 246.25,94.5 247.62,94.75 249,95 250.38,95.25 251.75,95.383 253.12,95.621 254.5,95.883 255.88,96.121 257.25,96.25 258.62,96.5 260,96.75 261.38,96.883 262.75,97.121 264.25,97.383 265.62,97.5 267,97.75 268.38,98 269.75,98.121 271.12,98.383 272.5,98.5 273.88,98.75 275.25,98.883 276.62,99.121 278,99.25 279.38,99.5 280.75,99.621 282.25,99.883 283.62,100 285,100.25 286.38,100.38 287.75,100.62 289.12,100.75 290.5,101 291.88,101.12 293.25,101.25 294.62,101.5 296,101.62 297.38,101.75 298.75,102 300.25,102.12 301.62,102.25 303,102.5 304.38,102.62 305,102.75 " stroke-width="1" />
</g>
</svg>
