<?xml version="1.0" encoding="UTF-8" standalone="no"?>
<!-- Created with Inkscape (http://www.inkscape.org/) -->

<svg
   xmlns:dc="http://purl.org/dc/elements/1.1/"
   xmlns:cc="http://creativecommons.org/ns#"
   xmlns:rdf="http://www.w3.org/1999/02/22-rdf-syntax-ns#"
   xmlns:svg="http://www.w3.org/2000/svg"
   xmlns="http://www.w3.org/2000/svg"
   xmlns:sodipodi="http://sodipodi.sourceforge.net/DTD/sodipodi-0.dtd"
   xmlns:inkscape="http://www.inkscape.org/namespaces/inkscape"
   width="177.16534"
   height="124.01575"
   id="svg8137"
   version="1.1"
   inkscape:version="0.47 r22583"
   sodipodi:docname="merotel_ase1_graph.svg">
  <defs
     id="defs8139">
    <inkscape:perspective
       sodipodi:type="inkscape:persp3d"
       inkscape:vp_x="0 : 526.18109 : 1"
       inkscape:vp_y="0 : 1000 : 0"
       inkscape:vp_z="744.09448 : 526.18109 : 1"
       inkscape:persp3d-origin="372.04724 : 350.78739 : 1"
       id="perspective8145" />
    <inkscape:perspective
       id="perspective8155"
       inkscape:persp3d-origin="0.5 : 0.33333333 : 1"
       inkscape:vp_z="1 : 0.5 : 1"
       inkscape:vp_y="0 : 1000 : 0"
       inkscape:vp_x="0 : 0.5 : 1"
       sodipodi:type="inkscape:persp3d" />
  </defs>
  <sodipodi:namedview
     id="base"
     pagecolor="#ffffff"
     bordercolor="#666666"
     borderopacity="1.0"
     inkscape:pageopacity="0.0"
     inkscape:pageshadow="2"
     inkscape:zoom="1.4"
     inkscape:cx="150.50929"
     inkscape:cy="55.817016"
     inkscape:document-units="px"
     inkscape:current-layer="layer1"
     showgrid="false"
     units="cm"
     inkscape:window-width="1109"
     inkscape:window-height="592"
     inkscape:window-x="0"
     inkscape:window-y="25"
     inkscape:window-maximized="0"
     inkscape:showpageshadow="true"
     borderlayer="true" />
  <metadata
     id="metadata8142">
    <rdf:RDF>
      <cc:Work
         rdf:about="">
        <dc:format>image/svg+xml</dc:format>
        <dc:type
           rdf:resource="http://purl.org/dc/dcmitype/StillImage" />
        <dc:title />
      </cc:Work>
    </rdf:RDF>
  </metadata>
  <g
     inkscape:label="Calque 1"
     inkscape:groupmode="layer"
     id="layer1"
     transform="translate(-146.78051,-496.32304)">
    <g
       transform="matrix(0.83216856,0,0,0.83216856,-245.26275,258.50941)"
       style="font-size:14.42015553px;display:inline"
       id="g8062">
      <g
         transform="matrix(1.25,0,0,-1.25,512.87615,262.66615)"
         id="g4255"
         style="font-size:11.53612423px">
        <path
           id="path4257"
           style="font-size:11.53612423px;fill:#000000;fill-opacity:1;fill-rule:nonzero;stroke:none"
           d="M 0,-23.072249 0.12,-102.06 l -1.02,0 -0.12,78.987751"
           sodipodi:nodetypes="cccc" />
      </g>
      <g
         transform="matrix(1.2515006,0,0,-0.89416368,507.45955,382.08888)"
         id="g4259"
         style="font-size:11.53612423px">
        <path
           id="path4261"
           style="font-size:11.53612423px;fill:#000000;fill-opacity:1;fill-rule:nonzero;stroke:none"
           d="M 0,0 3.78,-0.12 3.72,-1.14 -0.06,-1.02" />
      </g>
      <path
         id="path4267"
         style="font-size:14.42015553px;fill:#000000;fill-opacity:1;fill-rule:nonzero;stroke:none"
         d="m 507.45955,368.94467 4.65558,0 0,-0.8584 -4.65558,0 0,0.8584 z" />
      <text
         style="font-size:14.42015553px"
         y="372.91016"
         x="492.6123"
         id="text4269">
        <tspan
           id="tspan4271"
           sodipodi:role="line"
           y="372.91016"
           x="492.6123 497.18683"
           style="font-size:14.42015553px;font-variant:normal;font-weight:normal;font-stretch:normal;writing-mode:lr-tb;fill:#000000;fill-opacity:1;fill-rule:nonzero;stroke:none;font-family:Arial;-inkscape-font-specification:ArialMT">-2</tspan>
      </text>
      <path
         id="path4273"
         style="font-size:14.42015553px;fill:#000000;fill-opacity:1;fill-rule:nonzero;stroke:none"
         d="m 507.45955,354.94207 4.65558,0 0,-0.8584 -4.65558,0 0,0.8584 z" />
      <path
         id="path4279"
         style="font-size:14.42015553px;fill:#000000;fill-opacity:1;fill-rule:nonzero;stroke:none"
         d="m 507.45955,340.93946 4.65558,0 0,-0.85839 -4.65558,0 0,0.85839 z" />
      <text
         style="font-size:14.42015553px"
         y="344.83508"
         x="496.00116"
         id="text4281">
        <tspan
           id="tspan4283"
           y="344.83508"
           x="496.00116"
           style="font-size:14.42015553px;font-variant:normal;font-weight:normal;font-stretch:normal;writing-mode:lr-tb;fill:#000000;fill-opacity:1;fill-rule:nonzero;stroke:none;font-family:Arial;-inkscape-font-specification:ArialMT">0</tspan>
      </text>
      <path
         id="path4285"
         style="font-size:14.42015553px;fill:#000000;fill-opacity:1;fill-rule:nonzero;stroke:none"
         d="m 507.45955,326.93686 4.65558,0 0,-0.91205 -4.65558,0 0,0.91205 z" />
      <path
         id="path4291"
         style="font-size:14.42015553px;fill:#000000;fill-opacity:1;fill-rule:nonzero;stroke:none"
         d="m 507.45955,312.93426 4.65558,0 0,-0.91205 -4.65558,0 0,0.91205 z" />
      <text
         style="font-size:14.42015553px"
         y="317.97388"
         x="496.00116"
         id="text4293">
        <tspan
           id="tspan4295"
           y="317.97388"
           x="496.00116"
           style="font-size:14.42015553px;font-variant:normal;font-weight:normal;font-stretch:normal;writing-mode:lr-tb;fill:#000000;fill-opacity:1;fill-rule:nonzero;stroke:none;font-family:Arial;-inkscape-font-specification:ArialMT">2</tspan>
      </text>
      <g
         transform="matrix(1.2515006,0,0,-0.89416368,507.23429,297.91231)"
         id="g4297"
         style="font-size:11.53612423px">
        <path
           id="path4299"
           style="font-size:11.53612423px;fill:#000000;fill-opacity:1;fill-rule:nonzero;stroke:none"
           d="m 0,0 3.72,-0.12 0,-1.02 -3.78,0.12" />
      </g>
      <g
         transform="matrix(1.25,0,0,-1.25,509.42617,387.76613)"
         id="g4305"
         style="font-size:11.53612423px">
        <path
           id="path4307"
           style="font-size:11.53612423px;fill:#000000;fill-opacity:1;fill-rule:nonzero;stroke:none"
           d="m 0,0 119.34,-0.18 0,-0.96 L 0,-1.02" />
      </g>
      <path
         id="path4309"
         style="font-size:14.42015553px;fill:#000000;fill-opacity:1;fill-rule:nonzero;stroke:none"
         d="m 658.45117,393.24114 1.275,0 0,-4.8 -1.275,0 0,4.8 z" />
      <text
         style="font-size:14.42015553px"
         y="409.59076"
         x="646.75116"
         id="text4311">
        <tspan
           id="tspan4313"
           sodipodi:role="line"
           y="409.59076"
           x="646.75116 654.39874 662.04633"
           style="font-size:14.42015553px;font-variant:normal;font-weight:normal;font-stretch:normal;writing-mode:lr-tb;fill:#000000;fill-opacity:1;fill-rule:nonzero;stroke:none;font-family:Arial;-inkscape-font-specification:ArialMT">600</tspan>
      </text>
      <g
         transform="matrix(1.25,0,0,-1.25,635.35117,388.44114)"
         id="g4315"
         style="font-size:11.53612423px">
        <path
           id="path4317"
           style="font-size:11.53612423px;fill:#000000;fill-opacity:1;fill-rule:nonzero;stroke:none"
           d="M 0,0 0.12,-3.84 -0.9,-3.9 -1.02,0" />
      </g>
      <g
         transform="matrix(1.25,0,0,-1.25,610.97617,388.44114)"
         id="g4319"
         style="font-size:11.53612423px">
        <path
           id="path4321"
           style="font-size:11.53612423px;fill:#000000;fill-opacity:1;fill-rule:nonzero;stroke:none"
           d="M 0,0 0.12,-3.84 -0.9,-3.9 -1.02,0" />
      </g>
      <text
         style="font-size:14.42015553px"
         y="409.59076"
         x="598.15118"
         id="text4323">
        <tspan
           id="tspan4325"
           sodipodi:role="line"
           y="409.59076"
           x="598.15118 605.79877 613.44629"
           style="font-size:14.42015553px;font-variant:normal;font-weight:normal;font-stretch:normal;writing-mode:lr-tb;fill:#000000;fill-opacity:1;fill-rule:nonzero;stroke:none;font-family:Arial;-inkscape-font-specification:ArialMT">400</tspan>
      </text>
      <path
         id="path4327"
         style="font-size:14.42015553px;fill:#000000;fill-opacity:1;fill-rule:nonzero;stroke:none"
         d="m 585.32617,393.24114 1.275,0 0,-4.8 -1.275,0 0,4.8 z" />
      <path
         id="path4329"
         style="font-size:14.42015553px;fill:#000000;fill-opacity:1;fill-rule:nonzero;stroke:none"
         d="m 560.95117,393.24114 1.275,0 0,-4.8 -1.275,0 0,4.8 z" />
      <text
         style="font-size:14.42015553px"
         y="409.59076"
         x="549.8512"
         id="text4331">
        <tspan
           id="tspan4333"
           sodipodi:role="line"
           y="409.59076"
           x="549.8512 557.49872 565.1463"
           style="font-size:14.42015553px;font-variant:normal;font-weight:normal;font-stretch:normal;writing-mode:lr-tb;fill:#000000;fill-opacity:1;fill-rule:nonzero;stroke:none;font-family:Arial;-inkscape-font-specification:ArialMT">200</tspan>
      </text>
      <path
         id="path4335"
         style="font-size:14.42015553px;fill:#000000;fill-opacity:1;fill-rule:nonzero;stroke:none"
         d="m 536.42617,393.24114 1.275,0 0,-4.8 -1.275,0 0,4.8 z" />
      <path
         id="path4337"
         style="font-size:14.42015553px;fill:#000000;fill-opacity:1;fill-rule:nonzero;stroke:none"
         d="m 511.90117,393.24114 1.275,0 0,-4.8 -1.275,0 0,4.8 z" />
      <text
         style="font-size:14.42015553px"
         y="409.59076"
         x="508.75116"
         id="text4339">
        <tspan
           id="tspan4341"
           y="409.59076"
           x="508.75116"
           style="font-size:14.42015553px;font-variant:normal;font-weight:normal;font-stretch:normal;writing-mode:lr-tb;fill:#000000;fill-opacity:1;fill-rule:nonzero;stroke:none;font-family:Arial;-inkscape-font-specification:ArialMT">0</tspan>
      </text>
      <text
         style="font-size:14.42015553px;font-family:FreeSans;-inkscape-font-specification:FreeSans"
         y="486.01373"
         x="-385.03677"
         id="text4343"
         transform="matrix(0,-1,1,0,0,0)">
        <tspan
           id="tspan4345"
           sodipodi:role="line"
           y="486.01373"
           x="-385.03677 -374.20978 -370.88278 -363.38577 -359.21878 -350.88177 -342.54477 -335.04776 -326.71075 -322.73276 -317.74078 -309.10376 -296.61179"
           style="font-size:14.42015553px;font-variant:normal;font-weight:normal;font-stretch:normal;writing-mode:lr-tb;fill:#000000;fill-opacity:1;fill-rule:nonzero;stroke:none;font-family:FreeSans;-inkscape-font-specification:FreeSans">Distance (µm)</tspan>
      </text>
      <text
         style="font-size:14.42015553px;font-family:FreeSans;-inkscape-font-specification:FreeSans"
         y="426.89075"
         x="550.82617"
         id="text4347">
        <tspan
           id="tspan4349"
           sodipodi:role="line"
           y="426.89075"
           x="550.82617 554.99915 558.33215 570.8302"
           style="font-size:14.42015553px;font-variant:normal;font-weight:normal;font-stretch:normal;writing-mode:lr-tb;fill:#000000;fill-opacity:1;fill-rule:nonzero;stroke:none;font-family:FreeSans;-inkscape-font-specification:FreeSans">time (s.)</tspan>
      </text>
      <path
         id="path4363"
         style="font-size:14.42015553px;fill:#ff0000;fill-opacity:1;fill-rule:nonzero;stroke:none"
         d="m 608.53073,339.92012 47.75726,0 0,0.91204 -47.75726,0 0,-0.91204 z" />
      <path
         id="path4365"
         style="font-size:14.42015553px;fill:#ff0000;fill-opacity:1;fill-rule:nonzero;stroke:none"
         d="m 656.28799,339.92012 3.67941,0 0,0.91204 -3.67941,0 0,-0.91204 z" />
      <g
         transform="matrix(1.2515006,0,0,-0.89416368,561.22401,320.55253)"
         id="g4371"
         style="font-size:11.53612423px;stroke:#ff9b41">
        <path
           id="path4373"
           style="font-size:11.53612423px;fill:#ff0000;fill-opacity:1;fill-rule:nonzero;stroke:#ff0000"
           d="M 0,0 0.18,-0.18 0.42,-0.48 0.6,-0.66 0.96,-1.14 1.38,-1.56 1.56,-1.86 1.8,-2.1 2.34,-2.82 2.58,-3.06 2.94,-3.54 3.36,-3.96 3.54,-4.2 4.32,-4.98 4.5,-5.22 5.7,-6.42 5.82,-6.6 6.06,-6.78 6.6,-7.32 6.84,-7.5 7.38,-8.04 7.62,-8.22 7.98,-8.58 8.22,-8.76 8.58,-9.12 8.76,-9.24 8.94,-9.42 9.18,-9.6 l 0.36,-0.36 0.18,-0.12 0.18,-0.18 0.24,-0.18 0.18,-0.12 0.42,-0.42 0.18,-0.12 0.36,-0.36 0.18,-0.12 0.24,-0.18 0.36,-0.36 0.18,-0.12 0.24,-0.24 0.18,-0.12 0.18,-0.18 0.24,-0.18 0.18,-0.12 0.36,-0.36 0.24,-0.18 0.18,-0.12 0.18,-0.18 0.18,-0.12 0.24,-0.18 0.36,-0.36 0.18,-0.12 0.24,-0.18 0.18,-0.12 0.36,-0.36 0.24,-0.18 0.18,-0.12 0.18,-0.18 0.24,-0.18 0.18,-0.12 0.18,-0.18 0.18,-0.12 0.24,-0.18 0.18,-0.18 0.24,-0.18 0.12,-0.12 0.24,-0.18 0.36,-0.36 0.18,-0.12 0.24,-0.18 0.18,-0.12 0.36,-0.36 0.24,-0.12 0.36,-0.36 0.18,-0.12 0.24,-0.18 0.18,-0.18 0.18,-0.06 0.18,-0.18 0.18,-0.12 0.18,-0.06 0.24,-0.18 0.36,-0.18 0.18,-0.12 0.36,-0.12 0.24,-0.12 0.12,-0.12 0.18,-0.06 0.24,-0.06 0.18,-0.06 0.18,-0.12 0.36,-0.12 0.24,-0.06 0.12,-0.06 0.48,-0.12 0.12,-0.06 0.18,-0.06 0.24,-0.06 -0.12,0 0.3,0 0.36,-0.12 0.18,0 0.24,-0.06 -0.12,0 11.34,0 0,-1.02 -11.34,0 c -0.06,0 -0.12,0 -0.12,0.06 l -0.18,0 -0.24,0.06 -0.18,0.06 -0.24,0.06 0.12,0 -0.3,0 -0.36,0.12 -0.24,0.06 -0.36,0.12 -0.24,0.06 -0.18,0.06 -0.24,0.06 -0.18,0.12 -0.18,0.06 -0.24,0.12 -0.36,0.12 -0.24,0.12 -0.18,0.06 -0.24,0.12 -0.18,0.12 -0.18,0.06 -0.24,0.12 -0.36,0.24 -0.24,0.12 -0.24,0.18 -0.12,0.12 -0.3,0.18 -0.12,0.12 -0.48,0.36 -0.12,0.12 -0.24,0.18 -0.18,0.12 -0.24,0.18 -0.12,0.18 -0.24,0.18 -0.18,0.12 -0.24,0.18 -0.12,0.12 -0.24,0.18 -0.18,0.18 -0.24,0.18 -0.12,0.12 -0.24,0.18 -0.18,0.18 -0.24,0.18 -0.12,0.12 -0.24,0.18 -0.18,0.12 -0.18,0.18 -0.24,0.18 -0.18,0.12 -0.24,0.18 -0.12,0.18 -0.24,0.12 -0.18,0.18 -0.24,0.18 -0.12,0.12 -0.24,0.18 -0.18,0.12 -0.24,0.18 -0.12,0.18 -0.24,0.18 -0.18,0.12 -0.24,0.18 -0.12,0.18 -0.24,0.18 -0.18,0.12 -0.24,0.18 -0.36,0.36 -0.24,0.12 -0.54,0.54 -0.24,0.18 -0.18,0.12 -0.36,0.36 -0.24,0.18 -0.12,0.12 -0.3,0.24 -0.12,0.12 -0.24,0.18 -0.54,0.54 -0.24,0.18 -0.12,0.12 -0.3,0.18 L 7.74,-9.66 7.5,-9.48 7.14,-9.12 6.9,-8.94 6.36,-8.4 6.12,-8.22 5.94,-8.04 5.7,-7.86 5.58,-7.68 5.34,-7.5 4.92,-7.08 4.8,-6.9 4.56,-6.72 3.72,-5.88 3.6,-5.7 3.18,-5.28 3,-5.04 2.58,-4.62 2.4,-4.38 2.16,-4.14 1.8,-3.66 1.56,-3.42 1.02,-2.7 0.78,-2.46 0.66,-2.28 0.42,-2.04 0.24,-1.8 0,-1.56 l -0.12,0.24 -0.42,0.42 -0.18,0.24 m -37.98001,22.07999 0.18,0.12 0.36,0.12 0.18,0.12 0.24,0.06 -0.06,0 0.18,0.12 0.06,0 0.36,0.18 0.18,0.06 0.24,0.12 0.24,0.06 0.36,0.18 0.18,0.06 0.36,0.18 0.24,0.06 0.18,0.06 0.24,0.12 -0.12,-0.06 0.24,0.12 c 0,0 0,0.06 0.06,0.06 l 0.18,0.06 0.24,0.06 0.12,0.12 0.24,0.06 0.18,0.06 0.36,0.18 0.48,0.12 0.18,0.06 0.12,0.12 0.24,0.06 0.18,0.06 0.36,0.18 0.24,0.06 0.18,0.12 0.06,0 0.24,0.06 -0.12,0 0.18,0.06 0.24,0.06 0.18,0.12 0.24,0.06 0.18,0.06 0.24,0.06 0.18,0.12 0.12,0.06 0.24,0.06 0.18,0.06 c 0,0.06 0.06,0.06 0.06,0.06 l 0.24,0.06 -0.12,-0.06 0.18,0.12 0.24,0.06 0.18,0.06 0.24,0.12 0.54,0.18 0.24,0.12 0.54,0.18 0.24,0.06 0.12,0.12 c 0.06,0 0.06,0 0.12,0 l 0.18,0.06 -0.06,0 0.18,0.06 0.24,0.06 0.18,0.12 0.18,0.06 0.06,0 0.24,0.06 -0.12,0 0.18,0.06 0.24,0.06 0.18,0.12 c 0.18,0.06 0.42,0 0.54,-0.12 l 0.6,-0.6 0.36,-0.24 0.42,-0.42 0.36,-0.24 0.36,-0.36 0.24,-0.18 0.12,-0.06 0.24,-0.24 0.18,-0.12 0.48,-0.36 0.54,-0.54 0.24,-0.18 0.18,-0.18 0.18,-0.24 0.24,-0.18 0.18,-0.24 0.18,-0.12 0.24,-0.3 0.18,-0.18 0.36,-0.48 0.24,-0.18 0.18,-0.18 0.18,-0.3 0.18,-0.18 0.24,-0.3 0.36,-0.36 0.24,-0.3 0.36,-0.48 0.18,-0.18 0.24,-0.3 0.18,-0.18 0.18,-0.3 0.18,-0.18 0.24,-0.3 0.18,-0.18 0.18,-0.3 0.42,-0.42 0.54,-0.72 0.24,-0.24 0.36,-0.48 0.42,-0.42 0.18,-0.3 0.18,-0.24 0.42,-0.42 0.18,-0.3 0.18,-0.18 0.24,-0.3 0.18,-0.18 0.36,-0.48 0.42,-0.42 0.18,-0.3 0.18,-0.18 0.24,-0.3 0.18,-0.18 0.18,-0.3 0.42,-0.42 0.36,-0.48 0.24,-0.24 0.54,-0.72 0.24,-0.24 0.54,-0.72 0.42,-0.42 0.18,-0.24 0.18,-0.18 0.24,-0.3 0.18,-0.24 0.42,-0.42 0.54,-0.72 0.18,-0.18 0.24,-0.3 0.6,-0.6 0.12,-0.18 0.84,-0.84 0.18,-0.24 0.6,-0.6 0.18,-0.24 0.6,-0.6 0.18,-0.24 0.18,-0.12 0.24,-0.24 0.36,-0.48 0.42,-0.42 0.18,-0.24 -0.78,-0.66 -0.12,0.24 -0.24,0.18 -0.24,0.24 -0.12,0.24 -1.02,1.02 -0.18,0.24 -0.24,0.18 -0.12,0.24 -0.24,0.18 -0.42,0.42 -0.12,0.18 -0.66,0.66 -0.12,0.18 -0.42,0.42 -0.18,0.24 -0.66,0.66 -0.54,0.72 -0.42,0.42 -0.18,0.3 -0.42,0.42 -0.12,0.24 -0.42,0.42 -0.24,0.3 -0.18,0.18 -0.18,0.3 -0.18,0.18 -0.24,0.3 -0.18,0.18 -0.18,0.3 -0.42,0.42 -0.18,0.3 -0.42,0.42 -0.54,0.72 -0.24,0.24 -0.12,0.18 -0.24,0.3 -0.18,0.18 -0.24,0.3 -0.12,0.18 -0.24,0.24 -0.18,0.24 -0.24,0.24 -0.54,0.72 -0.24,0.24 -0.12,0.18 -0.48,0.48 -0.54,0.72 -0.24,0.24 -0.54,0.72 -0.24,0.24 -0.54,0.72 -0.24,0.24 -0.36,0.48 -0.18,0.18 -0.24,0.3 -0.18,0.18 -0.18,0.3 -0.42,0.42 -0.18,0.24 -0.18,0.18 -0.24,0.3 -0.12,0.18 -0.66,0.66 -0.12,0.24 -0.24,0.18 -0.12,0.18 -0.3,0.24 -0.12,0.18 -0.78,0.78 -0.24,0.18 -0.36,0.36 -0.18,0.12 -0.18,0.18 -0.24,0.18 -0.12,0.12 -0.24,0.18 -0.18,0.12 -0.24,0.18 -0.12,0.12 -0.24,0.18 -0.18,0.18 -0.24,0.18 -0.12,0.12 -0.24,0.18 -0.6,0.6 -0.24,0.18 0.54,-0.12 -0.36,-0.12 -0.18,-0.12 c -0.06,0 -0.06,0 -0.06,0 l -0.24,-0.06 0.06,0.06 -0.18,-0.12 -0.36,-0.12 -0.24,-0.12 c 0,0 0,0 -0.06,0 l -0.18,-0.06 0.06,0 -0.36,-0.12 -0.24,-0.12 -0.24,-0.06 -0.12,-0.06 -0.24,-0.06 -0.18,-0.12 -0.24,-0.06 -0.12,-0.06 -0.24,-0.06 -0.18,-0.12 -0.36,-0.12 c -0.06,0 -0.06,0 -0.06,0 l -0.24,-0.06 0.06,0 -0.18,-0.06 -0.18,-0.12 -0.18,-0.06 -0.3,-0.12 -0.12,0 -0.18,-0.12 -0.18,-0.06 -0.24,-0.06 -0.18,-0.06 -0.18,-0.12 -0.06,0 -0.24,-0.06 0.06,0 -0.36,-0.12 -0.18,-0.12 -0.24,-0.06 -0.18,-0.06 -0.18,-0.12 -0.18,-0.06 -0.3,-0.12 -0.12,0 -0.18,-0.06 -0.18,-0.12 -0.24,-0.06 -0.18,-0.12 -0.36,-0.12 -0.24,-0.12 -0.18,-0.06 0.06,0.06 -0.18,-0.12 c -0.06,0 -0.06,0 -0.06,-0.06 l -0.24,-0.06 -0.18,-0.06 -0.18,-0.12 -0.18,-0.06 -0.24,-0.06 -0.18,-0.12 -0.36,-0.12 -0.24,-0.06 -0.12,-0.12 -0.24,-0.12 -0.18,-0.06 -0.24,-0.06 0.06,0 -0.18,-0.12 -0.06,0 -0.36,-0.12 -0.24,-0.12 -0.18,-0.12 -0.18,-0.06 M -0.72,-43.62 l 0.18,0.18 0.18,0.24 0.24,0.24 0.12,0.18 0.24,0.24 0.18,0.24 0.24,0.24 0.12,0.24 0.42,0.42 0.18,0.3 0.18,0.18 0.24,0.3 0.18,0.18 0.18,0.3 0.24,0.18 0.36,0.48 0.84,0.84 0.12,0.24 0.24,0.18 0.18,0.24 0.24,0.18 0.96,0.96 0.24,0.18 0.12,0.18 0.24,0.24 0.18,0.12 0.6,0.6 0.18,0.12 0.24,0.24 0.18,0.12 0.54,0.54 0.3,0.18 0.12,0.18 0.24,0.18 0.18,0.18 0.18,0.12 0.18,0.18 0.24,0.18 0.12,0.18 0.3,0.18 0.12,0.12 0.24,0.18 0.54,0.54 0.24,0.18 0.18,0.12 0.36,0.36 0.24,0.18 0.18,0.18 0.18,0.12 0.24,0.18 0.18,0.18 0.24,0.18 0.12,0.12 0.24,0.18 0.18,0.18 0.24,0.18 0.12,0.12 0.24,0.18 0.18,0.12 0.24,0.18 0.12,0.18 0.24,0.18 0.18,0.12 0.24,0.18 0.12,0.12 0.24,0.18 0.18,0.18 0.24,0.12 0.36,0.36 0.24,0.12 0.12,0.18 0.24,0.18 0.18,0.12 0.24,0.18 0.36,0.36 0.18,0.12 0.24,0.18 0.12,0.18 0.24,0.12 0.18,0.18 0.24,0.18 0.12,0.12 0.24,0.18 0.18,0.12 0.24,0.18 0.12,0.18 0.24,0.18 0.24,0.12 0.12,0.18 0.3,0.18 0.12,0.12 0.48,0.24 0.36,0.24 0.24,0.12 0.36,0.24 0.24,0.06 0.18,0.12 0.24,0.06 0.18,0.12 0.18,0.06 0.24,0.06 0.18,0.06 0.18,0.12 0.24,0.06 0.18,0.06 0.24,0.06 0.36,0.12 0.24,0.06 0.36,0.12 0.06,0 0.24,0.06 -0.12,0 0.24,0 0.18,0.06 0.24,0.06 0.18,0.06 c 0,0 0.06,0 0.12,0 l 11.34,0 0,-1.02 -11.34,0 0.12,0.06 -0.24,-0.06 -0.36,-0.12 -0.18,0 c 0,-0.06 -0.06,-0.06 -0.06,-0.06 l -0.24,0 0.12,0 -0.24,-0.06 -0.18,-0.06 -0.12,0 -0.24,-0.12 -0.24,-0.06 -0.12,0 -0.24,-0.12 -0.72,-0.24 -0.24,-0.12 -0.18,-0.06 -0.36,-0.18 -0.18,-0.06 -0.36,-0.24 -0.24,-0.06 -0.12,-0.12 -0.24,-0.12 -0.72,-0.48 -0.18,-0.18 -0.24,-0.12 -0.36,-0.36 -0.18,-0.12 -0.24,-0.18 -0.18,-0.12 -0.36,-0.36 -0.24,-0.18 -0.18,-0.12 -0.18,-0.18 -0.18,-0.12 -0.24,-0.18 -0.36,-0.36 -0.18,-0.12 -0.24,-0.18 -0.36,-0.36 -0.18,-0.12 -0.24,-0.18 -0.18,-0.18 -0.18,-0.12 -0.24,-0.18 -0.18,-0.12 -0.36,-0.36 -0.24,-0.18 -0.18,-0.12 -0.18,-0.18 -0.18,-0.12 -0.24,-0.18 -0.36,-0.36 -0.18,-0.12 -0.24,-0.18 -0.36,-0.36 -0.18,-0.12 -0.24,-0.18 -0.18,-0.12 -0.18,-0.18 -0.24,-0.18 -0.18,-0.18 -0.18,-0.12 -0.18,-0.18 -0.24,-0.18 -0.18,-0.18 -0.18,-0.12 -0.18,-0.24 -0.18,-0.12 -0.24,-0.18 -0.18,-0.18 -0.18,-0.12 L 9.9,-34.08 9.72,-34.2 9.18,-34.74 8.94,-34.92 8.76,-35.1 8.58,-35.22 8.22,-35.58 7.74,-35.94 7.02,-36.66 6.84,-36.78 6.06,-37.56 5.82,-37.74 5.7,-37.86 5.46,-38.16 5.1,-38.52 4.86,-38.7 4.5,-39.06 4.32,-39.3 3.9,-39.72 3.72,-39.96 3.54,-40.14 3.36,-40.38 2.94,-40.8 2.58,-41.28 2.34,-41.52 1.8,-42.24 1.56,-42.48 1.38,-42.72 1.2,-42.9 0.96,-43.2 0.78,-43.38 0.6,-43.68 0.18,-44.1 0,-44.34 m -38.34001,-20.45999 0.18,-0.12 0.18,-0.06 0.24,-0.12 0.18,-0.06 0.18,-0.12 0.06,0 0.18,-0.12 -0.06,0.06 0.24,-0.12 0.18,-0.06 0.36,-0.18 0.24,-0.06 0.18,-0.12 0.36,-0.12 0.24,-0.12 0.36,-0.12 0.18,-0.12 0.24,-0.06 c 0,0 0,0 0.06,-0.06 l 0.18,-0.06 -0.06,0 0.18,-0.06 0.24,-0.06 0.18,-0.12 0.18,-0.06 0.18,-0.12 0.24,-0.06 0.36,-0.12 0.12,-0.06 0.3,-0.12 0.36,-0.12 0.18,-0.12 0.24,-0.06 0.18,-0.06 0.18,-0.12 0.18,-0.06 -0.06,0 0.24,0 c 0,-0.06 0.06,-0.06 0.06,-0.06 l 0.36,-0.12 0.24,-0.12 0.36,-0.12 0.12,-0.06 0.3,-0.12 0.36,-0.12 0.18,-0.12 -0.06,0.06 0.24,-0.06 c 0,0 0,0 0.06,-0.06 l 0.36,-0.12 0.18,-0.12 0.24,-0.06 0.12,0 0.24,-0.12 0.18,-0.06 0.24,-0.12 0.12,0 0.24,-0.12 0.24,-0.06 0.18,-0.12 0.18,-0.06 -0.06,0 0.18,0 c 0.06,-0.06 0.06,-0.06 0.06,-0.06 l 0.24,-0.06 0.18,-0.06 0.18,-0.12 0.18,-0.06 -0.06,0 0.24,-0.06 c 0,0 0,0 0.06,0 l 0.18,-0.06 0.18,-0.12 0.18,-0.06 -0.54,-0.12 0.42,0.42 0.24,0.18 0.18,0.18 0.24,0.18 0.12,0.12 0.24,0.18 0.18,0.18 0.24,0.18 0.12,0.12 0.24,0.18 0.18,0.18 0.24,0.18 0.12,0.12 0.24,0.12 0.36,0.36 0.24,0.18 0.36,0.36 0.18,0.12 0.24,0.24 0.12,0.18 0.24,0.18 0.12,0.18 0.3,0.24 0.12,0.18 0.24,0.24 0.12,0.18 0.24,0.24 0.18,0.24 0.24,0.18 0.12,0.24 0.42,0.42 0.18,0.3 0.24,0.18 0.54,0.72 0.42,0.42 0.18,0.3 0.42,0.42 0.54,0.72 0.24,0.24 0.54,0.72 0.24,0.24 0.54,0.72 0.48,0.48 0.12,0.18 0.24,0.3 0.18,0.18 0.18,0.3 0.18,0.18 0.24,0.3 0.18,0.18 0.24,0.3 0.12,0.18 0.24,0.24 0.18,0.24 0.24,0.24 0.12,0.18 0.24,0.3 0.18,0.18 0.18,0.3 0.42,0.42 0.36,0.48 0.24,0.24 0.54,0.72 0.24,0.24 0.54,0.72 0.24,0.24 0.18,0.24 0.24,0.24 0.12,0.18 0.24,0.24 0.36,0.48 0.42,0.42 0.54,0.72 0.24,0.24 0.18,0.24 0.42,0.42 0.18,0.24 0.24,0.18 0.12,0.18 0.66,0.66 0.12,0.18 0.66,0.66 0.12,0.18 1.08,1.08 0.12,0.18 0.24,0.24 0.12,0.18 0.48,0.48 0.12,0.18 0.78,-0.6 -0.18,-0.3 -0.24,-0.18 -0.18,-0.18 -0.18,-0.3 -0.6,-0.6 -0.18,-0.24 -0.6,-0.6 -0.18,-0.24 -0.24,-0.18 -0.18,-0.18 -0.36,-0.48 -1.2,-1.2 -0.18,-0.24 -0.6,-0.6 -0.18,-0.3 -0.18,-0.18 -0.18,-0.24 -0.24,-0.24 -0.36,-0.48 -0.42,-0.42 -0.18,-0.3 -0.42,-0.42 -0.54,-0.72 -0.24,-0.24 -0.54,-0.72 -0.24,-0.24 -0.18,-0.24 -0.18,-0.18 -0.24,-0.3 -0.18,-0.18 -0.36,-0.48 -0.24,-0.24 -0.18,-0.24 -0.18,-0.3 -0.18,-0.12 -0.24,-0.3 -0.18,-0.18 -0.18,-0.3 -0.42,-0.42 -0.54,-0.72 -0.24,-0.24 -0.54,-0.72 -0.24,-0.18 -0.18,-0.3 -0.18,-0.18 -0.24,-0.3 -0.18,-0.18 -0.18,-0.3 -0.42,-0.42 -0.54,-0.72 -0.24,-0.24 -0.54,-0.72 -0.24,-0.3 -0.18,-0.18 -0.18,-0.24 -0.18,-0.18 -0.24,-0.3 -0.18,-0.18 -0.18,-0.24 -0.24,-0.3 -0.18,-0.12 -0.18,-0.3 -0.42,-0.42 -0.36,-0.48 -1.62,-1.62 -0.18,-0.12 -0.6,-0.6 -0.24,-0.18 -0.18,-0.12 -0.24,-0.18 -0.12,-0.12 -0.24,-0.18 -0.18,-0.12 -0.36,-0.36 -0.18,-0.12 -0.24,-0.18 -0.36,-0.36 -0.18,-0.12 -0.36,-0.36 -0.24,-0.18 c -0.12,-0.18 -0.36,-0.24 -0.54,-0.12 l -0.18,0.06 -0.24,0.06 -0.18,0.12 0.12,-0.06 -0.24,0.06 c 0,0 -0.06,0 -0.06,0.06 l -0.36,0.12 -0.24,0.12 -0.18,0.06 0.06,-0.06 -0.18,0.06 c -0.06,0 -0.06,0.06 -0.12,0.06 l -0.12,0.06 -0.24,0.06 -0.18,0.12 -0.36,0.12 -0.24,0.06 -0.18,0.06 -0.18,0.12 -0.18,0.06 -0.24,0.06 -0.18,0.06 -0.24,0.12 -0.18,0.06 0.12,0 -0.24,0.06 -0.06,0 -0.18,0.06 -0.36,0.18 -0.18,0.06 -0.24,0.06 -0.18,0.06 -0.24,0.12 -0.18,0.06 -0.24,0.06 -0.18,0.12 0.12,-0.06 -0.24,0.06 -0.06,0.06 -0.18,0.06 -0.24,0.06 -0.12,0.12 -0.24,0.06 -0.18,0.06 -0.36,0.18 -0.18,0.06 -0.24,0.06 -0.36,0.18 -0.24,0.06 -0.18,0.06 -0.36,0.18 -0.24,0.06 -0.18,0.12 c -0.06,0 -0.06,0 -0.06,0 l -0.24,0.12 0.12,-0.06 -0.24,0.12 -0.18,0.06 -0.36,0.18 -0.24,0.06 -0.18,0.06 -0.6,0.3 -0.24,0.06 -0.18,0.12 -0.12,0.06 -0.24,0.06 c 0,0 -0.06,0 -0.06,0.06 l -0.18,0.06 0.06,0 -0.24,0.06 -0.18,0.12 -0.18,0.06 -0.18,0.12 -0.18,0.06" />
      </g>
      <path
         id="path4375"
         style="font-size:14.42015553px;fill:#ff0000;fill-opacity:1;fill-rule:nonzero;stroke:none"
         d="m 608.53073,339.92012 47.75726,0 0,0.91204 -47.75726,0 0,-0.91204 z" />
      <path
         id="path4377"
         style="font-size:14.42015553px;fill:#ff0000;fill-opacity:1;fill-rule:nonzero;stroke:none"
         d="m 656.28799,339.92012 3.67941,0 0,0.91204 -3.67941,0 0,-0.91204 z" />
      <g
         transform="matrix(1.2515006,0,0,-0.89416368,513.54184,319.47953)"
         id="g4379"
         style="font-size:11.53612423px;stroke:#b000c8">
        <path
           id="path4381"
           style="font-size:11.53612423px;fill:#00cc00;fill-opacity:1;fill-rule:nonzero;stroke:#b000c8"
           d="M 0,0 0.18,-0.36 0.42,-0.78 0.6,-1.02 0.72,-1.26 0.96,-1.5 1.08,-1.68 1.26,-1.86 1.5,-2.04 1.62,-2.16 c 0.06,-0.06 0.12,-0.12 0.12,-0.18 l 0.18,-0.3 0.18,-0.24 0.24,-0.3 0.12,-0.18 0.6,-0.6 0.18,-0.12 0.18,-0.18 0.18,-0.12 -0.6,0 0.18,0.12 c 0.18,0.12 0.42,0.12 0.6,0 L 3.96,-4.44 4.2,-4.56 4.56,-4.92 4.8,-5.1 c 0,0 0,0 0.06,-0.06 l 0.36,-0.48 0.24,-0.3 0.18,-0.24 0.18,-0.18 0.36,-0.48 0.18,-0.18 0.24,-0.18 0.18,-0.18 0.18,-0.24 0.6,-0.6 0.18,-0.12 0.18,-0.24 0.18,-0.18 0.18,-0.12 0.24,-0.24 0.18,-0.12 0.24,-0.18 0.12,-0.12 0.24,-0.18 0.36,-0.36 0.18,-0.12 0.24,-0.18 0.18,-0.18 0.18,-0.12 0.18,-0.18 0.24,-0.18 0.18,-0.12 0.18,-0.18 0.18,-0.12 0.24,-0.18 0.18,-0.12 0.18,-0.18 0.18,-0.12 0.24,-0.18 -0.42,0.12 0.66,0 c 0.12,0 0.24,0 0.36,-0.12 l 0.18,-0.18 -0.3,0.12 0.42,0 -0.48,-0.3 0.18,0.36 0.18,0.48 0.18,0.42 0.24,0.36 0.18,0.3 c 0.12,0.12 0.24,0.24 0.42,0.24 l 0.24,0 -0.12,0 0.24,0 c 0,0 0,0 0.06,0 l 0.18,0 c 0.06,0 0.06,0 0.06,0 l 0.18,0 -0.06,0 0.24,0 c 0,0 0,0 0.06,0 l 0.18,-0.06 0.18,0 0.18,-0.06 0.3,-0.06 0.12,0 0.24,-0.06 c 0.06,0 0.06,0 0.12,-0.06 l 0.18,-0.06 0.24,-0.12 0.36,-0.24 0.24,-0.12 0.24,-0.18 -0.12,0.06 0.18,-0.06 c 0.06,0 0.06,0 0.06,-0.06 l 0.18,-0.06 -0.06,0 0.24,-0.06 0.18,-0.12 0.18,-0.06 0.24,-0.06 -0.12,0 0.24,-0.06 0.36,-0.12 0.24,0 0.18,-0.06 0.12,-0.06 0.24,-0.06 0.36,0 0.24,-0.06 0.12,-0.06 0.24,0 0.18,-0.06 -0.06,0.06 0.18,0 c 0.06,0 0.06,0 0.06,-0.06 l 0.54,0 0.24,-0.06 0.18,0 -0.06,0 0.24,0 c 0,0 0,0 0.06,0 l 0.18,-0.06 -0.06,0 0.18,0 -0.06,0 0.18,0.06 c 0.06,0 0.12,0 0.12,0 l 0.24,-0.06 0.06,0 0.18,-0.06 -0.06,0 0.18,0 c 0.06,0 0.06,0 0.06,0 l 0.24,-0.06 -0.12,0 0.24,0 0.18,-0.06 0.24,-0.06 0.24,0 0.18,-0.06 -0.06,0 0.18,0 0.18,-0.06 0.3,-0.06 0.12,0 0.24,-0.06 -0.18,0 0.18,0 0.24,0.06 c 0.06,0 0.12,0 0.18,0 l 0.18,-0.06 -0.06,0 0.18,-0.06 c 0.06,0 0.06,0 0.06,0 l 0.24,-0.06 0.18,-0.06 0.12,0 0.24,-0.06 0.12,0 0.3,-0.06 0.12,0 0.48,-0.12 -0.18,0 0.24,0 0.24,-0.06 0.9,0 0.3,-0.06 -0.3,-0.06 0.18,0.12 0.24,0.06 0.18,0.06 c 0,0.06 0.06,0.06 0.06,0.06 l 0.24,0.06 -0.12,-0.06 0.18,0.12 c 0.06,0 0.06,0 0.12,0 l 0.18,0.06 c 0.06,0 0.12,0 0.18,0 l 0.18,0 0.24,-0.06 0.18,0 0.18,-0.06 0.18,0 0.24,-0.06 0.12,0.06 0.18,0 -0.06,-0.06 0.18,0.06 -0.18,-0.06 0.18,0.12 0.24,0.12 0.18,0.12 0.24,0.12 c 0.06,0.06 0.18,0.06 0.3,0.06 l 0.18,-0.06 0.36,0 0.24,-0.06 0.18,0 0.18,-0.06 0.18,0 0.24,-0.06 0.18,0 -0.06,0 0.18,0 c 0.06,0 0.06,0 0.06,0 l 0.18,-0.06 0.42,0 0.18,-0.06 0.18,0 0.3,-0.06 0.36,-0.12 0.24,-0.06 0.12,0 -0.12,-1.02 -0.48,0.12 -0.18,0.06 -0.18,0 -0.36,0.12 -0.36,0 -0.24,0.06 -0.18,0 0.06,0 -0.18,0 c -0.06,0 -0.06,0 -0.06,0 l -0.18,0.06 -0.24,0 -0.18,0.06 -0.18,0 -0.18,0.06 -0.42,0 -0.18,0.06 -0.24,0 0.3,0.06 -0.18,-0.06 -0.12,-0.12 -0.24,-0.12 -0.18,-0.12 c -0.06,-0.06 -0.12,-0.06 -0.24,-0.12 l -0.18,0 c 0,0 0,0 -0.06,0 l -0.66,0 -0.18,0.06 -0.18,0 -0.18,0.06 -0.24,0 -0.18,0.06 0.18,0 -0.18,-0.06 0.06,0 -0.18,-0.06 -0.06,0 -0.24,-0.06 0.12,0 -0.24,-0.06 -0.18,-0.12 -0.18,-0.06 c -0.06,0 -0.18,-0.06 -0.24,0 l -0.78,0 -0.18,0.06 -0.6,0 c 0,0 -0.06,0 -0.12,0.06 l -0.18,0 -0.12,0.06 -0.24,0.06 -0.18,0 -0.24,0.06 -0.12,0.06 -0.24,0 -0.24,0.06 -0.18,0.06 0.06,0 -0.18,0 c -0.06,0 -0.06,0.06 -0.12,0.06 l -0.18,0.06 0.24,-0.06 -0.24,0 -0.18,-0.06 c -0.06,0 -0.12,0 -0.18,0.06 l -0.12,0 -0.24,0.06 -0.18,0.06 -0.36,0 c -0.06,0.06 -0.06,0.06 -0.12,0.06 l -0.18,0.06 0.12,-0.06 -0.3,0.06 -0.12,0.06 -0.18,0 -0.24,0.06 -0.06,0 -0.18,0.06 0.06,-0.06 -0.18,0.06 c -0.06,0 -0.06,0 -0.12,0 l -0.18,0.06 0.12,0 -0.24,0 0.12,0 -0.18,0 c 0,0 0,0 -0.06,0 l -0.18,0 c -0.06,0 -0.06,0 -0.06,0 l -0.24,0 0.12,0 -0.3,0 -0.18,0.06 -0.36,0 -0.24,0.06 -0.18,0 0.06,0 -0.18,0 c -0.06,0 -0.06,0 -0.06,0 l -0.18,0 -0.24,0.06 -0.24,0 -0.12,0.06 -0.24,0.06 -0.24,0 -0.12,0.06 -0.24,0.06 -0.24,0 -0.18,0.06 -0.24,0.06 -0.12,0.06 -0.24,0.06 -0.06,0 -0.18,0.12 -0.24,0.06 -0.36,0.18 -0.06,0 -0.18,0.12 0.06,-0.06 -0.18,0.12 c -0.06,0 -0.12,0 -0.12,0.06 l -0.36,0.24 -0.18,0.06 -0.36,0.24 -0.24,0.06 0.12,0 -0.12,0.06 -0.24,0 -0.18,0.06 -0.18,0 -0.18,0.06 -0.24,0 0.12,0 -0.3,0 -0.18,0.06 0.06,0 -0.18,0 0.06,0 -0.18,-0.06 c -0.06,0 -0.06,0 -0.06,0 l -0.24,0 0.42,0.24 -0.18,-0.24 -0.18,-0.3 -0.18,-0.42 -0.18,-0.54 -0.24,-0.3 c -0.06,-0.18 -0.3,-0.3 -0.48,-0.3 l -0.12,0.06 -0.18,0 c -0.12,0 -0.24,0 -0.36,0.12 l -0.18,0.18 0.3,-0.12 -0.3,0 -0.24,-0.06 c -0.12,0 -0.24,0.06 -0.36,0.12 l -0.12,0.12 -0.3,0.18 -0.12,0.18 -0.24,0.12 -0.12,0.12 -0.3,0.18 -0.12,0.18 -0.24,0.18 -0.18,0.12 -0.24,0.18 -0.12,0.12 -0.24,0.18 -0.18,0.18 -0.24,0.12 -0.54,0.54 -0.24,0.18 -0.18,0.12 L 7.68,-9.66 7.2,-9.3 7.08,-9.12 6.66,-8.7 6.42,-8.52 6.24,-8.34 6.06,-8.1 5.22,-7.26 4.68,-6.54 4.44,-6.24 4.08,-5.76 4.14,-5.82 3.96,-5.7 3.72,-5.52 3.54,-5.4 l -0.36,0.36 0.6,0 -0.24,-0.18 C 3.36,-5.34 3.12,-5.34 3,-5.16 l -0.24,0.12 -1.02,1.02 -0.24,0.3 -0.18,0.24 -0.24,0.36 -0.18,0.3 0.12,-0.12 -0.24,0.18 -0.42,0.42 -0.24,0.18 -0.36,0.6 -0.24,0.36 -0.18,0.36 -0.24,0.42" />
      </g>
      <g
         transform="matrix(1.2515006,0,0,-0.89416368,560.92365,331.44345)"
         id="g4383"
         style="font-size:11.53612423px;stroke:#b000c8">
        <path
           id="path4385"
           style="font-size:11.53612423px;fill:#00cc00;fill-opacity:1;fill-rule:nonzero;stroke:#b000c8"
           d="m 0,0 0.18,-0.06 0.12,-0.06 0.3,-0.06 0.3,0 0.18,-0.06 0.24,0 0.18,-0.06 -0.06,0 0.18,0 c 0.06,0 0.06,0 0.06,0 l 0.54,0 0.24,-0.06 0.18,0 -0.06,0 0.24,0 c 0.06,0 0.06,0 0.12,-0.06 l 0.18,-0.06 -0.06,0.06 0.18,-0.06 c 0.06,0 0.06,0 0.12,0 L 3.9,-0.66 c 0.06,0 0.06,0 0.06,0 L 4.2,-0.72 4.38,-0.78 4.56,-0.9 4.74,-0.96 4.98,-1.08 5.16,-1.14 c 0,0 0,0 0.06,0 L 5.76,-1.5 6,-1.56 6.36,-1.8 l 0.06,0 0.18,-0.18 -0.06,0.06 0.24,-0.12 c 0,0 0,0 0.06,0 l 0.18,-0.18 -0.06,0.06 0.18,-0.12 0.06,0 L 7.38,-2.46 7.56,-2.58 7.8,-2.7 8.16,-2.94 8.4,-3.12 8.58,-3.24 8.94,-3.42 c 0,0 0.06,0 0.06,-0.06 l 0.18,-0.12 0.42,-0.42 0.18,-0.12 0.18,-0.18 0.18,-0.12 0.24,-0.18 0.12,-0.06 0.24,-0.24 0.18,-0.06 0.24,-0.24 0.36,-0.24 0.18,-0.18 0.24,-0.18 0.12,-0.06 0.24,-0.24 0.18,-0.12 0.24,-0.18 0.36,-0.24 0.24,-0.18 0.36,-0.36 0.18,-0.12 0.12,-0.06 0.24,-0.18 0.24,-0.12 0.18,-0.12 0.18,-0.18 0.18,-0.06 0.24,-0.24 0.18,-0.12 0.24,-0.18 0.18,-0.18 0.18,-0.12 0.18,-0.18 0.24,-0.18 0.18,-0.18 0.18,-0.12 0.24,-0.18 0.18,-0.18 0.18,-0.12 0.18,-0.18 0.24,-0.18 0.18,-0.12 0.36,-0.36 0.24,-0.18 0.18,-0.12 0.18,-0.18 0.24,-0.18 0.36,-0.36 0.24,-0.18 0.36,-0.36 0.18,-0.12 -0.54,0.06 0.24,0.06 -0.12,-0.06 0.18,0.18 0.24,0.12 0.12,0.18 0.3,0.18 0.12,0.12 0.48,0.24 0.36,0.24 0.24,0.12 0.36,0.24 0.24,0.06 0.18,0.12 0.24,0.06 0.18,0.12 0.18,0.06 0.24,0.06 0.18,0.12 0.18,0.06 0.24,0.06 0.18,0.06 0.24,0.06 0.36,0.12 0.24,0.06 0.36,0.12 0.06,0 0.24,0.06 -0.12,0 0.24,0.06 0.18,0.06 0.24,0 0.18,0.06 c 0,0 0.06,0 0.12,0 l 11.34,0 0,-1.02 -11.34,0 0.12,0.06 -0.24,-0.06 -0.18,-0.06 -0.18,0 -0.18,-0.06 -0.06,-0.06 -0.24,0 0.12,0 -0.24,-0.06 -0.18,-0.06 -0.12,0 -0.24,-0.12 -0.24,-0.06 -0.12,0 -0.24,-0.12 -0.72,-0.24 -0.24,-0.12 -0.18,-0.06 -0.36,-0.18 -0.18,-0.06 -0.36,-0.24 -0.24,-0.06 -0.12,-0.12 -0.24,-0.12 -0.72,-0.48 -0.18,-0.18 -0.24,-0.12 -0.18,-0.18 c -0.06,0 -0.06,-0.06 -0.12,-0.06 l -0.18,-0.06 c -0.18,-0.12 -0.36,-0.06 -0.48,0.06 l -0.3,0.18 -0.72,0.72 -0.18,0.12 -0.24,0.18 -0.12,0.18 -0.24,0.18 -0.18,0.12 -0.24,0.18 -0.12,0.18 -0.24,0.18 -0.18,0.12 -0.24,0.18 -0.12,0.12 -0.24,0.18 -0.18,0.18 -0.24,0.18 -0.18,0.18 -0.18,0.12 -0.24,0.18 -0.12,0.12 -0.24,0.18 -0.18,0.18 -0.24,0.18 -0.12,0.12 -0.24,0.12 -0.12,0.12 -0.24,0.12 -0.36,0.24 -0.48,0.36 -0.12,0.12 -0.24,0.18 -0.18,0.12 -0.18,0.18 -0.18,0.12 -0.48,0.36 -0.12,0.12 -0.24,0.18 -0.36,0.24 -0.18,0.18 -0.24,0.18 -0.12,0.12 -0.3,0.18 L 9.96,-5.52 9.72,-5.34 9.54,-5.22 9.3,-5.04 9.18,-4.92 8.88,-4.68 8.76,-4.56 8.52,-4.38 8.34,-4.2 8.46,-4.32 8.22,-4.2 8.04,-4.08 7.8,-3.9 7.44,-3.66 7.2,-3.54 7.02,-3.42 6.78,-3.24 6.6,-3.12 6.66,-3.18 6.48,-3.06 6.42,-3 6.24,-2.88 6.3,-2.94 6.06,-2.82 c 0,0 0,0.06 -0.06,0.06 l -0.18,0.12 0.06,-0.06 -0.36,0.24 -0.24,0.12 -0.18,0.06 -0.36,0.24 0.06,0 -0.24,0.06 -0.18,0.06 -0.36,0.18 -0.24,0.06 -0.18,0.12 0.06,-0.06 -0.18,0.06 -0.24,0.06 -0.18,0.06 0.06,0 -0.18,0 c -0.06,0 -0.06,0 -0.06,0 l -0.24,0.06 0.18,0 -0.24,0 c 0,0 0,0 -0.06,0 l -0.18,0.06 -0.6,0 -0.18,0.06 0.06,0 -0.18,0 c -0.06,0 -0.06,0 -0.06,0 l -0.18,0 -0.24,0.06 -0.18,0 -0.18,0.06 -0.24,0 -0.18,0.06 -0.24,0.06 -0.18,0" />
      </g>
      <path
         id="path4387"
         style="font-size:14.42015553px;fill:#00cc00;fill-opacity:1;fill-rule:nonzero;stroke:none"
         d="m 608.53073,339.92012 47.75726,0 0,0.91204 -47.75726,0 0,-0.91204 z" />
      <path
         id="path4389"
         style="font-size:14.42015553px;fill:#00cc00;fill-opacity:1;fill-rule:nonzero;stroke:none"
         d="m 656.28799,339.92012 3.67941,0 0,0.91204 -3.67941,0 0,-0.91204 z" />
      <g
         transform="matrix(1.2515006,0,0,-0.89416368,512.41549,319.31859)"
         id="g4391"
         style="font-size:11.53612423px;stroke:#b000c8">
        <path
           id="path4393"
           style="font-size:11.53612423px;fill:#00cc00;fill-opacity:1;fill-rule:nonzero;stroke:#b000c8"
           d="m 0,0 0.24,0.42 0.18,0.3 0.24,0.3 0.18,0.24 0.24,0.24 0.24,0.12 C 1.38,1.68 1.38,1.68 1.38,1.68 L 1.62,1.8 1.8,1.86 c 0,0.06 0.06,0.06 0.12,0.06 L 2.1,1.98 1.8,1.74 1.98,2.1 2.22,2.4 2.4,2.64 2.64,2.94 2.82,3.18 3.06,3.36 3.24,3.6 3.48,3.78 3.66,3.96 3.9,4.14 C 3.96,4.2 4.14,4.26 4.26,4.2 4.38,4.2 4.5,4.14 4.62,4.02 L 4.8,3.72 4.44,3.9 l 0.42,0 0.18,-0.06 0.18,0 0.18,-0.06 -0.18,0 0.36,0.12 c 0.06,0 0.06,0 0.12,0 l 0.18,0 0.18,0.06 0.72,0 0.18,-0.06 0.24,0 c 0,0 0,0 0.06,0 l 0.36,-0.12 0.12,0 c 0.06,0 0.12,0 0.12,-0.06 L 8.1,3.66 8.22,3.6 8.46,3.54 8.7,3.42 9.06,3.3 9.24,3.18 9.48,3.06 9.66,3 9.9,2.88 10.08,2.76 10.26,2.7 10.5,2.58 10.86,2.34 11.1,2.22 11.28,2.1 11.52,1.98 11.64,1.86 11.88,1.74 12.12,1.56 12.06,1.62 12.24,1.5 12.3,1.5 12.66,1.26 12.9,1.08 13.08,0.96 13.2,0.9 C 13.26,0.84 13.32,0.78 13.38,0.72 L 13.56,0.42 13.8,0.18 13.98,-0.06 13.8,0.12 13.98,0 c 0.06,-0.06 0.12,-0.12 0.18,-0.18 l 0.18,-0.24 0.18,-0.18 c 0.06,-0.06 0.12,-0.12 0.12,-0.18 l 0.18,-0.54 0.24,-0.66 0.18,-0.6 0.36,-0.84 -0.18,0.18 0.24,-0.18 0.18,-0.18 0.18,-0.06 0.18,-0.18 0.18,-0.12 0.18,-0.06 0.36,-0.24 0.18,-0.06 0.24,-0.12 -0.06,0 0.18,-0.06 -0.36,0 0.24,0.06 0.12,0.12 c 0.06,0 0.06,0 0.12,0 l 0.54,0.18 0.12,0.06 0.18,0.12 0.24,0.06 0.18,0.12 0.18,0.06 c 0.06,0 0.06,0.06 0.12,0.06 l 0.18,0 -0.06,0 0.18,0.06 c 0,0.06 0.06,0.06 0.06,0.06 l 0.24,0.06 -0.12,-0.06 0.18,0.12 c 0.06,0 0.06,0 0.12,0 l 0.18,0.06 0.24,0.06 0.18,0 0.12,0.06 c 0.06,0 0.06,0 0.12,0 l 0.18,0.06 0.18,0 0.18,0.06 0.24,0.06 0.42,0 0.18,0.06 0.42,0 0.18,0.06 0.18,0 c 0,0 0,0 0.06,0 l 0.18,0 -0.06,0 0.18,0.06 0.3,0 -0.12,0 0.24,0 c 0,0 0,0 0.06,0 l 0.18,0 c 0.06,0 0.12,0 0.18,-0.06 L 24.36,-3 24.18,-2.94 24.42,-3 l 0.06,0 0.18,-0.06 -0.06,0 0.18,0 c 0.06,0 0.06,0 0.06,0 l 0.24,-0.06 -0.12,0 0.24,0 0.18,-0.06 0.24,-0.06 0.24,0 0.18,-0.06 -0.06,0 0.18,0 c 0.06,-0.06 0.06,-0.06 0.06,-0.06 l 0.24,-0.06 -0.12,0.06 0.24,-0.06 0.06,0 0.18,-0.06 -0.06,0 0.18,0 c 0.06,0 0.12,0 0.12,-0.06 l 0.24,-0.06 -0.12,0 0.24,-0.06 0.18,0 -0.06,0 0.18,-0.06 0.18,0 0.24,-0.06 0.36,0 c 0.06,0 0.06,-0.06 0.06,-0.06 l 0.24,-0.06 -0.12,0.06 0.24,-0.06 0.18,0 0.24,-0.06 0.12,0 -0.12,0 0.66,0 0.18,0.06 0.84,0 c 0,0 0,0 0.06,0 l 0.18,0 0.18,-0.06 0.6,0 -0.06,0 0.18,0 -0.06,0 0.42,0 0.18,0.06 0.18,0 0.18,0.06 0.48,0 c 0,0 0.06,0 0.12,0 l 0.18,-0.06 c 0.06,0 0.06,0 0.12,0 l 0.18,-0.12 c 0,0 0,0 0.06,0 l 0.18,-0.18 0.36,-0.18 0.18,-0.12 -0.18,0.06 0.42,0 0.18,-0.06 0.36,0 0.24,-0.06 0.18,0 0.24,-0.06 0.18,0 0.18,-0.06 0.12,0.06 0.3,-0.06 0.18,0 0.18,-0.06 0.18,0 -0.24,-0.06 0.24,0.12 0.24,0.06 0.18,0.06 0.3,0 -0.12,0 0.18,0.06 0.3,-0.96 -0.18,-0.06 -0.06,0 -0.18,-0.06 -0.18,0 -0.12,-0.06 -0.24,-0.06 c -0.06,-0.06 -0.12,-0.06 -0.24,-0.06 l -0.18,0.06 -0.18,0 -0.18,0.06 -0.6,0 -0.18,0.06 -0.24,0 -0.18,0.06 -0.36,0 -0.24,0.06 -0.48,0 c -0.12,0 -0.18,0.06 -0.24,0.06 l -0.24,0.12 -0.18,0.12 -0.24,0.12 -0.18,0.18 0.06,-0.06 -0.18,0.06 0.06,0 -0.18,0.06 0.12,0 -0.12,0 -0.24,-0.06 -0.18,0 -0.18,-0.06 -0.18,0 -0.24,-0.06 -0.18,0 c 0,0 0,0 -0.06,0 l -0.18,0 c -0.06,0 -0.06,0 -0.06,0 l -0.18,0 -0.18,0.06 -0.42,0 -0.24,0.06 0.12,0 -0.36,0 -0.24,-0.06 -0.54,0 -0.18,-0.06 -0.24,0 c 0,0 -0.06,0 -0.12,0 l -0.24,0.06 -0.12,0 -0.18,0.06 -0.3,0 -0.18,0.06 0.06,0 -0.18,0.06 -0.42,0 -0.18,0.06 -0.18,0 c -0.06,0 -0.06,0 -0.12,0.06 l -0.12,0 -0.24,0.06 c 0,0 -0.06,0 -0.06,0.06 l -0.18,0.06 0.12,-0.06 -0.18,0.06 c -0.06,0 -0.06,0 -0.12,0 l -0.18,0.06 0.12,0 -0.3,0 -0.18,0.06 0.06,0 -0.18,0 c -0.06,0.06 -0.06,0.06 -0.12,0.06 l -0.18,0.06 0.12,-0.06 -0.3,0.06 -0.12,0.06 -0.18,0 -0.24,0.06 -0.06,0 -0.18,0.06 0.06,-0.06 -0.18,0.06 c -0.06,0 -0.06,0 -0.12,0 l -0.18,0.06 0.12,0 -0.24,0 C 24,-3.96 24,-3.9 23.94,-3.9 l -0.18,0.06 0.18,-0.06 -0.18,0 0.06,0.06 -0.18,-0.06 c -0.06,0 -0.06,0 -0.06,0 l -0.24,0 0.06,0 -0.18,0 c 0,0 0,0 -0.06,0 l -0.18,0 0.06,0 -0.18,-0.06 -0.42,0 -0.18,-0.06 -0.18,0 -0.24,-0.06 -0.3,0 -0.3,-0.06 -0.18,-0.06 -0.18,0 0.06,0 -0.18,-0.06 -0.3,-0.06 -0.12,0 -0.18,-0.06 0.06,0 -0.18,-0.06 -0.06,0 -0.24,-0.06 0.12,0 -0.24,-0.06 c 0,0 0,-0.06 -0.06,-0.06 l -0.18,-0.06 0.06,0.06 -0.18,-0.06 -0.6,-0.3 -0.18,-0.12 -0.3,-0.06 -0.36,-0.12 0.06,0 -0.18,-0.06 -0.24,-0.06 c -0.12,-0.06 -0.24,-0.06 -0.36,0 l -0.18,0.06 c -0.06,0 -0.06,0 -0.06,0 l -0.18,0.12 -0.24,0.12 -0.18,0.12 -0.18,0.06 -0.24,0.12 -0.24,0.18 -0.12,0.12 -0.3,0.18 -0.12,0.12 -0.24,0.18 c -0.06,0.06 -0.12,0.12 -0.12,0.18 l -0.24,0.42 -0.18,0.54 -0.18,0.6 -0.24,0.66 -0.18,0.54 0.12,-0.18 -0.24,0.24 -0.18,0.24 0.18,-0.12 -0.24,0.12 c -0.06,0 -0.12,0.06 -0.12,0.12 L 13.02,-0.42 12.54,0.18 12.72,0 12.54,0.12 12.3,0.3 12.12,0.42 11.88,0.54 11.7,0.66 11.76,0.66 11.58,0.72 11.52,0.78 10.8,1.26 10.56,1.38 10.38,1.5 10.2,1.56 9.84,1.8 9.6,1.92 9.42,1.98 9.06,2.22 8.7,2.34 8.52,2.46 8.28,2.52 7.74,2.7 7.5,2.82 7.62,2.76 7.14,2.88 6.96,2.94 l 0.12,0 -0.42,0 0.06,0 -0.6,0 0.06,0 -0.36,0 0.06,0 L 5.7,2.88 5.46,2.82 c -0.06,0 -0.12,0 -0.18,0 l -0.18,0 -0.24,0.06 -0.18,0 -0.18,0.06 -0.18,0 c -0.18,0 -0.3,0.12 -0.36,0.24 L 3.78,3.48 4.5,3.3 4.14,3.06 3.78,2.7 3.54,2.52 3.36,2.28 3.24,2.1 3,1.8 2.82,1.56 2.64,1.26 C 2.58,1.14 2.46,1.02 2.34,1.02 L 2.16,0.96 2.28,1.02 2.04,0.9 1.86,0.78 1.92,0.84 1.8,0.72 1.62,0.6 1.44,0.42 1.26,0.18 1.08,-0.12 0.9,-0.48" />
      </g>
      <g
         transform="matrix(1.2515006,0,0,-0.89416368,560.69839,323.34232)"
         id="g4395"
         style="font-size:11.53612423px">
        <path
           id="path4397"
           style="font-size:11.53612423px;fill:#00cc00;fill-opacity:1;fill-rule:nonzero;stroke:#b000c8"
           d="m 0,0 0.18,0 -0.06,0 0.18,0.06 0.06,0 0.24,0.06 0.18,0 0.18,0.06 0.18,0 0.24,0.06 0.36,0 0.24,0.06 0.36,0 c 0.06,0 0.12,0 0.18,0 L 2.7,0.24 C 2.82,0.24 2.94,0.18 3,0.06 L 3.18,-0.18 3.36,-0.36 3.54,-0.6 3.96,-1.02 4.14,-1.26 4.74,-1.86 4.92,-2.1 7.02,-4.2 7.26,-4.38 7.8,-4.92 8.04,-5.1 8.4,-5.46 8.64,-5.64 9,-6 9.18,-6.12 9.36,-6.3 9.6,-6.48 9.78,-6.6 l 0.18,-0.24 0.18,-0.12 0.18,-0.18 0.24,-0.18 0.18,-0.12 0.18,-0.18 0.24,-0.18 0.54,-0.54 0.18,-0.12 0.24,-0.18 0.36,-0.36 0.18,-0.12 0.24,-0.24 0.18,-0.12 0.18,-0.18 0.24,-0.18 0.18,-0.12 0.36,-0.36 0.24,-0.18 0.18,-0.12 0.18,-0.18 0.18,-0.12 0.24,-0.18 0.36,-0.36 0.18,-0.12 0.24,-0.18 0.18,-0.12 0.36,-0.36 0.24,-0.18 0.18,-0.12 0.18,-0.18 0.24,-0.12 0.36,-0.36 0.18,-0.12 0.24,-0.18 0.18,-0.12 0.36,-0.36 0.24,-0.18 0.18,-0.18 0.18,-0.12 0.18,-0.18 0.24,-0.18 0.18,-0.12 0.18,-0.18 0.18,-0.12 0.24,-0.18 0.36,-0.36 0.18,-0.12 0.24,-0.18 0.18,-0.18 0.18,-0.06 0.18,-0.18 0.18,-0.12 0.18,-0.06 0.24,-0.18 0.36,-0.18 0.18,-0.12 0.36,-0.12 0.24,-0.12 0.12,-0.12 0.18,-0.06 0.24,-0.06 0.18,-0.06 0.18,-0.12 0.36,-0.12 0.24,-0.06 0.12,-0.06 0.48,-0.12 0.12,-0.06 0.18,-0.06 0.24,-0.06 -0.12,0 0.3,0 0.36,-0.12 0.18,0 0.24,-0.06 -0.12,0 11.34,0 0,-1.02 -11.34,0 c -0.06,0 -0.12,0 -0.12,0.06 l -0.18,0 -0.24,0.06 -0.18,0.06 -0.24,0.06 0.12,0 -0.3,0 -0.36,0.12 -0.24,0.06 -0.36,0.12 -0.24,0.06 -0.18,0.06 -0.24,0.06 -0.18,0.12 -0.18,0.06 -0.24,0.12 -0.36,0.12 -0.24,0.12 -0.18,0.06 -0.24,0.12 -0.18,0.12 -0.18,0.06 -0.24,0.12 -0.36,0.24 -0.24,0.12 -0.24,0.18 -0.12,0.12 -0.3,0.18 -0.12,0.12 -0.48,0.36 -0.12,0.12 -0.24,0.18 -0.18,0.12 -0.24,0.18 -0.12,0.18 -0.24,0.18 -0.18,0.12 -0.24,0.18 -0.12,0.12 -0.24,0.18 -0.18,0.18 -0.24,0.18 -0.12,0.12 -0.24,0.18 -0.18,0.18 -0.24,0.18 -0.12,0.12 -0.24,0.18 -0.18,0.12 -0.18,0.18 -0.24,0.18 -0.18,0.12 -0.24,0.18 -0.12,0.18 -0.24,0.12 -0.18,0.18 -0.24,0.18 -0.12,0.12 -0.24,0.18 -0.18,0.18 -0.24,0.12 -0.12,0.18 -0.24,0.18 -0.18,0.12 -0.24,0.18 -0.12,0.18 -0.24,0.18 -0.18,0.12 -0.24,0.18 -0.36,0.36 -0.24,0.18 -0.18,0.12 -0.36,0.36 -0.24,0.18 -0.18,0.12 -0.36,0.36 -0.24,0.18 -0.12,0.18 -0.3,0.18 L 9.72,-7.92 9.48,-7.74 8.94,-7.2 8.7,-7.02 8.58,-6.9 8.28,-6.72 8.16,-6.54 7.92,-6.36 7.56,-6 7.32,-5.82 6.78,-5.28 6.54,-5.1 6.36,-4.92 6.12,-4.74 6,-4.56 5.76,-4.38 5.34,-3.96 5.22,-3.78 4.98,-3.6 4.14,-2.76 4.02,-2.58 3.6,-2.16 3.42,-1.92 3,-1.5 l -0.18,0.24 -0.24,0.24 -0.36,0.48 0.24,-0.18 -0.18,0.06 0.18,0 -0.18,-0.06 -0.42,0 -0.18,-0.06 -0.42,0 -0.18,-0.06 -0.18,0 -0.18,-0.06 -0.24,0 0.12,0 -0.24,-0.06 c 0,0 0,0 -0.06,0 L 0.12,-1.02" />
      </g>
      <path
         id="path4399"
         style="font-size:14.42015553px;fill:#00cc00;fill-opacity:1;fill-rule:nonzero;stroke:#b000c8;stroke-width:1.05784988"
         d="m 608.53073,339.92012 47.75726,0 0,0.91204 -47.75726,0 0,-0.91204 z" />
      <path
         id="path4401"
         style="font-size:14.42015553px;fill:#00cc00;fill-opacity:1;fill-rule:nonzero;stroke:#b000c8;stroke-width:1.05784988"
         d="m 656.28799,339.92012 3.67941,0 0,0.91204 -3.67941,0 0,-0.91204 z" />
      <text
         sodipodi:linespacing="125%"
         id="text29240"
         y="302.98874"
         x="606.47803"
         style="font-size:14.42015553px;font-style:normal;font-variant:normal;font-weight:normal;font-stretch:normal;line-height:125%;letter-spacing:0px;word-spacing:0px;fill:#000000;fill-opacity:1;stroke:none;display:inline;font-family:FreeSans;-inkscape-font-specification:FreeSans"
         xml:space="preserve"><tspan
           y="302.98874"
           x="606.47803"
           id="tspan29242"
           sodipodi:role="line">pôle</tspan></text>
      <path
         id="path29244"
         d="m 545.30093,300.71202 55.49691,-1.94176"
         style="font-size:14.42015553px;fill:none;stroke:#000000;stroke-width:0.84627992px;stroke-linecap:butt;stroke-linejoin:miter;stroke-opacity:1;display:inline"
         sodipodi:nodetypes="cc" />
      <text
         transform="translate(134.77934,244.59662)"
         sodipodi:linespacing="100%"
         id="text29246"
         y="113.93235"
         x="471.42856"
         style="font-size:14.42015553px;font-style:normal;font-variant:normal;font-weight:normal;font-stretch:normal;text-align:start;line-height:100%;letter-spacing:0px;word-spacing:0px;writing-mode:lr-tb;text-anchor:start;fill:#000000;fill-opacity:1;stroke:none;display:inline;font-family:FreeSans;-inkscape-font-specification:FreeSans"
         xml:space="preserve"><tspan
           y="113.93235"
           x="471.42856"
           id="tspan29248"
           sodipodi:role="line">kinétochore</tspan><tspan
           id="tspan29250"
           y="128.35251"
           x="471.42856"
           sodipodi:role="line">mérotélique</tspan></text>
      <path
         sodipodi:nodetypes="cc"
         id="path29244-0"
         d="m 538.65368,334.78146 57.21145,32.1899"
         style="font-size:14.42015553px;fill:none;stroke:#000000;stroke-width:0.84627992px;stroke-linecap:butt;stroke-linejoin:miter;stroke-opacity:1;display:inline" />
    </g>
  </g>
</svg>
