<?xml version="1.0" encoding="UTF-8" standalone="no"?>
<!-- Created with Inkscape (http://www.inkscape.org/) -->
<svg
   xmlns:dc="http://purl.org/dc/elements/1.1/"
   xmlns:cc="http://creativecommons.org/ns#"
   xmlns:rdf="http://www.w3.org/1999/02/22-rdf-syntax-ns#"
   xmlns:svg="http://www.w3.org/2000/svg"
   xmlns="http://www.w3.org/2000/svg"
   xmlns:xlink="http://www.w3.org/1999/xlink"
   xmlns:sodipodi="http://sodipodi.sourceforge.net/DTD/sodipodi-0.dtd"
   xmlns:inkscape="http://www.inkscape.org/namespaces/inkscape"
   width="340.63901"
   height="246.96492"
   id="svg2"
   sodipodi:version="0.32"
   inkscape:version="0.46"
   sodipodi:docname="mico.svg"
   inkscape:output_extension="org.inkscape.output.svg.inkscape"
   version="1.0"
   inkscape:export-filename="/home/guillaume/uniandes/enseignement/exams/final/mico.png"
   inkscape:export-xdpi="150"
   inkscape:export-ydpi="150">
  <defs
     id="defs4">
    <linearGradient
       id="linearGradient3600">
      <stop
         style="stop-color:#000000;stop-opacity:1;"
         offset="0"
         id="stop3602" />
      <stop
         style="stop-color:#ffffff;stop-opacity:1;"
         offset="1"
         id="stop3604" />
    </linearGradient>
    <inkscape:perspective
       sodipodi:type="inkscape:persp3d"
       inkscape:vp_x="0 : 526.18109 : 1"
       inkscape:vp_y="0 : 1000 : 0"
       inkscape:vp_z="744.09448 : 526.18109 : 1"
       inkscape:persp3d-origin="372.04724 : 350.78739 : 1"
       id="perspective10" />
    <inkscape:perspective
       id="perspective2685"
       inkscape:persp3d-origin="372.04724 : 350.78739 : 1"
       inkscape:vp_z="744.09448 : 526.18109 : 1"
       inkscape:vp_y="0 : 1000 : 0"
       inkscape:vp_x="0 : 526.18109 : 1"
       sodipodi:type="inkscape:persp3d" />
    <linearGradient
       inkscape:collect="always"
       xlink:href="#linearGradient3600"
       id="linearGradient3606"
       x1="338.19028"
       y1="182.07967"
       x2="338.19028"
       y2="213.01558"
       gradientUnits="userSpaceOnUse"
       gradientTransform="matrix(0.7394923,0,0,0.7394923,-74.49664,-50.833666)" />
  </defs>
  <sodipodi:namedview
     id="base"
     pagecolor="#ffffff"
     bordercolor="#666666"
     borderopacity="1.0"
     inkscape:pageopacity="0.0"
     inkscape:pageshadow="2"
     inkscape:zoom="0.90509668"
     inkscape:cx="118.25193"
     inkscape:cy="221.44612"
     inkscape:document-units="px"
     inkscape:current-layer="layer1"
     showgrid="false"
     inkscape:window-width="692"
     inkscape:window-height="678"
     inkscape:window-x="125"
     inkscape:window-y="31" />
  <metadata
     id="metadata7">
    <rdf:RDF>
      <cc:Work
         rdf:about="">
        <dc:format>image/svg+xml</dc:format>
        <dc:type
           rdf:resource="http://purl.org/dc/dcmitype/StillImage" />
      </cc:Work>
    </rdf:RDF>
  </metadata>
  <g
     inkscape:label="Calque 1"
     inkscape:groupmode="layer"
     id="layer1"
     transform="translate(-54.671848,-78.796632)">
    <rect
       style="opacity:1;fill:url(#linearGradient3606);fill-opacity:1;fill-rule:nonzero;stroke:#000000;stroke-width:1.09462702;stroke-linecap:round;stroke-linejoin:round;stroke-miterlimit:4;stroke-dasharray:none;stroke-dashoffset:0;stroke-opacity:1"
       id="rect3598"
       width="286.34534"
       height="4.4695144"
       x="55.219162"
       y="91.382462" />
    <path
       style="opacity:1;fill:#414141;fill-opacity:1;fill-rule:nonzero;stroke:#414141;stroke-width:1.63406253000000001;stroke-linecap:round;stroke-linejoin:round;stroke-miterlimit:4;stroke-dasharray:none;stroke-dashoffset:0;stroke-opacity:1"
       d="M 212.65439,268.06458 C 210.29658,265.11855 212.3082,264.46134 214.38054,262.95815 C 222.86419,256.80446 224.43776,253.22953 224.43374,240.11862 C 224.43138,232.37817 224.26575,231.56387 221.6297,226.33042 C 219.79168,222.68137 219.16031,220.66888 219.79389,220.47889 C 220.32504,220.31963 222.00938,219.78925 223.53687,219.30031 C 227.0137,218.1874 226.88735,218.17498 226.88735,219.62917 C 226.88735,220.29898 228.33398,224.65125 230.10209,229.30084 C 232.50514,235.6202 233.4627,239.55262 233.89461,244.8757 L 234.4724,251.99673 L 230.53545,255.42553 C 225.75469,259.58926 223.57528,261.72474 218.45695,267.26054 C 216.29174,269.60232 213.44341,272.2996 213.0822,272.2996 C 212.72097,272.2996 212.95815,269.96418 212.65439,268.0646 L 212.65439,268.06458 z"
       id="path3590"
       sodipodi:nodetypes="cssssssscccsscc" />
    <path
       style="opacity:1;fill:#414141;fill-opacity:1;fill-rule:nonzero;stroke:#414141;stroke-width:1.63406253000000001;stroke-linecap:round;stroke-linejoin:round;stroke-miterlimit:4;stroke-dasharray:none;stroke-dashoffset:0;stroke-opacity:1"
       d="M 163.37994,298.76658 C 161.10504,298.27273 159.61829,293.57255 159.54204,286.63344 C 159.49861,282.68044 159.92932,280.9798 161.7665,277.85035 C 163.68724,274.57856 164.43253,273.96945 166.51518,273.96945 C 167.87389,273.96945 169.7065,274.35529 170.58766,274.82689 C 172.13435,275.65465 172.10536,275.80302 169.7498,279.1163 C 168.40783,281.00388 166.98883,284.01895 166.59647,285.81642 C 165.69071,289.96591 166.27616,295.21227 167.64499,295.21227 C 168.21654,295.21227 169.70283,293.83353 170.94784,292.14839 C 175.92219,285.41562 178.85177,282.9573 181.91219,282.94781 C 188.52242,282.92729 190.61179,281.55806 194.66845,278.18724 C 201.75813,272.29619 198.96292,274.32409 199.31718,280.06235 C 199.50887,283.1671 204.81604,281.24599 195.25233,285.78156 C 184.97194,290.65701 178.94024,295.3587 176.61219,296.84359 C 174.11889,298.43386 166.76819,299.5021 163.37994,298.76657 L 163.37994,298.76658 z"
       id="path3592"
       sodipodi:nodetypes="cssssssssssssscc" />
    <path
       id="path2760"
       style="fill:none;fill-opacity:0.71010622999999995;fill-rule:evenodd;stroke:#666666;stroke-width:1.47898459000000004;stroke-linecap:butt;stroke-linejoin:miter;stroke-miterlimit:4;stroke-dasharray:none;stroke-opacity:1"
       d="M 72.68918,96.28627 C 72.95951,105.15023 87.32907,112.71067 96.39872,107.84186 C 105.4684,102.973 104.42023,95.44154 97.74279,102.71486 C 91.06534,109.9882 77.37738,105.86237 76.42544,96.0345 M 302.75911,160.11143 C 297.87656,159.39164 295.07114,162.37254 292.5904,163.61287 C 290.01736,164.89939 287.14546,167.10611 285.7627,169.87161 C 284.76937,171.8583 282.08469,175.60204 283.4868,178.40625 C 284.56904,180.57073 284.86457,185.03173 288.60756,184.09598 C 291.38582,183.40143 295.26335,183.65597 297.71117,181.82008 C 300.82506,179.48468 301.76872,177.76255 304.53887,174.99237 C 306.46884,173.06242 306.95894,169.31038 306.24581,166.45777 C 305.55467,163.69324 303.98916,160.24104 301.66775,158.17701 C 300.95292,155.31765 301.80843,156.44512 300.55603,153.94033 C 299.34957,151.52734 297.97629,149.08464 296.00424,147.11262 C 293.91016,145.01851 287.43368,150.91213 284.68286,148.84899 C 291.16019,145.34992 289.70981,141.42471 286.75494,137.89276 C 285.0585,135.79327 279.07802,135.30473 276.13434,135.49981 C 271.85702,135.94445 267.69075,138.14426 269.83141,140.28492 C 272.50903,144.23222 280.73746,149.06042 270.45849,145.12817 C 267.82489,146.44497 271.12637,153.78329 268.69345,156.21622 C 266.9449,157.96479 264.11089,164.87397 264.71065,162.47495 C 265.34997,159.91765 263.19909,159.63007 260.15885,159.63007 C 256.54624,159.63007 255.4008,158.67349 252.76216,157.35417 C 251.11946,156.53283 248.63678,155.36218 247.64137,153.37136 C 246.77373,151.63608 246.02858,149.19592 245.36547,146.54366 C 244.789,144.23773 243.08957,140.85093 243.08957,138.57798 C 244.26025,136.25145 245.80698,134.24077 247.61795,132.42981 C 248.43043,131.61733 249.49629,130.91892 250.47757,130.18297 C 251.3768,129.50852 252.70118,129.1733 253.54143,128.75316 C 254.54511,128.25132 255.78026,128.04226 256.80955,127.5276 C 256.93134,127.46671 257.08189,127.5276 257.21806,127.5276 C 257.40218,127.5276 260.1341,123.79455 260.48619,123.44246 C 261.99684,121.93182 263.24977,120.27037 264.77561,118.74453 C 266.14715,117.37298 267.43561,115.67601 268.86076,114.25086 C 270.25084,112.86078 271.21218,111.81872 272.94592,110.77847 C 274.07078,110.10357 274.40033,108.97542 275.19275,107.91887 C 275.89933,106.97677 276.36212,105.93246 277.03108,105.26352 C 277.63331,104.66128 278.01935,101.51462 278.25662,100.56559 C 278.61884,99.11673 278.46089,97.41397 278.46089,95.86766 C 278.46089,93.09155 277.89696,90.34381 277.23534,87.69734 C 277.16725,87.425 277.09917,87.15265 277.03108,86.88031 C 276.71125,85.601 276.23617,84.85984 275.39703,84.02069 C 274.63567,83.25935 273.42905,83.25943 272.12889,82.99941 C 270.5053,82.6747 268.48743,82.99941 266.81819,82.99941 C 265.70466,82.99941 264.81389,82.79514 263.75433,82.79514 C 262.72483,82.79514 262.3199,84.44765 262.12026,85.24624 C 261.83794,86.37552 261.77156,89.34182 261.77156,90.51164 C 264.66826,90.63086 264.46671,91.03356 271.10761,90.14843 C 271.89343,89.10066 272.99885,90.36012 273.15017,90.96546 C 273.33938,91.72226 273.35444,92.78975 273.35444,93.82507 C 273.35444,94.8906 272.74988,95.92478 272.33315,96.48042 C 271.72605,97.28991 271.5689,97.50172 270.29058,97.50172 C 268.92885,97.50172 267.56713,97.50172 266.2054,97.50172 C 264.83244,97.50172 263.36996,97.20136 262.12026,96.88894 C 260.99297,96.60712 260.42338,96.00909 259.66916,95.25487 C 258.9883,94.57402 259.64707,97.25326 260.07768,98.11449 C 260.62336,99.20585 261.87159,99.72635 262.73302,100.15707 C 263.5026,100.54184 264.97072,100.76755 265.79689,100.97411 C 266.61023,101.17743 265.67024,103.47426 265.59264,103.62945 C 265.09278,104.62917 264.05904,105.57155 263.34581,106.2848 C 262.44839,107.18222 262.24595,105.57253 261.09896,107.10184 C 259.91422,108.68149 258.22073,109.77581 256.80955,111.18698 C 255.72283,112.27372 254.54642,112.85365 253.94995,114.0466 C 253.55605,114.83437 251.20633,116.17743 250.47757,116.90622 C 249.29224,118.09152 248.68454,118.88074 247.20943,119.76581 C 245.97498,120.50649 244.73568,121.41122 243.53281,122.01266 C 242.66905,122.44452 242.08302,123.24818 241.28595,123.64671 C 240.15298,124.2132 239.83449,124.41307 239.68592,124.62009 C 236.87175,128.54172 236.26187,139.07203 236.26187,143.12978 C 236.26187,146.03751 236.96365,149.99531 236.26187,152.80237 C 235.66541,155.18834 235.27266,157.32823 234.55497,160.19906 C 233.72222,163.53003 231.33418,162.71118 227.72727,163.61287 C 224.5943,164.39613 223.65499,165.62664 220.33059,166.45777 C 216.74887,167.35321 212.57127,169.43239 208.95108,172.14751 C 205.57027,174.68311 202.45659,176.36612 199.84748,178.97521 C 197.31915,181.5036 195.72142,183.67026 193.5888,185.80292 C 192.74345,186.64824 190.98738,191.00504 189.037,191.49264 C 186.27641,192.18281 184.21266,194.12118 181.07133,194.90651 C 177.967,195.6826 174.28806,195.47546 170.8298,195.47546 C 164.59075,195.47546 159.50069,193.09746 153.76054,192.63062 C 152.81618,192.5538 151.87182,192.47699 150.92745,192.40017 C 144.27428,182.519 142.20438,178.81369 137.55927,165.88051 C 132.82215,152.69117 128.27812,125.88359 126.61061,111.4849 C 126.59819,111.37847 126.58056,111.27274 126.5578,111.16807 C 122.50895,92.53024 127.80744,112.59906 119.31468,92.39042 C 119.23346,92.19339 119.13325,92.00475 119.01545,91.82717 C 113.29547,83.31223 103.2578,79.26756 93.51048,79.54994 C 85.92826,79.76959 78.35677,82.61524 72.93404,88.3244 C 72.63216,88.63847 71.74585,90.48984 71.5888,90.89616 C 71.99143,91.01361 71.76566,91.36697 75.28943,91.07086 C 86.12539,79.66246 107.41625,80.45739 116.2839,93.65811 C 124.09618,130.28196 121.64941,175.98653 148.50652,204.14304 C 152.73667,207.48812 158.46252,207.96559 162.37198,209.92034 C 166.9508,212.20974 167.05904,216.58052 172.7711,218.00853 C 174.72809,218.49778 180.7693,224.85126 182.01476,226.09672 C 186.55403,230.63599 189.47835,235.24663 192.41388,241.11767 C 195.50347,247.29689 195.32647,256.23445 197.03569,263.07135 C 198.74755,269.9188 199.90069,276.8422 201.65753,283.86957 C 203.68775,291.9905 207.60366,295.67077 201.65753,297.15732 C 195.55898,298.68195 195.3025,298.16609 195.3025,304.66779 C 195.3025,310.03858 195.85259,309.2827 200.50207,310.44506 C 205.3883,311.66663 209.03672,301.83179 210.32345,306.9787 C 211.6711,312.3693 202.57073,311.99178 196.45796,316.80009 C 192.37434,320.01226 194.94231,312.75598 189.52523,312.75598 C 182.41084,312.75598 189.52523,313.98123 189.52523,320.84417 C 189.52523,326.35872 199.6138,325.62128 204.54616,323.15509 C 210.28291,320.28671 210.33761,319.67458 213.78982,316.22236 C 218.22586,316.82597 219.82277,313.9802 218.98937,308.13415 C 217.66613,302.84113 217.76327,296.29697 216.67845,291.95776 C 215.35063,286.64639 214.6433,281.50618 213.2121,275.78137 C 211.70379,269.74815 211.17698,265.33004 209.74572,259.60497 C 208.4109,254.26573 209.63531,247.6088 208.59026,243.42858 C 207.33063,238.39002 208.59026,231.32108 208.59026,226.09672 C 208.59026,219.82732 215.63609,220.29117 220.14483,219.16399 C 225.96571,217.70877 229.97137,216.12961 236.32122,214.54215 C 241.67028,213.20489 247.18524,211.24841 252.49762,209.92034 C 255.70013,209.1197 260.5863,200.67568 261.74127,198.36577 C 264.36067,193.12698 268.48865,192.58847 274.4513,192.58847 C 280.22857,192.58847 286.00587,192.58847 291.78314,192.58847 C 297.56044,192.58847 303.33771,192.58847 309.11501,192.58847 C 315.08847,192.58847 321.15292,192.7565 326.44685,191.43301 C 331.85999,190.07974 337.01922,188.21219 342.62325,186.8112 C 372.32033,179.97847 371.72759,181.08249 382.27852,190.27757 C 389.98039,192.20303 382.06712,187.12108 381.12306,183.34482 C 379.70921,177.68934 373.38692,181.93664 375.34579,174.10117 C 376.1775,170.77428 388.94785,169.47934 391.52217,169.47934 C 394.69822,169.47934 395.25346,163.07644 393.83309,160.23568 C 393.60101,159.77154 380.10711,162.22287 378.81214,162.5466 C 373.62699,163.84289 368.8991,168.65858 364.94668,170.63479 C 334.23393,178.45228 333.37033,174.48668 311.42591,181.0339 C 288.47885,187.16166 307.84199,174.8467 304.94275,171.94744"
       sodipodi:nodetypes="csscccccccccccccccccsssssssssssssssssssssssssssccssssssssssssssssssssssssssssssssczssccscccccssssssssssssssccsssssssssssssccsssssccc" />
    <path
       style="fill:#fcfcfc;fill-opacity:1;fill-rule:evenodd;stroke:#000000;stroke-width:0.7394923px;stroke-linecap:butt;stroke-linejoin:miter;stroke-opacity:1"
       d="M 288.31679,152.43635 C 281.22456,151.99767 279.52325,163.74877 286.00587,162.5466 C 290.8794,161.64285 293.97532,160.81341 288.31679,152.43635 z"
       id="path3546"
       sodipodi:nodetypes="csc" />
    <path
       style="fill:#000000;fill-opacity:1;fill-rule:evenodd;stroke:#000000;stroke-width:0.7394923px;stroke-linecap:butt;stroke-linejoin:miter;stroke-opacity:1"
       d="M 285.86144,159.03978 C 286.34372,158.76846 287.86361,158.63936 288.75008,158.46205 C 289.88424,158.23523 289.87725,158.75402 290.04996,159.61751 C 290.2403,160.56923 289.17213,160.77297 288.46122,160.77297 C 287.62401,160.77297 287.34213,160.33967 286.43917,160.33967 C 285.96501,160.33967 286.14593,159.41912 285.86144,159.03978 z"
       id="path3610" />
    <path
       style="fill:none;fill-rule:evenodd;stroke:#000000;stroke-width:0.7394923px;stroke-linecap:butt;stroke-linejoin:miter;stroke-opacity:1"
       d="M 300.44907,179.69357 C 298.0227,179.4776 295.49192,178.86437 293.51633,177.38268 C 292.11825,176.33411 290.46673,174.62192 289.7611,173.9163 C 289.74202,173.89722 289.47223,177.84407 289.47223,178.24926 C 289.47223,180.00278 289.54652,181.28649 290.04996,182.29335 C 290.54339,183.28023 294.47386,182.19841 295.24952,182.00449 C 295.82574,181.86045 297.02122,181.77821 297.27158,181.71562"
       id="path3612" />
    <path
       style="fill:none;fill-rule:evenodd;stroke:#000000;stroke-width:1.84873092;stroke-linecap:butt;stroke-linejoin:miter;stroke-miterlimit:4;stroke-dasharray:none;stroke-opacity:1"
       d="M 271.92464,90.09566 L 231.07308,196.30974 L 90.54368,90.09566"
       id="path3654" />
    <path
       sodipodi:type="arc"
       style="opacity:1;fill:none;fill-opacity:0.71010623;fill-rule:nonzero;stroke:#000000;stroke-width:2.5;stroke-linecap:round;stroke-linejoin:round;stroke-miterlimit:4;stroke-dasharray:none;stroke-dashoffset:0;stroke-opacity:1"
       id="path3656"
       sodipodi:cx="226.49515"
       sodipodi:cy="205.49132"
       sodipodi:rx="46.403881"
       sodipodi:ry="48.061165"
       d="M 272.89903,205.49132 A 46.403881,48.061165 0 0 1 264.23925,233.44991"
       transform="matrix(0.7394923,0,0,0.7394923,-73.01766,-56.749608)"
       sodipodi:start="0"
       sodipodi:end="0.62085328"
       sodipodi:open="true" />
    <path
       sodipodi:type="arc"
       style="opacity:1;fill:none;fill-opacity:0.71010623;fill-rule:nonzero;stroke:#000000;stroke-width:2.5;stroke-linecap:round;stroke-linejoin:round;stroke-miterlimit:4;stroke-dasharray:none;stroke-dashoffset:0;stroke-opacity:1"
       id="path3658"
       sodipodi:cx="226.49515"
       sodipodi:cy="205.49132"
       sodipodi:rx="46.403881"
       sodipodi:ry="48.061165"
       d="M 272.34638,198.09596 A 46.403881,48.061165 0 0 1 253.8427,244.3193"
       transform="matrix(-0.7394923,0,0,0.7394923,446.65748,-55.622183)"
       sodipodi:start="6.1286976"
       sodipodi:end="7.223743"
       sodipodi:open="true" />
    <path
       style="opacity:1;fill:#999999;fill-opacity:1;fill-rule:nonzero;stroke:none;stroke-width:0.97656250000000000;stroke-linecap:butt;stroke-linejoin:round;stroke-miterlimit:4;stroke-dasharray:none;stroke-dashoffset:0;stroke-opacity:1"
       d="M 138.66952,244.94256 C 136.71351,244.42177 136.03866,243.54743 135.6234,240.99599 C 135.2622,238.77663 134.42388,236.76194 133.35374,235.54143 C 132.79703,234.90651 132.84906,234.85979 134.08444,234.8853 C 136.15779,234.92809 136.76213,235.32991 137.88512,237.41226 C 139.24959,239.94241 140.2602,240.09669 143.10342,238.2089 C 144.24884,237.44837 146.76578,236.18912 148.6966,235.41055 C 153.21085,233.59026 154.78058,232.77988 155.64605,231.82286 C 156.67962,230.67993 156.90481,228.56758 156.1489,227.10581 C 155.21383,225.29758 154.02681,225.47503 151.45045,227.80819 C 148.19619,230.75528 147.42018,231.06063 144.71197,230.45982 C 141.77058,229.80726 141.38362,229.10684 141.57669,224.78481 C 141.6713,222.66658 141.91399,221.35535 142.27883,220.99115 C 142.58549,220.68504 144.32545,220.00353 146.14543,219.47668 C 151.39331,217.95753 151.80599,216.75829 149.46259,209.83693 C 148.7027,207.59258 147.02137,201.01018 145.72629,195.2094 C 142.92658,182.66918 142.94662,182.77118 141.65867,174.50592 C 141.10173,170.93187 140.28725,166.83312 139.84871,165.39759 C 137.02915,156.16802 125.40986,141.83305 117.78781,138.18058 C 115.73676,137.19772 114.42997,136.21174 112.81897,134.43152 C 109.81199,131.1087 108.85474,130.54184 102.43047,128.27976 C 99.343611,127.19283 96.25556,125.89914 95.568146,125.4049 C 92.085201,122.90072 85.716838,113.93836 81.897478,106.16583 C 75.124764,92.383122 72.009685,79.757786 67.832365,49.160325 C 65.862521,34.731899 65.941974,35.508559 66.469197,35.834403 C 66.684041,35.967184 66.859822,36.526876 66.859822,37.078161 C 66.859822,37.974696 66.978799,38.0567 67.986971,37.855067 C 68.913853,37.669692 69.399678,37.893266 70.721346,39.113423 C 71.830244,40.137153 72.328572,40.919806 72.328572,41.637661 C 72.328572,43.097786 75.186236,59.71011 76.639646,66.69902 C 80.565834,85.578614 85.59708,98.962571 93.088057,110.45452 L 95.64133,114.37152 L 99.316982,114.8415 C 101.33859,115.1 104.92623,115.76501 107.28951,116.31931 C 112.34756,117.50566 120.33114,117.98918 124.37931,117.35434 C 126.53491,117.01631 132.05298,114.89855 135.60982,113.04424 C 135.93209,112.87624 137.07467,111.43142 138.14888,109.83355 C 139.2231,108.23567 142.05411,104.92659 144.44001,102.48004 L 148.778,98.031743 L 161.62751,107.72727 C 168.69473,113.05982 174.98985,117.84349 175.61666,118.35766 C 176.49867,119.08118 176.82089,119.17539 177.04199,118.7744 C 177.1991,118.48943 180.70304,109.46722 184.82851,98.725028 C 188.95397,87.982841 192.5713,78.610516 192.86702,77.897641 L 193.40469,76.601513 L 194.68651,77.579208 C 195.39152,78.116934 197.35193,79.213962 199.04299,80.017044 C 201.50509,81.186286 202.78849,81.53604 205.48483,81.772567 C 207.33679,81.935016 208.91772,82.080434 208.99804,82.095704 C 209.07835,82.110977 209.06389,83.090263 208.9659,84.271903 C 208.86791,85.453544 208.91317,86.420341 209.06648,86.420341 C 209.48753,86.420341 211.16593,84.101993 212.16528,82.140001 C 212.6531,81.182298 213.64526,79.536595 214.37008,78.482888 C 215.67469,76.586313 215.68795,76.522985 215.68795,72.183798 C 215.68795,69.773016 215.77735,67.711153 215.88661,67.601888 C 215.99588,67.492622 217.03999,67.72554 218.20687,68.119477 C 219.37374,68.513419 220.58912,68.735704 220.90769,68.613454 C 222.27794,68.087641 221.86015,67.180349 218.76147,63.952696 C 216.61222,61.713993 215.67315,60.459829 215.83342,60.042192 C 215.96318,59.70404 216.90638,59.043739 217.92943,58.574856 C 219.45457,57.875852 220.45771,57.729552 223.50045,57.762349 C 228.56387,57.816927 230.67385,58.628446 232.38717,61.180282 C 233.08541,62.220251 233.65604,63.534665 233.65524,64.101204 C 233.65297,65.693899 232.39199,67.397809 230.15162,68.835446 L 228.10898,70.1462 L 229.21658,70.726532 C 230.80426,71.558395 232.76088,71.361337 236.24868,70.018306 C 237.92851,69.371454 239.60177,68.842216 239.96701,68.842216 C 241.52613,68.842216 245.601,75.594302 245.82965,78.556677 L 245.96138,80.263325 L 243.96513,80.780813 C 241.10321,81.5227 234.44929,85.663157 232.32888,88.021563 C 230.32293,90.252673 227.99938,94.615216 227.61952,96.863563 C 227.42244,98.030181 227.63129,99.063231 228.54299,101.43085 C 230.45993,106.40905 231.02876,106.70359 236.90118,105.75862 C 241.10374,105.08236 242.48476,104.65164 243.55454,103.68349 C 244.22789,103.07413 244.30815,103.0788 244.80353,103.75627 C 246.00321,105.39693 249.6212,105.07061 259.43795,102.43634 C 267.11844,100.37533 271.52404,99.529653 280.72701,98.349837 C 290.08279,97.150423 297.2176,95.878231 305.01917,94.018345 L 310.80513,92.638977 L 316.07857,89.148337 C 318.97896,87.228497 322.14303,85.396091 323.10982,85.076333 C 325.20287,84.384079 335.63664,82.514091 337.4061,82.514091 C 338.50922,82.514091 338.67572,82.662497 338.89721,83.843118 C 339.23256,85.630774 338.56128,88.424739 337.61163,89.19379 C 337.13992,89.575782 335.72738,89.905599 333.97874,90.042032 C 330.2071,90.336306 325.32263,91.37079 322.99783,92.367704 C 320.36016,93.498774 319.5942,94.617063 319.5942,97.336864 C 319.5942,99.939157 320.21227,100.80977 322.90547,102.0011 C 324.38112,102.65384 324.80751,103.10768 325.5847,104.85277 C 326.09305,105.99423 327.25627,107.86855 328.16962,109.01792 C 329.61881,110.8416 329.71326,111.07057 328.91144,110.81612 C 328.40609,110.65577 326.49849,109.29135 324.67232,107.78409 C 322.84615,106.27684 320.38521,104.58874 319.20357,104.03277 C 317.22378,103.10125 316.65652,103.02404 311.97701,103.04908 C 308.38724,103.06829 305.58226,103.33474 302.4067,103.95819 C 294.73019,105.46529 286.86701,107.3582 279.67549,109.4303 C 267.39285,112.96929 270.28726,112.71004 240.29732,112.95743 L 213.53951,113.17815 L 211.54018,114.08302 C 208.95532,115.25291 207.69012,116.63888 205.02529,121.21981 C 202.43171,125.67828 199.32511,129.51279 197.82571,130.10634 C 195.52557,131.01688 166.13781,139.24036 162.59219,139.96563 C 156.42945,141.22622 154.95598,141.94691 153.7421,144.2943 C 152.81958,146.07827 152.1488,159.43823 152.79678,163.12245 C 153.06668,164.657 153.4204,169.07659 153.58284,172.94378 C 153.87403,179.87604 153.93115,180.21941 157.64013,197.33432 C 159.9639,208.05722 161.69612,217.09195 162.17122,220.96713 C 162.59425,224.41756 163.13145,228.26988 163.36499,229.52784 C 164.17198,233.87462 163.0637,236.42034 160.36435,236.42034 C 159.16106,236.42034 158.55315,236.79188 156.33923,238.88038 C 151.21929,243.71027 143.71325,246.28548 138.66951,244.94256 L 138.66952,244.94256 z M 233.21686,83.89922 C 235.85538,83.196958 237.17232,82.015286 237.17232,80.350044 C 237.17232,78.92677 234.63424,73.58052 233.80804,73.263477 C 232.83755,72.891075 230.58662,73.533942 229.41798,74.517282 C 227.04969,76.510079 226.05788,81.192872 227.63318,82.944259 C 229.05681,84.527005 230.15346,84.714563 233.21687,83.89922 L 233.21686,83.89922 z"
       id="path3174"
       transform="translate(54.671848,78.796632)" />
    <path
       style="opacity:1;fill:#999999;fill-opacity:1;fill-rule:nonzero;stroke:none;stroke-width:2.5;stroke-linecap:butt;stroke-linejoin:round;stroke-miterlimit:4;stroke-dasharray:none;stroke-dashoffset:0;stroke-opacity:1"
       d="M 163.27151,106.22624 L 150.89416,96.835489 L 153.89651,94.730684 C 158.33645,91.618083 161.12944,90.156134 165.57179,88.619427 C 167.76376,87.861173 170.105,86.957505 170.77455,86.61127 C 171.4441,86.265036 173.30751,85.730032 174.91546,85.42238 C 178.04064,84.824434 179.27494,84.318767 180.02476,83.329192 C 180.28306,82.988306 180.96772,80.775809 181.54624,78.412528 C 182.50729,74.486501 182.60487,73.373958 182.67677,65.521903 C 182.76085,56.338958 183.59033,50.248536 185.11165,47.643669 C 185.49767,46.982716 187.21787,45.518583 188.93432,44.390044 C 190.65077,43.261505 192.89572,41.702684 193.92309,40.926001 L 195.79104,39.513845 L 199.09531,42.947563 C 200.91266,44.836106 202.40118,46.579481 202.40314,46.821731 C 202.40845,47.478888 201.71129,47.905876 198.69866,49.090618 C 197.19635,49.681415 195.15327,50.762259 194.15849,51.492497 C 191.36442,53.543536 187.56295,58.516306 187.56295,60.120247 C 187.56295,60.594516 188.51564,63.995177 189.68004,67.677278 L 191.79714,74.372013 L 183.96899,94.751638 C 179.6635,105.96044 176.03014,115.24056 175.89485,115.37413 C 175.75958,115.50771 170.07907,111.39115 163.27152,106.22624 L 163.27151,106.22624 z"
       id="path3176"
       transform="translate(54.671848,78.796632)" />
    <path
       style="opacity:1;fill:#999999;fill-opacity:1;fill-rule:nonzero;stroke:none;stroke-width:2.5;stroke-linecap:butt;stroke-linejoin:round;stroke-miterlimit:4;stroke-dasharray:none;stroke-dashoffset:0;stroke-opacity:1"
       d="M 201.41165,42.186161 C 200.55563,41.270817 199.35273,39.962075 198.73854,39.277841 L 197.62184,38.033778 L 202.37865,33.418466 C 205.53833,30.352778 207.52583,28.720567 208.29811,28.557188 C 209.68304,28.264196 209.89033,27.407095 206.35218,36.603466 C 204.86692,40.463946 203.49788,43.673802 203.30987,43.73647 C 203.12186,43.799141 202.26766,43.101501 201.41164,42.186161 L 201.41165,42.186161 z"
       id="path3178"
       transform="translate(54.671848,78.796632)" />
    <path
       style="opacity:1;fill:#999999;fill-opacity:1;fill-rule:nonzero;stroke:none;stroke-width:2.5;stroke-linecap:butt;stroke-linejoin:round;stroke-miterlimit:4;stroke-dasharray:none;stroke-dashoffset:0;stroke-opacity:1"
       d=""
       id="path3180"
       transform="translate(54.671848,78.796632)" />
    <path
       style="opacity:1;fill:#999999;fill-opacity:1;fill-rule:nonzero;stroke:none;stroke-width:2.5;stroke-linecap:butt;stroke-linejoin:round;stroke-miterlimit:4;stroke-dasharray:none;stroke-dashoffset:0;stroke-opacity:1"
       d="M 207.23781,40.717216 C 207.36859,40.180106 209.20828,35.265067 211.32601,29.794903 C 214.9934,20.321931 215.23188,19.834786 216.34287,19.546903 C 216.98442,19.380665 217.82987,18.890431 218.22167,18.457493 C 218.74908,17.874704 219.42539,17.670341 220.82662,17.670341 L 222.7192,17.670341 L 222.7192,19.733649 C 222.7192,20.86847 222.48741,22.670227 222.20411,23.737556 C 221.63799,25.870388 218.27096,31.342216 217.52466,31.342216 C 217.26661,31.342216 214.793,33.671317 212.02775,36.517997 C 208.52307,40.125895 207.07206,41.39795 207.23781,40.717216 z"
       id="path3182"
       transform="translate(54.671848,78.796632)" />
    <path
       style="opacity:1;fill:#999999;fill-opacity:1;fill-rule:nonzero;stroke:none;stroke-width:2.5;stroke-linecap:butt;stroke-linejoin:round;stroke-miterlimit:4;stroke-dasharray:none;stroke-dashoffset:0;stroke-opacity:1"
       d="M 218.81295,10.994692 C 218.15842,10.115419 217.61291,10.06545 214.51607,10.601083 C 213.33443,10.805458 211.35536,10.985516 210.11813,11.0012 L 207.86863,11.029716 L 208.12481,8.7836219 C 208.5836,4.7611415 208.24945,4.9786922 213.75086,5.1207274 C 216.40033,5.1891336 218.96406,5.3956454 219.44802,5.5796454 C 220.53594,5.9932743 221.15623,7.1063172 221.77779,9.7601844 L 222.2581,11.810966 L 220.82849,11.796388 C 219.86155,11.786532 219.20926,11.527079 218.81295,10.994688 L 218.81295,10.994692 z"
       id="path3188"
       transform="translate(54.671848,78.796632)" />
    <path
       style="opacity:1;fill:#999999;fill-opacity:1;fill-rule:nonzero;stroke:none;stroke-width:2.5;stroke-linecap:butt;stroke-linejoin:round;stroke-miterlimit:4;stroke-dasharray:none;stroke-dashoffset:0;stroke-opacity:1"
       d=""
       id="path3190"
       transform="translate(54.671848,78.796632)" />
    <path
       style="opacity:1;fill:#999999;fill-opacity:1;fill-rule:nonzero;stroke:none;stroke-width:2.5;stroke-linecap:butt;stroke-linejoin:round;stroke-miterlimit:4;stroke-dasharray:none;stroke-dashoffset:0;stroke-opacity:1"
       d="M 210.49947,21.119532 C 208.80621,20.755954 206.87811,19.831266 206.48416,19.193848 C 206.29412,18.88636 206.60204,18.845036 207.53361,19.053013 C 208.25873,19.214899 209.76174,19.453423 210.87364,19.583067 C 212.78197,19.805567 212.86954,19.864114 212.43614,20.627782 C 212.04049,21.324942 211.77273,21.392927 210.49947,21.119532 z"
       id="path3192"
       transform="translate(54.671848,78.796632)" />
    <path
       style="opacity:1;fill:#999999;fill-opacity:1;fill-rule:nonzero;stroke:none;stroke-width:2.5;stroke-linecap:butt;stroke-linejoin:round;stroke-miterlimit:4;stroke-dasharray:none;stroke-dashoffset:0;stroke-opacity:1"
       d="M 66.041979,31.607211 C 64.757486,27.868428 63.63185,18.533292 64.465529,18.533292 C 65.985134,18.533292 70.021587,27.347456 69.650942,29.856326 C 69.2522,32.555441 66.779845,33.754893 66.041979,31.607211 z"
       id="path3194"
       transform="translate(54.671848,78.796632)" />
    <path
       style="opacity:1;fill:#999999;fill-opacity:1;fill-rule:nonzero;stroke:none;stroke-width:2.5;stroke-linecap:butt;stroke-linejoin:round;stroke-miterlimit:4;stroke-dasharray:none;stroke-dashoffset:0;stroke-opacity:1"
       d=""
       id="path3196"
       transform="translate(54.671848,78.796632)" />
    <path
       style="opacity:1;fill:#999999;fill-opacity:1;fill-rule:nonzero;stroke:none;stroke-width:2.5;stroke-linecap:butt;stroke-linejoin:round;stroke-miterlimit:4;stroke-dasharray:none;stroke-dashoffset:0;stroke-opacity:1"
       d="M 59.326219,10.914464 C 55.404232,6.9456285 49.702915,4.3642399 43.3281,3.670988 C 41.388726,3.4600824 37.269681,3.5696687 35.435669,3.8809614 C 30.504899,4.7178776 25.968975,6.6750083 22.592392,9.4224952 C 20.899512,10.799972 21.070637,10.813782 21.070637,9.2996947 L 21.070637,7.983066 L 22.071911,7.2337455 C 25.604936,4.5897476 29.710802,2.8649167 34.536049,1.9976958 C 36.490618,1.6464101 41.276785,1.4990018 43.242666,1.7295421 C 50.110093,2.5348953 56.176249,5.33943 60.561683,9.7365583 C 61.290937,10.467756 62.030221,11.267989 62.20454,11.514855 L 62.521485,11.963702 L 61.44175,11.96317 L 60.36202,11.96264 L 59.326219,10.914464 z"
       id="path3198"
       transform="translate(54.671848,78.796632)" />
    <path
       style="opacity:1;fill:#999999;fill-opacity:1;fill-rule:nonzero;stroke:none;stroke-width:2.5;stroke-linecap:butt;stroke-linejoin:round;stroke-miterlimit:4;stroke-dasharray:none;stroke-dashoffset:0;stroke-opacity:1"
       d="M 18.387889,10.864352 C 18.592949,10.487589 19.264918,9.6952008 19.881155,9.1034919 L 21.001583,8.027658 L 21.070637,9.2706191 L 21.13969,10.51358 L 20.662816,11.031481 C 20.189455,11.545563 20.177937,11.549381 19.100494,11.549381 L 18.015049,11.549381 L 18.387889,10.864352 z"
       id="path3200"
       transform="translate(54.671848,78.796632)" />
    <path
       style="opacity:1;fill:#999999;fill-opacity:1;fill-rule:nonzero;stroke:none;stroke-width:2.5;stroke-linecap:butt;stroke-linejoin:round;stroke-miterlimit:4;stroke-dasharray:none;stroke-dashoffset:0;stroke-opacity:1"
       d="M 33.235672,29.629722 C 26.592035,28.769477 20.232573,24.047808 19.068642,19.111221 C 18.710718,17.59315 18.691218,17.62608 19.94799,17.62608 L 21.035052,17.62608 L 21.127897,18.325971 C 21.4649,20.86643 23.369985,23.815023 25.865469,25.658545 C 29.769485,28.542613 35.4939,29.183984 39.803242,27.220153 C 41.272044,26.550798 42.341435,25.769192 44.051545,24.115113 C 45.615747,22.602162 46.739961,21.769284 47.217929,21.769284 C 47.44809,21.769284 47.473876,21.838915 47.403745,22.271078 C 47.219991,23.403426 45.529329,25.495239 43.720151,26.828698 C 42.525555,27.709178 40.812167,28.656965 39.742703,29.028888 C 37.893584,29.671948 35.364963,29.905431 33.235673,29.629722 L 33.235672,29.629722 z"
       id="path3202"
       transform="translate(54.671848,78.796632)" />
    <path
       style="opacity:1;fill:#999999;fill-opacity:1;fill-rule:nonzero;stroke:none;stroke-width:2.5;stroke-linecap:butt;stroke-linejoin:round;stroke-miterlimit:4;stroke-dasharray:none;stroke-dashoffset:0;stroke-opacity:1"
       d="M 66.762205,33.415714 L 65.428408,32.382121 L 65.262788,31.18438 C 64.94064,28.85472 63.615215,20.849287 63.285877,19.244045 L 62.95196,17.6165 L 64.245624,17.655819 L 65.53928,17.695134 L 66.410387,19.559575 C 67.488271,21.86657 68.346136,23.351405 68.955957,23.965559 C 69.398824,24.411573 69.450908,24.574375 69.979028,27.163389 L 70.535477,29.891277 L 70.144034,30.77977 C 69.667218,31.862048 68.260658,34.479027 68.165053,34.461772 C 68.127074,34.454915 67.495792,33.984192 66.762206,33.415715 L 66.762205,33.415714 z M 68.375753,32.332051 C 68.605575,32.161743 68.978464,31.688651 69.204393,31.280733 C 69.577774,30.606593 69.614309,30.425899 69.60567,29.296104 C 69.597458,28.221506 69.518077,27.81806 69.019664,26.317618 C 67.968068,23.151867 65.716794,19.044134 64.805919,18.629111 C 64.269449,18.384676 64.159956,18.634997 64.159956,20.105944 C 64.159956,22.488094 64.781351,26.906701 65.548245,29.977759 C 66.037187,31.935772 66.287086,32.418362 66.919406,32.625721 C 67.482694,32.81044 67.822703,32.741878 68.375752,32.332049 L 68.375753,32.332051 z"
       id="path3204"
       transform="translate(54.671848,78.796632)" />
    <path
       style="opacity:1;fill:#999999;fill-opacity:1;fill-rule:nonzero;stroke:none;stroke-width:2.5;stroke-linecap:butt;stroke-linejoin:round;stroke-miterlimit:4;stroke-dasharray:none;stroke-dashoffset:0;stroke-opacity:1"
       d="M 70.621616,36.328162 L 69.832678,35.708321 L 70.483509,34.482964 C 70.841472,33.809017 71.150073,33.27278 71.169291,33.291327 C 71.216587,33.336969 71.617723,36.395596 71.617723,36.710563 C 71.617723,37.066716 71.508101,37.024634 70.621618,36.328162 L 70.621616,36.328162 z"
       id="path3206"
       transform="translate(54.671848,78.796632)" />
  </g>
</svg>
