<?xml version="1.0" encoding="UTF-8" standalone="no"?>
<!-- Created with Inkscape (http://www.inkscape.org/) -->
<svg
   xmlns:dc="http://purl.org/dc/elements/1.1/"
   xmlns:cc="http://creativecommons.org/ns#"
   xmlns:rdf="http://www.w3.org/1999/02/22-rdf-syntax-ns#"
   xmlns:svg="http://www.w3.org/2000/svg"
   xmlns="http://www.w3.org/2000/svg"
   xmlns:sodipodi="http://sodipodi.sourceforge.net/DTD/sodipodi-0.dtd"
   xmlns:inkscape="http://www.inkscape.org/namespaces/inkscape"
   width="362.25558"
   height="282.5"
   id="svg2"
   sodipodi:version="0.32"
   inkscape:version="0.46"
   sodipodi:docname="neutrofile.svg"
   inkscape:output_extension="org.inkscape.output.svg.inkscape"
   version="1.0">
  <defs
     id="defs4">
    <marker
       inkscape:stockid="EmptyTriangleOutL"
       orient="auto"
       refY="0"
       refX="0"
       id="EmptyTriangleOutL"
       style="overflow:visible">
      <path
         id="path3652"
         d="M 5.77,0 L -2.88,5 L -2.88,-5 L 5.77,0 z"
         style="fill:#ffffff;fill-rule:evenodd;stroke:#000000;stroke-width:1pt;marker-start:none"
         transform="matrix(0.8,0,0,0.8,-4.8,0)" />
    </marker>
    <marker
       inkscape:stockid="Arrow2Lend"
       orient="auto"
       refY="0"
       refX="0"
       id="Arrow2Lend"
       style="overflow:visible">
      <path
         id="path3512"
         style="font-size:12px;fill-rule:evenodd;stroke-width:0.625;stroke-linejoin:round"
         d="M 8.7185878,4.0337352 L -2.2072895,0.016013256 L 8.7185884,-4.0017078 C 6.97309,-1.6296469 6.9831476,1.6157441 8.7185878,4.0337352 z"
         transform="matrix(-1.1,0,0,-1.1,-1.1,0)" />
    </marker>
    <marker
       inkscape:stockid="Arrow1Lend"
       orient="auto"
       refY="0"
       refX="0"
       id="Arrow1Lend"
       style="overflow:visible">
      <path
         id="path3494"
         d="M 0,0 L 5,-5 L -12.5,0 L 5,5 L 0,0 z"
         style="fill-rule:evenodd;stroke:#000000;stroke-width:1pt;marker-start:none"
         transform="matrix(-0.8,0,0,-0.8,-10,0)" />
    </marker>
    <inkscape:perspective
       sodipodi:type="inkscape:persp3d"
       inkscape:vp_x="0 : 526.18109 : 1"
       inkscape:vp_y="0 : 1000 : 0"
       inkscape:vp_z="744.09448 : 526.18109 : 1"
       inkscape:persp3d-origin="372.04724 : 350.78739 : 1"
       id="perspective10" />
  </defs>
  <sodipodi:namedview
     id="base"
     pagecolor="#ffffff"
     bordercolor="#666666"
     borderopacity="1.0"
     inkscape:pageopacity="0.0"
     inkscape:pageshadow="2"
     inkscape:zoom="0.35"
     inkscape:cx="1461.8643"
     inkscape:cy="-83.804201"
     inkscape:document-units="px"
     inkscape:current-layer="layer1"
     showgrid="false"
     inkscape:window-width="1255"
     inkscape:window-height="678"
     inkscape:window-x="19"
     inkscape:window-y="65" />
  <metadata
     id="metadata7">
    <rdf:RDF>
      <cc:Work
         rdf:about="">
        <dc:format>image/svg+xml</dc:format>
        <dc:type
           rdf:resource="http://purl.org/dc/dcmitype/StillImage" />
      </cc:Work>
    </rdf:RDF>
  </metadata>
  <g
     inkscape:label="Calque 1"
     inkscape:groupmode="layer"
     id="layer1"
     transform="translate(-95.205272,-39.50504)">
    <g
       id="g3406"
       transform="matrix(-1,0,0,-1,523.46047,335.7045)" />
    <g
       id="g6979"
       transform="matrix(0.8895807,0,0,0.8895807,30.512497,19.958841)">
      <g
         transform="translate(28.571429,25.714286)"
         id="g3392">
        <g
           id="g3349">
          <path
             id="path3318"
             d="M 70.5,233.53125 C 68.932637,233.62943 67.296594,233.96794 66.062093,235.00031 C 64.905238,235.89757 64.260758,237.31213 63.981684,238.71819 C 63.829644,239.87681 63.836134,241.06815 64.08613,242.2077 C 64.37768,243.26049 64.835978,244.30215 65.625204,245.07828 C 66.452386,245.75207 67.399672,246.3089 68.450074,246.55377 C 69.452907,246.86465 70.533472,246.94251 71.575095,246.83294 C 73.168595,246.65689 74.735477,246.03171 75.96875,245 C 76.745148,244.29138 77.440378,243.46869 77.823907,242.47719 C 78.269815,241.49171 78.308463,240.35896 78.201747,239.29849 C 78.065181,238.1626 77.521164,237.10579 76.795405,236.2329 C 75.809177,234.98678 74.339252,234.17111 72.8125,233.78125 C 72.204463,233.67048 71.60477,233.5367 70.9846,233.52259 C 70.823657,233.50517 70.656841,233.47405 70.5,233.53125 z"
             style="fill:#67ce7a;fill-opacity:1;fill-rule:evenodd;stroke:none;stroke-width:3;stroke-linecap:round;stroke-linejoin:round;stroke-miterlimit:4;stroke-opacity:1"
             transform="matrix(2.332335,0,0,2.332335,-54.920992,-499.28029)" />
          <path
             sodipodi:nodetypes="ccccccc"
             id="path3265"
             d="M 88.65625,29.25 C 82.555598,29.807952 76.248731,31.852015 72.02404,36.495468 C 69.082442,39.582427 67.885497,43.904662 67.5625,48.0625 C 67.243618,52.090932 67.530131,56.140773 67.40625,60.178114 C 67.479337,65.129759 67.142937,70.143896 68.059042,75.034783 C 68.717919,78.074435 70.405328,81.186887 73.440469,82.378925 C 77.139481,83.952902 81.240759,84.109358 85.190817,84.517952 C 91.426936,85.164142 97.663653,85.810884 103.91304,86.325778 C 113.94912,87.224666 123.98957,88.091346 134.00502,89.196008 C 140.49464,89.802853 147.42981,89.488996 153.21875,86.1875 C 158.62992,82.831083 161.57069,76.388211 161.56041,70.13555 C 162.23767,61.934068 160.84039,53.633844 158.09375,45.90625 C 155.89117,40.394789 152.11113,35.119726 146.54728,32.65538 C 138.85975,29.574394 130.43696,30.062323 122.32676,29.673494 C 111.10621,29.383833 99.881213,29.125553 88.65625,29.25 z"
             style="fill:none;fill-rule:evenodd;stroke:#000000;stroke-width:1px;stroke-linecap:butt;stroke-linejoin:miter;stroke-opacity:1" />
        </g>
        <g
           id="g3353"
           transform="matrix(-1,0,0,1,310.71938,0.4322162)">
          <path
             id="path3355"
             d="M 69.75,233.5625 C 67.458917,233.83733 65.294322,234.93382 63.637323,236.52896 C 62.926341,237.37679 62.121347,238.24265 61.9375,239.375 C 61.743162,240.35698 61.887359,241.40642 62.290326,242.31721 C 63.193757,243.99784 64.799571,245.20509 66.53082,245.93108 C 68.373511,246.75866 70.454444,247.1203 72.450689,246.71134 C 74.405139,246.34215 76.200745,245.17717 77.278152,243.49645 C 78.139724,242.15269 78.51094,240.47733 78.135958,238.9095 C 77.834282,237.48297 77.007612,236.18947 75.871578,235.2851 C 74.721816,234.37806 73.331691,233.78218 71.87702,233.59696 C 71.178515,233.48861 70.453869,233.52195 69.75,233.5625 z"
             style="fill:#67ce7a;fill-opacity:1;fill-rule:evenodd;stroke:none;stroke-width:3;stroke-linecap:round;stroke-linejoin:round;stroke-miterlimit:4;stroke-opacity:1"
             transform="matrix(2.332335,0,0,2.332335,-54.920992,-499.28029)" />
          <path
             sodipodi:nodetypes="ccccccc"
             id="path3357"
             d="M 87.59375,29.3125 C 81.132773,30.271709 74.463634,32.479715 69.918706,37.394056 C 65.044396,43.279871 63.27558,51.082059 63.159397,58.574438 C 62.936266,66.606324 64.501038,74.675629 67.553574,82.099436 C 69.360653,85.792886 73.674993,87.617076 77.642171,87.3125 C 85.804629,87.402731 93.906151,85.391824 102.0737,86.293134 C 113.32411,86.914536 124.67512,87.85772 135.89261,86.319406 C 138.58278,85.866887 141.36985,85.422432 143.81127,84.153112 C 146.32976,82.728491 147.99267,79.914022 147.83469,76.998211 C 147.81686,72.993805 147.16162,69.026635 147.0349,65.025361 C 146.71641,60.204526 147.06527,55.35692 148.03125,50.625 C 148.79447,46.266357 149.86252,41.888324 149.80141,37.447164 C 149.13637,33.838434 145.49354,31.599453 142.03917,31.309545 C 131.61052,29.264958 120.93467,29.88403 110.375,29.5 C 102.78173,29.424104 95.187559,29.212117 87.59375,29.3125 z"
             style="fill:none;fill-rule:evenodd;stroke:#000000;stroke-width:1px;stroke-linecap:butt;stroke-linejoin:miter;stroke-opacity:1" />
        </g>
        <g
           id="g3359"
           transform="translate(181.4445,2.4525209)">
          <path
             id="path3361"
             d="M 69.9375,233.5625 C 68.770988,233.6876 67.62776,234.00822 66.609791,234.60135 C 64.916491,235.57387 63.586602,237.28021 63.313514,239.24493 C 63.073833,240.67088 63.574416,242.09962 64.163064,243.38102 C 64.603944,244.19426 65.164762,244.93912 65.90625,245.5 C 66.891553,246.67821 68.164399,247.59039 69.5625,248.21875 C 70.561728,248.59886 71.608481,248.89379 72.6875,248.875 C 73.580975,248.65108 74.500394,248.41988 75.22817,247.8256 C 75.635597,247.38482 76.172951,247.07241 76.519759,246.56549 C 77.688223,245.12496 78.318849,243.32422 78.709669,241.53232 C 78.834312,240.69254 78.587754,239.85462 78.523844,239.01806 C 78.297808,237.94403 77.825424,236.89995 77.09674,236.07399 C 76.262726,235.28581 75.33454,234.57326 74.242395,234.1837 C 72.907433,233.5313 71.394503,233.47908 69.9375,233.5625 z"
             style="fill:#67ce7a;fill-opacity:1;fill-rule:evenodd;stroke:none;stroke-width:3;stroke-linecap:round;stroke-linejoin:round;stroke-miterlimit:4;stroke-opacity:1"
             transform="matrix(2.332335,0,0,2.332335,-49.206706,-499.28029)" />
          <path
             sodipodi:nodetypes="ccccccc"
             id="path3363"
             d="M 78.21875,27.9375 C 74.34659,28.944005 70.239017,30.677867 68.125,34.28125 C 66.334475,38.964667 67.738133,44.020701 68.886412,48.677759 C 71.020254,56.959464 70.566414,65.862236 67.634971,73.893847 C 66.629878,77.163377 65.381605,80.854394 66.9375,84.15625 C 68.551262,87.070741 72.08302,87.922453 75.159265,88.155758 C 80.362324,88.405603 85.602425,88.57629 90.70602,89.71688 C 98.576619,91.135797 106.575,92.886887 114.61173,91.919806 C 121.72359,91.009426 128.63521,88.694131 135.83887,88.522949 C 139.17313,88.33465 142.8516,89.002914 145.83077,87.131086 C 150.34024,83.985998 152.54752,78.664969 154.1916,73.616474 C 155.84857,67.850589 155.55035,61.779785 155.02533,55.874044 C 154.73237,50.872235 154.8577,45.85265 154.90862,40.850739 C 154.33705,36.40416 150.3505,33.134219 146.15626,32.176286 C 139.36636,30.322594 132.26437,30.382221 125.29571,29.830692 C 110.10488,28.877172 94.914541,27.688824 79.6875,27.5625 C 79.197917,27.6875 78.708333,27.8125 78.21875,27.9375 z"
             style="fill:none;fill-rule:evenodd;stroke:#000000;stroke-width:1px;stroke-linecap:butt;stroke-linejoin:miter;stroke-opacity:1" />
        </g>
        <g
           id="g3386"
           transform="translate(271.46491,7.2789507)">
          <path
             id="path3388"
             d="M 70,233.5625 C 67.649883,233.68967 65.357323,234.94487 64.088319,236.94565 C 63.307368,238.20917 62.985689,239.74823 63.234348,241.21848 C 63.467354,242.69011 64.316541,244.01139 65.423345,244.98585 C 66.982794,246.39522 69.151971,246.95305 71.219768,246.875 C 72.558897,246.77178 73.911426,246.41894 75.043282,245.67387 C 76.07739,244.98424 77.050926,244.09784 77.592646,242.9589 C 78.100334,241.89212 78.378728,240.69799 78.212241,239.51564 C 78.126881,238.25714 77.498008,237.08976 76.71875,236.125 C 75.661352,234.88782 74.169009,234.06633 72.585647,233.71938 C 71.742312,233.52296 70.861238,233.4981 70,233.5625 z"
             style="fill:#67ce7a;fill-opacity:1;fill-rule:evenodd;stroke:none;stroke-width:3;stroke-linecap:round;stroke-linejoin:round;stroke-miterlimit:4;stroke-opacity:1"
             transform="matrix(2.332335,0,0,2.332335,-54.920992,-499.28029)" />
          <path
             sodipodi:nodetypes="ccccccc"
             id="path3390"
             d="M 78.375,27.21875 C 74.117677,27.714247 69.6798,30.205088 68.330663,34.489849 C 66.718886,40.556543 67.649553,46.876202 67.46875,53.063991 C 67.538393,59.951192 67.150939,66.932993 68.5625,73.71875 C 68.957122,75.989011 70.013555,78.165878 71.878645,79.583101 C 74.677407,82.121936 78.492178,83.082881 82.165481,83.405486 C 97.672175,86.095462 113.42884,87.634993 129.17803,87.086135 C 135.10657,86.91152 141.0832,87.056557 146.95614,86.134274 C 150.94414,85.037243 153.78371,81.338737 154.54066,77.367993 C 156.5988,70.214936 156.1464,62.692488 156.64898,55.34205 C 156.85266,50.050378 157.51038,44.518942 155.60151,39.447148 C 153.98922,35.595348 150.10371,33.270734 146.27401,32.053878 C 142.52515,30.969879 138.63402,30.399253 134.75,30.0625 C 128.10504,29.626808 121.44027,29.687439 114.7873,29.433266 C 105.14489,29.211576 95.503301,28.644024 85.934034,27.411247 C 83.42315,27.173262 80.893769,27.060143 78.375,27.21875 z"
             style="fill:none;fill-rule:evenodd;stroke:#000000;stroke-width:1px;stroke-linecap:butt;stroke-linejoin:miter;stroke-opacity:1" />
        </g>
      </g>
      <g
         id="g3408"
         transform="matrix(-1,0,0,-1,523.46047,335.7045)">
        <path
           id="path3410"
           d="M 70.53125,233.5625 C 67.641704,233.6612 64.629609,235.27635 63.558698,238.0701 C 62.531311,240.68355 63.711305,243.797 65.966463,245.36268 C 68.077573,246.89875 71.05785,247.14623 73.371122,245.9045 C 76.129187,244.50022 78.246311,241.53097 78.04349,238.36146 C 77.406643,235.57606 74.554435,233.8198 71.844019,233.57815 C 71.409141,233.52311 70.966833,233.50648 70.53125,233.5625 z"
           style="fill:#67ce7a;fill-opacity:1;fill-rule:evenodd;stroke:none;stroke-width:3;stroke-linecap:round;stroke-linejoin:round;stroke-miterlimit:4;stroke-opacity:1"
           transform="matrix(2.332335,0,0,2.332335,-54.920992,-499.28029)" />
        <path
           sodipodi:nodetypes="ccccccc"
           id="path3412"
           d="M 97.96875,29.3125 C 90.614299,29.652526 82.926978,29.060634 76,32.03125 C 72.238228,36.590724 73.267749,42.838526 73.159246,48.307782 C 73.445349,58.449866 71.936091,68.805691 74.59375,78.75 C 77.097646,83.535411 82.967909,84.797364 87.931823,84.86269 C 104.015,86.819016 120.23356,85.077187 136.20934,83.02668 C 142.70637,82.902951 149.97817,83.362966 155.41461,79.156221 C 160.85919,74.256637 161.60396,66.150154 160.16612,59.356943 C 158.89346,50.288068 156.42441,40.626409 149.44945,34.200267 C 143.28165,29.441642 135.05765,29.652571 127.66569,29.912343 C 117.76156,30.080826 107.87293,28.975535 97.96875,29.3125 z"
           style="fill:none;fill-rule:evenodd;stroke:#000000;stroke-width:1px;stroke-linecap:butt;stroke-linejoin:miter;stroke-opacity:1" />
      </g>
      <g
         id="g3414"
         transform="matrix(1,0,0,-1,212.74109,335.27228)">
        <path
           id="path3416"
           d="M 69.375,232.96875 C 68.172723,232.99304 66.938741,233.3359 66.036582,234.16376 C 64.988333,234.96071 64.116635,236.0318 63.726208,237.30303 C 63.038414,239.31969 63.031146,241.67094 64.152395,243.53467 C 65.16781,245.12893 66.880529,246.1623 68.6875,246.625 C 70.247439,247.02987 71.937575,246.93998 73.459278,246.41371 C 75.112301,245.83843 76.634431,244.74244 77.468373,243.1756 C 78.183334,241.96275 78.414591,240.47997 78.047636,239.11318 C 77.814376,238.11867 77.398913,237.14479 76.701655,236.38915 C 75.913852,235.48023 74.994436,234.68876 73.935789,234.1113 C 73.018802,233.4999 71.909749,233.27364 70.84375,233.0625 C 70.356355,233.01617 69.864902,232.8759 69.375,232.96875 z"
           style="fill:#67ce7a;fill-opacity:1;fill-rule:evenodd;stroke:none;stroke-width:3;stroke-linecap:round;stroke-linejoin:round;stroke-miterlimit:4;stroke-opacity:1"
           transform="matrix(2.332335,0,0,2.332335,-54.920992,-499.28029)" />
        <path
           sodipodi:nodetypes="ccccccc"
           id="path3418"
           d="M 87.625,26.5 C 80.301437,27.512444 73.201814,31.74525 69.733905,38.415049 C 66.343707,45.324247 66.527713,53.253787 67.010735,60.744992 C 67.468713,68.156813 67.772922,75.72257 70.14515,82.820089 C 71.535366,86.003341 75.191524,87.412708 78.480975,87.300486 C 81.926425,87.178948 85.360644,86.768175 88.810332,86.649426 C 97.473915,86.183532 106.17185,86.108171 114.82458,86.805343 C 123.56358,87.116161 132.58486,87.532066 140.96875,84.59375 C 143.87033,83.64187 145.81157,80.871223 146.30647,77.933389 C 147.02287,73.118179 146.36709,68.231632 146.44712,63.389506 C 146.22813,57.050864 146.4276,50.661373 147.67215,44.425962 C 148.20631,40.866594 148.64022,37.287927 148.75,33.6875 C 147.62414,31.62615 144.98565,31.632893 142.9375,31.59375 C 129.59074,31.182731 116.37479,29.135793 103.15918,27.385177 C 98.002655,26.825846 92.816997,26.362888 87.625,26.5 z"
           style="fill:none;fill-rule:evenodd;stroke:#000000;stroke-width:1px;stroke-linecap:butt;stroke-linejoin:miter;stroke-opacity:1" />
      </g>
      <g
         id="g3420"
         transform="matrix(-1,0,0,-1,342.01597,333.25198)">
        <path
           id="path3422"
           d="M 68.1875,232.84375 C 67.587592,232.96094 66.954597,232.94739 66.416953,233.27697 C 65.339898,233.64405 64.474341,234.50242 64.059758,235.55818 C 63.416116,236.7243 63.898609,238.07133 64.359433,239.20953 C 64.96938,240.84375 65.803971,242.38141 66.78249,243.82338 C 67.25408,244.56116 67.806861,245.24301 68.301009,245.96576 C 68.609969,246.42284 69.083869,246.72395 69.43878,247.13931 C 69.992249,247.55348 70.624823,247.82968 71.263539,248.08151 C 71.999703,248.22947 72.781208,248.15225 73.51116,248.00446 C 74.725691,247.66493 75.803981,246.88569 76.453925,245.79997 C 77.48451,244.39381 78.261563,242.71722 78.3125,240.95236 C 78.374629,239.35886 77.988372,237.7207 77.023613,236.43195 C 76.451092,235.54254 75.612482,234.86085 74.710978,234.32154 C 73.5978,233.60264 72.305063,233.20246 71.017463,232.93387 C 70.081929,232.82536 69.121921,232.63294 68.1875,232.84375 z"
           style="fill:#67ce7a;fill-opacity:1;fill-rule:evenodd;stroke:none;stroke-width:3;stroke-linecap:round;stroke-linejoin:round;stroke-miterlimit:4;stroke-opacity:1"
           transform="matrix(2.332335,0,0,2.332335,-49.206706,-499.28029)" />
        <path
           sodipodi:nodetypes="ccccccc"
           id="path3424"
           d="M 79.3125,27.625 C 74.964354,28.652693 70.332145,30.473203 67.90625,34.46875 C 65.317222,39.164144 65.948784,44.730754 66.569524,49.832355 C 67.669628,59.263393 65.845174,68.682677 64.367694,77.963911 C 64.035058,82.230935 67.016514,86.643995 71.305733,87.472759 C 77.511472,89.389426 84.08577,88.886278 90.474727,89.526213 C 100.53815,90.188309 110.80595,90.964114 120.71793,88.597405 C 125.79958,87.371468 131.17069,86.384999 136.33668,87.716873 C 139.89125,88.231559 143.93484,88.900291 147.08667,86.706834 C 150.85191,84.087329 152.67673,79.550978 153.37481,75.163601 C 154.291,68.802639 153.55083,62.349856 154.00822,55.957338 C 154.13155,50.598798 154.90399,45.244125 154.61391,39.884664 C 153.86522,36.198493 150.58877,33.600904 147.13058,32.548531 C 141.87658,30.649608 136.20975,30.731299 130.71781,30.181343 C 117.07126,29.345192 103.42858,28.418115 89.771792,27.768206 C 86.288032,27.647886 82.798208,27.573318 79.3125,27.625 z"
           style="fill:none;fill-rule:evenodd;stroke:#000000;stroke-width:1px;stroke-linecap:butt;stroke-linejoin:miter;stroke-opacity:1" />
      </g>
      <g
         id="g3426"
         transform="matrix(-1,0,0,-1,251.99556,328.42555)">
        <path
           id="path3428"
           d="M 70,233.5625 C 66.478644,233.62127 63.282804,236.68078 63.136806,240.21805 C 62.81046,242.75337 63.977233,245.7218 66.5,246.65625 C 69.08194,247.67032 72.001163,247.11066 74.456427,246.0124 C 76.658757,244.78536 78.121752,242.28656 77.9375,239.74949 C 77.805465,236.74072 75.302114,234.07815 72.330561,233.68009 C 71.56391,233.53643 70.777136,233.48815 70,233.5625 z"
           style="fill:#67ce7a;fill-opacity:1;fill-rule:evenodd;stroke:none;stroke-width:3;stroke-linecap:round;stroke-linejoin:round;stroke-miterlimit:4;stroke-opacity:1"
           transform="matrix(2.332335,0,0,2.332335,-54.920992,-499.28029)" />
        <path
           sodipodi:nodetypes="ccccccc"
           id="path3430"
           d="M 79.65625,27.09375 C 74.02679,27.032476 67.781089,31.122305 67.666838,37.17753 C 67.098158,46.410905 67.775148,55.670251 67.201459,64.904532 C 67.163276,70.752046 67.032755,77.22346 70.65625,82.15625 C 75.086041,86.930092 82.045298,87.418048 88.15288,87.661007 C 100.65744,88.291993 113.15717,86.822601 125.66342,87.185332 C 132.17097,86.983995 139.45914,86.566077 144.49076,81.912347 C 149.68872,76.495948 150.62191,68.623105 151.3714,61.489898 C 152.0902,53.408188 152.55179,44.774317 148.91954,37.271499 C 146.61452,32.826879 141.58847,30.571329 136.75697,30.414302 C 125.16735,28.899033 113.43993,29.989375 101.81436,28.967519 C 94.414973,28.532277 87.063444,27.282593 79.65625,27.09375 z"
           style="fill:none;fill-rule:evenodd;stroke:#000000;stroke-width:1px;stroke-linecap:butt;stroke-linejoin:miter;stroke-opacity:1" />
      </g>
      <path
         style="fill:#7067ce;fill-opacity:1;fill-rule:evenodd;stroke:#000000;stroke-width:0.77360016px;stroke-linecap:butt;stroke-linejoin:miter;stroke-opacity:1"
         d="M 356.95058,174.40639 C 355.25327,184.6583 369.0136,209.64126 383.09186,209.22923 C 394.48471,209.18103 400.83504,203.91394 412.20986,203.09157 C 419.89974,202.08044 426.10849,193.55882 427.27035,183.67251 C 429.04917,174.37253 426.84154,163.60877 420.89195,157.41752 C 418.32182,154.69734 402.87112,150.42991 399.56531,150.22355 C 368.89996,149.28941 368.76631,148.89488 356.95058,174.40639 z"
         id="path3454"
         sodipodi:nodetypes="ccccccc"
         transform="matrix(-1,0,0,-1,523.46047,335.7045)" />
      <path
         style="fill:#fff24c;fill-opacity:1;fill-rule:evenodd;stroke:none;stroke-width:3;stroke-linecap:round;stroke-linejoin:round;stroke-miterlimit:4;stroke-opacity:1"
         d="M 392.06584,166.40024 C 389.90224,166.51324 387.81955,167.49968 385.99505,168.93488 C 384.1558,170.33466 382.83935,172.59556 381.99169,175.04205 C 381.51181,176.76171 381.02814,178.49567 380.99246,180.33857 C 380.88758,181.76436 381.00374,183.23141 381.20241,184.63661 C 381.57794,186.80001 382.18991,189.05874 383.56703,190.53801 C 384.57432,191.84451 385.90523,192.68593 387.19918,193.45749 C 388.34782,193.6703 389.47707,194.18148 390.66103,194.02778 C 391.8304,194.01239 393.01397,194.04642 394.14405,193.63256 C 396.46123,193.1638 398.73096,192.14286 400.70362,190.5227 C 403.19605,188.4002 404.98606,184.90881 405.29927,181.10379 C 405.71405,177.1386 404.22228,173.18208 401.99984,170.45566 C 400.3498,168.59917 398.35046,167.22428 396.15658,166.75115 C 394.8122,166.35721 393.44059,166.23851 392.06584,166.40024 z"
         id="path3452"
         transform="matrix(-1,0,0,-1,523.46047,335.7045)" />
      <g
         transform="matrix(-1,0,0,-1,577.7585,342.04641)"
         id="g3472">
        <path
           sodipodi:nodetypes="ccccccc"
           id="path3464"
           d="M 263.81889,125.69031 C 262.12157,135.94222 275.88191,160.92518 289.96017,160.51315 C 301.35303,160.46495 307.70335,155.19786 319.07817,154.37549 C 326.76805,153.36436 332.9768,144.84274 334.13866,134.95643 C 335.91748,125.65645 333.70985,114.89269 327.76026,108.70144 C 325.19013,105.98127 309.73943,101.71383 306.43362,101.50747 C 275.76827,100.57333 275.63462,100.1788 263.81889,125.69031 z"
           style="fill:#7067ce;fill-opacity:1;fill-rule:evenodd;stroke:#000000;stroke-width:0.77360016px;stroke-linecap:butt;stroke-linejoin:miter;stroke-opacity:1" />
        <path
           id="path3466"
           d="M 298.93415,117.68416 C 296.77054,117.79716 294.68786,118.7836 292.86337,120.2188 C 291.02411,121.61859 289.70767,123.87948 288.86,126.32597 C 288.38012,128.04563 287.89645,129.77959 287.86077,131.62249 C 287.75589,133.04828 287.87205,134.51533 288.07072,135.92053 C 288.44625,138.08393 289.05822,140.34266 290.43534,141.82193 C 291.44263,143.12843 292.77354,143.96985 294.06749,144.74141 C 295.21614,144.95422 296.34538,145.4654 297.52934,145.3117 C 298.69871,145.29631 299.88228,145.33034 301.01236,144.91648 C 303.32954,144.44772 305.59927,143.42679 307.57193,141.80662 C 310.06436,139.68412 311.85437,136.19273 312.16759,132.38771 C 312.58236,128.42252 311.09058,124.466 308.86815,121.73958 C 307.21811,119.88309 305.21877,118.5082 303.02489,118.03507 C 301.68051,117.64113 300.3089,117.52243 298.93415,117.68416 z"
           style="fill:#fff24c;fill-opacity:1;fill-rule:evenodd;stroke:none;stroke-width:3;stroke-linecap:round;stroke-linejoin:round;stroke-miterlimit:4;stroke-opacity:1" />
      </g>
      <path
         sodipodi:nodetypes="csc"
         id="path3476"
         d="M 238.3785,90.443687 C 225.38333,91.852828 217.61339,88.297199 204.45062,89.643669 C 192.21336,90.895463 180.16747,91.356667 165.19949,86.605058"
         style="fill:none;fill-rule:evenodd;stroke:#ff02fa;stroke-width:5;stroke-linecap:round;stroke-linejoin:miter;stroke-miterlimit:4;stroke-dasharray:none;stroke-opacity:1"
         transform="matrix(-1,0,0,-1,523.46047,335.7045)" />
      <path
         sodipodi:nodetypes="cc"
         id="path4268"
         d="M 250.60333,125.48518 L 335.60333,125.48518"
         style="fill:none;fill-rule:evenodd;stroke:#000000;stroke-width:2;stroke-linecap:butt;stroke-linejoin:miter;marker-start:none;marker-mid:none;marker-end:url(#Arrow2Lend);stroke-miterlimit:4;stroke-dasharray:none;stroke-dashoffset:0;stroke-opacity:1"
         transform="matrix(-1,0,0,-1,523.46047,335.7045)" />
      <g
         id="g6903"
         transform="matrix(-1,0,0,-1,523.46047,335.7045)">
        <path
           style="fill:none;fill-rule:evenodd;stroke:#000000;stroke-width:1px;stroke-linecap:butt;stroke-linejoin:miter;marker-end:url(#EmptyTriangleOutL);stroke-opacity:1"
           d="M 212.0319,149.77089 L 122.74618,149.77089"
           id="path3486" />
        <g
           transform="translate(-7.1428571,-28.571429)"
           id="g6897">
          <text
             transform="matrix(-1,0,0,-1,523.46047,335.7045)"
             sodipodi:linespacing="125%"
             id="text6885"
             y="145.93361"
             x="342.85715"
             style="font-size:12px;font-style:normal;font-variant:normal;font-weight:normal;font-stretch:normal;text-align:start;line-height:125%;writing-mode:lr-tb;text-anchor:start;fill:#000000;fill-opacity:1;stroke:none;stroke-width:1px;stroke-linecap:butt;stroke-linejoin:miter;stroke-opacity:1;font-family:Sans;-inkscape-font-specification:Sans"
             xml:space="preserve"><tspan
               style="font-size:24px;font-style:italic;font-variant:normal;font-weight:bold;font-stretch:normal;font-family:LMMathItalic12;-inkscape-font-specification:LMMathItalic12 Bold Italic"
               y="145.93361"
               x="342.85715"
               id="tspan6887"
               sodipodi:role="line">v</tspan></text>
          <text
             transform="scale(-1,-1)"
             sodipodi:linespacing="125%"
             id="text6889"
             y="-181.48518"
             x="-167.74617"
             style="font-size:18px;font-style:italic;font-variant:normal;font-weight:bold;font-stretch:normal;text-align:start;line-height:125%;writing-mode:lr-tb;text-anchor:start;fill:#000000;fill-opacity:1;stroke:none;stroke-width:1px;stroke-linecap:butt;stroke-linejoin:miter;stroke-opacity:1;font-family:LMMathItalic12;-inkscape-font-specification:LMMathItalic12 Bold Italic"
             xml:space="preserve"><tspan
               y="-181.48518"
               x="-167.74617"
               id="tspan6891"
               sodipodi:role="line">i</tspan></text>
        </g>
      </g>
      <text
         transform="translate(523.46047,335.7045)"
         sodipodi:linespacing="125%"
         id="text6893"
         y="-142.62802"
         x="-309.88904"
         style="font-size:18px;font-style:normal;font-variant:normal;font-weight:normal;font-stretch:normal;text-align:start;line-height:125%;writing-mode:lr-tb;text-anchor:start;fill:#000000;fill-opacity:1;stroke:none;stroke-width:1px;stroke-linecap:butt;stroke-linejoin:miter;stroke-opacity:1;font-family:Sans;-inkscape-font-specification:Sans"
         xml:space="preserve"><tspan
           style="font-size:24px;font-style:italic;font-variant:normal;font-weight:bold;font-stretch:normal;font-family:LMMathItalic12;-inkscape-font-specification:LMMathItalic12 Bold Italic"
           y="-142.62802"
           x="-309.88904"
           id="tspan6895"
           sodipodi:role="line">F</tspan></text>
      <path
         sodipodi:nodetypes="ccccc"
         id="rect3443"
         d="M 101.42857,39.50504 C 219.04762,40.219326 301.19557,36.887266 452.14286,50.219326 L 452.14286,61.647898 C 313.49163,48.299848 214.55333,49.99038 101.42857,50.933612 L 101.42857,39.50504 z"
         style="fill:#cecd67;fill-opacity:1;fill-rule:evenodd;stroke:none;stroke-width:3;stroke-linecap:round;stroke-linejoin:round;stroke-miterlimit:4;stroke-opacity:1" />
      <path
         sodipodi:nodetypes="ccccc"
         id="path3448"
         d="M 451.07143,322.00504 C 333.45238,321.29075 251.30443,324.62281 100.35714,311.29075 L 100.35714,299.86218 C 239.00837,313.21023 337.94667,311.5197 451.07143,310.57646 L 451.07143,322.00504 z"
         style="fill:#cecd67;fill-opacity:1;fill-rule:evenodd;stroke:none;stroke-width:3;stroke-linecap:round;stroke-linejoin:round;stroke-miterlimit:4;stroke-opacity:1" />
    </g>
  </g>
</svg>
