<?xml version="1.0" encoding="UTF-8" standalone="no"?>
<!-- Created with Inkscape (http://www.inkscape.org/) -->

<svg
   xmlns:dc="http://purl.org/dc/elements/1.1/"
   xmlns:cc="http://creativecommons.org/ns#"
   xmlns:rdf="http://www.w3.org/1999/02/22-rdf-syntax-ns#"
   xmlns:svg="http://www.w3.org/2000/svg"
   xmlns="http://www.w3.org/2000/svg"
   xmlns:xlink="http://www.w3.org/1999/xlink"
   xmlns:sodipodi="http://sodipodi.sourceforge.net/DTD/sodipodi-0.dtd"
   xmlns:inkscape="http://www.inkscape.org/namespaces/inkscape"
   width="336.16623"
   height="250.19536"
   id="svg2"
   sodipodi:version="0.32"
   inkscape:version="0.47 r22583"
   sodipodi:docname="photo_spim.svg"
   version="1.0">
  <sodipodi:namedview
     id="base"
     pagecolor="#ffffff"
     bordercolor="#666666"
     borderopacity="1.0"
     inkscape:pageopacity="0.0"
     inkscape:pageshadow="2"
     inkscape:zoom="1.0892718"
     inkscape:cx="131.12507"
     inkscape:cy="99.771552"
     inkscape:document-units="mm"
     inkscape:current-layer="layer3"
     inkscape:window-width="986"
     inkscape:window-height="688"
     inkscape:window-x="35"
     inkscape:window-y="24"
     width="12.8cm"
     height="9.6cm"
     units="cm"
     showgrid="false"
     grid_units="mm"
     inkscape:object-paths="false"
     inkscape:grid-points="true"
     inkscape:grid-bbox="true"
     inkscape:guide-points="true"
     showguides="false"
     inkscape:guide-bbox="true"
     inkscape:snap-grids="false"
     inkscape:window-maximized="0"
     inkscape:snap-to-guides="false">
    <sodipodi:guide
       orientation="vertical"
       position="-32.554094,-35.433206"
       id="guide3573" />
    <sodipodi:guide
       orientation="horizontal"
       position="-89.030621,-24.397563"
       id="guide3579" />
    <sodipodi:guide
       orientation="horizontal"
       position="-89.030621,-11.414453"
       id="guide3886" />
    <sodipodi:guide
       orientation="horizontal"
       position="-89.030621,250.1952"
       id="guide3988" />
    <sodipodi:guide
       orientation="horizontal"
       position="-89.030621,267.7224"
       id="guide4081" />
    <inkscape:grid
       id="GridFromPre046Settings"
       type="xygrid"
       originx="0px"
       originy="0px"
       spacingx="2mm"
       spacingy="2mm"
       color="#0000ff"
       empcolor="#0000ff"
       opacity="0.2"
       empopacity="0.4"
       empspacing="5"
       units="mm"
       visible="true"
       enabled="true"
       snapvisiblegridlinesonly="true" />
  </sodipodi:namedview>
  <defs
     id="defs4">
    <marker
       inkscape:stockid="Arrow1Mend"
       orient="auto"
       refY="0"
       refX="0"
       id="marker6375"
       style="overflow:visible">
      <path
         id="path5133"
         d="M 0,0 5,-5 -12.5,0 5,5 0,0 z"
         style="fill-rule:evenodd;stroke:#000000;stroke-width:1pt;marker-start:none"
         transform="matrix(-0.4,0,0,-0.4,-4,0)" />
    </marker>
    <marker
       inkscape:stockid="Arrow1Lend"
       orient="auto"
       refY="0"
       refX="0"
       id="Arrow1Lend"
       style="overflow:visible">
      <path
         id="path5127"
         d="M 0,0 5,-5 -12.5,0 5,5 0,0 z"
         style="fill-rule:evenodd;stroke:#000000;stroke-width:1pt;marker-start:none"
         transform="matrix(-0.8,0,0,-0.8,-10,0)" />
    </marker>
    <marker
       inkscape:stockid="Arrow1Lstart"
       orient="auto"
       refY="0"
       refX="0"
       id="Arrow1Lstart"
       style="overflow:visible">
      <path
         id="path5124"
         d="M 0,0 5,-5 -12.5,0 5,5 0,0 z"
         style="fill-rule:evenodd;stroke:#000000;stroke-width:1pt;marker-start:none"
         transform="matrix(0.8,0,0,0.8,10,0)" />
    </marker>
    <inkscape:perspective
       sodipodi:type="inkscape:persp3d"
       inkscape:vp_x="0 : 170.07874 : 1"
       inkscape:vp_y="0 : 1000 : 0"
       inkscape:vp_z="453.5433 : 170.07874 : 1"
       inkscape:persp3d-origin="226.77165 : 113.38582 : 1"
       id="perspective2879" />
    <inkscape:perspective
       id="perspective2928"
       inkscape:persp3d-origin="0.5 : 0.33333333 : 1"
       inkscape:vp_z="1 : 0.5 : 1"
       inkscape:vp_y="0 : 1000 : 0"
       inkscape:vp_x="0 : 0.5 : 1"
       sodipodi:type="inkscape:persp3d" />
    <inkscape:perspective
       id="perspective3012"
       inkscape:persp3d-origin="0.5 : 0.33333333 : 1"
       inkscape:vp_z="1 : 0.5 : 1"
       inkscape:vp_y="0 : 1000 : 0"
       inkscape:vp_x="0 : 0.5 : 1"
       sodipodi:type="inkscape:persp3d" />
    <inkscape:perspective
       id="perspective3062"
       inkscape:persp3d-origin="0.5 : 0.33333333 : 1"
       inkscape:vp_z="1 : 0.5 : 1"
       inkscape:vp_y="0 : 1000 : 0"
       inkscape:vp_x="0 : 0.5 : 1"
       sodipodi:type="inkscape:persp3d" />
    <inkscape:perspective
       id="perspective3084"
       inkscape:persp3d-origin="0.5 : 0.33333333 : 1"
       inkscape:vp_z="1 : 0.5 : 1"
       inkscape:vp_y="0 : 1000 : 0"
       inkscape:vp_x="0 : 0.5 : 1"
       sodipodi:type="inkscape:persp3d" />
    <inkscape:perspective
       id="perspective3910"
       inkscape:persp3d-origin="0.5 : 0.33333333 : 1"
       inkscape:vp_z="1 : 0.5 : 1"
       inkscape:vp_y="0 : 1000 : 0"
       inkscape:vp_x="0 : 0.5 : 1"
       sodipodi:type="inkscape:persp3d" />
    <inkscape:perspective
       id="perspective3932"
       inkscape:persp3d-origin="0.5 : 0.33333333 : 1"
       inkscape:vp_z="1 : 0.5 : 1"
       inkscape:vp_y="0 : 1000 : 0"
       inkscape:vp_x="0 : 0.5 : 1"
       sodipodi:type="inkscape:persp3d" />
    <inkscape:perspective
       id="perspective4977"
       inkscape:persp3d-origin="0.5 : 0.33333333 : 1"
       inkscape:vp_z="1 : 0.5 : 1"
       inkscape:vp_y="0 : 1000 : 0"
       inkscape:vp_x="0 : 0.5 : 1"
       sodipodi:type="inkscape:persp3d" />
    <marker
       refX="0"
       refY="0"
       orient="auto"
       id="Arrow1Mstart"
       style="overflow:visible">
      <path
         d="M 0,0 5,-5 -12.5,0 5,5 0,0 z"
         transform="matrix(0.4,0,0,0.4,4,0)"
         id="path5748"
         style="fill-rule:evenodd;stroke:#000000;stroke-width:1pt;marker-start:none" />
    </marker>
    <marker
       refX="0"
       refY="0"
       orient="auto"
       id="Arrow1Mend"
       style="overflow:visible">
      <path
         d="M 0,0 5,-5 -12.5,0 5,5 0,0 z"
         transform="matrix(-0.4,0,0,-0.4,-4,0)"
         id="path4361"
         style="fill-rule:evenodd;stroke:#000000;stroke-width:1pt;marker-start:none" />
    </marker>
    <marker
       refX="0"
       refY="0"
       orient="auto"
       id="marker4985"
       style="overflow:visible">
      <path
         d="M 0,0 5,-5 -12.5,0 5,5 0,0 z"
         transform="matrix(-0.4,0,0,-0.4,-4,0)"
         id="path4987"
         style="fill-rule:evenodd;stroke:#000000;stroke-width:1pt;marker-start:none" />
    </marker>
    <inkscape:perspective
       id="perspective5052"
       inkscape:persp3d-origin="0.5 : 0.33333333 : 1"
       inkscape:vp_z="1 : 0.5 : 1"
       inkscape:vp_y="0 : 1000 : 0"
       inkscape:vp_x="0 : 0.5 : 1"
       sodipodi:type="inkscape:persp3d" />
    <marker
       refX="0"
       refY="0"
       orient="auto"
       id="Arrow1Mend-8"
       style="overflow:visible">
      <path
         d="M 0,0 5,-5 -12.5,0 5,5 0,0 z"
         transform="matrix(-0.4,0,0,-0.4,-4,0)"
         id="path4361-8"
         style="fill-rule:evenodd;stroke:#000000;stroke-width:1pt;marker-start:none" />
    </marker>
    <marker
       refX="0"
       refY="0"
       orient="auto"
       id="Arrow1Mstart-7"
       style="overflow:visible">
      <path
         d="M 0,0 5,-5 -12.5,0 5,5 0,0 z"
         transform="matrix(0.4,0,0,0.4,4,0)"
         id="path5748-6"
         style="fill-rule:evenodd;stroke:#000000;stroke-width:1pt;marker-start:none" />
    </marker>
    <marker
       refX="0"
       refY="0"
       orient="auto"
       id="marker5060"
       style="overflow:visible">
      <path
         d="M 0,0 5,-5 -12.5,0 5,5 0,0 z"
         transform="matrix(-0.4,0,0,-0.4,-4,0)"
         id="path5062"
         style="fill-rule:evenodd;stroke:#000000;stroke-width:1pt;marker-start:none" />
    </marker>
    <marker
       refX="0"
       refY="0"
       orient="auto"
       id="Arrow1Mstartu"
       style="overflow:visible"
       inkscape:stockid="Arrow1Mstartu">
      <path
         d="M 0,0 5,-5 -12.5,0 5,5 0,0 z"
         transform="matrix(0.4,0,0,0.4,4,0)"
         id="path6608"
         style="fill:#ff1313;fill-rule:evenodd;stroke:#ff1313;stroke-width:1pt;marker-start:none" />
    </marker>
    <marker
       inkscape:stockid="marker6375g"
       orient="auto"
       refY="0"
       refX="0"
       id="marker6375g"
       style="overflow:visible">
      <path
         id="path6611"
         d="M 0,0 5,-5 -12.5,0 5,5 0,0 z"
         style="fill:#ff1313;fill-rule:evenodd;stroke:#ff1313;stroke-width:1pt;marker-start:none"
         transform="matrix(-0.4,0,0,-0.4,-4,0)" />
    </marker>
    <marker
       inkscape:stockid="Arrow1Mendi"
       refX="0"
       refY="0"
       orient="auto"
       id="Arrow1Mendi"
       style="overflow:visible">
      <path
         d="M 0,0 5,-5 -12.5,0 5,5 0,0 z"
         transform="matrix(-0.4,0,0,-0.4,-4,0)"
         id="path7155"
         style="fill:#ff1313;fill-rule:evenodd;stroke:#ff1313;stroke-width:1pt;marker-start:none" />
    </marker>
    <inkscape:perspective
       id="perspective7349"
       inkscape:persp3d-origin="0.5 : 0.33333333 : 1"
       inkscape:vp_z="1 : 0.5 : 1"
       inkscape:vp_y="0 : 1000 : 0"
       inkscape:vp_x="0 : 0.5 : 1"
       sodipodi:type="inkscape:persp3d" />
  </defs>
  <metadata
     id="metadata7">
    <rdf:RDF>
      <cc:Work
         rdf:about="">
        <dc:format>image/svg+xml</dc:format>
        <dc:type
           rdf:resource="http://purl.org/dc/dcmitype/StillImage" />
        <dc:title></dc:title>
      </cc:Work>
    </rdf:RDF>
  </metadata>
  <g
     inkscape:groupmode="layer"
     id="layer2"
     inkscape:label="photo"
     sodipodi:insensitive="true"
     transform="translate(-89.030621,-54.529047)"
     style="display:inline">
    <image
       transform="translate(4.149475e-6,-698.0315)"
       y="752.56055"
       x="89.030617"
       id="image3014"
       height="250.19536"
       width="336.16623"
       xlink:href="file:///home/guillaume/Presentations/cnrs_oct10/illus/spim2.jpg" />
  </g>
  <g
     inkscape:label="Layer 1"
     inkscape:groupmode="layer"
     id="layer1"
     transform="translate(-89.030617,-752.56055)"
     style="display:inline">
    <g
       id="g3118"
       style="stroke:#f10000;stroke-opacity:0.70967742">
      <path
         sodipodi:nodetypes="ccccc"
         transform="translate(-4.149475e-6,698.0315)"
         id="path3035"
         d="m 233.1833,178.46689 -1.43444,0 c -2.4473,9.69799 -5.6811,18.29489 -0.74592,38.32835 l 1.83609,-0.11475 0.34427,-38.2136 z"
         style="fill:none;stroke:#f10000;stroke-width:1px;stroke-linecap:butt;stroke-linejoin:miter;stroke-opacity:0.70967742" />
      <path
         transform="translate(-4.149475e-6,698.0315)"
         id="path3037"
         d="m 196.92054,169.4012 34.77094,8.95093 1.60658,0 -35.68898,-9.40996 -0.68854,0.45903 z"
         style="fill:none;stroke:#f10000;stroke-width:1px;stroke-linecap:butt;stroke-linejoin:miter;stroke-opacity:0.70967742" />
      <path
         sodipodi:nodetypes="ccccc"
         id="path3035-4"
         d="m 197.7509,867.77696 -1.43444,0 c -2.4473,9.69799 -5.6811,18.29489 -0.74592,38.32835 l 1.83609,-0.11475 0.34427,-38.2136 z"
         style="fill:none;stroke:#f10000;stroke-width:1px;stroke-linecap:butt;stroke-linejoin:miter;stroke-opacity:0.70967742" />
      <path
         sodipodi:nodetypes="ccccc"
         d="m 230.89688,216.76845 -35.35341,-8.46512 2.12298,-0.22951 35.40209,8.31978 -2.17166,0.37485 z"
         style="fill:none;stroke:#f10000;stroke-width:1px;stroke-linecap:butt;stroke-linejoin:miter;stroke-opacity:0.70967742"
         transform="translate(-4.149475e-6,698.0315)"
         id="path3113" />
    </g>
    <path
       style="fill:none;stroke:#ff7a15;stroke-width:2;stroke-linecap:butt;stroke-linejoin:miter;stroke-miterlimit:4;stroke-opacity:0.7741935;stroke-dasharray:none"
       d="m 141.60836,137.04013 146.54623,35.03644"
       id="path3898"
       transform="translate(-4.149475e-6,698.0315)"
       sodipodi:nodetypes="cc" />
    <path
       style="fill:none;stroke:#0fe600;stroke-width:2;stroke-linecap:butt;stroke-linejoin:miter;stroke-miterlimit:4;stroke-opacity:0.5241935;stroke-dasharray:none"
       d="m 144.93965,181.06689 52.43991,17.25271 88.85063,-26.37747"
       id="path3896"
       transform="translate(-4.149475e-6,698.0315)"
       sodipodi:nodetypes="ccc" />
    <g
       transform="matrix(2.7717467,0,0,2.7717467,350.94004,926.13271)"
       id="g10051"
       style="font-size:12px;fill:#ff1313;display:inline">
      <g
         transform="matrix(0.5501973,0,0,0.5501973,-213.06957,-137.74256)"
         id="g10053"
         style="font-size:21.81035805px;fill:#ff1313">
        <g
           transform="matrix(0.3780362,0,0,-0.3780362,-66.156342,353.21416)"
           id="g10055"
           xml:space="preserve"
           style="font-size:57.6938324px;font-style:normal;font-variant:normal;font-weight:normal;font-stretch:normal;letter-spacing:normal;word-spacing:normal;text-anchor:start;fill:#ff1313;stroke:#000000;stroke-linecap:butt;stroke-linejoin:miter;stroke-miterlimit:10.43299961;stroke-opacity:1;stroke-dasharray:none;stroke-dashoffset:0"><path
             d="m 1241,380.77 0,0.06 0,0.06 -0.1,0.05 0,0.05 0,0.06 -0.1,0.04 0,0.05 0,0.04 0,0.05 -0.1,0.04 0,0.03 0,0.04 0,0.03 -0.1,0.03 0,0.03 0,0.03 -0.1,0.03 0,0.02 0,0.02 -0.1,0.02 0,0.02 -0.1,0.02 0,0.02 -0.1,0.01 0,0.01 -0.1,0.01 0,0.01 -0.1,0.01 -0.1,0 0,0.01 -0.1,0 -0.1,0 c -0.8,0 -0.9,-0.25 -1.3,-0.9 l -0.3,-4.09 13.4,-26.89 -26.8,0 13.4,26.89 0.3,4.09 -16.8,-33.77 c -0.3,-0.45 -0.3,-0.55 -0.3,-0.6 0,-0.4 0.3,-0.4 1.1,-0.4 l 34.6,0 c 0.8,0 1.1,0 1.1,0.4 0,0.05 0,0.15 -0.2,0.6 l -16.9,33.77 z"
             id="path10057"
             style="font-size:57.6938324px;fill:#ff1313;stroke-width:0" /></g>      </g>
      <text
         x="13.798443"
         y="-15.371177"
         id="text10059"
         xml:space="preserve"
         style="font-size:12px;font-style:normal;font-weight:normal;text-align:start;text-anchor:start;fill:#ff1313;fill-opacity:1;stroke:none;font-family:Bitstream Vera Sans"><tspan
           x="13.798443"
           y="-15.371177"
           id="tspan10061"
           style="font-size:12px;fill:#ff1313">z</tspan></text>
    </g>
    <path
       d="m 296.38675,794.22457 c 27.31183,1.2661 12.64425,9.0027 -0.65365,8.54368 -13.2979,-0.45902 -29.57205,0.52579 -29.57205,-5.33053 0,-4.65902 12.77223,-4.25784 19.83759,-4.32909"
       id="path10063"
       style="font-size:12px;fill:none;stroke:#ff1313;stroke-width:1.94895482;stroke-linecap:square;stroke-linejoin:round;stroke-miterlimit:4;stroke-opacity:1;stroke-dasharray:none;stroke-dashoffset:0;marker-end:url(#Arrow1Mendi);display:inline"
       sodipodi:nodetypes="czsc" />
    <g
       transform="matrix(1.2373371,0,0,1.2373371,-204.88506,506.69666)"
       id="g11444"
       style="font-size:18.90144539px;fill:#ff1313;display:inline">
      <g
         transform="matrix(0.3826133,0,0,-0.3826133,-66.95732,353.21416)"
         id="g11446"
         xml:space="preserve"
         style="font-size:49.40090942px;font-style:normal;font-variant:normal;font-weight:normal;font-stretch:normal;letter-spacing:normal;word-spacing:normal;text-anchor:start;fill:#ff1313;stroke:#000000;stroke-linecap:butt;stroke-linejoin:miter;stroke-miterlimit:10.43299961;stroke-opacity:1;stroke-dasharray:none;stroke-dashoffset:0"><path
           d="m 1229,380.77 0,0.06 0,0.06 -0.1,0.05 0,0.05 0,0.06 -0.1,0.04 0,0.05 0,0.04 0,0.05 -0.1,0.04 0,0.03 0,0.04 0,0.03 -0.1,0.03 0,0.03 0,0.03 -0.1,0.03 0,0.02 0,0.02 -0.1,0.02 0,0.02 -0.1,0.02 0,0.02 -0.1,0.01 0,0.01 -0.1,0.01 0,0.01 -0.1,0.01 -0.1,0 0,0.01 -0.1,0 -0.1,0 c -0.8,0 -0.9,-0.25 -1.3,-0.9 l -0.3,-4.09 13.4,-26.89 -26.8,0 13.4,26.89 0.3,4.09 -16.8,-33.77 c -0.3,-0.45 -0.3,-0.55 -0.3,-0.6 0,-0.4 0.3,-0.4 1.1,-0.4 l 34.6,0 c 0.8,0 1.1,0 1.1,0.4 0,0.05 0,0.15 -0.2,0.6 l -16.9,33.77 z"
           id="path11448"
           style="font-size:49.40090942px;fill:#ff1313;stroke-width:0" /><path
           d="m 1270.7,370.91 0,0.31 -0.1,0.34 0,0.36 0,0.37 0,0.38 -0.1,0.4 0,0.41 -0.1,0.41 0,0.42 -0.1,0.42 -0.1,0.43 -0.1,0.42 -0.1,0.43 -0.1,0.42 -0.2,0.41 -0.1,0.4 -0.2,0.4 -0.2,0.39 -0.2,0.37 -0.2,0.35 -0.2,0.34 -0.3,0.32 -0.2,0.3 -0.3,0.27 -0.3,0.25 -0.2,0.12 -0.2,0.11 -0.1,0.1 -0.2,0.09 -0.2,0.09 -0.2,0.07 -0.2,0.07 -0.2,0.06 -0.2,0.06 -0.2,0.04 -0.2,0.03 -0.2,0.03 -0.3,0.01 -0.2,0.01 -0.1,-1.1 c 2.5,0 2.8,-3.18 2.8,-6.02 0,-2.45 -0.4,-4.99 -1.6,-9.92 l -10.4,0 c 0.8,3.19 1.8,7.17 3.8,10.71 1.4,2.44 3.2,5.23 5.4,5.23 l 0.1,1.1 c -6.9,0 -14.6,-14.05 -14.6,-25.46 0,-4.68 1.4,-10.21 6,-10.21 l 0,1.1 c -1.7,0 -2.7,1.44 -2.7,6.07 0,2.1 0.3,4.99 1.6,9.87 l 10.3,0 c -0.5,-2.29 -1.6,-6.53 -3.5,-10.11 -1.7,-3.39 -3.6,-5.83 -5.7,-5.83 l 0,-1.1 c 7,0 14.6,14.3 14.6,25.46 z"
           id="path11450"
           style="font-size:49.40090942px;fill:#ff1313;stroke-width:0" /></g>    </g>
    <path
       style="fill:none;stroke:#ff1313;stroke-width:3;stroke-linecap:butt;stroke-linejoin:miter;stroke-miterlimit:4;stroke-opacity:0.77822577;stroke-dasharray:none;marker-start:url(#Arrow1Mstartu);marker-mid:none;marker-end:url(#marker6375g)"
       d="m 337.84037,195.10644 56.61009,15.16863"
       id="path5119"
       transform="translate(-4.149475e-6,698.0315)" />
  </g>
  <g
     inkscape:groupmode="layer"
     id="layer3"
     inkscape:label="photo_zoom"
     transform="translate(-89.030621,-54.529047)"
     style="display:none" />
</svg>
