<?xml version="1.0" encoding="UTF-8" standalone="no"?>
<!-- Created with Inkscape (http://www.inkscape.org/) -->

<svg
   xmlns:dc="http://purl.org/dc/elements/1.1/"
   xmlns:cc="http://creativecommons.org/ns#"
   xmlns:rdf="http://www.w3.org/1999/02/22-rdf-syntax-ns#"
   xmlns:svg="http://www.w3.org/2000/svg"
   xmlns="http://www.w3.org/2000/svg"
   xmlns:sodipodi="http://sodipodi.sourceforge.net/DTD/sodipodi-0.dtd"
   xmlns:inkscape="http://www.inkscape.org/namespaces/inkscape"
   width="210mm"
   height="297mm"
   id="svg2"
   version="1.1"
   inkscape:version="0.47 r22583"
   sodipodi:docname="random_foot.svg">
  <defs
     id="defs4">
    <inkscape:perspective
       sodipodi:type="inkscape:persp3d"
       inkscape:vp_x="0 : 526.18109 : 1"
       inkscape:vp_y="0 : 1000 : 0"
       inkscape:vp_z="744.09448 : 526.18109 : 1"
       inkscape:persp3d-origin="372.04724 : 350.78739 : 1"
       id="perspective10" />
    <clipPath
       id="clipPath3038"
       clipPathUnits="userSpaceOnUse">
      <path
         id="path3040"
         d="m -1021,-416 2702,0 0,1583 -2702,0 0,-1583 z" />
    </clipPath>
    <clipPath
       id="clipPath3016"
       clipPathUnits="userSpaceOnUse">
      <path
         id="path3018"
         d="m -1021,-416 2702,0 0,1583 -2702,0 0,-1583 z" />
    </clipPath>
    <clipPath
       id="clipPath2994"
       clipPathUnits="userSpaceOnUse">
      <path
         id="path2996"
         d="m -1021,-416 2702,0 0,1583 -2702,0 0,-1583 z" />
    </clipPath>
    <clipPath
       id="clipPath2972"
       clipPathUnits="userSpaceOnUse">
      <path
         id="path2974"
         d="m -1021,-416 2702,0 0,1583 -2702,0 0,-1583 z" />
    </clipPath>
    <clipPath
       id="clipPath2950"
       clipPathUnits="userSpaceOnUse">
      <path
         id="path2952"
         d="m -1021,-416 2702,0 0,1583 -2702,0 0,-1583 z" />
    </clipPath>
    <clipPath
       id="clipPath2928"
       clipPathUnits="userSpaceOnUse">
      <path
         id="path2930"
         d="m -1021,-416 2702,0 0,1583 -2702,0 0,-1583 z" />
    </clipPath>
    <clipPath
       id="clipPath2858"
       clipPathUnits="userSpaceOnUse">
      <path
         id="path2860"
         d="m -1021,-416 2702,0 0,1583 -2702,0 0,-1583 z" />
    </clipPath>
    <inkscape:perspective
       id="perspective2824"
       inkscape:persp3d-origin="0.5 : 0.33333333 : 1"
       inkscape:vp_z="1 : 0.5 : 1"
       inkscape:vp_y="0 : 1000 : 0"
       inkscape:vp_x="0 : 0.5 : 1"
       sodipodi:type="inkscape:persp3d" />
    <inkscape:perspective
       id="perspective4352"
       inkscape:persp3d-origin="0.5 : 0.33333333 : 1"
       inkscape:vp_z="1 : 0.5 : 1"
       inkscape:vp_y="0 : 1000 : 0"
       inkscape:vp_x="0 : 0.5 : 1"
       sodipodi:type="inkscape:persp3d" />
    <inkscape:perspective
       id="perspective4387"
       inkscape:persp3d-origin="0.5 : 0.33333333 : 1"
       inkscape:vp_z="1 : 0.5 : 1"
       inkscape:vp_y="0 : 1000 : 0"
       inkscape:vp_x="0 : 0.5 : 1"
       sodipodi:type="inkscape:persp3d" />
  </defs>
  <sodipodi:namedview
     id="base"
     pagecolor="#ffffff"
     bordercolor="#666666"
     borderopacity="1.0"
     inkscape:pageopacity="0.0"
     inkscape:pageshadow="2"
     inkscape:zoom="0.49497475"
     inkscape:cx="632.4901"
     inkscape:cy="465.32855"
     inkscape:document-units="px"
     inkscape:current-layer="layer1"
     showgrid="false"
     inkscape:window-width="1152"
     inkscape:window-height="927"
     inkscape:window-x="1696"
     inkscape:window-y="35"
     inkscape:window-maximized="0" />
  <metadata
     id="metadata7">
    <rdf:RDF>
      <cc:Work
         rdf:about="">
        <dc:format>image/svg+xml</dc:format>
        <dc:type
           rdf:resource="http://purl.org/dc/dcmitype/StillImage" />
        <dc:title></dc:title>
      </cc:Work>
    </rdf:RDF>
  </metadata>
  <g
     inkscape:label="Calque 1"
     inkscape:groupmode="layer"
     id="layer1">
    <g
       clip-path="none"
       id="g2834"
       transform="matrix(1.25,0,0,-1.25,-134.28571,710.93363)">
      <path
         id="path2840"
         style="fill:none;stroke:#000000;stroke-width:2.13457489;stroke-linecap:square;stroke-linejoin:round;stroke-miterlimit:10;stroke-opacity:1;stroke-dasharray:none"
         d="m 197.36435,480.41972 -1.09238,-0.24159 -8.83267,-1.03443 1.38006,-2.02539 45.52804,4.08295 -27.03146,-13.4566 6.08247,0.26122 -4.37055,8.91236 4.31264,1.99269 -14.87154,-22.96633 16.00154,-1.7437 -19.03049,-0.60193 -7.42493,-11.00213 -15.00381,-25.9654 50.82685,-11.10822 -10.74278,-0.19348 -28.8209,3.10268 -15.03966,-6.12172 -21.04853,5.12969 7.36923,6.79012 -44.3645,-3.40318 15.75176,-5.07508 20.08576,-15.91821 -5.06747,-19.87688 10.99805,2.31571 7.28616,14.2113 10.30805,-7.41919 6.85421,-19.14429 1.02436,11.1349 8.37754,0.79799 2.97525,12.64418 24.89583,-5.65957 -17.32325,3.73901 31.0944,-3.65686 3.93756,10.53617 -19.64982,-6.14223 -9.98893,-5.18395 22.90929,-17.84567 8.74154,-5.9811 13.68371,4.55156 -11.10405,12.67177 18.6443,-0.45289 7.39868,-1.05766 0.70383,-11.93876 -8.70889,-1.54111 11.49735,1.16607 -26.3785,14.59474 40.48442,-12.85547 3.68485,16.71825 -4.33683,12.38989 -26.03152,-5.82009 17.13083,1.76111 17.76179,-13.31286 -20.86908,1.00852 -14.85654,-24.91113 -7.30218,14.82008 16.42992,5.16486 -28.80307,-1.14873 -1.98722,5.51771 11.04341,-1.33395 16.41544,-10.49714 -22.65029,-9.73859 -8.15538,-15.74847 45.87651,18.52363 -0.14568,-0.22757 19.7516,-20.89964 13.56316,22.40021 -2.25327,6.82888 8.33301,13.22807 22.34941,-8.69011 15.0105,-15.35293 7.76953,-12.90284 33.92713,3.87963 -6.70921,-0.79423 12.02117,6.66835 11.63737,-9.33605 -5.03172,16.48165 -2.9487,6.80367 11.95264,10.82564 3.2462,3.65098 -20.36032,-10.73022 0.33243,-6.99485 14.88498,-12.80274 6.46301,1.09862 -5.08693,2.20809 6.90097,4.78511 31.02461,11.54292 21.58865,-9.83309 -17.70071,12.88864 7.92524,-5.55027 3.79406,-10.46487 -16.61005,20.75416 -21.35035,10.18472 17.14183,1.95155 -11.93237,-22.14029 -6.74888,-5.35139 8.60084,6.56518 17.19094,-8.32536 -1.9436,-3.74164 -20.52134,-2.80848 12.81479,-7.61933 -13.34288,0.64295 -10.03059,-26.70002 -6.64572,0.85917 7.73891,-7.91634 -9.43109,1.04277 -2.31403,11.27937 12.14741,-9.42715 -20.68148,0.79147 -3.57036,-0.99378 20.18718,-6.24505 -6.42346,28.1166 -17.85644,-5.32326 20.95517,-9.85003 -12.5185,-0.92242 -7.46473,12.8394 -3.89322,-12.1592 18.03772,-0.1064 -16.66447,9.88985 19.23426,-5.35076 7.59248,-0.70192 -10.70866,-1.55219 -8.22578,6.26983 6.13019,2.11908 32.09121,16.83205 -2.29795,-6.46227 32.9217,-2.68881 23.40471,6.61049 12.54788,-8.29418 17.52404,-10.64072 -21.66413,-5.73743 5.48646,7.59356 -18.76458,-1.11953 -25.47824,-0.35404 -3.52131,-14.87218 3.60671,-9.12173 9.37856,-2.20955 11.84323,-12.50397 -19.89973,18.28454 1.1618,-23.05734 -19.59648,-12.92739 -8.44907,17.08089 5.37327,15.53934 -43.2316,-3.3517 -1.46941,0.27169 12.78735,-6.91038 2.43989,-15.0956 -23.38916,-9.54424 6.17001,5.45154 -0.53187,6.36273 31.16716,0.9882 16.24412,-11.04896 -12.80856,-4.93662 24.9515,23.54083 33.08302,-8.92456 13.71075,-8.98946 3.55341,3.5658 -24.15899,3.12727 -2.21102,6.16817 3.60939,2.64422 -6.14961,25.61873 -1.02556,-19.55174 -11.98785,-7.94198 28.28846,-4.92149 11.061,1.9912 16.49153,-11.49185 -16.50323,22.54606 -10.15489,10.78937 1.35354,3.02887 -7.33387,-4.42909 20.04873,3.883 -12.75149,-9e-4 27.75437,-25.06885 5.67449,21.97037 0.92611,0.76017 -17.7458,8.66279 10.57212,-2.24851 137.77751,-5.5508 7.19545,15.0269 12.27526,-14.41246 13.09482,10.2772 -58.01008,-25.85382 22.20291,-7.10369 51.39548,32.52755 -41.18385,-9.03669 7.41259,-2.30554 -14.63584,-26.06008 -19.69052,9.95913 -18.2226,-14.34421 25.63049,1.09758 -34.9066,5.81955 10.01679,15.03359 29.70088,14.37872 -2.44908,6.73386 -21.04964,-26.84891 15.18761,29.24983 9.17638,-1.67707 -79.33425,44.14818 1.68519,-5.83073 -12.77684,15.42177 -5.31842,-13.65109 23.54815,17.18586 -22.7999,-1.31773 -21.02741,6.23252 21.54477,8.93311 -7.06408,-0.61842 -2.12193,13.14257 18.29438,4.65472 9.22759,2.8491 -20.65286,-12.37435 4.7886,15.81254 18.12992,-4.26055 -15.23401,-6.11388 -10.13083,18.89543 -29.43588,9.85302 21.28869,0.4016 -16.56611,-4.82633 -19.76705,7.32878 -0.42465,-6.93347 -12.75561,8.21918 -19.12933,-7.14546 6.28769,12.04495 -0.70657,4.76901 -1.56404,-2.68957 -11.4057,0.49219 4.08143,-21.36958 -16.96617,0.77438 24.4583,27.73585 32.23049,-3.28427 -14.06737,-23.1019 16.40087,7.64218 -18.68668,10.61932 -23.92535,7.41179 -3.85608,10.90508 13.54264,-9.47134 -3.13606,4.16004 7.75258,-6.92833 25.30168,-5.92956 9.01268,-5.92928 8.13405,2.28533 -8.61826,5.17104 -9.93786,-2.62556 -16.72456,10.67265 7.32552,5.60977 -14.51243,-4.61613 -27.04702,-5.68152 21.00764,-5.02063 -0.58881,-7.09981 -1.72885,-9.38868 -16.48497,12.81967 14.7433,-4.31104 3.86144,1.58269 6.86817,-11.75561 -10.01706,-12.23964 1.25945,-21.65119 16.21169,-13.06632 -11.54883,-4.45396 25.26409,1.82097 4.93604,-0.35228 8.78004,-10.53078 25.29868,4.83361 0.74827,-14.90398 -19.56882,-7.47504 3.99283,0.47158 7.98712,8.60345 -3.99017,1.02571 12.46365,-5.818 -0.14862,3.77846 11.28701,14.97982 18.62495,11.48613 17.83985,-6.63143 -18.0618,13.37785 -37.27471,2.1334 -20.73967,5.56599 -35.07049,7.5099 -34.00341,3.24568 25.01693,-19.92232 6.89896,0.0625 -7.24253,13.32943 15.73973,-3.89617 16.10841,10.97271 -2.6344,4.00368 -13.42473,-11.21362 10.41705,3.3414 -21.83391,-15.02975 -8.39647,-8.19806 -14.55432,5.85853 6.85912,-6.48902 14.60458,2.72623 14.5453,9.65233 -4.50844,1.91504 -6.82346,-0.26156 40.74654,1.22412 22.46444,-10.07788 -12.81014,-13.14659 -3.51974,-1.52057 23.13049,-9.66719 19.86953,-2.22963 -289.13069,79.59712 -2.38322,12.67843"
         sodipodi:nodetypes="cccccccccccccccccccccccccccccccccccccccccccccccccccccccccccccccccccccccccccccccccccccccccccccccccccccccccccccccccccccccccccccccccccccccccccccccccccccccccccccccccccccccccccccccccccccccccccccccccccccccccccccccccccccccccccccccccccccccccccccccccccccccccccccccccccccccccccccccccccccccccccccccccccccccccccc" />
      <path
         style="fill:none;stroke:#000000;stroke-width:3.20000005;stroke-linecap:square;stroke-linejoin:round;stroke-miterlimit:10;stroke-opacity:1;stroke-dasharray:none"
         d="m 238.804,130.02516 c 1.75328,-7.08446 40.45613,-49.732615 56.61714,-34.626093 7.98339,7.462483 -4.3173,30.234363 -15.1818,29.057193 -18.28817,-1.98153 -3.48271,-38.509017 -14.48613,-53.2504 -19.55852,-26.202729 -71.63441,-21.104988 -83.42119,-51.604015 -6.5884,-17.0478979 2.02335,-39.950814 15.11302,-52.70614 8.29969,-8.087697 36.17126,2.597394 33.65579,-8.714909 -4.78773,-21.530915 -45.14872,21.630797 -65.05061,12.121983 -6.06543,-2.897971 -10.93508,-11.160118 -9.582,-17.744714 2.09372,-10.188827 15.05411,-14.929781 24.45294,-19.385992 7.63435,-3.619629 16.3464,-4.667448 24.76258,-5.411132 6.90955,-0.610553 14.09953,-1.008719 20.7937,0.80864 7.01095,1.90336 12.24397,12.323064 19.21615,10.28227 9.60974,-2.812821 7.01566,-19.753792 14.66361,-26.216607 3.36494,-2.843503 9.20235,-7.414827 12.4493,-4.43731 3.01594,2.765676 -3.97593,7.877751 -3.10697,11.876474 1.96765,9.054587 8.30917,21.052506 17.56185,21.547529 2.72225,0.145642 5.13878,-3.110824 5.81382,-5.752074 1.01205,-3.959891 -0.7828,-8.703993 -3.50973,-11.748471 -6.32276,-7.059045 -16.88142,-12.889348 -26.18323,-11.077241 -2.15588,0.419993 -2.96889,6.057993 -4.66098,4.657609 -3.06119,-2.533466 6.18869,-5.918717 6.70082,-9.859155 0.7505,-5.774551 -8.95071,-11.580935 -5.80037,-16.478285 8.73479,-13.57866 32.88046,-9.27122 48.24441,-4.3088 15.66902,5.06095 21.62026,27.430618 37.33574,32.345399 16.60808,5.193929 34.59519,-7.428425 51.9014,-5.611782 10.15665,1.066149 23.05908,1.321367 29.11199,9.546722 6.69194,9.093738 -9.94475,29.591368 0.50454,33.868111 7.07748,2.896709 9.25598,-13.204782 16.32703,-16.11715 10.81671,-4.455105 31.43812,-11.198745 35.09467,-0.08664 2.87071,8.723948 -15.27097,22.324177 -22.20889,16.306414 -1.16707,-1.012285 1.51488,-2.695241 2.18746,-4.086073 1.87517,-3.877686 5.39778,-7.554633 5.1428,-11.854364 -1.02455,-17.277202 -10.04879,-38.507661 -26.14959,-44.857127 -1.09308,-0.43106 -2.31686,1.5225 -3.37608,1.01387 -2.94144,-1.41244 -0.42452,-8.69138 -3.66462,-9.07713 -8.04547,-0.95786 -7.41543,15.248892 -14.13708,19.772888 -1.97569,1.329737 -6.16599,3.910869 -6.9486,1.661628 -0.55629,-1.598791 3.06158,-1.445836 4.60555,-2.139909 2.52092,-1.133245 4.84716,-3.116173 7.60462,-3.30501 18.79703,-1.287258 35.68296,13.337045 54.42642,15.252262 26.85025,2.743573 80.69852,21.361108 80.77427,-5.628838 0.0637,-22.712081 -56.46762,14.481247 -67.944,-5.118121 -8.69909,-14.85632 7.47093,-37.29828 21.81904,-46.81229 22.09445,-14.65048 56.91735,-16.81529 79.47852,-2.89426 1.52573,0.94143 2.60899,3.13819 2.23571,4.8917 -2.7736,13.02919 -16.79593,28.36471 -29.97577,26.42965 -6.15478,-0.90364 -7.11734,-10.26142 -9.85976,-15.84505 -2.26869,-4.61909 -0.34121,-13.45883 -5.38746,-14.46795 -4.24602,-0.84909 -9.21577,5.1782 -8.8661,9.49414 0.76756,9.47399 14.00974,13.29061 22.5632,17.43596 16.5571,8.02424 42.29438,27.922175 53.55344,13.370219 5.25833,-6.796219 -6.4793,-16.342999 -12.32378,-22.642259 -2.40059,-2.58739 -6.54591,-8.37711 -8.89555,-5.74336 -5.44115,6.09909 9.41062,13.56497 15.55523,18.95466 10.93969,9.595659 28.82406,35.050491 37.06817,23.059324 12.53252,-18.228714 -31.82836,-33.351824 -52.90735,-40.062004 -24.43817,-7.77952 -74.97157,28.01372 -76.90094,2.43985 -1.57388,-20.8618 41.89328,-2.92397 62.32025,-7.44402 25.80376,-5.70981 54.71478,-41.20937 75.34202,-24.68809 14.06318,11.26383 -22.94456,50.6324 -5.20766,53.80243 9.56692,1.70985 14.19781,-21.23419 7.41709,-28.19633 -23.04899,-23.66566 -64.93239,12.86199 -96.47691,22.67335 -9.25737,2.87934 -30.16329,1.38334 -27.09229,10.578911 8.21141,24.587601 49.20402,-17.506761 74.90078,-20.920561 25.69164,-3.41311 52.40056,-4.75951 77.74945,0.63891 10.71438,2.28179 25.12244,22.890972 30.12129,13.14336 7.84687,-15.30115 -48.96085,-9.79294 -44.34576,-26.35795 6.86181,-24.62918 91.3143,21.52729 76.69959,0.54894 -18.87542,-27.0943 -31.85601,0.57173 -47.28594,-2.77703 -14.68467,-3.18702 -27.13566,-18.09102 -42.04896,-16.24979 -2.91073,0.35937 -6.32095,2.27105 -7.18916,5.07243 -1.22956,3.96735 2.06133,8.20606 4.3344,11.68238 3.09253,4.72957 9.32325,6.90908 12.1954,11.77563 2.8356,4.80462 5.69651,10.74346 4.3582,16.15954 -3.50912,14.201216 -17.50558,24.318742 -29.84705,32.172185 -17.51776,11.147355 -39.20373,13.85773 -59.3115,19.035871 -9.11788,2.34803 -22.19957,-2.19581 -27.71878,5.432242 -3.88038,5.363043 -2.42189,15.242486 2.46741,19.705034 3.19523,2.916337 9.00955,-1.30562 12.97085,0.432946 3.07869,1.3512 7.48045,3.854491 7.07215,7.191762 -1.90982,15.6101973 -46.71887,10.3540634 -40.21441,24.6725036 0.43889,0.9661389 3.32816,0.072609 3.03892,-0.9483665 -4.87741,-17.2167421 -34.50793,16.9456319 -52.01894,13.2619019 -7.37552,-1.551562 -20.35324,-6.847813 -17.80244,-13.9399924 4.85102,-13.4876546 33.95754,-10.0062458 42.98574,1.1266286 2.43158,2.9984311 0.14689,8.2471348 -2.09425,11.3904548 -4.15662,5.829891 -21.61831,4.017245 -18.70593,10.558129 5.03169,11.300631 38.44924,0.117521 35.1803,-11.812953 -3.98173,-14.53192546 -33.31189,19.877875 -44.20093,9.46347 -4.80068,-4.591422 -1.65416,-15.2282302 3.30014,-19.6534445 2.03682,-1.8193013 6.10271,1.3319787 8.18128,-0.4394787 14.06235,-11.9846322 -2.05205,-41.8502408 11.71009,-54.1784358 17.05465,-15.277634 47.46987,2.382526 68.32621,-7.066288 1.75506,-0.795116 2.31196,-3.966135 4.2384,-3.930382 2.76706,0.05136 3.68154,4.178829 5.87421,5.867462 4.90832,3.780029 16.97856,3.232294 16.05735,9.358595 -4.56519,30.359665 -59.00763,19.994882 -89.69453,20.92471 -13.23581,0.401051 -36.54734,-19.64745 -39.16232,-6.666335 -2.88891,14.340904 34.90158,22.3116564 42.74162,9.960903 0.5918,-0.932293 -1.22903,-1.86494 -2.05344,-2.599613 -9.83231,-8.762037 -38.47667,-8.533651 -33.60933,-20.771156 7.90685,-19.879471 42.96323,20.843774 62.85755,12.974351 8.13359,-3.217333 6.5874,-19.507568 15.11599,-21.449128 15.53201,-3.535911 44.51796,7.614002 41.72505,23.296656 -6.12354,34.384665 -68.71335,13.161082 -103.49264,16.355431 -62.76625,5.764847 -139.54591,-34.047532 -189.02522,4.9990252 -12.03169,9.49479547 3.44706,43.8137358 -11.8677,44.4226448 -3.79305,0.15081 -20.50134,-9.795988 -3.80354,-10.734187"
         id="path3566"
         sodipodi:nodetypes="caaaaaaaaaaaaaaaaaaaaaaaaaaaaaaaaaaaaaaaaaaaaaaaaaaaaaaaaaaaaaaaaaaasaaaaaaaaaaaaaaaaaaaaaaaaaaaaaaaaaaaaaaaa" />
      <path
         style="fill:none;stroke:#dd2a2b;stroke-width:2.4000001;stroke-linecap:butt;stroke-linejoin:miter;stroke-miterlimit:4;stroke-opacity:1;stroke-dasharray:none"
         d="m 185.00829,171.32428 c 0,0 5.46679,-62.97671 0,-93.742164 -10.94375,-61.58804 -34.45546,-59.452896 -59.80104,-121.218304 -12.79593,-31.182808 -1.55683,-85.744532 63.77028,-121.170732 64.46184,-34.95697 115.19133,36.52386 158.19006,36.52386 18.7292,0 44.23244,12.04823 79.62177,7.73663 27.44394,-3.34358 116.98483,-34.08117 127.91301,-35.44251 22.08012,-2.75057 46.76126,-13.91121 75.21279,-11.82073 11.38518,0.83652 58.03281,12.66923 69.33604,14.26888 19.23319,2.72191 13.67503,-5.16181 33.04193,-6.66105 59.62162,-2.2255 73.70948,64.467488 52.3417,69.809432 -5.04882,0.512701 -29.69554,1.327337 -50.25538,9.92718 -19.02885,7.959456 -47.76496,0.685613 -53.18423,4.504156 C 593.0267,-37.039672 527.62663,35.215172 443.60734,82.430852 411.45998,100.49646 386.10136,94.631 364.41137,124.45319 c -10.49128,2.05768 -23.37129,44.63944 -22.62741,75.96348"
         id="path3568"
         sodipodi:nodetypes="ccszsssccccscccc" />
      <path
         style="fill:none;stroke:#dd2a2b;stroke-width:3.00000023999999987;stroke-linecap:butt;stroke-linejoin:miter;stroke-opacity:1;color:#000000;stroke-miterlimit:4;stroke-dasharray:none;stroke-dashoffset:0;marker:none;visibility:visible;display:inline;overflow:visible;enable-background:accumulate"
         d="m 157.5838,488.69706 c 8.08122,52.52793 34.34518,66.67007 34.34518,66.67007"
         id="path4342"
         transform="matrix(0.8,0,0,-0.8,107.42857,568.7469)" />
      <path
         style="fill:#000000;stroke:#000000;stroke-width:0.80000001px;stroke-linecap:round;stroke-linejoin:round;stroke-opacity:1"
         d="m 234.00375,142.73191 c -0.1071,-17.68405 11.63866,-37.04173 16.05965,-41.56319 -2.18997,3.63214 -3.29331,18.16152 13.3517,19.16494 -21.86234,4.44862 -29.41135,22.39825 -29.41135,22.39825 z"
         id="path83383"
         sodipodi:nodetypes="cccc" />
    </g>
  </g>
</svg>
