<?xml version="1.0" encoding="UTF-8" standalone="no"?>
<!-- Created with Inkscape (http://www.inkscape.org/) -->

<svg
   xmlns:dc="http://purl.org/dc/elements/1.1/"
   xmlns:cc="http://creativecommons.org/ns#"
   xmlns:rdf="http://www.w3.org/1999/02/22-rdf-syntax-ns#"
   xmlns:svg="http://www.w3.org/2000/svg"
   xmlns="http://www.w3.org/2000/svg"
   xmlns:sodipodi="http://sodipodi.sourceforge.net/DTD/sodipodi-0.dtd"
   xmlns:inkscape="http://www.inkscape.org/namespaces/inkscape"
   width="247.74109"
   height="100.14818"
   id="svg44526"
   version="1.1"
   inkscape:version="0.47 r22583"
   sodipodi:docname="Nouveau document 30">
  <defs
     id="defs44528">
    <marker
       inkscape:stockid="Arrow1Mend"
       orient="auto"
       refY="0"
       refX="0"
       id="Arrow1Mend"
       style="overflow:visible">
      <path
         id="path45121"
         d="M 0,0 5,-5 -12.5,0 5,5 0,0 z"
         style="fill-rule:evenodd;stroke:#000000;stroke-width:1pt;marker-start:none"
         transform="matrix(-0.4,0,0,-0.4,-4,0)" />
    </marker>
    <inkscape:perspective
       sodipodi:type="inkscape:persp3d"
       inkscape:vp_x="0 : 526.18109 : 1"
       inkscape:vp_y="0 : 1000 : 0"
       inkscape:vp_z="744.09448 : 526.18109 : 1"
       inkscape:persp3d-origin="372.04724 : 350.78739 : 1"
       id="perspective44534" />
    <inkscape:perspective
       id="perspective44513"
       inkscape:persp3d-origin="0.5 : 0.33333333 : 1"
       inkscape:vp_z="1 : 0.5 : 1"
       inkscape:vp_y="0 : 1000 : 0"
       inkscape:vp_x="0 : 0.5 : 1"
       sodipodi:type="inkscape:persp3d" />
    <inkscape:perspective
       id="perspective44569"
       inkscape:persp3d-origin="0.5 : 0.33333333 : 1"
       inkscape:vp_z="1 : 0.5 : 1"
       inkscape:vp_y="0 : 1000 : 0"
       inkscape:vp_x="0 : 0.5 : 1"
       sodipodi:type="inkscape:persp3d" />
    <inkscape:perspective
       id="perspective45565"
       inkscape:persp3d-origin="0.5 : 0.33333333 : 1"
       inkscape:vp_z="1 : 0.5 : 1"
       inkscape:vp_y="0 : 1000 : 0"
       inkscape:vp_x="0 : 0.5 : 1"
       sodipodi:type="inkscape:persp3d" />
    <marker
       inkscape:stockid="Arrow1Mend"
       orient="auto"
       refY="0"
       refX="0"
       id="Arrow1Mend-6"
       style="overflow:visible">
      <path
         id="path45121-9"
         d="M 0,0 5,-5 -12.5,0 5,5 0,0 z"
         style="fill-rule:evenodd;stroke:#000000;stroke-width:1pt;marker-start:none"
         transform="matrix(-0.4,0,0,-0.4,-4,0)" />
    </marker>
  </defs>
  <sodipodi:namedview
     id="base"
     pagecolor="#ffffff"
     bordercolor="#666666"
     borderopacity="1.0"
     inkscape:pageopacity="0.0"
     inkscape:pageshadow="2"
     inkscape:zoom="0.49497475"
     inkscape:cx="-144.40363"
     inkscape:cy="258.9043"
     inkscape:document-units="px"
     inkscape:current-layer="layer1"
     showgrid="false"
     showguides="true"
     inkscape:guide-bbox="true"
     inkscape:window-width="1064"
     inkscape:window-height="690"
     inkscape:window-x="0"
     inkscape:window-y="24"
     inkscape:window-maximized="0">
    <sodipodi:guide
       orientation="0,1"
       position="46.590333,41.55164"
       id="guide45093" />
  </sodipodi:namedview>
  <metadata
     id="metadata44531">
    <rdf:RDF>
      <cc:Work
         rdf:about="">
        <dc:format>image/svg+xml</dc:format>
        <dc:type
           rdf:resource="http://purl.org/dc/dcmitype/StillImage" />
        <dc:title></dc:title>
      </cc:Work>
    </rdf:RDF>
  </metadata>
  <g
     inkscape:label="Calque 1"
     inkscape:groupmode="layer"
     id="layer1"
     transform="translate(-172.1077,-405.85686)">
    <g
       id="g46151">
      <g
         id="g44495"
         style="display:inline"
         transform="translate(-1433.3151,-1235.4585)">
        <path
           transform="matrix(0.30124226,0,0,0.30124226,1174.0014,1195.3588)"
           d="m 1770.7375,1739.2606 c -8.4279,1.9741 0.7342,-18.5637 -7.0742,-22.2992 -11.6343,-5.5658 -24.6535,10.2629 -34.7823,2.2791 -6.7981,-5.3584 14.9715,-11.0003 13.0236,-19.4342 -2.9024,-12.5662 -23.3951,-12.876 -23.4684,-25.7729 -0.049,-8.6558 17.935,4.8467 23.3144,-1.9347 8.0151,-10.1041 -4.5197,-26.3191 5.5178,-34.4175 6.7367,-5.4352 7.3929,17.044 16.0489,17.0216 12.897,-0.033 17.7591,-19.9433 30.3489,-17.1449 8.4497,1.8782 -8.7161,16.4068 -3.3017,23.1603 8.0672,10.0625 26.665,1.4502 32.3267,13.0381 3.7999,7.7773 -18.2618,3.415 -20.1661,11.8588 -2.8373,12.5811 15.4916,21.7517 9.9619,33.4031 -3.7114,7.82 -14.056,-12.1484 -21.845,-8.3725 -11.6053,5.6258 -7.3473,25.6737 -19.9045,28.6149 z"
           inkscape:randomized="0"
           inkscape:rounded="0.37"
           inkscape:flatsided="false"
           sodipodi:arg2="1.789638"
           sodipodi:arg1="1.5681379"
           sodipodi:r2="31.930304"
           sodipodi:r1="53.468224"
           sodipodi:cy="1685.7926"
           sodipodi:cx="1770.5953"
           sodipodi:sides="7"
           id="path44197"
           style="fill:#4761e7;fill-opacity:1;stroke:#565656;stroke-width:3;stroke-miterlimit:10;stroke-opacity:1;stroke-dasharray:none"
           sodipodi:type="star" />
        <path
           sodipodi:nodetypes="cssssssssssscssssssssssszssscc"
           d="m 1670.8771,1719.969 c 4.3104,0 6.6436,-8.9168 8.9047,-7.1944 2.6063,1.9853 -2.4355,7.2963 0.7153,7.2963 1.6667,0 1.2191,0 2.8106,0 4.2325,0 6.7112,-9.0187 8.9722,-7.2963 2.6063,1.9852 -2.4355,7.2963 0.7154,7.2963 1.6667,0 1.2191,0 2.5278,0 3.9499,0 6.4285,-9.0187 8.6896,-7.2963 2.6063,1.9852 -2.4355,7.2963 0.7153,7.2963 1.6667,0 1.2191,0 2.8106,0 4.2325,0 6.7112,-9.0187 8.9723,-7.2963 2.6063,1.9852 -2.4355,7.2963 0.7153,7.2963 1.6667,0 1.2191,0 2.8961,0 4.318,0 6.7966,-9.0187 9.0577,-7.2963 2.6063,1.9852 -2.4354,7.2963 0.7153,7.2963 1.6667,0 1.2191,0 2.8106,0 4.2326,0 6.7112,-9.0187 8.9723,-7.2963 2.6063,1.9852 -2.4355,7.2963 0.7154,7.2963 1.6666,0 1.219,0 2.5278,0 3.9498,0 6.4285,-9.0187 8.6896,-7.2963 2.6063,1.9852 -2.4355,7.2963 0.7153,7.2963 1.6667,0 1.2191,0 2.8106,0 4.2325,0 6.7112,-9.0187 8.9722,-7.2964 2.6063,1.9853 -2.4355,7.2964 0.7154,7.2964 1.6667,0 41.7253,-0.088 44.8884,0 3.163,0.088 2.3187,6.9199 0,6.957 -26.6099,0.4258 -148.5057,0 -148.5057,0 -2.319,0 -2.3188,-6.9253 0,-6.957 l 7.4699,-0.102 0,10e-5 z"
           style="fill:#4761e7;fill-opacity:1;stroke:#565656;stroke-width:0.87087822;stroke-linecap:butt;stroke-linejoin:miter;stroke-miterlimit:4;stroke-opacity:1;stroke-dasharray:none;display:inline"
           id="path44296-0-1-7" />
        <g
           transform="matrix(0.60248452,0,0,0.60248452,1886.4052,1188.8058)"
           id="g44374">
          <rect
             style="fill:#4761e7;fill-opacity:1;stroke:#565656;stroke-width:1.5;stroke-miterlimit:4;stroke-opacity:1;stroke-dasharray:none"
             id="rect44370"
             width="158.55669"
             height="13.102859"
             x="-449.00012"
             y="848.33069"
             ry="5.2425585" />
          <path
             sodipodi:type="arc"
             style="fill:#4761e7;fill-opacity:1;stroke:#000000;stroke-width:3;stroke-miterlimit:4;stroke-opacity:1;stroke-dasharray:none"
             id="path44372"
             sodipodi:cx="1773.5"
             sodipodi:cy="1714.4923"
             sodipodi:rx="8.5"
             sodipodi:ry="8.5"
             d="m 1782,1714.4923 c 0,4.6944 -3.8056,8.5 -8.5,8.5 -4.6944,0 -8.5,-3.8056 -8.5,-8.5 0,-4.6944 3.8056,-8.5 8.5,-8.5 4.6944,0 8.5,3.8056 8.5,8.5 z"
             transform="matrix(0.5,0,0,0.5,-1183.8017,-1.9235203)" />
        </g>
        <path
           sodipodi:type="arc"
           style="fill:#4761e7;fill-opacity:1;stroke:#000000;stroke-width:3;stroke-miterlimit:4;stroke-opacity:1;stroke-dasharray:none;display:inline"
           id="path44372-8"
           sodipodi:cx="1773.5"
           sodipodi:cy="1714.4923"
           sodipodi:rx="8.5"
           sodipodi:ry="8.5"
           d="m 1782,1714.4923 c 0,4.6944 -3.8056,8.5 -8.5,8.5 -4.6944,0 -8.5,-3.8056 -8.5,-8.5 0,-4.6944 3.8056,-8.5 8.5,-8.5 4.6944,0 8.5,3.8056 8.5,8.5 z"
           transform="matrix(0.30124226,0,0,0.30124226,1275.6036,1206.8798)" />
        <path
           style="fill:#4761e7;stroke:#565656;stroke-width:0.87294996px;stroke-linecap:butt;stroke-linejoin:miter;stroke-opacity:1"
           d="m 1667.0162,1704.857 c -2.6324,-2.7644 8.0312,-16.0645 15.9261,-18.3626 4.1002,-1.1935 13.6733,-2.2848 14.9468,6.8369 1.2734,9.1217 -5.0816,0.8655 -11.2275,1.9069 -15.1673,2.5701 -11.4905,18.1827 -19.6454,9.6188 z"
           id="path44422"
           sodipodi:nodetypes="cszss" />
        <path
           transform="matrix(0.30124226,0,0,0.30124226,1136.2555,1187.3463)"
           d="m 1782,1714.4923 c 0,4.6944 -3.8056,8.5 -8.5,8.5 -4.6944,0 -8.5,-3.8056 -8.5,-8.5 0,-4.6944 3.8056,-8.5 8.5,-8.5 4.6944,0 8.5,3.8056 8.5,8.5 z"
           sodipodi:ry="8.5"
           sodipodi:rx="8.5"
           sodipodi:cy="1714.4923"
           sodipodi:cx="1773.5"
           id="path44372-8-0"
           style="fill:#4761e7;fill-opacity:1;stroke:#000000;stroke-width:3;stroke-miterlimit:4;stroke-opacity:1;stroke-dasharray:none;display:inline"
           sodipodi:type="arc" />
      </g>
      <path
         sodipodi:type="arc"
         style="fill:#4761e7;fill-opacity:1;stroke:#000000;stroke-width:3;stroke-miterlimit:4;stroke-opacity:1;stroke-dasharray:none;display:inline"
         id="path44372-3"
         sodipodi:cx="1773.5"
         sodipodi:cy="1714.4923"
         sodipodi:rx="8.5"
         sodipodi:ry="8.5"
         d="m 1782,1714.4923 c 0,4.6944 -3.8056,8.5 -8.5,8.5 -4.6944,0 -8.5,-3.8056 -8.5,-8.5 0,-4.6944 3.8056,-8.5 8.5,-8.5 4.6944,0 8.5,3.8056 8.5,8.5 z"
         transform="matrix(0.30124226,0,0,0.30124226,-346.81783,-47.983527)" />
      <text
         id="text45095"
         y="423.07648"
         x="172.14285"
         style="font-size:24px;font-style:normal;font-variant:normal;font-weight:normal;font-stretch:normal;fill:#000000;fill-opacity:1;stroke:none;font-family:Arial;-inkscape-font-specification:Arial"
         xml:space="preserve"><tspan
           y="423.07648"
           x="172.14285"
           id="tspan45097"
           sodipodi:role="line">ATP</tspan></text>
      <text
         id="text45099"
         y="424.505"
         x="328.57144"
         style="font-size:24px;font-style:normal;font-variant:normal;font-weight:normal;font-stretch:normal;fill:#000000;fill-opacity:1;stroke:none;font-family:Arial;-inkscape-font-specification:Arial"
         xml:space="preserve"><tspan
           y="424.505"
           x="328.57144"
           id="tspan45101"
           sodipodi:role="line">ADP + P</tspan></text>
      <rect
         ry="5.2425585"
         y="440.21933"
         x="195"
         height="64.285713"
         width="174.28572"
         id="rect45105"
         style="fill:none;stroke:#000000;stroke-width:3;stroke-miterlimit:4;stroke-opacity:1;stroke-dasharray:none" />
      <path
         sodipodi:nodetypes="cc"
         id="path45107"
         d="m 226.42857,407.36218 c 26.37514,-0.26248 31.92292,9.21307 41.42857,24.28572"
         style="fill:none;stroke:#000000;stroke-width:3;stroke-linecap:butt;stroke-linejoin:miter;stroke-miterlimit:4;stroke-opacity:1;stroke-dasharray:none;marker-end:url(#Arrow1Mend)" />
      <path
         sodipodi:nodetypes="cc"
         id="path45107-6"
         d="m 278.86057,433.96758 c 26.37514,0.26248 31.92292,-9.21307 41.42857,-24.28572"
         style="fill:none;stroke:#000000;stroke-width:3;stroke-linecap:butt;stroke-linejoin:miter;stroke-miterlimit:4;stroke-opacity:1;stroke-dasharray:none;marker-end:url(#Arrow1Mend)" />
    </g>
  </g>
</svg>
