<?xml version="1.0" encoding="UTF-8" standalone="no"?>
<!-- Created with Inkscape (http://www.inkscape.org/) -->
<svg
   xmlns:dc="http://purl.org/dc/elements/1.1/"
   xmlns:cc="http://creativecommons.org/ns#"
   xmlns:rdf="http://www.w3.org/1999/02/22-rdf-syntax-ns#"
   xmlns:svg="http://www.w3.org/2000/svg"
   xmlns="http://www.w3.org/2000/svg"
   xmlns:xlink="http://www.w3.org/1999/xlink"
   xmlns:sodipodi="http://sodipodi.sourceforge.net/DTD/sodipodi-0.dtd"
   xmlns:inkscape="http://www.inkscape.org/namespaces/inkscape"
   width="425.19684"
   height="389.76376"
   id="svg2"
   sodipodi:version="0.32"
   inkscape:version="0.46"
   sodipodi:docname="rotacion.svg"
   inkscape:output_extension="org.inkscape.output.svg.inkscape"
   version="1.0">
  <defs
     id="defs4">
    <marker
       inkscape:stockid="Arrow1Lstart"
       orient="auto"
       refY="0"
       refX="0"
       id="Arrow1Lstart"
       style="overflow:visible">
      <path
         id="path3356"
         d="M 0,0 L 5,-5 L -12.5,0 L 5,5 L 0,0 z"
         style="fill-rule:evenodd;stroke:#000000;stroke-width:1pt;marker-start:none"
         transform="matrix(0.8,0,0,0.8,10,0)" />
    </marker>
    <inkscape:perspective
       sodipodi:type="inkscape:persp3d"
       inkscape:vp_x="0 : 526.18109 : 1"
       inkscape:vp_y="0 : 1000 : 0"
       inkscape:vp_z="744.09448 : 526.18109 : 1"
       inkscape:persp3d-origin="372.04724 : 350.78739 : 1"
       id="perspective10" />
    <filter
       inkscape:collect="always"
       id="filter4794">
      <feGaussianBlur
         inkscape:collect="always"
         stdDeviation="4.9385252"
         id="feGaussianBlur4796" />
    </filter>
    <filter
       inkscape:collect="always"
       id="filter4814">
      <feGaussianBlur
         inkscape:collect="always"
         stdDeviation="3.0837217"
         id="feGaussianBlur4816" />
    </filter>
    <filter
       inkscape:collect="always"
       id="filter4830">
      <feGaussianBlur
         inkscape:collect="always"
         stdDeviation="5.1270946"
         id="feGaussianBlur4832" />
    </filter>
  </defs>
  <sodipodi:namedview
     id="base"
     pagecolor="#ffffff"
     bordercolor="#666666"
     borderopacity="1.0"
     inkscape:pageopacity="0.0"
     inkscape:pageshadow="2"
     inkscape:zoom="0.62623261"
     inkscape:cx="265.60653"
     inkscape:cy="218.3972"
     inkscape:document-units="px"
     inkscape:current-layer="g4750"
     showgrid="false"
     inkscape:window-width="939"
     inkscape:window-height="678"
     inkscape:window-x="0"
     inkscape:window-y="25"
     showguides="true"
     inkscape:guide-bbox="true"
     units="cm" />
  <metadata
     id="metadata7">
    <rdf:RDF>
      <cc:Work
         rdf:about="">
        <dc:format>image/svg+xml</dc:format>
        <dc:type
           rdf:resource="http://purl.org/dc/dcmitype/StillImage" />
      </cc:Work>
    </rdf:RDF>
  </metadata>
  <g
     inkscape:label="Calque 1"
     inkscape:groupmode="layer"
     id="layer1"
     transform="translate(-150.71916,-119.70104)">
    <path
       style="opacity:1;fill:#ffffff;fill-opacity:1;fill-rule:nonzero;stroke:none;stroke-width:2.5;stroke-linecap:butt;stroke-linejoin:round;stroke-miterlimit:4;stroke-dasharray:none;stroke-dashoffset:0;stroke-opacity:1"
       d=""
       id="path3250" />
    <g
       id="g4682"
       transform="translate(398.07356,-8.5490853)">
      <g
         id="g4731"
         transform="translate(611.59382,-488.63631)" />
    </g>
    <g
       id="g4750"
       transform="matrix(0.7231868,0,0,0.7231868,99.614316,86.318808)">
      <g
         transform="translate(60.917149,-1.9712529)"
         id="g3335">
        <path
           style="fill:#5557ff;fill-opacity:1;fill-rule:nonzero;stroke:#474747;stroke-width:2.8945086;stroke-linecap:butt;stroke-linejoin:round;stroke-miterlimit:4;stroke-dashoffset:0;stroke-opacity:1"
           d="M 249.34357,531.82679 C 249.34357,559.76585 208.71049,582.44102 158.64473,582.44102 C 108.57897,582.44102 67.945896,559.76585 67.945896,531.82679 C 67.945896,503.88773 108.57897,481.21256 158.64473,481.21256 C 208.71049,481.21256 249.34357,503.88773 249.34357,531.82679 z"
           id="path3325" />
        <path
           sodipodi:type="inkscape:offset"
           inkscape:radius="-14.323552"
           inkscape:original="M 158.65625 481.21875 C 108.59049 481.21875 67.937504 503.87345 67.9375 531.8125 C 67.9375 559.75156 108.59049 582.43748 158.65625 582.4375 C 208.72201 582.4375 249.34375 559.75157 249.34375 531.8125 C 249.34375 503.87344 208.72201 481.21876 158.65625 481.21875 z "
           xlink:href="#path3325"
           style="fill:#ffffff;fill-opacity:1;fill-rule:nonzero;stroke:#ffffff;stroke-width:2.5;stroke-linecap:butt;stroke-linejoin:round;stroke-miterlimit:4;stroke-dashoffset:0;stroke-opacity:1"
           id="path3331"
           inkscape:href="#path3325"
           d="M 158.65625,495.53125 C 135.78383,495.53125 115.21647,500.91466 101.5,508.5625 C 87.783535,516.21034 82.250001,524.79018 82.25,531.8125 C 82.25,538.83482 87.783045,547.43912 101.5,555.09375 C 115.21696,562.74838 135.78681,568.12499 158.65625,568.125 C 181.52569,568.125 202.07312,562.7471 215.78125,555.09375 C 229.48938,547.4404 235.03125,538.84017 235.03125,531.8125 C 235.03125,524.78484 229.48889,516.20905 215.78125,508.5625 C 202.07361,500.91595 181.52867,495.53125 158.65625,495.53125 z" />
        <rect
           style="opacity:1;fill:#5557ff;fill-opacity:1;fill-rule:nonzero;stroke:#474747;stroke-width:2.79241204;stroke-linecap:butt;stroke-linejoin:round;stroke-miterlimit:4;stroke-dasharray:none;stroke-dashoffset:0;stroke-opacity:1"
           id="rect3323"
           width="17.773891"
           height="137.46315"
           x="149.75778"
           y="394.21747" />
        <path
           sodipodi:type="arc"
           style="opacity:1;fill:#5557ff;fill-opacity:1;fill-rule:nonzero;stroke:#474747;stroke-width:2.5;stroke-linecap:butt;stroke-linejoin:round;stroke-miterlimit:4;stroke-dasharray:none;stroke-dashoffset:0;stroke-opacity:1"
           id="path3321"
           sodipodi:cx="-173.32359"
           sodipodi:cy="286.23801"
           sodipodi:rx="67.184067"
           sodipodi:ry="33.309746"
           d="M -106.13953,286.23801 A 67.184067,33.309746 0 1 1 -240.50766,286.23801 A 67.184067,33.309746 0 1 1 -106.13953,286.23801 z"
           transform="translate(331.96833,102.7521)" />
        <path
           id="path3263"
           style="fill:none;fill-rule:evenodd;stroke:#000000;stroke-width:1.38276863;stroke-linecap:butt;stroke-linejoin:miter;stroke-miterlimit:4;stroke-dasharray:none;stroke-opacity:1;filter:url(#filter4794)"
           d="M 108.96085,264.0299 L 117.47027,293.07326 C 123.76331,314.55191 130.10337,300.71065 121.52208,353.9171 C 102.32663,353.9171 29.541738,372.10378 29.541738,372.10378 C 15.113647,383.07021 16.14148,390.15806 18.363783,398.45181 C 29.95724,441.71918 79.356986,498.17774 82.637025,531.38964 C 69.468421,549.49074 55.895172,551.81424 55.889775,551.74948 C 50.49483,553.68658 43.422897,553.15478 39.122843,553.34633 C 32.673682,554.81545 52.28143,563.92374 54.273576,565.04874 C 69.151415,564.10854 65.180308,557.68517 83.036238,557.73767 L 107.38821,560.93138 L 121.29561,552.6849 L 124.77646,540.55977 C 120.67082,532.50616 113.84406,524.05573 105.79136,521.0101 C 80.650459,496.97676 98.566262,432.38539 71.059857,411.22662 L 47.905522,397.65339 L 72.952271,409.17411 L 84.810199,409.39591 M 181.19151,238.18861 L 183.97426,228.88147 C 186.0109,241.21131 188.38139,253.37423 194.60426,263.61096 L 213.66271,270.57956 L 194.46727,264.93384 C 185.94263,274.15946 175.06385,308.87281 158.33472,325.67233 C 154.14871,324.57373 153.12947,322.77538 150.99528,320.3089 C 150.99528,320.3089 141.39756,322.28489 135.18727,319.17975 L 136.1638,328.78127 L 143.65584,331.03577 C 141.0322,331.33689 138.63771,329.67616 136.36914,330.35999 C 133.60193,331.19412 131.02208,334.27717 128.44223,333.12186 L 127.0111,331.41855 L 127.67766,327.17232 C 124.92327,326.11337 123.15498,329.84405 125.62135,354.14309 C 132.91045,356.18683 137.18826,354.6547 142.24442,354.4655 L 167.50486,336.91534 C 171.41756,323.90401 219.03778,301.37342 224.95415,279.61271 C 213.22181,231.8334 208.87872,191.02919 196.72556,193.79776 C 184.15379,197.85468 173.64947,198.47544 168.49696,197.74977 C 163.34445,197.0241 164.51442,186.07507 164.54495,177.42518 C 167.53949,164.25871 175.69525,167.59222 178.65925,155.97144 C 181.6909,144.08543 180.72934,140.25752 176.40096,132.25942 C 172.07258,124.26132 164.16857,109.58244 152.68894,107.98282 C 141.20931,106.3832 125.21311,110.61749 117.68548,121.53255 C 110.15785,132.44761 110.56858,150.30926 113.1689,163.31087 C 115.80357,176.48422 123.33119,194.55053 130.10606,194.92691 C 136.88092,195.30329 143.27648,177.93267 148.17237,175.73146 C 153.15142,173.49286 148.80249,174.86748 148.80249,175.43205 C 144.90918,180.4307 135.57726,190.36039 135.75178,193.23319 L 137.36038,219.71134 L 135.66759,203.36819 C 114.09592,209.39831 104.01242,191.29334 93.534365,203.30489 L 80.577535,218.158 C 80.577535,218.158 40.996338,251.74186 40.771341,263.30406 C 40.546344,274.86626 40.813849,273.0421 51.451053,276.41099 C 62.088257,279.77988 89.53044,260.73856 106.36794,262.85288 C 109.47328,263.24283 112.44205,268.0066 115.56355,267.77995 C 119.52544,267.49228 127.47932,260.894 127.47932,260.894 L 129.68625,261.67235 L 135.20794,262.6988 L 136.09266,265.52493 C 136.09266,265.52493 140.75803,261.54777 140.57557,259.23867 C 140.02932,252.32574 136.26304,232.50162 136.8503,231.8957 C 139.1908,229.48084 131.08544,228.61716 126.085,230.79661 C 121.51063,241.90111 112.08749,252.0442 111.96231,250.47941 C 111.95391,250.5046 80.317556,254.87032 71.968225,249.5369 C 63.592608,248.23547 47.264039,261.34529 49.316952,264.0825 C 47.175725,259.08631 67.316625,247.59717 69.89059,247.97701 C 76.881954,249.00873 82.421362,252.57096 93.161853,251.24751 C 93.161853,251.24751 104.98211,236.30747 104.98211,236.30747 L 107.01605,227.2367 L 105.45798,238.53724 L 105.35202,250.67949"
           sodipodi:nodetypes="csczscccccccscccccccccccccccscccccccczczzzzzzzczccsczzssccccssccccsscccc" />
        <path
           style="fill:none;fill-rule:evenodd;stroke:#000000;stroke-width:1.38276863;stroke-linecap:butt;stroke-linejoin:miter;stroke-miterlimit:4;stroke-dasharray:none;stroke-opacity:1;filter:url(#filter4814)"
           d="M 203.92918,307.35108 C 203.92918,307.35108 204.36999,315.42572 207.31662,325.54463 C 209.93612,334.54016 213.61205,336.13284 215.61497,342.85952 C 219.47604,355.82668 226.20142,389.92019 211.05827,395.86281 C 184.62369,409.70944 146.97116,422.36404 146.97116,422.36404 L 116.66174,411.56857 L 146.11185,424.79985 C 160.16025,454.07545 141.9309,483.35105 162.87877,519.81247 C 175.58211,532.52883 172.56755,540.75437 170.86303,549.3542 C 158.83345,553.96553 155.20508,558.57685 149.08083,563.18818 C 140.6392,568.23349 132.19756,576.45668 123.75593,575.70224 C 116.23476,576.85471 107.24847,581.70914 101.19243,577.15538 C 101.19243,577.15538 93.155362,573.89818 95.012618,572.50854 C 107.22875,563.36819 126.12821,552.20342 124.83477,552.01864 C 124.83477,552.01864 132.33426,541.16885 132.53861,535.78097 C 133.80306,502.44261 83.834663,414.42032 83.834663,414.42032 C 83.440422,408.7229 87.170437,398.43354 91.81892,393.66126 C 96.467403,388.88898 160.44409,374.26639 158.67629,357.4014"
           id="path3271"
           sodipodi:nodetypes="cssccccccccsscsszc" />
        <path
           style="opacity:1;fill:#aaaaaa;fill-opacity:1;fill-rule:nonzero;stroke:none;stroke-width:2.5;stroke-linecap:butt;stroke-linejoin:round;stroke-miterlimit:4;stroke-dasharray:none;stroke-dashoffset:0;stroke-opacity:1"
           d="M 127.92175,353.79867 C 126.22212,353.34519 125.59018,348.5467 125.7425,337.2512 C 125.80829,332.37222 126.01368,329.38783 126.19891,330.6192 C 126.72463,334.11416 129.43196,334.90169 133.60398,332.77329 C 136.31351,331.39101 137.76938,331.13877 140.59369,331.5623 C 144.95693,332.2166 145.07239,330.45648 140.73864,329.35256 C 137.27484,328.47024 137.10852,328.27104 136.51035,324.28923 L 136.0157,320.99654 L 143.39446,321.40796 C 149.54793,321.75105 151.13717,322.12295 152.96463,323.64745 C 156.94915,326.97142 158.37255,326.94564 161.38537,323.49499 C 166.63093,317.48718 173.67186,305.86337 180.91515,291.25357 C 187.20247,278.57193 191.51503,270.54455 194.07585,266.75627 C 194.54769,266.05823 197.10083,266.524 203.88213,268.5452 C 213.95713,271.54812 214.24809,271.60557 214.24809,270.5922 C 214.24809,270.2068 209.95618,268.34381 204.71052,266.45224 L 195.17296,263.01302 L 192.31814,256.7677 C 189.78996,251.23695 186.5981,239.85956 185.13741,231.17206 C 184.8605,229.52531 184.35659,228.17796 184.01755,228.17796 C 183.40253,228.17796 180.71422,235.86993 180.71422,237.62964 C 180.71422,239.75635 182.2069,238.33434 182.88314,235.5634 L 183.61387,232.5693 L 185.01,238.95671 C 186.81606,247.21939 189.23976,254.76659 191.60392,259.48962 C 193.93418,264.1449 193.93354,264.41872 191.58497,267.55368 C 190.53773,268.95158 185.71589,277.99971 180.86975,287.66065 C 172.23613,304.87213 166.45727,314.66092 160.98294,321.34699 C 157.97934,325.01547 156.99861,325.07797 153.47172,321.82575 C 151.66193,320.15689 150.47679,319.866 144.68904,319.67011 C 141.00923,319.54556 137.17082,319.1619 136.15926,318.81754 L 134.32007,318.19143 L 134.85471,324.09183 L 135.3894,329.99223 L 132.44735,331.39518 C 128.81156,333.12899 127.77411,332.56714 128.18069,329.08447 C 128.38197,327.36064 128.15442,326.38428 127.55148,326.38428 C 126.91134,326.38428 126.50201,323.87585 126.28112,318.59964 C 125.98431,311.50962 125.65969,310.1738 122.64332,303.62916 C 119.3456,296.4741 110.59582,268.48849 111.40383,267.68047 C 111.63721,267.44707 112.71743,267.59422 113.80429,268.00745 C 116.05993,268.86503 120.65126,267.1413 125.05199,263.7847 C 127.45147,261.95454 127.94849,261.86395 131.14238,262.67463 C 133.37184,263.24053 134.75829,264.08591 135.00515,265.02988 C 135.50869,266.95541 136.17191,266.88727 138.15872,264.70592 C 141.58629,260.94275 141.63385,260.31448 139.53922,246.46205 C 138.45021,239.26017 137.71547,232.73427 137.90644,231.96003 C 138.35565,230.13871 136.14321,228.9734 132.26237,228.98729 C 126.75504,229.00701 125.77032,229.66096 122.81863,235.25894 C 118.76496,242.94688 113.15365,249.73545 110.85262,249.73545 C 109.82626,249.73545 108.41822,249.95353 107.7236,250.22009 C 106.62502,250.64165 106.46825,249.73248 106.51895,243.23386 C 106.551,239.12489 106.8481,233.85949 107.17915,231.53296 C 107.51018,229.20643 107.50984,227.1353 107.17834,226.93042 C 106.55378,226.54442 106.36472,227.02713 104.85635,232.85883 C 104.26938,235.12818 101.97537,238.81494 98.273705,243.43797 C 92.618961,250.50024 92.574728,250.53388 88.947194,250.53481 C 86.942548,250.53533 81.495507,249.74444 76.842651,248.77731 L 68.382927,247.01889 L 62.301369,250.49845 C 54.774621,254.80493 50.908254,257.94503 49.297718,261.05946 C 47.280624,264.9601 48.672847,264.6148 52.607423,260.23862 C 55.082598,257.4856 58.201622,255.20099 62.146937,253.25111 C 68.419535,250.15103 69.085885,250.10665 78.515775,252.16097 C 81.548346,252.82163 86.612846,252.94633 94.883495,252.56403 C 113.82026,251.6887 113.19814,251.88148 118.18127,245.34411 C 120.5244,242.27017 123.41851,237.88943 124.61267,235.60912 C 126.86462,231.30891 128.02188,230.60271 132.84737,230.58414 L 135.68052,230.57324 L 137.56275,243.54765 C 139.88013,259.52121 139.88945,260.57492 137.73233,262.73204 C 136.41516,264.0492 136.0024,264.17319 136.0024,263.25172 C 136.0024,262.42591 134.58049,261.74322 131.52593,261.10253 C 127.31204,260.21864 126.90225,260.2737 124.53971,262.04108 C 121.008,264.6831 117.21146,266.50238 115.22972,266.50238 C 114.30037,266.50238 112.3398,265.58699 110.87295,264.46816 C 109.40609,263.34934 106.97119,262.23358 105.46204,261.98868 C 101.07865,261.27735 91.576904,263.67348 76.506514,269.2906 C 58.001257,276.18799 55.764628,276.64575 49.221988,274.87474 C 42.434829,273.03755 41.788209,272.27851 41.788209,266.14858 C 41.788209,261.46973 42.063082,260.69721 45.722617,255.09138 C 49.600617,249.15084 59.695316,238.47077 76.120499,222.9307 C 80.731405,218.56826 87.557942,211.67203 91.290581,207.60574 C 97.961513,200.33853 98.139458,200.21268 101.72987,200.22279 C 103.73885,200.22845 108.05034,201.18771 111.31098,202.35447 C 116.30819,204.14263 118.6431,204.48753 126.17562,204.55014 L 135.11182,204.62442 L 135.65295,211.51895 C 136.15128,217.86886 136.98076,221.10381 137.87132,220.17059 C 138.06872,219.96374 137.92934,215.66265 137.56161,210.61261 C 136.26034,192.74249 136.28515,192.55451 140.72583,186.65985 C 142.87612,183.80548 146.0587,179.93488 147.79819,178.05851 C 149.5377,176.18214 150.65937,174.46058 150.29082,174.23281 C 148.86281,173.35024 145.31456,176.80107 140.6553,183.60376 C 133.02172,194.74911 130.18169,196.12141 125.58481,190.88586 C 119.87617,184.38406 114.38102,168.45551 112.77504,153.75475 C 110.56567,133.53079 116.2879,119.55885 129.52767,112.84975 C 137.34816,108.88681 149.08709,107.32524 154.91236,109.47294 C 162.19031,112.15624 168.86782,119.71159 175.7372,133.03554 L 179.30308,139.95196 L 178.92001,147.13779 C 178.43242,156.28418 177.09503,159.36986 170.78598,165.9049 C 164.44365,172.47437 163.71143,174.72708 164.07172,186.56103 C 164.32608,194.91539 164.4867,195.70011 166.23141,197.11147 C 169.45798,199.72153 177.50997,199.21789 194.5898,195.33767 L 199.28351,194.27135 L 201.77561,197.17478 C 206.35251,202.50702 208.79637,210.92374 218.72619,255.55272 L 224.19522,280.133 L 222.33511,283.63934 C 218.28877,291.26676 209.40923,299.88165 191.85781,313.20827 C 177.08485,324.42522 170.17113,330.46833 168.41431,333.69958 C 166.87632,336.52838 146.2289,351.47716 141.36125,353.28608 C 138.89891,354.20111 130.61442,354.5171 127.92177,353.79867 L 127.92175,353.79867 z"
           id="path3316" />
        <path
           style="opacity:1;fill:#aaaaaa;fill-opacity:1;fill-rule:nonzero;stroke:none;stroke-width:2.5;stroke-linecap:butt;stroke-linejoin:round;stroke-miterlimit:4;stroke-dasharray:none;stroke-dashoffset:0;stroke-opacity:1"
           d="M 100.27287,575.67847 C 97.967413,574.51655 96.083233,573.37073 96.085796,573.1322 C 96.088343,572.89369 102.71104,568.2275 110.80288,562.76294 C 125.32535,552.95565 125.55618,552.75464 128.68218,547.19365 C 133.50169,538.62 133.8985,536.78281 132.79034,528.1736 C 130.24391,508.39061 115.47611,471.81568 92.878633,429.32563 C 85.089395,414.67947 84.739948,413.81318 85.206053,410.30334 C 85.944237,404.74467 90.772147,395.50921 93.89201,393.68768 C 95.315611,392.85652 103.30688,389.72803 111.65043,386.73547 C 140.09356,376.53383 149.6416,371.87338 155.8109,365.18047 C 158.20106,362.58748 159.15674,360.86141 159.15674,359.13756 C 159.15674,357.81035 158.79745,356.72445 158.35831,356.72445 C 157.91918,356.72445 157.55989,357.62164 157.55989,358.71821 C 157.55989,359.8872 156.36658,362.03282 154.67524,363.90493 C 149.03775,370.14496 138.75132,375.19865 113.24728,384.25835 C 90.108879,392.47772 89.539538,392.86267 85.481158,403.03312 L 83.410226,408.22288 L 78.656418,408.45826 C 74.226514,408.67765 73.072135,408.31045 61.714031,403.06891 C 50.296181,397.79985 46.719699,396.53279 47.68834,398.10009 C 47.911309,398.46087 52.333835,401.21155 57.516174,404.21274 C 70.605903,411.79324 74.471663,414.8489 77.619287,420.10308 C 83.332971,429.64068 85.558478,438.57973 88.079106,462.1166 C 91.27902,491.99624 93.602429,503.12626 98.579542,512.41739 C 101.56653,517.99338 104.73351,521.48287 108.37591,523.2113 C 111.71041,524.79364 119.11274,532.51792 121.97485,537.40173 L 123.95385,540.77864 L 122.30325,546.43702 L 120.65264,552.09539 L 113.75623,556.119 L 106.85988,560.14261 L 95.68192,558.5863 C 80.7218,556.50343 75.076877,556.87936 66.933042,560.50088 C 56.9535,564.93871 55.689209,564.97441 48.487133,561.02169 C 45.122161,559.17491 41.429955,556.83636 40.282171,555.82493 L 38.195294,553.98595 L 44.582697,553.95125 C 57.317382,553.88207 66.003595,549.91674 76.404291,539.42445 L 83.474699,532.29177 L 82.923051,528.54238 C 81.261312,517.24828 72.408388,498.60786 54.029706,467.70557 C 34.332065,434.58554 27.491484,421.6431 22.379877,407.82367 C 16.752112,392.60873 16.748607,386.96602 22.362743,380.07802 C 27.607959,373.64265 29.033587,372.9939 47.46364,368.65571 C 77.614664,361.55857 108.71486,355.60312 119.23547,354.91197 C 121.99382,354.73076 122.04082,354.66643 122.86975,349.93783 C 123.67296,345.35588 123.73381,345.26462 124.26699,347.84197 C 124.57358,349.32404 124.82445,351.5226 124.82445,352.72766 C 124.82445,354.63921 125.20632,354.98178 127.81854,355.41355 C 131.92923,356.093 137.44325,356.01711 140.80566,355.23479 C 145.04699,354.24796 166.73438,338.83932 169.46866,334.87005 C 170.71741,333.05724 173.84835,329.75482 176.42629,327.53132 C 182.22085,322.53343 202.3644,307.02162 202.61028,307.36799 C 202.70916,307.50731 203.5709,311.75314 204.52521,316.80318 C 205.92787,324.22577 207.08641,327.66788 210.57165,334.76775 C 217.19719,348.2648 220.65,366.11655 219.14241,379.08036 C 218.26607,386.61625 216.73227,390.28496 213.33251,392.97737 C 208.02681,397.17914 182.94299,408.22826 157.63206,417.51271 L 146.92549,421.44003 L 132.38069,416.22873 C 124.38101,413.36248 117.43217,411.01737 116.9388,411.01737 C 114.16379,411.01737 117.56135,412.95252 130.78281,418.90245 L 145.52386,425.5362 L 147.15731,429.902 C 150.1761,437.9705 150.49801,440.86744 151.18044,466.10872 C 151.86469,491.41604 152.39308,496.13684 155.60777,505.66293 C 158.04786,512.89367 161.27161,519.15735 164.62268,523.17875 C 170.68441,530.45303 172.13573,535.55413 170.76099,544.75362 C 170.16451,548.74515 170.16361,548.74614 164.70926,551.36641 C 161.7089,552.80778 156.80697,555.90001 153.81605,558.23805 C 144.20284,565.75278 131.32856,573.80881 128.188,574.27469 C 126.55763,574.51653 121.99004,575.43432 118.03783,576.3142 C 108.75183,578.38156 105.39797,578.26153 100.27287,575.67849 L 100.27287,575.67847 z"
           id="path3318" />
        <g
           id="g3306"
           transform="translate(-0.8304821,-2.2984113)">
          <path
             transform="matrix(0.7729803,0,0,0.7729803,280.641,84.005911)"
             d="M -130.9807,272.68826 A 61.538345,15.243443 0 1 1 -254.05739,272.68826 A 61.538345,15.243443 0 1 1 -130.9807,272.68826 z"
             sodipodi:ry="15.243443"
             sodipodi:rx="61.538345"
             sodipodi:cy="272.68826"
             sodipodi:cx="-192.51904"
             id="path3297"
             style="opacity:1;fill:#5557ff;fill-opacity:1;fill-rule:nonzero;stroke:#000000;stroke-width:2.5;stroke-linecap:butt;stroke-linejoin:round;stroke-miterlimit:4;stroke-dasharray:none;stroke-dashoffset:0;stroke-opacity:1"
             sodipodi:type="arc" />
          <path
             sodipodi:nodetypes="cccscccc"
             id="rect3303"
             d="M 134.83249,333.63258 L 134.88239,306.13506 L 128.77274,306.13506 L 128.72284,333.63258 M 128.77274,356.83682 L 128.77274,362.35503 L 134.88239,362.35503 L 134.88239,357.23603"
             style="fill:#5557ff;fill-opacity:1;fill-rule:nonzero;stroke:#000000;stroke-width:1.93245089;stroke-linecap:butt;stroke-linejoin:round;stroke-miterlimit:4;stroke-dashoffset:0;stroke-opacity:1" />
          <path
             transform="matrix(0.7729803,0,0,0.7729803,280.641,76.587055)"
             d="M -130.9807,272.68826 A 61.538345,15.243443 0 1 1 -254.05739,272.68826 A 61.538345,15.243443 0 1 1 -130.9807,272.68826 z"
             sodipodi:ry="15.243443"
             sodipodi:rx="61.538345"
             sodipodi:cy="272.68826"
             sodipodi:cx="-192.51904"
             id="path3295"
             style="opacity:1;fill:#5557ff;fill-opacity:1;fill-rule:nonzero;stroke:#000000;stroke-width:2.5;stroke-linecap:butt;stroke-linejoin:round;stroke-miterlimit:4;stroke-dasharray:none;stroke-dashoffset:0;stroke-opacity:1"
             sodipodi:type="arc" />
          <path
             style="fill:#5557ff;fill-opacity:1;fill-rule:nonzero;stroke:#000000;stroke-width:1.93245089;stroke-linecap:butt;stroke-linejoin:round;stroke-miterlimit:4;stroke-dashoffset:0;stroke-opacity:1"
             d="M 134.88238,265.41712 L 134.88238,288.67895 L 128.77274,288.67895 L 128.77274,263.02184 M 128.77274,233.87932 L 128.77274,224.09129 L 134.88238,224.09129 L 134.88238,231.88326"
             id="rect3299"
             sodipodi:nodetypes="cccccccc" />
        </g>
      </g>
      <path
         sodipodi:nodetypes="cssssc"
         id="path3350"
         d="M 237.50321,239.19079 C 230.82373,248.2786 235.8158,246.03602 232.79506,249.02381 C 224.76212,256.96916 207.3003,262.47916 187.06837,262.47916 C 159.22834,262.47916 136.63353,252.04598 136.63353,239.19079 C 136.63353,226.3356 159.22834,215.90241 187.06837,215.90241 C 195.50946,215.90241 202.68918,216.70715 210.19088,218.4941"
         style="fill:none;fill-opacity:1;fill-rule:nonzero;stroke:#000000;stroke-width:1.73192072;stroke-linecap:butt;stroke-linejoin:round;marker-start:url(#Arrow1Lstart);stroke-miterlimit:4;stroke-dasharray:none;stroke-dashoffset:0;stroke-opacity:1" />
      <path
         style="fill:#5557ff;fill-opacity:1;fill-rule:nonzero;stroke:#474747;stroke-width:2.8945086;stroke-linecap:butt;stroke-linejoin:round;stroke-miterlimit:4;stroke-dashoffset:0;stroke-opacity:1"
         d="M 654.04136,527.69386 C 654.04136,555.63292 613.40828,578.30809 563.34252,578.30809 C 513.27676,578.30809 472.64368,555.63292 472.64368,527.69386 C 472.64368,499.7548 513.27676,477.07963 563.34252,477.07963 C 613.40828,477.07963 654.04136,499.7548 654.04136,527.69386 z"
         id="path4684" />
      <path
         sodipodi:type="inkscape:offset"
         inkscape:radius="-14.323552"
         inkscape:original="M 158.65625 481.21875 C 108.59049 481.21875 67.937504 503.87345 67.9375 531.8125 C 67.9375 559.75156 108.59049 582.43748 158.65625 582.4375 C 208.72201 582.4375 249.34375 559.75157 249.34375 531.8125 C 249.34375 503.87344 208.72201 481.21876 158.65625 481.21875 z "
         xlink:href="#path3325"
         style="fill:#ffffff;fill-opacity:1;fill-rule:nonzero;stroke:#ffffff;stroke-width:2.5;stroke-linecap:butt;stroke-linejoin:round;stroke-miterlimit:4;stroke-dashoffset:0;stroke-opacity:1"
         id="path4686"
         inkscape:href="#path3325"
         d="M 158.65625,495.53125 C 135.78383,495.53125 115.21647,500.91466 101.5,508.5625 C 87.783535,516.21034 82.250001,524.79018 82.25,531.8125 C 82.25,538.83482 87.783045,547.43912 101.5,555.09375 C 115.21696,562.74838 135.78681,568.12499 158.65625,568.125 C 181.52569,568.125 202.07312,562.7471 215.78125,555.09375 C 229.48938,547.4404 235.03125,538.84017 235.03125,531.8125 C 235.03125,524.78484 229.48889,516.20905 215.78125,508.5625 C 202.07361,500.91595 181.52867,495.53125 158.65625,495.53125 z"
         transform="translate(404.69779,-4.1329353)" />
      <rect
         style="opacity:1;fill:#5557ff;fill-opacity:1;fill-rule:nonzero;stroke:#474747;stroke-width:2.79241204;stroke-linecap:butt;stroke-linejoin:round;stroke-miterlimit:4;stroke-dasharray:none;stroke-dashoffset:0;stroke-opacity:1"
         id="rect4688"
         width="17.773891"
         height="137.46315"
         x="554.45557"
         y="390.08453" />
      <path
         sodipodi:type="arc"
         style="opacity:1;fill:#5557ff;fill-opacity:1;fill-rule:nonzero;stroke:#474747;stroke-width:2.5;stroke-linecap:butt;stroke-linejoin:round;stroke-miterlimit:4;stroke-dasharray:none;stroke-dashoffset:0;stroke-opacity:1"
         id="path4690"
         sodipodi:cx="-173.32359"
         sodipodi:cy="286.23801"
         sodipodi:rx="67.184067"
         sodipodi:ry="33.309746"
         d="M -106.13953,286.23801 A 67.184067,33.309746 0 1 1 -240.50766,286.23801 A 67.184067,33.309746 0 1 1 -106.13953,286.23801 z"
         transform="translate(736.66612,98.619165)" />
      <g
         id="g4725"
         transform="translate(403.10093,-4.1329253)"
         style="stroke:#000000;stroke-width:1.38276863;stroke-miterlimit:4;stroke-dasharray:none;stroke-opacity:1;filter:url(#filter4830)">
        <path
           sodipodi:nodetypes="ccccccccccccsccccccsscccccssssssscsccsssccccssccccsccccccccccccccscsc"
           d="M 125.69024,318.17047 C 125.64164,306.07954 121.54609,306.98438 117.47027,293.07326 C 113.15838,279.50238 109.62501,260.81489 101.93955,248.36854 C 107.05301,243.76182 110.09459,235.52928 113.12924,227.28462 C 102.65291,256.41027 94.497921,250.64678 92.518924,262.81254 L 73.460474,269.78114 L 92.655914,264.13542 C 101.18055,273.36104 87.308148,308.07439 104.03728,324.87391 C 108.22329,323.77531 109.24253,321.97696 111.37672,319.51048 C 111.37672,319.51048 120.97444,321.48647 127.18473,318.38133 L 126.2082,327.98285 L 118.71616,330.23735 C 121.3398,330.53847 125.97809,327.28343 126.00286,329.56157 C 126.02369,331.47741 128.86626,330.76914 133.3652,331.05315 L 135.3609,330.62013 L 134.69434,326.3739 C 140.35062,326.62475 139.62673,331.83351 137.17408,349.53381 C 119.00732,352.34766 117.90374,349.35696 117.54479,348.96076 L 94.867138,336.11692 C 90.954438,323.10559 60.969545,297.99719 63.765885,275.62059 C 67.48912,245.82687 74.676443,243.7253 78.980684,231.73123 C 81.881484,223.64795 93.534365,203.30489 93.534365,203.30489 C 104.01242,191.29334 114.09592,209.39831 135.66759,203.36819 L 137.36038,219.71134 L 135.75178,193.23319 C 135.57726,190.36039 144.90918,180.4307 148.80249,175.43205 C 148.80249,174.86748 153.15142,173.49286 148.17237,175.73146 C 143.27648,177.93267 136.88092,195.30329 130.10606,194.92691 C 123.33119,194.55053 115.80357,176.48422 113.1689,163.31087 C 110.56858,150.30926 110.15785,132.44761 117.68548,121.53255 C 125.21311,110.61749 141.20931,106.3832 152.68894,107.98282 C 164.16857,109.58244 172.07258,124.26132 176.40096,132.25942 C 180.72934,140.25752 181.6909,144.08543 178.65925,155.97144 C 175.69525,167.59222 167.53949,164.25871 164.54495,177.42518 C 164.51442,186.07507 163.34445,197.0241 168.49696,197.74977 C 173.64947,198.47544 184.15379,197.85468 196.72556,193.79776 C 209.29733,189.74084 226.26567,255.6814 226.49067,267.2436 C 226.71567,278.8058 222.45603,277.78006 211.81883,281.14895 C 201.18163,284.51784 175.66701,267.17024 158.82951,269.28456 C 155.72417,269.67451 150.82783,270.77687 147.70633,270.55022 C 143.74444,270.26255 135.79056,260.84141 135.79056,260.84141 L 133.58363,261.61976 L 128.06194,262.64621 L 127.17722,265.47234 C 127.17722,265.47234 122.51185,261.49518 122.69431,259.18608 C 123.24056,252.27315 127.00684,232.44903 126.41958,231.84311 C 124.07908,229.42825 132.18444,228.56457 137.18488,230.74402 C 141.75925,241.84852 151.18239,251.99161 151.30757,250.42682 C 151.31597,250.45201 182.95233,254.81773 191.30166,249.48431 C 199.67727,248.18288 216.00584,261.2927 213.95293,264.02991 C 216.09416,259.03372 195.95326,247.54458 193.37929,247.92442 C 186.38793,248.95614 180.84852,252.51837 170.10803,251.19492 M 84.810199,409.39591 L 72.952271,409.17411 L 47.905522,397.65339 L 71.059857,411.22662 C 98.566262,432.38539 80.650459,496.97676 105.79136,521.0101 C 113.84406,524.05573 120.67082,532.50616 124.77646,540.55977 L 121.29561,552.6849 L 107.38821,560.93138 L 83.036238,557.73767 C 65.180308,557.68517 69.151415,564.10854 54.273576,565.04874 C 52.28143,563.92374 32.673682,554.81545 39.122843,553.34633 C 43.422897,553.15478 50.49483,553.68658 55.889775,551.74948 C 55.895172,551.81424 69.468421,549.49074 82.637025,531.38964 C 79.356986,498.17774 29.95724,441.71918 18.363783,398.45181 C 16.14148,390.15806 15.113647,383.07021 29.541738,372.10378 C 29.541738,372.10378 92.426393,356.39086 116.70786,354.1755 C 118.5494,354.00748 119.60433,349.98344 120.95751,349.98344"
           style="fill:none;fill-rule:evenodd;stroke:#000000;stroke-width:1.38276863;stroke-linecap:butt;stroke-linejoin:miter;stroke-miterlimit:4;stroke-dasharray:none;stroke-opacity:1"
           id="path4716" />
        <path
           style="fill:none;fill-rule:evenodd;stroke:#000000;stroke-width:1.38276863;stroke-linecap:butt;stroke-linejoin:miter;stroke-miterlimit:4;stroke-dasharray:none;stroke-opacity:1"
           d="M 201.30005,281.04317 C 201.30005,281.04317 200.41799,315.42572 207.31662,325.54463 C 212.59429,333.28592 213.61205,336.13284 215.61497,342.85952 C 219.47604,355.82668 226.20142,389.92019 211.05827,395.86281 C 184.62369,409.70944 146.97116,422.36404 146.97116,422.36404 L 116.66174,411.56857 L 146.11185,424.79985 C 160.16025,454.07545 141.9309,483.35105 162.87877,519.81247 C 175.58211,532.52883 172.56755,540.75437 170.86303,549.3542 C 158.83345,553.96553 155.20508,558.57685 149.08083,563.18818 C 140.6392,568.23349 132.19756,576.45668 123.75593,575.70224 C 116.23476,576.85471 107.24847,581.70914 101.19243,577.15538 C 101.19243,577.15538 93.155362,573.89818 95.012618,572.50854 C 107.22875,563.36819 126.12821,552.20342 124.83477,552.01864 C 124.83477,552.01864 132.33426,541.16885 132.53861,535.78097 C 133.80306,502.44261 83.834663,414.42032 83.834663,414.42032 C 83.440422,408.7229 87.170437,398.43354 91.81892,393.66126 C 96.467403,388.88898 160.44409,374.26639 158.67629,357.4014"
           id="path4694"
           sodipodi:nodetypes="cssccccccccsscsszc" />
      </g>
      <path
         style="opacity:1;fill:#aaaaaa;fill-opacity:1;fill-rule:nonzero;stroke:none;stroke-width:3.19370151;stroke-linecap:butt;stroke-linejoin:round;stroke-miterlimit:4;stroke-dasharray:none;stroke-dashoffset:0;stroke-opacity:1"
         d="M 502.83075,571.01195 C 499.41276,569.11315 499.93094,568.56345 514.18205,558.97085 C 531.93902,547.01825 536.63919,540.36075 536.26075,527.69775 C 535.7615,510.99286 525.33662,483.13934 502.82769,438.37031 C 488.23341,409.34311 487.73534,408.0044 489.46002,402.44117 C 492.62657,392.22702 495.75464,389.92125 516.7918,382.29443 C 540.40511,373.73365 551.40992,368.39749 558.153,362.23863 C 562.95042,357.85687 564.75387,352.74923 561.50361,352.74923 C 560.62534,352.74923 559.90676,353.69267 559.90676,354.84575 C 559.90676,361.12615 544.64785,369.63864 513.59809,380.68003 C 494.64261,387.42068 492.81447,388.66255 488.82556,397.50838 C 485.13303,405.69697 480.9302,405.82085 464.49155,398.22572 C 457.79821,395.13323 451.59717,392.84456 450.71143,393.1398 C 449.82567,393.43507 455.34599,397.44879 462.97879,402.05921 C 483.68782,414.56806 485.9586,419.44782 491.30575,462.93193 C 496.33144,503.80154 497.4085,506.56034 514.74925,522.97905 C 526.22354,533.84325 526.68026,534.55135 525.56495,539.74605 C 524.02731,546.90765 523.91097,547.06305 516.64576,551.64935 C 510.50576,555.52535 510.09861,555.56665 496.23346,553.72065 C 483.68435,552.04985 481.20524,552.15555 474.28856,554.65675 C 461.51136,559.27705 456.10043,559.36165 449.11697,555.05045 L 442.92092,551.22525 L 451.38105,550.10305 C 463.15449,548.54125 468.37055,546.01845 478.24334,537.11075 C 486.64008,529.53475 486.78379,529.25585 485.83981,522.36885 C 484.50346,512.61898 475.56303,494.22803 454.96154,458.85056 C 433.49886,421.9942 430.13625,415.38901 424.9102,399.82092 C 421.49363,389.64311 421.10044,386.76683 422.53249,382.42768 C 425.90715,372.20243 430.81783,369.5408 457.70832,363.3623 C 471.32147,360.23448 491.0825,356.142 501.62171,354.26792 C 512.16093,352.39385 521.5025,350.30158 522.38077,349.61845 C 523.25904,348.93531 527.45337,348.00433 531.70152,347.54961 C 535.94966,347.09486 540.05589,346.09238 540.82644,345.32183 C 541.59701,344.55127 542.40609,339.39729 542.62443,333.86853 C 542.91724,326.45379 542.40847,323.42856 540.68534,322.33868 C 537.21439,320.1433 535.49372,320.50319 536.53147,323.20749 C 537.17896,324.89485 536.40354,325.59895 533.90783,325.58983 C 530.68155,325.57803 530.34661,324.75013 530.15896,316.32372 C 530.03099,310.57766 528.73874,304.68158 526.74942,300.76738 C 524.98752,297.30062 520.91211,285.55573 517.69299,274.66762 C 514.47389,263.77951 510.76086,252.78411 509.44184,250.23339 C 507.18045,245.86036 507.32172,245.03922 511.91771,235.84183 C 514.59846,230.47719 516.75724,224.94517 516.71499,223.54849 C 516.67275,222.1518 514.45535,225.24001 511.78746,230.41121 C 509.11955,235.5824 504.12404,243.3717 500.68631,247.72075 C 497.24858,252.06979 494.43588,256.14023 494.43588,256.76613 C 494.43588,257.39206 490.66333,259.22435 486.05242,260.83792 C 471.24942,266.01822 471.50358,268.41518 486.38718,263.99523 C 493.3999,261.9127 495.12226,261.84283 496.23365,263.59602 C 496.97453,264.7647 497.59169,274.74172 497.60514,285.76719 C 497.62753,304.10689 497.98161,306.51992 501.76455,314.11129 C 504.03877,318.67509 506.39393,322.40907 506.99821,322.40907 C 507.60251,322.40907 509.78077,321.22965 511.8388,319.78816 C 513.89682,318.34665 518.36876,317.08913 521.77642,316.99367 C 526.79557,316.85305 527.97193,317.37916 527.97096,319.76408 C 527.97029,321.38325 526.53258,323.08388 524.77604,323.54323 C 520.8491,324.57016 520.51108,327.53616 524.37683,327.04618 C 525.9138,326.85138 529.25923,327.27145 531.81111,327.9797 C 535.45505,328.99105 536.91171,328.63723 538.59773,326.33146 C 540.54312,323.67099 540.74455,323.92983 540.74455,329.09008 C 540.74455,332.2221 540.29544,337.03023 539.74652,339.77482 C 538.78201,344.59739 538.47364,344.76257 530.56463,344.69321 C 523.89059,344.63472 520.28441,343.38265 511.01763,337.9066 C 499.27278,330.96619 492.50959,322.9153 475.86496,296.06103 C 468.62485,284.37989 467.16637,272.51195 471.08919,257.19962 C 474.03862,245.68681 497.13578,199.58541 501.15586,197.18716 C 503.07343,196.0432 506.15659,196.22554 511.53539,197.80096 C 515.7438,199.03357 523.30252,200.33151 528.33253,200.68524 L 537.478,201.32842 L 538.52563,209.22603 C 540.09631,221.06623 541.22571,217.31288 540.87626,201.41423 L 540.56644,187.31768 L 547.17874,179.01296 C 550.81549,174.44537 553.02804,170.70825 552.09548,170.70825 C 551.16293,170.70825 547.42905,174.48081 543.79797,179.09171 C 535.01727,190.24188 533.57351,190.91247 528.99187,185.96881 C 520.32455,176.61658 514.18214,148.06483 517.12675,130.816 C 519.58082,116.44063 530.58438,107.16306 546.93901,105.68008 C 553.69838,105.06714 557.48376,105.55391 561.2983,107.52647 C 566.38772,110.15834 576.50872,123.94456 580.59653,133.81341 C 583.75515,141.43893 581.45957,152.24305 575.19081,159.25543 C 567.74123,167.58864 566.29416,171.00993 566.29416,180.28935 C 566.29416,195.30759 569.92385,197.01379 592.87611,192.78468 C 602.27568,191.05273 603.24933,191.1449 605.52808,193.98232 C 612.24653,202.34791 625.16174,240.52676 627.72563,259.60095 C 628.6668,266.60295 628.35674,268.33074 625.67826,271.00922 C 619.53853,277.149 611.20541,276.97268 591.46115,270.28518 C 576.34466,265.16513 571.57198,264.23404 561.50361,264.44088 C 550.20936,264.67292 549.24253,264.41351 544.52874,259.88626 C 539.96794,255.50597 539.03129,255.22336 533.83255,256.6588 C 526.90859,258.5706 526.50519,257.78824 528.25331,245.83817 C 531.07947,226.51874 531.05135,226.59802 535.07549,226.59802 C 537.95782,226.59802 539.96128,228.5798 543.60394,235.03422 C 551.08213,248.2849 550.72067,248.14749 578.27763,248.21462 C 604.07212,248.27744 606.31222,248.83985 614.11117,257.21106 C 615.89782,259.12884 617.7366,260.32096 618.1973,259.86025 C 619.78229,258.27528 612.35778,250.54179 605.25507,246.37933 C 598.64184,242.50369 597.61554,242.34241 590.68028,244.08873 C 583.00589,246.02117 559.14219,246.59214 554.85233,244.94597 C 553.52651,244.43721 549.67232,239.74149 546.28744,234.51106 C 540.62375,225.75928 539.66888,225.00117 534.30966,225.00117 L 528.48615,225.00117 L 526.44282,241.03514 C 524.54528,255.925 524.60537,257.29655 527.28506,260.25756 C 529.79501,263.03104 530.34952,263.12645 531.54481,260.99056 C 533.32054,257.81751 538.1807,257.84106 540.83193,261.03561 C 544.8887,265.92368 550.86646,267.73026 560.29297,266.917 C 567.68761,266.27906 572.70892,267.1428 586.2418,271.38066 L 603.02173,276.63537 L 603.07104,284.75135 C 603.1722,301.40465 606.04232,316.12694 610.8336,324.56951 C 617.23501,335.84918 620.50651,347.87684 621.53891,363.92719 C 622.8005,383.54102 620.90026,386.57842 601.42488,396.07775 C 593.08133,400.1474 578.12703,406.50737 568.19311,410.21099 L 550.13141,416.94485 L 535.94732,411.83031 C 528.14604,409.01728 520.90879,407.00053 519.86455,407.34861 C 518.82029,407.69667 524.74538,411.0445 533.03143,414.78817 C 545.69496,420.50964 548.42686,422.40787 550.16611,426.6941 C 551.3631,429.64392 552.80691,443.90908 553.59141,460.53665 C 555.2613,495.92943 558.07215,507.08637 568.91287,521.35035 C 576.80577,531.73565 575.86233,542.67695 566.66783,547.38675 C 563.38836,549.06665 557.83085,552.73845 554.31778,555.54635 C 536.49512,569.79125 513.21935,576.78285 502.83075,571.01185 L 502.83075,571.01195 z"
         id="path4729" />
      <g
         id="g4700"
         transform="translate(403.86731,-6.431347)">
        <path
           transform="matrix(0.7729803,0,0,0.7729803,280.641,84.005911)"
           d="M -130.9807,272.68826 A 61.538345,15.243443 0 1 1 -254.05739,272.68826 A 61.538345,15.243443 0 1 1 -130.9807,272.68826 z"
           sodipodi:ry="15.243443"
           sodipodi:rx="61.538345"
           sodipodi:cy="272.68826"
           sodipodi:cx="-192.51904"
           id="path4702"
           style="opacity:1;fill:#5557ff;fill-opacity:1;fill-rule:nonzero;stroke:#000000;stroke-width:2.5;stroke-linecap:butt;stroke-linejoin:round;stroke-miterlimit:4;stroke-dasharray:none;stroke-dashoffset:0;stroke-opacity:1"
           sodipodi:type="arc" />
        <path
           sodipodi:nodetypes="cccscccc"
           id="path4704"
           d="M 134.83249,333.63258 L 134.88239,306.13506 L 128.77274,306.13506 L 128.72284,333.63258 M 128.77274,353.1671 L 128.77274,362.35503 L 134.88239,362.35503 L 134.88239,352.69546"
           style="fill:#5557ff;fill-opacity:1;fill-rule:nonzero;stroke:#000000;stroke-width:1.93245089;stroke-linecap:butt;stroke-linejoin:round;stroke-miterlimit:4;stroke-dashoffset:0;stroke-opacity:1" />
        <path
           transform="matrix(0.7729803,0,0,0.7729803,280.641,76.587055)"
           d="M -130.9807,272.68826 A 61.538345,15.243443 0 1 1 -254.05739,272.68826 A 61.538345,15.243443 0 1 1 -130.9807,272.68826 z"
           sodipodi:ry="15.243443"
           sodipodi:rx="61.538345"
           sodipodi:cy="272.68826"
           sodipodi:cx="-192.51904"
           id="path4706"
           style="opacity:1;fill:#5557ff;fill-opacity:1;fill-rule:nonzero;stroke:#000000;stroke-width:2.5;stroke-linecap:butt;stroke-linejoin:round;stroke-miterlimit:4;stroke-dasharray:none;stroke-dashoffset:0;stroke-opacity:1"
           sodipodi:type="arc" />
        <path
           style="fill:#5557ff;fill-opacity:1;fill-rule:nonzero;stroke:#000000;stroke-width:1.93245089;stroke-linecap:butt;stroke-linejoin:round;stroke-miterlimit:4;stroke-dashoffset:0;stroke-opacity:1"
           d="M 134.88238,265.41712 L 134.88238,288.67895 L 128.77274,288.67895 L 128.77274,263.02184 M 128.77274,233.87932 L 128.77274,224.09129 L 134.88238,224.09129 L 134.88238,231.88326"
           id="path4708"
           sodipodi:nodetypes="cccccccc" />
      </g>
      <path
         sodipodi:nodetypes="cssssc"
         id="path4676"
         d="M 492.11566,221.25173 C 498.79514,230.33954 493.80307,228.09696 496.82381,231.08475 C 504.85675,239.0301 522.31857,244.5401 542.5505,244.5401 C 570.39053,244.5401 592.98534,234.10692 592.98534,221.25173 C 592.98534,208.39654 570.39053,197.96335 542.5505,197.96335 C 534.10941,197.96335 526.92969,198.76809 519.42799,200.55504"
         style="fill:none;fill-opacity:1;fill-rule:nonzero;stroke:#000000;stroke-width:1.73192072;stroke-linecap:butt;stroke-linejoin:round;marker-start:url(#Arrow1Lstart);stroke-miterlimit:4;stroke-dasharray:none;stroke-dashoffset:0;stroke-opacity:1" />
      <path
         sodipodi:nodetypes="cssssc"
         id="path4678"
         d="M 596.31337,83.384957 C 587.03317,95.723837 593.96895,92.678997 589.77206,96.735637 C 578.61142,107.52336 554.3507,115.00451 526.24129,115.00451 C 487.56151,115.00451 456.16922,100.83896 456.16922,83.384957 C 456.16922,65.930957 487.56151,51.765407 526.24129,51.765407 C 537.96899,51.765407 547.9442,52.858037 558.36675,55.284247"
         style="fill:none;fill-opacity:1;fill-rule:nonzero;stroke:#000000;stroke-width:2.37872028;stroke-linecap:butt;stroke-linejoin:round;marker-start:url(#Arrow1Lstart);stroke-miterlimit:4;stroke-dasharray:none;stroke-dashoffset:0;stroke-opacity:1" />
    </g>
  </g>
</svg>
