<?xml version="1.0" encoding="UTF-8" standalone="no"?>
<!-- Created with Inkscape (http://www.inkscape.org/) -->

<svg
   xmlns:dc="http://purl.org/dc/elements/1.1/"
   xmlns:cc="http://creativecommons.org/ns#"
   xmlns:rdf="http://www.w3.org/1999/02/22-rdf-syntax-ns#"
   xmlns:svg="http://www.w3.org/2000/svg"
   xmlns="http://www.w3.org/2000/svg"
   xmlns:sodipodi="http://sodipodi.sourceforge.net/DTD/sodipodi-0.dtd"
   xmlns:inkscape="http://www.inkscape.org/namespaces/inkscape"
   width="496.06299"
   height="184.93916"
   id="svg3244"
   version="1.1"
   inkscape:version="0.47 r22583"
   sodipodi:docname="schema_fuseau.svg">
  <defs
     id="defs3246">
    <inkscape:perspective
       sodipodi:type="inkscape:persp3d"
       inkscape:vp_x="0 : 526.18109 : 1"
       inkscape:vp_y="0 : 1000 : 0"
       inkscape:vp_z="744.09448 : 526.18109 : 1"
       inkscape:persp3d-origin="372.04724 : 350.78739 : 1"
       id="perspective3252" />
    <inkscape:perspective
       id="perspective3164"
       inkscape:persp3d-origin="0.5 : 0.33333333 : 1"
       inkscape:vp_z="1 : 0.5 : 1"
       inkscape:vp_y="0 : 1000 : 0"
       inkscape:vp_x="0 : 0.5 : 1"
       sodipodi:type="inkscape:persp3d" />
    <inkscape:perspective
       id="perspective3642"
       inkscape:persp3d-origin="0.5 : 0.33333333 : 1"
       inkscape:vp_z="1 : 0.5 : 1"
       inkscape:vp_y="0 : 1000 : 0"
       inkscape:vp_x="0 : 0.5 : 1"
       sodipodi:type="inkscape:persp3d" />
    <inkscape:perspective
       id="perspective3721"
       inkscape:persp3d-origin="0.5 : 0.33333333 : 1"
       inkscape:vp_z="1 : 0.5 : 1"
       inkscape:vp_y="0 : 1000 : 0"
       inkscape:vp_x="0 : 0.5 : 1"
       sodipodi:type="inkscape:persp3d" />
    <marker
       inkscape:stockid="Arrow1Lend"
       orient="auto"
       style="overflow:visible"
       refX="0"
       id="Arrow1Lend"
       refY="0">
      <path
         transform="matrix(-0.8,0,0,-0.8,-10,0)"
         d="M 0,0 5,-5 -12.5,0 5,5 0,0 z"
         style="fill-rule:evenodd;stroke:#000000;stroke-width:1pt;marker-start:none"
         id="path3028" />
    </marker>
    <marker
       inkscape:stockid="Arrow1Mend"
       orient="auto"
       style="overflow:visible"
       refX="0"
       id="Arrow1Mend"
       refY="0">
      <path
         transform="matrix(-0.4,0,0,-0.4,-4,0)"
         d="M 0,0 5,-5 -12.5,0 5,5 0,0 z"
         style="fill-rule:evenodd;stroke:#000000;stroke-width:1pt;marker-start:none"
         id="path3191-0" />
    </marker>
    <marker
       inkscape:stockid="Arrow1Lstart"
       orient="auto"
       style="overflow:visible"
       refX="0"
       id="Arrow1Lstart"
       refY="0">
      <path
         transform="matrix(0.8,0,0,0.8,10,0)"
         d="M 0,0 5,-5 -12.5,0 5,5 0,0 z"
         style="fill-rule:evenodd;stroke:#000000;stroke-width:1pt;marker-start:none"
         id="path3182" />
    </marker>
    <marker
       inkscape:stockid="Arrow2Lend"
       orient="auto"
       style="overflow:visible"
       refX="0"
       id="Arrow2Lend"
       refY="0">
      <path
         transform="matrix(-1.1,0,0,-1.1,-1.1,0)"
         d="M 8.7185878,4.0337352 -2.2072895,0.01601326 8.7185884,-4.0017078 c -1.7454984,2.3720609 -1.7354408,5.6174519 -6e-7,8.035443 z"
         style="font-size:12px;fill-rule:evenodd;stroke-width:0.625;stroke-linejoin:round"
         id="path3203-6" />
    </marker>
    <inkscape:perspective
       id="perspective5949"
       inkscape:persp3d-origin="248.03149 : 98.973612 : 1"
       inkscape:vp_z="496.06299 : 148.46042 : 1"
       inkscape:vp_y="0 : 1000 : 0"
       inkscape:vp_x="0 : 148.46042 : 1"
       sodipodi:type="inkscape:persp3d" />
    <inkscape:perspective
       id="perspective6729"
       inkscape:persp3d-origin="0.5 : 0.33333333 : 1"
       inkscape:vp_z="1 : 0.5 : 1"
       inkscape:vp_y="0 : 1000 : 0"
       inkscape:vp_x="0 : 0.5 : 1"
       sodipodi:type="inkscape:persp3d" />
    <inkscape:perspective
       id="perspective6751"
       inkscape:persp3d-origin="0.5 : 0.33333333 : 1"
       inkscape:vp_z="1 : 0.5 : 1"
       inkscape:vp_y="0 : 1000 : 0"
       inkscape:vp_x="0 : 0.5 : 1"
       sodipodi:type="inkscape:persp3d" />
    <inkscape:perspective
       id="perspective6776"
       inkscape:persp3d-origin="0.5 : 0.33333333 : 1"
       inkscape:vp_z="1 : 0.5 : 1"
       inkscape:vp_y="0 : 1000 : 0"
       inkscape:vp_x="0 : 0.5 : 1"
       sodipodi:type="inkscape:persp3d" />
    <inkscape:perspective
       id="perspective6803"
       inkscape:persp3d-origin="0.5 : 0.33333333 : 1"
       inkscape:vp_z="1 : 0.5 : 1"
       inkscape:vp_y="0 : 1000 : 0"
       inkscape:vp_x="0 : 0.5 : 1"
       sodipodi:type="inkscape:persp3d" />
    <inkscape:perspective
       id="perspective6825"
       inkscape:persp3d-origin="0.5 : 0.33333333 : 1"
       inkscape:vp_z="1 : 0.5 : 1"
       inkscape:vp_y="0 : 1000 : 0"
       inkscape:vp_x="0 : 0.5 : 1"
       sodipodi:type="inkscape:persp3d" />
    <inkscape:perspective
       id="perspective6850"
       inkscape:persp3d-origin="0.5 : 0.33333333 : 1"
       inkscape:vp_z="1 : 0.5 : 1"
       inkscape:vp_y="0 : 1000 : 0"
       inkscape:vp_x="0 : 0.5 : 1"
       sodipodi:type="inkscape:persp3d" />
    <inkscape:perspective
       id="perspective6889"
       inkscape:persp3d-origin="0.5 : 0.33333333 : 1"
       inkscape:vp_z="1 : 0.5 : 1"
       inkscape:vp_y="0 : 1000 : 0"
       inkscape:vp_x="0 : 0.5 : 1"
       sodipodi:type="inkscape:persp3d" />
    <inkscape:perspective
       id="perspective6911"
       inkscape:persp3d-origin="0.5 : 0.33333333 : 1"
       inkscape:vp_z="1 : 0.5 : 1"
       inkscape:vp_y="0 : 1000 : 0"
       inkscape:vp_x="0 : 0.5 : 1"
       sodipodi:type="inkscape:persp3d" />
    <inkscape:perspective
       id="perspective6933"
       inkscape:persp3d-origin="0.5 : 0.33333333 : 1"
       inkscape:vp_z="1 : 0.5 : 1"
       inkscape:vp_y="0 : 1000 : 0"
       inkscape:vp_x="0 : 0.5 : 1"
       sodipodi:type="inkscape:persp3d" />
    <inkscape:perspective
       id="perspective7753"
       inkscape:persp3d-origin="0.5 : 0.33333333 : 1"
       inkscape:vp_z="1 : 0.5 : 1"
       inkscape:vp_y="0 : 1000 : 0"
       inkscape:vp_x="0 : 0.5 : 1"
       sodipodi:type="inkscape:persp3d" />
    <inkscape:perspective
       id="perspective7802"
       inkscape:persp3d-origin="0.5 : 0.33333333 : 1"
       inkscape:vp_z="1 : 0.5 : 1"
       inkscape:vp_y="0 : 1000 : 0"
       inkscape:vp_x="0 : 0.5 : 1"
       sodipodi:type="inkscape:persp3d" />
    <inkscape:perspective
       id="perspective7832"
       inkscape:persp3d-origin="0.5 : 0.33333333 : 1"
       inkscape:vp_z="1 : 0.5 : 1"
       inkscape:vp_y="0 : 1000 : 0"
       inkscape:vp_x="0 : 0.5 : 1"
       sodipodi:type="inkscape:persp3d" />
    <inkscape:perspective
       id="perspective7861"
       inkscape:persp3d-origin="0.5 : 0.33333333 : 1"
       inkscape:vp_z="1 : 0.5 : 1"
       inkscape:vp_y="0 : 1000 : 0"
       inkscape:vp_x="0 : 0.5 : 1"
       sodipodi:type="inkscape:persp3d" />
    <inkscape:perspective
       id="perspective7861-2"
       inkscape:persp3d-origin="0.5 : 0.33333333 : 1"
       inkscape:vp_z="1 : 0.5 : 1"
       inkscape:vp_y="0 : 1000 : 0"
       inkscape:vp_x="0 : 0.5 : 1"
       sodipodi:type="inkscape:persp3d" />
    <inkscape:perspective
       id="perspective7907"
       inkscape:persp3d-origin="0.5 : 0.33333333 : 1"
       inkscape:vp_z="1 : 0.5 : 1"
       inkscape:vp_y="0 : 1000 : 0"
       inkscape:vp_x="0 : 0.5 : 1"
       sodipodi:type="inkscape:persp3d" />
    <inkscape:perspective
       id="perspective7953"
       inkscape:persp3d-origin="0.5 : 0.33333333 : 1"
       inkscape:vp_z="1 : 0.5 : 1"
       inkscape:vp_y="0 : 1000 : 0"
       inkscape:vp_x="0 : 0.5 : 1"
       sodipodi:type="inkscape:persp3d" />
    <inkscape:perspective
       id="perspective7994"
       inkscape:persp3d-origin="0.5 : 0.33333333 : 1"
       inkscape:vp_z="1 : 0.5 : 1"
       inkscape:vp_y="0 : 1000 : 0"
       inkscape:vp_x="0 : 0.5 : 1"
       sodipodi:type="inkscape:persp3d" />
  </defs>
  <sodipodi:namedview
     id="base"
     pagecolor="#ffffff"
     bordercolor="#666666"
     borderopacity="1.0"
     inkscape:pageopacity="0.0"
     inkscape:pageshadow="2"
     inkscape:zoom="0.98994949"
     inkscape:cx="331.92512"
     inkscape:cy="77.035942"
     inkscape:document-units="px"
     inkscape:current-layer="g6151"
     showgrid="false"
     units="cm"
     borderlayer="false"
     inkscape:window-width="1261"
     inkscape:window-height="617"
     inkscape:window-x="0"
     inkscape:window-y="25"
     inkscape:window-maximized="0" />
  <metadata
     id="metadata3249">
    <rdf:RDF>
      <cc:Work
         rdf:about="">
        <dc:format>image/svg+xml</dc:format>
        <dc:type
           rdf:resource="http://purl.org/dc/dcmitype/StillImage" />
        <dc:title></dc:title>
      </cc:Work>
    </rdf:RDF>
  </metadata>
  <g
     inkscape:label="Calque 1"
     inkscape:groupmode="layer"
     id="layer1"
     transform="translate(-23.068756,-126.79909)">
    <g
       id="g6151"
       transform="matrix(0.9167,0,0,0.9167,-126.22092,84.467033)">
      <path
         id="path2931"
         style="fill:#ff00ff;fill-opacity:1;fill-rule:nonzero;stroke:none;-inkscape-font-specification:FreeSans;font-family:FreeSans;font-weight:normal;font-style:normal;font-stretch:normal;font-variant:normal;font-size:13.09043308px;text-anchor:start;text-align:start;writing-mode:lr;line-height:125%"
         d="m 432.37099,85.9125 c 0.27875,5.77875 1.38625,11.68875 2.205,16.37125 1.1775,6.74 3.9825,14.22125 -2.9325,10.13375 -6.02125,4.30625 -2.59375,-3.1925 -2.215,-11.005 0.82875,-5.2075 0.99375,-10.7575 0.97875,-15.73625 1.63875,-16.3625 -3.6675,-16.86875 1.03,-16.67375 4.7775,0.19875 -0.33875,0.50875 0.93375,16.91" />
      <path
         id="path3191"
         style="fill:#ff00ff;fill-opacity:1;fill-rule:nonzero;stroke:none;-inkscape-font-specification:FreeSans;font-family:FreeSans;font-weight:normal;font-style:normal;font-stretch:normal;font-variant:normal;font-size:13.09043308px;text-anchor:start;text-align:start;writing-mode:lr;line-height:125%"
         d="m 434.36599,206.03375 c 0,-1.86625 1.2525,-22.1625 1.165,-30.3675 0,0 -0.10625,-4.27125 -0.195,-6.47125 -0.0888,-2.21 0.8325,-2.3675 0.8325,-2.3675 0.40375,0.19 1.3475,0.345 2.09625,0.345 1.35125,0 1.35875,0.007 1.12875,1.2625 -0.59125,3.22625 -0.7975,29.93125 -0.285,36.87 l 0.13125,1.76875 -2.4375,0.055 c -2.3825,0.055 -2.43625,0.0312 -2.43625,-1.095" />
      <path
         id="path3893-3-8-1"
         style="fill:none;stroke:#69b628;stroke-width:2.18173884999999990;stroke-linecap:round;stroke-linejoin:miter;stroke-miterlimit:4;stroke-opacity:1;stroke-dasharray:none;-inkscape-font-specification:FreeSans;font-family:FreeSans;font-weight:normal;font-style:normal;font-stretch:normal;font-variant:normal;font-size:13.09043308px;text-anchor:start;text-align:start;writing-mode:lr;line-height:125%"
         d="m 693.50099,171.44841 -83.09591,-4.99721 m -2.50764,3.01741 65.81188,61.31803 m -68.19437,-62.25743 60.30215,-53.2842"
         sodipodi:nodetypes="cccccc" />
      <path
         id="path3195"
         style="fill:none;stroke:#ff7c00;stroke-width:1.15999997000000010;stroke-linecap:butt;stroke-linejoin:miter;stroke-miterlimit:10;stroke-opacity:1;stroke-dasharray:none;-inkscape-font-specification:FreeSans;font-family:FreeSans;font-weight:normal;font-style:normal;font-stretch:normal;font-variant:normal;font-size:13.09043308px;text-anchor:start;text-align:start;writing-mode:lr;line-height:125%"
         d="m 602.95599,168.35125 c -72.6275,3.8 -160.5575,20.09125 -229.2325,11.39875 m 230.61875,-15.62125 c -72.6275,3.8 -154.2425,16.935 -229.2325,11.39875 m 228.585,-2.99875 c -72.6275,3.8 -161.47875,22.03875 -229.23375,11.39875 m 0.95,2.07625 c 62.4825,8.225 156.605,-7.59875 229.2325,-11.39875 m -229.0875,8.25125 c 69.225,6.28 156.605,-7.6 229.2325,-11.39875 m -228.9275,6.15 c 71.34875,3.77875 156.60625,-7.59875 229.23375,-11.39875 m -125.4475,7.57625 c -69.53,3.66 -159.87625,-0.2725 -228.24125,-4.89375 M 479.51724,177.98 c -68.365,4.00125 -159.87625,-0.27125 -228.24,-4.89375 m 228.78,8.24375 c -91.04875,2.86875 -160.6325,-0.4 -229.37625,-5.08625 m 2.4125,-1.09875 c 68.365,4.62125 162.3275,8.26125 228.24125,4.8925 m -229.6275,-0.67 c 68.365,4.62125 110.0475,10.26625 228.24125,4.8925 m -227.5925,-13.2925 c 68.36375,4.62125 154.195,8.93 228.24,4.89375 m -227.39375,-2.395 -3.25375,-0.15" />
      <path
         id="path3197"
         style="fill:#1927a6;stroke:#4761e7;stroke-width:1.15999997000000010;stroke-linecap:butt;stroke-linejoin:miter;stroke-miterlimit:10;stroke-opacity:1;stroke-dasharray:none;-inkscape-font-specification:FreeSans;font-family:FreeSans;font-weight:normal;font-style:normal;font-stretch:normal;font-variant:normal;font-size:13.09043308px;text-anchor:start;text-align:start;writing-mode:lr;line-height:125%"
         d="M 604.20974,169.5 461.82349,149.7475 M 604.36599,168.275 461.86724,145.29 M 604.98099,166.41625 462.71224,138.7075 m -64.63125,15.28 -147.8675,18.41375 m 148.095,-24.34875 -148.935,22.7375 m 148.40625,-34.35125 -147.6575,33.07375" />
      <path
         style="fill:none;stroke:#000000;stroke-width:1.09086942999999992;stroke-linecap:butt;stroke-linejoin:miter;stroke-miterlimit:4;stroke-opacity:1;stroke-dasharray:8.72695537999999971, 2.18173884999999990, 1.09086941999999998, 2.18173884999999990;stroke-dashoffset:0;-inkscape-font-specification:FreeSans;font-family:FreeSans;font-weight:normal;font-style:normal;font-stretch:normal;font-variant:normal;font-size:13.09043308px;text-anchor:start;text-align:start;writing-mode:lr;line-height:125%"
         d="m 432.27801,48.553102 0,165.967988"
         id="path7976"
         sodipodi:nodetypes="cc" />
      <path
         id="path3201"
         style="fill:#ff0000;fill-opacity:1;fill-rule:nonzero;stroke:none;-inkscape-font-specification:FreeSans;font-family:FreeSans;font-weight:normal;font-style:normal;font-stretch:normal;font-variant:normal;font-size:13.09043308px;text-anchor:start;text-align:start;writing-mode:lr;line-height:125%"
         d="m 601.98849,168.9025 c 0,7.39875 -9.2725,13.40375 -2.92,13.40375 6.35375,0 11.50875,-6.005 11.50875,-13.40375 0,-7.39875 -5.155,-13.40375 -11.50875,-13.40375 -6.3525,0 2.92,6.005 2.92,13.40375" />
      <path
         id="path3203"
         style="fill:#cccccc;fill-opacity:1;fill-rule:evenodd;stroke:none;-inkscape-font-specification:FreeSans;font-family:FreeSans;font-weight:normal;font-style:normal;font-stretch:normal;font-variant:normal;font-size:13.09043308px;text-anchor:start;text-align:start;writing-mode:lr;line-height:125%"
         d="m 407.30099,142.7275 c -2.70125,-18.91375 27.685,-39.2925 15.24875,-67.36875 -2.53875,-5.73 -2.8775,-9.5825 3.09,-7.5025 5.44375,1.01625 5.29875,8.24 5.27875,16.565 -0.10625,44.85625 -9.45,33.05875 -17.4575,56.26 -1.47125,4.26125 -1.6275,6.465 0.13,12.75625 9.40625,7.91375 18.945,9.0625 21.36125,16.095 1.4975,4.36 1.9775,37.2175 -2.365,41.1 -5.83625,5.21875 -5.92625,2.2125 -3.87875,-5.38 9.4025,-34.87375 -11.25,-41.44 -21.3875,-49.415" />
      <path
         id="path3205"
         style="fill:#cccccc;fill-opacity:1;fill-rule:evenodd;stroke:none;-inkscape-font-specification:FreeSans;font-family:FreeSans;font-weight:normal;font-style:normal;font-stretch:normal;font-variant:normal;font-size:13.09043308px;text-anchor:start;text-align:start;writing-mode:lr;line-height:125%"
         d="m 453.07599,134.2375 c 1.795,-18.6775 -24.7025,-28.94625 -13.6225,-57.11625 2.2625,-5.74875 3.68875,-11.125 -2.1725,-8.77 -5.105,1.67875 -5.01375,8.66875 -4.8075,14.07375 1.5525,40.545 10.9325,30.75875 14.24125,50.3625 1.6475,5.8375 5.32375,21.87125 -0.425,25.74125 -3.4125,8.62125 -4.88875,3.13125 -6.9525,10.15375 -1.30125,4.3475 -2.21,39.12875 1.1525,42.87375 4.97,5.95125 6.17375,-1.81 5.315,-9.485 -4.39875,-39.32625 7.66625,-37.70875 6.94625,-42.6825" />
      <path
         id="path3207"
         style="fill:#000000;fill-opacity:1;fill-rule:nonzero;stroke:none;-inkscape-font-specification:FreeSans;font-family:FreeSans;font-weight:normal;font-style:normal;font-stretch:normal;font-variant:normal;font-size:13.09043308px;text-anchor:start;text-align:start;writing-mode:lr;line-height:125%"
         d="m 268.63099,144.5925 1.0725,-0.095 c 0.0512,0.43 0.1675,0.78375 0.35125,1.06125 0.1875,0.27375 0.47625,0.49625 0.8675,0.6675 0.39,0.16875 0.83,0.2525 1.31875,0.2525 0.43375,0 0.81625,-0.065 1.1475,-0.19375 0.3325,-0.12875 0.57875,-0.305 0.73875,-0.5275 0.16375,-0.22625 0.24625,-0.4725 0.24625,-0.7375 0,-0.27 -0.0787,-0.50375 -0.235,-0.70375 -0.15625,-0.2025 -0.41375,-0.3725 -0.7725,-0.51 -0.23125,-0.09 -0.74,-0.2275 -1.53,-0.415 -0.78875,-0.1925 -1.34125,-0.37125 -1.6575,-0.54 -0.41,-0.215 -0.7175,-0.48 -0.92,-0.79625 -0.2,-0.32 -0.29875,-0.6775 -0.29875,-1.0725 0,-0.43375 0.1225,-0.8375 0.36875,-1.2125 0.24625,-0.37875 0.605,-0.66625 1.07875,-0.86125 0.4725,-0.19625 0.9975,-0.29375 1.575,-0.29375 0.6375,0 1.1975,0.10375 1.6825,0.31125 0.4875,0.2025 0.8625,0.50375 1.125,0.9025 0.26125,0.3975 0.4025,0.84875 0.42125,1.3525 l -1.09,0.0825 c -0.0587,-0.5425 -0.2575,-0.95375 -0.5975,-1.23 -0.33625,-0.2775 -0.83375,-0.41625 -1.49375,-0.41625 -0.6875,0 -1.19,0.12625 -1.50625,0.38 -0.3125,0.25125 -0.46875,0.55375 -0.46875,0.90875 0,0.30875 0.11125,0.5625 0.33375,0.76125 0.21875,0.2 0.79,0.405 1.71125,0.61625 0.92625,0.20625 1.56125,0.38875 1.905,0.54375 0.5,0.23125 0.86875,0.52375 1.1075,0.88 0.2375,0.35125 0.35625,0.7575 0.35625,1.21875 0,0.45625 -0.13,0.88875 -0.3925,1.295 -0.26125,0.4025 -0.63875,0.71625 -1.13,0.9425 -0.48875,0.2225 -1.03875,0.33375 -1.6525,0.33375 -0.7775,0 -1.43,-0.1125 -1.9575,-0.33875 -0.5225,-0.2275 -0.935,-0.5675 -1.23625,-1.02 -0.29625,-0.4575 -0.4525,-0.9725 -0.46875,-1.54625" />
      <path
         id="path3209"
         style="fill:#000000;fill-opacity:1;fill-rule:nonzero;stroke:none;-inkscape-font-specification:FreeSans;font-family:FreeSans;font-weight:normal;font-style:normal;font-stretch:normal;font-variant:normal;font-size:13.09043308px;text-anchor:start;text-align:start;writing-mode:lr;line-height:125%"
         d="m 277.00974,147.35125 0,-8.59 3.24,0 c 0.57125,0 1.00625,0.0275 1.3075,0.0825 0.42125,0.07 0.775,0.205 1.06,0.40375 0.285,0.19625 0.51375,0.47125 0.68625,0.82625 0.175,0.35625 0.26375,0.74625 0.26375,1.1725 0,0.73 -0.2325,1.35 -0.6975,1.8575 -0.465,0.50375 -1.305,0.75625 -2.52,0.75625 l -2.2025,0 0,3.49125 -1.1375,0 m 1.1375,-4.505 2.22,0 c 0.735,0 1.25625,-0.1375 1.565,-0.41125 0.30875,-0.2725 0.4625,-0.6575 0.4625,-1.15375 0,-0.35875 -0.0913,-0.66625 -0.275,-0.92 -0.18,-0.2575 -0.41875,-0.4275 -0.715,-0.51 -0.19125,-0.05 -0.545,-0.0762 -1.06125,-0.0762 l -2.19625,0 0,3.07125" />
      <path
         id="path3211"
         style="fill:#000000;fill-opacity:1;fill-rule:nonzero;stroke:none;-inkscape-font-specification:FreeSans;font-family:FreeSans;font-weight:normal;font-style:normal;font-stretch:normal;font-variant:normal;font-size:13.09043308px;text-anchor:start;text-align:start;writing-mode:lr;line-height:125%"
         d="m 284.95599,147.35125 0,-8.59 3.2225,0 c 0.65625,0 1.18125,0.0888 1.57625,0.26375 0.3975,0.1725 0.70875,0.44 0.93125,0.80375 0.22625,0.35875 0.34,0.73625 0.34,1.13 0,0.3675 -0.1,0.71375 -0.29875,1.0375 -0.2,0.32375 -0.5,0.58625 -0.9025,0.785 0.52,0.1525 0.9175,0.4125 1.195,0.77875 0.28125,0.3675 0.4225,0.80125 0.4225,1.30125 0,0.4025 -0.0863,0.7775 -0.25875,1.125 -0.1675,0.34375 -0.37625,0.61 -0.62625,0.7975 -0.25,0.1875 -0.565,0.33 -0.94375,0.4275 -0.375,0.0937 -0.83625,0.14 -1.3825,0.14 l -3.275,0 m 1.13625,-4.98 1.8575,0 c 0.50375,0 0.865,-0.0337 1.08375,-0.1 0.28875,-0.0863 0.50625,-0.22875 0.65,-0.4275 0.14875,-0.19875 0.2225,-0.44875 0.2225,-0.75 0,-0.285 -0.0675,-0.535 -0.205,-0.75 -0.13625,-0.21875 -0.33125,-0.3675 -0.585,-0.445 -0.25375,-0.0825 -0.69,-0.12375 -1.3075,-0.12375 l -1.71625,0 0,2.59625 m 0,3.96625 2.13875,0 c 0.3675,0 0.625,-0.0138 0.77375,-0.04 0.26125,-0.0475 0.48,-0.125 0.65625,-0.235 0.175,-0.10875 0.32,-0.2675 0.43375,-0.475 0.1125,-0.21 0.16875,-0.4525 0.16875,-0.72625 0,-0.32 -0.0813,-0.5975 -0.245,-0.8325 -0.165,-0.2375 -0.39375,-0.40375 -0.68625,-0.4975 -0.28875,-0.0975 -0.70625,-0.14625 -1.25375,-0.14625 l -1.98625,0 0,2.9525" />
      <path
         id="path3323"
         style="fill:none;stroke:#000000;stroke-width:1;stroke-linecap:butt;stroke-linejoin:miter;stroke-miterlimit:10;stroke-opacity:1;stroke-dasharray:none;-inkscape-font-specification:FreeSans;font-family:FreeSans;font-weight:normal;font-style:normal;font-stretch:normal;font-variant:normal;font-size:13.09043308px;text-anchor:start;text-align:start;writing-mode:lr;line-height:125%"
         d="M 477.21743,103.878 463.29224,137.24"
         sodipodi:nodetypes="cc" />
      <path
         id="path3325"
         style="fill:none;stroke:#000000;stroke-width:0.99250006999999996;stroke-linecap:butt;stroke-linejoin:miter;stroke-miterlimit:10;stroke-opacity:1;stroke-dasharray:none;-inkscape-font-specification:FreeSans;font-family:FreeSans;font-weight:normal;font-style:normal;font-stretch:normal;font-variant:normal;font-size:13.09043308px;text-anchor:start;text-align:start;writing-mode:lr;line-height:125%"
         d="m 546.12474,134.21 -27.27375,11.11125 m 21.57,57.93625 -3.25375,-20.7725" />
      <path
         id="path3327"
         style="fill:none;stroke:#000000;stroke-width:1;stroke-linecap:butt;stroke-linejoin:miter;stroke-miterlimit:10;stroke-opacity:1;stroke-dasharray:none;-inkscape-font-specification:FreeSans;font-family:FreeSans;font-weight:normal;font-style:normal;font-stretch:normal;font-variant:normal;font-size:13.09043308px;text-anchor:start;text-align:start;writing-mode:lr;line-height:125%"
         d="m 263.28224,145.32125 -8.08125,14.1425" />
      <path
         id="path3329"
         style="fill:#ab37c8;fill-opacity:1;fill-rule:evenodd;stroke:none;-inkscape-font-specification:FreeSans;font-family:FreeSans;font-weight:normal;font-style:normal;font-stretch:normal;font-variant:normal;font-size:13.09043308px;text-anchor:start;text-align:start;writing-mode:lr;line-height:125%"
         d="m 456.91974,136.62875 c 0.8825,1.125 0.43875,1.7225 0.43875,1.7225 l 0.22375,1.69875 -0.0838,2.0075 c 0,0 3.48375,-0.69125 3.96625,-0.71875 0.4825,-0.0275 1.795,0.004 2.3625,0 0.5675,-0.002 1.17625,0.1325 1.42125,-0.0163 0.245,-0.1475 0.2675,-0.23625 0.23875,-0.4075 -0.0275,-0.17125 -0.002,-0.15 -0.4925,-0.4075 -0.49125,-0.25875 -4.17875,-0.26625 -4.6525,-0.6 -0.4725,-0.335 -0.8325,-0.5925 -0.8325,-0.69125 0,-0.0975 -0.0275,-0.56375 0.44,-1.1675 0.4675,-0.605 5.73,-0.7925 5.63625,-1.56 -0.095,-0.76625 -0.1575,-0.6075 -1.19,-0.69625 -1.0325,-0.0887 -6.44875,0.735 -6.44875,0.735 l -1.0275,0.10125" />
      <path
         id="path3331"
         style="fill:none;stroke:none;-inkscape-font-specification:FreeSans;font-family:FreeSans;font-weight:normal;font-style:normal;font-stretch:normal;font-variant:normal;font-size:13.09043308px;text-anchor:start;text-align:start;writing-mode:lr;line-height:125%"
         d="m 456.91974,136.62875 c 0.8825,1.125 0.43875,1.7225 0.43875,1.7225 l 0.22375,1.69875 -0.0838,2.0075 c 0,0 3.48375,-0.69125 3.96625,-0.71875 0.4825,-0.0275 1.795,0.004 2.3625,0 0.5675,-0.002 1.17625,0.1325 1.42125,-0.0163 0.245,-0.1475 0.2675,-0.23625 0.23875,-0.4075 -0.0275,-0.17125 -0.002,-0.15 -0.4925,-0.4075 -0.49125,-0.25875 -4.17875,-0.26625 -4.6525,-0.6 -0.4725,-0.335 -0.8325,-0.5925 -0.8325,-0.69125 0,-0.0975 -0.0275,-0.56375 0.44,-1.1675 0.4675,-0.605 5.73,-0.7925 5.63625,-1.56 -0.095,-0.76625 -0.1575,-0.6075 -1.19,-0.69625 -1.0325,-0.0887 -6.44875,0.735 -6.44875,0.735 l -1.0275,0.10125 z" />
      <path
         id="path3333"
         style="fill:#ab37c8;fill-opacity:1;fill-rule:evenodd;stroke:none;-inkscape-font-specification:FreeSans;font-family:FreeSans;font-weight:normal;font-style:normal;font-stretch:normal;font-variant:normal;font-size:13.09043308px;text-anchor:start;text-align:start;writing-mode:lr;line-height:125%"
         d="m 457.59599,142.07375 c 0.325,1.2 0.21,2.13625 0.21,2.13625 l 0.025,1.24625 0.09,1.24625 c 0,0 1.95875,0.16875 2.88625,0.1875 0.92625,0.02 2.64625,-0.0425 3.28625,-0.075 0.63875,-0.0312 0.765,0.0712 0.9775,-0.075 0.21375,-0.14625 0.3725,-0.46125 0.17625,-0.6925 -0.19625,-0.2325 -0.73,-0.19375 -1.455,-0.28125 -0.725,-0.0875 -2.865,0.15625 -3.3875,-0.16875 -0.52125,-0.32625 -0.2575,-0.59 -0.275,-0.825 -0.0188,-0.235 -0.20625,-0.49 0.125,-0.7125 0.33125,-0.2225 1.34875,0.0213 2.0075,-0.0362 0.6575,-0.0588 1.92625,-0.12875 2.3575,-0.375 0.43125,-0.2475 0.56375,-0.5625 0.5525,-0.80625 -0.0125,-0.24375 -0.25125,-0.4875 -0.5025,-0.61875 -0.25125,-0.13 -0.18375,-0.1 -1.05375,-0.15 -0.87,-0.0487 -3.73625,0.0337 -4.64125,0 -0.90375,-0.0337 -1.37875,0 -1.37875,0" />
      <path
         id="path3335"
         style="fill:none;stroke:none;-inkscape-font-specification:FreeSans;font-family:FreeSans;font-weight:normal;font-style:normal;font-stretch:normal;font-variant:normal;font-size:13.09043308px;text-anchor:start;text-align:start;writing-mode:lr;line-height:125%"
         d="m 457.59599,142.07375 c 0.325,1.2 0.21,2.13625 0.21,2.13625 l 0.025,1.24625 0.09,1.24625 c 0,0 1.95875,0.16875 2.88625,0.1875 0.92625,0.02 2.64625,-0.0425 3.28625,-0.075 0.63875,-0.0312 0.765,0.0712 0.9775,-0.075 0.21375,-0.14625 0.3725,-0.46125 0.17625,-0.6925 -0.19625,-0.2325 -0.73,-0.19375 -1.455,-0.28125 -0.725,-0.0875 -2.865,0.15625 -3.3875,-0.16875 -0.52125,-0.32625 -0.2575,-0.59 -0.275,-0.825 -0.0188,-0.235 -0.20625,-0.49 0.125,-0.7125 0.33125,-0.2225 1.34875,0.0213 2.0075,-0.0362 0.6575,-0.0588 1.92625,-0.12875 2.3575,-0.375 0.43125,-0.2475 0.56375,-0.5625 0.5525,-0.80625 -0.0125,-0.24375 -0.25125,-0.4875 -0.5025,-0.61875 -0.25125,-0.13 -0.18375,-0.1 -1.05375,-0.15 -0.87,-0.0487 -3.73625,0.0337 -4.64125,0 -0.90375,-0.0337 -1.37875,0 -1.37875,0 z" />
      <path
         id="path3337"
         style="fill:#ab37c8;fill-opacity:1;fill-rule:evenodd;stroke:none;-inkscape-font-specification:FreeSans;font-family:FreeSans;font-weight:normal;font-style:normal;font-stretch:normal;font-variant:normal;font-size:13.09043308px;text-anchor:start;text-align:start;writing-mode:lr;line-height:125%"
         d="m 458.06724,147.53625 c 0,0 5.52875,-0.10875 6.36875,-0.0787 0.84,0.0312 1.12125,-0.0775 1.39125,0.0588 0.26875,0.13625 0.28125,0.37875 0.3275,0.5225 0.0463,0.14375 0.11,0.23625 0.02,0.4075 -0.09,0.17125 -0.0987,0.39875 -0.7725,0.58125 -0.675,0.1825 -4.2325,-0.6275 -4.91,-0.42375 -0.6775,0.20375 -0.69,0.34125 -0.8275,0.56125 -0.13625,0.22 0.38875,0.74 0.70875,1.10375 0.32,0.36375 2.575,0.35875 3.23125,0.41625 0.6575,0.0575 1.19,-0.0913 1.52625,-0.015 0.3375,0.0775 0.61,0.11 0.67625,0.34875 0.0662,0.24 0.0775,0.5175 -0.715,0.8575 -0.79125,0.34125 -3.72,0.235 -4.7325,0.1025 -1.0125,-0.13375 -1.97,-0.5825 -1.97,-0.5825 l -0.38625,-0.29 0.0525,-1.61375 -0.135,-0.90625 0.14625,-1.05" />
      <path
         id="path3339"
         style="fill:none;stroke:none;-inkscape-font-specification:FreeSans;font-family:FreeSans;font-weight:normal;font-style:normal;font-stretch:normal;font-variant:normal;font-size:13.09043308px;text-anchor:start;text-align:start;writing-mode:lr;line-height:125%"
         d="m 458.06724,147.53625 c 0,0 5.52875,-0.10875 6.36875,-0.0787 0.84,0.0312 1.12125,-0.0775 1.39125,0.0588 0.26875,0.13625 0.28125,0.37875 0.3275,0.5225 0.0463,0.14375 0.11,0.23625 0.02,0.4075 -0.09,0.17125 -0.0987,0.39875 -0.7725,0.58125 -0.675,0.1825 -4.2325,-0.6275 -4.91,-0.42375 -0.6775,0.20375 -0.69,0.34125 -0.8275,0.56125 -0.13625,0.22 0.38875,0.74 0.70875,1.10375 0.32,0.36375 2.575,0.35875 3.23125,0.41625 0.6575,0.0575 1.19,-0.0913 1.52625,-0.015 0.3375,0.0775 0.61,0.11 0.67625,0.34875 0.0662,0.24 0.0775,0.5175 -0.715,0.8575 -0.79125,0.34125 -3.72,0.235 -4.7325,0.1025 -1.0125,-0.13375 -1.97,-0.5825 -1.97,-0.5825 l -0.38625,-0.29 0.0525,-1.61375 -0.135,-0.90625 0.14625,-1.05 z" />
      <path
         id="path3341"
         style="fill:#ab37c8;fill-opacity:1;fill-rule:evenodd;stroke:none;-inkscape-font-specification:FreeSans;font-family:FreeSans;font-weight:normal;font-style:normal;font-stretch:normal;font-variant:normal;font-size:13.09043308px;text-anchor:start;text-align:start;writing-mode:lr;line-height:125%"
         d="m 458.07974,153.61125 c 0,0 4.115,0.1275 5.20625,0.15875 1.09125,0.0312 1.72,-0.105 2.06875,0.0337 0.35,0.13875 0.36625,0.38625 0.42625,0.53375 0.0612,0.14625 0.1425,0.23875 0.0263,0.41375 -0.1175,0.175 -0.1275,0.40625 -1.00375,0.5925 -0.87625,0.18625 -3.23125,0.145 -4.11,0.35375 -0.88,0.2075 -1.70125,0.14625 -1.87875,0.37 -0.17875,0.225 -0.44125,0.4475 -0.0263,0.81875 0.415,0.37 2.8275,0.0863 3.68125,0.145 0.85375,0.0588 1.545,-0.0925 1.9825,-0.015 0.4375,0.0787 0.7925,0.11125 0.8775,0.355 0.0863,0.24375 0.1,0.5275 -0.9275,0.87375 -1.02875,0.3475 -4.8325,0.23875 -6.1475,0.10375 -1.31375,-0.135 -0.295,-0.145 -0.295,-0.145 l -0.175,-0.63125 -0.0975,-1.755 0.0412,-1.39125 0.35125,-0.815" />
      <path
         id="path3343"
         style="fill:none;stroke:none;-inkscape-font-specification:FreeSans;font-family:FreeSans;font-weight:normal;font-style:normal;font-stretch:normal;font-variant:normal;font-size:13.09043308px;text-anchor:start;text-align:start;writing-mode:lr;line-height:125%"
         d="m 458.07974,153.61125 c 0,0 4.115,0.1275 5.20625,0.15875 1.09125,0.0312 1.72,-0.105 2.06875,0.0337 0.35,0.13875 0.36625,0.38625 0.42625,0.53375 0.0612,0.14625 0.1425,0.23875 0.0263,0.41375 -0.1175,0.175 -0.1275,0.40625 -1.00375,0.5925 -0.87625,0.18625 -3.23125,0.145 -4.11,0.35375 -0.88,0.2075 -1.70125,0.14625 -1.87875,0.37 -0.17875,0.225 -0.44125,0.4475 -0.0263,0.81875 0.415,0.37 2.8275,0.0863 3.68125,0.145 0.85375,0.0588 1.545,-0.0925 1.9825,-0.015 0.4375,0.0787 0.7925,0.11125 0.8775,0.355 0.0863,0.24375 0.1,0.5275 -0.9275,0.87375 -1.02875,0.3475 -4.8325,0.23875 -6.1475,0.10375 -1.31375,-0.135 -0.295,-0.145 -0.295,-0.145 l -0.175,-0.63125 -0.0975,-1.755 0.0412,-1.39125 0.35125,-0.815 z" />
      <path
         id="path3345"
         style="fill:#55d400;fill-opacity:1;fill-rule:evenodd;stroke:none;-inkscape-font-specification:FreeSans;font-family:FreeSans;font-weight:normal;font-style:normal;font-stretch:normal;font-variant:normal;font-size:13.09043308px;text-anchor:start;text-align:start;writing-mode:lr;line-height:125%"
         d="m 454.94099,136.4525 c 0,0 1.02625,-0.50125 2.2575,0.47375 1.23,0.97375 0.37875,2.27875 0.53875,5.0925 0.15875,2.81375 0.35625,11.1525 0.1075,13.67 -0.24875,2.5175 0.14,2.53875 -0.64625,3.1275 -0.7875,0.58875 -2.14125,0.9425 -3.23375,0.17875 -1.09125,-0.76375 -0.375,-2.24875 -0.64625,-5.1825 -0.27,-2.93375 -0.8825,-9.32625 -0.32375,-11.8825 0.56,-2.5575 0.365,-4.41625 0.365,-4.41625" />
      <path
         id="path3347"
         style="fill:none;stroke:none;-inkscape-font-specification:FreeSans;font-family:FreeSans;font-weight:normal;font-style:normal;font-stretch:normal;font-variant:normal;font-size:13.09043308px;text-anchor:start;text-align:start;writing-mode:lr;line-height:125%"
         d="m 454.94099,136.4525 c 0,0 1.02625,-0.50125 2.2575,0.47375 1.23,0.97375 0.37875,2.27875 0.53875,5.0925 0.15875,2.81375 0.35625,11.1525 0.1075,13.67 -0.24875,2.5175 0.14,2.53875 -0.64625,3.1275 -0.7875,0.58875 -2.14125,0.9425 -3.23375,0.17875 -1.09125,-0.76375 -0.375,-2.24875 -0.64625,-5.1825 -0.27,-2.93375 -0.8825,-9.32625 -0.32375,-11.8825 0.56,-2.5575 0.365,-4.41625 0.365,-4.41625" />
      <path
         id="path3349"
         style="fill:#ab37c8;fill-opacity:1;fill-rule:evenodd;stroke:none;-inkscape-font-specification:FreeSans;font-family:FreeSans;font-weight:normal;font-style:normal;font-stretch:normal;font-variant:normal;font-size:13.09043308px;text-anchor:start;text-align:start;writing-mode:lr;line-height:125%"
         d="m 456.91974,136.62875 c 0.8825,1.125 0.43875,1.7225 0.43875,1.7225 l 0.22375,1.69875 -0.0838,2.0075 c 0,0 3.48375,-0.69125 3.96625,-0.71875 0.4825,-0.0275 1.795,0.004 2.3625,0 0.5675,-0.002 1.17625,0.1325 1.42125,-0.0163 0.245,-0.1475 0.2675,-0.23625 0.23875,-0.4075 -0.0275,-0.17125 -0.002,-0.15 -0.4925,-0.4075 -0.49125,-0.25875 -4.17875,-0.26625 -4.6525,-0.6 -0.4725,-0.335 -0.8325,-0.5925 -0.8325,-0.69125 0,-0.0975 -0.0275,-0.56375 0.44,-1.1675 0.4675,-0.605 5.73,-0.7925 5.63625,-1.56 -0.095,-0.76625 -0.1575,-0.6075 -1.19,-0.69625 -1.0325,-0.0887 -6.44875,0.735 -6.44875,0.735 l -1.0275,0.10125" />
      <path
         id="path3351"
         style="fill:none;stroke:none;-inkscape-font-specification:FreeSans;font-family:FreeSans;font-weight:normal;font-style:normal;font-stretch:normal;font-variant:normal;font-size:13.09043308px;text-anchor:start;text-align:start;writing-mode:lr;line-height:125%"
         d="m 456.91974,136.62875 c 0.8825,1.125 0.43875,1.7225 0.43875,1.7225 l 0.22375,1.69875 -0.0838,2.0075 c 0,0 3.48375,-0.69125 3.96625,-0.71875 0.4825,-0.0275 1.795,0.004 2.3625,0 0.5675,-0.002 1.17625,0.1325 1.42125,-0.0163 0.245,-0.1475 0.2675,-0.23625 0.23875,-0.4075 -0.0275,-0.17125 -0.002,-0.15 -0.4925,-0.4075 -0.49125,-0.25875 -4.17875,-0.26625 -4.6525,-0.6 -0.4725,-0.335 -0.8325,-0.5925 -0.8325,-0.69125 0,-0.0975 -0.0275,-0.56375 0.44,-1.1675 0.4675,-0.605 5.73,-0.7925 5.63625,-1.56 -0.095,-0.76625 -0.1575,-0.6075 -1.19,-0.69625 -1.0325,-0.0887 -6.44875,0.735 -6.44875,0.735 l -1.0275,0.10125 z" />
      <path
         id="path3353"
         style="fill:#ab37c8;fill-opacity:1;fill-rule:evenodd;stroke:none;-inkscape-font-specification:FreeSans;font-family:FreeSans;font-weight:normal;font-style:normal;font-stretch:normal;font-variant:normal;font-size:13.09043308px;text-anchor:start;text-align:start;writing-mode:lr;line-height:125%"
         d="m 457.59599,142.07375 c 0.325,1.2 0.21,2.13625 0.21,2.13625 l 0.025,1.24625 0.09,1.24625 c 0,0 1.95875,0.16875 2.88625,0.1875 0.92625,0.02 2.64625,-0.0425 3.28625,-0.075 0.63875,-0.0312 0.765,0.0712 0.9775,-0.075 0.21375,-0.14625 0.3725,-0.46125 0.17625,-0.6925 -0.19625,-0.2325 -0.73,-0.19375 -1.455,-0.28125 -0.725,-0.0875 -2.865,0.15625 -3.3875,-0.16875 -0.52125,-0.32625 -0.2575,-0.59 -0.275,-0.825 -0.0188,-0.235 -0.20625,-0.49 0.125,-0.7125 0.33125,-0.2225 1.34875,0.0213 2.0075,-0.0362 0.6575,-0.0588 1.92625,-0.12875 2.3575,-0.375 0.43125,-0.2475 0.56375,-0.5625 0.5525,-0.80625 -0.0125,-0.24375 -0.25125,-0.4875 -0.5025,-0.61875 -0.25125,-0.13 -0.18375,-0.1 -1.05375,-0.15 -0.87,-0.0487 -3.73625,0.0337 -4.64125,0 -0.90375,-0.0337 -1.37875,0 -1.37875,0" />
      <path
         id="path3355"
         style="fill:none;stroke:none;-inkscape-font-specification:FreeSans;font-family:FreeSans;font-weight:normal;font-style:normal;font-stretch:normal;font-variant:normal;font-size:13.09043308px;text-anchor:start;text-align:start;writing-mode:lr;line-height:125%"
         d="m 457.59599,142.07375 c 0.325,1.2 0.21,2.13625 0.21,2.13625 l 0.025,1.24625 0.09,1.24625 c 0,0 1.95875,0.16875 2.88625,0.1875 0.92625,0.02 2.64625,-0.0425 3.28625,-0.075 0.63875,-0.0312 0.765,0.0712 0.9775,-0.075 0.21375,-0.14625 0.3725,-0.46125 0.17625,-0.6925 -0.19625,-0.2325 -0.73,-0.19375 -1.455,-0.28125 -0.725,-0.0875 -2.865,0.15625 -3.3875,-0.16875 -0.52125,-0.32625 -0.2575,-0.59 -0.275,-0.825 -0.0188,-0.235 -0.20625,-0.49 0.125,-0.7125 0.33125,-0.2225 1.34875,0.0213 2.0075,-0.0362 0.6575,-0.0588 1.92625,-0.12875 2.3575,-0.375 0.43125,-0.2475 0.56375,-0.5625 0.5525,-0.80625 -0.0125,-0.24375 -0.25125,-0.4875 -0.5025,-0.61875 -0.25125,-0.13 -0.18375,-0.1 -1.05375,-0.15 -0.87,-0.0487 -3.73625,0.0337 -4.64125,0 -0.90375,-0.0337 -1.37875,0 -1.37875,0 z" />
      <path
         id="path3357"
         style="fill:#ab37c8;fill-opacity:1;fill-rule:evenodd;stroke:none;-inkscape-font-specification:FreeSans;font-family:FreeSans;font-weight:normal;font-style:normal;font-stretch:normal;font-variant:normal;font-size:13.09043308px;text-anchor:start;text-align:start;writing-mode:lr;line-height:125%"
         d="m 458.06724,147.53625 c 0,0 5.52875,-0.10875 6.36875,-0.0787 0.84,0.0312 1.12125,-0.0775 1.39125,0.0588 0.26875,0.13625 0.28125,0.37875 0.3275,0.5225 0.0463,0.14375 0.11,0.23625 0.02,0.4075 -0.09,0.17125 -0.0987,0.39875 -0.7725,0.58125 -0.675,0.1825 -4.2325,-0.6275 -4.91,-0.42375 -0.6775,0.20375 -0.69,0.34125 -0.8275,0.56125 -0.13625,0.22 0.38875,0.74 0.70875,1.10375 0.32,0.36375 2.575,0.35875 3.23125,0.41625 0.6575,0.0575 1.19,-0.0913 1.52625,-0.015 0.3375,0.0775 0.61,0.11 0.67625,0.34875 0.0662,0.24 0.0775,0.5175 -0.715,0.8575 -0.79125,0.34125 -3.72,0.235 -4.7325,0.1025 -1.0125,-0.13375 -1.97,-0.5825 -1.97,-0.5825 l -0.38625,-0.29 0.0525,-1.61375 -0.135,-0.90625 0.14625,-1.05" />
      <path
         id="path3359"
         style="fill:none;stroke:none;-inkscape-font-specification:FreeSans;font-family:FreeSans;font-weight:normal;font-style:normal;font-stretch:normal;font-variant:normal;font-size:13.09043308px;text-anchor:start;text-align:start;writing-mode:lr;line-height:125%"
         d="m 458.06724,147.53625 c 0,0 5.52875,-0.10875 6.36875,-0.0787 0.84,0.0312 1.12125,-0.0775 1.39125,0.0588 0.26875,0.13625 0.28125,0.37875 0.3275,0.5225 0.0463,0.14375 0.11,0.23625 0.02,0.4075 -0.09,0.17125 -0.0987,0.39875 -0.7725,0.58125 -0.675,0.1825 -4.2325,-0.6275 -4.91,-0.42375 -0.6775,0.20375 -0.69,0.34125 -0.8275,0.56125 -0.13625,0.22 0.38875,0.74 0.70875,1.10375 0.32,0.36375 2.575,0.35875 3.23125,0.41625 0.6575,0.0575 1.19,-0.0913 1.52625,-0.015 0.3375,0.0775 0.61,0.11 0.67625,0.34875 0.0662,0.24 0.0775,0.5175 -0.715,0.8575 -0.79125,0.34125 -3.72,0.235 -4.7325,0.1025 -1.0125,-0.13375 -1.97,-0.5825 -1.97,-0.5825 l -0.38625,-0.29 0.0525,-1.61375 -0.135,-0.90625 0.14625,-1.05 z" />
      <path
         id="path3361"
         style="fill:#ab37c8;fill-opacity:1;fill-rule:evenodd;stroke:none;-inkscape-font-specification:FreeSans;font-family:FreeSans;font-weight:normal;font-style:normal;font-stretch:normal;font-variant:normal;font-size:13.09043308px;text-anchor:start;text-align:start;writing-mode:lr;line-height:125%"
         d="m 458.07974,153.61125 c 0,0 4.115,0.1275 5.20625,0.15875 1.09125,0.0312 1.72,-0.105 2.06875,0.0337 0.35,0.13875 0.36625,0.38625 0.42625,0.53375 0.0612,0.14625 0.1425,0.23875 0.0263,0.41375 -0.1175,0.175 -0.1275,0.40625 -1.00375,0.5925 -0.87625,0.18625 -3.23125,0.145 -4.11,0.35375 -0.88,0.2075 -1.70125,0.14625 -1.87875,0.37 -0.17875,0.225 -0.44125,0.4475 -0.0263,0.81875 0.415,0.37 2.8275,0.0863 3.68125,0.145 0.85375,0.0588 1.545,-0.0925 1.9825,-0.015 0.4375,0.0787 0.7925,0.11125 0.8775,0.355 0.0863,0.24375 0.1,0.5275 -0.9275,0.87375 -1.02875,0.3475 -4.8325,0.23875 -6.1475,0.10375 -1.31375,-0.135 -0.295,-0.145 -0.295,-0.145 l -0.175,-0.63125 -0.0975,-1.755 0.0412,-1.39125 0.35125,-0.815" />
      <path
         id="path3363"
         style="fill:none;stroke:none;-inkscape-font-specification:FreeSans;font-family:FreeSans;font-weight:normal;font-style:normal;font-stretch:normal;font-variant:normal;font-size:13.09043308px;text-anchor:start;text-align:start;writing-mode:lr;line-height:125%"
         d="m 458.07974,153.61125 c 0,0 4.115,0.1275 5.20625,0.15875 1.09125,0.0312 1.72,-0.105 2.06875,0.0337 0.35,0.13875 0.36625,0.38625 0.42625,0.53375 0.0612,0.14625 0.1425,0.23875 0.0263,0.41375 -0.1175,0.175 -0.1275,0.40625 -1.00375,0.5925 -0.87625,0.18625 -3.23125,0.145 -4.11,0.35375 -0.88,0.2075 -1.70125,0.14625 -1.87875,0.37 -0.17875,0.225 -0.44125,0.4475 -0.0263,0.81875 0.415,0.37 2.8275,0.0863 3.68125,0.145 0.85375,0.0588 1.545,-0.0925 1.9825,-0.015 0.4375,0.0787 0.7925,0.11125 0.8775,0.355 0.0863,0.24375 0.1,0.5275 -0.9275,0.87375 -1.02875,0.3475 -4.8325,0.23875 -6.1475,0.10375 -1.31375,-0.135 -0.295,-0.145 -0.295,-0.145 l -0.175,-0.63125 -0.0975,-1.755 0.0412,-1.39125 0.35125,-0.815 z" />
      <path
         id="path3365"
         style="fill:#55d400;fill-opacity:1;fill-rule:evenodd;stroke:none;-inkscape-font-specification:FreeSans;font-family:FreeSans;font-weight:normal;font-style:normal;font-stretch:normal;font-variant:normal;font-size:13.09043308px;text-anchor:start;text-align:start;writing-mode:lr;line-height:125%"
         d="m 454.94099,136.4525 c 0,0 1.02625,-0.50125 2.2575,0.47375 1.23,0.97375 0.37875,2.27875 0.53875,5.0925 0.15875,2.81375 0.35625,11.1525 0.1075,13.67 -0.24875,2.5175 0.14,2.53875 -0.64625,3.1275 -0.7875,0.58875 -2.14125,0.9425 -3.23375,0.17875 -1.09125,-0.76375 -0.375,-2.24875 -0.64625,-5.1825 -0.27,-2.93375 -0.8825,-9.32625 -0.32375,-11.8825 0.56,-2.5575 0.365,-4.41625 0.365,-4.41625" />
      <path
         id="path3367"
         style="fill:none;stroke:none;-inkscape-font-specification:FreeSans;font-family:FreeSans;font-weight:normal;font-style:normal;font-stretch:normal;font-variant:normal;font-size:13.09043308px;text-anchor:start;text-align:start;writing-mode:lr;line-height:125%"
         d="m 454.94099,136.4525 c 0,0 1.02625,-0.50125 2.2575,0.47375 1.23,0.97375 0.37875,2.27875 0.53875,5.0925 0.15875,2.81375 0.35625,11.1525 0.1075,13.67 -0.24875,2.5175 0.14,2.53875 -0.64625,3.1275 -0.7875,0.58875 -2.14125,0.9425 -3.23375,0.17875 -1.09125,-0.76375 -0.375,-2.24875 -0.64625,-5.1825 -0.27,-2.93375 -0.8825,-9.32625 -0.32375,-11.8825 0.56,-2.5575 0.365,-4.41625 0.365,-4.41625" />
      <path
         id="path3369"
         style="fill:#ab37c8;fill-opacity:1;fill-rule:evenodd;stroke:none;-inkscape-font-specification:FreeSans;font-family:FreeSans;font-weight:normal;font-style:normal;font-stretch:normal;font-variant:normal;font-size:13.09043308px;text-anchor:start;text-align:start;writing-mode:lr;line-height:125%"
         d="m 403.86599,156.2075 c -0.8825,-1.125 -0.4375,-1.7225 -0.4375,-1.7225 l -0.225,-1.69875 0.085,-2.00875 c 0,0 -3.485,0.69125 -3.9675,0.71875 -0.4825,0.0288 -1.795,-0.002 -2.3625,0 -0.5675,0.004 -1.17625,-0.13125 -1.42125,0.0162 -0.245,0.14875 -0.2675,0.2375 -0.23875,0.40875 0.0275,0.17125 0.002,0.15 0.49375,0.4075 0.49,0.25875 4.17875,0.26625 4.65125,0.6 0.4725,0.335 0.8325,0.5925 0.8325,0.69 0,0.0987 0.0275,0.56375 -0.44,1.16875 -0.4675,0.60375 -5.73,0.7925 -5.635,1.55875 0.0937,0.7675 0.15625,0.60875 1.18875,0.6975 1.0325,0.0888 6.44875,-0.735 6.44875,-0.735 l 1.0275,-0.10125" />
      <path
         id="path3371"
         style="fill:none;stroke:none;-inkscape-font-specification:FreeSans;font-family:FreeSans;font-weight:normal;font-style:normal;font-stretch:normal;font-variant:normal;font-size:13.09043308px;text-anchor:start;text-align:start;writing-mode:lr;line-height:125%"
         d="m 403.86599,156.2075 c -0.8825,-1.125 -0.4375,-1.7225 -0.4375,-1.7225 l -0.225,-1.69875 0.085,-2.00875 c 0,0 -3.485,0.69125 -3.9675,0.71875 -0.4825,0.0288 -1.795,-0.002 -2.3625,0 -0.5675,0.004 -1.17625,-0.13125 -1.42125,0.0162 -0.245,0.14875 -0.2675,0.2375 -0.23875,0.40875 0.0275,0.17125 0.002,0.15 0.49375,0.4075 0.49,0.25875 4.17875,0.26625 4.65125,0.6 0.4725,0.335 0.8325,0.5925 0.8325,0.69 0,0.0987 0.0275,0.56375 -0.44,1.16875 -0.4675,0.60375 -5.73,0.7925 -5.635,1.55875 0.0937,0.7675 0.15625,0.60875 1.18875,0.6975 1.0325,0.0888 6.44875,-0.735 6.44875,-0.735 l 1.0275,-0.10125 z" />
      <path
         id="path3373"
         style="fill:#ab37c8;fill-opacity:1;fill-rule:evenodd;stroke:none;-inkscape-font-specification:FreeSans;font-family:FreeSans;font-weight:normal;font-style:normal;font-stretch:normal;font-variant:normal;font-size:13.09043308px;text-anchor:start;text-align:start;writing-mode:lr;line-height:125%"
         d="m 403.19099,150.76125 c -0.32625,-1.19875 -0.21125,-2.13625 -0.21125,-2.13625 l -0.025,-1.24625 -0.09,-1.24625 c 0,0 -1.95875,-0.1675 -2.885,-0.1875 -0.9275,-0.0187 -2.6475,0.0438 -3.2875,0.075 -0.63875,0.0325 -0.765,-0.0713 -0.9775,0.075 -0.21375,0.14625 -0.3725,0.4625 -0.17625,0.69375 0.1975,0.23125 0.73,0.19375 1.455,0.28125 0.725,0.0875 2.865,-0.1575 3.3875,0.16875 0.52125,0.325 0.2575,0.59 0.27625,0.82375 0.0175,0.235 0.205,0.49 -0.12625,0.7125 -0.33125,0.2225 -1.34875,-0.02 -2.00625,0.0375 -0.65875,0.0588 -1.9275,0.12875 -2.35875,0.375 -0.43125,0.2475 -0.56375,0.56125 -0.5525,0.80625 0.0125,0.24375 0.25125,0.4875 0.5025,0.6175 0.25125,0.13125 0.18375,0.10125 1.05375,0.15 0.87,0.05 3.73625,-0.0337 4.64125,0 0.90375,0.0337 1.38,0 1.38,0" />
      <path
         id="path3375"
         style="fill:none;stroke:none;-inkscape-font-specification:FreeSans;font-family:FreeSans;font-weight:normal;font-style:normal;font-stretch:normal;font-variant:normal;font-size:13.09043308px;text-anchor:start;text-align:start;writing-mode:lr;line-height:125%"
         d="m 403.19099,150.76125 c -0.32625,-1.19875 -0.21125,-2.13625 -0.21125,-2.13625 l -0.025,-1.24625 -0.09,-1.24625 c 0,0 -1.95875,-0.1675 -2.885,-0.1875 -0.9275,-0.0187 -2.6475,0.0438 -3.2875,0.075 -0.63875,0.0325 -0.765,-0.0713 -0.9775,0.075 -0.21375,0.14625 -0.3725,0.4625 -0.17625,0.69375 0.1975,0.23125 0.73,0.19375 1.455,0.28125 0.725,0.0875 2.865,-0.1575 3.3875,0.16875 0.52125,0.325 0.2575,0.59 0.27625,0.82375 0.0175,0.235 0.205,0.49 -0.12625,0.7125 -0.33125,0.2225 -1.34875,-0.02 -2.00625,0.0375 -0.65875,0.0588 -1.9275,0.12875 -2.35875,0.375 -0.43125,0.2475 -0.56375,0.56125 -0.5525,0.80625 0.0125,0.24375 0.25125,0.4875 0.5025,0.6175 0.25125,0.13125 0.18375,0.10125 1.05375,0.15 0.87,0.05 3.73625,-0.0337 4.64125,0 0.90375,0.0337 1.38,0 1.38,0 z" />
      <path
         id="path3377"
         style="fill:#ab37c8;fill-opacity:1;fill-rule:evenodd;stroke:none;-inkscape-font-specification:FreeSans;font-family:FreeSans;font-weight:normal;font-style:normal;font-stretch:normal;font-variant:normal;font-size:13.09043308px;text-anchor:start;text-align:start;writing-mode:lr;line-height:125%"
         d="m 402.71974,145.3 c 0,0 -5.53,0.10875 -6.37,0.0787 -0.84,-0.0312 -1.12125,0.0775 -1.39,-0.0588 -0.27,-0.13625 -0.2825,-0.38 -0.32875,-0.52375 -0.0463,-0.1425 -0.10875,-0.235 -0.02,-0.40625 0.09,-0.17125 0.0987,-0.39875 0.77375,-0.58125 0.67375,-0.1825 4.2325,0.62625 4.91,0.4225 0.6775,-0.20375 0.68875,-0.34 0.82625,-0.56 0.13625,-0.22125 -0.38875,-0.74125 -0.70875,-1.105 -0.31875,-0.36375 -2.57375,-0.3575 -3.23125,-0.415 -0.6575,-0.0575 -1.19,0.0913 -1.52625,0.015 -0.3375,-0.0775 -0.61,-0.11 -0.67625,-0.34875 -0.0662,-0.24 -0.0763,-0.5175 0.715,-0.85875 0.79125,-0.34 3.72,-0.23375 4.7325,-0.10125 1.0125,0.1325 1.97,0.58125 1.97,0.58125 l 0.38625,0.29125 -0.0512,1.61375 0.13375,0.90625 -0.145,1.05" />
      <path
         id="path3379"
         style="fill:none;stroke:none;-inkscape-font-specification:FreeSans;font-family:FreeSans;font-weight:normal;font-style:normal;font-stretch:normal;font-variant:normal;font-size:13.09043308px;text-anchor:start;text-align:start;writing-mode:lr;line-height:125%"
         d="m 402.71974,145.3 c 0,0 -5.53,0.10875 -6.37,0.0787 -0.84,-0.0312 -1.12125,0.0775 -1.39,-0.0588 -0.27,-0.13625 -0.2825,-0.38 -0.32875,-0.52375 -0.0463,-0.1425 -0.10875,-0.235 -0.02,-0.40625 0.09,-0.17125 0.0987,-0.39875 0.77375,-0.58125 0.67375,-0.1825 4.2325,0.62625 4.91,0.4225 0.6775,-0.20375 0.68875,-0.34 0.82625,-0.56 0.13625,-0.22125 -0.38875,-0.74125 -0.70875,-1.105 -0.31875,-0.36375 -2.57375,-0.3575 -3.23125,-0.415 -0.6575,-0.0575 -1.19,0.0913 -1.52625,0.015 -0.3375,-0.0775 -0.61,-0.11 -0.67625,-0.34875 -0.0662,-0.24 -0.0763,-0.5175 0.715,-0.85875 0.79125,-0.34 3.72,-0.23375 4.7325,-0.10125 1.0125,0.1325 1.97,0.58125 1.97,0.58125 l 0.38625,0.29125 -0.0512,1.61375 0.13375,0.90625 -0.145,1.05 z" />
      <path
         id="path3381"
         style="fill:#ab37c8;fill-opacity:1;fill-rule:evenodd;stroke:none;-inkscape-font-specification:FreeSans;font-family:FreeSans;font-weight:normal;font-style:normal;font-stretch:normal;font-variant:normal;font-size:13.09043308px;text-anchor:start;text-align:start;writing-mode:lr;line-height:125%"
         d="m 402.70599,139.225 c 0,0 -4.115,-0.12875 -5.20625,-0.16 -1.09125,-0.0312 -1.72,0.10625 -2.06875,-0.0325 -0.35,-0.13875 -0.36625,-0.3875 -0.42625,-0.53375 -0.0612,-0.14625 -0.1425,-0.24 -0.025,-0.41375 0.11625,-0.175 0.1275,-0.40625 1.0025,-0.5925 0.87625,-0.18625 3.23125,-0.14625 4.11125,-0.35375 0.88,-0.2075 1.7,-0.14625 1.87875,-0.37125 0.1775,-0.22375 0.44,-0.44625 0.025,-0.8175 -0.415,-0.37 -2.8275,-0.0875 -3.68125,-0.145 -0.85375,-0.0588 -1.545,0.0925 -1.9825,0.015 -0.4375,-0.0787 -0.79125,-0.1125 -0.8775,-0.35625 -0.0863,-0.24375 -0.1,-0.52625 0.92875,-0.8725 1.0275,-0.3475 4.83125,-0.24 6.14625,-0.10375 1.315,0.135 0.29625,0.145 0.29625,0.145 l 0.17375,0.63 0.0975,1.75625 -0.0412,1.39125 -0.35125,0.815" />
      <path
         id="path3383"
         style="fill:none;stroke:none;-inkscape-font-specification:FreeSans;font-family:FreeSans;font-weight:normal;font-style:normal;font-stretch:normal;font-variant:normal;font-size:13.09043308px;text-anchor:start;text-align:start;writing-mode:lr;line-height:125%"
         d="m 402.70599,139.225 c 0,0 -4.115,-0.12875 -5.20625,-0.16 -1.09125,-0.0312 -1.72,0.10625 -2.06875,-0.0325 -0.35,-0.13875 -0.36625,-0.3875 -0.42625,-0.53375 -0.0612,-0.14625 -0.1425,-0.24 -0.025,-0.41375 0.11625,-0.175 0.1275,-0.40625 1.0025,-0.5925 0.87625,-0.18625 3.23125,-0.14625 4.11125,-0.35375 0.88,-0.2075 1.7,-0.14625 1.87875,-0.37125 0.1775,-0.22375 0.44,-0.44625 0.025,-0.8175 -0.415,-0.37 -2.8275,-0.0875 -3.68125,-0.145 -0.85375,-0.0588 -1.545,0.0925 -1.9825,0.015 -0.4375,-0.0787 -0.79125,-0.1125 -0.8775,-0.35625 -0.0863,-0.24375 -0.1,-0.52625 0.92875,-0.8725 1.0275,-0.3475 4.83125,-0.24 6.14625,-0.10375 1.315,0.135 0.29625,0.145 0.29625,0.145 l 0.17375,0.63 0.0975,1.75625 -0.0412,1.39125 -0.35125,0.815 z" />
      <path
         id="path3385"
         style="fill:#55d400;fill-opacity:1;fill-rule:evenodd;stroke:none;-inkscape-font-specification:FreeSans;font-family:FreeSans;font-weight:normal;font-style:normal;font-stretch:normal;font-variant:normal;font-size:13.09043308px;text-anchor:start;text-align:start;writing-mode:lr;line-height:125%"
         d="m 405.84474,156.38375 c 0,0 -1.02625,0.5 -2.25625,-0.47375 -1.23125,-0.975 -0.38,-2.27875 -0.53875,-5.0925 -0.16,-2.815 -0.35625,-11.1525 -0.10875,-13.67 0.24875,-2.51875 -0.14,-2.53875 0.6475,-3.1275 0.78625,-0.58875 2.14,-0.9425 3.2325,-0.17875 1.09125,0.76375 0.37625,2.24875 0.64625,5.1825 0.27125,2.9325 0.88375,9.32625 0.32375,11.8825 -0.56,2.5575 -0.365,4.41625 -0.365,4.41625" />
      <path
         id="path3387"
         style="fill:none;stroke:none;-inkscape-font-specification:FreeSans;font-family:FreeSans;font-weight:normal;font-style:normal;font-stretch:normal;font-variant:normal;font-size:13.09043308px;text-anchor:start;text-align:start;writing-mode:lr;line-height:125%"
         d="m 405.84474,156.38375 c 0,0 -1.02625,0.5 -2.25625,-0.47375 -1.23125,-0.975 -0.38,-2.27875 -0.53875,-5.0925 -0.16,-2.815 -0.35625,-11.1525 -0.10875,-13.67 0.24875,-2.51875 -0.14,-2.53875 0.6475,-3.1275 0.78625,-0.58875 2.14,-0.9425 3.2325,-0.17875 1.09125,0.76375 0.37625,2.24875 0.64625,5.1825 0.27125,2.9325 0.88375,9.32625 0.32375,11.8825 -0.56,2.5575 -0.365,4.41625 -0.365,4.41625" />
      <path
         id="path3389"
         style="fill:#ab37c8;fill-opacity:1;fill-rule:evenodd;stroke:none;-inkscape-font-specification:FreeSans;font-family:FreeSans;font-weight:normal;font-style:normal;font-stretch:normal;font-variant:normal;font-size:13.09043308px;text-anchor:start;text-align:start;writing-mode:lr;line-height:125%"
         d="m 403.86599,156.2075 c -0.8825,-1.125 -0.4375,-1.7225 -0.4375,-1.7225 l -0.225,-1.69875 0.085,-2.00875 c 0,0 -3.485,0.69125 -3.9675,0.71875 -0.4825,0.0288 -1.795,-0.002 -2.3625,0 -0.5675,0.004 -1.17625,-0.13125 -1.42125,0.0162 -0.245,0.14875 -0.2675,0.2375 -0.23875,0.40875 0.0275,0.17125 0.002,0.15 0.49375,0.4075 0.49,0.25875 4.17875,0.26625 4.65125,0.6 0.4725,0.335 0.8325,0.5925 0.8325,0.69 0,0.0987 0.0275,0.56375 -0.44,1.16875 -0.4675,0.60375 -5.73,0.7925 -5.635,1.55875 0.0937,0.7675 0.15625,0.60875 1.18875,0.6975 1.0325,0.0888 6.44875,-0.735 6.44875,-0.735 l 1.0275,-0.10125" />
      <path
         id="path3391"
         style="fill:none;stroke:none;-inkscape-font-specification:FreeSans;font-family:FreeSans;font-weight:normal;font-style:normal;font-stretch:normal;font-variant:normal;font-size:13.09043308px;text-anchor:start;text-align:start;writing-mode:lr;line-height:125%"
         d="m 403.86599,156.2075 c -0.8825,-1.125 -0.4375,-1.7225 -0.4375,-1.7225 l -0.225,-1.69875 0.085,-2.00875 c 0,0 -3.485,0.69125 -3.9675,0.71875 -0.4825,0.0288 -1.795,-0.002 -2.3625,0 -0.5675,0.004 -1.17625,-0.13125 -1.42125,0.0162 -0.245,0.14875 -0.2675,0.2375 -0.23875,0.40875 0.0275,0.17125 0.002,0.15 0.49375,0.4075 0.49,0.25875 4.17875,0.26625 4.65125,0.6 0.4725,0.335 0.8325,0.5925 0.8325,0.69 0,0.0987 0.0275,0.56375 -0.44,1.16875 -0.4675,0.60375 -5.73,0.7925 -5.635,1.55875 0.0937,0.7675 0.15625,0.60875 1.18875,0.6975 1.0325,0.0888 6.44875,-0.735 6.44875,-0.735 l 1.0275,-0.10125 z" />
      <path
         id="path3393"
         style="fill:#ab37c8;fill-opacity:1;fill-rule:evenodd;stroke:none;-inkscape-font-specification:FreeSans;font-family:FreeSans;font-weight:normal;font-style:normal;font-stretch:normal;font-variant:normal;font-size:13.09043308px;text-anchor:start;text-align:start;writing-mode:lr;line-height:125%"
         d="m 403.19099,150.76125 c -0.32625,-1.19875 -0.21125,-2.13625 -0.21125,-2.13625 l -0.025,-1.24625 -0.09,-1.24625 c 0,0 -1.95875,-0.1675 -2.885,-0.1875 -0.9275,-0.0187 -2.6475,0.0438 -3.2875,0.075 -0.63875,0.0325 -0.765,-0.0713 -0.9775,0.075 -0.21375,0.14625 -0.3725,0.4625 -0.17625,0.69375 0.1975,0.23125 0.73,0.19375 1.455,0.28125 0.725,0.0875 2.865,-0.1575 3.3875,0.16875 0.52125,0.325 0.2575,0.59 0.27625,0.82375 0.0175,0.235 0.205,0.49 -0.12625,0.7125 -0.33125,0.2225 -1.34875,-0.02 -2.00625,0.0375 -0.65875,0.0588 -1.9275,0.12875 -2.35875,0.375 -0.43125,0.2475 -0.56375,0.56125 -0.5525,0.80625 0.0125,0.24375 0.25125,0.4875 0.5025,0.6175 0.25125,0.13125 0.18375,0.10125 1.05375,0.15 0.87,0.05 3.73625,-0.0337 4.64125,0 0.90375,0.0337 1.38,0 1.38,0" />
      <path
         id="path3395"
         style="fill:none;stroke:none;-inkscape-font-specification:FreeSans;font-family:FreeSans;font-weight:normal;font-style:normal;font-stretch:normal;font-variant:normal;font-size:13.09043308px;text-anchor:start;text-align:start;writing-mode:lr;line-height:125%"
         d="m 403.19099,150.76125 c -0.32625,-1.19875 -0.21125,-2.13625 -0.21125,-2.13625 l -0.025,-1.24625 -0.09,-1.24625 c 0,0 -1.95875,-0.1675 -2.885,-0.1875 -0.9275,-0.0187 -2.6475,0.0438 -3.2875,0.075 -0.63875,0.0325 -0.765,-0.0713 -0.9775,0.075 -0.21375,0.14625 -0.3725,0.4625 -0.17625,0.69375 0.1975,0.23125 0.73,0.19375 1.455,0.28125 0.725,0.0875 2.865,-0.1575 3.3875,0.16875 0.52125,0.325 0.2575,0.59 0.27625,0.82375 0.0175,0.235 0.205,0.49 -0.12625,0.7125 -0.33125,0.2225 -1.34875,-0.02 -2.00625,0.0375 -0.65875,0.0588 -1.9275,0.12875 -2.35875,0.375 -0.43125,0.2475 -0.56375,0.56125 -0.5525,0.80625 0.0125,0.24375 0.25125,0.4875 0.5025,0.6175 0.25125,0.13125 0.18375,0.10125 1.05375,0.15 0.87,0.05 3.73625,-0.0337 4.64125,0 0.90375,0.0337 1.38,0 1.38,0 z" />
      <path
         id="path3397"
         style="fill:#ab37c8;fill-opacity:1;fill-rule:evenodd;stroke:none;-inkscape-font-specification:FreeSans;font-family:FreeSans;font-weight:normal;font-style:normal;font-stretch:normal;font-variant:normal;font-size:13.09043308px;text-anchor:start;text-align:start;writing-mode:lr;line-height:125%"
         d="m 402.71974,145.3 c 0,0 -5.53,0.10875 -6.37,0.0787 -0.84,-0.0312 -1.12125,0.0775 -1.39,-0.0588 -0.27,-0.13625 -0.2825,-0.38 -0.32875,-0.52375 -0.0463,-0.1425 -0.10875,-0.235 -0.02,-0.40625 0.09,-0.17125 0.0987,-0.39875 0.77375,-0.58125 0.67375,-0.1825 4.2325,0.62625 4.91,0.4225 0.6775,-0.20375 0.68875,-0.34 0.82625,-0.56 0.13625,-0.22125 -0.38875,-0.74125 -0.70875,-1.105 -0.31875,-0.36375 -2.57375,-0.3575 -3.23125,-0.415 -0.6575,-0.0575 -1.19,0.0913 -1.52625,0.015 -0.3375,-0.0775 -0.61,-0.11 -0.67625,-0.34875 -0.0662,-0.24 -0.0763,-0.5175 0.715,-0.85875 0.79125,-0.34 3.72,-0.23375 4.7325,-0.10125 1.0125,0.1325 1.97,0.58125 1.97,0.58125 l 0.38625,0.29125 -0.0512,1.61375 0.13375,0.90625 -0.145,1.05" />
      <path
         id="path3399"
         style="fill:none;stroke:none;-inkscape-font-specification:FreeSans;font-family:FreeSans;font-weight:normal;font-style:normal;font-stretch:normal;font-variant:normal;font-size:13.09043308px;text-anchor:start;text-align:start;writing-mode:lr;line-height:125%"
         d="m 402.71974,145.3 c 0,0 -5.53,0.10875 -6.37,0.0787 -0.84,-0.0312 -1.12125,0.0775 -1.39,-0.0588 -0.27,-0.13625 -0.2825,-0.38 -0.32875,-0.52375 -0.0463,-0.1425 -0.10875,-0.235 -0.02,-0.40625 0.09,-0.17125 0.0987,-0.39875 0.77375,-0.58125 0.67375,-0.1825 4.2325,0.62625 4.91,0.4225 0.6775,-0.20375 0.68875,-0.34 0.82625,-0.56 0.13625,-0.22125 -0.38875,-0.74125 -0.70875,-1.105 -0.31875,-0.36375 -2.57375,-0.3575 -3.23125,-0.415 -0.6575,-0.0575 -1.19,0.0913 -1.52625,0.015 -0.3375,-0.0775 -0.61,-0.11 -0.67625,-0.34875 -0.0662,-0.24 -0.0763,-0.5175 0.715,-0.85875 0.79125,-0.34 3.72,-0.23375 4.7325,-0.10125 1.0125,0.1325 1.97,0.58125 1.97,0.58125 l 0.38625,0.29125 -0.0512,1.61375 0.13375,0.90625 -0.145,1.05 z" />
      <path
         id="path3401"
         style="fill:#ab37c8;fill-opacity:1;fill-rule:evenodd;stroke:none;-inkscape-font-specification:FreeSans;font-family:FreeSans;font-weight:normal;font-style:normal;font-stretch:normal;font-variant:normal;font-size:13.09043308px;text-anchor:start;text-align:start;writing-mode:lr;line-height:125%"
         d="m 402.70599,139.225 c 0,0 -4.115,-0.12875 -5.20625,-0.16 -1.09125,-0.0312 -1.72,0.10625 -2.06875,-0.0325 -0.35,-0.13875 -0.36625,-0.3875 -0.42625,-0.53375 -0.0612,-0.14625 -0.1425,-0.24 -0.025,-0.41375 0.11625,-0.175 0.1275,-0.40625 1.0025,-0.5925 0.87625,-0.18625 3.23125,-0.14625 4.11125,-0.35375 0.88,-0.2075 1.7,-0.14625 1.87875,-0.37125 0.1775,-0.22375 0.44,-0.44625 0.025,-0.8175 -0.415,-0.37 -2.8275,-0.0875 -3.68125,-0.145 -0.85375,-0.0588 -1.545,0.0925 -1.9825,0.015 -0.4375,-0.0787 -0.79125,-0.1125 -0.8775,-0.35625 -0.0863,-0.24375 -0.1,-0.52625 0.92875,-0.8725 1.0275,-0.3475 4.83125,-0.24 6.14625,-0.10375 1.315,0.135 0.29625,0.145 0.29625,0.145 l 0.17375,0.63 0.0975,1.75625 -0.0412,1.39125 -0.35125,0.815" />
      <path
         id="path3403"
         style="fill:none;stroke:none;-inkscape-font-specification:FreeSans;font-family:FreeSans;font-weight:normal;font-style:normal;font-stretch:normal;font-variant:normal;font-size:13.09043308px;text-anchor:start;text-align:start;writing-mode:lr;line-height:125%"
         d="m 402.70599,139.225 c 0,0 -4.115,-0.12875 -5.20625,-0.16 -1.09125,-0.0312 -1.72,0.10625 -2.06875,-0.0325 -0.35,-0.13875 -0.36625,-0.3875 -0.42625,-0.53375 -0.0612,-0.14625 -0.1425,-0.24 -0.025,-0.41375 0.11625,-0.175 0.1275,-0.40625 1.0025,-0.5925 0.87625,-0.18625 3.23125,-0.14625 4.11125,-0.35375 0.88,-0.2075 1.7,-0.14625 1.87875,-0.37125 0.1775,-0.22375 0.44,-0.44625 0.025,-0.8175 -0.415,-0.37 -2.8275,-0.0875 -3.68125,-0.145 -0.85375,-0.0588 -1.545,0.0925 -1.9825,0.015 -0.4375,-0.0787 -0.79125,-0.1125 -0.8775,-0.35625 -0.0863,-0.24375 -0.1,-0.52625 0.92875,-0.8725 1.0275,-0.3475 4.83125,-0.24 6.14625,-0.10375 1.315,0.135 0.29625,0.145 0.29625,0.145 l 0.17375,0.63 0.0975,1.75625 -0.0412,1.39125 -0.35125,0.815 z" />
      <path
         id="path3405"
         style="fill:#55d400;fill-opacity:1;fill-rule:evenodd;stroke:none;-inkscape-font-specification:FreeSans;font-family:FreeSans;font-weight:normal;font-style:normal;font-stretch:normal;font-variant:normal;font-size:13.09043308px;text-anchor:start;text-align:start;writing-mode:lr;line-height:125%"
         d="m 405.84474,156.38375 c 0,0 -1.02625,0.5 -2.25625,-0.47375 -1.23125,-0.975 -0.38,-2.27875 -0.53875,-5.0925 -0.16,-2.815 -0.35625,-11.1525 -0.10875,-13.67 0.24875,-2.51875 -0.14,-2.53875 0.6475,-3.1275 0.78625,-0.58875 2.14,-0.9425 3.2325,-0.17875 1.09125,0.76375 0.37625,2.24875 0.64625,5.1825 0.27125,2.9325 0.88375,9.32625 0.32375,11.8825 -0.56,2.5575 -0.365,4.41625 -0.365,4.41625" />
      <path
         id="path3407"
         style="fill:none;stroke:none;-inkscape-font-specification:FreeSans;font-family:FreeSans;font-weight:normal;font-style:normal;font-stretch:normal;font-variant:normal;font-size:13.09043308px;text-anchor:start;text-align:start;writing-mode:lr;line-height:125%"
         d="m 405.84474,156.38375 c 0,0 -1.02625,0.5 -2.25625,-0.47375 -1.23125,-0.975 -0.38,-2.27875 -0.53875,-5.0925 -0.16,-2.815 -0.35625,-11.1525 -0.10875,-13.67 0.24875,-2.51875 -0.14,-2.53875 0.6475,-3.1275 0.78625,-0.58875 2.14,-0.9425 3.2325,-0.17875 1.09125,0.76375 0.37625,2.24875 0.64625,5.1825 0.27125,2.9325 0.88375,9.32625 0.32375,11.8825 -0.56,2.5575 -0.365,4.41625 -0.365,4.41625" />
      <path
         id="path3797"
         style="fill:none;stroke:#000001;stroke-width:0.75374996999999999;stroke-linecap:round;stroke-linejoin:bevel;stroke-miterlimit:10;stroke-opacity:1;stroke-dasharray:none;-inkscape-font-specification:FreeSans;font-family:FreeSans;font-weight:normal;font-style:normal;font-stretch:normal;font-variant:normal;font-size:13.09043308px;text-anchor:start;text-align:start;writing-mode:lr;line-height:125%"
         d="m 411.17599,131.63375 c 0,0 0.2625,-0.235 -0.02,-1.25 -0.86125,-3.62125 -5.67375,0.475 -7.00375,0 -1.3525,-0.4825 -1.265,-1.6375 -1.26875,-3.21625 -0.005,1.57875 0.0825,2.73375 -1.27,3.21625 -1.33,0.475 -6.14125,-3.62125 -7.00375,0 -0.2825,1.015 -0.02,1.25 -0.02,1.25" />
      <path
         id="path3799"
         style="fill:none;stroke:#000000;stroke-width:1.13750005000000010;stroke-linecap:butt;stroke-linejoin:miter;stroke-miterlimit:10;stroke-opacity:1;stroke-dasharray:none;-inkscape-font-specification:FreeSans;font-family:FreeSans;font-weight:normal;font-style:normal;font-stretch:normal;font-variant:normal;font-size:13.09043308px;text-anchor:start;text-align:start;writing-mode:lr;line-height:125%"
         d="m 389.97099,103.39 11.655,21.78" />
      <path
         id="path3801"
         style="fill:none;stroke:#000000;stroke-width:0.99250006999999996;stroke-linecap:butt;stroke-linejoin:miter;stroke-miterlimit:10;stroke-opacity:1;stroke-dasharray:none;-inkscape-font-specification:FreeSans;font-family:FreeSans;font-weight:normal;font-style:normal;font-stretch:normal;font-variant:normal;font-size:13.09043308px;text-anchor:start;text-align:start;writing-mode:lr;line-height:125%"
         d="M 441.01724,228.52125 437.76349,207.7475" />
      <text
         xml:space="preserve"
         style="font-size:13.09043308px;font-style:normal;font-variant:normal;font-weight:normal;font-stretch:normal;line-height:125%;letter-spacing:0px;word-spacing:0px;fill:#000000;fill-opacity:1;stroke:none;font-family:FreeSans;-inkscape-font-specification:FreeSans;text-anchor:start;text-align:start;writing-mode:lr"
         x="329.94006"
         y="99.971069"
         id="text6617"
         sodipodi:linespacing="125%"><tspan
           sodipodi:role="line"
           id="tspan6619"
           x="329.94006"
           y="99.971069">Kintochore</tspan></text>
      <text
         xml:space="preserve"
         style="font-size:13.09043308px;font-style:normal;font-variant:normal;font-weight:normal;font-stretch:normal;line-height:125%;letter-spacing:0px;word-spacing:0px;fill:#000000;fill-opacity:1;stroke:none;font-family:FreeSans;-inkscape-font-specification:FreeSans;text-anchor:start;text-align:start;writing-mode:lr"
         x="475.13306"
         y="96.323799"
         id="text6649"
         sodipodi:linespacing="125%"><tspan
           sodipodi:role="line"
           id="tspan6651"
           x="475.13306"
           y="96.323799">Site d'attachement</tspan></text>
      <text
         xml:space="preserve"
         style="font-size:13.09043308px;font-style:normal;font-variant:normal;font-weight:normal;font-stretch:normal;line-height:125%;letter-spacing:0px;word-spacing:0px;fill:#000000;fill-opacity:1;stroke:none;font-family:FreeSans;-inkscape-font-specification:FreeSans;text-anchor:start;text-align:start;writing-mode:lr"
         x="523.50348"
         y="216.17923"
         id="text6653"
         sodipodi:linespacing="125%"><tspan
           sodipodi:role="line"
           id="tspan6655"
           x="523.50348"
           y="216.17923">MT interdigits</tspan></text>
      <text
         xml:space="preserve"
         style="font-size:13.09043308px;font-style:normal;font-variant:normal;font-weight:normal;font-stretch:normal;line-height:125%;letter-spacing:0px;word-spacing:0px;fill:#000000;fill-opacity:1;stroke:none;font-family:FreeSans;-inkscape-font-specification:FreeSans;text-anchor:start;text-align:start;writing-mode:lr"
         x="427.53906"
         y="239.95844"
         id="text6677"
         sodipodi:linespacing="125%"><tspan
           sodipodi:role="line"
           id="tspan6679"
           x="427.53906"
           y="239.95844">Cohsion</tspan></text>
      <text
         xml:space="preserve"
         style="font-size:13.09043308px;font-style:normal;font-variant:normal;font-weight:normal;font-stretch:normal;line-height:125%;letter-spacing:0px;word-spacing:0px;fill:#000000;fill-opacity:1;stroke:none;font-family:FreeSans;-inkscape-font-specification:FreeSans;text-anchor:start;text-align:start;writing-mode:lr"
         x="518.5741"
         y="126.56676"
         id="text6884"
         sodipodi:linespacing="125%"><tspan
           sodipodi:role="line"
           id="tspan6886"
           x="518.5741"
           y="126.56676">MT kintochoriens</tspan></text>
      <path
         sodipodi:type="arc"
         style="fill:none;stroke:#000000;stroke-width:2;stroke-linecap:round;stroke-linejoin:round;stroke-miterlimit:4;stroke-opacity:1;stroke-dasharray:none;stroke-dashoffset:0;-inkscape-font-specification:FreeSans;font-family:FreeSans;font-weight:normal;font-style:normal;font-stretch:normal;font-variant:normal;font-size:12.00000025px;text-anchor:start;text-align:start;writing-mode:lr;line-height:125%"
         id="path6793"
         sodipodi:cx="-37.375645"
         sodipodi:cy="88.336952"
         sodipodi:rx="45.456863"
         sodipodi:ry="95.459419"
         d="M -74.345225,143.88092 A 45.456863,95.459419 0 0 1 -52.671567,-1.5558387"
         transform="matrix(1.0908694,0,0,1.0908694,256.51356,89.324105)"
         sodipodi:start="2.5205794"
         sodipodi:end="4.3691986"
         sodipodi:open="true" />
      <text
         xml:space="preserve"
         style="font-size:13.09043308px;font-style:normal;font-variant:normal;font-weight:normal;font-stretch:normal;line-height:125%;letter-spacing:0px;word-spacing:0px;fill:#000000;fill-opacity:1;stroke:none;font-family:FreeSans;-inkscape-font-specification:FreeSans;text-anchor:start;text-align:start;writing-mode:lr"
         x="223.59779"
         y="115.90968"
         id="text6884-4"
         sodipodi:linespacing="125%"><tspan
           sodipodi:role="line"
           id="tspan6886-8"
           x="223.59779"
           y="115.90968">MT astraux</tspan></text>
      <path
         id="path3799-5"
         style="fill:none;stroke:#000000;stroke-width:1.13750005000000010;stroke-linecap:butt;stroke-linejoin:miter;stroke-miterlimit:10;stroke-opacity:1;stroke-dasharray:none;-inkscape-font-specification:FreeSans;font-family:FreeSans;font-weight:normal;font-style:normal;font-stretch:normal;font-variant:normal;font-size:13.09043308px;text-anchor:start;text-align:start;writing-mode:lr;line-height:125%"
         d="m 241.59318,122.59508 -11.655,21.78" />
      <text
         xml:space="preserve"
         style="font-size:13.09043308px;font-style:normal;font-variant:normal;font-weight:normal;font-stretch:normal;line-height:125%;letter-spacing:0px;word-spacing:0px;fill:#000000;fill-opacity:1;stroke:none;font-family:FreeSans;-inkscape-font-specification:FreeSans;text-anchor:start;text-align:start;writing-mode:lr"
         x="330.048"
         y="212.96271"
         id="text6864"
         sodipodi:linespacing="125%"><tspan
           sodipodi:role="line"
           id="tspan6866"
           x="330.048"
           y="212.96271">Chromatine</tspan></text>
      <path
         id="path3799-5-5"
         style="fill:none;stroke:#000000;stroke-width:1.13750005000000010;stroke-linecap:butt;stroke-linejoin:miter;stroke-miterlimit:10;stroke-opacity:1;stroke-dasharray:none;-inkscape-font-specification:FreeSans;font-family:FreeSans;font-weight:normal;font-style:normal;font-stretch:normal;font-variant:normal;font-size:13.09043308px;text-anchor:start;text-align:start;writing-mode:lr;line-height:125%"
         d="m 424.7034,205.18947 -24.90127,6.19615"
         sodipodi:nodetypes="cc" />
      <path
         id="path3893-3-8"
         style="fill:none;stroke:#69b628;stroke-width:2.18173884999999990;stroke-linecap:round;stroke-linejoin:round;stroke-miterlimit:4;stroke-opacity:1;stroke-dasharray:none;-inkscape-font-specification:FreeSans;font-family:FreeSans;font-weight:normal;font-style:normal;font-stretch:normal;font-variant:normal;font-size:13.09043308px;text-anchor:start;text-align:start;writing-mode:lr;line-height:125%"
         d="m 247.72796,171.35862 -50.10581,-13.12809 m 48.35408,13.44197 -69.66869,65.17484 m 72.05118,-66.11424 -62.78153,-60.99781"
         sodipodi:nodetypes="cccccc" />
      <path
         id="path3199"
         style="fill:#ff0000;fill-opacity:1;fill-rule:nonzero;stroke:none;-inkscape-font-specification:FreeSans;font-family:FreeSans;font-weight:normal;font-style:normal;font-stretch:normal;font-variant:normal;font-size:13.09043308px;text-anchor:start;text-align:start;writing-mode:lr;line-height:125%"
         d="m 253.70474,170.40951 c 0,7.39875 9.27375,13.40375 2.92125,13.40375 -6.35375,0 -11.51,-6.005 -11.51,-13.40375 0,-7.39875 5.15625,-13.40375 11.51,-13.40375 6.3525,0 -2.92125,6.005 -2.92125,13.40375" />
      <path
         sodipodi:type="arc"
         style="fill:none;stroke:#dacf2f;stroke-width:2;stroke-linecap:round;stroke-linejoin:round;stroke-miterlimit:4;stroke-opacity:1;stroke-dasharray:none;stroke-dashoffset:0;-inkscape-font-specification:FreeSans;font-family:FreeSans;font-weight:normal;font-style:normal;font-stretch:normal;font-variant:normal;font-size:12.00000025px;text-anchor:start;text-align:start;writing-mode:lr;line-height:125%"
         id="path6793-2"
         sodipodi:cx="-37.375645"
         sodipodi:cy="88.336952"
         sodipodi:rx="45.456863"
         sodipodi:ry="95.459419"
         d="M -74.345225,143.88092 A 45.456863,95.459419 0 0 1 -52.671567,-1.5558387"
         transform="matrix(1.0908694,0,0,1.0908694,258.97055,89.877064)"
         sodipodi:start="2.5205794"
         sodipodi:end="4.3691986"
         sodipodi:open="true" />
      <text
         xml:space="preserve"
         style="font-size:13.09043308px;font-style:normal;font-variant:normal;font-weight:normal;font-stretch:normal;line-height:125%;letter-spacing:0px;word-spacing:0px;fill:#69b628;fill-opacity:1;stroke:none;font-family:FreeSans;-inkscape-font-specification:FreeSans;text-anchor:start;text-align:start;writing-mode:lr"
         x="197.50735"
         y="153.74408"
         id="text7816"
         sodipodi:linespacing="125%"><tspan
           sodipodi:role="line"
           id="tspan7818"
           x="197.50735"
           y="153.74408">+</tspan></text>
      <text
         xml:space="preserve"
         style="font-size:13.09043308px;font-style:normal;font-variant:normal;font-weight:normal;font-stretch:normal;line-height:125%;letter-spacing:0px;word-spacing:0px;fill:#69b628;fill-opacity:1;stroke:none;font-family:FreeSans;-inkscape-font-specification:FreeSans;text-anchor:start;text-align:start;writing-mode:lr"
         x="233.56773"
         y="171.3629"
         id="text7820"
         sodipodi:linespacing="125%"><tspan
           sodipodi:role="line"
           id="tspan7822"
           x="233.56773"
           y="171.3629">_</tspan></text>
      <text
         xml:space="preserve"
         style="font-size:13.09043308px;font-style:normal;font-variant:normal;font-weight:normal;font-stretch:normal;line-height:125%;letter-spacing:0px;word-spacing:0px;fill:#69b628;fill-opacity:1;stroke:none;font-family:FreeSans;-inkscape-font-specification:FreeSans;text-anchor:start;text-align:start;writing-mode:lr"
         x="238.48228"
         y="153.59509"
         id="text7820-8"
         sodipodi:linespacing="125%"><tspan
           sodipodi:role="line"
           id="tspan7822-2"
           x="238.48228"
           y="153.59509">_</tspan></text>
      <text
         xml:space="preserve"
         style="font-size:12.00000025px;font-style:normal;font-variant:normal;font-weight:normal;font-stretch:normal;line-height:125%;letter-spacing:0px;word-spacing:0px;fill:#000000;fill-opacity:1;stroke:none;font-family:FreeSans;-inkscape-font-specification:FreeSans;text-anchor:start;text-align:start;writing-mode:lr"
         x="-43.57143"
         y="38.8997"
         id="text7849"
         sodipodi:linespacing="125%"
         transform="matrix(1.0908694,0,0,1.0908694,242.91211,67.285215)"><tspan
           sodipodi:role="line"
           id="tspan7851"
           x="-43.57143"
           y="38.8997"></tspan></text>
      <text
         xml:space="preserve"
         style="font-size:13.09043308px;font-style:normal;font-variant:normal;font-weight:normal;font-stretch:normal;line-height:125%;letter-spacing:0px;word-spacing:0px;fill:#3139ae;fill-opacity:1;stroke:none;font-family:FreeSans;-inkscape-font-specification:FreeSans;text-anchor:start;text-align:start;writing-mode:lr"
         x="376.94763"
         y="133.3015"
         id="text7816-4"
         sodipodi:linespacing="125%"><tspan
           sodipodi:role="line"
           id="tspan7818-1"
           x="376.94763"
           y="133.3015">+</tspan></text>
      <text
         xml:space="preserve"
         style="font-size:13.09043308px;font-style:normal;font-variant:normal;font-weight:normal;font-stretch:normal;line-height:125%;letter-spacing:0px;word-spacing:0px;fill:#3139ae;fill-opacity:1;stroke:none;font-family:FreeSans;-inkscape-font-specification:FreeSans;text-anchor:start;text-align:start;writing-mode:lr"
         x="266.21378"
         y="156.37241"
         id="text7820-8-6"
         sodipodi:linespacing="125%"><tspan
           sodipodi:role="line"
           id="tspan7822-2-8"
           x="266.21378"
           y="156.37241">_</tspan></text>
      <text
         xml:space="preserve"
         style="font-size:13.09043308px;font-style:normal;font-variant:normal;font-weight:normal;font-stretch:normal;line-height:125%;letter-spacing:0px;word-spacing:0px;fill:#ff7c00;fill-opacity:1;stroke:none;font-family:FreeSans;-inkscape-font-specification:FreeSans;text-anchor:start;text-align:start;writing-mode:lr"
         x="376.69562"
         y="192.86546"
         id="text7816-5"
         sodipodi:linespacing="125%"><tspan
           sodipodi:role="line"
           id="tspan7818-4"
           x="376.69562"
           y="192.86546">+</tspan></text>
      <text
         xml:space="preserve"
         style="font-size:13.09043308px;font-style:normal;font-variant:normal;font-weight:normal;font-stretch:normal;line-height:125%;letter-spacing:0px;word-spacing:0px;fill:#ff7c00;fill-opacity:1;stroke:none;font-family:FreeSans;-inkscape-font-specification:FreeSans;text-anchor:start;text-align:start;writing-mode:lr"
         x="262.61124"
         y="183.75577"
         id="text7820-8-3"
         sodipodi:linespacing="125%"><tspan
           sodipodi:role="line"
           id="tspan7822-2-5"
           x="262.61124"
           y="183.75577">_</tspan></text>
      <text
         xml:space="preserve"
         style="font-size:13.09043308px;font-style:normal;font-variant:normal;font-weight:normal;font-stretch:normal;line-height:125%;letter-spacing:0px;word-spacing:0px;fill:#ff7c00;fill-opacity:1;stroke:none;font-family:FreeSans;-inkscape-font-specification:FreeSans;text-anchor:start;text-align:start;writing-mode:lr"
         x="-482.3103"
         y="192.32533"
         id="text7816-5-4"
         sodipodi:linespacing="125%"
         transform="scale(-1,1)"><tspan
           sodipodi:role="line"
           id="tspan7818-4-2"
           x="-482.3103"
           y="192.32533">+</tspan></text>
      <text
         xml:space="preserve"
         style="font-size:13.09043308px;font-style:normal;font-variant:normal;font-weight:normal;font-stretch:normal;line-height:125%;letter-spacing:0px;word-spacing:0px;fill:#ff7c00;fill-opacity:1;stroke:none;font-family:FreeSans;-inkscape-font-specification:FreeSans;text-anchor:start;text-align:start;writing-mode:lr"
         x="-594.05707"
         y="177.37169"
         id="text7820-8-3-2"
         sodipodi:linespacing="125%"
         transform="scale(-1,1)"><tspan
           sodipodi:role="line"
           id="tspan7822-2-5-1"
           x="-594.05707"
           y="177.37169">_</tspan></text>
      <path
         sodipodi:type="arc"
         style="fill:none;stroke:#000000;stroke-width:2;stroke-linecap:round;stroke-linejoin:round;stroke-miterlimit:4;stroke-opacity:1;stroke-dasharray:none;stroke-dashoffset:0;-inkscape-font-specification:FreeSans;font-family:FreeSans;font-weight:normal;font-style:normal;font-stretch:normal;font-variant:normal;font-size:12.00000025px;text-anchor:start;text-align:start;writing-mode:lr;line-height:125%"
         id="path6793-5"
         sodipodi:cx="-37.375645"
         sodipodi:cy="88.336952"
         sodipodi:rx="45.456863"
         sodipodi:ry="95.459419"
         d="M -74.345225,143.88092 A 45.456863,95.459419 0 0 1 -52.671567,-1.5558387"
         transform="matrix(-1.0908694,0,0,-1.0908694,607.22333,241.77911)"
         sodipodi:start="2.5205794"
         sodipodi:end="4.3691986"
         sodipodi:open="true" />
      <path
         sodipodi:type="arc"
         style="fill:none;stroke:#dacf2f;stroke-width:2;stroke-linecap:round;stroke-linejoin:round;stroke-miterlimit:4;stroke-opacity:1;stroke-dasharray:none;stroke-dashoffset:0;-inkscape-font-specification:FreeSans;font-family:FreeSans;font-weight:normal;font-style:normal;font-stretch:normal;font-variant:normal;font-size:12.00000025px;text-anchor:start;text-align:start;writing-mode:lr;line-height:125%"
         id="path6793-2-1"
         sodipodi:cx="-37.375645"
         sodipodi:cy="88.336952"
         sodipodi:rx="45.456863"
         sodipodi:ry="95.459419"
         d="M -74.345225,143.88092 A 45.456863,95.459419 0 0 1 -52.671567,-1.5558387"
         transform="matrix(-1.0908694,0,0,-1.0908694,604.76634,241.22615)"
         sodipodi:start="2.5205794"
         sodipodi:end="4.3691986"
         sodipodi:open="true" />
      <text
         xml:space="preserve"
         style="font-size:13.09043308px;font-style:normal;font-variant:normal;font-weight:normal;font-stretch:normal;line-height:125%;letter-spacing:0px;word-spacing:0px;fill:#000000;fill-opacity:1;stroke:none;font-family:FreeSans;-inkscape-font-specification:FreeSans;text-anchor:start;text-align:start;writing-mode:lr"
         x="437.57657"
         y="55.721672"
         id="text7978"
         sodipodi:linespacing="125%"><tspan
           sodipodi:role="line"
           id="tspan7980"
           x="437.57657"
           y="55.721672">plan de clivage</tspan></text>
      <text
         xml:space="preserve"
         style="font-size:13.09043308px;font-style:normal;font-variant:normal;font-weight:normal;font-stretch:normal;line-height:125%;letter-spacing:0px;word-spacing:0px;fill:#000000;fill-opacity:1;stroke:none;font-family:FreeSans;-inkscape-font-specification:FreeSans;text-anchor:start;text-align:start;writing-mode:lr"
         x="217.84427"
         y="233.22171"
         id="text7982"
         sodipodi:linespacing="125%"><tspan
           sodipodi:role="line"
           id="tspan7984"
           x="217.84427"
           y="233.22171">Cortex</tspan></text>
      <path
         id="path3799-5-5-2"
         style="fill:none;stroke:#000000;stroke-width:1.13750005000000010;stroke-linecap:butt;stroke-linejoin:miter;stroke-miterlimit:10;stroke-opacity:1;stroke-dasharray:none;-inkscape-font-specification:FreeSans;font-family:FreeSans;font-weight:normal;font-style:normal;font-stretch:normal;font-variant:normal;font-size:13.09043308px;text-anchor:start;text-align:start;writing-mode:lr;line-height:125%"
         d="m 215.49024,229.34444 -31.13481,11.6505"
         sodipodi:nodetypes="cc" />
    </g>
  </g>
</svg>
