<?xml version="1.0" encoding="UTF-8" standalone="no"?>
<!-- Created with Inkscape (http://www.inkscape.org/) -->
<svg
   xmlns:textext="http://www.iki.fi/pav/software/textext/"
   xmlns:dc="http://purl.org/dc/elements/1.1/"
   xmlns:cc="http://web.resource.org/cc/"
   xmlns:rdf="http://www.w3.org/1999/02/22-rdf-syntax-ns#"
   xmlns:svg="http://www.w3.org/2000/svg"
   xmlns="http://www.w3.org/2000/svg"
   xmlns:sodipodi="http://sodipodi.sourceforge.net/DTD/sodipodi-0.dtd"
   xmlns:inkscape="http://www.inkscape.org/namespaces/inkscape"
   width="376.79987"
   height="248.03149"
   id="svg2"
   sodipodi:version="0.32"
   inkscape:version="0.45.1"
   sodipodi:docbase="/home/glyg/taf/pres2_nov07/illustrations"
   sodipodi:docname="spindle_machine_naze.svg"
   inkscape:output_extension="org.inkscape.output.svg.inkscape"
   version="1.0">
  <sodipodi:namedview
     id="base"
     pagecolor="#ffffff"
     bordercolor="#666666"
     borderopacity="1.0"
     inkscape:pageopacity="0.0"
     inkscape:pageshadow="2"
     inkscape:zoom="1.979899"
     inkscape:cx="247.67449"
     inkscape:cy="97.827048"
     inkscape:document-units="mm"
     inkscape:current-layer="layer1"
     inkscape:window-width="1274"
     inkscape:window-height="726"
     inkscape:window-x="0"
     inkscape:window-y="24"
     width="10.63413cm"
     height="7cm"
     units="cm"
     showguides="true"
     inkscape:guide-bbox="true" />
  <defs
     id="defs4">
    <marker
       refY="0"
       id="Arrow2Lend"
       refX="0"
       style="overflow:visible"
       orient="auto"
       inkscape:stockid="Arrow2Lend">
      <path
         id="path3203"
         style="font-size:12px;fill-rule:evenodd;stroke-width:0.625;stroke-linejoin:round"
         d="M 8.7185878,4.0337352 L -2.2072895,0.016013256 L 8.7185884,-4.0017078 C 6.97309,-1.6296469 6.9831476,1.6157441 8.7185878,4.0337352 z "
         transform="matrix(-1.1,0,0,-1.1,-1.1,0)" />
    </marker>
    <marker
       refY="0"
       id="Arrow1Lstart"
       refX="0"
       style="overflow:visible"
       orient="auto"
       inkscape:stockid="Arrow1Lstart">
      <path
         id="path3182"
         style="fill-rule:evenodd;stroke:#000000;stroke-width:1pt;marker-start:none"
         d="M 0,0 L 5,-5 L -12.5,0 L 5,5 L 0,0 z "
         transform="matrix(0.8,0,0,0.8,10,0)" />
    </marker>
    <marker
       refY="0"
       id="Arrow1Mend"
       refX="0"
       style="overflow:visible"
       orient="auto"
       inkscape:stockid="Arrow1Mend">
      <path
         id="path3191"
         style="fill-rule:evenodd;stroke:#000000;stroke-width:1pt;marker-start:none"
         d="M 0,0 L 5,-5 L -12.5,0 L 5,5 L 0,0 z "
         transform="matrix(-0.4,0,0,-0.4,-4,0)" />
    </marker>
    <marker
       refY="0"
       id="Arrow1Lend"
       refX="0"
       style="overflow:visible"
       orient="auto"
       inkscape:stockid="Arrow1Lend">
      <path
         id="path3028"
         style="fill-rule:evenodd;stroke:#000000;stroke-width:1pt;marker-start:none"
         d="M 0,0 L 5,-5 L -12.5,0 L 5,5 L 0,0 z "
         transform="matrix(-0.8,0,0,-0.8,-10,0)" />
    </marker>
  </defs>
  <metadata
     id="metadata7">
    <rdf:RDF>
      <cc:Work
         rdf:about="">
        <dc:format>image/svg+xml</dc:format>
        <dc:type
           rdf:resource="http://purl.org/dc/dcmitype/StillImage" />
      </cc:Work>
    </rdf:RDF>
  </metadata>
  <g
     inkscape:label="Calque 1"
     style="display:inline"
     id="layer1"
     inkscape:groupmode="layer"
     transform="translate(-24.557455,-78.468575)">
    <path
       style="fill:none;fill-rule:evenodd;stroke:#000000;stroke-width:1;stroke-linecap:butt;stroke-linejoin:miter;stroke-miterlimit:4;stroke-dasharray:none;stroke-opacity:1"
       d="M 118.85183,199.33862 L 173.33384,191.8607"
       sodipodi:nodetypes="cc"
       id="path2762" />
    <path
       style="fill:none;fill-rule:evenodd;stroke:#000000;stroke-width:1;stroke-linecap:butt;stroke-linejoin:miter;stroke-miterlimit:4;stroke-dasharray:none;stroke-opacity:1"
       d="M 212.59293,191.32655 L 280.96251,199.33862"
       id="path2764" />
    <path
       style="fill:none;fill-rule:evenodd;stroke:#000000;stroke-width:1;stroke-linecap:butt;stroke-linejoin:miter;stroke-miterlimit:4;stroke-dasharray:none;stroke-opacity:1"
       d="M 119.38597,217.23222 L 244.10703,216.69808"
       sodipodi:nodetypes="cc"
       id="path2766" />
    <path
       style="fill:none;fill-rule:evenodd;stroke:#000000;stroke-width:1;stroke-linecap:butt;stroke-linejoin:miter;stroke-miterlimit:4;stroke-dasharray:none;stroke-opacity:1"
       d="M 119.5195,213.76032 L 244.24057,213.22619"
       sodipodi:nodetypes="cc"
       id="path2768" />
    <path
       style="fill:none;fill-rule:evenodd;stroke:#000000;stroke-width:1;stroke-linecap:butt;stroke-linejoin:miter;stroke-miterlimit:4;stroke-dasharray:none;stroke-opacity:1"
       d="M 118.45123,220.97118 L 243.17229,220.43704"
       sodipodi:nodetypes="cc"
       id="path2770" />
    <path
       style="fill:none;fill-rule:evenodd;stroke:#000000;stroke-width:1;stroke-linecap:butt;stroke-linejoin:miter;stroke-miterlimit:4;stroke-dasharray:none;stroke-opacity:1"
       d="M 156.64205,211.62378 L 281.36311,211.08964"
       sodipodi:nodetypes="cc"
       id="path2772" />
    <path
       sodipodi:nodetypes="ccccccccccc"
       style="fill:#76d9da;fill-opacity:1;fill-rule:evenodd;stroke:none;stroke-width:1px;stroke-linecap:butt;stroke-linejoin:miter;stroke-opacity:1"
       d="M 43.94456,151.04136 C 42.79384,140.07723 39.28036,141.64378 39.5195,130.50913 C 40.23165,126.78376 44.49227,124.33711 48.06892,125.64375 C 51.18392,126.56387 51.15362,133.66879 51.25515,136.84979 C 50.82171,143.74855 50.62007,144.12863 51.17551,151.08658 C 50.32551,153.91652 50.76435,158.55763 49.28622,160.92845 C 47.18797,165.03419 48.76693,169.71391 50.04532,173.818 C 50.8514,176.35827 51.88058,179.56937 49.84405,181.81775 C 46.83536,185.38521 40.27952,183.74449 39.04169,179.32461 C 38.00462,173.88093 40.80323,168.40698 44.64685,164.6902 C 45.93226,163.43422 44.15297,164.19173 45.68061,163.24537"
       inkscape:transform-center-y="-7.6794833"
       id="path2810"
       inkscape:transform-center-x="-0.44198814" />
    <path
       style="fill:none;fill-rule:evenodd;stroke:#000000;stroke-width:1;stroke-linecap:butt;stroke-linejoin:miter;stroke-miterlimit:4;stroke-dasharray:none;stroke-opacity:1"
       d="M 156.90912,215.62981 L 281.63018,215.09567"
       sodipodi:nodetypes="cc"
       id="path2774" />
    <path
       style="fill:none;fill-rule:evenodd;stroke:#000000;stroke-width:1;stroke-linecap:butt;stroke-linejoin:miter;stroke-miterlimit:4;stroke-dasharray:none;stroke-opacity:1"
       d="M 157.44325,218.56757 L 282.16431,218.03342"
       sodipodi:nodetypes="cc"
       id="path2776" />
    <path
       style="fill:none;fill-rule:evenodd;stroke:#000000;stroke-width:1;stroke-linecap:butt;stroke-linejoin:miter;stroke-miterlimit:4;stroke-dasharray:none;stroke-opacity:1"
       d="M 120.18718,197.73621 L 174.66918,190.25828"
       sodipodi:nodetypes="cc"
       id="path2814" />
    <path
       inkscape:transform-center-y="-7.6794828"
       style="fill:#76d9da;fill-opacity:1;fill-rule:evenodd;stroke:none;stroke-width:1px;stroke-linecap:butt;stroke-linejoin:miter;stroke-opacity:1"
       d="M 82.499201,154.92909 C 81.348481,143.96497 76.766731,133.51344 77.005861,122.37878 C 77.718011,118.65342 81.978641,116.20676 85.555281,117.5134 C 88.670281,118.43353 90.776541,121.53241 90.878061,124.71342 C 92.848241,131.61217 94.516091,139.20311 91.866701,146.16106 C 91.016701,148.99099 88.250721,150.42728 86.772591,152.7981 C 84.674331,156.90384 86.253291,161.58356 87.531691,165.68765 C 88.337771,168.22792 89.366941,171.43902 87.330421,173.6874 C 84.321721,177.25486 77.765891,175.61414 76.528061,171.19426 C 75.490991,165.75058 78.289591,160.27663 82.133211,156.55985 C 83.418631,155.30387 84.844161,154.1919 86.371801,153.24554"
       inkscape:transform-center-x="-0.44199061"
       id="path2782" />
    <path
       style="fill:none;fill-rule:evenodd;stroke:#000000;stroke-width:1;stroke-linecap:butt;stroke-linejoin:miter;stroke-miterlimit:4;stroke-dasharray:none;stroke-opacity:1"
       d="M 119.92011,196.66793 L 174.40211,189.19001"
       sodipodi:nodetypes="cc"
       id="path2816" />
    <path
       sodipodi:type="arc"
       sodipodi:cx="335.35715"
       style="fill:#dd0f0f;fill-opacity:1;stroke:none;stroke-width:2.67453909;stroke-miterlimit:4;stroke-dasharray:none;stroke-opacity:1"
       sodipodi:open="true"
       transform="matrix(0.3738962,0,0,0.3738962,-42.068467,89.209232)"
       sodipodi:start="3.178431"
       sodipodi:end="9.0974589"
       d="M 320.01042,172.25895 A 15.357142,12.5 0 1 1 320.81535,176.73815"
       sodipodi:cy="172.71933"
       sodipodi:rx="15.357142"
       id="path2778"
       sodipodi:ry="12.5" />
    <path
       sodipodi:type="arc"
       sodipodi:cx="112.14286"
       style="fill:#5dda2a;fill-opacity:1;stroke:none;stroke-width:2;stroke-miterlimit:4;stroke-dasharray:none;stroke-opacity:1"
       sodipodi:open="true"
       transform="matrix(-0.3738962,0,0,0.3738962,149.57377,139.00284)"
       sodipodi:start="3.178431"
       sodipodi:end="9.0974589"
       d="M 77.166606,211.34842 A 35,37.222549 0 1 1 79.001092,224.68659"
       sodipodi:cy="212.71933"
       sodipodi:rx="35"
       id="path1872"
       sodipodi:ry="37.222549" />
    <path
       style="fill:none;fill-rule:evenodd;stroke:#000000;stroke-width:1;stroke-linecap:butt;stroke-linejoin:miter;stroke-miterlimit:4;stroke-dasharray:none;stroke-opacity:1"
       d="M 119.1189,195.06552 L 155.97438,189.72415"
       sodipodi:nodetypes="cc"
       id="path2818" />
    <path
       style="fill:none;fill-rule:evenodd;stroke:#000000;stroke-width:1;stroke-linecap:butt;stroke-linejoin:miter;stroke-miterlimit:4;stroke-dasharray:none;stroke-opacity:1"
       d="M 213.12707,193.19604 L 281.49664,201.2081"
       id="path2820" />
    <path
       style="fill:none;fill-rule:evenodd;stroke:#000000;stroke-width:1;stroke-linecap:butt;stroke-linejoin:miter;stroke-miterlimit:4;stroke-dasharray:none;stroke-opacity:1"
       d="M 213.66121,189.72415 L 282.03078,197.73621"
       id="path2822" />
    <path
       style="fill:none;fill-rule:evenodd;stroke:#000000;stroke-width:1;stroke-linecap:butt;stroke-linejoin:miter;stroke-miterlimit:4;stroke-dasharray:none;stroke-opacity:1"
       d="M 212.86,188.3888 L 281.22958,196.40086"
       id="path2824" />
    <path
       sodipodi:type="arc"
       sodipodi:cx="112.14286"
       style="fill:#5dda2a;fill-opacity:1;stroke:none;stroke-width:2;stroke-miterlimit:4;stroke-dasharray:none;stroke-opacity:1"
       sodipodi:open="true"
       transform="matrix(-0.3738962,0,0,0.196215,356.42422,168.06468)"
       sodipodi:start="3.178431"
       sodipodi:end="9.0974589"
       d="M 77.166606,210.15438 A 35,69.64286 0 1 1 79.001092,235.1099"
       sodipodi:cy="212.71933"
       sodipodi:rx="35"
       id="path2760"
       sodipodi:ry="69.64286" />
    <path
       sodipodi:type="arc"
       sodipodi:cx="335.35715"
       style="fill:#dd0f0f;fill-opacity:1;stroke:none;stroke-width:2.67453909;stroke-miterlimit:4;stroke-dasharray:none;stroke-opacity:1"
       sodipodi:open="true"
       transform="matrix(0.3738962,0,0,0.3738962,-78.370106,97.691052)"
       sodipodi:start="3.178431"
       sodipodi:end="9.0974589"
       d="M 320.01042,172.25895 A 15.357142,12.5 0 1 1 320.81535,176.73815"
       sodipodi:cy="172.71933"
       sodipodi:rx="15.357142"
       id="path2780"
       sodipodi:ry="12.5" />
    <g
       id="g3384"
       transform="matrix(0.3738962,0,0,0.3738962,65.705167,126.88101)">
      <path
         id="path2386"
         sodipodi:nodetypes="ccsccc"
         d="M 185.86807,35.138571 C 160.61426,50.290859 159.13317,54.394161 133.34014,78.575132 C 117.1777,93.727422 76.303135,153.32422 96.974645,146.25535 C 121.34317,137.92224 107.94297,134.65327 130.30968,149.28581 C 142.90872,163.60907 138.05692,137.73044 156.57364,114.94062 C 169.70563,98.778181 206.07112,54.331469 233.34524,45.240096"
         style="fill:none;fill-rule:evenodd;stroke:#fd6f10;stroke-width:3.4000001;stroke-linecap:butt;stroke-linejoin:miter;stroke-miterlimit:4;stroke-dasharray:none;stroke-dashoffset:0;stroke-opacity:1" />
      <path
         id="path3359"
         sodipodi:nodetypes="ccsccc"
         d="M 189.17992,41.666831 C 188.16977,41.666831 166.48563,55.871658 140.6926,80.052629 C 124.53016,95.204919 85.203975,148.19475 104.3271,137.63132 C 117.58395,130.30836 120.34619,130.06985 127.56061,140.66178 C 140.15965,154.98504 136.318,131.12671 154.83472,108.33689 C 167.96671,92.174458 201.30175,50.758203 228.57587,41.66683"
         style="fill:none;fill-rule:evenodd;stroke:#fd6f10;stroke-width:3.4000001;stroke-linecap:butt;stroke-linejoin:miter;stroke-miterlimit:4;stroke-dasharray:none;stroke-dashoffset:0;stroke-opacity:1" />
    </g>
    <g
       id="g3398"
       transform="matrix(-0.3738962,0,0,0.3738962,335.83726,125.96602)">
      <path
         id="path3400"
         sodipodi:nodetypes="ccsccc"
         d="M 185.86807,35.138571 C 160.61426,50.290859 159.13317,54.394161 133.34014,78.575132 C 117.1777,93.727422 76.303135,153.32422 96.974645,146.25535 C 121.34317,137.92224 107.94297,134.65327 130.30968,149.28581 C 142.90872,163.60907 138.05692,137.73044 156.57364,114.94062 C 169.70563,98.778181 206.07112,54.331469 233.34524,45.240096"
         style="fill:none;fill-rule:evenodd;stroke:#fd6f10;stroke-width:3.4000001;stroke-linecap:butt;stroke-linejoin:miter;stroke-miterlimit:4;stroke-dasharray:none;stroke-dashoffset:0;stroke-opacity:1" />
      <path
         id="path3402"
         sodipodi:nodetypes="ccsccc"
         d="M 189.17992,41.666831 C 188.16977,41.666831 166.48563,55.871658 140.6926,80.052629 C 124.53016,95.204919 85.203975,148.19475 104.3271,137.63132 C 117.58395,130.30836 120.34619,130.06985 127.56061,140.66178 C 140.15965,154.98504 136.318,131.12671 154.83472,108.33689 C 167.96671,92.174458 201.30175,50.758203 228.57587,41.66683"
         style="fill:none;fill-rule:evenodd;stroke:#fd6f10;stroke-width:3.4000001;stroke-linecap:butt;stroke-linejoin:miter;stroke-miterlimit:4;stroke-dasharray:none;stroke-dashoffset:0;stroke-opacity:1" />
    </g>
    <g
       id="g2297"
       transform="translate(-2.5253814,-0.5050763)">
      <g
         transform="matrix(0.3738962,0,0,-0.3738962,75.902855,394.45043)"
         id="g3377" />
      <g
         transform="matrix(-0.3738962,0,0,-0.3738962,325.63957,393.53544)"
         id="g3404">
        <g
           id="g2275">
          <g
             id="g2279">
            <path
               sodipodi:nodetypes="czzzsszzzzczzz"
               id="path3372"
               transform="matrix(-2.6745391,0,0,-2.6745391,805.25588,842.65864)"
               d="M 236.64732,195.61607 C 214.40616,218.38012 142.96849,211.99731 126.86596,200.70622 C 110.99725,189.57908 100.05201,172.94385 98.682746,172.88119 C 97.24529,172.81541 94.345888,160.63127 82.496945,157.54211 C 76.572473,155.99753 87.852865,156.91893 91.608638,154.4029 C 99.772101,148.93411 97.871716,144.94736 98.644729,153.95009 C 99.627507,165.39579 98.536776,166.90375 100.80425,170.24096 C 105.17361,176.67165 111.20734,188.52784 132.59051,200.5329 C 153.59076,212.32298 215.98905,209.09007 231.44301,196.29446 C 246.64595,183.70669 261.00698,163.86074 265.99578,153.26675 C 270.88912,142.8755 281.05768,121.31381 279.41244,139.53521 C 282.10988,143.49549 293.02459,150.4131 288.09994,148.74143 C 283.17529,147.06976 276.79385,148.77727 268.95035,156.13055 C 261.10686,163.48383 258.64326,173.103 236.64732,195.61607 z "
               style="fill:none;fill-rule:evenodd;stroke:#fd6f10;stroke-width:1.27124715;stroke-linecap:butt;stroke-linejoin:miter;stroke-miterlimit:4;stroke-dasharray:none;stroke-dashoffset:0;stroke-opacity:1;display:inline" />
          </g>
        </g>
      </g>
    </g>
  </g>
  <g
     inkscape:label="forces"
     id="layer2"
     inkscape:groupmode="layer"
     style="display:inline"
     transform="translate(-24.557455,-78.468575)">
    <path
       style="fill:none;fill-rule:evenodd;stroke:#000000;stroke-width:0.5;stroke-linecap:butt;stroke-linejoin:miter;marker-end:url(#Arrow1Lend);stroke-miterlimit:4;stroke-dasharray:none;stroke-opacity:1"
       d="M 119.8835,190.40368 L 139.37951,188.00006"
       sodipodi:nodetypes="cc"
       id="path3042" />
    <path
       style="fill:none;fill-opacity:1;fill-rule:evenodd;stroke:#000000;stroke-width:0.56084418;stroke-linecap:round;stroke-linejoin:round;marker-end:url(#Arrow2Lend);stroke-miterlimit:4;stroke-dasharray:none;stroke-dashoffset:0;stroke-opacity:1"
       d="M 180.98797,228.35962 L 138.30875,228.35962"
       id="path3379" />
    <path
       style="fill:none;fill-opacity:1;fill-rule:evenodd;stroke:#000000;stroke-width:0.56084418;stroke-linecap:round;stroke-linejoin:round;marker-end:url(#Arrow2Lend);stroke-miterlimit:4;stroke-dasharray:none;stroke-dashoffset:0;stroke-opacity:1"
       d="M 121.93795,206.86081 L 143.4664,206.86081"
       sodipodi:nodetypes="cc"
       id="path3435" />
  </g>
  <g
     inkscape:label="zoom"
     style="display:inline"
     id="layer3"
     inkscape:groupmode="layer"
     transform="translate(-24.557455,-78.468575)">
    <rect
       style="fill:none;fill-opacity:1;stroke:#000000;stroke-width:1;stroke-linecap:round;stroke-linejoin:round;stroke-miterlimit:4;stroke-dasharray:none;stroke-dashoffset:0;stroke-opacity:1"
       y="5.4570508"
       x="37.270206"
       height="14.090755"
       width="17.282906"
       id="rect5645" />
    <path
       style="fill:none;fill-rule:evenodd;stroke:#000000;stroke-width:1px;stroke-linecap:butt;stroke-linejoin:miter;stroke-opacity:1"
       d="M 122.5,30.250287 L 192.5,-38.678289"
       id="path7955"
       sodipodi:nodetypes="cc" />
    <path
       style="fill:none;fill-rule:evenodd;stroke:#000000;stroke-width:1px;stroke-linecap:butt;stroke-linejoin:miter;stroke-opacity:1"
       d="M 162.67858,-3.1425757 L 233.57143,-2.9640057"
       id="path7957"
       sodipodi:nodetypes="cc" />
    <rect
       style="fill:none;fill-opacity:1;stroke:#010401;stroke-width:0.98264128;stroke-linecap:round;stroke-linejoin:round;stroke-miterlimit:4;stroke-dasharray:none;stroke-dashoffset:0;stroke-opacity:1;display:inline"
       y="-10.490601"
       x="257.39978"
       height="83.412735"
       width="149.1805"
       id="rect5667" />
    <path
       style="fill:none;fill-rule:evenodd;stroke:#272dba;stroke-width:3;stroke-linecap:round;stroke-linejoin:miter;marker-mid:none;marker-end:none;stroke-miterlimit:4;stroke-dasharray:6, 3;stroke-dashoffset:0;stroke-opacity:1;display:inline"
       d="M 258.00001,27.75028 L 361.92858,27.75028"
       sodipodi:nodetypes="cc"
       id="path5687" />
    <path
       style="fill:none;fill-rule:evenodd;stroke:#272dba;stroke-width:3;stroke-linecap:round;stroke-linejoin:miter;marker-mid:none;marker-end:none;stroke-miterlimit:4;stroke-dasharray:6, 3;stroke-dashoffset:0;stroke-opacity:1;display:inline"
       d="M 259.07144,67.036 L 351.2143,67.036"
       sodipodi:nodetypes="cc"
       id="path5689" />
    <path
       style="fill:none;fill-rule:evenodd;stroke:#272dba;stroke-width:3;stroke-linecap:round;stroke-linejoin:miter;marker-mid:none;marker-end:none;stroke-miterlimit:4;stroke-dasharray:6, 3;stroke-dashoffset:0;stroke-opacity:1;display:inline"
       d="M 257.64286,3.464569 L 405.5,3.464569"
       sodipodi:nodetypes="cc"
       id="path5691" />
    <g
       style="display:inline"
       id="g2849"
       transform="matrix(1.7938938,0,0,-1.7938938,-234.2206,517.45848)">
      <path
         style="fill:none;fill-rule:evenodd;stroke:#cb5252;stroke-width:0.3320055px;stroke-linecap:butt;stroke-linejoin:miter;stroke-opacity:1"
         id="path2830"
         sodipodi:nodetypes="cccccc"
         d="M 284.0686,285.0718 C 287.14194,287.96036 287.31609,286.1824 286.57877,285.33183 C 286.10679,284.0846 287.24533,283.64218 287.14626,282.17757 C 287.04655,280.2705 287.69873,280.08235 288.10121,278.6598 C 288.83967,278.05433 289.20427,276.32697 288.83376,275.03603 C 288.81231,274.84292 288.8012,274.64446 288.81405,274.44818" />
      <path
         style="fill:none;fill-rule:evenodd;stroke:#cb5252;stroke-width:0.3320055px;stroke-linecap:butt;stroke-linejoin:miter;stroke-opacity:1"
         id="path2843"
         sodipodi:nodetypes="cccccc"
         d="M 291.14019,284.82082 C 288.06684,287.70939 287.8927,285.93142 288.63002,285.08085 C 289.102,283.83362 287.96346,283.3912 288.06252,281.9266 C 288.16224,280.01952 287.51006,279.83137 287.10758,278.40882 C 286.36912,277.80335 286.00452,276.07599 286.37502,274.78506 C 286.39648,274.59195 286.40759,274.39348 286.39474,274.1972" />
      <path
         sodipodi:type="arc"
         sodipodi:cx="296.60715"
         style="fill:#dac676;fill-opacity:1;stroke:none;stroke-width:2;stroke-miterlimit:4;stroke-dasharray:none;stroke-opacity:1"
         sodipodi:open="true"
         transform="matrix(0.433274,0,0,0.433274,159.1665,155.4857)"
         sodipodi:start="3.178431"
         sodipodi:end="9.0974589"
         d="M 293.21659,273.67236 A 3.3928571,3.2142856 0 1 1 293.39442,274.82415"
         sodipodi:cy="273.79074"
         sodipodi:rx="3.3928571"
         id="path2826"
         sodipodi:ry="3.2142856" />
      <path
         sodipodi:type="arc"
         sodipodi:cx="296.60715"
         style="fill:#76a7da;fill-opacity:1;stroke:none;stroke-width:2;stroke-miterlimit:4;stroke-dasharray:none;stroke-opacity:1"
         sodipodi:open="true"
         transform="matrix(0.433274,0,0,0.433274,162.3382,167.0912)"
         sodipodi:start="3.178431"
         sodipodi:end="9.0974589"
         d="M 293.21659,273.67236 A 3.3928571,3.2142856 0 1 1 293.39442,274.82415"
         sodipodi:cy="273.79074"
         sodipodi:rx="3.3928571"
         id="path2845"
         sodipodi:ry="3.2142856" />
      <path
         sodipodi:type="arc"
         sodipodi:cx="296.60715"
         style="fill:#76a7da;fill-opacity:1;stroke:none;stroke-width:2;stroke-miterlimit:4;stroke-dasharray:none;stroke-opacity:1"
         sodipodi:open="true"
         transform="matrix(0.433274,0,0,0.433274,155.9938,167.0912)"
         sodipodi:start="3.178431"
         sodipodi:end="9.0974589"
         d="M 293.21659,273.67236 A 3.3928571,3.2142856 0 1 1 293.39442,274.82415"
         sodipodi:cy="273.79074"
         sodipodi:rx="3.3928571"
         id="path2847"
         sodipodi:ry="3.2142856" />
    </g>
    <path
       style="fill:none;fill-rule:evenodd;stroke:#272dba;stroke-width:3;stroke-linecap:round;stroke-linejoin:miter;marker-mid:none;marker-end:none;stroke-miterlimit:4;stroke-dasharray:6, 3;stroke-dashoffset:0;stroke-opacity:1;display:inline"
       d="M 258.35716,40.25028 L 404.42859,40.25028"
       sodipodi:nodetypes="cc"
       id="path5693" />
    <g
       style="display:inline"
       id="g7881"
       transform="translate(6.4285714,-49.285714)">
      <path
         d="M 304.69857,112.75823 C 310.4332,118.14809 310.75814,114.83053 309.38236,113.24342 C 308.50167,110.91619 310.6261,110.09065 310.44125,107.35776 C 310.25521,103.7993 311.47214,103.44824 312.22314,100.79385 C 313.60104,99.664093 314.28138,96.440938 313.59003,94.032143 C 313.54998,93.671833 313.52926,93.301511 313.55323,92.935259"
         sodipodi:nodetypes="cccccc"
         id="path5657"
         style="fill:none;fill-rule:evenodd;stroke:#65cb52;stroke-width:0.61949986px;stroke-linecap:butt;stroke-linejoin:miter;stroke-opacity:1" />
      <path
         d="M 317.89365,112.28991 C 312.15899,117.67977 311.83408,114.36221 313.20986,112.7751 C 314.09055,110.44786 311.96609,109.62233 312.15093,106.88948 C 312.33701,103.33098 311.12007,102.97992 310.36908,100.32554 C 308.99118,99.195771 308.31085,95.972625 309.00218,93.563857 C 309.04223,93.203511 309.06295,92.833199 309.03896,92.466947"
         sodipodi:nodetypes="cccccc"
         id="path5659"
         style="fill:none;fill-rule:evenodd;stroke:#65cb52;stroke-width:0.61949986px;stroke-linecap:butt;stroke-linejoin:miter;stroke-opacity:1" />
      <path
         sodipodi:ry="3.2142856"
         id="path5661"
         sodipodi:rx="3.3928571"
         sodipodi:cy="273.79074"
         d="M 293.21659,273.67236 A 3.3928571,3.2142856 0 1 1 293.39442,274.82415"
         sodipodi:end="9.0974589"
         sodipodi:start="3.178431"
         transform="matrix(0.8084601,0,0,0.8084601,71.402758,-129.7514)"
         sodipodi:open="true"
         style="fill:#010106;fill-opacity:1;stroke:none;stroke-width:2;stroke-miterlimit:4;stroke-dasharray:none;stroke-opacity:1"
         sodipodi:cx="296.60715"
         sodipodi:type="arc" />
      <path
         sodipodi:ry="3.2142856"
         id="path5663"
         sodipodi:rx="3.3928571"
         sodipodi:cy="273.79074"
         d="M 293.21659,273.67236 A 3.3928571,3.2142856 0 1 1 293.39442,274.82415"
         sodipodi:end="9.0974589"
         sodipodi:start="3.178431"
         transform="matrix(0.8084601,0,0,0.8084601,77.794764,-108.33323)"
         sodipodi:open="true"
         style="fill:#f72f25;fill-opacity:1;stroke:none;stroke-width:2;stroke-miterlimit:4;stroke-dasharray:none;stroke-opacity:1"
         sodipodi:cx="296.60715"
         sodipodi:type="arc" />
      <path
         sodipodi:ry="3.2142856"
         id="path5665"
         sodipodi:rx="3.3928571"
         sodipodi:cy="273.79074"
         d="M 293.21659,273.67236 A 3.3928571,3.2142856 0 1 1 293.39442,274.82415"
         sodipodi:end="9.0974589"
         sodipodi:start="3.178431"
         transform="matrix(0.8084601,0,0,0.8084601,65.956528,-108.33323)"
         sodipodi:open="true"
         style="fill:#f72f25;fill-opacity:1;stroke:none;stroke-width:2;stroke-miterlimit:4;stroke-dasharray:none;stroke-opacity:1"
         sodipodi:cx="296.60715"
         sodipodi:type="arc" />
    </g>
  </g>
  <g
     inkscape:label="legend"
     id="layer4"
     inkscape:groupmode="layer"
     style="display:inline"
     transform="translate(-24.557455,-78.468575)">
    <g
       transform="translate(-358.57143,45.714287)"
       id="g7902">
      <path
         id="path7697"
         d="M 266.1752,145.07367 L 342.44171,145.07367"
         style="fill:none;fill-rule:evenodd;stroke:#000000;stroke-width:0.5;stroke-linecap:butt;stroke-linejoin:miter;marker-start:url(#Arrow1Lstart);marker-end:url(#Arrow1Lend);stroke-miterlimit:4;stroke-dasharray:none;stroke-opacity:1;display:inline" />
      <path
         id="path6723"
         sodipodi:nodetypes="cc"
         d="M 264.64286,89.178854 L 264.64286,150.25028"
         style="fill:none;fill-rule:evenodd;stroke:#000000;stroke-width:1;stroke-linecap:butt;stroke-linejoin:miter;stroke-miterlimit:4;stroke-dasharray:4, 4;stroke-dashoffset:0;stroke-opacity:1;display:inline" />
      <path
         id="path7695"
         sodipodi:nodetypes="cc"
         d="M 346.07143,90.428851 L 346.07143,151.50028"
         style="fill:none;fill-rule:evenodd;stroke:#000000;stroke-width:1;stroke-linecap:butt;stroke-linejoin:miter;stroke-miterlimit:4;stroke-dasharray:4, 4;stroke-dashoffset:0;stroke-opacity:1;display:inline" />
      <g
         style="font-style:normal;font-variant:normal;font-weight:normal;font-stretch:normal;letter-spacing:normal;word-spacing:normal;text-anchor:start;fill:none;fill-opacity:1;stroke:#000000;stroke-linecap:butt;stroke-linejoin:miter;stroke-miterlimit:10.43299961;stroke-dasharray:none;stroke-dashoffset:0;stroke-opacity:1;display:inline"
         font-size-adjust="none"
         xml:space="preserve"
         fill-rule="even-odd"
         letter-spacing="normal"
         font-style="normal"
         word-spacing="normal"
         transform="matrix(1.6271993,0,0,-1.6271993,-65.960487,1314.3631)"
         font-weight="normal"
         textext:preamble="header.inc"
         font-variant="normal"
         id="g7785"
         font-stretch="normal"
         textext:text="$L_i$"
         stroke-miterlimit="10.433">
<path
   style="fill:#000000;stroke-width:0"
   d="M 227.16,713.15 L 227.17,713.18 L 227.18,713.21 L 227.18,713.24 L 227.19,713.27 L 227.2,713.3 L 227.21,713.33 L 227.22,713.35 L 227.23,713.37 L 227.24,713.4 L 227.25,713.42 L 227.27,713.44 L 227.29,713.46 L 227.3,713.47 L 227.32,713.49 L 227.34,713.5 L 227.37,713.52 L 227.4,713.53 L 227.43,713.54 L 227.46,713.55 L 227.49,713.56 L 227.51,713.57 L 227.53,713.57 L 227.55,713.58 L 227.57,713.58 L 227.6,713.59 L 227.62,713.59 L 227.64,713.59 L 227.67,713.6 L 227.69,713.6 L 227.72,713.6 L 227.75,713.6 L 227.78,713.61 L 227.81,713.61 L 227.84,713.61 L 227.87,713.61 L 227.9,713.61 L 227.94,713.61 L 227.97,713.61 L 228.01,713.62 L 228.05,713.62 L 228.09,713.62 L 228.13,713.62 L 228.17,713.62 L 228.21,713.62 C 228.51,713.62 228.59,713.62 228.59,713.81 C 228.59,713.93 228.48,713.93 228.43,713.93 C 228.1,713.93 227.29,713.9 226.96,713.9 C 226.66,713.9 225.93,713.93 225.63,713.93 C 225.56,713.93 225.45,713.93 225.45,713.73 C 225.45,713.62 225.54,713.62 225.72,713.62 C 225.74,713.62 225.93,713.62 226.1,713.6 C 226.28,713.58 226.37,713.57 226.37,713.44 C 226.37,713.4 226.36,713.37 226.33,713.25 L 225,707.9 C 224.9,707.51 224.88,707.43 224.09,707.43 C 223.92,707.43 223.82,707.43 223.82,707.23 C 223.82,707.12 223.91,707.12 224.09,707.12 L 228.7,707.12 C 228.94,707.12 228.95,707.12 229.01,707.29 L 229.8,709.44 C 229.84,709.55 229.84,709.57 229.84,709.58 C 229.84,709.62 229.81,709.69 229.72,709.69 C 229.63,709.69 229.62,709.64 229.55,709.48 C 229.21,708.57 228.77,707.43 227.05,707.43 L 226.11,707.43 C 225.97,707.43 225.95,707.43 225.89,707.44 C 225.79,707.45 225.76,707.46 225.76,707.54 C 225.76,707.57 225.76,707.59 225.81,707.77 L 227.16,713.15 z "
   id="path7787" />
<path
   style="fill:#000000;stroke-width:0"
   d="M 232.47,709.99 L 232.47,710 L 232.47,710.01 L 232.47,710.02 L 232.47,710.03 L 232.47,710.04 L 232.46,710.05 L 232.46,710.07 L 232.46,710.08 L 232.45,710.09 L 232.45,710.1 L 232.44,710.11 L 232.44,710.12 L 232.43,710.13 L 232.42,710.14 L 232.41,710.15 L 232.41,710.16 L 232.4,710.17 L 232.39,710.18 L 232.38,710.19 L 232.37,710.2 L 232.36,710.21 L 232.34,710.21 L 232.33,710.22 L 232.32,710.23 L 232.31,710.23 L 232.29,710.24 L 232.28,710.24 L 232.26,710.25 L 232.24,710.25 L 232.23,710.25 L 232.21,710.25 L 232.19,710.25 C 232.01,710.25 231.8,710.07 231.8,709.87 C 231.8,709.75 231.89,709.6 232.08,709.6 C 232.28,709.6 232.47,709.8 232.47,709.99 z "
   id="path7789" />
<path
   style="fill:#000000;stroke-width:0"
   d="M 231.05,706.45 L 231.04,706.43 L 231.04,706.41 L 231.03,706.38 L 231.02,706.36 L 231.02,706.34 L 231.01,706.33 L 231.01,706.31 L 231,706.29 L 231,706.27 L 231,706.26 L 230.99,706.24 L 230.99,706.23 L 230.99,706.22 L 230.99,706.21 L 230.99,706.2 L 230.99,706.19 L 230.99,706.17 L 230.99,706.16 L 230.99,706.15 C 230.99,705.83 231.27,705.56 231.65,705.56 C 232.35,705.56 232.65,706.52 232.65,706.63 C 232.65,706.72 232.56,706.72 232.54,706.72 C 232.44,706.72 232.44,706.68 232.41,706.6 C 232.25,706.04 231.94,705.76 231.67,705.76 C 231.53,705.76 231.5,705.85 231.5,706 C 231.5,706.16 231.54,706.29 231.61,706.45 C 231.68,706.63 231.75,706.82 231.83,707 C 231.89,707.17 232.14,707.81 232.17,707.89 C 232.19,707.96 232.21,708.04 232.21,708.11 C 232.21,708.44 231.93,708.71 231.55,708.71 C 230.86,708.71 230.54,707.76 230.54,707.64 C 230.54,707.55 230.64,707.55 230.66,707.55 C 230.76,707.55 230.76,707.58 230.78,707.66 C 230.97,708.26 231.27,708.51 231.53,708.51 C 231.64,708.51 231.71,708.45 231.71,708.27 C 231.71,708.11 231.66,708 231.49,707.57 L 231.05,706.45 z "
   id="path7791" />
</g>    </g>
    <g
       textext:preamble="header.inc"
       stroke-miterlimit="10.433"
       id="g5566"
       style="font-style:normal;font-variant:normal;font-weight:normal;font-stretch:normal;letter-spacing:normal;word-spacing:normal;text-anchor:start;fill:none;fill-opacity:1;stroke:#000000;stroke-linecap:butt;stroke-linejoin:miter;stroke-miterlimit:10.43299961;stroke-dasharray:none;stroke-dashoffset:0;stroke-opacity:1;display:inline"
       textext:text="$F_{iMT}$"
       letter-spacing="normal"
       transform="matrix(1.5267104,0,0,-1.5267104,-431.24424,1245.38)"
       word-spacing="normal"
       font-weight="normal"
       fill-rule="even-odd"
       font-variant="normal"
       font-style="normal"
       xml:space="preserve"
       font-stretch="normal"
       font-size-adjust="none">
<path
   style="fill:#000000;stroke-width:0"
   id="path5568"
   d="M 226.45,710.36 L 227.42,710.36 C 228.16,710.36 228.24,710.2 228.24,709.91 C 228.24,709.84 228.24,709.72 228.18,709.42 C 228.15,709.37 228.15,709.33 228.15,709.31 C 228.15,709.23 228.21,709.2 228.26,709.2 C 228.36,709.2 228.36,709.22 228.41,709.4 L 228.96,711.57 C 228.99,711.67 228.99,711.7 228.99,711.72 C 228.99,711.74 228.97,711.84 228.87,711.84 C 228.77,711.84 228.76,711.78 228.72,711.63 C 228.51,710.85 228.28,710.67 227.44,710.67 L 226.53,710.67 L 227.17,713.2 C 227.26,713.55 227.27,713.59 227.71,713.59 L 229.02,713.59 C 230.25,713.59 230.48,713.26 230.48,712.49 C 230.48,712.26 230.48,712.22 230.45,711.95 C 230.43,711.83 230.43,711.8 230.43,711.78 C 230.43,711.72 230.46,711.66 230.55,711.66 C 230.65,711.66 230.66,711.72 230.68,711.91 L 230.88,713.63 C 230.91,713.9 230.87,713.9 230.62,713.9 L 225.73,713.9 C 225.54,713.9 225.43,713.9 225.43,713.7 C 225.43,713.59 225.52,713.59 225.71,713.59 C 226.08,713.59 226.36,713.59 226.36,713.41 C 226.36,713.37 226.36,713.35 226.31,713.17 L 225,707.9 C 224.9,707.51 224.88,707.43 224.09,707.43 C 223.92,707.43 223.81,707.43 223.81,707.24 C 223.81,707.12 223.93,707.12 223.96,707.12 C 224.25,707.12 224.99,707.15 225.28,707.15 C 225.6,707.15 226.43,707.12 226.76,707.12 C 226.85,707.12 226.97,707.12 226.97,707.31 C 226.97,707.39 226.91,707.41 226.91,707.42 C 226.88,707.43 226.86,707.43 226.63,707.43 C 226.41,707.43 226.36,707.43 226.11,707.45 C 225.82,707.48 225.79,707.52 225.79,707.65 C 225.79,707.67 225.79,707.73 225.83,707.88 L 226.45,710.36 z " />
<path
   style="fill:#000000;stroke-width:0"
   id="path5570"
   d="M 232.1,709.99 L 232.1,710 L 232.1,710.01 L 232.09,710.02 L 232.09,710.03 L 232.09,710.04 L 232.09,710.05 L 232.08,710.07 L 232.08,710.08 L 232.08,710.09 L 232.07,710.1 L 232.07,710.11 L 232.06,710.12 L 232.05,710.13 L 232.05,710.14 L 232.04,710.15 L 232.03,710.16 L 232.02,710.17 L 232.01,710.18 L 232,710.19 L 231.99,710.2 L 231.98,710.21 L 231.97,710.21 L 231.96,710.22 L 231.94,710.23 L 231.93,710.23 L 231.92,710.24 L 231.9,710.24 L 231.89,710.25 L 231.87,710.25 L 231.85,710.25 L 231.84,710.25 L 231.82,710.25 C 231.63,710.25 231.43,710.07 231.43,709.87 C 231.43,709.75 231.52,709.6 231.71,709.6 C 231.91,709.6 232.1,709.8 232.1,709.99 z " />
<path
   style="fill:#000000;stroke-width:0"
   id="path5572"
   d="M 230.67,706.45 L 230.67,706.43 L 230.66,706.41 L 230.65,706.38 L 230.65,706.36 L 230.64,706.34 L 230.64,706.33 L 230.63,706.31 L 230.63,706.29 L 230.62,706.27 L 230.62,706.26 L 230.62,706.24 L 230.62,706.23 L 230.62,706.22 L 230.61,706.21 L 230.61,706.2 L 230.61,706.19 L 230.61,706.17 L 230.61,706.16 L 230.61,706.15 C 230.61,705.83 230.89,705.56 231.27,705.56 C 231.97,705.56 232.28,706.52 232.28,706.63 C 232.28,706.72 232.19,706.72 232.17,706.72 C 232.07,706.72 232.06,706.68 232.03,706.6 C 231.87,706.04 231.57,705.76 231.29,705.76 C 231.16,705.76 231.12,705.85 231.12,706 C 231.12,706.16 231.17,706.29 231.23,706.45 C 231.3,706.63 231.38,706.82 231.46,707 C 231.52,707.17 231.77,707.81 231.8,707.89 C 231.82,707.96 231.84,708.04 231.84,708.11 C 231.84,708.44 231.56,708.71 231.18,708.71 C 230.49,708.71 230.16,707.76 230.16,707.64 C 230.16,707.55 230.26,707.55 230.28,707.55 C 230.38,707.55 230.39,707.58 230.41,707.66 C 230.59,708.26 230.9,708.51 231.16,708.51 C 231.27,708.51 231.33,708.45 231.33,708.27 C 231.33,708.11 231.29,708 231.11,707.57 L 230.67,706.45 z " />
<path
   style="fill:#000000;stroke-width:0"
   id="path5574"
   d="M 239.78,709.83 L 239.78,709.85 L 239.79,709.87 L 239.79,709.9 L 239.8,709.92 L 239.81,709.93 L 239.81,709.95 L 239.82,709.97 L 239.82,709.99 L 239.83,710 L 239.84,710.02 L 239.85,710.03 L 239.86,710.04 L 239.87,710.05 L 239.88,710.06 L 239.89,710.07 L 239.9,710.08 L 239.92,710.09 L 239.94,710.1 L 239.95,710.1 L 239.97,710.11 L 239.99,710.12 L 240.01,710.12 L 240.02,710.12 L 240.03,710.12 L 240.04,710.13 L 240.06,710.13 L 240.07,710.13 L 240.08,710.13 L 240.1,710.13 L 240.11,710.13 L 240.13,710.14 L 240.15,710.14 L 240.16,710.14 L 240.18,710.14 L 240.2,710.14 L 240.22,710.14 L 240.24,710.14 L 240.26,710.14 L 240.28,710.14 L 240.3,710.14 L 240.32,710.14 L 240.35,710.14 L 240.37,710.14 C 240.52,710.14 240.61,710.14 240.61,710.29 C 240.61,710.39 240.52,710.39 240.4,710.39 L 239.45,710.39 C 239.25,710.39 239.24,710.39 239.15,710.25 L 236.46,706.28 L 235.77,710.21 C 235.73,710.39 235.73,710.39 235.52,710.39 L 234.53,710.39 C 234.39,710.39 234.3,710.39 234.3,710.24 C 234.3,710.14 234.38,710.14 234.53,710.14 C 234.65,710.14 234.67,710.14 234.8,710.13 C 234.94,710.11 234.95,710.1 234.95,710.03 C 234.95,710.02 234.95,709.98 234.92,709.88 L 234.04,706.38 C 233.98,706.14 233.88,705.9 233.32,705.88 C 233.26,705.88 233.17,705.87 233.17,705.73 C 233.17,705.72 233.18,705.63 233.28,705.63 C 233.49,705.63 233.78,705.66 234,705.66 C 234.17,705.66 234.57,705.63 234.74,705.63 C 234.78,705.63 234.88,705.63 234.88,705.78 C 234.88,705.87 234.79,705.88 234.73,705.88 C 234.28,705.9 234.28,706.08 234.28,706.17 C 234.28,706.2 234.28,706.24 234.31,706.35 L 235.24,710.06 L 235.24,710.06 L 235.99,705.82 C 236.01,705.69 236.03,705.63 236.13,705.63 C 236.23,705.63 236.28,705.71 236.33,705.78 L 239.26,710.13 L 239.27,710.12 L 238.29,706.17 C 238.23,705.94 238.22,705.88 237.67,705.88 C 237.55,705.88 237.46,705.88 237.46,705.73 C 237.46,705.72 237.46,705.63 237.57,705.63 C 237.71,705.63 237.87,705.65 238.01,705.65 C 238.15,705.65 238.31,705.66 238.45,705.66 C 238.64,705.66 239.14,705.63 239.33,705.63 C 239.37,705.63 239.48,705.63 239.48,705.78 C 239.48,705.88 239.39,705.88 239.26,705.88 C 239.25,705.88 239.12,705.88 238.99,705.9 C 238.83,705.91 238.83,705.93 238.83,706 C 238.83,706.04 238.85,706.11 238.86,706.15 L 239.78,709.83 z " />
<path
   style="fill:#000000;stroke-width:0"
   id="path5576"
   d="M 244.39,709.85 L 244.39,709.86 L 244.39,709.87 L 244.39,709.88 L 244.4,709.88 L 244.4,709.89 L 244.4,709.9 L 244.4,709.91 L 244.4,709.92 L 244.41,709.93 L 244.41,709.94 L 244.42,709.96 L 244.42,709.97 L 244.42,709.98 L 244.43,709.99 L 244.43,710 L 244.44,710.01 L 244.44,710.02 L 244.45,710.02 L 244.45,710.03 L 244.46,710.04 L 244.46,710.04 L 244.47,710.05 L 244.47,710.05 L 244.48,710.06 L 244.49,710.06 L 244.49,710.07 L 244.5,710.07 L 244.51,710.07 L 244.52,710.07 L 244.53,710.08 L 244.54,710.08 L 244.55,710.08 L 244.56,710.08 L 244.58,710.08 L 244.59,710.08 L 244.6,710.09 C 244.64,710.09 244.88,710.09 245.02,710.09 C 245.45,710.09 245.63,710.09 245.8,710.04 C 246.12,709.94 246.13,709.74 246.13,709.49 C 246.13,709.38 246.13,709.28 246.08,708.92 L 246.07,708.84 C 246.07,708.78 246.12,708.74 246.19,708.74 C 246.29,708.74 246.3,708.8 246.32,708.91 L 246.51,710.25 C 246.51,710.34 246.42,710.34 246.3,710.34 L 242.01,710.34 C 241.83,710.34 241.82,710.34 241.77,710.2 L 241.33,708.96 C 241.32,708.94 241.3,708.87 241.3,708.84 C 241.3,708.81 241.31,708.74 241.42,708.74 C 241.51,708.74 241.52,708.78 241.56,708.91 C 241.97,710.02 242.2,710.09 243.26,710.09 L 243.55,710.09 C 243.76,710.09 243.77,710.09 243.77,710.02 C 243.77,710.02 243.77,709.98 243.74,709.88 L 242.82,706.21 C 242.76,705.95 242.73,705.88 242,705.88 C 241.75,705.88 241.69,705.88 241.69,705.73 C 241.69,705.71 241.7,705.63 241.81,705.63 C 242,705.63 242.21,705.65 242.41,705.65 C 242.6,705.65 242.81,705.66 243.01,705.66 C 243.2,705.66 243.44,705.66 243.63,705.65 C 243.82,705.64 244.03,705.63 244.22,705.63 C 244.27,705.63 244.38,705.63 244.38,705.78 C 244.38,705.88 244.31,705.88 244.09,705.88 C 243.96,705.88 243.82,705.89 243.69,705.9 C 243.45,705.92 243.44,705.94 243.44,706.03 C 243.44,706.08 243.44,706.09 243.47,706.19 L 244.39,709.85 z " />
</g>    <g
       letter-spacing="normal"
       textext:preamble="header.inc"
       stroke-miterlimit="10.433"
       id="content"
       textext:text="$F_{kMT}$"
       style="font-style:normal;font-variant:normal;font-weight:normal;font-stretch:normal;letter-spacing:normal;word-spacing:normal;text-anchor:start;fill:#00cf10;fill-opacity:1;stroke:#008d09;stroke-linecap:butt;stroke-linejoin:miter;stroke-miterlimit:10.43299961;stroke-dasharray:none;stroke-dashoffset:0;stroke-opacity:1;display:inline"
       transform="matrix(1.4312474,0,0,-1.4312474,-192.05422,1191.4805)"
       word-spacing="normal"
       font-weight="normal"
       fill-rule="even-odd"
       font-variant="normal"
       font-style="normal"
       xml:space="preserve"
       font-stretch="normal"
       font-size-adjust="none">
<path
   style="fill:#00cf10;fill-opacity:1;stroke:#008d09;stroke-width:0;stroke-opacity:1"
   id="path3496"
   d="M 226.45,710.36 L 227.42,710.36 C 228.16,710.36 228.24,710.2 228.24,709.91 C 228.24,709.84 228.24,709.72 228.18,709.42 C 228.15,709.37 228.15,709.33 228.15,709.31 C 228.15,709.23 228.21,709.2 228.26,709.2 C 228.36,709.2 228.36,709.22 228.41,709.4 L 228.96,711.57 C 228.99,711.67 228.99,711.7 228.99,711.72 C 228.99,711.74 228.97,711.84 228.87,711.84 C 228.77,711.84 228.76,711.78 228.72,711.63 C 228.51,710.85 228.28,710.67 227.44,710.67 L 226.53,710.67 L 227.17,713.2 C 227.26,713.55 227.27,713.59 227.71,713.59 L 229.02,713.59 C 230.25,713.59 230.48,713.26 230.48,712.49 C 230.48,712.26 230.48,712.22 230.45,711.95 C 230.43,711.83 230.43,711.8 230.43,711.78 C 230.43,711.72 230.46,711.66 230.55,711.66 C 230.65,711.66 230.66,711.72 230.68,711.91 L 230.88,713.63 C 230.91,713.9 230.87,713.9 230.62,713.9 L 225.73,713.9 C 225.54,713.9 225.43,713.9 225.43,713.7 C 225.43,713.59 225.52,713.59 225.71,713.59 C 226.08,713.59 226.36,713.59 226.36,713.41 C 226.36,713.37 226.36,713.35 226.31,713.17 L 225,707.9 C 224.9,707.51 224.88,707.43 224.09,707.43 C 223.92,707.43 223.81,707.43 223.81,707.24 C 223.81,707.12 223.93,707.12 223.96,707.12 C 224.25,707.12 224.99,707.15 225.28,707.15 C 225.6,707.15 226.43,707.12 226.76,707.12 C 226.85,707.12 226.97,707.12 226.97,707.31 C 226.97,707.39 226.91,707.41 226.91,707.42 C 226.88,707.43 226.86,707.43 226.63,707.43 C 226.41,707.43 226.36,707.43 226.11,707.45 C 225.82,707.48 225.79,707.52 225.79,707.65 C 225.79,707.67 225.79,707.73 225.83,707.88 L 226.45,710.36 z " />
<path
   style="fill:#00cf10;fill-opacity:1;stroke:#008d09;stroke-width:0;stroke-opacity:1"
   id="path3498"
   d="M 232.02,710.26 L 232.02,710.26 L 232.02,710.26 L 232.02,710.26 L 232.02,710.26 L 232.02,710.27 L 232.02,710.27 L 232.02,710.27 L 232.02,710.27 L 232.02,710.27 L 232.03,710.28 L 232.03,710.28 L 232.03,710.28 L 232.03,710.29 L 232.03,710.29 L 232.03,710.3 L 232.03,710.3 L 232.03,710.31 L 232.03,710.31 L 232.04,710.32 L 232.04,710.33 L 232.04,710.33 L 232.04,710.34 L 232.04,710.34 L 232.04,710.35 L 232.04,710.35 L 232.04,710.35 L 232.05,710.36 L 232.05,710.36 L 232.05,710.36 L 232.05,710.36 L 232.05,710.36 L 232.05,710.37 L 232.05,710.37 L 232.05,710.37 L 232.05,710.37 L 232.05,710.37 L 232.05,710.37 L 232.05,710.37 L 232.05,710.37 L 232.05,710.37 C 232.05,710.41 232.02,710.47 231.94,710.47 C 231.8,710.47 231.22,710.41 231.04,710.4 C 230.99,710.39 230.89,710.39 230.89,710.24 C 230.89,710.14 230.99,710.14 231.07,710.14 C 231.41,710.14 231.41,710.09 231.41,710.04 C 231.41,709.99 231.39,709.95 231.38,709.88 L 230.4,705.94 C 230.36,705.81 230.36,705.8 230.36,705.78 C 230.36,705.68 230.44,705.56 230.6,705.56 C 230.79,705.56 230.88,705.7 230.92,705.85 C 230.93,705.88 231.23,707.11 231.26,707.21 C 231.76,707.16 232.15,707 232.15,706.63 C 232.15,706.6 232.15,706.57 232.14,706.49 C 232.11,706.39 232.11,706.35 232.11,706.28 C 232.11,705.78 232.51,705.56 232.85,705.56 C 233.53,705.56 233.74,706.62 233.74,706.63 C 233.74,706.72 233.65,706.72 233.62,706.72 C 233.53,706.72 233.52,706.68 233.49,706.55 C 233.4,706.25 233.21,705.76 232.87,705.76 C 232.68,705.76 232.63,705.93 232.63,706.12 C 232.63,706.24 232.63,706.25 232.67,706.43 C 232.68,706.45 232.7,706.57 232.7,706.65 C 232.7,707.27 231.87,707.37 231.57,707.39 C 231.78,707.51 232.03,707.74 232.15,707.85 C 232.51,708.18 232.86,708.51 233.25,708.51 C 233.33,708.51 233.42,708.49 233.48,708.42 C 233.18,708.37 233.12,708.13 233.12,708.03 C 233.12,707.88 233.23,707.77 233.39,707.77 C 233.58,707.77 233.79,707.92 233.79,708.22 C 233.79,708.45 233.62,708.71 233.26,708.71 C 232.86,708.71 232.49,708.42 232.14,708.09 C 231.85,707.81 231.62,707.6 231.33,707.48 L 232.02,710.26 z " />
<path
   style="fill:#00cf10;fill-opacity:1;stroke:#008d09;stroke-width:0;stroke-opacity:1"
   id="path3500"
   d="M 241.36,709.83 L 241.37,709.85 L 241.37,709.87 L 241.38,709.9 L 241.38,709.92 L 241.39,709.93 L 241.39,709.95 L 241.4,709.97 L 241.41,709.99 L 241.41,710 L 241.42,710.02 L 241.43,710.03 L 241.44,710.04 L 241.45,710.05 L 241.46,710.06 L 241.47,710.07 L 241.49,710.08 L 241.5,710.09 L 241.52,710.1 L 241.54,710.1 L 241.56,710.11 L 241.58,710.12 L 241.59,710.12 L 241.6,710.12 L 241.61,710.12 L 241.62,710.13 L 241.64,710.13 L 241.65,710.13 L 241.67,710.13 L 241.68,710.13 L 241.7,710.13 L 241.71,710.14 L 241.73,710.14 L 241.75,710.14 L 241.76,710.14 L 241.78,710.14 L 241.8,710.14 L 241.82,710.14 L 241.84,710.14 L 241.86,710.14 L 241.88,710.14 L 241.91,710.14 L 241.93,710.14 L 241.95,710.14 C 242.1,710.14 242.19,710.14 242.19,710.29 C 242.19,710.39 242.11,710.39 241.98,710.39 L 241.03,710.39 C 240.83,710.39 240.82,710.39 240.73,710.25 L 238.04,706.28 L 237.35,710.21 C 237.32,710.39 237.32,710.39 237.11,710.39 L 236.11,710.39 C 235.97,710.39 235.88,710.39 235.88,710.24 C 235.88,710.14 235.96,710.14 236.12,710.14 C 236.23,710.14 236.26,710.14 236.38,710.13 C 236.52,710.11 236.53,710.1 236.53,710.03 C 236.53,710.02 236.53,709.98 236.51,709.88 L 235.63,706.38 C 235.57,706.14 235.46,705.9 234.9,705.88 C 234.85,705.88 234.76,705.87 234.76,705.73 C 234.76,705.72 234.76,705.63 234.86,705.63 C 235.07,705.63 235.36,705.66 235.59,705.66 C 235.75,705.66 236.16,705.63 236.32,705.63 C 236.36,705.63 236.46,705.63 236.46,705.78 C 236.46,705.87 236.37,705.88 236.31,705.88 C 235.87,705.9 235.87,706.08 235.87,706.17 C 235.87,706.2 235.87,706.24 235.89,706.35 L 236.82,710.06 L 236.83,710.06 L 237.57,705.82 C 237.59,705.69 237.61,705.63 237.71,705.63 C 237.81,705.63 237.87,705.71 237.91,705.78 L 240.84,710.13 L 240.85,710.12 L 239.87,706.17 C 239.81,705.94 239.8,705.88 239.25,705.88 C 239.13,705.88 239.04,705.88 239.04,705.73 C 239.04,705.72 239.04,705.63 239.16,705.63 C 239.29,705.63 239.45,705.65 239.59,705.65 C 239.73,705.65 239.89,705.66 240.03,705.66 C 240.22,705.66 240.72,705.63 240.91,705.63 C 240.96,705.63 241.06,705.63 241.06,705.78 C 241.06,705.88 240.98,705.88 240.84,705.88 C 240.83,705.88 240.7,705.88 240.57,705.9 C 240.41,705.91 240.41,705.93 240.41,706 C 240.41,706.04 240.43,706.11 240.44,706.15 L 241.36,709.83 z " />
<path
   style="fill:#00cf10;fill-opacity:1;stroke:#008d09;stroke-width:0;stroke-opacity:1"
   id="path3502"
   d="M 245.98,709.85 L 245.98,709.86 L 245.98,709.87 L 245.98,709.88 L 245.99,709.88 L 245.99,709.89 L 245.99,709.9 L 245.99,709.91 L 245.99,709.92 L 246,709.93 L 246,709.94 L 246.01,709.96 L 246.01,709.97 L 246.01,709.98 L 246.02,709.99 L 246.02,710 L 246.03,710.01 L 246.03,710.02 L 246.04,710.02 L 246.04,710.03 L 246.05,710.04 L 246.05,710.04 L 246.06,710.05 L 246.06,710.05 L 246.07,710.06 L 246.08,710.06 L 246.08,710.07 L 246.09,710.07 L 246.1,710.07 L 246.11,710.07 L 246.12,710.08 L 246.13,710.08 L 246.14,710.08 L 246.15,710.08 L 246.17,710.08 L 246.18,710.08 L 246.19,710.09 C 246.23,710.09 246.47,710.09 246.61,710.09 C 247.04,710.09 247.22,710.09 247.39,710.04 C 247.71,709.94 247.72,709.74 247.72,709.49 C 247.72,709.38 247.72,709.28 247.67,708.92 L 247.66,708.84 C 247.66,708.78 247.71,708.74 247.78,708.74 C 247.88,708.74 247.9,708.8 247.91,708.91 L 248.1,710.25 C 248.1,710.34 248.01,710.34 247.89,710.34 L 243.6,710.34 C 243.42,710.34 243.41,710.34 243.36,710.2 L 242.92,708.96 C 242.91,708.94 242.89,708.87 242.89,708.84 C 242.89,708.81 242.9,708.74 243.01,708.74 C 243.1,708.74 243.11,708.78 243.15,708.91 C 243.56,710.02 243.79,710.09 244.85,710.09 L 245.14,710.09 C 245.35,710.09 245.36,710.09 245.36,710.02 C 245.36,710.02 245.36,709.98 245.33,709.88 L 244.41,706.21 C 244.35,705.95 244.32,705.88 243.59,705.88 C 243.34,705.88 243.28,705.88 243.28,705.73 C 243.28,705.71 243.29,705.63 243.4,705.63 C 243.59,705.63 243.8,705.65 244,705.65 C 244.19,705.65 244.4,705.66 244.6,705.66 C 244.79,705.66 245.03,705.66 245.22,705.65 C 245.41,705.64 245.62,705.63 245.81,705.63 C 245.87,705.63 245.97,705.63 245.97,705.78 C 245.97,705.88 245.9,705.88 245.68,705.88 C 245.55,705.88 245.41,705.89 245.28,705.9 C 245.04,705.92 245.03,705.94 245.03,706.03 C 245.03,706.08 245.03,706.09 245.06,706.19 L 245.98,709.85 z " />
</g>  </g>
</svg>
