<?xml version="1.0" standalone="no"?>
<!DOCTYPE svg PUBLIC "-//W3C//DTD SVG 1.1//EN"
  "http://www.w3.org/Graphics/SVG/1.1/DTD/svg11.dtd">
<!-- Created with matplotlib (http://matplotlib.sourceforge.net/) -->
<svg width="576pt" height="432pt" viewBox="0 0 576 432"
   xmlns="http://www.w3.org/2000/svg"
   xmlns:xlink="http://www.w3.org/1999/xlink"
   version="1.1"
   id="svg1">
<g id="figure1">
<polygon style="fill: #ffffff; stroke: #ffffff; stroke-width: 1.0; stroke-linejoin: miter; stroke-linecap: square;  opacity: 1.0"  points = "0.0,432.0 0.0,0.0 576.0,0.0 576.0,432.0"/>
<g id="axes1">
<polygon style="fill: #ffffff; stroke: #000000; stroke-width: 1.0; stroke-linejoin: miter; stroke-linecap: square;  opacity: 1.0"  points = "72.0,388.8 72.0,43.2 518.4,43.2 518.4,388.8"/>
<defs>
    <clipPath id="-1250928610">
    <rect x="72.0" y="43.2" width="446.4" height="345.6"
    style="stroke: gray; fill: none;"/>
    </clipPath>
</defs>
<polygon style="fill: #808080; stroke: #000000; stroke-width: 1.0; stroke-linejoin: miter; stroke-linecap: square;  opacity: 1.0" clip-path="url(#-1250928610)" points = "72.0,388.8 72.0,202.176 104.269879518,202.176 104.269879518,388.8"/>
<polygon style="fill: #808080; stroke: #000000; stroke-width: 1.0; stroke-linejoin: miter; stroke-linecap: square;  opacity: 1.0" clip-path="url(#-1250928610)" points = "104.836017755,388.8 104.836017755,340.416 137.105897273,340.416 137.105897273,388.8"/>
<polygon style="fill: #808080; stroke: #000000; stroke-width: 1.0; stroke-linejoin: miter; stroke-linecap: square;  opacity: 1.0" clip-path="url(#-1250928610)" points = "137.67203551,388.8 137.67203551,374.976 169.941915029,374.976 169.941915029,388.8"/>
<polygon style="fill: #808080; stroke: #000000; stroke-width: 1.0; stroke-linejoin: miter; stroke-linecap: square;  opacity: 1.0" clip-path="url(#-1250928610)" points = "170.508053266,388.8 170.508053266,354.24 202.777932784,354.24 202.777932784,388.8"/>
<polygon style="fill: #808080; stroke: #000000; stroke-width: 1.0; stroke-linejoin: miter; stroke-linecap: square;  opacity: 1.0" clip-path="url(#-1250928610)" points = "203.344071021,388.8 203.344071021,361.152 235.613950539,361.152 235.613950539,388.8"/>
<polygon style="fill: #808080; stroke: #000000; stroke-width: 1.0; stroke-linejoin: miter; stroke-linecap: square;  opacity: 1.0" clip-path="url(#-1250928610)" points = "236.180088776,388.8 236.180088776,381.888 268.449968294,381.888 268.449968294,388.8"/>
<polygon style="fill: #808080; stroke: #000000; stroke-width: 1.0; stroke-linejoin: miter; stroke-linecap: square;  opacity: 1.0" clip-path="url(#-1250928610)" points = "269.016106531,388.8 269.016106531,388.8 301.285986049,388.8 301.285986049,388.8"/>
<polygon style="fill: #808080; stroke: #000000; stroke-width: 1.0; stroke-linejoin: miter; stroke-linecap: square;  opacity: 1.0" clip-path="url(#-1250928610)" points = "301.852124287,388.8 301.852124287,374.976 334.122003805,374.976 334.122003805,388.8"/>
<polygon style="fill: #808080; stroke: #000000; stroke-width: 1.0; stroke-linejoin: miter; stroke-linecap: square;  opacity: 1.0" clip-path="url(#-1250928610)" points = "334.688142042,388.8 334.688142042,388.8 366.95802156,388.8 366.95802156,388.8"/>
<polygon style="fill: #808080; stroke: #000000; stroke-width: 1.0; stroke-linejoin: miter; stroke-linecap: square;  opacity: 1.0" clip-path="url(#-1250928610)" points = "367.524159797,388.8 367.524159797,381.888 399.794039315,381.888 399.794039315,388.8"/>
<polygon style="fill: #808080; stroke: #000000; stroke-width: 1.0; stroke-linejoin: miter; stroke-linecap: square;  opacity: 1.0" clip-path="url(#-1250928610)" points = "400.360177552,388.8 400.360177552,381.888 432.63005707,381.888 432.63005707,388.8"/>
<polygon style="fill: #808080; stroke: #000000; stroke-width: 1.0; stroke-linejoin: miter; stroke-linecap: square;  opacity: 1.0" clip-path="url(#-1250928610)" points = "433.196195308,388.8 433.196195308,388.8 465.466074826,388.8 465.466074826,388.8"/>
<polygon style="fill: #808080; stroke: #000000; stroke-width: 1.0; stroke-linejoin: miter; stroke-linecap: square;  opacity: 1.0" clip-path="url(#-1250928610)" points = "466.032213063,388.8 466.032213063,388.8 498.302092581,388.8 498.302092581,388.8"/>
<polygon style="fill: #808080; stroke: #000000; stroke-width: 1.0; stroke-linejoin: miter; stroke-linecap: square;  opacity: 1.0" clip-path="url(#-1250928610)" points = "498.868230818,388.8 498.868230818,388.8 531.138110336,388.8 531.138110336,388.8"/>
<polygon style="fill: #808080; stroke: #000000; stroke-width: 1.0; stroke-linejoin: miter; stroke-linecap: square;  opacity: 1.0" clip-path="url(#-1250928610)" points = "531.704248573,388.8 531.704248573,388.8 563.974128091,388.8 563.974128091,388.8"/>
<polygon style="fill: #808080; stroke: #000000; stroke-width: 1.0; stroke-linejoin: miter; stroke-linecap: square;  opacity: 1.0" clip-path="url(#-1250928610)" points = "564.540266328,388.8 564.540266328,388.8 596.810145847,388.8 596.810145847,388.8"/>
<polygon style="fill: #808080; stroke: #000000; stroke-width: 1.0; stroke-linejoin: miter; stroke-linecap: square;  opacity: 1.0" clip-path="url(#-1250928610)" points = "597.376284084,388.8 597.376284084,388.8 629.646163602,388.8 629.646163602,388.8"/>
<polygon style="fill: #808080; stroke: #000000; stroke-width: 1.0; stroke-linejoin: miter; stroke-linecap: square;  opacity: 1.0" clip-path="url(#-1250928610)" points = "630.212301839,388.8 630.212301839,388.8 662.482181357,388.8 662.482181357,388.8"/>
<polygon style="fill: #808080; stroke: #000000; stroke-width: 1.0; stroke-linejoin: miter; stroke-linecap: square;  opacity: 1.0" clip-path="url(#-1250928610)" points = "663.048319594,388.8 663.048319594,388.8 695.318199112,388.8 695.318199112,388.8"/>
<polygon style="fill: #ffffff; stroke: #000000; stroke-width: 1.0; stroke-linejoin: miter; stroke-linecap: square;  opacity: 1.0" clip-path="url(#-1250928610)" points = "72.0,202.176 72.0,146.88 104.269879518,146.88 104.269879518,202.176"/>
<polygon style="fill: #ffffff; stroke: #000000; stroke-width: 1.0; stroke-linejoin: miter; stroke-linecap: square;  opacity: 1.0" clip-path="url(#-1250928610)" points = "104.836017755,340.416 104.836017755,278.208 137.105897273,278.208 137.105897273,340.416"/>
<polygon style="fill: #ffffff; stroke: #000000; stroke-width: 1.0; stroke-linejoin: miter; stroke-linecap: square;  opacity: 1.0" clip-path="url(#-1250928610)" points = "137.67203551,374.976 137.67203551,333.504 169.941915029,333.504 169.941915029,374.976"/>
<polygon style="fill: #ffffff; stroke: #000000; stroke-width: 1.0; stroke-linejoin: miter; stroke-linecap: square;  opacity: 1.0" clip-path="url(#-1250928610)" points = "170.508053266,354.24 170.508053266,305.856 202.777932784,305.856 202.777932784,354.24"/>
<polygon style="fill: #ffffff; stroke: #000000; stroke-width: 1.0; stroke-linejoin: miter; stroke-linecap: square;  opacity: 1.0" clip-path="url(#-1250928610)" points = "203.344071021,361.152 203.344071021,340.416 235.613950539,340.416 235.613950539,361.152"/>
<polygon style="fill: #ffffff; stroke: #000000; stroke-width: 1.0; stroke-linejoin: miter; stroke-linecap: square;  opacity: 1.0" clip-path="url(#-1250928610)" points = "236.180088776,381.888 236.180088776,340.416 268.449968294,340.416 268.449968294,381.888"/>
<polygon style="fill: #ffffff; stroke: #000000; stroke-width: 1.0; stroke-linejoin: miter; stroke-linecap: square;  opacity: 1.0" clip-path="url(#-1250928610)" points = "269.016106531,388.8 269.016106531,388.8 301.285986049,388.8 301.285986049,388.8"/>
<polygon style="fill: #ffffff; stroke: #000000; stroke-width: 1.0; stroke-linejoin: miter; stroke-linecap: square;  opacity: 1.0" clip-path="url(#-1250928610)" points = "301.852124287,374.976 301.852124287,368.064 334.122003805,368.064 334.122003805,374.976"/>
<polygon style="fill: #ffffff; stroke: #000000; stroke-width: 1.0; stroke-linejoin: miter; stroke-linecap: square;  opacity: 1.0" clip-path="url(#-1250928610)" points = "334.688142042,388.8 334.688142042,347.328 366.95802156,347.328 366.95802156,388.8"/>
<polygon style="fill: #ffffff; stroke: #000000; stroke-width: 1.0; stroke-linejoin: miter; stroke-linecap: square;  opacity: 1.0" clip-path="url(#-1250928610)" points = "367.524159797,381.888 367.524159797,368.064 399.794039315,368.064 399.794039315,381.888"/>
<polygon style="fill: #ffffff; stroke: #000000; stroke-width: 1.0; stroke-linejoin: miter; stroke-linecap: square;  opacity: 1.0" clip-path="url(#-1250928610)" points = "400.360177552,381.888 400.360177552,374.976 432.63005707,374.976 432.63005707,381.888"/>
<polygon style="fill: #ffffff; stroke: #000000; stroke-width: 1.0; stroke-linejoin: miter; stroke-linecap: square;  opacity: 1.0" clip-path="url(#-1250928610)" points = "433.196195308,388.8 433.196195308,388.8 465.466074826,388.8 465.466074826,388.8"/>
<polygon style="fill: #ffffff; stroke: #000000; stroke-width: 1.0; stroke-linejoin: miter; stroke-linecap: square;  opacity: 1.0" clip-path="url(#-1250928610)" points = "466.032213063,388.8 466.032213063,388.8 498.302092581,388.8 498.302092581,388.8"/>
<polygon style="fill: #ffffff; stroke: #000000; stroke-width: 1.0; stroke-linejoin: miter; stroke-linecap: square;  opacity: 1.0" clip-path="url(#-1250928610)" points = "498.868230818,388.8 498.868230818,381.888 531.138110336,381.888 531.138110336,388.8"/>
<polygon style="fill: #ffffff; stroke: #000000; stroke-width: 1.0; stroke-linejoin: miter; stroke-linecap: square;  opacity: 1.0" clip-path="url(#-1250928610)" points = "531.704248573,388.8 531.704248573,388.8 563.974128091,388.8 563.974128091,388.8"/>
<polygon style="fill: #ffffff; stroke: #000000; stroke-width: 1.0; stroke-linejoin: miter; stroke-linecap: square;  opacity: 1.0" clip-path="url(#-1250928610)" points = "564.540266328,388.8 564.540266328,388.8 596.810145847,388.8 596.810145847,388.8"/>
<polygon style="fill: #ffffff; stroke: #000000; stroke-width: 1.0; stroke-linejoin: miter; stroke-linecap: square;  opacity: 1.0" clip-path="url(#-1250928610)" points = "597.376284084,388.8 597.376284084,388.8 629.646163602,388.8 629.646163602,388.8"/>
<polygon style="fill: #ffffff; stroke: #000000; stroke-width: 1.0; stroke-linejoin: miter; stroke-linecap: square;  opacity: 1.0" clip-path="url(#-1250928610)" points = "630.212301839,388.8 630.212301839,388.8 662.482181357,388.8 662.482181357,388.8"/>
<polygon style="fill: #ffffff; stroke: #000000; stroke-width: 1.0; stroke-linejoin: miter; stroke-linecap: square;  opacity: 1.0" clip-path="url(#-1250928610)" points = "663.048319594,388.8 663.048319594,388.8 695.318199112,388.8 695.318199112,388.8"/>
<g id="linecollection1">
<path style="fill: none; stroke: #000000; stroke-width: 1.0; stroke-linejoin: miter; stroke-linecap: butt;  opacity: 1.0" clip-path="url(#-1250928610)" d="M88.134939759,162.207269216L88.134939759,131.552730784"/>
<path style="fill: none; stroke: #000000; stroke-width: 1.0; stroke-linejoin: miter; stroke-linecap: butt;  opacity: 1.0" clip-path="url(#-1250928610)" d="M120.970957514,303.946861906L120.970957514,252.469138094"/>
<path style="fill: none; stroke: #000000; stroke-width: 1.0; stroke-linejoin: miter; stroke-linecap: butt;  opacity: 1.0" clip-path="url(#-1250928610)" d="M153.806975269,353.953127691L153.806975269,313.054872309"/>
<path style="fill: none; stroke: #000000; stroke-width: 1.0; stroke-linejoin: miter; stroke-linecap: butt;  opacity: 1.0" clip-path="url(#-1250928610)" d="M186.642993025,327.532032L186.642993025,284.179968"/>
<path style="fill: none; stroke: #000000; stroke-width: 1.0; stroke-linejoin: miter; stroke-linecap: butt;  opacity: 1.0" clip-path="url(#-1250928610)" d="M219.47901078,355.971479327L219.47901078,324.860520673"/>
<path style="fill: none; stroke: #000000; stroke-width: 1.0; stroke-linejoin: miter; stroke-linecap: butt;  opacity: 1.0" clip-path="url(#-1250928610)" d="M252.315028535,364.308848122L252.315028535,316.523151878"/>
<path style="fill: none; stroke: #000000; stroke-width: 1.0; stroke-linejoin: miter; stroke-linecap: butt;  opacity: 1.0" clip-path="url(#-1250928610)" d="M285.15104629,402.073804512L285.15104629,375.526195488"/>
<path style="fill: none; stroke: #000000; stroke-width: 1.0; stroke-linejoin: miter; stroke-linecap: butt;  opacity: 1.0" clip-path="url(#-1250928610)" d="M317.987064046,381.337804512L317.987064046,354.790195488"/>
<path style="fill: none; stroke: #000000; stroke-width: 1.0; stroke-linejoin: miter; stroke-linecap: butt;  opacity: 1.0" clip-path="url(#-1250928610)" d="M350.823081801,367.777127691L350.823081801,326.878872309"/>
<path style="fill: none; stroke: #000000; stroke-width: 1.0; stroke-linejoin: miter; stroke-linecap: butt;  opacity: 1.0" clip-path="url(#-1250928610)" d="M383.659099556,386.835994365L383.659099556,349.292005635"/>
<path style="fill: none; stroke: #000000; stroke-width: 1.0; stroke-linejoin: miter; stroke-linecap: butt;  opacity: 1.0" clip-path="url(#-1250928610)" d="M416.495117311,386.648900468L416.495117311,363.303099532"/>
<path style="fill: none; stroke: #000000; stroke-width: 1.0; stroke-linejoin: miter; stroke-linecap: butt;  opacity: 1.0" clip-path="url(#-1250928610)" d="M449.331135067,394.109521805L449.331135067,383.490478195"/>
<path style="fill: none; stroke: #000000; stroke-width: 1.0; stroke-linejoin: miter; stroke-linecap: butt;  opacity: 1.0" clip-path="url(#-1250928610)" d="M482.167152822,394.109521805L482.167152822,383.490478195"/>
<path style="fill: none; stroke: #000000; stroke-width: 1.0; stroke-linejoin: miter; stroke-linecap: butt;  opacity: 1.0" clip-path="url(#-1250928610)" d="M515.003170577,387.197521805L515.003170577,376.578478195"/>
<path style="fill: none; stroke: #000000; stroke-width: 1.0; stroke-linejoin: miter; stroke-linecap: butt;  opacity: 1.0" clip-path="url(#-1250928610)" d="M547.839188332,388.8L547.839188332,388.8"/>
<path style="fill: none; stroke: #000000; stroke-width: 1.0; stroke-linejoin: miter; stroke-linecap: butt;  opacity: 1.0" clip-path="url(#-1250928610)" d="M580.675206088,388.8L580.675206088,388.8"/>
<path style="fill: none; stroke: #000000; stroke-width: 1.0; stroke-linejoin: miter; stroke-linecap: butt;  opacity: 1.0" clip-path="url(#-1250928610)" d="M613.511223843,388.8L613.511223843,388.8"/>
<path style="fill: none; stroke: #000000; stroke-width: 1.0; stroke-linejoin: miter; stroke-linecap: butt;  opacity: 1.0" clip-path="url(#-1250928610)" d="M646.347241598,388.8L646.347241598,388.8"/>
<path style="fill: none; stroke: #000000; stroke-width: 1.0; stroke-linejoin: miter; stroke-linecap: butt;  opacity: 1.0" clip-path="url(#-1250928610)" d="M679.183259353,399.41904361L679.183259353,378.18095639"/>
</g>
<path style="fill: none; stroke: #000000; stroke-width: 0.5; stroke-linejoin: miter; stroke-linecap: butt;  opacity: 1.0" clip-path="url(#-1250928610)" d="M85.134939759,162.207269216L91.134939759,162.207269216"/>
<path style="fill: none; stroke: #000000; stroke-width: 0.5; stroke-linejoin: miter; stroke-linecap: butt;  opacity: 1.0" clip-path="url(#-1250928610)" d="M117.970957514,303.946861906L123.970957514,303.946861906"/>
<path style="fill: none; stroke: #000000; stroke-width: 0.5; stroke-linejoin: miter; stroke-linecap: butt;  opacity: 1.0" clip-path="url(#-1250928610)" d="M150.806975269,353.953127691L156.806975269,353.953127691"/>
<path style="fill: none; stroke: #000000; stroke-width: 0.5; stroke-linejoin: miter; stroke-linecap: butt;  opacity: 1.0" clip-path="url(#-1250928610)" d="M183.642993025,327.532032L189.642993025,327.532032"/>
<path style="fill: none; stroke: #000000; stroke-width: 0.5; stroke-linejoin: miter; stroke-linecap: butt;  opacity: 1.0" clip-path="url(#-1250928610)" d="M216.47901078,355.971479327L222.47901078,355.971479327"/>
<path style="fill: none; stroke: #000000; stroke-width: 0.5; stroke-linejoin: miter; stroke-linecap: butt;  opacity: 1.0" clip-path="url(#-1250928610)" d="M249.315028535,364.308848122L255.315028535,364.308848122"/>
<path style="fill: none; stroke: #000000; stroke-width: 0.5; stroke-linejoin: miter; stroke-linecap: butt;  opacity: 1.0" clip-path="url(#-1250928610)" d="M282.15104629,402.073804512L288.15104629,402.073804512"/>
<path style="fill: none; stroke: #000000; stroke-width: 0.5; stroke-linejoin: miter; stroke-linecap: butt;  opacity: 1.0" clip-path="url(#-1250928610)" d="M314.987064046,381.337804512L320.987064046,381.337804512"/>
<path style="fill: none; stroke: #000000; stroke-width: 0.5; stroke-linejoin: miter; stroke-linecap: butt;  opacity: 1.0" clip-path="url(#-1250928610)" d="M347.823081801,367.777127691L353.823081801,367.777127691"/>
<path style="fill: none; stroke: #000000; stroke-width: 0.5; stroke-linejoin: miter; stroke-linecap: butt;  opacity: 1.0" clip-path="url(#-1250928610)" d="M380.659099556,386.835994365L386.659099556,386.835994365"/>
<path style="fill: none; stroke: #000000; stroke-width: 0.5; stroke-linejoin: miter; stroke-linecap: butt;  opacity: 1.0" clip-path="url(#-1250928610)" d="M413.495117311,386.648900468L419.495117311,386.648900468"/>
<path style="fill: none; stroke: #000000; stroke-width: 0.5; stroke-linejoin: miter; stroke-linecap: butt;  opacity: 1.0" clip-path="url(#-1250928610)" d="M446.331135067,394.109521805L452.331135067,394.109521805"/>
<path style="fill: none; stroke: #000000; stroke-width: 0.5; stroke-linejoin: miter; stroke-linecap: butt;  opacity: 1.0" clip-path="url(#-1250928610)" d="M479.167152822,394.109521805L485.167152822,394.109521805"/>
<path style="fill: none; stroke: #000000; stroke-width: 0.5; stroke-linejoin: miter; stroke-linecap: butt;  opacity: 1.0" clip-path="url(#-1250928610)" d="M512.003170577,387.197521805L518.003170577,387.197521805"/>
<path style="fill: none; stroke: #000000; stroke-width: 0.5; stroke-linejoin: miter; stroke-linecap: butt;  opacity: 1.0" clip-path="url(#-1250928610)" d="M544.839188332,388.8L550.839188332,388.8"/>
<path style="fill: none; stroke: #000000; stroke-width: 0.5; stroke-linejoin: miter; stroke-linecap: butt;  opacity: 1.0" clip-path="url(#-1250928610)" d="M577.675206088,388.8L583.675206088,388.8"/>
<path style="fill: none; stroke: #000000; stroke-width: 0.5; stroke-linejoin: miter; stroke-linecap: butt;  opacity: 1.0" clip-path="url(#-1250928610)" d="M610.511223843,388.8L616.511223843,388.8"/>
<path style="fill: none; stroke: #000000; stroke-width: 0.5; stroke-linejoin: miter; stroke-linecap: butt;  opacity: 1.0" clip-path="url(#-1250928610)" d="M643.347241598,388.8L649.347241598,388.8"/>
<path style="fill: none; stroke: #000000; stroke-width: 0.5; stroke-linejoin: miter; stroke-linecap: butt;  opacity: 1.0" clip-path="url(#-1250928610)" d="M676.183259353,399.41904361L682.183259353,399.41904361"/>
<path style="fill: none; stroke: #000000; stroke-width: 0.5; stroke-linejoin: miter; stroke-linecap: butt;  opacity: 1.0" clip-path="url(#-1250928610)" d="M85.134939759,131.552730784L91.134939759,131.552730784"/>
<path style="fill: none; stroke: #000000; stroke-width: 0.5; stroke-linejoin: miter; stroke-linecap: butt;  opacity: 1.0" clip-path="url(#-1250928610)" d="M117.970957514,252.469138094L123.970957514,252.469138094"/>
<path style="fill: none; stroke: #000000; stroke-width: 0.5; stroke-linejoin: miter; stroke-linecap: butt;  opacity: 1.0" clip-path="url(#-1250928610)" d="M150.806975269,313.054872309L156.806975269,313.054872309"/>
<path style="fill: none; stroke: #000000; stroke-width: 0.5; stroke-linejoin: miter; stroke-linecap: butt;  opacity: 1.0" clip-path="url(#-1250928610)" d="M183.642993025,284.179968L189.642993025,284.179968"/>
<path style="fill: none; stroke: #000000; stroke-width: 0.5; stroke-linejoin: miter; stroke-linecap: butt;  opacity: 1.0" clip-path="url(#-1250928610)" d="M216.47901078,324.860520673L222.47901078,324.860520673"/>
<path style="fill: none; stroke: #000000; stroke-width: 0.5; stroke-linejoin: miter; stroke-linecap: butt;  opacity: 1.0" clip-path="url(#-1250928610)" d="M249.315028535,316.523151878L255.315028535,316.523151878"/>
<path style="fill: none; stroke: #000000; stroke-width: 0.5; stroke-linejoin: miter; stroke-linecap: butt;  opacity: 1.0" clip-path="url(#-1250928610)" d="M282.15104629,375.526195488L288.15104629,375.526195488"/>
<path style="fill: none; stroke: #000000; stroke-width: 0.5; stroke-linejoin: miter; stroke-linecap: butt;  opacity: 1.0" clip-path="url(#-1250928610)" d="M314.987064046,354.790195488L320.987064046,354.790195488"/>
<path style="fill: none; stroke: #000000; stroke-width: 0.5; stroke-linejoin: miter; stroke-linecap: butt;  opacity: 1.0" clip-path="url(#-1250928610)" d="M347.823081801,326.878872309L353.823081801,326.878872309"/>
<path style="fill: none; stroke: #000000; stroke-width: 0.5; stroke-linejoin: miter; stroke-linecap: butt;  opacity: 1.0" clip-path="url(#-1250928610)" d="M380.659099556,349.292005635L386.659099556,349.292005635"/>
<path style="fill: none; stroke: #000000; stroke-width: 0.5; stroke-linejoin: miter; stroke-linecap: butt;  opacity: 1.0" clip-path="url(#-1250928610)" d="M413.495117311,363.303099532L419.495117311,363.303099532"/>
<path style="fill: none; stroke: #000000; stroke-width: 0.5; stroke-linejoin: miter; stroke-linecap: butt;  opacity: 1.0" clip-path="url(#-1250928610)" d="M446.331135067,383.490478195L452.331135067,383.490478195"/>
<path style="fill: none; stroke: #000000; stroke-width: 0.5; stroke-linejoin: miter; stroke-linecap: butt;  opacity: 1.0" clip-path="url(#-1250928610)" d="M479.167152822,383.490478195L485.167152822,383.490478195"/>
<path style="fill: none; stroke: #000000; stroke-width: 0.5; stroke-linejoin: miter; stroke-linecap: butt;  opacity: 1.0" clip-path="url(#-1250928610)" d="M512.003170577,376.578478195L518.003170577,376.578478195"/>
<path style="fill: none; stroke: #000000; stroke-width: 0.5; stroke-linejoin: miter; stroke-linecap: butt;  opacity: 1.0" clip-path="url(#-1250928610)" d="M544.839188332,388.8L550.839188332,388.8"/>
<path style="fill: none; stroke: #000000; stroke-width: 0.5; stroke-linejoin: miter; stroke-linecap: butt;  opacity: 1.0" clip-path="url(#-1250928610)" d="M577.675206088,388.8L583.675206088,388.8"/>
<path style="fill: none; stroke: #000000; stroke-width: 0.5; stroke-linejoin: miter; stroke-linecap: butt;  opacity: 1.0" clip-path="url(#-1250928610)" d="M610.511223843,388.8L616.511223843,388.8"/>
<path style="fill: none; stroke: #000000; stroke-width: 0.5; stroke-linejoin: miter; stroke-linecap: butt;  opacity: 1.0" clip-path="url(#-1250928610)" d="M643.347241598,388.8L649.347241598,388.8"/>
<path style="fill: none; stroke: #000000; stroke-width: 0.5; stroke-linejoin: miter; stroke-linecap: butt;  opacity: 1.0" clip-path="url(#-1250928610)" d="M676.183259353,378.18095639L682.183259353,378.18095639"/>
<g id="matplotlib.axis1">
<g id="xtick1">
<path style="fill: none; stroke: #000000; stroke-width: 0.5; stroke-linejoin: miter; stroke-linecap: butt;  opacity: 1.0"  d="M88.134939759,388.8L88.134939759,384.8"/>
<path style="fill: none; stroke: #000000; stroke-width: 0.5; stroke-linejoin: miter; stroke-linecap: butt;  opacity: 1.0"  d="M88.134939759,47.2L88.134939759,43.2"/>
<g style="fill: #000000; opacity: 1.0" transform="translate(85.111502259,401.70625)scale(0.12)">
<use xlink:href="#c_0"/>
</g>
</g>
<g id="xtick2">
<path style="fill: none; stroke: #000000; stroke-width: 0.5; stroke-linejoin: miter; stroke-linecap: butt;  opacity: 1.0"  d="M195.701204819,388.8L195.701204819,384.8"/>
<path style="fill: none; stroke: #000000; stroke-width: 0.5; stroke-linejoin: miter; stroke-linecap: butt;  opacity: 1.0"  d="M195.701204819,47.2L195.701204819,43.2"/>
<g style="fill: #000000; opacity: 1.0" transform="translate(188.919954819,401.70625)scale(0.12)">
<use xlink:href="#c_1"/>
<use xlink:href="#c_0" transform="translate(63.623046875)"/>
</g>
</g>
<g id="xtick3">
<path style="fill: none; stroke: #000000; stroke-width: 0.5; stroke-linejoin: miter; stroke-linecap: butt;  opacity: 1.0"  d="M303.26746988,388.8L303.26746988,384.8"/>
<path style="fill: none; stroke: #000000; stroke-width: 0.5; stroke-linejoin: miter; stroke-linecap: butt;  opacity: 1.0"  d="M303.26746988,47.2L303.26746988,43.2"/>
<g style="fill: #000000; opacity: 1.0" transform="translate(292.86121988,401.70625)scale(0.12)">
<use xlink:href="#c_2"/>
<use xlink:href="#c_0" transform="translate(63.623046875)"/>
<use xlink:href="#c_0" transform="translate(127.24609375)"/>
</g>
</g>
<g id="xtick4">
<path style="fill: none; stroke: #000000; stroke-width: 0.5; stroke-linejoin: miter; stroke-linecap: butt;  opacity: 1.0"  d="M410.83373494,388.8L410.83373494,384.8"/>
<path style="fill: none; stroke: #000000; stroke-width: 0.5; stroke-linejoin: miter; stroke-linecap: butt;  opacity: 1.0"  d="M410.83373494,47.2L410.83373494,43.2"/>
<g style="fill: #000000; opacity: 1.0" transform="translate(400.42748494,401.70625)scale(0.12)">
<use xlink:href="#c_2"/>
<use xlink:href="#c_1" transform="translate(63.623046875)"/>
<use xlink:href="#c_0" transform="translate(127.24609375)"/>
</g>
</g>
<g id="xtick5">
<g style="fill: #000000; opacity: 1.0" transform="translate(507.775,401.70625)scale(0.12)">
<use xlink:href="#c_3"/>
<use xlink:href="#c_0" transform="translate(63.623046875)"/>
<use xlink:href="#c_0" transform="translate(127.24609375)"/>
</g>
</g>
<g style="fill: #000000; opacity: 1.0" transform="translate(112.5828125,419.034375)scale(0.16)">
<use xlink:href="#c_4"/>
<use xlink:href="#c_5" transform="translate(41.552734375)"/>
<use xlink:href="#c_6" transform="translate(69.3359375)"/>
<use xlink:href="#c_7" transform="translate(166.748046875)"/>
<use xlink:href="#c_8" transform="translate(228.271484375)"/>
<use xlink:href="#c_9" transform="translate(260.05859375)"/>
<use xlink:href="#c_a" transform="translate(321.240234375)"/>
<use xlink:href="#c_8" transform="translate(356.4453125)"/>
<use xlink:href="#c_b" transform="translate(388.232421875)"/>
<use xlink:href="#c_c" transform="translate(449.51171875)"/>
<use xlink:href="#c_c" transform="translate(479.6875)"/>
<use xlink:href="#c_5" transform="translate(520.80078125)"/>
<use xlink:href="#c_d" transform="translate(548.583984375)"/>
<use xlink:href="#c_b" transform="translate(607.763671875)"/>
<use xlink:href="#c_e" transform="translate(669.04296875)"/>
<use xlink:href="#c_8" transform="translate(696.826171875)"/>
<use xlink:href="#c_b" transform="translate(728.61328125)"/>
<use xlink:href="#c_f" transform="translate(789.892578125)"/>
<use xlink:href="#c_8" transform="translate(829.1015625)"/>
<use xlink:href="#c_10" transform="translate(860.888671875)"/>
<use xlink:href="#c_11" transform="translate(912.98828125)"/>
<use xlink:href="#c_5" transform="translate(976.46484375)"/>
<use xlink:href="#c_12" transform="translate(1004.24804688)"/>
<use xlink:href="#c_13" transform="translate(1067.62695312)"/>
<use xlink:href="#c_e" transform="translate(1131.10351562)"/>
<use xlink:href="#c_7" transform="translate(1158.88671875)"/>
<use xlink:href="#c_8" transform="translate(1220.41015625)"/>
<use xlink:href="#c_11" transform="translate(1252.19726562)"/>
<use xlink:href="#c_9" transform="translate(1315.67382812)"/>
<use xlink:href="#c_e" transform="translate(1376.85546875)"/>
<use xlink:href="#c_7" transform="translate(1404.63867188)"/>
<use xlink:href="#c_8" transform="translate(1466.16210938)"/>
<use xlink:href="#c_14" transform="translate(1497.94921875)"/>
<use xlink:href="#c_9" transform="translate(1561.42578125)"/>
<use xlink:href="#c_13" transform="translate(1622.60742188)"/>
<use xlink:href="#c_15" transform="translate(1686.08398438)"/>
<use xlink:href="#c_8" transform="translate(1745.26367188)"/>
<use xlink:href="#c_16" transform="translate(1777.05078125)"/>
<use xlink:href="#c_10" transform="translate(1816.06445312)"/>
<use xlink:href="#c_7" transform="translate(1868.1640625)"/>
<use xlink:href="#c_17" transform="translate(1929.6875)"/>
<use xlink:href="#c_9" transform="translate(1984.66796875)"/>
<use xlink:href="#c_12" transform="translate(2045.84960938)"/>
<use xlink:href="#c_13" transform="translate(2109.22851562)"/>
<use xlink:href="#c_10" transform="translate(2172.70507812)"/>
<use xlink:href="#c_18" transform="translate(2224.8046875)"/>
</g>
</g>
<g id="matplotlib.axis2">
<g id="ytick1">
<g style="fill: #000000; opacity: 1.0" transform="translate(50.5,393.1671875)scale(0.12)">
<use xlink:href="#c_0"/>
<use xlink:href="#c_19" transform="translate(63.623046875)"/>
<use xlink:href="#c_0" transform="translate(95.41015625)"/>
</g>
</g>
<g id="ytick2">
<path style="fill: none; stroke: #000000; stroke-width: 0.5; stroke-linejoin: miter; stroke-linecap: butt;  opacity: 1.0"  d="M72.0,302.4L76.0,302.4"/>
<path style="fill: none; stroke: #000000; stroke-width: 0.5; stroke-linejoin: miter; stroke-linecap: butt;  opacity: 1.0"  d="M514.4,302.4L518.4,302.4"/>
<g style="fill: #000000; opacity: 1.0" transform="translate(50.75,306.7671875)scale(0.12)">
<use xlink:href="#c_0"/>
<use xlink:href="#c_19" transform="translate(63.623046875)"/>
<use xlink:href="#c_1" transform="translate(95.41015625)"/>
</g>
</g>
<g id="ytick3">
<path style="fill: none; stroke: #000000; stroke-width: 0.5; stroke-linejoin: miter; stroke-linecap: butt;  opacity: 1.0"  d="M72.0,216.0L76.0,216.0"/>
<path style="fill: none; stroke: #000000; stroke-width: 0.5; stroke-linejoin: miter; stroke-linecap: butt;  opacity: 1.0"  d="M514.4,216.0L518.4,216.0"/>
<g style="fill: #000000; opacity: 1.0" transform="translate(51.015625,220.3671875)scale(0.12)">
<use xlink:href="#c_2"/>
<use xlink:href="#c_19" transform="translate(63.623046875)"/>
<use xlink:href="#c_0" transform="translate(95.41015625)"/>
</g>
</g>
<g id="ytick4">
<path style="fill: none; stroke: #000000; stroke-width: 0.5; stroke-linejoin: miter; stroke-linecap: butt;  opacity: 1.0"  d="M72.0,129.6L76.0,129.6"/>
<path style="fill: none; stroke: #000000; stroke-width: 0.5; stroke-linejoin: miter; stroke-linecap: butt;  opacity: 1.0"  d="M514.4,129.6L518.4,129.6"/>
<g style="fill: #000000; opacity: 1.0" transform="translate(51.265625,133.8890625)scale(0.12)">
<use xlink:href="#c_2"/>
<use xlink:href="#c_19" transform="translate(63.623046875)"/>
<use xlink:href="#c_1" transform="translate(95.41015625)"/>
</g>
</g>
<g id="ytick5">
<g style="fill: #000000; opacity: 1.0" transform="translate(50.578125,47.5671875)scale(0.12)">
<use xlink:href="#c_3"/>
<use xlink:href="#c_19" transform="translate(63.623046875)"/>
<use xlink:href="#c_0" transform="translate(95.41015625)"/>
</g>
</g>
<g style="fill: #000000; opacity: 1.0" transform="translate(45.5,353.0234375)rotate(-90.0)scale(0.16)">
<use xlink:href="#c_1a"/>
<use xlink:href="#c_7" transform="translate(86.279296875)"/>
<use xlink:href="#c_b" transform="translate(147.802734375)"/>
<use xlink:href="#c_12" transform="translate(209.08203125)"/>
<use xlink:href="#c_8" transform="translate(272.4609375)"/>
<use xlink:href="#c_12" transform="translate(304.248046875)"/>
<use xlink:href="#c_1b" transform="translate(367.626953125)"/>
<use xlink:href="#c_6" transform="translate(431.005859375)"/>
<use xlink:href="#c_14" transform="translate(528.41796875)"/>
<use xlink:href="#c_7" transform="translate(591.89453125)"/>
<use xlink:href="#c_c" transform="translate(653.41796875)"/>
<use xlink:href="#c_8" transform="translate(694.53125)"/>
<use xlink:href="#c_9" transform="translate(726.318359375)"/>
<use xlink:href="#c_a" transform="translate(787.5)"/>
<use xlink:href="#c_8" transform="translate(822.705078125)"/>
<use xlink:href="#c_10" transform="translate(854.4921875)"/>
<use xlink:href="#c_5" transform="translate(906.591796875)"/>
<use xlink:href="#c_10" transform="translate(934.375)"/>
<use xlink:href="#c_f" transform="translate(986.474609375)"/>
<use xlink:href="#c_7" transform="translate(1025.68359375)"/>
<use xlink:href="#c_c" transform="translate(1087.20703125)"/>
<use xlink:href="#c_8" transform="translate(1128.3203125)"/>
<use xlink:href="#c_17" transform="translate(1160.10742188)"/>
<use xlink:href="#c_1c" transform="translate(1215.08789062)"/>
<use xlink:href="#c_c" transform="translate(1278.46679688)"/>
<use xlink:href="#c_9" transform="translate(1305.51757812)"/>
<use xlink:href="#c_6" transform="translate(1366.69921875)"/>
<use xlink:href="#c_b" transform="translate(1464.11132812)"/>
<use xlink:href="#c_f" transform="translate(1525.390625)"/>
<use xlink:href="#c_5" transform="translate(1564.59960938)"/>
<use xlink:href="#c_13" transform="translate(1592.3828125)"/>
<use xlink:href="#c_10" transform="translate(1655.859375)"/>
</g>
</g>
<path style="fill: none; stroke: #000000; stroke-width: 1.0; stroke-linejoin: miter; stroke-linecap: square;  opacity: 1.0"  d="M72.0,388.8L518.4,388.8L518.4,43.2L72.0,43.2L72.0,388.8"/>
</g>
</g>
<defs id="fontpaths">
<path id="c_19" d="M10.6875 -12.40625l10.3125 0.0l0.0 12.40625l-10.3125 0.0z"/>
<path id="c_18" d="M8.015625 -75.875l7.8125 0.0q7.3125 11.515625 10.953125 22.5625q3.640625 11.03125 3.640625 21.921875q0.0 10.9375 -3.640625 22.015625q-3.640625 11.078125 -10.953125 22.5625l-7.8125 0.0q6.484375 -11.1875 9.6875 -22.25q3.203125 -11.0625 3.203125 -22.328125q0.0 -11.28125 -3.203125 -22.265625q-3.203125 -11.0 -9.6875 -22.21875"/>
<path id="c_16" d="M31.0 -75.875q-6.53125 11.21875 -9.71875 22.21875q-3.171875 10.984375 -3.171875 22.265625q0.0 11.265625 3.203125 22.328125q3.203125 11.0625 9.6875 22.25l-7.8125 0.0q-7.3125 -11.484375 -10.953125 -22.5625q-3.640625 -11.078125 -3.640625 -22.015625q0.0 -10.890625 3.609375 -21.921875q3.625 -11.046875 10.984375 -22.5625z"/>
<path id="c_2" d="M12.40625 -8.296875l16.109375 0.0l0.0 -55.625l-17.53125 3.515625l0.0 -8.984375l17.4375 -3.515625l9.859375 0.0l0.0 64.609375l16.109375 0.0l0.0 8.296875l-41.984375 0.0z"/>
<path id="c_0" d="M31.78125 -66.40625q-7.609375 0.0 -11.453125 7.5q-3.828125 7.484375 -3.828125 22.53125q0.0 14.984375 3.828125 22.484375q3.84375 7.5 11.453125 7.5q7.671875 0.0 11.5 -7.5q3.84375 -7.5 3.84375 -22.484375q0.0 -15.046875 -3.84375 -22.53125q-3.828125 -7.5 -11.5 -7.5M31.78125 -74.21875q12.265625 0.0 18.734375 9.703125q6.46875 9.6875 6.46875 28.140625q0.0 18.40625 -6.46875 28.109375q-6.46875 9.6875 -18.734375 9.6875q-12.25 0.0 -18.71875 -9.6875q-6.46875 -9.703125 -6.46875 -28.109375q0.0 -18.453125 6.46875 -28.140625q6.46875 -9.703125 18.71875 -9.703125"/>
<path id="c_7" d="M56.203125 -29.59375l0.0 4.390625l-41.3125 0.0q0.59375 9.28125 5.59375 14.140625q5.0 4.859375 13.9375 4.859375q5.171875 0.0 10.03125 -1.265625q4.859375 -1.265625 9.65625 -3.8125l0.0 8.5q-4.84375 2.046875 -9.921875 3.125q-5.078125 1.078125 -10.296875 1.078125q-13.09375 0.0 -20.734375 -7.609375q-7.640625 -7.625 -7.640625 -20.625q0.0 -13.421875 7.25 -21.296875q7.25 -7.890625 19.5625 -7.890625q11.03125 0.0 17.453125 7.109375q6.421875 7.09375 6.421875 19.296875M47.21875 -32.234375q-0.09375 -7.359375 -4.125 -11.75q-4.03125 -4.40625 -10.671875 -4.40625q-7.515625 0.0 -12.03125 4.25q-4.515625 4.25 -5.203125 11.96875z"/>
<path id="c_13" d="M45.40625 -46.390625l0.0 -29.59375l8.984375 0.0l0.0 75.984375l-8.984375 0.0l0.0 -8.203125q-2.828125 4.875 -7.15625 7.25q-4.3125 2.375 -10.375 2.375q-9.90625 0.0 -16.140625 -7.90625q-6.21875 -7.921875 -6.21875 -20.8125q0.0 -12.890625 6.21875 -20.796875q6.234375 -7.90625 16.140625 -7.90625q6.0625 0.0 10.375 2.375q4.328125 2.359375 7.15625 7.234375M14.796875 -27.296875q0.0 9.90625 4.078125 15.546875q4.078125 5.640625 11.203125 5.640625q7.125 0.0 11.21875 -5.640625q4.109375 -5.640625 4.109375 -15.546875q0.0 -9.90625 -4.109375 -15.546875q-4.09375 -5.640625 -11.21875 -5.640625q-7.125 0.0 -11.203125 5.640625q-4.078125 5.640625 -4.078125 15.546875"/>
<path id="c_a" d="M37.109375 -75.984375l0.0 7.484375l-8.59375 0.0q-4.828125 0.0 -6.71875 1.953125q-1.875 1.953125 -1.875 7.03125l0.0 4.828125l14.796875 0.0l0.0 6.984375l-14.796875 0.0l0.0 47.703125l-9.03125 0.0l0.0 -47.703125l-8.59375 0.0l0.0 -6.984375l8.59375 0.0l0.0 -3.8125q0.0 -9.125 4.25 -13.296875q4.25 -4.1875 13.46875 -4.1875z"/>
<path id="c_5" d="M9.421875 -54.6875l8.984375 0.0l0.0 54.6875l-8.984375 0.0zM9.421875 -75.984375l8.984375 0.0l0.0 11.390625l-8.984375 0.0z"/>
<path id="c_1c" d="M54.890625 -33.015625l0.0 33.015625l-8.984375 0.0l0.0 -32.71875q0.0 -7.765625 -3.03125 -11.609375q-3.03125 -3.859375 -9.078125 -3.859375q-7.28125 0.0 -11.484375 4.640625q-4.203125 4.625 -4.203125 12.640625l0.0 30.90625l-9.03125 0.0l0.0 -75.984375l9.03125 0.0l0.0 29.796875q3.234375 -4.9375 7.59375 -7.375q4.375 -2.4375 10.09375 -2.4375q9.421875 0.0 14.25 5.828125q4.84375 5.828125 4.84375 17.15625"/>
<path id="c_4" d="M-0.296875 -72.90625l61.671875 0.0l0.0 8.3125l-25.875 0.0l0.0 64.59375l-9.90625 0.0l0.0 -64.59375l-25.890625 0.0z"/>
<path id="c_6" d="M52.0 -44.1875q3.375 -6.0625 8.0625 -8.9375q4.6875 -2.875 11.03125 -2.875q8.546875 0.0 13.1875 5.984375q4.640625 5.96875 4.640625 17.0l0.0 33.015625l-9.03125 0.0l0.0 -32.71875q0.0 -7.859375 -2.796875 -11.65625q-2.78125 -3.8125 -8.484375 -3.8125q-6.984375 0.0 -11.046875 4.640625q-4.046875 4.625 -4.046875 12.640625l0.0 30.90625l-9.03125 0.0l0.0 -32.71875q0.0 -7.90625 -2.78125 -11.6875q-2.78125 -3.78125 -8.59375 -3.78125q-6.890625 0.0 -10.953125 4.65625q-4.046875 4.65625 -4.046875 12.625l0.0 30.90625l-9.03125 0.0l0.0 -54.6875l9.03125 0.0l0.0 8.5q3.078125 -5.03125 7.375 -7.421875q4.296875 -2.390625 10.203125 -2.390625q5.96875 0.0 10.140625 3.03125q4.171875 3.015625 6.171875 8.78125"/>
<path id="c_11" d="M18.109375 -8.203125l0.0 29.0l-9.03125 0.0l0.0 -75.484375l9.03125 0.0l0.0 8.296875q2.84375 -4.875 7.15625 -7.234375q4.328125 -2.375 10.328125 -2.375q9.96875 0.0 16.1875 7.90625q6.234375 7.90625 6.234375 20.796875q0.0 12.890625 -6.234375 20.8125q-6.21875 7.90625 -16.1875 7.90625q-6.0 0.0 -10.328125 -2.375q-4.3125 -2.375 -7.15625 -7.25M48.6875 -27.296875q0.0 -9.90625 -4.078125 -15.546875q-4.078125 -5.640625 -11.203125 -5.640625q-7.140625 0.0 -11.21875 5.640625q-4.078125 5.640625 -4.078125 15.546875q0.0 9.90625 4.078125 15.546875q4.078125 5.640625 11.21875 5.640625q7.125 0.0 11.203125 -5.640625q4.078125 -5.640625 4.078125 -15.546875"/>
<path id="c_15" d="M32.171875 5.078125q-3.796875 9.765625 -7.421875 12.734375q-3.609375 2.984375 -9.65625 2.984375l-7.1875 0.0l0.0 -7.515625l5.28125 0.0q3.703125 0.0 5.75 -1.765625q2.0625 -1.75 4.546875 -8.296875l1.609375 -4.09375l-22.109375 -53.8125l9.515625 0.0l17.09375 42.765625l17.09375 -42.765625l9.515625 0.0z"/>
<path id="c_8" d=""/>
<path id="c_3" d="M19.1875 -8.296875l34.421875 0.0l0.0 8.296875l-46.28125 0.0l0.0 -8.296875q5.609375 -5.8125 15.296875 -15.59375q9.703125 -9.796875 12.1875 -12.640625q4.734375 -5.3125 6.609375 -9.0q1.890625 -3.6875 1.890625 -7.25q0.0 -5.8125 -4.078125 -9.46875q-4.078125 -3.671875 -10.625 -3.671875q-4.640625 0.0 -9.796875 1.609375q-5.140625 1.609375 -11.0 4.890625l0.0 -9.96875q5.953125 -2.390625 11.125 -3.609375q5.1875 -1.21875 9.484375 -1.21875q11.328125 0.0 18.0625 5.671875q6.734375 5.65625 6.734375 15.125q0.0 4.5 -1.6875 8.53125q-1.671875 4.015625 -6.125 9.484375q-1.21875 1.421875 -7.765625 8.1875q-6.53125 6.765625 -18.453125 18.921875"/>
<path id="c_1" d="M10.796875 -72.90625l38.71875 0.0l0.0 8.3125l-29.6875 0.0l0.0 17.859375q2.140625 -0.734375 4.28125 -1.09375q2.15625 -0.359375 4.3125 -0.359375q12.203125 0.0 19.328125 6.6875q7.140625 6.6875 7.140625 18.109375q0.0 11.765625 -7.328125 18.296875q-7.328125 6.515625 -20.65625 6.515625q-4.59375 0.0 -9.359375 -0.78125q-4.75 -0.78125 -9.828125 -2.34375l0.0 -9.921875q4.390625 2.390625 9.078125 3.5625q4.6875 1.171875 9.90625 1.171875q8.453125 0.0 13.375 -4.4375q4.9375 -4.4375 4.9375 -12.0625q0.0 -7.609375 -4.9375 -12.046875q-4.921875 -4.453125 -13.375 -4.453125q-3.953125 0.0 -7.890625 0.875q-3.921875 0.875 -8.015625 2.734375z"/>
<path id="c_e" d="M9.421875 -75.984375l8.984375 0.0l0.0 75.984375l-8.984375 0.0z"/>
<path id="c_1a" d="M9.8125 -72.90625l14.703125 0.0l18.59375 49.609375l18.703125 -49.609375l14.703125 0.0l0.0 72.90625l-9.625 0.0l0.0 -64.015625l-18.796875 50.0l-9.90625 0.0l-18.796875 -50.0l0.0 64.015625l-9.578125 0.0z"/>
<path id="c_f" d="M18.3125 -70.21875l0.0 15.53125l18.5 0.0l0.0 6.984375l-18.5 0.0l0.0 29.6875q0.0 6.6875 1.828125 8.59375q1.828125 1.90625 7.453125 1.90625l9.21875 0.0l0.0 7.515625l-9.21875 0.0q-10.40625 0.0 -14.359375 -3.875q-3.953125 -3.890625 -3.953125 -14.140625l0.0 -29.6875l-6.59375 0.0l0.0 -6.984375l6.59375 0.0l0.0 -15.53125z"/>
<path id="c_1b" d="M8.5 -21.578125l0.0 -33.109375l8.984375 0.0l0.0 32.765625q0.0 7.765625 3.015625 11.65625q3.03125 3.875 9.09375 3.875q7.265625 0.0 11.484375 -4.640625q4.234375 -4.640625 4.234375 -12.65625l0.0 -31.0l8.984375 0.0l0.0 54.6875l-8.984375 0.0l0.0 -8.40625q-3.265625 4.984375 -7.59375 7.40625q-4.3125 2.421875 -10.03125 2.421875q-9.421875 0.0 -14.3125 -5.859375q-4.875 -5.859375 -4.875 -17.140625"/>
<path id="c_c" d="M41.109375 -46.296875q-1.515625 -0.875 -3.296875 -1.28125q-1.78125 -0.421875 -3.921875 -0.421875q-7.625 0.0 -11.703125 4.953125q-4.078125 4.953125 -4.078125 14.234375l0.0 28.8125l-9.03125 0.0l0.0 -54.6875l9.03125 0.0l0.0 8.5q2.84375 -4.984375 7.375 -7.390625q4.546875 -2.421875 11.046875 -2.421875q0.921875 0.0 2.046875 0.125q1.125 0.109375 2.484375 0.359375z"/>
<path id="c_10" d="M44.28125 -53.078125l0.0 8.5q-3.796875 -1.953125 -7.90625 -2.921875q-4.09375 -0.984375 -8.5 -0.984375q-6.6875 0.0 -10.03125 2.046875q-3.34375 2.046875 -3.34375 6.15625q0.0 3.125 2.390625 4.90625q2.390625 1.78125 9.625 3.390625l3.078125 0.6875q9.5625 2.046875 13.59375 5.78125q4.03125 3.734375 4.03125 10.421875q0.0 7.625 -6.03125 12.078125q-6.03125 4.4375 -16.578125 4.4375q-4.390625 0.0 -9.15625 -0.859375q-4.765625 -0.859375 -10.03125 -2.5625l0.0 -9.28125q4.984375 2.59375 9.8125 3.890625q4.828125 1.28125 9.578125 1.28125q6.34375 0.0 9.75 -2.171875q3.421875 -2.171875 3.421875 -6.125q0.0 -3.65625 -2.46875 -5.609375q-2.453125 -1.953125 -10.8125 -3.765625l-3.125 -0.734375q-8.34375 -1.75 -12.0625 -5.390625q-3.703125 -3.640625 -3.703125 -9.984375q0.0 -7.71875 5.46875 -11.90625q5.46875 -4.203125 15.53125 -4.203125q4.96875 0.0 9.359375 0.734375q4.40625 0.71875 8.109375 2.1875"/>
<path id="c_14" d="M48.6875 -27.296875q0.0 -9.90625 -4.078125 -15.546875q-4.078125 -5.640625 -11.203125 -5.640625q-7.140625 0.0 -11.21875 5.640625q-4.078125 5.640625 -4.078125 15.546875q0.0 9.90625 4.078125 15.546875q4.078125 5.640625 11.21875 5.640625q7.125 0.0 11.203125 -5.640625q4.078125 -5.640625 4.078125 -15.546875M18.109375 -46.390625q2.84375 -4.875 7.15625 -7.234375q4.328125 -2.375 10.328125 -2.375q9.96875 0.0 16.1875 7.90625q6.234375 7.90625 6.234375 20.796875q0.0 12.890625 -6.234375 20.8125q-6.21875 7.90625 -16.1875 7.90625q-6.0 0.0 -10.328125 -2.375q-4.3125 -2.375 -7.15625 -7.25l0.0 8.203125l-9.03125 0.0l0.0 -75.984375l9.03125 0.0z"/>
<path id="c_17" d="M48.78125 -52.59375l0.0 8.40625q-3.8125 -2.109375 -7.640625 -3.15625q-3.828125 -1.046875 -7.734375 -1.046875q-8.75 0.0 -13.59375 5.546875q-4.828125 5.53125 -4.828125 15.546875q0.0 10.015625 4.828125 15.5625q4.84375 5.53125 13.59375 5.53125q3.90625 0.0 7.734375 -1.046875q3.828125 -1.046875 7.640625 -3.15625l0.0 8.3125q-3.765625 1.75 -7.796875 2.625q-4.015625 0.890625 -8.5625 0.890625q-12.359375 0.0 -19.640625 -7.765625q-7.265625 -7.765625 -7.265625 -20.953125q0.0 -13.375 7.34375 -21.03125q7.359375 -7.671875 20.15625 -7.671875q4.140625 0.0 8.09375 0.859375q3.953125 0.84375 7.671875 2.546875"/>
<path id="c_12" d="M54.890625 -33.015625l0.0 33.015625l-8.984375 0.0l0.0 -32.71875q0.0 -7.765625 -3.03125 -11.609375q-3.03125 -3.859375 -9.078125 -3.859375q-7.28125 0.0 -11.484375 4.640625q-4.203125 4.625 -4.203125 12.640625l0.0 30.90625l-9.03125 0.0l0.0 -54.6875l9.03125 0.0l0.0 8.5q3.234375 -4.9375 7.59375 -7.375q4.375 -2.4375 10.09375 -2.4375q9.421875 0.0 14.25 5.828125q4.84375 5.828125 4.84375 17.15625"/>
<path id="c_9" d="M30.609375 -48.390625q-7.21875 0.0 -11.421875 5.640625q-4.203125 5.640625 -4.203125 15.453125q0.0 9.8125 4.171875 15.453125q4.1875 5.640625 11.453125 5.640625q7.1875 0.0 11.375 -5.65625q4.203125 -5.671875 4.203125 -15.4375q0.0 -9.71875 -4.203125 -15.40625q-4.1875 -5.6875 -11.375 -5.6875M30.609375 -56.0q11.71875 0.0 18.40625 7.625q6.703125 7.609375 6.703125 21.078125q0.0 13.421875 -6.703125 21.078125q-6.6875 7.640625 -18.40625 7.640625q-11.765625 0.0 -18.4375 -7.640625q-6.65625 -7.65625 -6.65625 -21.078125q0.0 -13.46875 6.65625 -21.078125q6.671875 -7.625 18.4375 -7.625"/>
<path id="c_b" d="M34.28125 -27.484375q-10.890625 0.0 -15.09375 2.484375q-4.203125 2.484375 -4.203125 8.5q0.0 4.78125 3.15625 7.59375q3.15625 2.796875 8.5625 2.796875q7.484375 0.0 12.0 -5.296875q4.515625 -5.296875 4.515625 -14.078125l0.0 -2.0zM52.203125 -31.203125l0.0 31.203125l-8.984375 0.0l0.0 -8.296875q-3.078125 4.96875 -7.671875 7.34375q-4.59375 2.375 -11.234375 2.375q-8.390625 0.0 -13.359375 -4.71875q-4.953125 -4.71875 -4.953125 -12.625q0.0 -9.21875 6.171875 -13.90625q6.1875 -4.6875 18.4375 -4.6875l12.609375 0.0l0.0 -0.890625q0.0 -6.203125 -4.078125 -9.59375q-4.078125 -3.390625 -11.453125 -3.390625q-4.6875 0.0 -9.140625 1.125q-4.4375 1.125 -8.53125 3.375l0.0 -8.3125q4.921875 -1.90625 9.5625 -2.84375q4.640625 -0.953125 9.03125 -0.953125q11.875 0.0 17.734375 6.15625q5.859375 6.140625 5.859375 18.640625"/>
<path id="c_d" d="M2.984375 -54.6875l9.515625 0.0l17.09375 45.890625l17.09375 -45.890625l9.515625 0.0l-20.515625 54.6875l-12.203125 0.0z"/>
</defs>
</svg>
