<?xml version="1.0" encoding="UTF-8" standalone="no"?>
<!-- Created with Inkscape (http://www.inkscape.org/) -->

<svg
   xmlns:dc="http://purl.org/dc/elements/1.1/"
   xmlns:cc="http://creativecommons.org/ns#"
   xmlns:rdf="http://www.w3.org/1999/02/22-rdf-syntax-ns#"
   xmlns:svg="http://www.w3.org/2000/svg"
   xmlns="http://www.w3.org/2000/svg"
   xmlns:sodipodi="http://sodipodi.sourceforge.net/DTD/sodipodi-0.dtd"
   xmlns:inkscape="http://www.inkscape.org/namespaces/inkscape"
   width="3468.7812"
   height="1703.4091"
   id="svg5349"
   version="1.1"
   inkscape:version="0.47 r22583"
   sodipodi:docname="traj_ch1.svg"
   inkscape:export-filename="/home/guillaume/Images/Blender/mitosis/traj_ch1.png"
   inkscape:export-xdpi="150"
   inkscape:export-ydpi="150">
  <defs
     id="defs5351">
    <inkscape:perspective
       sodipodi:type="inkscape:persp3d"
       inkscape:vp_x="0 : 526.18109 : 1"
       inkscape:vp_y="0 : 1000 : 0"
       inkscape:vp_z="744.09448 : 526.18109 : 1"
       inkscape:persp3d-origin="372.04724 : 350.78739 : 1"
       id="perspective5357" />
    <inkscape:perspective
       id="perspective5203"
       inkscape:persp3d-origin="0.5 : 0.33333333 : 1"
       inkscape:vp_z="1 : 0.5 : 1"
       inkscape:vp_y="0 : 1000 : 0"
       inkscape:vp_x="0 : 0.5 : 1"
       sodipodi:type="inkscape:persp3d" />
    <clipPath
       id="clipPath4198"
       clipPathUnits="userSpaceOnUse">
      <path
         id="path4200"
         d="m -1021,-416 2702,0 0,1583 -2702,0 0,-1583 z" />
    </clipPath>
    <clipPath
       id="clipPath4176"
       clipPathUnits="userSpaceOnUse">
      <path
         id="path4178"
         d="m -1021,-416 2702,0 0,1583 -2702,0 0,-1583 z" />
    </clipPath>
    <clipPath
       id="clipPath4154"
       clipPathUnits="userSpaceOnUse">
      <path
         id="path4156"
         d="m -1021,-416 2702,0 0,1583 -2702,0 0,-1583 z" />
    </clipPath>
    <clipPath
       id="clipPath4132"
       clipPathUnits="userSpaceOnUse">
      <path
         id="path4134"
         d="m -1021,-416 2702,0 0,1583 -2702,0 0,-1583 z" />
    </clipPath>
    <clipPath
       id="clipPath4110"
       clipPathUnits="userSpaceOnUse">
      <path
         id="path4112"
         d="m -1021,-416 2702,0 0,1583 -2702,0 0,-1583 z" />
    </clipPath>
    <clipPath
       id="clipPath4032"
       clipPathUnits="userSpaceOnUse">
      <path
         id="path4034"
         d="m 60.6375,374.74412 375.9525,0 0,230.61176 -375.9525,0 0,-230.61176 z" />
    </clipPath>
    <clipPath
       id="clipPath4022"
       clipPathUnits="userSpaceOnUse">
      <path
         id="path4024"
         d="m 60.6375,374.74412 375.9525,0 0,230.61176 -375.9525,0 0,-230.61176 z" />
    </clipPath>
    <clipPath
       id="clipPath4012"
       clipPathUnits="userSpaceOnUse">
      <path
         id="path4014"
         d="m 60.6375,374.74412 375.9525,0 0,230.61176 -375.9525,0 0,-230.61176 z" />
    </clipPath>
    <clipPath
       id="clipPath4002"
       clipPathUnits="userSpaceOnUse">
      <path
         id="path4004"
         d="m 60.6375,374.74412 375.9525,0 0,230.61176 -375.9525,0 0,-230.61176 z" />
    </clipPath>
    <clipPath
       id="clipPath3992"
       clipPathUnits="userSpaceOnUse">
      <path
         id="path3994"
         d="m 60.6375,374.74412 375.9525,0 0,230.61176 -375.9525,0 0,-230.61176 z" />
    </clipPath>
    <clipPath
       id="clipPath3982"
       clipPathUnits="userSpaceOnUse">
      <path
         id="path3984"
         d="m 60.6375,374.74412 375.9525,0 0,230.61176 -375.9525,0 0,-230.61176 z" />
    </clipPath>
    <clipPath
       id="clipPath3972"
       clipPathUnits="userSpaceOnUse">
      <path
         id="path3974"
         d="m 60.6375,374.74412 375.9525,0 0,230.61176 -375.9525,0 0,-230.61176 z" />
    </clipPath>
    <clipPath
       id="clipPath3962"
       clipPathUnits="userSpaceOnUse">
      <path
         id="path3964"
         d="m 60.6375,374.74412 375.9525,0 0,230.61176 -375.9525,0 0,-230.61176 z" />
    </clipPath>
    <clipPath
       id="clipPath3952"
       clipPathUnits="userSpaceOnUse">
      <path
         id="path3954"
         d="m 60.6375,374.74412 375.9525,0 0,230.61176 -375.9525,0 0,-230.61176 z" />
    </clipPath>
    <clipPath
       id="clipPath3942"
       clipPathUnits="userSpaceOnUse">
      <path
         id="path3944"
         d="m 60.6375,374.74412 375.9525,0 0,230.61176 -375.9525,0 0,-230.61176 z" />
    </clipPath>
    <inkscape:perspective
       id="perspective6959"
       inkscape:persp3d-origin="0.5 : 0.33333333 : 1"
       inkscape:vp_z="1 : 0.5 : 1"
       inkscape:vp_y="0 : 1000 : 0"
       inkscape:vp_x="0 : 0.5 : 1"
       sodipodi:type="inkscape:persp3d" />
    <clipPath
       id="clipPath3526"
       clipPathUnits="userSpaceOnUse">
      <path
         id="path3528"
         d="m 72,43.2 446.4,0 0,345.6 -446.4,0 0,-345.6 z" />
    </clipPath>
    <clipPath
       id="clipPath3536"
       clipPathUnits="userSpaceOnUse">
      <path
         id="path3538"
         d="m 72,43.2 446.4,0 0,345.6 -446.4,0 0,-345.6 z" />
    </clipPath>
    <clipPath
       id="clipPath3546"
       clipPathUnits="userSpaceOnUse">
      <path
         id="path3548"
         d="m 72,43.2 446.4,0 0,345.6 -446.4,0 0,-345.6 z" />
    </clipPath>
    <clipPath
       id="clipPath3556"
       clipPathUnits="userSpaceOnUse">
      <path
         id="path3558"
         d="m 72,43.2 446.4,0 0,345.6 -446.4,0 0,-345.6 z" />
    </clipPath>
    <clipPath
       id="clipPath3566"
       clipPathUnits="userSpaceOnUse">
      <path
         id="path3568"
         d="m 72,43.2 446.4,0 0,345.6 -446.4,0 0,-345.6 z" />
    </clipPath>
    <clipPath
       id="clipPath3576"
       clipPathUnits="userSpaceOnUse">
      <path
         id="path3578"
         d="m 72,43.2 446.4,0 0,345.6 -446.4,0 0,-345.6 z" />
    </clipPath>
    <clipPath
       id="clipPath3586"
       clipPathUnits="userSpaceOnUse">
      <path
         id="path3588"
         d="m 72,43.2 446.4,0 0,345.6 -446.4,0 0,-345.6 z" />
    </clipPath>
    <clipPath
       id="clipPath3596"
       clipPathUnits="userSpaceOnUse">
      <path
         id="path3598"
         d="m 72,43.2 446.4,0 0,345.6 -446.4,0 0,-345.6 z" />
    </clipPath>
    <clipPath
       id="clipPath3678"
       clipPathUnits="userSpaceOnUse">
      <path
         id="path3680"
         d="m -1021,-416 2702,0 0,1583 -2702,0 0,-1583 z" />
    </clipPath>
    <clipPath
       id="clipPath3700"
       clipPathUnits="userSpaceOnUse">
      <path
         id="path3702"
         d="m -1021,-416 2702,0 0,1583 -2702,0 0,-1583 z" />
    </clipPath>
    <clipPath
       id="clipPath3722"
       clipPathUnits="userSpaceOnUse">
      <path
         id="path3724"
         d="m -1021,-416 2702,0 0,1583 -2702,0 0,-1583 z" />
    </clipPath>
    <inkscape:perspective
       id="perspective8433"
       inkscape:persp3d-origin="0.5 : 0.33333333 : 1"
       inkscape:vp_z="1 : 0.5 : 1"
       inkscape:vp_y="0 : 1000 : 0"
       inkscape:vp_x="0 : 0.5 : 1"
       sodipodi:type="inkscape:persp3d" />
    <clipPath
       id="clipPath4394"
       clipPathUnits="userSpaceOnUse">
      <path
         id="path4396"
         d="m 60.6375,98.01 375.9525,0 0,230.61176 -375.9525,0 0,-230.61176 z" />
    </clipPath>
    <clipPath
       id="clipPath4384"
       clipPathUnits="userSpaceOnUse">
      <path
         id="path4386"
         d="m 60.6375,98.01 375.9525,0 0,230.61176 -375.9525,0 0,-230.61176 z" />
    </clipPath>
    <clipPath
       id="clipPath4236"
       clipPathUnits="userSpaceOnUse">
      <path
         id="path4238"
         d="m 60.6375,651.47824 375.9525,0 0,230.61176 -375.9525,0 0,-230.61176 z" />
    </clipPath>
    <clipPath
       id="clipPath4226"
       clipPathUnits="userSpaceOnUse">
      <path
         id="path4228"
         d="m 60.6375,651.47824 375.9525,0 0,230.61176 -375.9525,0 0,-230.61176 z" />
    </clipPath>
    <inkscape:perspective
       id="perspective9372"
       inkscape:persp3d-origin="0.5 : 0.33333333 : 1"
       inkscape:vp_z="1 : 0.5 : 1"
       inkscape:vp_y="0 : 1000 : 0"
       inkscape:vp_x="0 : 0.5 : 1"
       sodipodi:type="inkscape:persp3d" />
    <clipPath
       id="clipPath4226-5"
       clipPathUnits="userSpaceOnUse">
      <path
         id="path4228-0"
         d="m 60.6375,651.47824 375.9525,0 0,230.61176 -375.9525,0 0,-230.61176 z" />
    </clipPath>
    <clipPath
       id="clipPath4236-3"
       clipPathUnits="userSpaceOnUse">
      <path
         id="path4238-4"
         d="m 60.6375,651.47824 375.9525,0 0,230.61176 -375.9525,0 0,-230.61176 z" />
    </clipPath>
    <clipPath
       id="clipPath9670"
       clipPathUnits="userSpaceOnUse">
      <path
         id="path9672"
         d="m 82.2375,27.18 509.8725,0 0,217.44 -509.8725,0 0,-217.44 z" />
    </clipPath>
    <clipPath
       id="clipPath9660"
       clipPathUnits="userSpaceOnUse">
      <path
         id="path9662"
         d="m 82.2375,27.18 509.8725,0 0,217.44 -509.8725,0 0,-217.44 z" />
    </clipPath>
    <clipPath
       id="clipPath9650"
       clipPathUnits="userSpaceOnUse">
      <path
         id="path9652"
         d="m 82.2375,27.18 509.8725,0 0,217.44 -509.8725,0 0,-217.44 z" />
    </clipPath>
    <clipPath
       id="clipPath9640"
       clipPathUnits="userSpaceOnUse">
      <path
         id="path9642"
         d="m 82.2375,27.18 509.8725,0 0,217.44 -509.8725,0 0,-217.44 z" />
    </clipPath>
    <inkscape:perspective
       id="perspective9628"
       inkscape:persp3d-origin="0.5 : 0.33333333 : 1"
       inkscape:vp_z="1 : 0.5 : 1"
       inkscape:vp_y="0 : 1000 : 0"
       inkscape:vp_x="0 : 0.5 : 1"
       sodipodi:type="inkscape:persp3d" />
    <clipPath
       id="clipPath10283"
       clipPathUnits="userSpaceOnUse">
      <path
         id="path10285"
         d="m 82.2375,27.18 509.8725,0 0,217.44 -509.8725,0 0,-217.44 z" />
    </clipPath>
    <clipPath
       id="clipPath10273"
       clipPathUnits="userSpaceOnUse">
      <path
         id="path10275"
         d="m 82.2375,27.18 509.8725,0 0,217.44 -509.8725,0 0,-217.44 z" />
    </clipPath>
    <clipPath
       id="clipPath10263"
       clipPathUnits="userSpaceOnUse">
      <path
         id="path10265"
         d="m 82.2375,27.18 509.8725,0 0,217.44 -509.8725,0 0,-217.44 z" />
    </clipPath>
    <clipPath
       id="clipPath10253"
       clipPathUnits="userSpaceOnUse">
      <path
         id="path10255"
         d="m 82.2375,27.18 509.8725,0 0,217.44 -509.8725,0 0,-217.44 z" />
    </clipPath>
    <inkscape:perspective
       id="perspective10241"
       inkscape:persp3d-origin="0.5 : 0.33333333 : 1"
       inkscape:vp_z="1 : 0.5 : 1"
       inkscape:vp_y="0 : 1000 : 0"
       inkscape:vp_x="0 : 0.5 : 1"
       sodipodi:type="inkscape:persp3d" />
    <clipPath
       id="clipPath10691"
       clipPathUnits="userSpaceOnUse">
      <path
         id="path10693"
         d="m 82.4625,27.18 511.2675,0 0,217.44 -511.2675,0 0,-217.44 z" />
    </clipPath>
    <clipPath
       id="clipPath10681"
       clipPathUnits="userSpaceOnUse">
      <path
         id="path10683"
         d="m 82.4625,27.18 511.2675,0 0,217.44 -511.2675,0 0,-217.44 z" />
    </clipPath>
    <clipPath
       id="clipPath10671"
       clipPathUnits="userSpaceOnUse">
      <path
         id="path10673"
         d="m 82.4625,27.18 511.2675,0 0,217.44 -511.2675,0 0,-217.44 z" />
    </clipPath>
    <clipPath
       id="clipPath10661"
       clipPathUnits="userSpaceOnUse">
      <path
         id="path10663"
         d="m 82.4625,27.18 511.2675,0 0,217.44 -511.2675,0 0,-217.44 z" />
    </clipPath>
    <inkscape:perspective
       id="perspective10649"
       inkscape:persp3d-origin="0.5 : 0.33333333 : 1"
       inkscape:vp_z="1 : 0.5 : 1"
       inkscape:vp_y="0 : 1000 : 0"
       inkscape:vp_x="0 : 0.5 : 1"
       sodipodi:type="inkscape:persp3d" />
  </defs>
  <sodipodi:namedview
     id="base"
     pagecolor="#ffffff"
     bordercolor="#666666"
     borderopacity="1.0"
     inkscape:pageopacity="0.0"
     inkscape:pageshadow="2"
     inkscape:zoom="0.175"
     inkscape:cx="2818.1449"
     inkscape:cy="1386.853"
     inkscape:document-units="px"
     inkscape:current-layer="layer1"
     showgrid="false"
     inkscape:window-width="1535"
     inkscape:window-height="959"
     inkscape:window-x="57"
     inkscape:window-y="145"
     inkscape:window-maximized="0"
     showguides="true"
     inkscape:guide-bbox="true"
     inkscape:snap-to-guides="false">
    <sodipodi:guide
       orientation="0,1"
       position="3797.1429,20"
       id="guide7364" />
    <sodipodi:guide
       orientation="0,1"
       position="3782.0111,1701.0969"
       id="guide9304" />
    <sodipodi:guide
       orientation="0,1"
       position="2870.8535,678.82251"
       id="guide11066" />
  </sodipodi:namedview>
  <metadata
     id="metadata5354">
    <rdf:RDF>
      <cc:Work
         rdf:about="">
        <dc:format>image/svg+xml</dc:format>
        <dc:type
           rdf:resource="http://purl.org/dc/dcmitype/StillImage" />
        <dc:title></dc:title>
      </cc:Work>
    </rdf:RDF>
  </metadata>
  <g
     inkscape:label="Calque 1"
     inkscape:groupmode="layer"
     id="layer1"
     transform="translate(858.97692,128.48302)">
    <g
       id="g3938"
       transform="matrix(0,-4.4266445,-5.6848293,2.7280682e-8,3391.9358,1815.8208)"
       style="stroke-width:1.19606619;stroke-miterlimit:10;stroke-dasharray:none">
      <g
         id="g3940"
         clip-path="url(#clipPath3942)"
         style="stroke-width:1.19606619;stroke-miterlimit:10;stroke-dasharray:none">
        <path
           d="m 59.384325,563.44913 3.759525,2.19126 3.759525,-0.92183 6.265875,-1.1225 6.265875,-2.05948 2.50635,0.94084 3.759525,0.57321 2.50635,0.0724 3.759525,2.50326 11.278575,-3.31614 3.75953,-4.89762 5.0127,-1.87578 5.01269,-2.4885 5.01271,-2.52765 2.50635,-0.70906 1.25317,-0.12097 2.50635,1.5534 1.25317,0.61463 5.0127,-1.51591 3.75953,-4.70297 3.75952,-0.70892 3.75953,-1.31218 2.50635,-1.1326 5.0127,-7.56719 1.25317,-1.76232 3.75953,1.09035 3.75952,0.37993 5.0127,-0.23497 5.0127,-4.87124 3.75953,-2.87237 6.26587,-3.63261 5.0127,-2.16811 2.50635,-0.95477 5.0127,-0.91081 3.75953,-0.73251 7.51905,3.90274 1.25317,-1.8892 5.0127,-0.90112 3.75953,2.19036 5.0127,5.33653 5.0127,3.98412 6.26588,3.95399 5.01269,2.68983 3.75953,-3.87012 3.75953,-2.98962 3.75952,-1.98628 3.75952,-1.19174 5.0127,-0.87766 2.50635,-0.26311 3.75953,-4.09628 2.50635,-2.19423 6.26587,0.47914 8.77223,6.58767 1.25317,0.78221 5.0127,-0.90148 10.0254,-1.28888 3.75953,-0.4779 2.50635,-2.56785 2.50635,-1.7306 7.51905,-3.48261 1.25317,-0.56729 2.50635,0.9298 3.75953,0.63179 2.50635,0.057 3.75952,2.1222 3.75953,1.45874 7.51905,6.55455 5.0127,1.20697 3.75952,1.21429 1.25318,-0.58298 5.0127,1.46684 3.75952,0.41574 5.01271,-0.18046 18.79762,45.53359 32.58255,77.34172 23.81032,56.55055 0,0"
           style="fill:none;stroke:#000000;stroke-width:1.19606619;stroke-linecap:square;stroke-linejoin:round;stroke-miterlimit:10;stroke-opacity:1;stroke-dasharray:none"
           id="path3946" />
      </g>
    </g>
    <g
       id="g3948"
       transform="matrix(0,-4.4266445,-5.6848293,2.7280682e-8,4052.5364,1815.8208)"
       style="stroke-width:1.19606619;stroke-miterlimit:10;stroke-dasharray:none">
      <g
         id="g3950"
         clip-path="url(#clipPath3952)"
         style="stroke-width:1.19606619;stroke-miterlimit:10;stroke-dasharray:none">
        <path
           d="m 59.384325,535.9952 1.253175,-0.96715 7.51905,1.48181 3.759525,-2.65326 1.253175,-1.58224 5.0127,-2.53056 3.759525,-4.27237 3.759525,-3.39087 5.0127,-0.16636 5.0127,-2.8998 8.77223,-4.58233 10.0254,-10.91806 2.50634,-2.40167 2.50636,-0.71232 2.50635,1.26469 2.50635,3.44361 2.50634,2.77561 3.75953,-2.28574 8.77222,-4.98114 5.0127,-5.58578 16.29128,-16.14933 5.0127,-3.63083 5.0127,-3.15063 1.25317,0.0435 1.25318,-0.89411 1.25317,2.49865 3.75953,-3.22112 1.25317,2.27022 1.25318,-1.20839 2.50635,-0.70488 1.25317,0.65907 3.75953,-1.40689 1.25317,3.79802 5.0127,-2.71598 3.75953,1.00852 6.26587,1.47087 6.26588,1.50166 7.51905,1.20299 1.25317,-0.56819 1.25318,-1.17591 3.75952,-0.52499 5.0127,0.0666 6.26588,0.82794 3.75952,0.54892 3.75953,-0.21007 2.50635,1.74465 3.75952,1.74493 3.75953,1.05161 5.0127,0.78957 3.75952,0.24372 3.75953,-0.5579 5.0127,-1.03509 3.75952,3.18993 3.75953,-0.0337 6.26587,0.81633 5.0127,0.35308 6.26588,-3.82191 3.75952,0.96452 1.25318,0.2202 2.50635,2.75456 2.50635,1.89185 1.25317,0.70712 1.25318,-1.35589 6.26587,-2.64835 3.75953,-3.70486 5.0127,-3.96867 3.75952,-2.28359 3.75953,-1.58701 7.51905,4.19515 5.0127,2.79825 3.75952,1.7926 3.75953,-1.09436 5.0127,-3.86944 5.0127,-3.13185 1.25318,-0.68575 44.75568,-104.20593"
           style="fill:none;stroke:#000000;stroke-width:1.19606619;stroke-linecap:square;stroke-linejoin:round;stroke-miterlimit:10;stroke-opacity:1;stroke-dasharray:none"
           id="path3956"
           sodipodi:nodetypes="cccccccccccccccccccccccccccccccccccccccccccccccccccccccccccccccccccccccccccc" />
      </g>
    </g>
    <g
       id="g3958"
       transform="matrix(0,-4.4266445,-5.6848293,2.7280682e-8,3392.3298,1815.8208)"
       style="stroke-width:1.19606619;stroke-miterlimit:10;stroke-dasharray:none">
      <g
         id="g3960"
         clip-path="url(#clipPath3962)"
         style="stroke-width:1.19606619;stroke-miterlimit:10;stroke-dasharray:none">
        <path
           d="m 59.384325,562.61015 3.759525,2.38401 3.759525,-0.77336 6.265875,-0.9469 6.265875,-1.94583 2.50635,0.97414 3.759525,0.61346 2.50635,0.094 3.759525,5.66416 3.759525,2.09864 3.759525,1.42936 3.759525,0.89814 3.75953,-7.37653 3.75952,-3.27065 3.75953,0.92613 3.75952,0.15547 6.26588,0.043 1.25317,0.23226 3.75952,2.63191 5.0127,-0.32463 3.75953,-3.40494 3.75952,-0.33489 3.75953,-0.90879 2.50635,-0.86437 6.26587,-7.74214 3.75953,0.6756 5.0127,0.14036 3.75952,-0.31048 6.26588,-5.17256 3.75952,-2.41074 5.0127,-2.73547 6.26588,-2.71249 2.50635,-0.72125 7.51905,-1.73372 7.51905,2.91632 1.25317,-3.44297 5.0127,-0.3926 3.75953,2.02942 5.0127,4.74157 5.0127,3.74405 6.26588,3.89229 5.01269,2.73745 3.75953,-2.79969 5.0127,-2.86896 3.75952,-1.346 5.0127,-1.04318 5.0127,-0.5825 3.75953,-8.49088 2.50635,-4.5475 5.0127,-3.23188 1.25317,-0.65639 5.0127,1.63385 5.0127,1.71784 3.75953,-1.65343 5.0127,-1.38671 10.0254,-2.53972 2.50635,-2.74083 2.50635,-1.87596 6.26587,-3.18122 2.50635,-1.2175 2.50635,0.86337 3.75953,0.5515 2.50635,0.014 3.75952,5.31816 7.51906,9.3319 3.75952,4.74946 3.75952,-1.32813 3.75953,-0.53521 1.25317,-0.0443 1.25318,-1.01309 6.26587,1.4e-4 5.0127,-0.67685 2.50636,-0.53559 55.13969,129.96317 20.0508,47.65577 0,0"
           style="fill:none;stroke:#0000ff;stroke-width:1.19606619;stroke-linecap:square;stroke-linejoin:round;stroke-miterlimit:10;stroke-opacity:1;stroke-dasharray:none"
           id="path3966" />
      </g>
    </g>
    <g
       id="g3968"
       transform="matrix(0,-4.4266445,-5.6848293,2.7280682e-8,3396.7283,1815.8208)"
       style="stroke-width:1.19606619;stroke-miterlimit:10;stroke-dasharray:none">
      <g
         id="g3970"
         clip-path="url(#clipPath3972)"
         style="stroke-width:1.19606619;stroke-miterlimit:10;stroke-dasharray:none">
        <path
           d="m 59.384325,564.40776 3.759525,5.24414 6.265875,3.34478 3.759525,1.31082 5.0127,0.68299 1.253175,0.0491 2.50635,1.48734 3.759525,1.37574 2.50635,0.57044 3.759525,2.70736 3.759525,-4.6124 5.0127,-5.0145 2.50635,-2.13535 3.75953,-6.53065 10.02539,-7.10982 5.01271,-3.32993 2.50635,-1.01687 1.25317,-0.25592 3.75952,5.04781 5.0127,-2.79869 3.75953,-5.4109 5.0127,-1.78317 5.0127,-2.56076 5.0127,-7.91499 1.25317,-1.83194 3.75953,4.29705 3.75952,3.09613 3.75953,2.16957 1.25317,0.54642 13.78493,-4.6451 8.77222,-2.13554 5.0127,-0.49698 3.75953,-0.46545 7.51905,3.46714 1.25317,-3.35615 3.75953,-4.45388 1.25317,-1.1903 3.75953,-0.42722 5.0127,6.87659 5.0127,5.35291 5.0127,4.37002 6.26587,4.57641 3.75953,-7.08364 3.75953,-5.46485 2.50634,-2.75484 3.75953,-3.02562 3.75952,-2.07333 5.0127,-1.8425 3.75953,-4.76738 2.50635,-2.5536 3.75952,3.48445 2.50635,1.93275 6.26588,7.65106 3.75952,3.77589 10.0254,2.1642 5.0127,0.34195 3.75953,0.18765 2.50635,-1.78273 3.75952,-1.62434 6.26588,-2.09682 1.25317,-0.44829 3.75953,1.00681 3.75952,0.40761 1.25318,0.0254 3.75952,1.83064 3.75953,1.31967 7.51905,5.81458 6.26587,1.7734 2.50635,0.85545 1.25318,-0.38956 5.0127,1.47658 5.0127,0.63623 3.75953,-0.0256 10.02539,21.33959 13.78493,31.02505 27.56985,64.08626 23.81032,56.39842 0,0"
           style="fill:none;stroke:#008000;stroke-width:1.19606619;stroke-linecap:square;stroke-linejoin:round;stroke-miterlimit:10;stroke-opacity:1;stroke-dasharray:none"
           id="path3976" />
      </g>
    </g>
    <g
       id="g3978"
       transform="matrix(0,-4.4266445,-5.6848293,2.7280682e-8,3393.3144,1815.8208)"
       style="stroke-width:1.19606619;stroke-miterlimit:10;stroke-dasharray:none">
      <g
         id="g3980"
         clip-path="url(#clipPath3982)"
         style="stroke-width:1.19606619;stroke-miterlimit:10;stroke-dasharray:none">
        <path
           d="m 59.384325,563.25618 1.253175,0.82884 1.253175,0.72711 1.253175,1.84701 3.759525,-1.15588 7.51905,-1.8293 5.0127,-1.80866 2.50635,0.88833 3.759525,0.50975 2.50635,0.0385 3.759525,2.46219 11.278575,-3.39092 3.75953,-4.91207 2.50635,1.74056 1.25317,0.66606 12.53175,-8.18791 2.50635,-0.6458 1.25317,0.74124 2.50635,3.34864 3.75953,1.95905 1.25317,0.50556 3.75953,-6.36764 6.26587,-3.49419 3.75953,-2.45823 5.0127,-8.38501 1.25317,-1.92603 3.75953,0.67663 3.75952,0.0612 5.0127,-0.549 5.0127,-5.09298 3.75953,-2.99473 6.26587,-3.77734 5.0127,-2.24616 2.50635,-0.98472 5.0127,-0.95711 3.75953,-0.75807 5.0127,6.7772 2.50635,2.89932 1.25317,-0.67919 5.0127,2.07731 5.0127,5.15207 5.0127,5.88848 5.0127,4.63008 6.26588,4.73249 3.75952,2.45875 3.75953,-7.25999 3.75953,-5.60069 2.50634,-2.82759 3.75953,-3.11354 3.75952,-2.14105 5.0127,-1.90924 3.75953,-4.80421 2.50635,-2.57331 6.26587,-0.22441 5.0127,7.62003 5.0127,6.20016 7.51905,2.79079 3.75953,1.00678 6.26587,0.79245 1.25318,0.16011 2.50635,-4.98915 2.50635,-3.76518 3.75952,-4.20995 5.0127,-4.72239 2.50635,2.45165 3.75953,2.70097 2.50635,1.29501 3.75952,3.32496 5.0127,3.83514 6.26588,6.27578 8.77222,3.93481 1.25318,-0.25036 5.0127,1.94454 3.75952,0.81775 3.75953,0.33924 1.25318,0.0125 11.27857,24.50643 20.0508,45.89885 36.34207,85.35511 7.51905,17.94849 0,0"
           style="fill:none;stroke:#ff0000;stroke-width:1.19606619;stroke-linecap:square;stroke-linejoin:round;stroke-miterlimit:10;stroke-opacity:1;stroke-dasharray:none"
           id="path3986" />
      </g>
    </g>
    <g
       id="g3988"
       transform="matrix(0,-4.4266445,-5.6848293,2.7280682e-8,3393.6909,1815.8208)"
       style="stroke-width:1.19606619;stroke-miterlimit:10;stroke-dasharray:none">
      <g
         id="g3990"
         clip-path="url(#clipPath3992)"
         style="stroke-width:1.19606619;stroke-miterlimit:10;stroke-dasharray:none">
        <path
           d="m 59.384325,564.9399 1.253175,1.84798 1.253175,1.69831 1.253175,0.37347 3.759525,-1.66144 8.772225,-3.04481 3.759525,-1.57809 2.50635,3.13171 2.50635,2.44393 5.0127,4.198 2.50635,2.68754 5.0127,1.07208 5.012705,0.35907 1.25317,-0.001 3.75953,-3.22073 3.75952,-0.61155 3.75953,-1.02062 10.0254,-3.36006 1.25317,-0.0871 1.25317,0.70578 2.50635,-1.61257 3.75953,-4.66561 1.25317,-1.37708 3.75953,-7.20121 3.75952,1.32799 3.75953,0.43614 2.50635,-0.11387 3.75952,-8.78879 2.50635,-5.19014 3.75953,2.8124 3.75952,1.89536 3.75953,1.19841 1.25317,0.26588 3.75953,-6.81024 3.75952,-5.63116 5.0127,-5.53801 6.26588,-4.8905 3.75952,-2.28378 8.77223,-2.92619 7.51905,3.28067 1.25317,-1.96482 3.75953,-0.9377 1.25317,-0.20792 12.53175,18.27062 5.0127,5.34863 5.01271,4.44372 2.50634,1.96077 5.0127,-2.58608 3.75953,-1.46821 5.0127,-1.05463 6.26587,-0.47641 2.50635,-0.0784 3.75953,-3.24925 2.50635,-1.80642 6.26587,0.25874 10.0254,6.17323 3.75953,-4.82259 3.75952,-3.54412 6.26588,-4.52863 3.75952,-2.1811 1.25318,-0.55767 2.50635,-3.33819 2.50635,-2.3779 5.0127,-3.33581 3.75952,-2.26746 2.50635,0.63399 3.75953,0.27426 2.50635,-0.13448 3.75952,1.8908 3.75953,1.2805 5.0127,8.18362 2.50635,3.66176 7.51905,6.13957 1.25317,0.94383 1.25318,-1.46219 3.75952,2.72958 3.75953,1.93396 3.75952,1.26816 2.50636,0.49455 18.79762,43.35875 53.88652,127.11344 2.50635,6.00954 0,0"
           style="fill:none;stroke:#00bfbf;stroke-width:1.19606619;stroke-linecap:square;stroke-linejoin:round;stroke-miterlimit:10;stroke-opacity:1;stroke-dasharray:none"
           id="path3996" />
      </g>
    </g>
    <g
       id="g3998"
       transform="matrix(0,-4.4266445,-5.6848293,2.7280682e-8,4046.3897,1815.8208)"
       style="stroke-width:1.19606619;stroke-miterlimit:10;stroke-dasharray:none">
      <g
         id="g4000"
         clip-path="url(#clipPath4002)"
         style="stroke-width:1.19606619;stroke-miterlimit:10;stroke-dasharray:none">
        <path
           d="m 59.384325,530.02239 1.253175,-1.6684 3.759525,-1.59973 3.759525,-1.35925 5.0127,-5.43419 3.759525,0.93518 1.253175,0.15362 3.759525,-5.50821 3.759525,-4.50638 6.265875,-3.06101 7.51905,-5.34162 5.012705,-3.18037 10.0254,-10.9279 2.50634,-2.45341 2.50636,-1.05386 2.50635,0.6299 3.75952,3.58726 1.25317,0.99729 5.0127,-2.66723 7.51905,-4.00865 6.26588,-6.18171 8.77222,-8.38339 5.0127,-4.79845 5.0127,-3.90924 6.26588,-4.14397 1.25317,1.35953 1.25318,-0.98686 1.25317,3.70389 3.75953,-3.61013 1.25317,1.53931 1.25318,-1.25028 2.50635,-1.0775 1.25317,1.89659 3.75953,-2.05013 1.25317,4.97822 5.0127,-3.54064 3.75953,4.25203 5.0127,4.32707 3.75952,2.81751 7.51905,-3.33522 5.0127,-1.82447 1.25318,-1.37566 3.75952,-1.54627 3.75953,-0.92176 5.0127,-0.53324 8.77222,-0.40947 1.25318,-0.24319 3.75952,1.67148 3.75953,1.04052 6.26587,0.89315 5.0127,0.28568 3.75953,-0.48152 5.0127,-0.87731 3.75952,2.61461 5.0127,0.16783 10.0254,1.09193 6.26588,-3.11835 3.75952,5.15877 1.25318,1.39201 2.50635,4.81338 2.50635,3.62184 1.25317,1.46555 1.25318,-1.82439 7.51905,-6.79492 5.0127,-5.47613 5.0127,-4.44571 3.75952,-2.47779 1.25318,-0.6881 5.0127,6.97549 5.0127,5.9699 5.0127,4.65949 1.25317,1.00349 3.75953,-0.0194 3.75952,-5.36966 5.0127,-5.91055 2.50636,-2.4838 37.40153,-87.37896"
           style="fill:none;stroke:#0000ff;stroke-width:1.19606619;stroke-linecap:square;stroke-linejoin:round;stroke-miterlimit:10;stroke-opacity:1;stroke-dasharray:none"
           id="path4006"
           sodipodi:nodetypes="ccccccccccccccccccccccccccccccccccccccccccccccccccccccccccccccccccccccccccccc" />
      </g>
    </g>
    <g
       id="g4008"
       transform="matrix(0,-4.4266445,-5.6848293,2.7280682e-8,4048.2973,1815.8208)"
       style="stroke-width:1.19606619;stroke-miterlimit:10;stroke-dasharray:none">
      <g
         id="g4010"
         clip-path="url(#clipPath4012)"
         style="stroke-width:1.19606619;stroke-miterlimit:10;stroke-dasharray:none">
        <path
           d="m 59.384325,527.76844 1.253175,-0.28159 5.0127,3.35258 2.50635,1.19629 6.265875,-8.38693 3.759525,-3.6823 3.759525,-5.3011 3.759525,-4.33887 6.265875,-2.84994 7.51905,-5.16957 5.012705,-3.10019 10.0254,-10.82193 2.50634,-2.43504 2.50636,-1.03791 2.50635,3.73848 2.50635,5.52228 2.50634,4.52228 3.75953,-3.66057 10.0254,-8.90113 6.26587,-7.17897 16.29128,-16.67137 6.26587,-4.54544 1.25318,-0.88713 1.25317,-0.1832 1.25318,-0.93011 1.25317,3.77626 3.75953,-3.47591 1.25317,3.45744 1.25318,-1.34251 2.50635,-1.24349 1.25317,0.22719 3.75953,-1.93976 1.25317,5.02241 5.0127,-3.43649 15.0381,0.96675 8.77223,0.6548 1.25317,-0.49764 1.25318,-1.00471 3.75952,-0.57864 5.0127,-0.109 6.26588,0.54219 3.75952,0.37455 3.75953,-0.23896 2.50635,4.69556 2.50635,3.73479 3.75952,4.24358 3.75953,3.06483 3.75952,2.24122 2.50635,1.06066 2.50635,0.50379 6.26588,0.18813 3.75952,3.81582 5.0127,0.68368 8.77223,1.69682 1.25317,0.11497 5.0127,-6.99823 1.25318,-1.54839 5.0127,-2.25507 2.50635,0.96799 3.75952,0.6057 1.25318,-1.52799 6.26587,-3.99606 3.75953,-3.92088 5.0127,-4.41057 3.75952,-2.65418 3.75953,-1.98905 5.0127,1.49116 11.27857,4.3505 3.75953,-0.94091 6.26587,-4.06332 5.01271,-2.72129 9.76722,-21.20323 26.54707,-62.01476"
           style="fill:none;stroke:#008000;stroke-width:1.19606619;stroke-linecap:square;stroke-linejoin:round;stroke-miterlimit:10;stroke-opacity:1;stroke-dasharray:none;fill-opacity:1"
           id="path4016"
           sodipodi:nodetypes="ccccccccccccccccccccccccccccccccccccccccccccccccccccccccccccccccccccccccc" />
      </g>
    </g>
    <g
       id="g4018"
       transform="matrix(0,-4.4266445,-5.6848293,2.7280682e-8,4051.2453,1815.8208)"
       style="stroke-width:1.19606619;stroke-miterlimit:10;stroke-dasharray:none">
      <g
         id="g4020"
         clip-path="url(#clipPath4022)"
         style="stroke-width:1.19606619;stroke-miterlimit:10;stroke-dasharray:none">
        <path
           d="m 59.384325,533.48952 1.253175,-0.75834 6.265875,2.14339 1.253175,0.27257 3.759525,-2.34018 1.253175,-2.51001 7.51905,-10.48664 3.759525,-5.31283 1.253175,-1.54267 5.0127,2.51601 10.0254,-2.32599 3.75953,-1.18699 6.26587,-10.75661 5.0127,-7.29923 1.25317,-1.66683 2.50636,-1.86712 2.50635,-0.0761 2.50635,5.26008 2.50634,4.30196 10.0254,-1.62724 2.50635,-0.9735 5.0127,-8.3847 6.26588,-8.86184 7.51905,-9.97588 5.0127,-5.26371 5.0127,-4.27896 2.50635,-2.01281 1.25317,-0.29418 1.25318,-1.03351 1.25317,1.74174 3.75953,-3.35662 1.25317,3.50448 1.25318,-1.31125 2.50635,1.50937 1.25317,1.62982 3.75953,1.04636 1.25317,4.48342 5.0127,-0.49987 3.75953,2.23154 11.27857,4.99317 8.77223,2.26364 1.25317,-0.48327 1.25318,-2.16533 3.75952,-3.60619 3.75953,-2.5878 3.75953,-1.80648 3.75952,-1.20338 6.26587,-1.74345 1.25318,-0.46422 3.75952,1.09491 5.0127,0.67423 7.51905,0.2315 3.75953,-0.24186 7.51905,-1.60615 3.75952,7.29601 6.26588,5.06872 3.75952,2.61729 3.75953,1.88197 1.25317,0.48834 6.26588,-2.1125 3.75952,1.68506 1.25318,0.4215 2.50635,3.10825 2.50635,2.18905 1.25317,0.83741 1.25318,-2.29628 6.26587,-1.81101 3.75953,-6.34286 5.0127,-6.93532 3.75952,-4.13029 3.75953,-3.1829 3.75953,0.0981 3.75952,0.62088 8.77222,2.08614 3.75953,-1.32587 5.0127,-3.71183 6.26588,-3.83959 9.6197,-21.72005 24.94078,-58.26242"
           style="fill:none;stroke:#ff0000;stroke-width:1.19606619;stroke-linecap:square;stroke-linejoin:round;stroke-miterlimit:10;stroke-opacity:1;stroke-dasharray:none"
           id="path4026"
           sodipodi:nodetypes="ccccccccccccccccccccccccccccccccccccccccccccccccccccccccccccccccccccccccccccccc" />
      </g>
    </g>
    <g
       id="g4028"
       transform="matrix(0,-4.4266445,-5.6848293,2.7280682e-8,4046.6515,1815.8208)"
       style="stroke-width:1.19606619;stroke-miterlimit:10;stroke-dasharray:none">
      <g
         id="g4030"
         clip-path="url(#clipPath4032)"
         style="stroke-width:1.19606619;stroke-miterlimit:10;stroke-dasharray:none">
        <path
           d="m 59.384325,525.94922 1.253175,-1.39023 5.0127,4.21317 2.50635,1.52649 3.759525,-1.22627 1.253175,-1.18355 5.0127,-1.2415 5.0127,-4.58215 2.50635,-1.82174 5.0127,0.37364 3.759525,-5.1407 5.0127,-5.77017 6.265875,-6.70377 6.26588,-8.43361 5.01269,-5.87057 2.50636,1.27048 2.50635,2.9308 2.50635,4.8436 2.50634,3.952 3.75953,-4.23424 6.26587,-5.90075 2.50635,-2.35389 5.0127,-6.40152 12.53175,-14.25334 5.0127,-4.82034 5.0127,-3.94483 3.75953,-2.68358 1.25317,-0.20043 1.25318,-0.94616 1.25317,3.75578 3.75953,-3.51387 1.25317,3.44248 1.25318,-1.35245 2.50635,-1.26139 1.25317,0.21914 3.75953,-1.96073 1.25317,5.014 5.0127,-3.45629 12.53175,0.66556 3.75953,4.67166 3.75952,3.44423 3.75953,3.05395 1.25317,-1.19933 1.25318,-1.65848 20.0508,7.56777 2.50635,0.13303 2.50635,2.03944 3.75952,2.10126 3.75953,1.32606 5.0127,1.06004 3.75952,0.39297 3.75953,-0.44293 5.0127,-0.92179 3.75952,3.25246 3.75953,-3.54978 3.75952,-2.47733 6.26588,-2.98251 1.25317,-0.52851 5.0127,-4.49804 1.25318,-1.02629 5.0127,-0.49972 2.50635,5.03385 2.50635,3.8071 1.25317,1.54677 1.25318,-0.58622 3.75952,0.39197 2.50635,-0.0536 5.01271,-3.1704 6.26587,-3.13602 3.75952,-1.21682 1.25318,-0.30925 15.0381,9.35363 1.25317,0.62998 13.78493,-16.82796 1.25318,-1.19952 8.38491,-19.45974 29.21154,-68.23905"
           style="fill:none;stroke:#00bfbf;stroke-width:1.19606619;stroke-linecap:square;stroke-linejoin:round;stroke-miterlimit:10;stroke-opacity:1;stroke-dasharray:none"
           id="path4036"
           sodipodi:nodetypes="ccccccccccccccccccccccccccccccccccccccccccccccccccccccccccccccccccccccccccccc" />
      </g>
    </g>
    <path
       d="m 34.66934,1547.4003 1e-5,-1664.20813"
       style="fill:none;stroke:#000000;stroke-width:6;stroke-linecap:square;stroke-linejoin:round;stroke-miterlimit:10;stroke-opacity:1;stroke-dasharray:none"
       id="path4212" />
    <path
       d="m -415.35601,1554.2564 -14.61959,-94.2482 -5.81728,-55.4402 -12.25844,-210.6725 -5.76088,-116.4244 -13.22845,-232.84859 -9.36416,-116.42431 -16.91924,-127.51234 -19.74511,-199.58454 -21.63955,-177.40848 -5.99494,-38.80811 -16.07507,-77.61621 -53.76332,-227.30461 0,0"
       style="fill:none;stroke:#ff0000;stroke-width:6;stroke-linecap:square;stroke-linejoin:round;stroke-miterlimit:10;stroke-opacity:1;stroke-dasharray:none"
       id="path3530" />
    <path
       d="m 2142.9699,1554.2564 14.6196,-94.2482 5.8173,-55.4402 12.2584,-210.6725 5.7609,-116.4244 13.2285,-232.84859 9.3641,-116.42431 16.9193,-127.51234 19.7451,-199.58454 21.6395,-177.40848 5.995,-38.80811 16.075,-77.61621 53.7633,-227.30461 0,0"
       style="fill:none;stroke:#ff0000;stroke-width:6;stroke-linecap:square;stroke-linejoin:round;stroke-miterlimit:10;stroke-opacity:1;stroke-dasharray:none"
       id="path3540" />
    <path
       d="m 532.67862,1554.2564 -12.15439,-16.632 7.07314,-27.7201 8.65485,-27.7201 7.03473,-16.632 -6.82165,-16.6321 -6.88659,-27.72 -8.97642,-11.0881 18.39364,-49.8961 27.16578,-16.632 13.55057,-27.7201 28.61013,-49.8962 0.67066,-5.544 -12.02548,-16.632 8.40835,-22.1761 26.08605,-16.632 8.46077,-27.7201 9.03193,-16.632 51.74838,-27.7201 -7.10833,-22.1761 -0.43305,-27.72 0.68953,-5.5441 32.94318,-27.72 14.4279,-16.6321 19.1011,-27.7201 13.9504,-27.72003 5.2416,-44.35212 -17.774,-27.72007 10.4789,-5.54402 4.9983,-22.17606 -20.1399,-22.17606 -27.6524,-22.17606 -25.40212,-27.72007 -27.50555,-38.80811 21.46649,-16.63204 20.88232,-22.17606 11.52496,-22.17606 7.4404,-33.26409 0.6907,-5.54402 22.7209,-16.63204 12.1709,-11.08803 -2.6577,-27.72007 -40.8788,-44.35212 6.278,-33.26409 5.8713,-33.26409 2.6509,-16.63205 14.2431,-11.08803 13.121,-16.63204 18.9419,-33.26409 -6.7741,-16.63205 -6.5903,-27.72007 -13.0883,-22.17606 -2.3876,-5.54402 -36.3563,-33.26409 -11.07351,-33.26409 -2.35664,-5.54401 3.23372,-5.54402 -9.25845,-27.72007 -0.81723,-27.72008 0.63513,-5.54401 -269.23119,-88.70424 -477.92534,-160.776434 -248.07051,-83.160226 0,0"
       style="fill:none;stroke:#0000ff;stroke-width:6;stroke-linecap:square;stroke-linejoin:round;stroke-miterlimit:10;stroke-opacity:0.50000000000000000;stroke-dasharray:none"
       id="path3570" />
    <path
       d="m 692.57995,1554.2564 5.3646,-5.544 -8.21925,-33.2641 53.8881,-55.4401 26.1474,-22.1761 0.92265,-22.176 23.5278,-33.2641 17.9736,-27.7201 67.29315,-49.8961 6.58785,-5.5441 3.951,-11.088 -7.01475,-11.088 -27.17265,-16.6321 -7.3239,-5.544 20.1345,-27.7201 20.17305,-27.72 38.0398,-27.7201 93.1677,-77.6162 26.9663,-33.2641 -0.2411,-5.544 4.9595,-5.544 -13.8593,-5.544 17.8667,-16.6321 -12.5922,-5.544 6.7026,-5.544 3.9096,-11.0881 -3.6557,-5.54397 7.8038,-16.63204 -21.0668,-5.54402 15.0648,-22.17606 -10.0804,-33.26409 -14.514,-55.44015 -1.0082,-22.17606 6.5225,-5.54401 3.2034,-22.17606 -2.9943,-33.26409 -4.9352,-38.80811 0.7973,-5.54401 -13.4327,-16.63205 -10.1212,-22.17606 -6.7644,-33.26409 -0.033,-16.63204 8.2618,-33.26409 -17.6937,-16.63204 -1.1779,-27.72008 -5.1216,-38.8081 21.199,-27.72008 -6.5713,-22.17606 -15.2789,-11.08803 -14.4157,-16.63204 7.5209,-5.54402 14.6896,-27.72007 26.5194,-22.17606 24.9654,-27.72008 12.5473,-22.17606 -48.7335,-72.07219 6.0701,-16.63205 26.1445,-27.72007 16.4934,-22.17606 170.4688,-57.52833 837.2905,-279.09688"
       style="fill:none;stroke:#0000ff;stroke-width:6;stroke-linecap:square;stroke-linejoin:round;stroke-miterlimit:10;stroke-opacity:0.50000000000000000;stroke-dasharray:none"
       id="path3580"
       sodipodi:nodetypes="ccccccccccccccccccccccccccccccccccccccccccccccccccccccccccccc" />
    <g
       transform="matrix(1.25,0,0,-1.2464096,-1219.22,1179.3889)"
       inkscape:label="rplug_hist"
       id="g9630"
       style="stroke-width:4.80690845;stroke-miterlimit:10;stroke-dasharray:none">
      <g
         id="g10105"
         transform="matrix(0,2.6368496,-1,0,473.07375,-517.63171)"
         style="stroke-width:2.96021443;stroke-miterlimit:10;stroke-dasharray:none">
        <path
           d="m 82.2375,27.18 509.8725,0 0,217.44 -509.8725,0 0,-217.44"
           style="fill:#ffffff;fill-opacity:1;fill-rule:nonzero;stroke:none;stroke-width:2.96021443;stroke-miterlimit:10;stroke-dasharray:none"
           id="path9634" />
        <g
           id="g9636"
           style="stroke-width:2.96021443;stroke-miterlimit:10;stroke-dasharray:none">
          <g
             id="g9638"
             clip-path="url(#clipPath9640)"
             style="stroke-width:2.96021443;stroke-miterlimit:10;stroke-dasharray:none">
            <path
               d="m 80.537925,39.970588 39.090225,0 1.69958,25.581177 18.69532,0 1.69957,-25.581177 8.49788,0 1.69957,25.581177 127.46813,0 1.69957,-25.581177 1.69958,25.581177 69.68257,0 1.69958,-25.581177 84.97875,0 1.69958,25.581177 18.69532,0 1.69957,-25.581177 132.56685,0 0,0"
               style="fill:none;stroke:#0000ff;stroke-width:2.96021443;stroke-linecap:square;stroke-linejoin:round;stroke-miterlimit:10;stroke-opacity:1;stroke-dasharray:none"
               id="path9644" />
          </g>
        </g>
        <g
           id="g9646"
           style="stroke-width:2.96021443;stroke-miterlimit:10;stroke-dasharray:none">
          <g
             id="g9648"
             clip-path="url(#clipPath9650)"
             style="stroke-width:2.96021443;stroke-miterlimit:10;stroke-dasharray:none">
            <path
               d="m 80.537925,116.71412 44.188945,0 1.69958,-25.581179 44.18895,0 1.69957,25.581179 3.39915,0 1.69958,-25.581179 32.29192,0 1.69958,25.581179 67.983,0 1.69957,-25.581179 11.89703,0 1.69957,25.581179 27.1932,0 1.69958,-25.581179 37.39065,0 1.69957,25.581179 231.1422,0 0,0"
               style="fill:none;stroke:#008000;stroke-width:2.96021443;stroke-linecap:square;stroke-linejoin:round;stroke-miterlimit:10;stroke-opacity:1;stroke-dasharray:none"
               id="path9654" />
          </g>
        </g>
        <g
           id="g9656"
           style="stroke-width:2.96021443;stroke-miterlimit:10;stroke-dasharray:none">
          <g
             id="g9658"
             clip-path="url(#clipPath9660)"
             style="stroke-width:2.96021443;stroke-miterlimit:10;stroke-dasharray:none">
            <path
               d="m 80.537925,142.29529 1.699575,0 1.699575,0 1.699575,25.58118 1.699575,-25.58118 57.785545,0 1.69958,25.58118 3.39915,0 1.69957,-25.58118 20.3949,0 1.69958,25.58118 8.49787,0 1.69958,-25.58118 84.97875,0 1.69957,25.58118 50.98725,0 1.69958,-25.58118 45.88852,0 1.69958,25.58118 37.39065,0 1.69957,-25.58118 16.99575,0 1.69958,25.58118 164.85877,0 0,0"
               style="fill:none;stroke:#ff0000;stroke-width:2.96021443;stroke-linecap:square;stroke-linejoin:round;stroke-miterlimit:10;stroke-opacity:1;stroke-dasharray:none"
               id="path9664" />
          </g>
        </g>
        <g
           id="g9666"
           style="stroke-width:2.96021443;stroke-miterlimit:10;stroke-dasharray:none">
          <g
             id="g9668"
             clip-path="url(#clipPath9670)"
             style="stroke-width:2.96021443;stroke-miterlimit:10;stroke-dasharray:none">
            <path
               d="m 80.537925,219.03882 1.699575,0 1.699575,0 1.699575,-25.58117 22.09448,0 1.69957,25.58117 62.88427,0 1.69958,-25.58117 13.5966,0 1.69957,25.58117 11.89703,0 1.69958,-25.58117 6.79829,0 1.69958,25.58117 15.29617,0 1.69958,-25.58117 59.48512,0 1.69958,25.58117 93.47662,0 1.69958,-25.58117 64.58385,0 1.69957,25.58117 20.3949,0 1.69958,-25.58117 1.69957,25.58117 118.97025,0 0,0"
               style="fill:none;stroke:#00bfbf;stroke-width:2.96021443;stroke-linecap:square;stroke-linejoin:round;stroke-miterlimit:10;stroke-opacity:1;stroke-dasharray:none"
               id="path9674" />
          </g>
        </g>
      </g>
    </g>
    <g
       transform="matrix(1.8381141e-8,-1.25,-1.25,-1.8381141e-8,3144.3266,1175.8099)"
       inkscape:label="lplug_hist"
       id="g10651"
       style="stroke-width:4.8;stroke-miterlimit:10;stroke-dasharray:none">
      <path
         id="path10655"
         style="fill:#ffffff;fill-opacity:1;fill-rule:nonzero;stroke:none;stroke-width:4.8;stroke-miterlimit:10;stroke-dasharray:none"
         d="m -298.83966,411.17999 1335.97116,2e-5 0,217.44 -1335.97116,-2e-5 0,-217.44" />
      <g
         id="g10657"
         transform="matrix(2.6130568,2.3719861e-8,2.3719862e-8,1,-514.31888,383.99999)"
         style="stroke-width:2.96938706;stroke-miterlimit:10;stroke-dasharray:none">
        <g
           clip-path="url(#clipPath10661)"
           id="g10659"
           style="stroke-width:2.96938706;stroke-miterlimit:10;stroke-dasharray:none">
          <path
             id="path10665"
             style="fill:none;stroke:#0000ff;stroke-width:2.96938706;stroke-linecap:square;stroke-linejoin:round;stroke-miterlimit:10;stroke-opacity:1;stroke-dasharray:none"
             d="m 80.758275,65.551765 18.746475,0 1.70422,-25.581177 5.11268,0 1.70422,25.581177 156.7887,0 1.70423,-25.581177 15.33803,0 1.70422,25.581177 119.29575,0 1.70422,-25.581177 13.63381,0 1.70422,25.581177 30.67605,0 1.70422,-25.581177 25.56338,0 1.70422,25.581177 115.8873,0 0,0" />
        </g>
      </g>
      <g
         id="g10667"
         transform="matrix(2.6130568,2.3719861e-8,2.3719862e-8,1,-514.31888,383.99999)"
         style="stroke-width:2.96938706;stroke-miterlimit:10;stroke-dasharray:none">
        <g
           clip-path="url(#clipPath10671)"
           id="g10669"
           style="stroke-width:2.96938706;stroke-miterlimit:10;stroke-dasharray:none">
          <path
             id="path10675"
             style="fill:none;stroke:#008000;stroke-width:2.96938706;stroke-linecap:square;stroke-linejoin:round;stroke-miterlimit:10;stroke-opacity:1;stroke-dasharray:none"
             d="m 80.758275,91.132941 11.929575,0 1.704225,25.581179 68.168995,0 1.70423,-25.581179 8.52112,0 1.70423,25.581179 156.7887,0 1.70422,-25.581179 61.3521,0 1.70423,25.581179 199.39432,0 0,0" />
        </g>
      </g>
      <g
         id="g10677"
         transform="matrix(2.6130568,2.3719861e-8,2.3719862e-8,1,-514.31888,383.99999)"
         style="stroke-width:2.96938706;stroke-miterlimit:10;stroke-dasharray:none">
        <g
           clip-path="url(#clipPath10681)"
           id="g10679"
           style="stroke-width:2.96938706;stroke-miterlimit:10;stroke-dasharray:none">
          <path
             id="path10685"
             style="fill:none;stroke:#ff0000;stroke-width:2.96938706;stroke-linecap:square;stroke-linejoin:round;stroke-miterlimit:10;stroke-opacity:1;stroke-dasharray:none"
             d="m 80.758275,142.29529 17.04225,0 1.704225,25.58118 17.04225,0 1.70423,-25.58118 23.85914,0 1.70423,25.58118 22.15492,0 1.70423,-25.58118 22.15492,0 1.70423,25.58118 54.5352,0 1.70422,-25.58118 51.12675,0 1.70423,25.58118 68.169,0 1.70422,-25.58118 47.71831,0 1.70422,25.58118 1.70422,-25.58118 6.8169,0 1.70423,25.58118 165.30982,0 0,0" />
        </g>
      </g>
      <g
         id="g10687"
         transform="matrix(2.6130568,2.3719861e-8,2.3719862e-8,1,-514.31888,383.99999)"
         style="stroke-width:2.96938706;stroke-miterlimit:10;stroke-dasharray:none">
        <g
           clip-path="url(#clipPath10691)"
           id="g10689"
           style="stroke-width:2.96938706;stroke-miterlimit:10;stroke-dasharray:none">
          <path
             id="path10695"
             style="fill:none;stroke:#00bfbf;stroke-width:2.96938706;stroke-linecap:square;stroke-linejoin:round;stroke-miterlimit:10;stroke-opacity:1;stroke-dasharray:none"
             d="m 80.758275,219.03882 1.704225,0 1.704225,-25.58117 39.197175,0 1.70423,25.58117 34.08449,0 1.70423,-25.58117 11.92957,0 1.70423,25.58117 107.36618,0 1.70422,-25.58117 13.6338,0 1.70422,25.58117 1.70423,0 1.70422,-25.58117 71.57745,0 1.70423,25.58117 34.0845,0 1.70422,-25.58117 61.3521,0 1.70423,25.58117 120.99997,0 0,0" />
        </g>
      </g>
    </g>
  </g>
</svg>
