<?xml version="1.0" encoding="UTF-8" standalone="no"?>
<!-- Created with Inkscape (http://www.inkscape.org/) -->
<svg
   xmlns:dc="http://purl.org/dc/elements/1.1/"
   xmlns:cc="http://creativecommons.org/ns#"
   xmlns:rdf="http://www.w3.org/1999/02/22-rdf-syntax-ns#"
   xmlns:svg="http://www.w3.org/2000/svg"
   xmlns="http://www.w3.org/2000/svg"
   xmlns:xlink="http://www.w3.org/1999/xlink"
   xmlns:sodipodi="http://sodipodi.sourceforge.net/DTD/sodipodi-0.dtd"
   xmlns:inkscape="http://www.inkscape.org/namespaces/inkscape"
   width="427.97415"
   height="442.08612"
   id="svg2"
   sodipodi:version="0.32"
   inkscape:version="0.46"
   sodipodi:docname="model_plus_cell.svg"
   inkscape:output_extension="org.inkscape.output.svg.inkscape"
   version="1.0">
  <defs
     id="defs4">
    <inkscape:perspective
       sodipodi:type="inkscape:persp3d"
       inkscape:vp_x="0 : 526.18109 : 1"
       inkscape:vp_y="0 : 1000 : 0"
       inkscape:vp_z="744.09448 : 526.18109 : 1"
       inkscape:persp3d-origin="372.04724 : 350.78739 : 1"
       id="perspective10" />
    <inkscape:perspective
       sodipodi:type="inkscape:persp3d"
       inkscape:vp_x="0 : 526.18109 : 1"
       inkscape:vp_y="0 : 1000 : 0"
       inkscape:vp_z="744.09448 : 526.18109 : 1"
       inkscape:persp3d-origin="372.04724 : 350.78739 : 1"
       id="perspective5062" />
    <marker
       refY="0"
       id="marker4220"
       refX="0"
       style="overflow:visible"
       orient="auto"
       inkscape:stockid="Arrow2Lend">
      <path
         id="path3203"
         style="font-size:12px;fill-rule:evenodd;stroke-width:0.625;stroke-linejoin:round"
         d="M 8.7185878,4.0337352 L -2.2072895,0.016013256 L 8.7185884,-4.0017078 C 6.97309,-1.6296469 6.9831476,1.6157441 8.7185878,4.0337352 z"
         transform="matrix(-1.1,0,0,-1.1,-1.1,0)" />
    </marker>
    <marker
       refY="0"
       id="Arrow1Lstart"
       refX="0"
       style="overflow:visible"
       orient="auto"
       inkscape:stockid="Arrow1Lstart">
      <path
         id="path3182"
         style="fill-rule:evenodd;stroke:#000000;stroke-width:1pt;marker-start:none"
         d="M 0,0 L 5,-5 L -12.5,0 L 5,5 L 0,0 z"
         transform="matrix(0.8,0,0,0.8,10,0)" />
    </marker>
    <marker
       refY="0"
       id="Arrow1Mend"
       refX="0"
       style="overflow:visible"
       orient="auto"
       inkscape:stockid="Arrow1Mend">
      <path
         id="path4226"
         style="fill-rule:evenodd;stroke:#000000;stroke-width:1pt;marker-start:none"
         d="M 0,0 L 5,-5 L -12.5,0 L 5,5 L 0,0 z"
         transform="matrix(-0.4,0,0,-0.4,-4,0)" />
    </marker>
    <marker
       refY="0"
       id="marker4228"
       refX="0"
       style="overflow:visible"
       orient="auto"
       inkscape:stockid="Arrow1Lend">
      <path
         id="path3028"
         style="fill-rule:evenodd;stroke:#000000;stroke-width:1pt;marker-start:none"
         d="M 0,0 L 5,-5 L -12.5,0 L 5,5 L 0,0 z"
         transform="matrix(-0.8,0,0,-0.8,-10,0)" />
    </marker>
    <marker
       inkscape:stockid="Arrow1Lend"
       orient="auto"
       style="overflow:visible"
       refX="0"
       id="Arrow1Lend"
       refY="0">
      <path
         d="M 0,0 L 5,-5 L -12.5,0 L 5,5 L 0,0 z"
         id="path3258"
         style="fill-rule:evenodd;stroke:#000000;stroke-width:1pt;marker-start:none"
         transform="matrix(-0.8,0,0,-0.8,-10,0)" />
    </marker>
    <marker
       style="overflow:visible"
       id="Arrow2Lend"
       refX="0"
       refY="0"
       orient="auto"
       inkscape:stockid="Arrow2Lend">
      <path
         transform="matrix(-1.1,0,0,-1.1,-1.1,0)"
         d="M 8.7185878,4.0337352 L -2.2072895,0.016013256 L 8.7185884,-4.0017078 C 6.97309,-1.6296469 6.9831476,1.6157441 8.7185878,4.0337352 z"
         style="font-size:12px;fill-rule:evenodd;stroke-width:0.625;stroke-linejoin:round"
         id="path3276" />
    </marker>
    <marker
       style="overflow:visible"
       id="Arrow2Mend"
       refX="0"
       refY="0"
       orient="auto"
       inkscape:stockid="Arrow2Mend">
      <path
         transform="scale(-0.6,-0.6)"
         d="M 8.7185878,4.0337352 L -2.2072895,0.016013256 L 8.7185884,-4.0017078 C 6.97309,-1.6296469 6.9831476,1.6157441 8.7185878,4.0337352 z"
         style="font-size:12px;fill-rule:evenodd;stroke-width:0.625;stroke-linejoin:round"
         id="path3282" />
    </marker>
    <marker
       style="overflow:visible"
       id="Arrow1Mstart"
       refX="0"
       refY="0"
       orient="auto"
       inkscape:stockid="Arrow1Mstart">
      <path
         transform="matrix(0.4,0,0,0.4,4,0)"
         style="fill-rule:evenodd;stroke:#000000;stroke-width:1pt;marker-start:none"
         d="M 0,0 L 5,-5 L -12.5,0 L 5,5 L 0,0 z"
         id="path4890" />
    </marker>
    <inkscape:perspective
       id="perspective15105"
       inkscape:persp3d-origin="106.29921 : 70.86614 : 1"
       inkscape:vp_z="212.59842 : 106.29921 : 1"
       inkscape:vp_y="0 : 1000 : 0"
       inkscape:vp_x="0 : 106.29921 : 1"
       sodipodi:type="inkscape:persp3d" />
    <defs
       id="defs2425">
      <g
         id="g2427">
        <symbol
           style="overflow:visible"
           overflow="visible"
           id="textext-8457ec60-0">
          <path
             style="stroke:none"
             d=""
             id="path2430" />
        </symbol>
        <symbol
           style="overflow:visible"
           overflow="visible"
           id="textext-8457ec60-1">
          <path
             style="stroke:none"
             d="M 3.328125,-3.015625 C 3.390625,-3.265625 3.625,-4.1875 4.3125,-4.1875 C 4.359375,-4.1875 4.609375,-4.1875 4.8125,-4.0625 C 4.53125,-4 4.34375,-3.765625 4.34375,-3.515625 C 4.34375,-3.359375 4.453125,-3.171875 4.71875,-3.171875 C 4.9375,-3.171875 5.25,-3.34375 5.25,-3.75 C 5.25,-4.265625 4.671875,-4.40625 4.328125,-4.40625 C 3.75,-4.40625 3.40625,-3.875 3.28125,-3.65625 C 3.03125,-4.3125 2.5,-4.40625 2.203125,-4.40625 C 1.171875,-4.40625 0.59375,-3.125 0.59375,-2.875 C 0.59375,-2.765625 0.703125,-2.765625 0.71875,-2.765625 C 0.796875,-2.765625 0.828125,-2.796875 0.84375,-2.875 C 1.1875,-3.9375 1.84375,-4.1875 2.1875,-4.1875 C 2.375,-4.1875 2.71875,-4.09375 2.71875,-3.515625 C 2.71875,-3.203125 2.546875,-2.546875 2.1875,-1.140625 C 2.03125,-0.53125 1.671875,-0.109375 1.234375,-0.109375 C 1.171875,-0.109375 0.953125,-0.109375 0.734375,-0.234375 C 0.984375,-0.296875 1.203125,-0.5 1.203125,-0.78125 C 1.203125,-1.046875 0.984375,-1.125 0.84375,-1.125 C 0.53125,-1.125 0.296875,-0.875 0.296875,-0.546875 C 0.296875,-0.09375 0.78125,0.109375 1.21875,0.109375 C 1.890625,0.109375 2.25,-0.59375 2.265625,-0.640625 C 2.390625,-0.28125 2.75,0.109375 3.34375,0.109375 C 4.375,0.109375 4.9375,-1.171875 4.9375,-1.421875 C 4.9375,-1.53125 4.859375,-1.53125 4.828125,-1.53125 C 4.734375,-1.53125 4.71875,-1.484375 4.6875,-1.421875 C 4.359375,-0.34375 3.6875,-0.109375 3.375,-0.109375 C 2.984375,-0.109375 2.828125,-0.421875 2.828125,-0.765625 C 2.828125,-0.984375 2.875,-1.203125 2.984375,-1.640625 L 3.328125,-3.015625 z"
             id="path2433" />
        </symbol>
        <symbol
           style="overflow:visible"
           overflow="visible"
           id="textext-8457ec60-2">
          <path
             style="stroke:none"
             d="M 0.59375,-0.390625 C 0.546875,-0.25 0.546875,-0.234375 0.546875,-0.15625 C 0.546875,0.015625 0.6875,0.109375 0.84375,0.109375 C 1.140625,0.109375 1.203125,-0.125 1.28125,-0.453125 C 1.375,-0.8125 1.3125,-0.625 1.75,-2.296875 C 2.578125,-2.265625 3.453125,-2.09375 3.453125,-1.453125 C 3.453125,-1.375 3.453125,-1.328125 3.421875,-1.21875 C 3.390625,-1.0625 3.375,-0.953125 3.375,-0.875 C 3.375,-0.296875 3.78125,0.109375 4.296875,0.109375 C 4.609375,0.109375 4.875,-0.0625 5.078125,-0.40625 C 5.328125,-0.828125 5.4375,-1.40625 5.4375,-1.421875 C 5.4375,-1.53125 5.359375,-1.53125 5.328125,-1.53125 C 5.21875,-1.53125 5.21875,-1.484375 5.1875,-1.34375 C 5,-0.65625 4.765625,-0.109375 4.3125,-0.109375 C 4.109375,-0.109375 4,-0.234375 4,-0.59375 C 4,-0.734375 4.03125,-0.984375 4.078125,-1.140625 C 4.09375,-1.234375 4.125,-1.359375 4.125,-1.46875 C 4.125,-2.40625 2.75,-2.484375 2.1875,-2.5 C 2.515625,-2.6875 2.84375,-2.953125 3.109375,-3.1875 C 3.5625,-3.5625 3.859375,-3.8125 4.25,-3.984375 C 4.234375,-3.921875 4.203125,-3.8125 4.203125,-3.765625 C 4.203125,-3.640625 4.28125,-3.40625 4.578125,-3.40625 C 4.90625,-3.40625 5.125,-3.703125 5.125,-3.953125 C 5.125,-4.03125 5.078125,-4.296875 4.71875,-4.296875 C 4.109375,-4.296875 3.53125,-3.796875 3.09375,-3.421875 C 2.40625,-2.84375 2.171875,-2.703125 1.8125,-2.578125 C 1.84375,-2.6875 1.96875,-3.1875 2.015625,-3.359375 C 2.078125,-3.625 2.1875,-4.09375 2.1875,-4.140625 C 2.1875,-4.3125 2.078125,-4.40625 1.90625,-4.40625 C 1.875,-4.40625 1.59375,-4.40625 1.5,-4.046875 L 0.59375,-0.390625 z"
             id="path2436" />
        </symbol>
        <symbol
           style="overflow:visible"
           overflow="visible"
           id="textext-8457ec60-3">
          <path
             style="stroke:none"
             d=""
             id="path2439" />
        </symbol>
        <symbol
           style="overflow:visible"
           overflow="visible"
           id="textext-8457ec60-4">
          <path
             style="stroke:none"
             d="M 0.84375,-0.4375 C 0.828125,-0.34375 0.78125,-0.171875 0.78125,-0.15625 C 0.78125,0 0.90625,0.0625 1.015625,0.0625 C 1.140625,0.0625 1.25,-0.015625 1.296875,-0.078125 C 1.328125,-0.140625 1.375,-0.375 1.421875,-0.515625 C 1.453125,-0.640625 1.53125,-0.96875 1.5625,-1.140625 C 1.609375,-1.296875 1.65625,-1.453125 1.6875,-1.609375 C 1.765625,-1.890625 1.78125,-1.953125 1.984375,-2.234375 C 2.171875,-2.515625 2.5,-2.875 3.03125,-2.875 C 3.421875,-2.875 3.4375,-2.515625 3.4375,-2.390625 C 3.4375,-1.96875 3.140625,-1.203125 3.03125,-0.90625 C 2.953125,-0.703125 2.921875,-0.640625 2.921875,-0.53125 C 2.921875,-0.15625 3.21875,0.0625 3.578125,0.0625 C 4.28125,0.0625 4.578125,-0.890625 4.578125,-1 C 4.578125,-1.09375 4.5,-1.09375 4.46875,-1.09375 C 4.375,-1.09375 4.375,-1.046875 4.34375,-0.96875 C 4.1875,-0.40625 3.875,-0.125 3.609375,-0.125 C 3.453125,-0.125 3.421875,-0.21875 3.421875,-0.375 C 3.421875,-0.53125 3.46875,-0.625 3.59375,-0.9375 C 3.671875,-1.15625 3.953125,-1.890625 3.953125,-2.28125 C 3.953125,-2.953125 3.421875,-3.078125 3.046875,-3.078125 C 2.46875,-3.078125 2.078125,-2.71875 1.875,-2.4375 C 1.828125,-2.921875 1.421875,-3.078125 1.125,-3.078125 C 0.828125,-3.078125 0.671875,-2.859375 0.578125,-2.703125 C 0.421875,-2.4375 0.328125,-2.046875 0.328125,-2 C 0.328125,-1.921875 0.421875,-1.921875 0.453125,-1.921875 C 0.546875,-1.921875 0.546875,-1.9375 0.59375,-2.125 C 0.703125,-2.53125 0.84375,-2.875 1.109375,-2.875 C 1.296875,-2.875 1.34375,-2.71875 1.34375,-2.53125 C 1.34375,-2.40625 1.28125,-2.140625 1.21875,-1.953125 C 1.171875,-1.765625 1.109375,-1.484375 1.078125,-1.328125 L 0.84375,-0.4375 z"
             id="path2442" />
        </symbol>
      </g>
    </defs>
    <defs
       id="defs2541">
      <g
         id="g2543">
        <symbol
           id="textext-351924a9-0"
           overflow="visible"
           style="overflow:visible">
          <path
             id="path2546"
             d=""
             style="stroke:none" />
        </symbol>
        <symbol
           id="textext-351924a9-1"
           overflow="visible"
           style="overflow:visible">
          <path
             id="path2549"
             d="M 3.328125,-3.015625 C 3.390625,-3.265625 3.625,-4.1875 4.3125,-4.1875 C 4.359375,-4.1875 4.609375,-4.1875 4.8125,-4.0625 C 4.53125,-4 4.34375,-3.765625 4.34375,-3.515625 C 4.34375,-3.359375 4.453125,-3.171875 4.71875,-3.171875 C 4.9375,-3.171875 5.25,-3.34375 5.25,-3.75 C 5.25,-4.265625 4.671875,-4.40625 4.328125,-4.40625 C 3.75,-4.40625 3.40625,-3.875 3.28125,-3.65625 C 3.03125,-4.3125 2.5,-4.40625 2.203125,-4.40625 C 1.171875,-4.40625 0.59375,-3.125 0.59375,-2.875 C 0.59375,-2.765625 0.703125,-2.765625 0.71875,-2.765625 C 0.796875,-2.765625 0.828125,-2.796875 0.84375,-2.875 C 1.1875,-3.9375 1.84375,-4.1875 2.1875,-4.1875 C 2.375,-4.1875 2.71875,-4.09375 2.71875,-3.515625 C 2.71875,-3.203125 2.546875,-2.546875 2.1875,-1.140625 C 2.03125,-0.53125 1.671875,-0.109375 1.234375,-0.109375 C 1.171875,-0.109375 0.953125,-0.109375 0.734375,-0.234375 C 0.984375,-0.296875 1.203125,-0.5 1.203125,-0.78125 C 1.203125,-1.046875 0.984375,-1.125 0.84375,-1.125 C 0.53125,-1.125 0.296875,-0.875 0.296875,-0.546875 C 0.296875,-0.09375 0.78125,0.109375 1.21875,0.109375 C 1.890625,0.109375 2.25,-0.59375 2.265625,-0.640625 C 2.390625,-0.28125 2.75,0.109375 3.34375,0.109375 C 4.375,0.109375 4.9375,-1.171875 4.9375,-1.421875 C 4.9375,-1.53125 4.859375,-1.53125 4.828125,-1.53125 C 4.734375,-1.53125 4.71875,-1.484375 4.6875,-1.421875 C 4.359375,-0.34375 3.6875,-0.109375 3.375,-0.109375 C 2.984375,-0.109375 2.828125,-0.421875 2.828125,-0.765625 C 2.828125,-0.984375 2.875,-1.203125 2.984375,-1.640625 L 3.328125,-3.015625 z"
             style="stroke:none" />
        </symbol>
        <symbol
           id="textext-351924a9-2"
           overflow="visible"
           style="overflow:visible">
          <path
             id="path2552"
             d="M 2.296875,-3.5 C 2.359375,-3.703125 2.453125,-4.09375 2.453125,-4.140625 C 2.453125,-4.3125 2.328125,-4.40625 2.15625,-4.40625 C 2.140625,-4.40625 1.859375,-4.390625 1.765625,-4.046875 L 0.328125,1.71875 C 0.296875,1.84375 0.296875,1.859375 0.296875,1.890625 C 0.296875,2.03125 0.40625,2.15625 0.578125,2.15625 C 0.78125,2.15625 0.90625,1.96875 0.921875,1.9375 C 0.96875,1.859375 1.09375,1.328125 1.46875,-0.203125 C 1.796875,0.0625 2.25,0.109375 2.4375,0.109375 C 3.140625,0.109375 3.53125,-0.34375 3.765625,-0.625 C 3.859375,-0.171875 4.234375,0.109375 4.671875,0.109375 C 5.015625,0.109375 5.25,-0.125 5.40625,-0.4375 C 5.578125,-0.796875 5.703125,-1.40625 5.703125,-1.421875 C 5.703125,-1.53125 5.609375,-1.53125 5.578125,-1.53125 C 5.484375,-1.53125 5.46875,-1.484375 5.4375,-1.34375 C 5.28125,-0.703125 5.09375,-0.109375 4.6875,-0.109375 C 4.421875,-0.109375 4.390625,-0.375 4.390625,-0.5625 C 4.390625,-0.78125 4.5,-1.25 4.578125,-1.609375 C 4.671875,-1.96875 4.78125,-2.328125 4.859375,-2.6875 C 4.890625,-2.828125 5,-3.203125 5.03125,-3.359375 C 5.078125,-3.59375 5.1875,-3.96875 5.1875,-4.03125 C 5.1875,-4.203125 5.046875,-4.296875 4.890625,-4.296875 C 4.84375,-4.296875 4.578125,-4.28125 4.5,-3.953125 C 4.375,-3.453125 4.1875,-2.703125 4.03125,-2.078125 C 3.921875,-1.578125 3.8125,-1.171875 3.78125,-1.0625 C 3.765625,-1.015625 3.296875,-0.109375 2.484375,-0.109375 C 1.984375,-0.109375 1.75,-0.4375 1.75,-0.984375 C 1.75,-1.265625 1.8125,-1.546875 1.890625,-1.828125 L 2.296875,-3.5 z"
             style="stroke:none" />
        </symbol>
        <symbol
           id="textext-351924a9-3"
           overflow="visible"
           style="overflow:visible">
          <path
             id="path2555"
             d="M 0.59375,-0.390625 C 0.546875,-0.25 0.546875,-0.234375 0.546875,-0.15625 C 0.546875,0.015625 0.6875,0.109375 0.84375,0.109375 C 1.140625,0.109375 1.203125,-0.125 1.28125,-0.453125 C 1.375,-0.8125 1.3125,-0.625 1.75,-2.296875 C 2.578125,-2.265625 3.453125,-2.09375 3.453125,-1.453125 C 3.453125,-1.375 3.453125,-1.328125 3.421875,-1.21875 C 3.390625,-1.0625 3.375,-0.953125 3.375,-0.875 C 3.375,-0.296875 3.78125,0.109375 4.296875,0.109375 C 4.609375,0.109375 4.875,-0.0625 5.078125,-0.40625 C 5.328125,-0.828125 5.4375,-1.40625 5.4375,-1.421875 C 5.4375,-1.53125 5.359375,-1.53125 5.328125,-1.53125 C 5.21875,-1.53125 5.21875,-1.484375 5.1875,-1.34375 C 5,-0.65625 4.765625,-0.109375 4.3125,-0.109375 C 4.109375,-0.109375 4,-0.234375 4,-0.59375 C 4,-0.734375 4.03125,-0.984375 4.078125,-1.140625 C 4.09375,-1.234375 4.125,-1.359375 4.125,-1.46875 C 4.125,-2.40625 2.75,-2.484375 2.1875,-2.5 C 2.515625,-2.6875 2.84375,-2.953125 3.109375,-3.1875 C 3.5625,-3.5625 3.859375,-3.8125 4.25,-3.984375 C 4.234375,-3.921875 4.203125,-3.8125 4.203125,-3.765625 C 4.203125,-3.640625 4.28125,-3.40625 4.578125,-3.40625 C 4.90625,-3.40625 5.125,-3.703125 5.125,-3.953125 C 5.125,-4.03125 5.078125,-4.296875 4.71875,-4.296875 C 4.109375,-4.296875 3.53125,-3.796875 3.09375,-3.421875 C 2.40625,-2.84375 2.171875,-2.703125 1.8125,-2.578125 C 1.84375,-2.6875 1.96875,-3.1875 2.015625,-3.359375 C 2.078125,-3.625 2.1875,-4.09375 2.1875,-4.140625 C 2.1875,-4.3125 2.078125,-4.40625 1.90625,-4.40625 C 1.875,-4.40625 1.59375,-4.40625 1.5,-4.046875 L 0.59375,-0.390625 z"
             style="stroke:none" />
        </symbol>
        <symbol
           id="textext-351924a9-4"
           overflow="visible"
           style="overflow:visible">
          <path
             id="path2558"
             d=""
             style="stroke:none" />
        </symbol>
        <symbol
           id="textext-351924a9-5"
           overflow="visible"
           style="overflow:visible">
          <path
             id="path2561"
             d="M 0.84375,-0.4375 C 0.828125,-0.34375 0.78125,-0.171875 0.78125,-0.15625 C 0.78125,0 0.90625,0.0625 1.015625,0.0625 C 1.140625,0.0625 1.25,-0.015625 1.296875,-0.078125 C 1.328125,-0.140625 1.375,-0.375 1.421875,-0.515625 C 1.453125,-0.640625 1.53125,-0.96875 1.5625,-1.140625 C 1.609375,-1.296875 1.65625,-1.453125 1.6875,-1.609375 C 1.765625,-1.890625 1.78125,-1.953125 1.984375,-2.234375 C 2.171875,-2.515625 2.5,-2.875 3.03125,-2.875 C 3.421875,-2.875 3.4375,-2.515625 3.4375,-2.390625 C 3.4375,-1.96875 3.140625,-1.203125 3.03125,-0.90625 C 2.953125,-0.703125 2.921875,-0.640625 2.921875,-0.53125 C 2.921875,-0.15625 3.21875,0.0625 3.578125,0.0625 C 4.28125,0.0625 4.578125,-0.890625 4.578125,-1 C 4.578125,-1.09375 4.5,-1.09375 4.46875,-1.09375 C 4.375,-1.09375 4.375,-1.046875 4.34375,-0.96875 C 4.1875,-0.40625 3.875,-0.125 3.609375,-0.125 C 3.453125,-0.125 3.421875,-0.21875 3.421875,-0.375 C 3.421875,-0.53125 3.46875,-0.625 3.59375,-0.9375 C 3.671875,-1.15625 3.953125,-1.890625 3.953125,-2.28125 C 3.953125,-2.953125 3.421875,-3.078125 3.046875,-3.078125 C 2.46875,-3.078125 2.078125,-2.71875 1.875,-2.4375 C 1.828125,-2.921875 1.421875,-3.078125 1.125,-3.078125 C 0.828125,-3.078125 0.671875,-2.859375 0.578125,-2.703125 C 0.421875,-2.4375 0.328125,-2.046875 0.328125,-2 C 0.328125,-1.921875 0.421875,-1.921875 0.453125,-1.921875 C 0.546875,-1.921875 0.546875,-1.9375 0.59375,-2.125 C 0.703125,-2.53125 0.84375,-2.875 1.109375,-2.875 C 1.296875,-2.875 1.34375,-2.71875 1.34375,-2.53125 C 1.34375,-2.40625 1.28125,-2.140625 1.21875,-1.953125 C 1.171875,-1.765625 1.109375,-1.484375 1.078125,-1.328125 L 0.84375,-0.4375 z"
             style="stroke:none" />
        </symbol>
        <symbol
           id="textext-351924a9-6"
           overflow="visible"
           style="overflow:visible">
          <path
             id="path2564"
             d="M 3.03125,-0.5625 C 2.984375,-0.421875 2.921875,-0.1875 2.921875,-0.15625 C 2.921875,0 3.046875,0.0625 3.15625,0.0625 C 3.296875,0.0625 3.40625,-0.015625 3.4375,-0.078125 C 3.46875,-0.140625 3.53125,-0.375 3.5625,-0.515625 C 3.59375,-0.640625 3.671875,-0.96875 3.71875,-1.140625 C 3.75,-1.296875 3.796875,-1.453125 3.828125,-1.609375 C 3.90625,-1.90625 3.90625,-1.921875 4.046875,-2.140625 C 4.265625,-2.484375 4.625,-2.875 5.15625,-2.875 C 5.546875,-2.875 5.578125,-2.5625 5.578125,-2.390625 C 5.578125,-1.96875 5.28125,-1.203125 5.15625,-0.90625 C 5.09375,-0.703125 5.0625,-0.640625 5.0625,-0.53125 C 5.0625,-0.15625 5.359375,0.0625 5.71875,0.0625 C 6.421875,0.0625 6.71875,-0.890625 6.71875,-1 C 6.71875,-1.09375 6.640625,-1.09375 6.609375,-1.09375 C 6.515625,-1.09375 6.515625,-1.046875 6.484375,-0.96875 C 6.328125,-0.40625 6.015625,-0.125 5.75,-0.125 C 5.59375,-0.125 5.5625,-0.21875 5.5625,-0.375 C 5.5625,-0.53125 5.609375,-0.625 5.734375,-0.9375 C 5.8125,-1.15625 6.09375,-1.890625 6.09375,-2.28125 C 6.09375,-2.390625 6.09375,-2.6875 5.84375,-2.890625 C 5.71875,-2.96875 5.515625,-3.078125 5.1875,-3.078125 C 4.5625,-3.078125 4.1875,-2.65625 3.953125,-2.375 C 3.90625,-2.96875 3.40625,-3.078125 3.046875,-3.078125 C 2.46875,-3.078125 2.078125,-2.71875 1.875,-2.4375 C 1.828125,-2.921875 1.421875,-3.078125 1.125,-3.078125 C 0.828125,-3.078125 0.671875,-2.859375 0.578125,-2.703125 C 0.421875,-2.4375 0.328125,-2.046875 0.328125,-2 C 0.328125,-1.921875 0.421875,-1.921875 0.453125,-1.921875 C 0.546875,-1.921875 0.546875,-1.9375 0.59375,-2.125 C 0.703125,-2.53125 0.84375,-2.875 1.109375,-2.875 C 1.296875,-2.875 1.34375,-2.71875 1.34375,-2.53125 C 1.34375,-2.40625 1.28125,-2.140625 1.21875,-1.953125 C 1.171875,-1.765625 1.109375,-1.484375 1.078125,-1.328125 L 0.84375,-0.4375 C 0.828125,-0.34375 0.78125,-0.171875 0.78125,-0.15625 C 0.78125,0 0.90625,0.0625 1.015625,0.0625 C 1.140625,0.0625 1.25,-0.015625 1.296875,-0.078125 C 1.328125,-0.140625 1.375,-0.375 1.421875,-0.515625 C 1.453125,-0.640625 1.53125,-0.96875 1.5625,-1.140625 C 1.609375,-1.296875 1.65625,-1.453125 1.6875,-1.609375 C 1.765625,-1.890625 1.78125,-1.953125 1.984375,-2.234375 C 2.171875,-2.515625 2.5,-2.875 3.03125,-2.875 C 3.421875,-2.875 3.4375,-2.515625 3.4375,-2.390625 C 3.4375,-2.21875 3.421875,-2.125 3.3125,-1.734375 L 3.03125,-0.5625 z"
             style="stroke:none" />
        </symbol>
        <symbol
           id="textext-351924a9-7"
           overflow="visible"
           style="overflow:visible">
          <path
             id="path2567"
             d="M 2.265625,-4.359375 C 2.265625,-4.46875 2.171875,-4.625 1.984375,-4.625 C 1.796875,-4.625 1.59375,-4.4375 1.59375,-4.234375 C 1.59375,-4.125 1.671875,-3.96875 1.875,-3.96875 C 2.0625,-3.96875 2.265625,-4.171875 2.265625,-4.359375 z M 0.84375,-0.8125 C 0.8125,-0.71875 0.78125,-0.640625 0.78125,-0.515625 C 0.78125,-0.1875 1.046875,0.0625 1.4375,0.0625 C 2.125,0.0625 2.4375,-0.890625 2.4375,-1 C 2.4375,-1.09375 2.34375,-1.09375 2.328125,-1.09375 C 2.234375,-1.09375 2.21875,-1.046875 2.1875,-0.96875 C 2.03125,-0.40625 1.734375,-0.125 1.453125,-0.125 C 1.3125,-0.125 1.28125,-0.21875 1.28125,-0.375 C 1.28125,-0.53125 1.328125,-0.65625 1.390625,-0.8125 C 1.46875,-1 1.546875,-1.1875 1.609375,-1.375 C 1.671875,-1.546875 1.9375,-2.171875 1.953125,-2.265625 C 1.984375,-2.328125 2,-2.40625 2,-2.484375 C 2,-2.8125 1.71875,-3.078125 1.34375,-3.078125 C 0.640625,-3.078125 0.328125,-2.125 0.328125,-2 C 0.328125,-1.921875 0.421875,-1.921875 0.453125,-1.921875 C 0.546875,-1.921875 0.546875,-1.953125 0.578125,-2.03125 C 0.75,-2.625 1.0625,-2.875 1.3125,-2.875 C 1.421875,-2.875 1.484375,-2.828125 1.484375,-2.640625 C 1.484375,-2.46875 1.453125,-2.375 1.28125,-1.9375 L 0.84375,-0.8125 z"
             style="stroke:none" />
        </symbol>
        <symbol
           id="textext-351924a9-8"
           overflow="visible"
           style="overflow:visible">
          <path
             id="path2570"
             d="M 3.703125,-1.859375 C 3.703125,-2.625 3.125,-3.078125 2.4375,-3.078125 C 1.40625,-3.078125 0.4375,-2.109375 0.4375,-1.15625 C 0.4375,-0.453125 0.9375,0.0625 1.703125,0.0625 C 2.703125,0.0625 3.703125,-0.84375 3.703125,-1.859375 z M 1.703125,-0.125 C 1.359375,-0.125 1.015625,-0.34375 1.015625,-0.90625 C 1.015625,-1.1875 1.140625,-1.875 1.421875,-2.265625 C 1.71875,-2.703125 2.125,-2.875 2.4375,-2.875 C 2.8125,-2.875 3.125,-2.625 3.125,-2.109375 C 3.125,-1.9375 3.046875,-1.25 2.734375,-0.765625 C 2.46875,-0.34375 2.0625,-0.125 1.703125,-0.125 z"
             style="stroke:none" />
        </symbol>
        <symbol
           id="textext-351924a9-9"
           overflow="visible"
           style="overflow:visible">
          <path
             id="path2573"
             d="M 3,-2.625 C 2.828125,-2.578125 2.703125,-2.4375 2.703125,-2.296875 C 2.703125,-2.125 2.84375,-2.0625 2.9375,-2.0625 C 3.015625,-2.0625 3.28125,-2.109375 3.28125,-2.46875 C 3.28125,-2.921875 2.78125,-3.078125 2.34375,-3.078125 C 1.265625,-3.078125 1.0625,-2.265625 1.0625,-2.0625 C 1.0625,-1.796875 1.21875,-1.625 1.3125,-1.546875 C 1.484375,-1.40625 1.609375,-1.375 2.09375,-1.296875 C 2.25,-1.265625 2.6875,-1.1875 2.6875,-0.84375 C 2.6875,-0.71875 2.609375,-0.453125 2.328125,-0.28125 C 2.046875,-0.125 1.703125,-0.125 1.625,-0.125 C 1.34375,-0.125 0.953125,-0.1875 0.78125,-0.421875 C 1.015625,-0.453125 1.171875,-0.625 1.171875,-0.8125 C 1.171875,-0.984375 1.046875,-1.078125 0.90625,-1.078125 C 0.703125,-1.078125 0.5,-0.90625 0.5,-0.609375 C 0.5,-0.1875 0.9375,0.0625 1.609375,0.0625 C 2.90625,0.0625 3.140625,-0.8125 3.140625,-1.078125 C 3.140625,-1.71875 2.4375,-1.84375 2.171875,-1.890625 C 2.109375,-1.90625 1.9375,-1.9375 1.890625,-1.953125 C 1.640625,-2 1.515625,-2.140625 1.515625,-2.296875 C 1.515625,-2.453125 1.640625,-2.640625 1.796875,-2.75 C 1.984375,-2.859375 2.21875,-2.875 2.34375,-2.875 C 2.484375,-2.875 2.84375,-2.859375 3,-2.625 z"
             style="stroke:none" />
        </symbol>
      </g>
    </defs>
    <defs
       id="defs2891">
      <g
         id="g2893">
        <symbol
           style="overflow:visible"
           overflow="visible"
           id="textext-ee2df7d4-0">
          <path
             style="stroke:none"
             d=""
             id="path2896" />
        </symbol>
        <symbol
           style="overflow:visible"
           overflow="visible"
           id="textext-ee2df7d4-1">
          <path
             style="stroke:none"
             d="M 3.328125,-3.015625 C 3.390625,-3.265625 3.625,-4.1875 4.3125,-4.1875 C 4.359375,-4.1875 4.609375,-4.1875 4.8125,-4.0625 C 4.53125,-4 4.34375,-3.765625 4.34375,-3.515625 C 4.34375,-3.359375 4.453125,-3.171875 4.71875,-3.171875 C 4.9375,-3.171875 5.25,-3.34375 5.25,-3.75 C 5.25,-4.265625 4.671875,-4.40625 4.328125,-4.40625 C 3.75,-4.40625 3.40625,-3.875 3.28125,-3.65625 C 3.03125,-4.3125 2.5,-4.40625 2.203125,-4.40625 C 1.171875,-4.40625 0.59375,-3.125 0.59375,-2.875 C 0.59375,-2.765625 0.703125,-2.765625 0.71875,-2.765625 C 0.796875,-2.765625 0.828125,-2.796875 0.84375,-2.875 C 1.1875,-3.9375 1.84375,-4.1875 2.1875,-4.1875 C 2.375,-4.1875 2.71875,-4.09375 2.71875,-3.515625 C 2.71875,-3.203125 2.546875,-2.546875 2.1875,-1.140625 C 2.03125,-0.53125 1.671875,-0.109375 1.234375,-0.109375 C 1.171875,-0.109375 0.953125,-0.109375 0.734375,-0.234375 C 0.984375,-0.296875 1.203125,-0.5 1.203125,-0.78125 C 1.203125,-1.046875 0.984375,-1.125 0.84375,-1.125 C 0.53125,-1.125 0.296875,-0.875 0.296875,-0.546875 C 0.296875,-0.09375 0.78125,0.109375 1.21875,0.109375 C 1.890625,0.109375 2.25,-0.59375 2.265625,-0.640625 C 2.390625,-0.28125 2.75,0.109375 3.34375,0.109375 C 4.375,0.109375 4.9375,-1.171875 4.9375,-1.421875 C 4.9375,-1.53125 4.859375,-1.53125 4.828125,-1.53125 C 4.734375,-1.53125 4.71875,-1.484375 4.6875,-1.421875 C 4.359375,-0.34375 3.6875,-0.109375 3.375,-0.109375 C 2.984375,-0.109375 2.828125,-0.421875 2.828125,-0.765625 C 2.828125,-0.984375 2.875,-1.203125 2.984375,-1.640625 L 3.328125,-3.015625 z"
             id="path2899" />
        </symbol>
        <symbol
           style="overflow:visible"
           overflow="visible"
           id="textext-ee2df7d4-2">
          <path
             style="stroke:none"
             d=""
             id="path2902" />
        </symbol>
        <symbol
           style="overflow:visible"
           overflow="visible"
           id="textext-ee2df7d4-3">
          <path
             style="stroke:none"
             d="M 1.90625,-2.90625 C 2.03125,-2.90625 2.109375,-2.875 2.28125,-2.828125 C 2.421875,-2.796875 2.640625,-2.734375 2.8125,-2.734375 C 3.0625,-2.734375 3.09375,-2.90625 3.09375,-3 C 3.09375,-3.046875 3.078125,-3.265625 2.8125,-3.265625 C 2.65625,-3.265625 2.453125,-3.21875 2.28125,-3.15625 C 2.078125,-3.109375 1.96875,-3.09375 1.90625,-3.09375 C 1.921875,-3.1875 1.921875,-3.390625 2,-3.8125 C 2.0625,-4.125 2.09375,-4.421875 2.09375,-4.578125 C 2.09375,-4.640625 2.09375,-4.90625 1.8125,-4.90625 C 1.546875,-4.90625 1.546875,-4.640625 1.546875,-4.578125 C 1.546875,-4.421875 1.59375,-4.140625 1.65625,-3.8125 C 1.71875,-3.390625 1.734375,-3.1875 1.734375,-3.09375 C 1.609375,-3.09375 1.53125,-3.125 1.359375,-3.171875 C 1.21875,-3.203125 1,-3.265625 0.84375,-3.265625 C 0.5625,-3.265625 0.546875,-3.046875 0.546875,-3 C 0.546875,-2.90625 0.578125,-2.734375 0.84375,-2.734375 C 0.984375,-2.734375 1.203125,-2.78125 1.359375,-2.84375 C 1.5625,-2.890625 1.671875,-2.90625 1.734375,-2.90625 C 1.734375,-2.796875 1.71875,-2.703125 1.65625,-2.421875 C 1.546875,-1.9375 1.546875,-1.890625 1.546875,-1.53125 C 1.546875,-0.765625 1.609375,0.390625 1.703125,1.375 C 1.703125,1.46875 1.734375,1.484375 1.8125,1.484375 C 1.875,1.484375 1.9375,1.484375 1.9375,1.40625 C 2.046875,0.46875 2.09375,-0.59375 2.09375,-1.53125 C 2.09375,-1.890625 2.09375,-1.9375 1.984375,-2.421875 C 1.921875,-2.703125 1.921875,-2.796875 1.90625,-2.90625 z"
             id="path2905" />
        </symbol>
        <symbol
           style="overflow:visible"
           overflow="visible"
           id="textext-ee2df7d4-4">
          <path
             style="stroke:none"
             d=""
             id="path2908" />
        </symbol>
        <symbol
           style="overflow:visible"
           overflow="visible"
           id="textext-ee2df7d4-5">
          <path
             style="stroke:none"
             d="M 0.84375,-0.4375 C 0.828125,-0.34375 0.78125,-0.171875 0.78125,-0.15625 C 0.78125,0 0.90625,0.0625 1.015625,0.0625 C 1.140625,0.0625 1.25,-0.015625 1.296875,-0.078125 C 1.328125,-0.140625 1.375,-0.375 1.421875,-0.515625 C 1.453125,-0.640625 1.53125,-0.96875 1.5625,-1.140625 C 1.609375,-1.296875 1.65625,-1.453125 1.6875,-1.609375 C 1.765625,-1.890625 1.78125,-1.953125 1.984375,-2.234375 C 2.171875,-2.515625 2.5,-2.875 3.03125,-2.875 C 3.421875,-2.875 3.4375,-2.515625 3.4375,-2.390625 C 3.4375,-1.96875 3.140625,-1.203125 3.03125,-0.90625 C 2.953125,-0.703125 2.921875,-0.640625 2.921875,-0.53125 C 2.921875,-0.15625 3.21875,0.0625 3.578125,0.0625 C 4.28125,0.0625 4.578125,-0.890625 4.578125,-1 C 4.578125,-1.09375 4.5,-1.09375 4.46875,-1.09375 C 4.375,-1.09375 4.375,-1.046875 4.34375,-0.96875 C 4.1875,-0.40625 3.875,-0.125 3.609375,-0.125 C 3.453125,-0.125 3.421875,-0.21875 3.421875,-0.375 C 3.421875,-0.53125 3.46875,-0.625 3.59375,-0.9375 C 3.671875,-1.15625 3.953125,-1.890625 3.953125,-2.28125 C 3.953125,-2.953125 3.421875,-3.078125 3.046875,-3.078125 C 2.46875,-3.078125 2.078125,-2.71875 1.875,-2.4375 C 1.828125,-2.921875 1.421875,-3.078125 1.125,-3.078125 C 0.828125,-3.078125 0.671875,-2.859375 0.578125,-2.703125 C 0.421875,-2.4375 0.328125,-2.046875 0.328125,-2 C 0.328125,-1.921875 0.421875,-1.921875 0.453125,-1.921875 C 0.546875,-1.921875 0.546875,-1.9375 0.59375,-2.125 C 0.703125,-2.53125 0.84375,-2.875 1.109375,-2.875 C 1.296875,-2.875 1.34375,-2.71875 1.34375,-2.53125 C 1.34375,-2.40625 1.28125,-2.140625 1.21875,-1.953125 C 1.171875,-1.765625 1.109375,-1.484375 1.078125,-1.328125 L 0.84375,-0.4375 z"
             id="path2911" />
        </symbol>
        <symbol
           style="overflow:visible"
           overflow="visible"
           id="textext-ee2df7d4-6">
          <path
             style="stroke:none"
             d="M 3.03125,-0.5625 C 2.984375,-0.421875 2.921875,-0.1875 2.921875,-0.15625 C 2.921875,0 3.046875,0.0625 3.15625,0.0625 C 3.296875,0.0625 3.40625,-0.015625 3.4375,-0.078125 C 3.46875,-0.140625 3.53125,-0.375 3.5625,-0.515625 C 3.59375,-0.640625 3.671875,-0.96875 3.71875,-1.140625 C 3.75,-1.296875 3.796875,-1.453125 3.828125,-1.609375 C 3.90625,-1.90625 3.90625,-1.921875 4.046875,-2.140625 C 4.265625,-2.484375 4.625,-2.875 5.15625,-2.875 C 5.546875,-2.875 5.578125,-2.5625 5.578125,-2.390625 C 5.578125,-1.96875 5.28125,-1.203125 5.15625,-0.90625 C 5.09375,-0.703125 5.0625,-0.640625 5.0625,-0.53125 C 5.0625,-0.15625 5.359375,0.0625 5.71875,0.0625 C 6.421875,0.0625 6.71875,-0.890625 6.71875,-1 C 6.71875,-1.09375 6.640625,-1.09375 6.609375,-1.09375 C 6.515625,-1.09375 6.515625,-1.046875 6.484375,-0.96875 C 6.328125,-0.40625 6.015625,-0.125 5.75,-0.125 C 5.59375,-0.125 5.5625,-0.21875 5.5625,-0.375 C 5.5625,-0.53125 5.609375,-0.625 5.734375,-0.9375 C 5.8125,-1.15625 6.09375,-1.890625 6.09375,-2.28125 C 6.09375,-2.390625 6.09375,-2.6875 5.84375,-2.890625 C 5.71875,-2.96875 5.515625,-3.078125 5.1875,-3.078125 C 4.5625,-3.078125 4.1875,-2.65625 3.953125,-2.375 C 3.90625,-2.96875 3.40625,-3.078125 3.046875,-3.078125 C 2.46875,-3.078125 2.078125,-2.71875 1.875,-2.4375 C 1.828125,-2.921875 1.421875,-3.078125 1.125,-3.078125 C 0.828125,-3.078125 0.671875,-2.859375 0.578125,-2.703125 C 0.421875,-2.4375 0.328125,-2.046875 0.328125,-2 C 0.328125,-1.921875 0.421875,-1.921875 0.453125,-1.921875 C 0.546875,-1.921875 0.546875,-1.9375 0.59375,-2.125 C 0.703125,-2.53125 0.84375,-2.875 1.109375,-2.875 C 1.296875,-2.875 1.34375,-2.71875 1.34375,-2.53125 C 1.34375,-2.40625 1.28125,-2.140625 1.21875,-1.953125 C 1.171875,-1.765625 1.109375,-1.484375 1.078125,-1.328125 L 0.84375,-0.4375 C 0.828125,-0.34375 0.78125,-0.171875 0.78125,-0.15625 C 0.78125,0 0.90625,0.0625 1.015625,0.0625 C 1.140625,0.0625 1.25,-0.015625 1.296875,-0.078125 C 1.328125,-0.140625 1.375,-0.375 1.421875,-0.515625 C 1.453125,-0.640625 1.53125,-0.96875 1.5625,-1.140625 C 1.609375,-1.296875 1.65625,-1.453125 1.6875,-1.609375 C 1.765625,-1.890625 1.78125,-1.953125 1.984375,-2.234375 C 2.171875,-2.515625 2.5,-2.875 3.03125,-2.875 C 3.421875,-2.875 3.4375,-2.515625 3.4375,-2.390625 C 3.4375,-2.21875 3.421875,-2.125 3.3125,-1.734375 L 3.03125,-0.5625 z"
             id="path2914" />
        </symbol>
      </g>
    </defs>
    <inkscape:perspective
       id="perspective5826"
       inkscape:persp3d-origin="292.5 : 147 : 1"
       inkscape:vp_z="585 : 220.5 : 1"
       inkscape:vp_y="0 : 1000 : 0"
       inkscape:vp_x="0 : 220.5 : 1"
       sodipodi:type="inkscape:persp3d" />
  </defs>
  <sodipodi:namedview
     id="base"
     pagecolor="#ffffff"
     bordercolor="#666666"
     borderopacity="1.0"
     inkscape:pageopacity="0.0"
     inkscape:pageshadow="2"
     inkscape:zoom="0.7"
     inkscape:cx="61.315627"
     inkscape:cy="254.09961"
     inkscape:document-units="cm"
     inkscape:current-layer="layer3"
     showgrid="false"
     inkscape:window-width="917"
     inkscape:window-height="789"
     inkscape:window-x="148"
     inkscape:window-y="24"
     units="cm"
     showguides="true"
     inkscape:guide-bbox="true">
    <sodipodi:guide
       orientation="0,1"
       position="224.25387,1022.2744"
       id="guide6023" />
  </sodipodi:namedview>
  <metadata
     id="metadata7">
    <rdf:RDF>
      <cc:Work
         rdf:about="">
        <dc:format>image/svg+xml</dc:format>
        <dc:type
           rdf:resource="http://purl.org/dc/dcmitype/StillImage" />
      </cc:Work>
    </rdf:RDF>
  </metadata>
  <g
     inkscape:groupmode="layer"
     id="layer3"
     inkscape:label="idMT#1"
     style="display:inline">
    <path
       id="path15555"
       style="opacity:0.95666665;fill:none;fill-rule:evenodd;stroke:#ca1a46;stroke-width:1.48674262;stroke-linecap:butt;stroke-linejoin:miter;stroke-miterlimit:4;stroke-dasharray:none;stroke-opacity:0.74276524;display:inline"
       d="M 626.25477,257.13603 C 524.93307,261.60778 382.73099,280.78236 286.92285,270.55127 M 628.18874,252.1664 C 526.86704,256.63816 393.47478,272.09747 288.85682,265.58168 M 627.28428,262.05244 C 525.96257,266.52418 382.47612,287.99078 287.95235,275.46767 M 289.27715,277.91135 C 376.44719,287.59125 527.28736,268.96784 628.60907,264.49608 M 289.47954,274.20653 C 386.05562,281.59884 527.48975,265.26302 628.81147,260.79127 M 289.90643,268.03023 C 389.44431,272.47765 527.91665,259.08675 629.23835,254.61501"
       transform="matrix(0.7168007,0,0,0.8496726,-56.906949,-109.51672)" />
    <path
       transform="matrix(0.7168007,0,0,0.8496726,-56.906949,-109.51672)"
       d="M 434.69577,263.53044 C 337.69634,267.83885 211.65487,263.21074 116.28013,257.77087 M 434.51552,268.46858 C 339.14079,273.17752 211.47463,268.14887 116.0999,262.70899 M 435.26837,272.41088 C 308.24743,275.78657 211.17177,271.94036 115.2692,266.42509 M 118.63443,265.13091 C 214.00917,270.57078 345.09482,274.85421 437.05007,270.89049 M 116.70046,270.10055 C 212.0752,275.5404 270.22673,282.18346 435.11612,275.86007 M 117.60493,260.21451 C 212.97967,265.65438 332.72024,270.72426 436.02058,265.97408 M 118.7866,263.15615 L 114.24611,262.98009"
       style="opacity:0.95666665;fill:none;fill-rule:evenodd;stroke:#ca1a46;stroke-width:1.48674262;stroke-linecap:butt;stroke-linejoin:miter;stroke-miterlimit:4;stroke-dasharray:none;stroke-opacity:0.74276524;display:inline"
       id="path15578" />
  </g>
  <g
     inkscape:label="Calque 1"
     inkscape:groupmode="layer"
     id="layer1"
     transform="translate(-22.986997,-118.20067)"
     style="display:inline">
    <g
       inkscape:label="Calque 1"
       id="g15126"
       style="display:inline"
       transform="matrix(0.7688436,0,0,0.7688436,199.77405,73.432162)" />
    <g
       transform="matrix(0.5461621,0,0,0.5461621,2.65023,89.749625)"
       id="g4233"
       style="display:none"
       inkscape:label="Calque 1" />
    <g
       transform="matrix(0.5461621,0,0,0.5461621,-26.63385,184.85818)"
       style="display:none"
       inkscape:label="texte1bis"
       id="layer11">
      <g
         id="g5847"
         style="display:inline"
         transform="translate(33.509859,-67.650183)">
        <path
           style="fill:none;fill-rule:evenodd;stroke:#000000;stroke-width:1px;stroke-linecap:butt;stroke-linejoin:miter;stroke-opacity:1;display:inline"
           d="M 57.84384,147.60697 L 98.05423,124.63076 L 114.66137,124.4522"
           id="path5849"
           sodipodi:nodetypes="ccc" />
        <text
           xml:space="preserve"
           style="font-size:11px;font-style:normal;font-variant:normal;font-weight:normal;font-stretch:normal;text-align:center;line-height:125%;writing-mode:lr-tb;text-anchor:middle;fill:#000000;fill-opacity:1;stroke:none;stroke-width:1px;stroke-linecap:butt;stroke-linejoin:miter;stroke-opacity:1;font-family:Sans"
           x="154.84865"
           y="125.79215"
           id="text5851"
           sodipodi:linespacing="125%"><tspan
             sodipodi:role="line"
             x="154.84865"
             y="125.79215"
             id="tspan5855">microtubules</tspan></text>
      </g>
    </g>
    <text
       id="text5083"
       y="182.90999"
       x="204.43393"
       style="font-size:9.22612381px;font-style:normal;font-weight:normal;fill:#000000;fill-opacity:1;stroke:none;stroke-width:1px;stroke-linecap:butt;stroke-linejoin:miter;stroke-opacity:1;font-family:Bitstream Vera Sans"
       xml:space="preserve"><tspan
         y="182.90999"
         x="204.43393"
         id="tspan5085"
         sodipodi:role="line" /></text>
    <text
       xml:space="preserve"
       style="font-size:10.7638092px;font-style:normal;font-variant:normal;font-weight:normal;font-stretch:normal;text-align:start;line-height:100%;writing-mode:lr-tb;text-anchor:start;fill:#000000;fill-opacity:1;stroke:none;stroke-width:1px;stroke-linecap:butt;stroke-linejoin:miter;stroke-opacity:1;font-family:DejaVu Sans;-inkscape-font-specification:DejaVu Sans"
       x="48.443588"
       y="192.74159"
       id="text15628"
       sodipodi:linespacing="100%"><tspan
         sodipodi:role="line"
         id="tspan15630"
         x="48.443588"
         y="192.74159" /></text>
    <g
       id="g16084"
       transform="matrix(0.7168007,0,0,0.8496726,-33.919952,8.683955)">
      <path
         sodipodi:nodetypes="cscsc"
         id="path15491"
         d="M 323.27613,239.52828 C 323.99898,241.81587 325.00145,244.25626 330.40737,244.61775 C 335.85825,244.98224 337.16387,244.01376 334.45295,240.38168 C 335.59717,236.2466 335.71621,237.37042 330.40737,237.10602 C 326.21601,236.89727 324.20342,236.13198 323.26981,238.12662"
         style="fill:#b000c8;fill-opacity:0.38906753;fill-rule:nonzero;stroke:none;stroke-width:3;stroke-linecap:round;stroke-linejoin:bevel;stroke-miterlimit:4;stroke-dashoffset:0;stroke-opacity:0.74276524" />
      <path
         sodipodi:nodetypes="csssc"
         id="path15501"
         d="M 418.98097,222.1055 C 418.16071,219.851 411.79984,215.82126 406.55113,217.33657 C 401.30243,218.85185 402.01258,218.26693 404.95498,222.42239 C 406.34136,224.38032 404.27434,227.02035 409.52305,225.50505 C 413.55494,224.34105 417.65148,226.33934 418.49871,224.30651"
         style="fill:#b000c8;fill-opacity:0.38823529;fill-rule:nonzero;stroke:none;stroke-width:3;stroke-linecap:round;stroke-linejoin:bevel;stroke-miterlimit:4;stroke-dashoffset:0;stroke-opacity:0.74276524" />
      <path
         style="opacity:0.95666665;fill:none;fill-rule:evenodd;stroke:#4761e7;stroke-width:1.48674262;stroke-linecap:butt;stroke-linejoin:miter;stroke-miterlimit:4;stroke-dasharray:none;stroke-opacity:0.74276524"
         d="M 630.79323,258.48733 L 438.98692,242.09083"
         id="path15549" />
      <path
         style="opacity:0.95666665;fill:none;fill-rule:evenodd;stroke:#4761e7;stroke-width:1.48674262;stroke-linecap:butt;stroke-linejoin:miter;stroke-miterlimit:4;stroke-dasharray:none;stroke-opacity:0.74276524"
         d="M 631.01119,257.04594 L 412.84455,231.86268"
         id="path15547" />
      <path
         style="opacity:0.95666665;fill:none;fill-rule:evenodd;stroke:#4761e7;stroke-width:1.48674262;stroke-linecap:butt;stroke-linejoin:miter;stroke-miterlimit:4;stroke-dasharray:none;stroke-opacity:0.74276524"
         d="M 631.87024,254.85879 L 417.34457,223.18227"
         id="path15545" />
      <path
         style="opacity:0.95666665;fill:none;fill-rule:evenodd;stroke:#4761e7;stroke-width:1.48674262;stroke-linecap:butt;stroke-linejoin:miter;stroke-miterlimit:4;stroke-dasharray:none;stroke-opacity:0.74276524"
         d="M 318.3213,239.92021 L 114.61634,261.9027"
         id="path15564" />
      <path
         style="opacity:0.95666665;fill:none;fill-rule:evenodd;stroke:#4761e7;stroke-width:1.48674262;stroke-linecap:butt;stroke-linejoin:miter;stroke-miterlimit:4;stroke-dasharray:none;stroke-opacity:0.74276524"
         d="M 321.2219,233.24633 L 113.44526,260.00648"
         id="path15560" />
      <path
         style="opacity:0.95666665;fill:none;fill-rule:evenodd;stroke:#4761e7;stroke-width:1.48674262;stroke-linecap:butt;stroke-linejoin:miter;stroke-miterlimit:4;stroke-dasharray:none;stroke-opacity:0.74276524"
         d="M 319.74654,224.87065 L 114.48825,258.50286"
         id="path9419" />
      <path
         sodipodi:nodetypes="czssz"
         id="path9711"
         d="M 119.48775,262.12616 C 119.48775,270.83395 132.42449,277.90112 123.56164,277.90112 C 114.69878,277.90112 107.50574,270.83395 107.50574,262.12616 C 107.50574,253.41839 114.69878,246.35121 123.56164,246.35121 C 132.42449,246.35121 119.48775,253.41839 119.48775,262.12616 z"
         style="fill:#ff9b41;fill-opacity:1;fill-rule:nonzero;stroke:none;stroke-width:3;stroke-linecap:round;stroke-linejoin:bevel;stroke-miterlimit:4;stroke-dashoffset:0;stroke-opacity:1" />
      <path
         sodipodi:nodetypes="czssz"
         id="path15399"
         d="M 627.69574,257.78489 C 627.69574,266.49268 614.759,273.55985 623.62185,273.55985 C 632.4847,273.55985 639.67774,266.49268 639.67774,257.78489 C 639.67774,249.07713 632.4847,242.00995 623.62185,242.00995 C 614.759,242.00995 627.69574,249.07712 627.69574,257.78489 z"
         style="fill:#ff9b41;fill-opacity:1;fill-rule:nonzero;stroke:none;stroke-width:3;stroke-linecap:round;stroke-linejoin:bevel;stroke-miterlimit:4;stroke-dashoffset:0;stroke-opacity:1" />
      <path
         sodipodi:nodetypes="cscsc"
         id="path15440"
         d="M 321.01397,233.08405 C 321.73682,230.79645 322.73929,228.35607 328.14521,227.99458 C 333.59609,227.63009 334.90171,228.59857 332.19079,232.23065 C 333.33501,236.36573 333.45405,235.24191 328.14521,235.50631 C 323.95385,235.71506 321.94125,236.48035 321.00765,234.48571"
         style="fill:#b000c8;fill-opacity:0.38906753;fill-rule:nonzero;stroke:none;stroke-width:3;stroke-linecap:round;stroke-linejoin:bevel;stroke-miterlimit:4;stroke-dashoffset:0;stroke-opacity:0.74276524" />
      <path
         sodipodi:nodetypes="cscsscsssc"
         id="path15505"
         inkscape:transform-center-x="0.39249425"
         d="M 330.44627,233.71648 C 326.67736,211.87418 357.62759,181.49097 340.27724,149.06882 C 336.73609,142.45155 351.02604,136.44581 359.35126,138.84852 C 366.94605,140.02247 366.74372,148.36416 366.71622,157.97698 C 366.56803,209.77712 347.51395,205.40896 342.36103,222.94608 C 340.22973,230.19959 338.58769,227.87595 342.54151,237.6778 C 344.84058,247.57677 362.95911,248.90345 366.32958,257.02413 C 368.41942,262.05932 366.68329,301.77852 360.62471,306.26288 C 352.4831,312.28904 346.47421,310.62421 347.14934,301.5489 C 350.60836,255.05165 331.96797,241.71126 333.79468,240.44857"
         style="opacity:0.95666665;fill:#7aa7a8;fill-opacity:0.53376202;fill-rule:evenodd;stroke:none;stroke-width:1px;stroke-linecap:butt;stroke-linejoin:miter;stroke-opacity:1;display:inline"
         inkscape:transform-center-y="7.9125152" />
      <path
         sodipodi:nodetypes="csssc"
         id="path15437"
         d="M 318.59262,223.70683 C 319.31547,221.41924 325.49774,217.12052 330.80658,218.40941 C 336.11542,219.69828 335.38084,219.14435 332.61929,223.42212 C 331.31813,225.43769 333.49642,227.98668 328.18758,226.69779 C 324.10949,225.70771 320.10239,227.87978 319.16878,225.88514"
         style="fill:#b000c8;fill-opacity:1;fill-rule:nonzero;stroke:none;stroke-width:3;stroke-linecap:round;stroke-linejoin:bevel;stroke-miterlimit:4;stroke-dashoffset:0;stroke-opacity:0.74276524" />
      <path
         sodipodi:nodetypes="cscsc"
         id="path15493"
         d="M 414.98003,238.11319 C 414.35592,240.42966 413.45898,242.91078 408.07354,243.5037 C 402.64328,244.10154 401.29735,243.18991 403.85007,239.44496 C 402.52963,235.36274 402.45887,236.49063 407.7515,235.99887 C 411.93005,235.61062 413.908,234.75976 414.92625,236.71254"
         style="fill:#b000c8;fill-opacity:0.38906753;fill-rule:nonzero;stroke:none;stroke-width:3;stroke-linecap:round;stroke-linejoin:bevel;stroke-miterlimit:4;stroke-dashoffset:0;stroke-opacity:0.74276524" />
      <path
         sodipodi:nodetypes="cscsccccsc"
         id="path15495"
         inkscape:transform-center-x="-1.5682438"
         d="M 409.80705,236.91354 C 412.31118,214.93147 379.77401,182.9189 395.23185,149.76566 C 398.38674,142.99918 383.76873,136.67249 375.5928,139.4429 C 368.46955,141.41993 368.90744,149.64076 368.88589,156.00793 C 368.7093,208.66266 393.27745,204.22061 399.45543,223.99855 C 401.75446,230.86834 406.14551,232.92626 398.12492,237.48081 C 393.3641,247.62636 381.33995,249.26062 378.46123,257.52614 C 376.64551,262.64279 375.37767,303.57687 380.06881,307.98507 C 387.00238,314.98928 394.21706,312.08217 393.01931,303.0486 C 386.88264,256.76516 408.51308,245.90295 407.5081,240.0486"
         style="opacity:0.95666665;fill:#7aa7a8;fill-opacity:0.53376202;fill-rule:evenodd;stroke:none;stroke-width:1px;stroke-linecap:butt;stroke-linejoin:miter;stroke-opacity:1;display:inline"
         inkscape:transform-center-y="8.2557322" />
      <path
         style="opacity:0.95666665;fill:none;fill-rule:evenodd;stroke:#4761e7;stroke-width:1.48674262;stroke-linecap:butt;stroke-linejoin:miter;stroke-miterlimit:4;stroke-dasharray:none;stroke-opacity:0.74276524"
         d="M 383.15873,242.06044 L 123.37137,263.93723"
         id="path15562" />
      <path
         sodipodi:nodetypes="cscsc"
         id="path15497"
         d="M 416.96384,231.5779 C 416.14359,229.3234 415.03741,226.92824 409.62097,226.79883 C 404.15947,226.66835 402.89657,227.69192 405.76071,231.20444 C 404.79482,235.38477 404.62771,234.2671 409.943,234.30366 C 414.13946,234.33254 416.18302,235.01084 417.03025,232.97801"
         style="fill:#b000c8;fill-opacity:0.38906753;fill-rule:nonzero;stroke:none;stroke-width:3;stroke-linecap:round;stroke-linejoin:bevel;stroke-miterlimit:4;stroke-dashoffset:0;stroke-opacity:0.74276524" />
      <path
         sodipodi:nodetypes="csssc"
         id="path15503"
         d="M 380.22813,242.94149 C 381.04839,245.196 392.77637,248.41436 398.02507,246.89905 C 403.27378,245.38377 403.9922,246.68298 401.04979,242.52752 C 399.66342,240.56959 401.73044,237.92956 396.48173,239.44486 C 392.44984,240.60886 381.55762,238.70765 380.71039,240.74049"
         style="fill:#b000c8;fill-opacity:1;fill-rule:nonzero;stroke:none;stroke-width:3;stroke-linecap:round;stroke-linejoin:bevel;stroke-miterlimit:4;stroke-dashoffset:0;stroke-opacity:0.74276524" />
      <path
         sodipodi:nodetypes="cscccsc"
         id="path15581"
         d="M 368.74256,160.1123 C 369.13015,166.9128 370.67653,173.86879 371.81781,179.37938 C 373.46063,187.31162 377.3738,196.11635 367.72782,191.30647 C 359.32746,196.37435 364.10862,187.54846 364.63639,178.35381 C 365.79336,172.22489 366.02414,165.69407 366.00245,159.83389 C 368.28876,140.57647 360.88604,139.98004 367.43995,140.21036 C 374.10481,140.44459 366.96627,140.809 368.74256,160.1123 z"
         style="fill:#cac41a;fill-opacity:0.51125399;fill-rule:nonzero;stroke:none;stroke-width:3;stroke-linecap:round;stroke-linejoin:bevel;stroke-miterlimit:4;stroke-dashoffset:0;stroke-opacity:1" />
      <path
         sodipodi:nodetypes="czssz"
         id="path15981"
         d="M 338.95523,231.58359 C 338.06723,222.45317 348.49812,213.46611 340.85827,214.54642 C 333.21843,215.62674 327.73864,223.91369 328.62663,233.04411 C 329.51464,242.17452 336.43578,248.70792 344.07563,247.6276 C 351.71547,246.54729 339.8432,240.71398 338.95523,231.58359 z"
         style="fill:#25dd0f;fill-opacity:1;fill-rule:nonzero;stroke:none;stroke-width:3;stroke-linecap:round;stroke-linejoin:bevel;stroke-miterlimit:4;stroke-dashoffset:0;stroke-opacity:1" />
      <path
         sodipodi:nodetypes="czssz"
         id="path15983"
         d="M 399.02929,231.76337 C 399.91729,222.63295 389.4864,213.64589 397.12625,214.7262 C 404.76609,215.80652 410.24588,224.09347 409.35789,233.22389 C 408.46988,242.3543 401.54874,248.8877 393.90889,247.80738 C 386.26905,246.72707 398.14132,240.89376 399.02929,231.76337 z"
         style="fill:#25dd0f;fill-opacity:1;fill-rule:nonzero;stroke:none;stroke-width:3;stroke-linecap:round;stroke-linejoin:bevel;stroke-miterlimit:4;stroke-dashoffset:0;stroke-opacity:1" />
    </g>
    <g
       id="g16057"
       transform="translate(228.0652,199.49414)">
      <g
         style="font-size:14.34344196px"
         transform="matrix(0.8366193,0,0,0.8366193,252.03055,-169.00578)"
         id="g15987">
        <text
           xml:space="preserve"
           style="font-size:14.34344196px;font-style:normal;font-variant:normal;font-weight:normal;font-stretch:normal;text-align:start;line-height:100%;writing-mode:lr-tb;text-anchor:start;fill:#000000;fill-opacity:1;stroke:none;stroke-width:1px;stroke-linecap:butt;stroke-linejoin:miter;stroke-opacity:1;font-family:DejaVu Sans;-inkscape-font-specification:DejaVu Sans"
           x="-494.82471"
           y="209.98479"
           id="text15652"
           sodipodi:linespacing="100%"><tspan
             sodipodi:role="line"
             x="-494.82471"
             y="209.98479"
             id="tspan15660">SPB</tspan></text>
      </g>
      <g
         style="font-size:14.34344196px"
         transform="matrix(0.8366193,0,0,0.8366193,484.54105,-185.46882)"
         id="g15960">
        <text
           xml:space="preserve"
           style="font-size:14.34344196px;font-style:normal;font-variant:normal;font-weight:normal;font-stretch:normal;text-align:start;line-height:100%;writing-mode:lr-tb;text-anchor:start;fill:#000000;fill-opacity:1;stroke:none;stroke-width:1px;stroke-linecap:butt;stroke-linejoin:miter;stroke-opacity:1;font-family:DejaVu Sans;-inkscape-font-specification:DejaVu Sans"
           x="-442.04181"
           y="297.90497"
           id="text15878"
           sodipodi:linespacing="100%"><tspan
             sodipodi:role="line"
             x="-442.04181"
             y="297.90497"
             id="tspan15886">idMT</tspan></text>
      </g>
      <g
         style="font-size:14.34344196px"
         transform="matrix(0.8366193,0,0,0.8366193,157.26211,-143.05007)"
         id="g15975">
        <text
           xml:space="preserve"
           style="font-size:14.34344196px;font-style:normal;font-variant:normal;font-weight:normal;font-stretch:normal;text-align:start;line-height:100%;writing-mode:lr-tb;text-anchor:start;fill:#000000;fill-opacity:1;stroke:none;stroke-width:1px;stroke-linecap:butt;stroke-linejoin:miter;stroke-opacity:1;font-family:DejaVu Sans;-inkscape-font-specification:DejaVu Sans"
           x="-128.15572"
           y="128.38585"
           id="text15858"
           sodipodi:linespacing="100%"><tspan
             sodipodi:role="line"
             id="tspan15860"
             x="-128.15572"
             y="128.38585">Attachment</tspan><tspan
             sodipodi:role="line"
             x="-128.15572"
             y="142.72929"
             id="tspan15862">Site</tspan></text>
      </g>
      <g
         style="font-size:14.34344196px"
         transform="matrix(0.8366193,0,0,0.8366193,67.831342,-217.34097)"
         id="g15970">
        <text
           xml:space="preserve"
           style="font-size:14.34344196px;font-style:normal;font-variant:normal;font-weight:normal;font-stretch:normal;text-align:start;line-height:100%;writing-mode:lr-tb;text-anchor:start;fill:#000000;fill-opacity:1;stroke:none;stroke-width:1px;stroke-linecap:butt;stroke-linejoin:miter;stroke-opacity:1;font-family:DejaVu Sans;-inkscape-font-specification:DejaVu Sans"
           x="-181.9787"
           y="340.59378"
           id="text15868"
           sodipodi:linespacing="100%"><tspan
             sodipodi:role="line"
             id="tspan15870"
             x="-181.9787"
             y="340.59378">Cohesion</tspan></text>
      </g>
      <g
         style="font-size:14.34344196px"
         transform="matrix(0.8366193,0,0,0.8366193,407.27972,-207.8717)"
         id="g15965">
        <text
           xml:space="preserve"
           style="font-size:14.34344196px;font-style:normal;font-variant:normal;font-weight:normal;font-stretch:normal;text-align:start;line-height:100%;writing-mode:lr-tb;text-anchor:start;fill:#000000;fill-opacity:1;stroke:none;stroke-width:1px;stroke-linecap:butt;stroke-linejoin:miter;stroke-opacity:1;font-family:DejaVu Sans;-inkscape-font-specification:DejaVu Sans"
           x="-339.46173"
           y="248.90692"
           id="text15872"
           sodipodi:linespacing="100%"><tspan
             sodipodi:role="line"
             x="-339.46173"
             y="248.90692"
             id="tspan15876">ktMT</tspan></text>
      </g>
      <g
         style="font-size:14.34344196px"
         transform="matrix(0.8366193,0,0,0.8366193,158.14432,-130.75093)"
         id="g15992">
        <text
           xml:space="preserve"
           style="font-size:14.34344196px;font-style:normal;font-variant:normal;font-weight:normal;font-stretch:normal;text-align:start;line-height:100%;writing-mode:lr-tb;text-anchor:start;fill:#000000;fill-opacity:1;stroke:none;stroke-width:1px;stroke-linecap:butt;stroke-linejoin:miter;stroke-opacity:1;font-family:DejaVu Sans;-inkscape-font-specification:DejaVu Sans"
           x="-331.46149"
           y="121.71063"
           id="text15864"
           sodipodi:linespacing="100%"><tspan
             sodipodi:role="line"
             id="tspan15866"
             x="-331.46149"
             y="121.71063">Kinetochore</tspan></text>
      </g>
      <path
         sodipodi:nodetypes="cc"
         transform="translate(-228.37851,-105.24817)"
         id="path6025"
         d="M 200.45431,173.12722 L 230.71429,166.64789"
         style="fill:none;fill-rule:evenodd;stroke:#000000;stroke-width:1px;stroke-linecap:butt;stroke-linejoin:miter;stroke-opacity:1" />
      <path
         transform="translate(-228.37851,-105.24817)"
         id="path6029"
         d="M 269.71073,78.575126 L 261.62951,101.80863"
         style="fill:none;fill-rule:evenodd;stroke:#000000;stroke-width:1px;stroke-linecap:butt;stroke-linejoin:miter;stroke-opacity:1" />
      <path
         transform="translate(-228.37851,-105.24817)"
         id="path6033"
         d="M 344.46202,98.778177 L 317.1879,109.88986"
         style="fill:none;fill-rule:evenodd;stroke:#000000;stroke-width:1px;stroke-linecap:butt;stroke-linejoin:miter;stroke-opacity:1" />
      <path
         transform="translate(-228.37851,-105.24817)"
         id="path6035"
         d="M 338.4011,167.46855 L 282.84402,152.58207"
         style="fill:none;fill-rule:evenodd;stroke:#000000;stroke-width:1px;stroke-linecap:butt;stroke-linejoin:miter;stroke-opacity:1" />
      <path
         transform="translate(-228.37851,-105.24817)"
         id="path6037"
         d="M 61.619305,109.88986 L 53.538085,124.03199"
         style="fill:none;fill-rule:evenodd;stroke:#000000;stroke-width:1px;stroke-linecap:butt;stroke-linejoin:miter;stroke-opacity:1" />
    </g>
    <path
       id="path6027"
       d="M 184.54461,172.82109 L 208.78827,199.08506"
       style="fill:none;fill-rule:evenodd;stroke:#000000;stroke-width:1px;stroke-linecap:butt;stroke-linejoin:miter;stroke-opacity:1" />
    <g
       id="g17772"
       transform="translate(-68,-22)">
      <g
         id="g17918"
         transform="translate(42.426407,46.467017)">
        <g
           id="g17758"
           transform="translate(-595.52298,-136.37059)">
          <use
             transform="matrix(1.9805635,0,0,1.9805635,446.03335,184.56338)"
             height="1052.3622"
             width="744.09448"
             xlink:href="#textext-351924a9-1"
             x="223.43201"
             y="134.765"
             id="use2578"
             style="fill:#000000;fill-opacity:1" />
          <use
             transform="matrix(1.9805635,0,0,1.9805635,446.03335,184.56338)"
             height="1052.3622"
             width="744.09448"
             xlink:href="#textext-351924a9-5"
             x="229.12601"
             y="136.259"
             id="use2582"
             style="fill:#000000;fill-opacity:1" />
        </g>
        <g
           id="g17753"
           transform="translate(-600.3707,-127.64093)">
          <use
             height="1052.3622"
             width="744.09448"
             xlink:href="#textext-351924a9-1"
             x="237.87"
             y="134.765"
             id="use2586"
             transform="matrix(1.9805635,0,0,1.9805635,487.32053,156.57577)"
             style="fill:#000000;fill-opacity:1" />
          <use
             height="1052.3622"
             width="744.09448"
             xlink:href="#textext-351924a9-5"
             x="243.564"
             y="136.259"
             id="use2590"
             transform="matrix(1.9805635,0,0,1.9805635,487.32053,156.57577)"
             style="fill:#000000;fill-opacity:1" />
          <use
             height="1052.3622"
             width="744.09448"
             xlink:href="#textext-351924a9-6"
             x="248.48889"
             y="136.259"
             id="use2592"
             transform="matrix(1.9805635,0,0,1.9805635,487.32053,156.57577)"
             style="fill:#000000;fill-opacity:1" />
        </g>
        <g
           id="g17768"
           transform="translate(-638.71588,-136.59324)">
          <use
             transform="matrix(1.9805635,0,0,1.9805635,478.76321,281.11157)"
             height="1052.3622"
             width="744.09448"
             xlink:href="#textext-351924a9-1"
             x="299.26401"
             y="134.765"
             id="use2620"
             style="fill:#000000;fill-opacity:1" />
          <use
             transform="matrix(1.9805635,0,0,1.9805635,478.76321,281.11157)"
             height="1052.3622"
             width="744.09448"
             xlink:href="#textext-351924a9-9"
             x="304.95801"
             y="136.259"
             id="use2624"
             style="fill:#000000;fill-opacity:1" />
        </g>
        <g
           id="g17744"
           transform="translate(-609.86817,-112.93944)">
          <g
             transform="matrix(1.9997817,0,0,1.9997817,366.8904,177.62864)"
             id="g3095">
            <g
               id="g2917"
               style="fill:#000000;fill-opacity:1">
              <use
                 id="use2919"
                 y="134.765"
                 x="223.43201"
                 xlink:href="#textext-ee2df7d4-1"
                 width="744.09448"
                 height="1052.3622"
                 transform="translate(0,-10.52817)" />
            </g>
            <g
               id="g2921"
               style="fill:#000000;fill-opacity:1">
              <use
                 id="use2923"
                 y="131.14999"
                 x="229.12601"
                 xlink:href="#textext-ee2df7d4-3"
                 width="744.09448"
                 height="1052.3622"
                 transform="translate(0,-10.52817)" />
            </g>
            <g
               id="g2925"
               style="fill:#000000;fill-opacity:1">
              <use
                 id="use2927"
                 y="137.228"
                 x="229.12601"
                 xlink:href="#textext-ee2df7d4-5"
                 width="744.09448"
                 height="1052.3622"
                 transform="translate(0,-10.52817)" />
            </g>
          </g>
        </g>
        <g
           id="g17729"
           transform="translate(-579.82756,-131.31983)">
          <g
             transform="matrix(1.9997817,0,0,1.9997817,231.25678,160.90765)"
             id="g3085">
            <g
               id="g3076">
              <g
                 style="fill:#000000;fill-opacity:1"
                 id="g2929">
                <use
                   height="1052.3622"
                   width="744.09448"
                   xlink:href="#textext-ee2df7d4-1"
                   x="237.87"
                   y="134.765"
                   id="use2931"
                   transform="translate(0,-2.6055892)" />
              </g>
              <g
                 style="fill:#000000;fill-opacity:1"
                 id="g2933">
                <use
                   height="1052.3622"
                   width="744.09448"
                   xlink:href="#textext-ee2df7d4-3"
                   x="243.564"
                   y="131.14999"
                   id="use2935"
                   transform="translate(0,-2.6055892)" />
              </g>
              <g
                 style="fill:#000000;fill-opacity:1"
                 id="g2937">
                <use
                   height="1052.3622"
                   width="744.09448"
                   xlink:href="#textext-ee2df7d4-5"
                   x="243.564"
                   y="137.228"
                   id="use2939"
                   transform="translate(0,-2.6055892)" />
                <use
                   height="1052.3622"
                   width="744.09448"
                   xlink:href="#textext-ee2df7d4-6"
                   x="248.48889"
                   y="137.228"
                   id="use2941"
                   transform="translate(0,-2.6055892)" />
              </g>
            </g>
          </g>
        </g>
        <g
           id="g17762"
           transform="translate(-580.83771,-132.32998)">
          <g
             style="fill:#000000;fill-opacity:1"
             id="g3113"
             transform="matrix(1.9997817,0,0,1.9997817,178.031,272.21797)">
            <use
               height="1052.3622"
               width="744.09448"
               xlink:href="#textext-ee2df7d4-3"
               x="243.564"
               y="131.14999"
               id="use3115" />
          </g>
          <use
             transform="matrix(1.9805635,0,0,1.9805635,60.931214,276.84831)"
             height="1052.3622"
             width="744.09448"
             xlink:href="#textext-351924a9-1"
             x="299.26401"
             y="134.765"
             id="use3107"
             style="fill:#000000;fill-opacity:1" />
          <use
             transform="matrix(1.9805635,0,0,1.9805635,60.931214,276.84831)"
             height="1052.3622"
             width="744.09448"
             xlink:href="#textext-351924a9-9"
             x="304.95801"
             y="136.259"
             id="use3111"
             style="fill:#000000;fill-opacity:1" />
        </g>
      </g>
      <g
         transform="matrix(0.8362989,0,0,1,54.151789,14.467017)"
         id="g17044">
        <path
           style="fill:#cac41a;fill-opacity:0.51125399;fill-rule:nonzero;stroke:none;stroke-width:3;stroke-linecap:round;stroke-linejoin:bevel;stroke-miterlimit:4;stroke-dashoffset:0;stroke-opacity:1"
           d="M 329.68403,412.94843 L 262.8052,412.94843 L 262.8052,378.76371 L 329.68403,378.76371 L 329.68403,412.94843 z"
           id="path15586"
           sodipodi:nodetypes="ccccc" />
        <path
           style="fill:#25dd0f;fill-opacity:0.51125399;stroke:none;stroke-width:2.67453909;stroke-miterlimit:4;stroke-opacity:1;display:inline"
           d="M 227.28072,357.37917 L 256.22828,357.37917 L 256.22828,436.82874 L 227.28072,436.82874"
           id="path15533"
           sodipodi:nodetypes="cccc" />
        <path
           sodipodi:nodetypes="cccc"
           id="path15525"
           d="M 153.70431,384.03929 L 167.35394,384.03929 L 167.35394,335.5337 L 153.70431,335.5337"
           style="fill:#b000c8;fill-opacity:0.42122186;fill-rule:nonzero;stroke:none;stroke-width:3;stroke-linecap:round;stroke-linejoin:bevel;stroke-miterlimit:4;stroke-dashoffset:0;stroke-opacity:0.74276524" />
        <path
           sodipodi:nodetypes="cccc"
           id="path15529"
           d="M 426.71879,384.41158 L 438.36843,384.41158 L 438.36843,335.906 L 426.71879,335.906"
           style="fill:#b000c8;fill-opacity:0.42122186;fill-rule:nonzero;stroke:none;stroke-width:3;stroke-linecap:round;stroke-linejoin:bevel;stroke-miterlimit:4;stroke-dashoffset:0;stroke-opacity:0.74276524" />
        <path
           sodipodi:nodetypes="cccc"
           id="path15531"
           d="M 404.74524,432.44109 L 412.70907,432.44109 L 412.70907,386.23831 L 404.74524,386.23831"
           style="fill:#b000c8;fill-opacity:0.42122186;fill-rule:nonzero;stroke:none;stroke-width:3;stroke-linecap:round;stroke-linejoin:bevel;stroke-miterlimit:4;stroke-dashoffset:0;stroke-opacity:0.74276524" />
        <path
           sodipodi:nodetypes="cccc"
           id="path15537"
           d="M 233.20984,483.9248 L 243.62214,483.9248 L 243.62214,437.88652 L 233.20984,437.88652"
           style="fill:#b000c8;fill-opacity:0.42122186;fill-rule:nonzero;stroke:none;stroke-width:3;stroke-linecap:round;stroke-linejoin:bevel;stroke-miterlimit:4;stroke-dashoffset:0;stroke-opacity:0.74276524" />
        <path
           id="path3155"
           d="M 81.638236,462.71099 L 117.92641,462.71099"
           style="fill:#ff9b41;fill-rule:evenodd;stroke:#000000;stroke-width:1.30265236;stroke-linecap:butt;stroke-linejoin:miter;stroke-miterlimit:4;stroke-dasharray:none;stroke-opacity:1" />
        <path
           style="fill:#ff9b41;fill-opacity:1;stroke:none;stroke-width:2.5333333;stroke-linecap:round;stroke-linejoin:round;stroke-miterlimit:4;stroke-dashoffset:0;stroke-opacity:1"
           d="M 96.1159,471.869 L 71.626757,471.869 L 71.626757,453.09237 L 96.1159,453.09237 L 96.1159,471.869 z"
           id="path2383"
           sodipodi:nodetypes="ccccc" />
        <path
           sodipodi:nodetypes="cccccccccccccccccccccccc"
           d="M 191.22755,345.56156 L 216.44561,345.56156 L 216.44561,375.80223 L 196.73381,375.80223 L 195.52812,380.91467 L 193.5048,371.0707 L 191.24262,380.91467 L 189.052,371.0707 L 186.95713,380.91467 L 184.7935,371.0707 L 182.67164,380.91467 L 180.57557,371.0707 L 179.43124,375.80223 L 161.12189,375.80223 L 161.12189,345.56156 L 186.92721,345.56156 M 182.86424,337.94996 L 191.03806,337.94996 L 191.03806,353.17316 L 182.86424,353.17316 M 185.23465,338.46426 L 187.11463,338.46426 L 187.11463,352.65886 L 185.31639,352.65886"
           style="fill:none;fill-rule:evenodd;stroke:#000000;stroke-width:1.30265236;stroke-linecap:round;stroke-linejoin:round;stroke-miterlimit:4;stroke-dasharray:none;stroke-opacity:1"
           id="path3159" />
        <path
           sodipodi:nodetypes="cccccccc"
           d="M 217.02104,360.94131 L 250.98305,360.94131 L 250.98305,433.98283 L 217.02104,433.98283 M 250.75043,385.28849 L 217.25365,385.28849 M 250.75043,409.63566 L 217.25365,409.63566"
           style="fill:none;fill-rule:evenodd;stroke:#000000;stroke-width:1.30265236;stroke-linecap:butt;stroke-linejoin:miter;stroke-miterlimit:4;stroke-dasharray:none;stroke-opacity:1"
           id="path3187" />
        <path
           style="fill:#25dd0f;fill-opacity:0.51125399;stroke:none;stroke-width:2.67453909;stroke-miterlimit:4;stroke-opacity:1;display:inline"
           d="M 336.15898,359.91034 L 364.17608,359.91034 L 364.17608,465.67744 L 336.15898,465.67744"
           id="path15535"
           sodipodi:nodetypes="cccc" />
        <path
           sodipodi:nodetypes="cccccccccccc"
           id="path3198"
           d="M 251.76238,397.45718 L 270.47481,397.45718 L 276.28579,383.66083 L 281.54112,410.54524 L 287.35873,383.66083 L 292.78922,410.54524 L 298.43165,383.66083 L 304.03732,410.54524 L 309.50458,383.66083 L 315.28542,410.54524 L 322.09401,397.45718 L 340.69271,397.45718"
           style="fill:none;fill-rule:evenodd;stroke:#000000;stroke-width:1.30265236;stroke-linecap:butt;stroke-linejoin:round;stroke-miterlimit:4;stroke-dasharray:none;stroke-opacity:1" />
        <path
           sodipodi:nodetypes="cccccccccccccccccccccccc"
           d="M 401.22637,347.51995 L 376.00831,347.51995 L 376.00831,377.76061 L 395.72011,377.76061 L 396.9258,382.87305 L 398.94912,373.02909 L 401.2113,382.87305 L 403.40192,373.02909 L 405.49679,382.87305 L 407.66042,373.02909 L 409.78228,382.87305 L 411.87834,373.02909 L 413.02268,377.76061 L 431.33203,377.76061 L 431.33203,347.51995 L 405.52671,347.51995 M 409.58968,339.90835 L 401.41586,339.90835 L 401.41586,355.13155 L 409.58968,355.13155 M 407.21927,340.42265 L 405.33929,340.42265 L 405.33929,354.61725 L 407.13753,354.61725"
           style="fill:none;fill-rule:evenodd;stroke:#000000;stroke-width:1.30265236;stroke-linecap:round;stroke-linejoin:round;stroke-miterlimit:4;stroke-dasharray:none;stroke-opacity:1"
           id="path3200" />
        <path
           sodipodi:nodetypes="cccccccc"
           d="M 375.43288,362.8997 L 341.47087,362.8997 L 341.47087,461.99426 L 294.66843,461.99426 M 341.70349,387.24687 L 375.20026,387.24687 M 341.70349,411.59404 L 375.20026,411.59404"
           style="fill:none;fill-rule:evenodd;stroke:#000000;stroke-width:1.30265236;stroke-linecap:butt;stroke-linejoin:miter;stroke-miterlimit:4;stroke-dasharray:none;stroke-opacity:1"
           id="path3204" />
        <path
           sodipodi:nodetypes="cccccccccccccccccccccccc"
           d="M 268.31429,447.0956 L 293.53235,447.0956 L 293.53235,477.33627 L 273.82056,477.33627 L 272.61486,482.44871 L 270.59155,472.60474 L 268.32937,482.44871 L 266.13875,472.60474 L 264.04388,482.44871 L 261.88025,472.60474 L 259.75839,482.44871 L 257.66232,472.60474 L 256.51799,477.33627 L 238.20864,477.33627 L 238.20864,447.0956 L 264.01396,447.0956 M 259.95099,439.484 L 268.12481,439.484 L 268.12481,454.70719 L 259.95099,454.70719 M 262.3214,439.99829 L 264.20138,439.99829 L 264.20138,454.1929 L 262.40314,454.1929"
           style="fill:none;fill-rule:evenodd;stroke:#000000;stroke-width:1.30265236;stroke-linecap:round;stroke-linejoin:round;stroke-miterlimit:4;stroke-dasharray:none;stroke-opacity:1"
           id="path3206" />
        <path
           sodipodi:nodetypes="cc"
           id="path3208"
           d="M 237.95652,462.82729 L 118.11251,462.82729"
           style="fill:none;fill-rule:evenodd;stroke:#000000;stroke-width:1.30265236;stroke-linecap:butt;stroke-linejoin:miter;stroke-miterlimit:4;stroke-dasharray:none;stroke-opacity:1" />
        <path
           id="path3212"
           d="M 512.00204,463.6182 L 475.71386,463.6182"
           style="fill:#ff9b41;fill-rule:evenodd;stroke:#000000;stroke-width:1.30265236;stroke-linecap:butt;stroke-linejoin:miter;stroke-miterlimit:4;stroke-dasharray:none;stroke-opacity:1" />
        <path
           sodipodi:nodetypes="cccccccc"
           d="M 123.47449,503.51043 L 118.2521,503.50298 L 118.2521,360.4993 L 122.57874,360.4993 M 469.31688,503.62823 L 475.38817,503.62823 L 475.35494,363.08355 L 432.19131,362.89966"
           style="fill:none;fill-rule:evenodd;stroke:#000000;stroke-width:1.30265236;stroke-linecap:butt;stroke-linejoin:miter;stroke-miterlimit:4;stroke-dasharray:none;stroke-opacity:1"
           id="path3157" />
        <rect
           y="499.8432"
           x="123.90762"
           height="7.8952656"
           width="345.42752"
           id="rect3242"
           style="fill:#ca1a46;fill-opacity:1;stroke:#000000;stroke-width:1.30265236;stroke-linecap:round;stroke-linejoin:round;stroke-miterlimit:4;stroke-dasharray:none;stroke-dashoffset:0;stroke-opacity:1" />
        <rect
           y="356.49179"
           x="122.89458"
           height="7.5663128"
           width="32.668381"
           id="rect3244"
           style="fill:#4761e7;fill-opacity:1;stroke:#000000;stroke-width:1.30265236;stroke-linecap:round;stroke-linejoin:round;stroke-miterlimit:4;stroke-dasharray:none;stroke-dashoffset:0;stroke-opacity:1" />
        <path
           id="path3246"
           d="M 155.92427,360.0108 L 160.5766,360.0108"
           style="fill:none;fill-rule:evenodd;stroke:#000000;stroke-width:1.30265236;stroke-linecap:butt;stroke-linejoin:miter;stroke-miterlimit:4;stroke-dasharray:none;stroke-opacity:1" />
        <rect
           y="358.7988"
           x="436.8718"
           height="7.5663128"
           width="32.668381"
           id="rect3249"
           style="fill:#4761e7;fill-opacity:1;stroke:#000000;stroke-width:1.30265236;stroke-linecap:round;stroke-linejoin:round;stroke-miterlimit:4;stroke-dasharray:none;stroke-dashoffset:0;stroke-opacity:1" />
        <rect
           y="458.96997"
           x="199.3559"
           height="7.5663128"
           width="32.668381"
           id="rect3251"
           style="fill:#4761e7;fill-opacity:1;stroke:#000000;stroke-width:1.30265236;stroke-linecap:round;stroke-linejoin:round;stroke-miterlimit:4;stroke-dasharray:none;stroke-dashoffset:0;stroke-opacity:1" />
        <path
           sodipodi:nodetypes="cccccccccccccccccccccccc"
           d="M 391.36849,395.83113 L 375.78002,395.83113 L 375.78002,426.2655 L 387.96481,426.2655 L 388.71011,431.41069 L 389.96081,421.50366 L 391.35917,431.41069 L 392.71329,421.50366 L 394.00823,431.41069 L 395.34567,421.50366 L 396.65729,431.41069 L 397.95297,421.50366 L 398.66034,426.2655 L 409.97821,426.2655 L 409.97821,395.83113 L 394.02673,395.83113 M 396.53824,388.17078 L 391.48561,388.17078 L 391.48561,403.49149 L 396.53824,403.49149 M 395.07298,388.68838 L 393.91087,388.68838 L 393.91087,402.9739 L 395.02245,402.9739"
           style="fill:none;fill-rule:evenodd;stroke:#000000;stroke-width:1.30265236;stroke-linecap:round;stroke-linejoin:round;stroke-miterlimit:4;stroke-dasharray:none;stroke-opacity:1"
           id="path3253" />
        <path
           style="fill:#ff9b41;fill-opacity:1;stroke:none;stroke-width:2.5333333;stroke-linecap:round;stroke-linejoin:round;stroke-miterlimit:4;stroke-dashoffset:0;stroke-opacity:1"
           d="M 522.08871,473.41925 L 497.59956,473.41925 L 497.59956,453.21405 L 522.08871,453.21405 L 522.08871,473.41925 z"
           id="path17184"
           sodipodi:nodetypes="ccccc" />
      </g>
      <g
         transform="translate(14,-38)"
         id="g17071">
        <g
           id="g16437"
           transform="translate(14.789799,50.18833)">
          <path
             style="fill:none;fill-rule:evenodd;stroke:#000000;stroke-width:1.30265236;stroke-linecap:round;stroke-linejoin:round;stroke-miterlimit:4;stroke-dasharray:none;stroke-opacity:1"
             d="M 158.14885,554.10135 L 138.43705,554.10135 L 137.23136,559.2138 L 135.20804,549.36982 L 132.94587,559.2138 L 130.75524,549.36982 L 128.66037,559.2138 L 126.49674,549.36982 L 124.37488,559.2138 L 122.27882,549.36982 L 121.13448,554.10135 L 102.82514,554.10135"
             id="path16136" />
          <text
             sodipodi:linespacing="100%"
             id="text16110"
             y="557.60236"
             x="167.55843"
             style="font-size:12px;font-style:normal;font-variant:normal;font-weight:normal;font-stretch:normal;text-align:start;line-height:100%;writing-mode:lr-tb;text-anchor:start;fill:#000000;fill-opacity:1;stroke:none;stroke-width:1px;stroke-linecap:butt;stroke-linejoin:miter;stroke-opacity:1;font-family:DejaVu Sans;-inkscape-font-specification:DejaVu Sans"
             xml:space="preserve"><tspan
               y="557.60236"
               x="167.55843"
               id="tspan16112"
               sodipodi:role="line">spring</tspan></text>
        </g>
        <g
           id="g16442"
           transform="translate(21.794337,1.4384032)">
          <path
             id="path16138"
             style="fill:none;fill-rule:evenodd;stroke:#000000;stroke-width:1.30265236;stroke-linecap:round;stroke-linejoin:round;stroke-miterlimit:4;stroke-dasharray:none;stroke-opacity:1"
             d="M 95.820602,579.62447 L 121.62592,579.62447 M 125.92625,579.62447 L 151.14431,579.62447 M 117.56295,572.01287 L 125.73677,572.01287 L 125.73677,587.23606 L 117.56295,587.23606 M 119.93336,572.52716 L 121.81334,572.52716 L 121.81334,586.72177 L 120.0151,586.72177" />
          <text
             sodipodi:linespacing="100%"
             id="text16114"
             y="582.935"
             x="159.30389"
             style="font-size:12px;font-style:normal;font-variant:normal;font-weight:normal;font-stretch:normal;text-align:start;line-height:100%;writing-mode:lr-tb;text-anchor:start;fill:#000000;fill-opacity:1;stroke:none;stroke-width:1px;stroke-linecap:butt;stroke-linejoin:miter;stroke-opacity:1;font-family:DejaVu Sans;-inkscape-font-specification:DejaVu Sans"
             xml:space="preserve"><tspan
               y="582.935"
               x="159.30389"
               id="tspan16116"
               sodipodi:role="line">dashpot</tspan></text>
        </g>
        <g
           id="g6016"
           transform="translate(6.426407,28.467017)">
          <g
             transform="matrix(0.6513262,0,0,0.6513262,-121.45624,345.64166)"
             id="g16451">
            <path
               sodipodi:nodetypes="cc"
               id="path16447"
               d="M 622.31704,353.80987 L 555.00205,353.80987"
               style="fill:none;fill-rule:evenodd;stroke:#4761e7;stroke-width:2;stroke-linecap:butt;stroke-linejoin:miter;stroke-miterlimit:4;stroke-dasharray:none;stroke-opacity:1" />
            <rect
               y="347.88763"
               x="563.05237"
               height="11.616779"
               width="50.156712"
               id="rect16449"
               style="fill:#4761e7;fill-opacity:1;stroke:#000000;stroke-width:2;stroke-linecap:round;stroke-linejoin:round;stroke-miterlimit:4;stroke-dasharray:none;stroke-dashoffset:0;stroke-opacity:1" />
          </g>
          <text
             sodipodi:linespacing="100%"
             id="text16118"
             y="579.32367"
             x="290.38168"
             style="font-size:12px;font-style:normal;font-variant:normal;font-weight:normal;font-stretch:normal;text-align:start;line-height:100%;writing-mode:lr-tb;text-anchor:start;fill:#000000;fill-opacity:1;stroke:none;stroke-width:1px;stroke-linecap:butt;stroke-linejoin:miter;stroke-opacity:1;font-family:DejaVu Sans;-inkscape-font-specification:DejaVu Sans"
             xml:space="preserve"><tspan
               id="tspan16122"
               y="579.32367"
               x="290.38168"
               sodipodi:role="line">kt force generator</tspan></text>
        </g>
        <g
           id="g5998"
           transform="translate(19.587407,67.259828)">
          <g
             transform="matrix(0.6513262,0,0,0.6513262,-134.61724,283.43155)"
             id="g5988">
            <path
               sodipodi:nodetypes="cc"
               id="path5990"
               d="M 622.31704,353.80987 L 555.00205,353.80987"
               style="fill:none;fill-rule:evenodd;stroke:#4761e7;stroke-width:2;stroke-linecap:butt;stroke-linejoin:miter;stroke-miterlimit:4;stroke-dasharray:none;stroke-opacity:1" />
            <rect
               y="347.88763"
               x="563.05237"
               height="11.616779"
               width="50.156712"
               id="rect5992"
               style="fill:#ca1a46;fill-opacity:1;stroke:#000000;stroke-width:2;stroke-linecap:round;stroke-linejoin:round;stroke-miterlimit:4;stroke-dasharray:none;stroke-dashoffset:0;stroke-opacity:1" />
          </g>
          <text
             sodipodi:linespacing="100%"
             id="text5994"
             y="517.11359"
             x="277.2207"
             style="font-size:12px;font-style:normal;font-variant:normal;font-weight:normal;font-stretch:normal;text-align:start;line-height:100%;writing-mode:lr-tb;text-anchor:start;fill:#000000;fill-opacity:1;stroke:none;stroke-width:1px;stroke-linecap:butt;stroke-linejoin:miter;stroke-opacity:1;font-family:DejaVu Sans;-inkscape-font-specification:DejaVu Sans"
             xml:space="preserve"><tspan
               id="tspan5996"
               y="517.11359"
               x="277.2207"
               sodipodi:role="line">id force generator</tspan></text>
        </g>
      </g>
    </g>
    <text
       xml:space="preserve"
       style="font-size:12px;font-style:normal;font-variant:normal;font-weight:normal;font-stretch:normal;text-align:start;line-height:100%;writing-mode:lr-tb;text-anchor:start;fill:#000000;fill-opacity:1;stroke:none;stroke-width:1px;stroke-linecap:butt;stroke-linejoin:miter;stroke-opacity:1;font-family:DejaVu Sans;-inkscape-font-specification:DejaVu Sans"
       x="44.107857"
       y="148.94902"
       id="text17869"
       sodipodi:linespacing="100%"><tspan
         sodipodi:role="line"
         id="tspan17871"
         x="44.107857"
         y="148.94902"
         style="font-size:14px">A</tspan></text>
    <text
       xml:space="preserve"
       style="font-size:12px;font-style:normal;font-variant:normal;font-weight:normal;font-stretch:normal;text-align:start;line-height:100%;writing-mode:lr-tb;text-anchor:start;fill:#000000;fill-opacity:1;stroke:none;stroke-width:1px;stroke-linecap:butt;stroke-linejoin:miter;stroke-opacity:1;font-family:DejaVu Sans;-inkscape-font-specification:DejaVu Sans"
       x="43.899368"
       y="311.51019"
       id="text17873"
       sodipodi:linespacing="100%"><tspan
         sodipodi:role="line"
         id="tspan17875"
         x="43.899368"
         y="311.51019"
         style="font-size:14px">B</tspan></text>
    <g
       style="font-size:14px"
       id="figure1"
       transform="translate(394.60055,344.79319)" />
    <path
       style="opacity:1;fill:#cac41a;fill-opacity:0.50980395;fill-rule:nonzero;stroke:none;stroke-width:1.51522887000000006;stroke-linecap:round;stroke-linejoin:bevel;stroke-miterlimit:4;stroke-dasharray:none;stroke-dashoffset:0;stroke-opacity:1"
       d="M 203.79918,146.6474 C 203.79918,144.78037 204.34121,143.89918 205.49472,143.89094 C 206.95143,143.88053 208.049,143.13057 207.62101,142.43806 C 207.41699,142.10796 206.73011,142.01087 205.9622,142.2036 C 204.65401,142.53194 204.65222,142.52798 204.99079,140.05888 C 205.98073,132.83955 206.4175,124.4852 206.23401,116.27929 L 206.02865,107.09518 L 207.56556,107.44045 C 208.41086,107.63035 210.38227,107.78572 211.94645,107.78572 C 214.7723,107.78572 214.78735,107.79377 214.30674,109.04841 C 213.0711,112.27407 212.63993,138.97937 213.71144,145.91898 L 213.98439,147.68674 L 208.89179,147.74251 C 203.91201,147.79705 203.79918,147.77278 203.79918,146.6474 L 203.79918,146.6474 z"
       id="path2677"
       transform="translate(22.986997,118.20067)" />
  </g>
</svg>
