<?xml version="1.0" encoding="UTF-8" standalone="no"?>
<!-- Created with Inkscape (http://www.inkscape.org/) -->
<svg
   xmlns:ns0="http://www.iki.fi/pav/software/textext/"
   xmlns:dc="http://purl.org/dc/elements/1.1/"
   xmlns:cc="http://creativecommons.org/ns#"
   xmlns:rdf="http://www.w3.org/1999/02/22-rdf-syntax-ns#"
   xmlns:svg="http://www.w3.org/2000/svg"
   xmlns="http://www.w3.org/2000/svg"
   xmlns:xlink="http://www.w3.org/1999/xlink"
   xmlns:sodipodi="http://sodipodi.sourceforge.net/DTD/sodipodi-0.dtd"
   xmlns:inkscape="http://www.inkscape.org/namespaces/inkscape"
   width="682.94299"
   height="357.48529"
   id="svg2"
   sodipodi:version="0.32"
   inkscape:version="0.46"
   sodipodi:docname="model_meca.svg"
   inkscape:output_extension="org.inkscape.output.svg.inkscape"
   version="1.0"
   inkscape:export-filename="/home/guillaume/Desktop/figsd_sylvie/model_meca.png"
   inkscape:export-xdpi="300"
   inkscape:export-ydpi="300">
  <sodipodi:namedview
     id="base"
     pagecolor="#ffffff"
     bordercolor="#666666"
     borderopacity="1.0"
     inkscape:pageopacity="0.0"
     inkscape:pageshadow="2"
     inkscape:zoom="0.49497475"
     inkscape:cx="309.91559"
     inkscape:cy="224.37248"
     inkscape:document-units="px"
     inkscape:current-layer="textext-ee2df7d4-7"
     showgrid="false"
     inkscape:window-width="726"
     inkscape:window-height="680"
     inkscape:window-x="51"
     inkscape:window-y="27" />
  <defs
     id="defs4">
    <inkscape:perspective
       id="perspective10"
       inkscape:persp3d-origin="372.04724 : 350.78739 : 1"
       inkscape:vp_z="744.09448 : 526.18109 : 1"
       inkscape:vp_y="0 : 1000 : 0"
       inkscape:vp_x="0 : 526.18109 : 1"
       sodipodi:type="inkscape:persp3d" />
  </defs>
  <metadata
     id="metadata7">
    <rdf:RDF>
      <cc:Work
         rdf:about="">
        <dc:format>image/svg+xml</dc:format>
        <dc:type
           rdf:resource="http://purl.org/dc/dcmitype/StillImage" />
      </cc:Work>
    </rdf:RDF>
  </metadata>
  <g
     id="layer1"
     inkscape:groupmode="layer"
     inkscape:label="Calque 1"
     transform="translate(-33.52132,-8.9731476)">
    <path
       transform="matrix(0.7894737,0,0,0.7894737,7.5187966,46.521737)"
       sodipodi:open="true"
       sodipodi:end="6.2849563"
       sodipodi:start="0.0017806811"
       d="M 62.85712,238.81492 A 13.571428,13.571428 0 1 1 62.85712,238.81479"
       sodipodi:ry="13.571428"
       sodipodi:rx="13.571428"
       sodipodi:cy="238.79076"
       sodipodi:cx="49.285713"
       id="path2383"
       style="fill:#000000;fill-opacity:1;stroke:none;stroke-width:2.5333333;stroke-linecap:round;stroke-linejoin:round;stroke-miterlimit:4;stroke-dasharray:none;stroke-dashoffset:0;stroke-opacity:1"
       sodipodi:type="arc" />
    <path
       id="path3155"
       d="M 45.714286,234.32647 L 101.42857,234.32647"
       style="fill:none;fill-rule:evenodd;stroke:#000000;stroke-width:2;stroke-linecap:butt;stroke-linejoin:miter;stroke-miterlimit:4;stroke-dasharray:none;stroke-opacity:1" />
    <path
       sodipodi:nodetypes="cccc"
       id="path3157"
       d="M 109.9467,358.96704 L 101.92861,358.9556 L 101.92861,77.397896 L 108.57143,77.397896"
       style="fill:none;fill-rule:evenodd;stroke:#000000;stroke-width:2;stroke-linecap:butt;stroke-linejoin:miter;stroke-miterlimit:4;stroke-dasharray:none;stroke-opacity:1" />
    <path
       sodipodi:nodetypes="cccccccccccccccccccccccc"
       d="M 213.96993,54.463552 L 252.68795,54.463552 L 252.68795,100.89293 L 222.42386,100.89293 L 220.57272,108.74221 L 217.46626,93.628476 L 213.99308,108.74221 L 210.62975,93.628476 L 207.41344,108.74221 L 204.09155,93.628476 L 200.8338,108.74221 L 197.61565,93.628476 L 195.85872,100.89293 L 167.74785,100.89293 L 167.74785,54.463552 L 207.3675,54.463552 M 201.12951,42.777244 L 213.67901,42.777244 L 213.67901,66.14986 L 201.12951,66.14986 M 204.76886,43.566859 L 207.65525,43.566859 L 207.65525,65.360244 L 204.89436,65.360244"
       style="fill:none;fill-rule:evenodd;stroke:#000000;stroke-width:2;stroke-linecap:round;stroke-linejoin:round;stroke-miterlimit:4;stroke-dasharray:none;stroke-opacity:1"
       id="path3159" />
    <path
       sodipodi:nodetypes="cccccccc"
       d="M 253.57143,78.076538 L 305.71429,78.076538 L 305.71429,190.2193 L 253.57143,190.2193 M 305.35714,115.45746 L 253.92857,115.45746 M 305.35714,152.83838 L 253.92857,152.83838"
       style="fill:none;fill-rule:evenodd;stroke:#000000;stroke-width:2;stroke-linecap:butt;stroke-linejoin:miter;stroke-miterlimit:4;stroke-dasharray:none;stroke-opacity:1"
       id="path3187" />
    <path
       sodipodi:nodetypes="cccccccccccc"
       id="path3198"
       d="M 306.91082,134.1404 L 335.64055,134.1404 L 344.56232,112.95847 L 352.63098,154.23488 L 361.56292,112.95847 L 369.90052,154.23488 L 378.5635,112.95847 L 387.17005,154.23488 L 395.56409,112.95847 L 404.43958,154.23488 L 414.893,134.1404 L 443.44813,134.1404"
       style="fill:none;fill-rule:evenodd;stroke:#000000;stroke-width:2;stroke-linecap:butt;stroke-linejoin:round;stroke-miterlimit:4;stroke-dasharray:none;stroke-opacity:1" />
    <path
       sodipodi:nodetypes="cccccccccccccccccccccccc"
       d="M 536.38722,57.470322 L 497.6692,57.470322 L 497.6692,103.89969 L 527.93329,103.89969 L 529.78443,111.74897 L 532.89089,96.635246 L 536.36407,111.74897 L 539.7274,96.635246 L 542.94371,111.74897 L 546.2656,96.635246 L 549.52335,111.74897 L 552.7415,96.635246 L 554.49843,103.89969 L 582.6093,103.89969 L 582.6093,57.470322 L 542.98965,57.470322 M 549.22764,45.784012 L 536.67814,45.784012 L 536.67814,69.156632 L 549.22764,69.156632 M 545.58829,46.573632 L 542.7019,46.573632 L 542.7019,68.367012 L 545.46279,68.367012"
       style="fill:none;fill-rule:evenodd;stroke:#000000;stroke-width:2;stroke-linecap:round;stroke-linejoin:round;stroke-miterlimit:4;stroke-dasharray:none;stroke-opacity:1"
       id="path3200" />
    <path
       sodipodi:nodetypes="cccccccc"
       d="M 496.78572,81.083302 L 444.64286,81.083302 L 444.64286,233.22606 L 372.78572,233.22606 M 445.00001,118.46422 L 496.42858,118.46422 M 445.00001,155.84514 L 496.42858,155.84514"
       style="fill:none;fill-rule:evenodd;stroke:#000000;stroke-width:2;stroke-linecap:butt;stroke-linejoin:miter;stroke-miterlimit:4;stroke-dasharray:none;stroke-opacity:1"
       id="path3204" />
    <path
       sodipodi:nodetypes="cccccccccccccccccccccccc"
       d="M 332.32345,210.35171 L 371.04147,210.35171 L 371.04147,256.78108 L 340.77738,256.78108 L 338.92624,264.63036 L 335.81978,249.51663 L 332.3466,264.63036 L 328.98327,249.51663 L 325.76696,264.63036 L 322.44507,249.51663 L 319.18732,264.63036 L 315.96917,249.51663 L 314.21224,256.78108 L 286.10137,256.78108 L 286.10137,210.35171 L 325.72102,210.35171 M 319.48303,198.6654 L 332.03253,198.6654 L 332.03253,222.03801 L 319.48303,222.03801 M 323.12238,199.45501 L 326.00877,199.45501 L 326.00877,221.2484 L 323.24788,221.2484"
       style="fill:none;fill-rule:evenodd;stroke:#000000;stroke-width:2;stroke-linecap:round;stroke-linejoin:round;stroke-miterlimit:4;stroke-dasharray:none;stroke-opacity:1"
       id="path3206" />
    <path
       sodipodi:nodetypes="cc"
       id="path3208"
       d="M 285.71428,234.50503 L 101.71429,234.50503"
       style="fill:none;fill-rule:evenodd;stroke:#000000;stroke-width:2;stroke-linecap:butt;stroke-linejoin:miter;stroke-miterlimit:4;stroke-dasharray:none;stroke-opacity:1" />
    <path
       transform="matrix(-0.7894737,0,0,0.7894737,744.6598,47.914596)"
       sodipodi:open="true"
       sodipodi:end="6.2849563"
       sodipodi:start="0.0017806811"
       d="M 62.85712,238.81492 A 13.571428,13.571428 0 1 1 62.85712,238.81479"
       sodipodi:ry="13.571428"
       sodipodi:rx="13.571428"
       sodipodi:cy="238.79076"
       sodipodi:cx="49.285713"
       id="path3210"
       style="fill:#000000;fill-opacity:1;stroke:none;stroke-width:2.5333333;stroke-linecap:round;stroke-linejoin:round;stroke-miterlimit:4;stroke-dasharray:none;stroke-dashoffset:0;stroke-opacity:1"
       sodipodi:type="arc" />
    <path
       id="path3212"
       d="M 706.46431,235.71933 L 650.75002,235.71933"
       style="fill:none;fill-rule:evenodd;stroke:#000000;stroke-width:2;stroke-linecap:butt;stroke-linejoin:miter;stroke-miterlimit:4;stroke-dasharray:none;stroke-opacity:1" />
    <path
       sodipodi:nodetypes="cccc"
       d="M 640.92855,359.14789 L 650.24998,359.1479 L 650.19896,81.365571 L 583.92858,81.083242"
       style="fill:none;fill-rule:evenodd;stroke:#000000;stroke-width:2;stroke-linecap:butt;stroke-linejoin:miter;stroke-miterlimit:4;stroke-dasharray:none;stroke-opacity:1"
       id="path3202" />
    <rect
       y="353.33661"
       x="110.6117"
       height="12.12183"
       width="530.34491"
       id="rect3242"
       style="fill:#a6a6a6;fill-opacity:1;stroke:#000000;stroke-width:2;stroke-linecap:round;stroke-linejoin:round;stroke-miterlimit:4;stroke-dasharray:none;stroke-dashoffset:0;stroke-opacity:1" />
    <rect
       y="71.245064"
       x="109.05635"
       height="11.616779"
       width="50.156712"
       id="rect3244"
       style="fill:#a6a6a6;fill-opacity:1;stroke:#000000;stroke-width:2;stroke-linecap:round;stroke-linejoin:round;stroke-miterlimit:4;stroke-dasharray:none;stroke-dashoffset:0;stroke-opacity:1" />
    <path
       id="path3246"
       d="M 159.76778,76.647896 L 166.91064,76.647896"
       style="fill:none;fill-rule:evenodd;stroke:#000000;stroke-width:2;stroke-linecap:butt;stroke-linejoin:miter;stroke-miterlimit:4;stroke-dasharray:none;stroke-opacity:1" />
    <rect
       y="74.787048"
       x="591.11469"
       height="11.616779"
       width="50.156712"
       id="rect3249"
       style="fill:#a6a6a6;fill-opacity:1;stroke:#000000;stroke-width:2;stroke-linecap:round;stroke-linejoin:round;stroke-miterlimit:4;stroke-dasharray:none;stroke-dashoffset:0;stroke-opacity:1" />
    <rect
       y="228.58279"
       x="226.44963"
       height="11.616779"
       width="50.156712"
       id="rect3251"
       style="fill:#a6a6a6;fill-opacity:1;stroke:#000000;stroke-width:2;stroke-linecap:round;stroke-linejoin:round;stroke-miterlimit:4;stroke-dasharray:none;stroke-dashoffset:0;stroke-opacity:1" />
    <path
       sodipodi:nodetypes="cccccccccccccccccccccccc"
       d="M 521.25212,131.64389 L 497.31869,131.64389 L 497.31869,178.37066 L 516.02635,178.37066 L 517.17063,186.27021 L 519.09088,171.05967 L 521.23781,186.27021 L 523.31684,171.05967 L 525.305,186.27021 L 527.35841,171.05967 L 529.37218,186.27021 L 531.36147,171.05967 L 532.44752,178.37066 L 549.82417,178.37066 L 549.82417,131.64389 L 525.3334,131.64389 M 529.18939,119.88273 L 521.43195,119.88273 L 521.43195,143.40506 L 529.18939,143.40506 M 526.93974,120.67741 L 525.15552,120.67741 L 525.15552,142.61038 L 526.86216,142.61038"
       style="fill:none;fill-rule:evenodd;stroke:#000000;stroke-width:2;stroke-linecap:round;stroke-linejoin:round;stroke-miterlimit:4;stroke-dasharray:none;stroke-opacity:1"
       id="path3253" />
    <g
       id="g2423"
       ns0:preamble=""
       ns0:text="$x_n$ $\\kappa$\n">
      <defs
         id="defs2425">
        <g
           id="g2427">
          <symbol
             id="textext-8457ec60-0"
             overflow="visible"
             style="overflow:visible">
            <path
               id="path2430"
               d=""
               style="stroke:none" />
          </symbol>
          <symbol
             id="textext-8457ec60-1"
             overflow="visible"
             style="overflow:visible">
            <path
               id="path2433"
               d="M 3.328125,-3.015625 C 3.390625,-3.265625 3.625,-4.1875 4.3125,-4.1875 C 4.359375,-4.1875 4.609375,-4.1875 4.8125,-4.0625 C 4.53125,-4 4.34375,-3.765625 4.34375,-3.515625 C 4.34375,-3.359375 4.453125,-3.171875 4.71875,-3.171875 C 4.9375,-3.171875 5.25,-3.34375 5.25,-3.75 C 5.25,-4.265625 4.671875,-4.40625 4.328125,-4.40625 C 3.75,-4.40625 3.40625,-3.875 3.28125,-3.65625 C 3.03125,-4.3125 2.5,-4.40625 2.203125,-4.40625 C 1.171875,-4.40625 0.59375,-3.125 0.59375,-2.875 C 0.59375,-2.765625 0.703125,-2.765625 0.71875,-2.765625 C 0.796875,-2.765625 0.828125,-2.796875 0.84375,-2.875 C 1.1875,-3.9375 1.84375,-4.1875 2.1875,-4.1875 C 2.375,-4.1875 2.71875,-4.09375 2.71875,-3.515625 C 2.71875,-3.203125 2.546875,-2.546875 2.1875,-1.140625 C 2.03125,-0.53125 1.671875,-0.109375 1.234375,-0.109375 C 1.171875,-0.109375 0.953125,-0.109375 0.734375,-0.234375 C 0.984375,-0.296875 1.203125,-0.5 1.203125,-0.78125 C 1.203125,-1.046875 0.984375,-1.125 0.84375,-1.125 C 0.53125,-1.125 0.296875,-0.875 0.296875,-0.546875 C 0.296875,-0.09375 0.78125,0.109375 1.21875,0.109375 C 1.890625,0.109375 2.25,-0.59375 2.265625,-0.640625 C 2.390625,-0.28125 2.75,0.109375 3.34375,0.109375 C 4.375,0.109375 4.9375,-1.171875 4.9375,-1.421875 C 4.9375,-1.53125 4.859375,-1.53125 4.828125,-1.53125 C 4.734375,-1.53125 4.71875,-1.484375 4.6875,-1.421875 C 4.359375,-0.34375 3.6875,-0.109375 3.375,-0.109375 C 2.984375,-0.109375 2.828125,-0.421875 2.828125,-0.765625 C 2.828125,-0.984375 2.875,-1.203125 2.984375,-1.640625 L 3.328125,-3.015625 z"
               style="stroke:none" />
          </symbol>
          <symbol
             id="textext-8457ec60-2"
             overflow="visible"
             style="overflow:visible">
            <path
               id="path2436"
               d="M 0.59375,-0.390625 C 0.546875,-0.25 0.546875,-0.234375 0.546875,-0.15625 C 0.546875,0.015625 0.6875,0.109375 0.84375,0.109375 C 1.140625,0.109375 1.203125,-0.125 1.28125,-0.453125 C 1.375,-0.8125 1.3125,-0.625 1.75,-2.296875 C 2.578125,-2.265625 3.453125,-2.09375 3.453125,-1.453125 C 3.453125,-1.375 3.453125,-1.328125 3.421875,-1.21875 C 3.390625,-1.0625 3.375,-0.953125 3.375,-0.875 C 3.375,-0.296875 3.78125,0.109375 4.296875,0.109375 C 4.609375,0.109375 4.875,-0.0625 5.078125,-0.40625 C 5.328125,-0.828125 5.4375,-1.40625 5.4375,-1.421875 C 5.4375,-1.53125 5.359375,-1.53125 5.328125,-1.53125 C 5.21875,-1.53125 5.21875,-1.484375 5.1875,-1.34375 C 5,-0.65625 4.765625,-0.109375 4.3125,-0.109375 C 4.109375,-0.109375 4,-0.234375 4,-0.59375 C 4,-0.734375 4.03125,-0.984375 4.078125,-1.140625 C 4.09375,-1.234375 4.125,-1.359375 4.125,-1.46875 C 4.125,-2.40625 2.75,-2.484375 2.1875,-2.5 C 2.515625,-2.6875 2.84375,-2.953125 3.109375,-3.1875 C 3.5625,-3.5625 3.859375,-3.8125 4.25,-3.984375 C 4.234375,-3.921875 4.203125,-3.8125 4.203125,-3.765625 C 4.203125,-3.640625 4.28125,-3.40625 4.578125,-3.40625 C 4.90625,-3.40625 5.125,-3.703125 5.125,-3.953125 C 5.125,-4.03125 5.078125,-4.296875 4.71875,-4.296875 C 4.109375,-4.296875 3.53125,-3.796875 3.09375,-3.421875 C 2.40625,-2.84375 2.171875,-2.703125 1.8125,-2.578125 C 1.84375,-2.6875 1.96875,-3.1875 2.015625,-3.359375 C 2.078125,-3.625 2.1875,-4.09375 2.1875,-4.140625 C 2.1875,-4.3125 2.078125,-4.40625 1.90625,-4.40625 C 1.875,-4.40625 1.59375,-4.40625 1.5,-4.046875 L 0.59375,-0.390625 z"
               style="stroke:none" />
          </symbol>
          <symbol
             id="textext-8457ec60-3"
             overflow="visible"
             style="overflow:visible">
            <path
               id="path2439"
               d=""
               style="stroke:none" />
          </symbol>
          <symbol
             id="textext-8457ec60-4"
             overflow="visible"
             style="overflow:visible">
            <path
               id="path2442"
               d="M 0.84375,-0.4375 C 0.828125,-0.34375 0.78125,-0.171875 0.78125,-0.15625 C 0.78125,0 0.90625,0.0625 1.015625,0.0625 C 1.140625,0.0625 1.25,-0.015625 1.296875,-0.078125 C 1.328125,-0.140625 1.375,-0.375 1.421875,-0.515625 C 1.453125,-0.640625 1.53125,-0.96875 1.5625,-1.140625 C 1.609375,-1.296875 1.65625,-1.453125 1.6875,-1.609375 C 1.765625,-1.890625 1.78125,-1.953125 1.984375,-2.234375 C 2.171875,-2.515625 2.5,-2.875 3.03125,-2.875 C 3.421875,-2.875 3.4375,-2.515625 3.4375,-2.390625 C 3.4375,-1.96875 3.140625,-1.203125 3.03125,-0.90625 C 2.953125,-0.703125 2.921875,-0.640625 2.921875,-0.53125 C 2.921875,-0.15625 3.21875,0.0625 3.578125,0.0625 C 4.28125,0.0625 4.578125,-0.890625 4.578125,-1 C 4.578125,-1.09375 4.5,-1.09375 4.46875,-1.09375 C 4.375,-1.09375 4.375,-1.046875 4.34375,-0.96875 C 4.1875,-0.40625 3.875,-0.125 3.609375,-0.125 C 3.453125,-0.125 3.421875,-0.21875 3.421875,-0.375 C 3.421875,-0.53125 3.46875,-0.625 3.59375,-0.9375 C 3.671875,-1.15625 3.953125,-1.890625 3.953125,-2.28125 C 3.953125,-2.953125 3.421875,-3.078125 3.046875,-3.078125 C 2.46875,-3.078125 2.078125,-2.71875 1.875,-2.4375 C 1.828125,-2.921875 1.421875,-3.078125 1.125,-3.078125 C 0.828125,-3.078125 0.671875,-2.859375 0.578125,-2.703125 C 0.421875,-2.4375 0.328125,-2.046875 0.328125,-2 C 0.328125,-1.921875 0.421875,-1.921875 0.453125,-1.921875 C 0.546875,-1.921875 0.546875,-1.9375 0.59375,-2.125 C 0.703125,-2.53125 0.84375,-2.875 1.109375,-2.875 C 1.296875,-2.875 1.34375,-2.71875 1.34375,-2.53125 C 1.34375,-2.40625 1.28125,-2.140625 1.21875,-1.953125 C 1.171875,-1.765625 1.109375,-1.484375 1.078125,-1.328125 L 0.84375,-0.4375 z"
               style="stroke:none" />
          </symbol>
        </g>
      </defs>
      <g
         id="textext-8457ec60-5">
        <g
           transform="matrix(5,0,0,5,-1017.1429,-205.71429)"
           ns0:text="$x_n$ $x_{nm}$ $\\mu_i$ $\\mu_{o}$ $\\kappa_o$ $x_s$ $\\mu_s$ $\\kappa_i$"
           ns0:preamble=""
           id="g2539">
          <defs
             id="defs2541">
            <g
               id="g2543">
              <symbol
                 style="overflow:visible"
                 overflow="visible"
                 id="textext-351924a9-0">
                <path
                   style="stroke:none"
                   d=""
                   id="path2546" />
              </symbol>
              <symbol
                 style="overflow:visible"
                 overflow="visible"
                 id="textext-351924a9-1">
                <path
                   style="stroke:none"
                   d="M 3.328125,-3.015625 C 3.390625,-3.265625 3.625,-4.1875 4.3125,-4.1875 C 4.359375,-4.1875 4.609375,-4.1875 4.8125,-4.0625 C 4.53125,-4 4.34375,-3.765625 4.34375,-3.515625 C 4.34375,-3.359375 4.453125,-3.171875 4.71875,-3.171875 C 4.9375,-3.171875 5.25,-3.34375 5.25,-3.75 C 5.25,-4.265625 4.671875,-4.40625 4.328125,-4.40625 C 3.75,-4.40625 3.40625,-3.875 3.28125,-3.65625 C 3.03125,-4.3125 2.5,-4.40625 2.203125,-4.40625 C 1.171875,-4.40625 0.59375,-3.125 0.59375,-2.875 C 0.59375,-2.765625 0.703125,-2.765625 0.71875,-2.765625 C 0.796875,-2.765625 0.828125,-2.796875 0.84375,-2.875 C 1.1875,-3.9375 1.84375,-4.1875 2.1875,-4.1875 C 2.375,-4.1875 2.71875,-4.09375 2.71875,-3.515625 C 2.71875,-3.203125 2.546875,-2.546875 2.1875,-1.140625 C 2.03125,-0.53125 1.671875,-0.109375 1.234375,-0.109375 C 1.171875,-0.109375 0.953125,-0.109375 0.734375,-0.234375 C 0.984375,-0.296875 1.203125,-0.5 1.203125,-0.78125 C 1.203125,-1.046875 0.984375,-1.125 0.84375,-1.125 C 0.53125,-1.125 0.296875,-0.875 0.296875,-0.546875 C 0.296875,-0.09375 0.78125,0.109375 1.21875,0.109375 C 1.890625,0.109375 2.25,-0.59375 2.265625,-0.640625 C 2.390625,-0.28125 2.75,0.109375 3.34375,0.109375 C 4.375,0.109375 4.9375,-1.171875 4.9375,-1.421875 C 4.9375,-1.53125 4.859375,-1.53125 4.828125,-1.53125 C 4.734375,-1.53125 4.71875,-1.484375 4.6875,-1.421875 C 4.359375,-0.34375 3.6875,-0.109375 3.375,-0.109375 C 2.984375,-0.109375 2.828125,-0.421875 2.828125,-0.765625 C 2.828125,-0.984375 2.875,-1.203125 2.984375,-1.640625 L 3.328125,-3.015625 z"
                   id="path2549" />
              </symbol>
              <symbol
                 style="overflow:visible"
                 overflow="visible"
                 id="textext-351924a9-2">
                <path
                   style="stroke:none"
                   d="M 2.296875,-3.5 C 2.359375,-3.703125 2.453125,-4.09375 2.453125,-4.140625 C 2.453125,-4.3125 2.328125,-4.40625 2.15625,-4.40625 C 2.140625,-4.40625 1.859375,-4.390625 1.765625,-4.046875 L 0.328125,1.71875 C 0.296875,1.84375 0.296875,1.859375 0.296875,1.890625 C 0.296875,2.03125 0.40625,2.15625 0.578125,2.15625 C 0.78125,2.15625 0.90625,1.96875 0.921875,1.9375 C 0.96875,1.859375 1.09375,1.328125 1.46875,-0.203125 C 1.796875,0.0625 2.25,0.109375 2.4375,0.109375 C 3.140625,0.109375 3.53125,-0.34375 3.765625,-0.625 C 3.859375,-0.171875 4.234375,0.109375 4.671875,0.109375 C 5.015625,0.109375 5.25,-0.125 5.40625,-0.4375 C 5.578125,-0.796875 5.703125,-1.40625 5.703125,-1.421875 C 5.703125,-1.53125 5.609375,-1.53125 5.578125,-1.53125 C 5.484375,-1.53125 5.46875,-1.484375 5.4375,-1.34375 C 5.28125,-0.703125 5.09375,-0.109375 4.6875,-0.109375 C 4.421875,-0.109375 4.390625,-0.375 4.390625,-0.5625 C 4.390625,-0.78125 4.5,-1.25 4.578125,-1.609375 C 4.671875,-1.96875 4.78125,-2.328125 4.859375,-2.6875 C 4.890625,-2.828125 5,-3.203125 5.03125,-3.359375 C 5.078125,-3.59375 5.1875,-3.96875 5.1875,-4.03125 C 5.1875,-4.203125 5.046875,-4.296875 4.890625,-4.296875 C 4.84375,-4.296875 4.578125,-4.28125 4.5,-3.953125 C 4.375,-3.453125 4.1875,-2.703125 4.03125,-2.078125 C 3.921875,-1.578125 3.8125,-1.171875 3.78125,-1.0625 C 3.765625,-1.015625 3.296875,-0.109375 2.484375,-0.109375 C 1.984375,-0.109375 1.75,-0.4375 1.75,-0.984375 C 1.75,-1.265625 1.8125,-1.546875 1.890625,-1.828125 L 2.296875,-3.5 z"
                   id="path2552" />
              </symbol>
              <symbol
                 style="overflow:visible"
                 overflow="visible"
                 id="textext-351924a9-3">
                <path
                   style="stroke:none"
                   d="M 0.59375,-0.390625 C 0.546875,-0.25 0.546875,-0.234375 0.546875,-0.15625 C 0.546875,0.015625 0.6875,0.109375 0.84375,0.109375 C 1.140625,0.109375 1.203125,-0.125 1.28125,-0.453125 C 1.375,-0.8125 1.3125,-0.625 1.75,-2.296875 C 2.578125,-2.265625 3.453125,-2.09375 3.453125,-1.453125 C 3.453125,-1.375 3.453125,-1.328125 3.421875,-1.21875 C 3.390625,-1.0625 3.375,-0.953125 3.375,-0.875 C 3.375,-0.296875 3.78125,0.109375 4.296875,0.109375 C 4.609375,0.109375 4.875,-0.0625 5.078125,-0.40625 C 5.328125,-0.828125 5.4375,-1.40625 5.4375,-1.421875 C 5.4375,-1.53125 5.359375,-1.53125 5.328125,-1.53125 C 5.21875,-1.53125 5.21875,-1.484375 5.1875,-1.34375 C 5,-0.65625 4.765625,-0.109375 4.3125,-0.109375 C 4.109375,-0.109375 4,-0.234375 4,-0.59375 C 4,-0.734375 4.03125,-0.984375 4.078125,-1.140625 C 4.09375,-1.234375 4.125,-1.359375 4.125,-1.46875 C 4.125,-2.40625 2.75,-2.484375 2.1875,-2.5 C 2.515625,-2.6875 2.84375,-2.953125 3.109375,-3.1875 C 3.5625,-3.5625 3.859375,-3.8125 4.25,-3.984375 C 4.234375,-3.921875 4.203125,-3.8125 4.203125,-3.765625 C 4.203125,-3.640625 4.28125,-3.40625 4.578125,-3.40625 C 4.90625,-3.40625 5.125,-3.703125 5.125,-3.953125 C 5.125,-4.03125 5.078125,-4.296875 4.71875,-4.296875 C 4.109375,-4.296875 3.53125,-3.796875 3.09375,-3.421875 C 2.40625,-2.84375 2.171875,-2.703125 1.8125,-2.578125 C 1.84375,-2.6875 1.96875,-3.1875 2.015625,-3.359375 C 2.078125,-3.625 2.1875,-4.09375 2.1875,-4.140625 C 2.1875,-4.3125 2.078125,-4.40625 1.90625,-4.40625 C 1.875,-4.40625 1.59375,-4.40625 1.5,-4.046875 L 0.59375,-0.390625 z"
                   id="path2555" />
              </symbol>
              <symbol
                 style="overflow:visible"
                 overflow="visible"
                 id="textext-351924a9-4">
                <path
                   style="stroke:none"
                   d=""
                   id="path2558" />
              </symbol>
              <symbol
                 style="overflow:visible"
                 overflow="visible"
                 id="textext-351924a9-5">
                <path
                   style="stroke:none"
                   d="M 0.84375,-0.4375 C 0.828125,-0.34375 0.78125,-0.171875 0.78125,-0.15625 C 0.78125,0 0.90625,0.0625 1.015625,0.0625 C 1.140625,0.0625 1.25,-0.015625 1.296875,-0.078125 C 1.328125,-0.140625 1.375,-0.375 1.421875,-0.515625 C 1.453125,-0.640625 1.53125,-0.96875 1.5625,-1.140625 C 1.609375,-1.296875 1.65625,-1.453125 1.6875,-1.609375 C 1.765625,-1.890625 1.78125,-1.953125 1.984375,-2.234375 C 2.171875,-2.515625 2.5,-2.875 3.03125,-2.875 C 3.421875,-2.875 3.4375,-2.515625 3.4375,-2.390625 C 3.4375,-1.96875 3.140625,-1.203125 3.03125,-0.90625 C 2.953125,-0.703125 2.921875,-0.640625 2.921875,-0.53125 C 2.921875,-0.15625 3.21875,0.0625 3.578125,0.0625 C 4.28125,0.0625 4.578125,-0.890625 4.578125,-1 C 4.578125,-1.09375 4.5,-1.09375 4.46875,-1.09375 C 4.375,-1.09375 4.375,-1.046875 4.34375,-0.96875 C 4.1875,-0.40625 3.875,-0.125 3.609375,-0.125 C 3.453125,-0.125 3.421875,-0.21875 3.421875,-0.375 C 3.421875,-0.53125 3.46875,-0.625 3.59375,-0.9375 C 3.671875,-1.15625 3.953125,-1.890625 3.953125,-2.28125 C 3.953125,-2.953125 3.421875,-3.078125 3.046875,-3.078125 C 2.46875,-3.078125 2.078125,-2.71875 1.875,-2.4375 C 1.828125,-2.921875 1.421875,-3.078125 1.125,-3.078125 C 0.828125,-3.078125 0.671875,-2.859375 0.578125,-2.703125 C 0.421875,-2.4375 0.328125,-2.046875 0.328125,-2 C 0.328125,-1.921875 0.421875,-1.921875 0.453125,-1.921875 C 0.546875,-1.921875 0.546875,-1.9375 0.59375,-2.125 C 0.703125,-2.53125 0.84375,-2.875 1.109375,-2.875 C 1.296875,-2.875 1.34375,-2.71875 1.34375,-2.53125 C 1.34375,-2.40625 1.28125,-2.140625 1.21875,-1.953125 C 1.171875,-1.765625 1.109375,-1.484375 1.078125,-1.328125 L 0.84375,-0.4375 z"
                   id="path2561" />
              </symbol>
              <symbol
                 style="overflow:visible"
                 overflow="visible"
                 id="textext-351924a9-6">
                <path
                   style="stroke:none"
                   d="M 3.03125,-0.5625 C 2.984375,-0.421875 2.921875,-0.1875 2.921875,-0.15625 C 2.921875,0 3.046875,0.0625 3.15625,0.0625 C 3.296875,0.0625 3.40625,-0.015625 3.4375,-0.078125 C 3.46875,-0.140625 3.53125,-0.375 3.5625,-0.515625 C 3.59375,-0.640625 3.671875,-0.96875 3.71875,-1.140625 C 3.75,-1.296875 3.796875,-1.453125 3.828125,-1.609375 C 3.90625,-1.90625 3.90625,-1.921875 4.046875,-2.140625 C 4.265625,-2.484375 4.625,-2.875 5.15625,-2.875 C 5.546875,-2.875 5.578125,-2.5625 5.578125,-2.390625 C 5.578125,-1.96875 5.28125,-1.203125 5.15625,-0.90625 C 5.09375,-0.703125 5.0625,-0.640625 5.0625,-0.53125 C 5.0625,-0.15625 5.359375,0.0625 5.71875,0.0625 C 6.421875,0.0625 6.71875,-0.890625 6.71875,-1 C 6.71875,-1.09375 6.640625,-1.09375 6.609375,-1.09375 C 6.515625,-1.09375 6.515625,-1.046875 6.484375,-0.96875 C 6.328125,-0.40625 6.015625,-0.125 5.75,-0.125 C 5.59375,-0.125 5.5625,-0.21875 5.5625,-0.375 C 5.5625,-0.53125 5.609375,-0.625 5.734375,-0.9375 C 5.8125,-1.15625 6.09375,-1.890625 6.09375,-2.28125 C 6.09375,-2.390625 6.09375,-2.6875 5.84375,-2.890625 C 5.71875,-2.96875 5.515625,-3.078125 5.1875,-3.078125 C 4.5625,-3.078125 4.1875,-2.65625 3.953125,-2.375 C 3.90625,-2.96875 3.40625,-3.078125 3.046875,-3.078125 C 2.46875,-3.078125 2.078125,-2.71875 1.875,-2.4375 C 1.828125,-2.921875 1.421875,-3.078125 1.125,-3.078125 C 0.828125,-3.078125 0.671875,-2.859375 0.578125,-2.703125 C 0.421875,-2.4375 0.328125,-2.046875 0.328125,-2 C 0.328125,-1.921875 0.421875,-1.921875 0.453125,-1.921875 C 0.546875,-1.921875 0.546875,-1.9375 0.59375,-2.125 C 0.703125,-2.53125 0.84375,-2.875 1.109375,-2.875 C 1.296875,-2.875 1.34375,-2.71875 1.34375,-2.53125 C 1.34375,-2.40625 1.28125,-2.140625 1.21875,-1.953125 C 1.171875,-1.765625 1.109375,-1.484375 1.078125,-1.328125 L 0.84375,-0.4375 C 0.828125,-0.34375 0.78125,-0.171875 0.78125,-0.15625 C 0.78125,0 0.90625,0.0625 1.015625,0.0625 C 1.140625,0.0625 1.25,-0.015625 1.296875,-0.078125 C 1.328125,-0.140625 1.375,-0.375 1.421875,-0.515625 C 1.453125,-0.640625 1.53125,-0.96875 1.5625,-1.140625 C 1.609375,-1.296875 1.65625,-1.453125 1.6875,-1.609375 C 1.765625,-1.890625 1.78125,-1.953125 1.984375,-2.234375 C 2.171875,-2.515625 2.5,-2.875 3.03125,-2.875 C 3.421875,-2.875 3.4375,-2.515625 3.4375,-2.390625 C 3.4375,-2.21875 3.421875,-2.125 3.3125,-1.734375 L 3.03125,-0.5625 z"
                   id="path2564" />
              </symbol>
              <symbol
                 style="overflow:visible"
                 overflow="visible"
                 id="textext-351924a9-7">
                <path
                   style="stroke:none"
                   d="M 2.265625,-4.359375 C 2.265625,-4.46875 2.171875,-4.625 1.984375,-4.625 C 1.796875,-4.625 1.59375,-4.4375 1.59375,-4.234375 C 1.59375,-4.125 1.671875,-3.96875 1.875,-3.96875 C 2.0625,-3.96875 2.265625,-4.171875 2.265625,-4.359375 z M 0.84375,-0.8125 C 0.8125,-0.71875 0.78125,-0.640625 0.78125,-0.515625 C 0.78125,-0.1875 1.046875,0.0625 1.4375,0.0625 C 2.125,0.0625 2.4375,-0.890625 2.4375,-1 C 2.4375,-1.09375 2.34375,-1.09375 2.328125,-1.09375 C 2.234375,-1.09375 2.21875,-1.046875 2.1875,-0.96875 C 2.03125,-0.40625 1.734375,-0.125 1.453125,-0.125 C 1.3125,-0.125 1.28125,-0.21875 1.28125,-0.375 C 1.28125,-0.53125 1.328125,-0.65625 1.390625,-0.8125 C 1.46875,-1 1.546875,-1.1875 1.609375,-1.375 C 1.671875,-1.546875 1.9375,-2.171875 1.953125,-2.265625 C 1.984375,-2.328125 2,-2.40625 2,-2.484375 C 2,-2.8125 1.71875,-3.078125 1.34375,-3.078125 C 0.640625,-3.078125 0.328125,-2.125 0.328125,-2 C 0.328125,-1.921875 0.421875,-1.921875 0.453125,-1.921875 C 0.546875,-1.921875 0.546875,-1.953125 0.578125,-2.03125 C 0.75,-2.625 1.0625,-2.875 1.3125,-2.875 C 1.421875,-2.875 1.484375,-2.828125 1.484375,-2.640625 C 1.484375,-2.46875 1.453125,-2.375 1.28125,-1.9375 L 0.84375,-0.8125 z"
                   id="path2567" />
              </symbol>
              <symbol
                 style="overflow:visible"
                 overflow="visible"
                 id="textext-351924a9-8">
                <path
                   style="stroke:none"
                   d="M 3.703125,-1.859375 C 3.703125,-2.625 3.125,-3.078125 2.4375,-3.078125 C 1.40625,-3.078125 0.4375,-2.109375 0.4375,-1.15625 C 0.4375,-0.453125 0.9375,0.0625 1.703125,0.0625 C 2.703125,0.0625 3.703125,-0.84375 3.703125,-1.859375 z M 1.703125,-0.125 C 1.359375,-0.125 1.015625,-0.34375 1.015625,-0.90625 C 1.015625,-1.1875 1.140625,-1.875 1.421875,-2.265625 C 1.71875,-2.703125 2.125,-2.875 2.4375,-2.875 C 2.8125,-2.875 3.125,-2.625 3.125,-2.109375 C 3.125,-1.9375 3.046875,-1.25 2.734375,-0.765625 C 2.46875,-0.34375 2.0625,-0.125 1.703125,-0.125 z"
                   id="path2570" />
              </symbol>
              <symbol
                 style="overflow:visible"
                 overflow="visible"
                 id="textext-351924a9-9">
                <path
                   style="stroke:none"
                   d="M 3,-2.625 C 2.828125,-2.578125 2.703125,-2.4375 2.703125,-2.296875 C 2.703125,-2.125 2.84375,-2.0625 2.9375,-2.0625 C 3.015625,-2.0625 3.28125,-2.109375 3.28125,-2.46875 C 3.28125,-2.921875 2.78125,-3.078125 2.34375,-3.078125 C 1.265625,-3.078125 1.0625,-2.265625 1.0625,-2.0625 C 1.0625,-1.796875 1.21875,-1.625 1.3125,-1.546875 C 1.484375,-1.40625 1.609375,-1.375 2.09375,-1.296875 C 2.25,-1.265625 2.6875,-1.1875 2.6875,-0.84375 C 2.6875,-0.71875 2.609375,-0.453125 2.328125,-0.28125 C 2.046875,-0.125 1.703125,-0.125 1.625,-0.125 C 1.34375,-0.125 0.953125,-0.1875 0.78125,-0.421875 C 1.015625,-0.453125 1.171875,-0.625 1.171875,-0.8125 C 1.171875,-0.984375 1.046875,-1.078125 0.90625,-1.078125 C 0.703125,-1.078125 0.5,-0.90625 0.5,-0.609375 C 0.5,-0.1875 0.9375,0.0625 1.609375,0.0625 C 2.90625,0.0625 3.140625,-0.8125 3.140625,-1.078125 C 3.140625,-1.71875 2.4375,-1.84375 2.171875,-1.890625 C 2.109375,-1.90625 1.9375,-1.9375 1.890625,-1.953125 C 1.640625,-2 1.515625,-2.140625 1.515625,-2.296875 C 1.515625,-2.453125 1.640625,-2.640625 1.796875,-2.75 C 1.984375,-2.859375 2.21875,-2.875 2.34375,-2.875 C 2.484375,-2.875 2.84375,-2.859375 3,-2.625 z"
                   id="path2573" />
              </symbol>
            </g>
          </defs>
          <g
             transform="matrix(0.6081633,0,0,0.6081633,87.665195,51.079347)"
             id="textext-351924a9-10">
            <g
               transform="translate(-7.9727471,0.2822006)"
               id="g2736">
              <g
                 id="g2576"
                 style="fill:#000000;fill-opacity:1"
                 transform="translate(108.52348,-129.19462)">
                <use
                   id="use2578"
                   y="134.765"
                   x="223.43201"
                   xlink:href="#textext-351924a9-1"
                   width="744.09448"
                   height="1052.3622" />
              </g>
              <g
                 id="g2580"
                 style="fill:#000000;fill-opacity:1"
                 transform="translate(108.52348,-129.19462)">
                <use
                   id="use2582"
                   y="136.259"
                   x="229.12601"
                   xlink:href="#textext-351924a9-5"
                   width="744.09448"
                   height="1052.3622" />
              </g>
            </g>
            <g
               transform="translate(139.99999,-108.99328)"
               id="g2766">
              <g
                 id="g2584"
                 style="fill:#000000;fill-opacity:1">
                <use
                   id="use2586"
                   y="134.765"
                   x="237.87"
                   xlink:href="#textext-351924a9-1"
                   width="744.09448"
                   height="1052.3622" />
              </g>
              <g
                 id="g2588"
                 style="fill:#000000;fill-opacity:1">
                <use
                   id="use2590"
                   y="136.259"
                   x="243.564"
                   xlink:href="#textext-351924a9-5"
                   width="744.09448"
                   height="1052.3622" />
                <use
                   id="use2592"
                   y="136.259"
                   x="248.48889"
                   xlink:href="#textext-351924a9-6"
                   width="744.09448"
                   height="1052.3622" />
              </g>
            </g>
            <g
               transform="translate(-3.9863736,8.9693406)"
               id="g2742">
              <g
                 id="g2594"
                 style="fill:#000000;fill-opacity:1"
                 transform="translate(82.385054,-137.88176)">
                <use
                   id="use2596"
                   y="134.765"
                   x="259.37701"
                   xlink:href="#textext-351924a9-2"
                   width="744.09448"
                   height="1052.3622" />
              </g>
              <g
                 id="g2598"
                 style="fill:#000000;fill-opacity:1"
                 transform="translate(82.385054,-137.88176)">
                <use
                   id="use2600"
                   y="136.259"
                   x="265.38"
                   xlink:href="#textext-351924a9-7"
                   width="744.09448"
                   height="1052.3622" />
              </g>
            </g>
            <g
               transform="translate(-18.270879,-142.84505)"
               id="g2748">
              <g
                 id="g2602"
                 style="fill:#000000;fill-opacity:1">
                <use
                   id="use2604"
                   y="134.765"
                   x="272.01801"
                   xlink:href="#textext-351924a9-2"
                   width="744.09448"
                   height="1052.3622" />
              </g>
              <g
                 id="g2606"
                 style="fill:#000000;fill-opacity:1">
                <use
                   id="use2608"
                   y="136.259"
                   x="278.021"
                   xlink:href="#textext-351924a9-8"
                   width="744.09448"
                   height="1052.3622" />
              </g>
            </g>
            <g
               transform="translate(-32.223186,-106.96769)"
               id="g2754">
              <g
                 id="g2610"
                 style="fill:#000000;fill-opacity:1">
                <use
                   id="use2612"
                   y="134.765"
                   x="285.772"
                   xlink:href="#textext-351924a9-3"
                   width="744.09448"
                   height="1052.3622" />
              </g>
              <g
                 id="g2614"
                 style="fill:#000000;fill-opacity:1">
                <use
                   id="use2616"
                   y="136.259"
                   x="291.51199"
                   xlink:href="#textext-351924a9-8"
                   width="744.09448"
                   height="1052.3622" />
              </g>
            </g>
            <g
               transform="translate(117.07626,-80.164578)"
               id="g2760">
              <g
                 id="g2618"
                 style="fill:#000000;fill-opacity:1">
                <use
                   id="use2620"
                   y="134.765"
                   x="299.26401"
                   xlink:href="#textext-351924a9-1"
                   width="744.09448"
                   height="1052.3622" />
              </g>
              <g
                 id="g2622"
                 style="fill:#000000;fill-opacity:1">
                <use
                   id="use2624"
                   y="136.259"
                   x="304.95801"
                   xlink:href="#textext-351924a9-9"
                   width="744.09448"
                   height="1052.3622" />
              </g>
            </g>
            <g
               transform="translate(-110.40268,-62.483218)"
               id="g2779">
              <g
                 id="g2626"
                 style="fill:#000000;fill-opacity:1">
                <use
                   id="use2628"
                   y="134.765"
                   x="312.53699"
                   xlink:href="#textext-351924a9-2"
                   width="744.09448"
                   height="1052.3622" />
              </g>
              <g
                 id="g2630"
                 style="fill:#000000;fill-opacity:1">
                <use
                   id="use2632"
                   y="136.259"
                   x="318.54001"
                   xlink:href="#textext-351924a9-9"
                   width="744.09448"
                   height="1052.3622" />
              </g>
            </g>
            <g
               transform="translate(-19.261744,-91.610733)"
               id="g2773">
              <g
                 id="g2634"
                 style="fill:#000000;fill-opacity:1">
                <use
                   id="use2636"
                   y="134.765"
                   x="326.11899"
                   xlink:href="#textext-351924a9-3"
                   width="744.09448"
                   height="1052.3622" />
              </g>
              <g
                 id="g2638"
                 style="fill:#000000;fill-opacity:1">
                <use
                   id="use2640"
                   y="136.259"
                   x="331.85901"
                   xlink:href="#textext-351924a9-7"
                   width="744.09448"
                   height="1052.3622" />
              </g>
            </g>
            <g
               id="g2889"
               ns0:preamble=""
               ns0:text="$x_n^{\\dagger}$ $x_{nm}^{\\dagger}$"
               transform="matrix(1.0097034,0,0,1.0097034,7.611936,-46.896632)">
              <defs
                 id="defs2891">
                <g
                   id="g2893">
                  <symbol
                     id="textext-ee2df7d4-0"
                     overflow="visible"
                     style="overflow:visible">
                    <path
                       id="path2896"
                       d=""
                       style="stroke:none" />
                  </symbol>
                  <symbol
                     id="textext-ee2df7d4-1"
                     overflow="visible"
                     style="overflow:visible">
                    <path
                       id="path2899"
                       d="M 3.328125,-3.015625 C 3.390625,-3.265625 3.625,-4.1875 4.3125,-4.1875 C 4.359375,-4.1875 4.609375,-4.1875 4.8125,-4.0625 C 4.53125,-4 4.34375,-3.765625 4.34375,-3.515625 C 4.34375,-3.359375 4.453125,-3.171875 4.71875,-3.171875 C 4.9375,-3.171875 5.25,-3.34375 5.25,-3.75 C 5.25,-4.265625 4.671875,-4.40625 4.328125,-4.40625 C 3.75,-4.40625 3.40625,-3.875 3.28125,-3.65625 C 3.03125,-4.3125 2.5,-4.40625 2.203125,-4.40625 C 1.171875,-4.40625 0.59375,-3.125 0.59375,-2.875 C 0.59375,-2.765625 0.703125,-2.765625 0.71875,-2.765625 C 0.796875,-2.765625 0.828125,-2.796875 0.84375,-2.875 C 1.1875,-3.9375 1.84375,-4.1875 2.1875,-4.1875 C 2.375,-4.1875 2.71875,-4.09375 2.71875,-3.515625 C 2.71875,-3.203125 2.546875,-2.546875 2.1875,-1.140625 C 2.03125,-0.53125 1.671875,-0.109375 1.234375,-0.109375 C 1.171875,-0.109375 0.953125,-0.109375 0.734375,-0.234375 C 0.984375,-0.296875 1.203125,-0.5 1.203125,-0.78125 C 1.203125,-1.046875 0.984375,-1.125 0.84375,-1.125 C 0.53125,-1.125 0.296875,-0.875 0.296875,-0.546875 C 0.296875,-0.09375 0.78125,0.109375 1.21875,0.109375 C 1.890625,0.109375 2.25,-0.59375 2.265625,-0.640625 C 2.390625,-0.28125 2.75,0.109375 3.34375,0.109375 C 4.375,0.109375 4.9375,-1.171875 4.9375,-1.421875 C 4.9375,-1.53125 4.859375,-1.53125 4.828125,-1.53125 C 4.734375,-1.53125 4.71875,-1.484375 4.6875,-1.421875 C 4.359375,-0.34375 3.6875,-0.109375 3.375,-0.109375 C 2.984375,-0.109375 2.828125,-0.421875 2.828125,-0.765625 C 2.828125,-0.984375 2.875,-1.203125 2.984375,-1.640625 L 3.328125,-3.015625 z"
                       style="stroke:none" />
                  </symbol>
                  <symbol
                     id="textext-ee2df7d4-2"
                     overflow="visible"
                     style="overflow:visible">
                    <path
                       id="path2902"
                       d=""
                       style="stroke:none" />
                  </symbol>
                  <symbol
                     id="textext-ee2df7d4-3"
                     overflow="visible"
                     style="overflow:visible">
                    <path
                       id="path2905"
                       d="M 1.90625,-2.90625 C 2.03125,-2.90625 2.109375,-2.875 2.28125,-2.828125 C 2.421875,-2.796875 2.640625,-2.734375 2.8125,-2.734375 C 3.0625,-2.734375 3.09375,-2.90625 3.09375,-3 C 3.09375,-3.046875 3.078125,-3.265625 2.8125,-3.265625 C 2.65625,-3.265625 2.453125,-3.21875 2.28125,-3.15625 C 2.078125,-3.109375 1.96875,-3.09375 1.90625,-3.09375 C 1.921875,-3.1875 1.921875,-3.390625 2,-3.8125 C 2.0625,-4.125 2.09375,-4.421875 2.09375,-4.578125 C 2.09375,-4.640625 2.09375,-4.90625 1.8125,-4.90625 C 1.546875,-4.90625 1.546875,-4.640625 1.546875,-4.578125 C 1.546875,-4.421875 1.59375,-4.140625 1.65625,-3.8125 C 1.71875,-3.390625 1.734375,-3.1875 1.734375,-3.09375 C 1.609375,-3.09375 1.53125,-3.125 1.359375,-3.171875 C 1.21875,-3.203125 1,-3.265625 0.84375,-3.265625 C 0.5625,-3.265625 0.546875,-3.046875 0.546875,-3 C 0.546875,-2.90625 0.578125,-2.734375 0.84375,-2.734375 C 0.984375,-2.734375 1.203125,-2.78125 1.359375,-2.84375 C 1.5625,-2.890625 1.671875,-2.90625 1.734375,-2.90625 C 1.734375,-2.796875 1.71875,-2.703125 1.65625,-2.421875 C 1.546875,-1.9375 1.546875,-1.890625 1.546875,-1.53125 C 1.546875,-0.765625 1.609375,0.390625 1.703125,1.375 C 1.703125,1.46875 1.734375,1.484375 1.8125,1.484375 C 1.875,1.484375 1.9375,1.484375 1.9375,1.40625 C 2.046875,0.46875 2.09375,-0.59375 2.09375,-1.53125 C 2.09375,-1.890625 2.09375,-1.9375 1.984375,-2.421875 C 1.921875,-2.703125 1.921875,-2.796875 1.90625,-2.90625 z"
                       style="stroke:none" />
                  </symbol>
                  <symbol
                     id="textext-ee2df7d4-4"
                     overflow="visible"
                     style="overflow:visible">
                    <path
                       id="path2908"
                       d=""
                       style="stroke:none" />
                  </symbol>
                  <symbol
                     id="textext-ee2df7d4-5"
                     overflow="visible"
                     style="overflow:visible">
                    <path
                       id="path2911"
                       d="M 0.84375,-0.4375 C 0.828125,-0.34375 0.78125,-0.171875 0.78125,-0.15625 C 0.78125,0 0.90625,0.0625 1.015625,0.0625 C 1.140625,0.0625 1.25,-0.015625 1.296875,-0.078125 C 1.328125,-0.140625 1.375,-0.375 1.421875,-0.515625 C 1.453125,-0.640625 1.53125,-0.96875 1.5625,-1.140625 C 1.609375,-1.296875 1.65625,-1.453125 1.6875,-1.609375 C 1.765625,-1.890625 1.78125,-1.953125 1.984375,-2.234375 C 2.171875,-2.515625 2.5,-2.875 3.03125,-2.875 C 3.421875,-2.875 3.4375,-2.515625 3.4375,-2.390625 C 3.4375,-1.96875 3.140625,-1.203125 3.03125,-0.90625 C 2.953125,-0.703125 2.921875,-0.640625 2.921875,-0.53125 C 2.921875,-0.15625 3.21875,0.0625 3.578125,0.0625 C 4.28125,0.0625 4.578125,-0.890625 4.578125,-1 C 4.578125,-1.09375 4.5,-1.09375 4.46875,-1.09375 C 4.375,-1.09375 4.375,-1.046875 4.34375,-0.96875 C 4.1875,-0.40625 3.875,-0.125 3.609375,-0.125 C 3.453125,-0.125 3.421875,-0.21875 3.421875,-0.375 C 3.421875,-0.53125 3.46875,-0.625 3.59375,-0.9375 C 3.671875,-1.15625 3.953125,-1.890625 3.953125,-2.28125 C 3.953125,-2.953125 3.421875,-3.078125 3.046875,-3.078125 C 2.46875,-3.078125 2.078125,-2.71875 1.875,-2.4375 C 1.828125,-2.921875 1.421875,-3.078125 1.125,-3.078125 C 0.828125,-3.078125 0.671875,-2.859375 0.578125,-2.703125 C 0.421875,-2.4375 0.328125,-2.046875 0.328125,-2 C 0.328125,-1.921875 0.421875,-1.921875 0.453125,-1.921875 C 0.546875,-1.921875 0.546875,-1.9375 0.59375,-2.125 C 0.703125,-2.53125 0.84375,-2.875 1.109375,-2.875 C 1.296875,-2.875 1.34375,-2.71875 1.34375,-2.53125 C 1.34375,-2.40625 1.28125,-2.140625 1.21875,-1.953125 C 1.171875,-1.765625 1.109375,-1.484375 1.078125,-1.328125 L 0.84375,-0.4375 z"
                       style="stroke:none" />
                  </symbol>
                  <symbol
                     id="textext-ee2df7d4-6"
                     overflow="visible"
                     style="overflow:visible">
                    <path
                       id="path2914"
                       d="M 3.03125,-0.5625 C 2.984375,-0.421875 2.921875,-0.1875 2.921875,-0.15625 C 2.921875,0 3.046875,0.0625 3.15625,0.0625 C 3.296875,0.0625 3.40625,-0.015625 3.4375,-0.078125 C 3.46875,-0.140625 3.53125,-0.375 3.5625,-0.515625 C 3.59375,-0.640625 3.671875,-0.96875 3.71875,-1.140625 C 3.75,-1.296875 3.796875,-1.453125 3.828125,-1.609375 C 3.90625,-1.90625 3.90625,-1.921875 4.046875,-2.140625 C 4.265625,-2.484375 4.625,-2.875 5.15625,-2.875 C 5.546875,-2.875 5.578125,-2.5625 5.578125,-2.390625 C 5.578125,-1.96875 5.28125,-1.203125 5.15625,-0.90625 C 5.09375,-0.703125 5.0625,-0.640625 5.0625,-0.53125 C 5.0625,-0.15625 5.359375,0.0625 5.71875,0.0625 C 6.421875,0.0625 6.71875,-0.890625 6.71875,-1 C 6.71875,-1.09375 6.640625,-1.09375 6.609375,-1.09375 C 6.515625,-1.09375 6.515625,-1.046875 6.484375,-0.96875 C 6.328125,-0.40625 6.015625,-0.125 5.75,-0.125 C 5.59375,-0.125 5.5625,-0.21875 5.5625,-0.375 C 5.5625,-0.53125 5.609375,-0.625 5.734375,-0.9375 C 5.8125,-1.15625 6.09375,-1.890625 6.09375,-2.28125 C 6.09375,-2.390625 6.09375,-2.6875 5.84375,-2.890625 C 5.71875,-2.96875 5.515625,-3.078125 5.1875,-3.078125 C 4.5625,-3.078125 4.1875,-2.65625 3.953125,-2.375 C 3.90625,-2.96875 3.40625,-3.078125 3.046875,-3.078125 C 2.46875,-3.078125 2.078125,-2.71875 1.875,-2.4375 C 1.828125,-2.921875 1.421875,-3.078125 1.125,-3.078125 C 0.828125,-3.078125 0.671875,-2.859375 0.578125,-2.703125 C 0.421875,-2.4375 0.328125,-2.046875 0.328125,-2 C 0.328125,-1.921875 0.421875,-1.921875 0.453125,-1.921875 C 0.546875,-1.921875 0.546875,-1.9375 0.59375,-2.125 C 0.703125,-2.53125 0.84375,-2.875 1.109375,-2.875 C 1.296875,-2.875 1.34375,-2.71875 1.34375,-2.53125 C 1.34375,-2.40625 1.28125,-2.140625 1.21875,-1.953125 C 1.171875,-1.765625 1.109375,-1.484375 1.078125,-1.328125 L 0.84375,-0.4375 C 0.828125,-0.34375 0.78125,-0.171875 0.78125,-0.15625 C 0.78125,0 0.90625,0.0625 1.015625,0.0625 C 1.140625,0.0625 1.25,-0.015625 1.296875,-0.078125 C 1.328125,-0.140625 1.375,-0.375 1.421875,-0.515625 C 1.453125,-0.640625 1.53125,-0.96875 1.5625,-1.140625 C 1.609375,-1.296875 1.65625,-1.453125 1.6875,-1.609375 C 1.765625,-1.890625 1.78125,-1.953125 1.984375,-2.234375 C 2.171875,-2.515625 2.5,-2.875 3.03125,-2.875 C 3.421875,-2.875 3.4375,-2.515625 3.4375,-2.390625 C 3.4375,-2.21875 3.421875,-2.125 3.3125,-1.734375 L 3.03125,-0.5625 z"
                       style="stroke:none" />
                  </symbol>
                </g>
              </defs>
              <g
                 id="textext-ee2df7d4-7">
                <g
                   id="g3095"
                   transform="translate(52.469846,-84.695347)">
                  <g
                     style="fill:#000000;fill-opacity:1"
                     id="g2917">
                    <use
                       height="1052.3622"
                       width="744.09448"
                       xlink:href="#textext-ee2df7d4-1"
                       x="223.43201"
                       y="134.765"
                       id="use2919" />
                  </g>
                  <g
                     style="fill:#000000;fill-opacity:1"
                     id="g2921">
                    <use
                       height="1052.3622"
                       width="744.09448"
                       xlink:href="#textext-ee2df7d4-3"
                       x="229.12601"
                       y="131.14999"
                       id="use2923" />
                  </g>
                  <g
                     style="fill:#000000;fill-opacity:1"
                     id="g2925">
                    <use
                       height="1052.3622"
                       width="744.09448"
                       xlink:href="#textext-ee2df7d4-5"
                       x="229.12601"
                       y="137.228"
                       id="use2927" />
                  </g>
                </g>
                <g
                   id="g3085"
                   transform="translate(-15.354365,-93.056759)">
                  <g
                     id="g3076">
                    <g
                       id="g2929"
                       style="fill:#000000;fill-opacity:1">
                      <use
                         id="use2931"
                         y="134.765"
                         x="237.87"
                         xlink:href="#textext-ee2df7d4-1"
                         width="744.09448"
                         height="1052.3622" />
                    </g>
                    <g
                       id="g2933"
                       style="fill:#000000;fill-opacity:1">
                      <use
                         id="use2935"
                         y="131.14999"
                         x="243.564"
                         xlink:href="#textext-ee2df7d4-3"
                         width="744.09448"
                         height="1052.3622" />
                    </g>
                    <g
                       id="g2937"
                       style="fill:#000000;fill-opacity:1">
                      <use
                         id="use2939"
                         y="137.228"
                         x="243.564"
                         xlink:href="#textext-ee2df7d4-5"
                         width="744.09448"
                         height="1052.3622" />
                      <use
                         id="use2941"
                         y="137.228"
                         x="248.48889"
                         xlink:href="#textext-ee2df7d4-6"
                         width="744.09448"
                         height="1052.3622" />
                    </g>
                  </g>
                </g>
                <g
                   transform="translate(-41.970162,-37.395524)"
                   id="g3113"
                   style="fill:#000000;fill-opacity:1">
                  <use
                     id="use3115"
                     y="131.14999"
                     x="243.564"
                     xlink:href="#textext-ee2df7d4-3"
                     width="744.09448"
                     height="1052.3622" />
                </g>
              </g>
            </g>
            <g
               transform="translate(-93.889959,-82.317126)"
               id="g3103">
              <g
                 id="g3105"
                 style="fill:#000000;fill-opacity:1">
                <use
                   id="use3107"
                   y="134.765"
                   x="299.26401"
                   xlink:href="#textext-351924a9-1"
                   width="744.09448"
                   height="1052.3622" />
              </g>
              <g
                 id="g3109"
                 style="fill:#000000;fill-opacity:1">
                <use
                   id="use3111"
                   y="136.259"
                   x="304.95801"
                   xlink:href="#textext-351924a9-9"
                   width="744.09448"
                   height="1052.3622" />
              </g>
            </g>
          </g>
        </g>
      </g>
    </g>
  </g>
</svg>
