<?xml version="1.0" encoding="UTF-8" standalone="no"?>
<!-- Created with Inkscape (http://www.inkscape.org/) -->

<svg
   xmlns:dc="http://purl.org/dc/elements/1.1/"
   xmlns:cc="http://creativecommons.org/ns#"
   xmlns:rdf="http://www.w3.org/1999/02/22-rdf-syntax-ns#"
   xmlns:svg="http://www.w3.org/2000/svg"
   xmlns="http://www.w3.org/2000/svg"
   xmlns:xlink="http://www.w3.org/1999/xlink"
   xmlns:sodipodi="http://sodipodi.sourceforge.net/DTD/sodipodi-0.dtd"
   xmlns:inkscape="http://www.inkscape.org/namespaces/inkscape"
   width="210mm"
   height="297mm"
   id="svg6048"
   version="1.1"
   inkscape:version="0.47 r22583"
   sodipodi:docname="noyau.svg">
  <sodipodi:namedview
     id="base"
     pagecolor="#ffffff"
     bordercolor="#666666"
     borderopacity="1.0"
     inkscape:pageopacity="0.0"
     inkscape:pageshadow="2"
     inkscape:zoom="1.4"
     inkscape:cx="519.00925"
     inkscape:cy="638.9262"
     inkscape:document-units="px"
     inkscape:current-layer="layer1"
     showgrid="false"
     inkscape:window-width="984"
     inkscape:window-height="1009"
     inkscape:window-x="457"
     inkscape:window-y="31"
     inkscape:window-maximized="0" />
  <defs
     id="defs6050">
    <marker
       inkscape:stockid="Arrow1Lend"
       orient="auto"
       refY="0.0"
       refX="0.0"
       id="Arrow1Lend"
       style="overflow:visible;">
      <path
         id="path6835"
         d="M 0.0,0.0 L 5.0,-5.0 L -12.5,0.0 L 5.0,5.0 L 0.0,0.0 z "
         style="fill-rule:evenodd;stroke:#000000;stroke-width:1.0pt;marker-start:none;"
         transform="scale(0.8) rotate(180) translate(12.5,0)" />
    </marker>
    <linearGradient
       id="linearGradient6288">
      <stop
         style="stop-color:#ea6d6d;stop-opacity:0;"
         offset="0"
         id="stop6290" />
      <stop
         style="stop-color:#ea6d6d;stop-opacity:1;"
         offset="1"
         id="stop6292" />
    </linearGradient>
    <inkscape:perspective
       sodipodi:type="inkscape:persp3d"
       inkscape:vp_x="0 : 526.18109 : 1"
       inkscape:vp_y="0 : 1000 : 0"
       inkscape:vp_z="744.09448 : 526.18109 : 1"
       inkscape:persp3d-origin="372.04724 : 350.78739 : 1"
       id="perspective6056" />
    <inkscape:perspective
       id="perspective6028"
       inkscape:persp3d-origin="0.5 : 0.33333333 : 1"
       inkscape:vp_z="1 : 0.5 : 1"
       inkscape:vp_y="0 : 1000 : 0"
       inkscape:vp_x="0 : 0.5 : 1"
       sodipodi:type="inkscape:persp3d" />
    <radialGradient
       inkscape:collect="always"
       xlink:href="#linearGradient5932"
       id="radialGradient5938"
       cx="181.87746"
       cy="635.80426"
       fx="181.87746"
       fy="635.80426"
       r="42.367348"
       gradientTransform="matrix(1,0,0,0.89209005,244.20262,-154.82844)"
       gradientUnits="userSpaceOnUse" />
    <linearGradient
       id="linearGradient5932">
      <stop
         style="stop-color:#ffffff;stop-opacity:1;"
         offset="0"
         id="stop5934" />
      <stop
         style="stop-color:#003ef7;stop-opacity:0.94901961;"
         offset="1"
         id="stop5936" />
    </linearGradient>
    <inkscape:perspective
       id="perspective6132"
       inkscape:persp3d-origin="0.5 : 0.33333333 : 1"
       inkscape:vp_z="1 : 0.5 : 1"
       inkscape:vp_y="0 : 1000 : 0"
       inkscape:vp_x="0 : 0.5 : 1"
       sodipodi:type="inkscape:persp3d" />
    <inkscape:perspective
       id="perspective6164"
       inkscape:persp3d-origin="0.5 : 0.33333333 : 1"
       inkscape:vp_z="1 : 0.5 : 1"
       inkscape:vp_y="0 : 1000 : 0"
       inkscape:vp_x="0 : 0.5 : 1"
       sodipodi:type="inkscape:persp3d" />
    <inkscape:perspective
       id="perspective6219"
       inkscape:persp3d-origin="0.5 : 0.33333333 : 1"
       inkscape:vp_z="1 : 0.5 : 1"
       inkscape:vp_y="0 : 1000 : 0"
       inkscape:vp_x="0 : 0.5 : 1"
       sodipodi:type="inkscape:persp3d" />
    <radialGradient
       inkscape:collect="always"
       xlink:href="#linearGradient6288"
       id="radialGradient6294"
       cx="497.42667"
       cy="462.58664"
       fx="497.42667"
       fy="462.58664"
       r="41.758146"
       gradientTransform="matrix(1,0,0,2.1522192,0,-515.4107)"
       gradientUnits="userSpaceOnUse" />
    <marker
       inkscape:stockid="Arrow1Lendh"
       orient="auto"
       refY="0.0"
       refX="0.0"
       id="Arrow1Lendh"
       style="overflow:visible;">
      <path
         id="path7295"
         d="M 0.0,0.0 L 5.0,-5.0 L -12.5,0.0 L 5.0,5.0 L 0.0,0.0 z "
         style="marker-start:none;stroke:#000000;stroke-width:1.0pt;fill:#000000;fill-rule:evenodd"
         transform="scale(0.8) rotate(180) translate(12.5,0)" />
    </marker>
    <marker
       inkscape:stockid="Arrow1LendhM"
       orient="auto"
       refY="0.0"
       refX="0.0"
       id="Arrow1LendhM"
       style="overflow:visible;">
      <path
         id="path7391"
         d="M 0.0,0.0 L 5.0,-5.0 L -12.5,0.0 L 5.0,5.0 L 0.0,0.0 z "
         style="fill-rule:evenodd;marker-start:none;stroke:#a51d1e;stroke-width:1.0pt;fill:#a51d1e"
         transform="scale(0.8) rotate(180) translate(12.5,0)" />
    </marker>
  </defs>
  <metadata
     id="metadata6053">
    <rdf:RDF>
      <cc:Work
         rdf:about="">
        <dc:format>image/svg+xml</dc:format>
        <dc:type
           rdf:resource="http://purl.org/dc/dcmitype/StillImage" />
        <dc:title />
      </cc:Work>
    </rdf:RDF>
  </metadata>
  <g
     inkscape:label="Calque 1"
     inkscape:groupmode="layer"
     id="layer1">
    <path
       style="color:#000000;fill:#7dd062;fill-opacity:0.33189655;fill-rule:nonzero;stroke:none;stroke-width:4;marker:none;visibility:visible;display:inline;overflow:visible;enable-background:accumulate"
       d=""
       id="path6146" />
    <path
       style="color:#000000;fill:#cbf4f8;fill-opacity:1;fill-rule:nonzero;stroke:none;stroke-width:1;marker:none;visibility:visible;display:inline;overflow:visible;enable-background:accumulate"
       d="m 460.47142,532.5706 c -0.0734,-2.55983 -0.57807,-173.00138 -0.5125,-173.08342 0.0432,-0.0541 1.26649,1.28486 2.71834,2.97549 16.12751,18.77988 25.81157,44.89071 27.8088,74.98002 0.48164,7.25601 0.46969,14.93266 -0.024,15.42635 -0.8077,0.8077 -0.19721,1.70909 1.28349,1.89508 0.98066,0.12317 1.45855,0.37244 1.54059,0.80357 0.0938,0.49292 -0.13189,0.62615 -1.06797,0.63047 -0.6528,0.003 -1.36492,0.12354 -1.58249,0.26785 -0.21934,0.14549 -0.41409,1.37625 -0.43713,2.76243 -0.0228,1.37502 -0.29063,4.42859 -0.59509,6.78572 -3.46567,26.83171 -12.91047,49.405 -27.41148,65.51408 -1.50491,1.6718 -1.69915,1.78948 -1.72057,1.04236 l 0,0 z"
       id="path6207" />
    <path
       style="color:#000000;fill:#a6ecf3;fill-opacity:1;fill-rule:nonzero;stroke:none;stroke-width:1;marker:none;visibility:visible;display:inline;overflow:visible;enable-background:accumulate"
       d="m 447.55813,534.21695 c -21.96332,-2.99469 -41.71728,-13.56485 -55.71015,-29.80998 -10.71669,-12.44162 -17.54028,-26.96435 -20.31465,-43.23596 -0.69422,-4.07154 -0.82148,-6.12728 -0.83879,-13.54975 -0.0216,-9.2761 0.25686,-12.2348 1.81532,-19.28572 5.33275,-24.12686 20.65881,-44.89745 42.29399,-57.31877 12.20642,-7.00802 24.27934,-10.40624 40.60243,-11.42856 l 3.30357,-0.2069 1.2e-4,30.10212 c 7e-5,16.55616 0.10705,56.01729 0.23773,87.6914 l 0.2376,57.58929 -4.07701,-0.0368 c -2.24236,-0.0203 -5.63993,-0.24991 -7.55016,-0.51037 z"
       id="path6209" />
    <path
       style="color:#000000;fill:url(#radialGradient5938);fill-opacity:1;stroke:#3139ae;stroke-width:0.35355338;stroke-linecap:square;stroke-linejoin:round;stroke-miterlimit:4;stroke-opacity:1;stroke-dasharray:none;stroke-dashoffset:0;marker:none;visibility:visible;display:inline;overflow:visible;enable-background:accumulate"
       d="m 447.60753,442.14791 c -0.3403,-0.0394 -1.37444,-0.15256 -2.2981,-0.25144 -16.24421,-1.73916 -30.42315,-10.4331 -36.92197,-22.63902 -1.62433,-3.05077 -2.78896,-6.4858 -3.41127,-10.06145 -0.30405,-1.74701 -0.30237,-7.45978 0.003,-9.19239 0.59117,-3.35738 1.41738,-5.94076 2.85507,-8.92722 4.37314,-9.08414 13.05509,-16.47762 24.2672,-20.66573 8.76213,-3.27296 19.26751,-4.26831 28.92571,-2.74059 3.22662,0.51038 6.25655,1.23577 6.51398,1.55949 0.1225,0.15404 0.96763,1.39377 1.87808,2.75495 9.54112,14.26466 16.05338,31.88462 19.10711,51.69735 0.66399,4.30804 0.71832,4.86195 0.46125,4.70308 -0.0895,-0.0553 -0.86512,0.51756 -1.72357,1.27308 -3.32844,2.92936 -6.3509,4.94533 -10.39965,6.93653 -5.56758,2.73817 -10.82832,4.31695 -17.4125,5.22563 -1.92915,0.26624 -10.36034,0.49953 -11.84404,0.32773 z"
       id="path5930" />
    <g
       id="g6258"
       transform="translate(152.14285,150)">
      <g
         transform="matrix(0.7708755,0,0,-0.87119267,65.055659,619.70659)"
         id="g6118">
        <path
           style="fill:none;stroke:#00c4ed;stroke-width:3.99999761999999981;stroke-linecap:butt;stroke-linejoin:miter;stroke-miterlimit:4;stroke-opacity:0.85344827;stroke-dasharray:none"
           d="m 236.12261,449.26602 c 4.04679,-15.75904 62.93977,-86.43041 48.03711,-37.50039 -9.3384,30.66079 -40.47127,29.99321 -21.65288,11.16526 15.46367,-15.47154 -1.08416,-44.84989 -20.06975,-55.37382 -18.98559,-10.52393 22.28948,-75.7354 8.17285,-16.08591 -13.98517,59.09397 11.03023,6.94519 19.29999,11.10313 8.26976,4.15794 12.29061,-3.52593 13.44778,-10.29588 1.15717,-6.76995 0.35605,-17.15129 -6.82308,-19.85222 -7.17914,-2.70093 -8.89562,5.01306 -9.39168,11.58516 -0.49607,6.5721 -39.54857,-3.36736 -32.584,3.56875 6.96457,6.93612 23.78302,7.6734 29.76973,-1.45789 5.9867,-9.13129 42.51164,-2.17689 36.89436,-8.9797 -5.61728,-6.80281 -11.31949,0.71515 -14.53309,6.74821 -3.21361,6.03306 -41.85071,-2.39888 -43.26661,4.90713 -1.4159,7.30601 -9.90586,3.82257 -14.23502,-3.4541 -4.32916,-7.27667 27.22079,-4.23481 26.53341,-12.73785 -0.68738,-8.50305 -0.64059,-14.64194 6.42298,-16.42279 7.06357,-1.78086 13.60933,4.46383 18.76101,10.0512 5.15168,5.58737 9.19623,13.92375 10.11895,22.05085 0.92272,8.1271 9.05616,14.31298 17.01902,13.56605 7.96287,-0.74694 16.82831,-7.64705 16.61429,-14.54309 -0.21402,-6.89605 -6.76546,-13.40621 -9.0268,-4.62659 -2.26134,8.77961 8.39667,7.49956 13.23411,4.45995 4.83743,-3.03961 3.38825,-2.52904 10.67902,-13.63595 7.29077,-11.10691 -54.23041,-37.05625 -69.44428,-40.95548 -15.21386,-3.89923 39.00565,-10.87928 27.17191,0.0182 -11.83374,10.89744 -27.81042,46.93254 -26.57627,60.4075 1.23415,13.47496 -39.71338,2.11377 -38.95971,10.13075 0.37186,3.95548 0.62732,12.11783 1.26543,21.1878 0.63812,9.06997 27.84856,-2.28802 20.44436,-6.05773 -14.85769,-7.56451 6.45071,-16.28395 5.99955,-12.35692 -2.15338,18.74361 9.25007,4.78552 11.5539,5.82271 13.53093,6.09166 8.94623,-5.28063 9.33606,-10.40712 0.41873,-5.50662 -4.83123,10.39757 2.53038,-4.55265 7.36161,-14.95022 74.00619,39.17622 51.67924,1.16998 -22.19974,-37.7897 -6.00704,29.59414 14.63863,3.28312 20.64567,-26.31102 -19.70005,-10.65408 -21.25027,-15.51459 -1.55022,-4.86051 -4.84601,-16.8149 5.29628,-22.67052 10.1423,-5.85561 31.89985,-0.20538 38.80285,7.8456 6.903,8.05098 9.92211,8.55096 9.48285,19.06873 -0.43926,10.51777 -17.22852,22.55964 -27.32678,20.96029 -10.09825,-1.59935 -50.25345,-20.85729 -61.15481,-22.1553 -10.90135,-1.298 8.44859,9.85275 0.80051,0.12916 -7.64808,-9.72359 -4.26063,-19.41724 1.2564,-27.4549 5.51704,-8.03765 23.78606,-23.39594 24.92274,-10.74646 1.13668,12.64948 62.3604,44.67218 81.08111,37.96064"
           id="path5953"
           sodipodi:nodetypes="csszzzzzzzzzzzzzzzzzzzzzzzzszsssszzzzzzzzzzzzz" />
        <path
           style="fill:none;stroke:#dd2a2b;stroke-width:4;stroke-linecap:round;stroke-linejoin:miter;stroke-miterlimit:4;stroke-opacity:1;stroke-dasharray:none"
           d="m 284.16252,286.78875 c -7.27773,1.4572 -22.79567,3.80736 -14.86002,5.20649 5.15692,0.90922 2.33423,0.7715 16.53306,6.41754"
           id="path6005"
           sodipodi:nodetypes="csc" />
      </g>
      <path
         id="path6154"
         d="m 251.5437,240.82895 -5.75861,-10.87829"
         style="fill:none;stroke:#17cf00;stroke-width:3;stroke-linecap:round;stroke-linejoin:miter;stroke-miterlimit:4;stroke-opacity:1;stroke-dasharray:none" />
      <path
         id="path6152-6"
         d="m 364.49091,317.01119 13.06365,0.25267"
         style="fill:none;stroke:#17cf00;stroke-width:3;stroke-linecap:round;stroke-linejoin:miter;stroke-miterlimit:4;stroke-opacity:1;stroke-dasharray:none" />
      <path
         id="path6154-2"
         d="m 365.14884,313.72129 12.30619,0.23803"
         style="fill:none;stroke:#17cf00;stroke-width:3;stroke-linecap:round;stroke-linejoin:miter;stroke-miterlimit:4;stroke-opacity:1;stroke-dasharray:none" />
      <path
         id="path6152"
         d="m 254.74006,239.80923 -6.1131,-11.54787"
         style="fill:none;stroke:#17cf00;stroke-width:3;stroke-linecap:round;stroke-linejoin:miter;stroke-miterlimit:4;stroke-opacity:1;stroke-dasharray:none" />
    </g>
    <path
       style="color:#000000;fill:url(#radialGradient6294);fill-opacity:1;fill-rule:nonzero;stroke:none;stroke-width:4;marker:none;visibility:visible;display:inline;overflow:visible;enable-background:accumulate"
       d="m 465.90294,535.04612 c 8.01451,-9.38887 12.06282,-15.57066 17.28233,-26.39023 6.56502,-13.60871 11.24533,-30.59684 12.61865,-45.80199 0.33321,-3.68924 0.42423,-3.9112 1.84511,-4.49975 2.62632,-1.08786 2.7202,-4.24164 0.16097,-5.40771 -1.10053,-0.50143 -1.13847,-0.78525 -1.44222,-10.78856 -0.33677,-11.09097 -1.15861,-18.29119 -3.18116,-27.87048 -4.48683,-21.25073 -13.04472,-39.30578 -25.59431,-53.99767 -2.85568,-3.34316 -2.97459,-3.28285 4.18522,-2.12251 29.07993,4.71278 53.19163,22.05021 66.34573,47.70564 7.08241,13.81339 9.9901,25.86786 9.9901,41.41626 0,24.55406 -9.0014,46.30773 -26.33328,63.63961 -6.77641,6.77641 -14.938,12.73113 -23.1682,16.90357 -3.94297,1.99895 -13.18547,5.42662 -17.6921,6.56128 -4.17904,1.05218 -14.30029,2.79912 -16.21727,2.79912 -0.34755,0 0.19264,-0.96596 1.20043,-2.14658 z m 54.13865,-46.22221 c 2.13073,-1.47965 2.89021,-5.13284 1.40767,-6.77103 -2.18367,-2.41293 -5.73009,0.10353 -5.73009,4.06595 0,2.41429 2.49377,3.97496 4.32242,2.70508 z m 8.60767,-76.17583 c 0.90751,-2.17197 0.267,-4.80333 -1.46437,-6.01604 -1.44428,-1.0116 -2.17619,-0.95733 -3.3845,0.25098 -1.60171,1.6017 -1.17586,5.93241 0.70695,7.1896 0.30566,0.20409 1.19237,0.37456 1.97047,0.37881 1.149,0.006 1.55687,-0.33245 2.17145,-1.80335 l 0,0 z m -28.69858,-25.58931 c 1.22183,-1.49023 0.901,-4.68561 -0.62353,-6.21014 -3.66977,-3.66977 -7.04809,1.34883 -3.73945,5.55508 1.10002,1.39845 3.46264,1.75318 4.36298,0.65506 l 0,0 z"
       id="path6122" />
    <path
       style="color:#000000;fill:#f19696;fill-opacity:1;fill-rule:nonzero;stroke:none;stroke-width:0.25253814000000002;stroke-linecap:round;stroke-linejoin:round;stroke-miterlimit:4;stroke-opacity:1;stroke-dasharray:none;stroke-dashoffset:0;marker:none;visibility:visible;display:inline;overflow:visible;enable-background:accumulate"
       d="m 451.33516,537.69084 c -13.25753,-0.9271 -27.59276,-5.42975 -39.26968,-12.33446 -22.2188,-13.13827 -38.05035,-35.53409 -42.90962,-60.70132 -1.29833,-6.72433 -1.51853,-9.25564 -1.51865,-17.4577 -1.1e-4,-8.30256 0.34762,-12.00068 1.75533,-18.66796 5.24578,-24.84536 20.73319,-46.43944 42.60944,-59.4103 5.98084,-3.54616 14.43651,-7.24387 20.42432,-8.93167 8.66801,-2.44326 14.48146,-3.3395 23.15765,-3.57015 l 5.89028,-0.15659 1.77382,1.74237 c 2.30473,2.26386 6.17144,6.85842 8.58618,10.2024 11.60285,16.06782 19.47693,37.80716 22.04433,60.86169 0.66013,5.92774 0.89108,10.29151 0.89214,16.85692 l 0.001,6.37659 -1.38896,0 -1.38896,0 -0.003,-5.87151 c -0.01,-22.71107 -4.79983,-44.40102 -13.90131,-62.94513 -4.34028,-8.84325 -9.04131,-15.95242 -15.24055,-23.04763 l -2.04408,-2.3395 -5.17703,0.11107 c -5.29873,0.11368 -9.47525,0.53456 -14.11088,1.42199 -19.65896,3.76346 -37.59326,14.13384 -50.64248,29.28364 -8.83087,10.2524 -15.15509,22.15783 -18.5797,34.97653 -1.93186,7.23115 -2.75941,13.17269 -2.95463,21.2132 -0.44425,18.29796 4.48515,35.28047 14.69718,50.6339 5.63823,8.47687 12.07997,15.37385 20.32527,21.76164 5.72028,4.4316 14.80608,9.52833 21.91289,12.29214 9.51657,3.70096 21.85469,6.09614 31.41821,6.09917 l 1.93958,5e-4 2.2842,-2.46224 c 4.73477,-5.10385 10.19454,-12.58051 13.62786,-18.66212 5.09186,-9.01948 9.86864,-21.72235 12.61617,-33.55014 1.44657,-6.22732 2.86138,-15.17474 3.22456,-20.39246 l 0.17139,-2.46225 1.48544,0 c 1.40719,0 1.4792,0.0299 1.367,0.56822 -0.0651,0.31251 -0.18715,1.47734 -0.27114,2.58851 -0.34443,4.55671 -1.44922,11.72206 -2.68669,17.42513 -4.93454,22.74142 -14.70405,42.21694 -27.96478,55.7478 l -2.90809,2.96743 -4.05404,-0.0441 c -2.22972,-0.0243 -4.56543,-0.0799 -5.19047,-0.12359 z"
       id="path6256" />
    <g
       id="g6245"
       style="stroke:#f40000;stroke-opacity:1">
      <path
         sodipodi:nodetypes="ccssccssccccscsscc"
         d="m 491.3251,453.74787 c 1.55841,-35.97702 -9.25145,-72.30213 -30.96362,-94.96221 -1.14042,0.052 -2.00991,0.0462 -2.87935,0.0529 -48.80304,0.38563 -88.05311,40.26093 -87.66748,89.06398 0.38564,48.80305 40.80154,87.96826 89.60457,87.58263 l 0,-2e-5 c 6.68752,-6.88706 13.09107,-15.41601 17.89409,-25.0781 8.03889,-16.1716 12.57566,-34.48244 13.81125,-53.01175 m 3.99554,0.25058 c -1.17203,17.012 -5.12683,33.86893 -12.06774,49.10767 -5.81606,12.7691 -13.42129,23.60186 -22.31618,31.78674 m 1.38773,-182.35803 c 23.06432,22.27994 34.86248,60.01919 33.21673,97.54989 m 54.17575,-6.52787 c 0,50.44349 -40.89252,91.33601 -91.33599,91.33601 -50.44349,0 -91.33602,-40.89252 -91.33602,-91.33601 0,-50.44348 40.89253,-91.33601 91.33602,-91.33601 50.44347,0 91.33599,40.89253 91.33599,91.33601 z"
         style="color:#000000;fill:none;stroke:#f40000;stroke-width:1;stroke-linecap:square;stroke-linejoin:round;stroke-miterlimit:4;stroke-opacity:1;stroke-dashoffset:0;marker:none;visibility:visible;display:inline;overflow:visible;enable-background:accumulate;stroke-dasharray:none"
         id="path4701" />
      <path
         inkscape:transform-center-y="-3.7242265"
         inkscape:transform-center-x="-0.0079980862"
         sodipodi:open="true"
         sodipodi:end="3.1657215"
         sodipodi:start="0"
         transform="matrix(0.08058974,-0.99674736,0.99674736,0.08058974,-182.48494,679.0674)"
         d="m 279.48395,657.79657 a 2.032932,3.1819806 0 1 1 -4.06527,-0.0768"
         sodipodi:ry="3.1819806"
         sodipodi:rx="2.032932"
         sodipodi:cy="657.79657"
         sodipodi:cx="277.45102"
         id="path4708"
         style="color:#000000;fill:none;stroke:#f40000;stroke-width:1;stroke-linecap:butt;stroke-linejoin:round;stroke-miterlimit:4;stroke-opacity:1;stroke-dasharray:none;stroke-dashoffset:0;marker:none;visibility:visible;display:inline;overflow:visible;enable-background:accumulate"
         sodipodi:type="arc" />
      <path
         inkscape:transform-center-y="-0.62309021"
         inkscape:transform-center-x="-3.3149118"
         transform="matrix(0.94348594,0.33141259,-0.33141259,0.94348594,475.17973,-227.40327)"
         d="m 279.48395,657.79657 a 2.032932,3.1819806 0 1 1 -4.06586,0 2.032932,3.1819806 0 1 1 4.06586,0 z"
         sodipodi:ry="3.1819806"
         sodipodi:rx="2.032932"
         sodipodi:cy="657.79657"
         sodipodi:cx="277.45102"
         id="path4708-4"
         style="color:#000000;fill:none;stroke:#f40000;stroke-width:0.99999998999999995;stroke-linecap:square;stroke-linejoin:round;stroke-miterlimit:4;stroke-opacity:1;stroke-dasharray:none;stroke-dashoffset:0;marker:none;visibility:visible;display:inline;overflow:visible;enable-background:accumulate"
         sodipodi:type="arc" />
      <path
         inkscape:transform-center-y="-2.5424961"
         inkscape:transform-center-x="-2.216444"
         transform="matrix(0.94597538,-0.32423851,0.32423851,0.94597538,21.751109,-148.60016)"
         d="m 279.48395,657.79657 a 2.032932,3.1819806 0 1 1 -4.06586,0 2.032932,3.1819806 0 1 1 4.06586,0 z"
         sodipodi:ry="3.1819806"
         sodipodi:rx="2.032932"
         sodipodi:cy="657.79657"
         sodipodi:cx="277.45102"
         id="path4708-4-8"
         style="color:#000000;fill:none;stroke:#f40000;stroke-width:0.99999998000000001;stroke-linecap:square;stroke-linejoin:round;stroke-miterlimit:4;stroke-opacity:1;stroke-dasharray:none;stroke-dashoffset:0;marker:none;visibility:visible;display:inline;overflow:visible;enable-background:accumulate"
         sodipodi:type="arc" />
      <path
         inkscape:transform-center-y="-2.135448"
         inkscape:transform-center-x="-2.6108903"
         transform="matrix(0.98691253,-0.16125661,0.16125661,0.98691253,145.99644,-194.09092)"
         d="m 279.48395,657.79657 a 2.032932,3.1819806 0 1 1 -4.06586,0 2.032932,3.1819806 0 1 1 4.06586,0 z"
         sodipodi:ry="3.1819806"
         sodipodi:rx="2.032932"
         sodipodi:cy="657.79657"
         sodipodi:cx="277.45102"
         id="path4708-4-4"
         style="color:#000000;fill:none;stroke:#f40000;stroke-width:0.99999998000000001;stroke-linecap:square;stroke-linejoin:round;stroke-miterlimit:4;stroke-opacity:1;stroke-dasharray:none;stroke-dashoffset:0;marker:none;visibility:visible;display:inline;overflow:visible;enable-background:accumulate"
         sodipodi:type="arc" />
      <path
         id="path5859"
         d="m 490.93814,453.09987 0,1 4.34375,0 0,-1 -4.34375,0 z"
         style="font-size:medium;font-style:normal;font-variant:normal;font-weight:normal;font-stretch:normal;text-indent:0;text-align:start;text-decoration:none;line-height:normal;letter-spacing:normal;word-spacing:normal;text-transform:none;direction:ltr;block-progression:tb;writing-mode:lr-tb;text-anchor:start;color:#000000;fill:none;stroke:#f40000;stroke-width:1;stroke-linecap:square;stroke-linejoin:round;stroke-miterlimit:4;stroke-opacity:1;stroke-dasharray:none;stroke-dashoffset:0;marker:none;visibility:visible;display:inline;overflow:visible;enable-background:accumulate;font-family:Andale Mono;-inkscape-font-specification:Andale Mono" />
      <path
         id="path5861"
         d="m 490.84439,456.91237 0,1 4.25,0 0,-1 -4.25,0 z"
         style="font-size:medium;font-style:normal;font-variant:normal;font-weight:normal;font-stretch:normal;text-indent:0;text-align:start;text-decoration:none;line-height:normal;letter-spacing:normal;word-spacing:normal;text-transform:none;direction:ltr;block-progression:tb;writing-mode:lr-tb;text-anchor:start;color:#000000;fill:none;stroke:#f40000;stroke-width:1;stroke-linecap:square;stroke-linejoin:round;stroke-miterlimit:4;stroke-opacity:1;stroke-dasharray:none;stroke-dashoffset:0;marker:none;visibility:visible;display:inline;overflow:visible;enable-background:accumulate;font-family:Andale Mono;-inkscape-font-specification:Andale Mono" />
      <path
         inkscape:transform-center-y="-2.135448"
         inkscape:transform-center-x="-2.6108903"
         transform="matrix(0.98691253,-0.16125661,0.16125661,0.98691253,145.99644,-194.09092)"
         d="m 279.48395,657.79657 a 2.032932,3.1819806 0 1 1 -4.06586,0 2.032932,3.1819806 0 1 1 4.06586,0 z"
         sodipodi:ry="3.1819806"
         sodipodi:rx="2.032932"
         sodipodi:cy="657.79657"
         sodipodi:cx="277.45102"
         id="path4708-4-4-5"
         style="color:#000000;fill:none;stroke:#f40000;stroke-width:0.99999998000000001;stroke-linecap:square;stroke-linejoin:round;stroke-miterlimit:4;stroke-opacity:1;stroke-dasharray:none;stroke-dashoffset:0;marker:none;visibility:visible;display:inline;overflow:visible;enable-background:accumulate"
         sodipodi:type="arc" />
      <path
         inkscape:transform-center-y="-3.7242265"
         inkscape:transform-center-x="-0.0079980862"
         sodipodi:open="true"
         sodipodi:end="3.1657215"
         sodipodi:start="0"
         transform="matrix(0.08058974,-0.99674736,0.99674736,0.08058974,-187.14111,678.89069)"
         d="m 279.48395,657.79657 a 2.032932,3.1819806 0 1 1 -4.06527,-0.0768"
         sodipodi:ry="3.1819806"
         sodipodi:rx="2.032932"
         sodipodi:cy="657.79657"
         sodipodi:cx="277.45102"
         id="path4708-1"
         style="color:#000000;fill:none;stroke:#f40000;stroke-width:1;stroke-linecap:butt;stroke-linejoin:round;stroke-miterlimit:4;stroke-opacity:1;stroke-dasharray:none;stroke-dashoffset:0;marker:none;visibility:visible;display:inline;overflow:visible;enable-background:accumulate"
         sodipodi:type="arc" />
    </g>
  </g>
</svg>
