<?xml version="1.0" encoding="UTF-8" standalone="no"?>
<!-- Created with Inkscape (http://www.inkscape.org/) -->

<svg
   xmlns:dc="http://purl.org/dc/elements/1.1/"
   xmlns:cc="http://creativecommons.org/ns#"
   xmlns:rdf="http://www.w3.org/1999/02/22-rdf-syntax-ns#"
   xmlns:svg="http://www.w3.org/2000/svg"
   xmlns="http://www.w3.org/2000/svg"
   xmlns:sodipodi="http://sodipodi.sourceforge.net/DTD/sodipodi-0.dtd"
   xmlns:inkscape="http://www.inkscape.org/namespaces/inkscape"
   width="124.01575"
   height="148.81889"
   id="svg2"
   sodipodi:version="0.32"
   inkscape:version="0.47 r22583"
   sodipodi:docname="positionnement.svg"
   version="1.0">
  <defs
     id="defs4">
    <inkscape:perspective
       sodipodi:type="inkscape:persp3d"
       inkscape:vp_x="0 : 170.07874 : 1"
       inkscape:vp_y="0 : 1000 : 0"
       inkscape:vp_z="453.5433 : 170.07874 : 1"
       inkscape:persp3d-origin="226.77165 : 113.38582 : 1"
       id="perspective4043" />
    <inkscape:perspective
       id="perspective3987"
       inkscape:persp3d-origin="0.5 : 0.33333333 : 1"
       inkscape:vp_z="1 : 0.5 : 1"
       inkscape:vp_y="0 : 1000 : 0"
       inkscape:vp_x="0 : 0.5 : 1"
       sodipodi:type="inkscape:persp3d" />
    <inkscape:path-effect
       effect="spiro"
       id="path-effect20494"
       is_visible="true" />
    <inkscape:path-effect
       effect="spiro"
       id="path-effect20498"
       is_visible="true" />
    <inkscape:path-effect
       effect="spiro"
       id="path-effect20502"
       is_visible="true" />
    <inkscape:path-effect
       effect="spiro"
       id="path-effect20506"
       is_visible="true" />
    <inkscape:path-effect
       effect="spiro"
       id="path-effect20502-6"
       is_visible="true" />
    <inkscape:path-effect
       effect="spiro"
       id="path-effect20725"
       is_visible="true" />
    <inkscape:perspective
       id="perspective4365"
       inkscape:persp3d-origin="0.5 : 0.33333333 : 1"
       inkscape:vp_z="1 : 0.5 : 1"
       inkscape:vp_y="0 : 1000 : 0"
       inkscape:vp_x="0 : 0.5 : 1"
       sodipodi:type="inkscape:persp3d" />
    <inkscape:perspective
       id="perspective5172"
       inkscape:persp3d-origin="0.5 : 0.33333333 : 1"
       inkscape:vp_z="1 : 0.5 : 1"
       inkscape:vp_y="0 : 1000 : 0"
       inkscape:vp_x="0 : 0.5 : 1"
       sodipodi:type="inkscape:persp3d" />
    <inkscape:perspective
       id="perspective5233"
       inkscape:persp3d-origin="0.5 : 0.33333333 : 1"
       inkscape:vp_z="1 : 0.5 : 1"
       inkscape:vp_y="0 : 1000 : 0"
       inkscape:vp_x="0 : 0.5 : 1"
       sodipodi:type="inkscape:persp3d" />
    <inkscape:perspective
       id="perspective5233-9"
       inkscape:persp3d-origin="0.5 : 0.33333333 : 1"
       inkscape:vp_z="1 : 0.5 : 1"
       inkscape:vp_y="0 : 1000 : 0"
       inkscape:vp_x="0 : 0.5 : 1"
       sodipodi:type="inkscape:persp3d" />
    <inkscape:perspective
       id="perspective5233-0"
       inkscape:persp3d-origin="0.5 : 0.33333333 : 1"
       inkscape:vp_z="1 : 0.5 : 1"
       inkscape:vp_y="0 : 1000 : 0"
       inkscape:vp_x="0 : 0.5 : 1"
       sodipodi:type="inkscape:persp3d" />
    <inkscape:perspective
       id="perspective5421"
       inkscape:persp3d-origin="0.5 : 0.33333333 : 1"
       inkscape:vp_z="1 : 0.5 : 1"
       inkscape:vp_y="0 : 1000 : 0"
       inkscape:vp_x="0 : 0.5 : 1"
       sodipodi:type="inkscape:persp3d" />
    <inkscape:perspective
       id="perspective6087"
       inkscape:persp3d-origin="0.5 : 0.33333333 : 1"
       inkscape:vp_z="1 : 0.5 : 1"
       inkscape:vp_y="0 : 1000 : 0"
       inkscape:vp_x="0 : 0.5 : 1"
       sodipodi:type="inkscape:persp3d" />
    <inkscape:perspective
       id="perspective6183"
       inkscape:persp3d-origin="0.5 : 0.33333333 : 1"
       inkscape:vp_z="1 : 0.5 : 1"
       inkscape:vp_y="0 : 1000 : 0"
       inkscape:vp_x="0 : 0.5 : 1"
       sodipodi:type="inkscape:persp3d" />
    <inkscape:perspective
       id="perspective6268"
       inkscape:persp3d-origin="0.5 : 0.33333333 : 1"
       inkscape:vp_z="1 : 0.5 : 1"
       inkscape:vp_y="0 : 1000 : 0"
       inkscape:vp_x="0 : 0.5 : 1"
       sodipodi:type="inkscape:persp3d" />
    <inkscape:perspective
       id="perspective6268-4"
       inkscape:persp3d-origin="0.5 : 0.33333333 : 1"
       inkscape:vp_z="1 : 0.5 : 1"
       inkscape:vp_y="0 : 1000 : 0"
       inkscape:vp_x="0 : 0.5 : 1"
       sodipodi:type="inkscape:persp3d" />
    <inkscape:perspective
       id="perspective6348"
       inkscape:persp3d-origin="0.5 : 0.33333333 : 1"
       inkscape:vp_z="1 : 0.5 : 1"
       inkscape:vp_y="0 : 1000 : 0"
       inkscape:vp_x="0 : 0.5 : 1"
       sodipodi:type="inkscape:persp3d" />
    <inkscape:perspective
       id="perspective6348-6"
       inkscape:persp3d-origin="0.5 : 0.33333333 : 1"
       inkscape:vp_z="1 : 0.5 : 1"
       inkscape:vp_y="0 : 1000 : 0"
       inkscape:vp_x="0 : 0.5 : 1"
       sodipodi:type="inkscape:persp3d" />
    <inkscape:perspective
       id="perspective6550"
       inkscape:persp3d-origin="0.5 : 0.33333333 : 1"
       inkscape:vp_z="1 : 0.5 : 1"
       inkscape:vp_y="0 : 1000 : 0"
       inkscape:vp_x="0 : 0.5 : 1"
       sodipodi:type="inkscape:persp3d" />
    <inkscape:perspective
       id="perspective6768"
       inkscape:persp3d-origin="0.5 : 0.33333333 : 1"
       inkscape:vp_z="1 : 0.5 : 1"
       inkscape:vp_y="0 : 1000 : 0"
       inkscape:vp_x="0 : 0.5 : 1"
       sodipodi:type="inkscape:persp3d" />
    <inkscape:perspective
       id="perspective6790"
       inkscape:persp3d-origin="0.5 : 0.33333333 : 1"
       inkscape:vp_z="1 : 0.5 : 1"
       inkscape:vp_y="0 : 1000 : 0"
       inkscape:vp_x="0 : 0.5 : 1"
       sodipodi:type="inkscape:persp3d" />
    <inkscape:perspective
       id="perspective6815"
       inkscape:persp3d-origin="0.5 : 0.33333333 : 1"
       inkscape:vp_z="1 : 0.5 : 1"
       inkscape:vp_y="0 : 1000 : 0"
       inkscape:vp_x="0 : 0.5 : 1"
       sodipodi:type="inkscape:persp3d" />
    <inkscape:perspective
       id="perspective7470"
       inkscape:persp3d-origin="0.5 : 0.33333333 : 1"
       inkscape:vp_z="1 : 0.5 : 1"
       inkscape:vp_y="0 : 1000 : 0"
       inkscape:vp_x="0 : 0.5 : 1"
       sodipodi:type="inkscape:persp3d" />
  </defs>
  <sodipodi:namedview
     id="base"
     pagecolor="#ffffff"
     bordercolor="#666666"
     borderopacity="1.0"
     inkscape:pageopacity="0.0"
     inkscape:pageshadow="2"
     inkscape:zoom="3.080926"
     inkscape:cx="42.806838"
     inkscape:cy="76.094964"
     inkscape:document-units="mm"
     inkscape:current-layer="layer3"
     inkscape:window-width="605"
     inkscape:window-height="866"
     inkscape:window-x="379"
     inkscape:window-y="295"
     width="12.8cm"
     height="9.6cm"
     units="cm"
     showgrid="true"
     grid_units="mm"
     inkscape:object-paths="false"
     inkscape:grid-points="true"
     inkscape:grid-bbox="true"
     inkscape:guide-points="true"
     showguides="true"
     inkscape:guide-bbox="true"
     inkscape:snap-grids="false"
     inkscape:window-maximized="0"
     inkscape:snap-to-guides="false">
    <sodipodi:guide
       orientation="vertical"
       position="56.476527"
       id="guide3573" />
    <sodipodi:guide
       orientation="horizontal"
       position="11.035643"
       id="guide3579" />
    <sodipodi:guide
       orientation="horizontal"
       position="24.018753"
       id="guide3886" />
    <sodipodi:guide
       orientation="horizontal"
       position="285.62841"
       id="guide3988" />
    <sodipodi:guide
       orientation="horizontal"
       position="303.15561"
       id="guide4081" />
    <inkscape:grid
       id="GridFromPre046Settings"
       type="xygrid"
       originx="0px"
       originy="0px"
       spacingx="2mm"
       spacingy="2mm"
       color="#0000ff"
       empcolor="#0000ff"
       opacity="0.2"
       empopacity="0.4"
       empspacing="5"
       units="mm"
       visible="true"
       enabled="true"
       snapvisiblegridlinesonly="true" />
  </sodipodi:namedview>
  <metadata
     id="metadata7">
    <rdf:RDF>
      <cc:Work
         rdf:about="">
        <dc:format>image/svg+xml</dc:format>
        <dc:type
           rdf:resource="http://purl.org/dc/dcmitype/StillImage" />
        <dc:title></dc:title>
      </cc:Work>
    </rdf:RDF>
  </metadata>
  <g
     inkscape:label="Layer 1"
     inkscape:groupmode="layer"
     id="layer1"
     transform="translate(4.149475e-6,-889.37037)"
     style="display:none">
    <g
       transform="matrix(0.37084188,0,0,0.37084188,268.2294,717.78096)"
       id="g5207-5-4"
       style="display:inline" />
    <g
       id="g6859"
       transform="translate(-204.5858,122.01721)">
      <g
         id="g6314">
        <path
           transform="matrix(0.37084188,0,0,0.37084188,268.22941,717.78096)"
           style="fill:none;stroke:#dacf2f;stroke-width:1.39702857;stroke-linecap:butt;stroke-linejoin:miter;stroke-miterlimit:4;stroke-opacity:1;stroke-dasharray:none;display:inline"
           d="m -55.665123,198.39215 -44.279604,21.63277"
           id="path19910-7-6-1-7"
           sodipodi:nodetypes="cc" />
        <g
           style="display:inline"
           transform="matrix(0.19084021,0.71222538,-0.71222538,0.19084021,416.04478,727.98963)"
           id="g25287-2-0">
          <path
             style="fill:none;stroke:#dacf2f;stroke-width:0.70261985;stroke-linecap:butt;stroke-linejoin:miter;stroke-miterlimit:4;stroke-opacity:1;stroke-dasharray:none"
             d="m 35.537463,212.82995 c -7.597037,13.99974 -7.192137,13.56642 -10.388467,24.8408"
             id="path6258" />
          <path
             style="fill:none;stroke:#dacf2f;stroke-width:0.70261985;stroke-linecap:butt;stroke-linejoin:miter;stroke-miterlimit:4;stroke-opacity:1;stroke-dasharray:none"
             d="m 23.946801,242.71113 11.63681,-29.88037"
             id="path6256" />
          <path
             style="fill:none;stroke:#dacf2f;stroke-width:0.70261985;stroke-linecap:butt;stroke-linejoin:miter;stroke-miterlimit:4;stroke-opacity:1;stroke-dasharray:none"
             d="m 23.946801,242.71113 c 4.78804,-8.75189 8.692449,-14.01782 10.631794,-24.98536"
             id="path6254" />
          <path
             style="fill:none;stroke:#dacf2f;stroke-width:0.70261985;stroke-linecap:butt;stroke-linejoin:miter;stroke-miterlimit:4;stroke-opacity:1;stroke-dasharray:none"
             d="m 23.946801,242.71113 c 2.076645,-11.74587 2.958949,-16.94624 9.631997,-26.0656"
             id="path6252" />
          <path
             style="fill:none;stroke:#dacf2f;stroke-width:0.70261985;stroke-linecap:butt;stroke-linejoin:miter;stroke-miterlimit:4;stroke-opacity:1;stroke-dasharray:none"
             d="m 51.211075,200.65487 c -4.714431,3.37168 -5.904516,4.40985 -15.627464,12.17589"
             id="path6250" />
          <path
             style="fill:none;stroke:#dacf2f;stroke-width:0.70261985;stroke-linecap:butt;stroke-linejoin:miter;stroke-miterlimit:4;stroke-opacity:1;stroke-dasharray:none"
             d="m 23.946801,242.71113 11.63681,-29.88037"
             id="path19910-7-6-1" />
          <g
             transform="matrix(0.40843568,0,0,0.39847394,-7.852389,110.65042)"
             id="g24715-9-6">
            <path
               id="path23537-0-7-4-2"
               style="fill:none;stroke:#379eff;stroke-width:2.94881773;stroke-linecap:round;stroke-linejoin:miter;stroke-miterlimit:4;stroke-opacity:0.89600004;stroke-dasharray:none"
               d="m 81.544406,285.60993 c 0,0 2.085781,-1.09971 3.177463,-1.53942 2.747166,-1.10652 5.052935,-2.22224 8.448691,-2.74981 3.395755,-0.52756 8.28884,3.01777 10.57425,3.38503 2.28541,0.36726 1.93693,0.10808 2.7854,0.0246 0.84848,-0.0835 1.52382,-0.0481 2.28118,-0.47401 0.75736,-0.42594 1.96777,-2.10784 1.96777,-2.10784 m -28.297842,6.14448 c 0,0 3.272376,-3.61287 5.502027,-4.22823 1.807522,-0.49886 3.526085,0.63423 5.587066,0.65471 2.06098,0.0205 5.011096,1.79717 6.975549,2.3354 1.96445,0.53824 3.12703,0.98199 4.78467,1.02431 1.65765,0.0423 3.89849,-0.16303 5.08017,-0.82388 1.18168,-0.66086 2.01775,-2.10784 2.01775,-2.10784"
               sodipodi:nodetypes="cazzzzzcazzzzz" />
            <path
               id="path3061-2-1-4-8"
               style="fill:#3a7c0e;fill-opacity:1;fill-rule:evenodd;stroke:none"
               d="m 99.707482,286.74954 c 0,-0.86074 -0.853827,-1.55933 -1.905849,-1.55933 -1.052027,0 -1.905844,0.69859 -1.905844,1.55933 0,0.86075 0.853817,1.55933 1.905844,1.55933 1.052022,0 1.905849,-0.69858 1.905849,-1.55933 z" />
            <path
               id="path3061-2-1-6-6-6"
               style="fill:#3a7c0e;fill-opacity:1;fill-rule:evenodd;stroke:none"
               d="m 98.703549,280.54875 c 0,-0.86074 -0.853827,-1.55933 -1.905849,-1.55933 -1.052027,0 -1.905844,0.69859 -1.905844,1.55933 0,0.86075 0.853817,1.55933 1.905844,1.55933 1.052022,0 1.905849,-0.69858 1.905849,-1.55933 z" />
          </g>
          <g
             transform="matrix(0.40843568,0,0,0.39847394,-27.076166,103.5949)"
             id="g24720-0-7">
            <path
               id="path23537-0-7-3-7-2"
               style="fill:none;stroke:#379eff;stroke-width:3.48411965;stroke-linecap:round;stroke-linejoin:miter;stroke-miterlimit:4;stroke-opacity:0.89600004;stroke-dasharray:none"
               d="m 130.50994,282.39879 c 0,0 3.60869,4.20646 6.11647,5.03152 2.49109,0.81957 3.84422,0.20901 7.85641,-0.41433 4.01219,-0.62333 9.79352,3.56559 12.4938,3.99951 m -25.35969,-5.44658 c 0,0 4.1786,3.71936 6.73704,4.68926 2.07162,0.78535 4.16618,0.74936 6.60129,0.77356 2.43511,0.0242 5.92076,2.12341 8.24182,2.75935"
               sodipodi:nodetypes="cazzcazz" />
            <path
               id="path3061-2-1-5-4-5"
               style="fill:#3a7c0e;fill-opacity:1;fill-rule:evenodd;stroke:none"
               d="m 148.64159,292.16747 c 0,-0.86074 -0.85383,-1.55933 -1.90585,-1.55933 -1.05203,0 -1.90585,0.69859 -1.90585,1.55933 0,0.86075 0.85382,1.55933 1.90585,1.55933 1.05202,0 1.90585,-0.69858 1.90585,-1.55933 z" />
            <path
               id="path3061-2-1-6-0-3-9"
               style="fill:#3a7c0e;fill-opacity:1;fill-rule:evenodd;stroke:none"
               d="m 147.63765,285.96668 c 0,-0.86074 -0.85382,-1.55933 -1.90585,-1.55933 -1.05202,0 -1.90584,0.69859 -1.90584,1.55933 0,0.86075 0.85382,1.55933 1.90584,1.55933 1.05203,0 1.90585,-0.69858 1.90585,-1.55933 z" />
          </g>
          <g
             transform="matrix(0.40843568,0,0,0.39847394,-45.783152,114.5908)"
             id="g24725-7-4">
            <path
               style="fill:none;stroke:#379eff;stroke-width:3.48411965;stroke-linecap:round;stroke-linejoin:miter;stroke-miterlimit:4;stroke-opacity:0.89600004;stroke-dasharray:none"
               d="m 171.09825,293.78911 c 0,0 1.99137,-3.21817 3.61097,-3.98827 2.36834,-1.12612 3.84422,0.209 7.85641,-0.41433 4.01219,-0.62333 0.98059,-0.84088 12.4938,3.99951"
               id="path5780-1" />
            <path
               style="fill:none;stroke:#379eff;stroke-width:3.48411965;stroke-linecap:round;stroke-linejoin:miter;stroke-miterlimit:4;stroke-opacity:0.89600004;stroke-dasharray:none"
               d="m 173.20743,295.95703 c 0,0 1.773,-2.81002 3.22935,-3.32833 2.08724,-0.74285 5.42043,0.9584 6.60129,0.77356 1.18086,-0.18484 9.68255,3.22364 13.41985,4.09561"
               id="path23537-0-7-3-3-9-4" />
            <path
               id="path3061-2-1-5-9-0-9"
               style="fill:#3a7c0e;fill-opacity:1;fill-rule:evenodd;stroke:none"
               d="m 186.7244,294.538 c 0,-0.86074 -0.85383,-1.55933 -1.90585,-1.55933 -1.05203,0 -1.90585,0.69859 -1.90585,1.55933 0,0.86075 0.85382,1.55933 1.90585,1.55933 1.05202,0 1.90585,-0.69858 1.90585,-1.55933 z" />
            <path
               id="path3061-2-1-6-0-6-0-6"
               style="fill:#3a7c0e;fill-opacity:1;fill-rule:evenodd;stroke:none"
               d="m 185.72046,288.33721 c 0,-0.86074 -0.85382,-1.55933 -1.90585,-1.55933 -1.05202,0 -1.90584,0.69859 -1.90584,1.55933 0,0.86075 0.85382,1.55933 1.90584,1.55933 1.05203,0 1.90585,-0.69858 1.90585,-1.55933 z" />
          </g>
        </g>
        <path
           transform="matrix(0.24345345,0,0,0.24345345,212.35815,765.27742)"
           d="m 148.8189,106.2992 a 3.5433071,7.0866141 0 1 1 -7.08662,0 3.5433071,7.0866141 0 1 1 7.08662,0 z"
           sodipodi:ry="7.0866141"
           sodipodi:rx="3.5433071"
           sodipodi:cy="106.2992"
           sodipodi:cx="145.27559"
           id="path4355-4-2-6"
           style="fill:#bc2122;fill-opacity:1;stroke:none;display:inline"
           sodipodi:type="arc" />
        <path
           transform="matrix(0.24345345,0,0,0.24345345,235.73944,767.98567)"
           d="m 148.8189,106.2992 a 3.5433071,7.0866141 0 1 1 -7.08662,0 3.5433071,7.0866141 0 1 1 7.08662,0 z"
           sodipodi:ry="7.0866141"
           sodipodi:rx="3.5433071"
           sodipodi:cy="106.2992"
           sodipodi:cx="145.27559"
           id="path4355-4-1-2-5"
           style="fill:#bc2122;fill-opacity:1;stroke:none;display:inline"
           sodipodi:type="arc" />
        <rect
           style="fill:none;stroke:#000000;stroke-width:0.77815896;stroke-linecap:round;stroke-linejoin:round;stroke-miterlimit:4;stroke-opacity:0.8960001;stroke-dasharray:none;stroke-dashoffset:0;display:inline"
           id="rect6077"
           width="66.778656"
           height="21.96349"
           x="226.66513"
           y="782.38196"
           rx="13.362948"
           ry="10.981745" />
      </g>
    </g>
    <g
       id="g6838"
       transform="translate(-210.76423,111.8355)">
      <path
         style="fill:none;stroke:#dacf2f;stroke-width:0.51807672;stroke-linecap:butt;stroke-linejoin:miter;stroke-miterlimit:4;stroke-opacity:1;stroke-dasharray:none"
         d="m 261.98122,861.59439 c 11.54223,-0.0713 19.70105,-5.92251 28.83675,-10.10493"
         id="path6250-4"
         sodipodi:nodetypes="cc" />
      <g
         style="display:inline"
         id="g5207-9-3-4"
         transform="matrix(0.35976054,0,0,0.35976054,275.38529,778.34439)">
        <path
           transform="matrix(0.65648856,0,0,0.65648856,-52.556984,133.27061)"
           d="m 148.8189,106.2992 a 3.5433071,7.0866141 0 1 1 -7.08662,0 3.5433071,7.0866141 0 1 1 7.08662,0 z"
           sodipodi:ry="7.0866141"
           sodipodi:rx="3.5433071"
           sodipodi:cy="106.2992"
           sodipodi:cx="145.27559"
           id="path4355-4-1-1-2-6"
           style="fill:#bc2122;fill-opacity:1;stroke:none"
           sodipodi:type="arc" />
        <path
           sodipodi:nodetypes="cccccccccccc"
           d="m 41.397894,203.03342 c -31.5234076,-2.39767 -63.45595,-1.99107 -86.161311,-2.62422 m -45.038218,1.09641 131.708588,1.77914 m -131.708588,-1.77914 c 19.434103,0.81388 71.241266,2.05794 92.2536381,1.88112 m -92.2536381,-1.88112 c 20.949591,-0.59566 79.032419,-0.19786 82.8592922,-0.35148 m -35.0783582,1.68148 c 22.232346,-1.51032 51.5738161,-0.56973 83.927654,0.44919 m -131.708588,-1.77914 131.708588,1.77914"
           style="fill:none;stroke:#dacf2f;stroke-width:1.39702868;stroke-linecap:butt;stroke-linejoin:miter;stroke-miterlimit:4;stroke-opacity:1;stroke-dasharray:none"
           id="path19910-7-4-5-2" />
        <path
           style="fill:none;stroke:#379eff;stroke-width:2.79472923;stroke-linecap:round;stroke-linejoin:miter;stroke-miterlimit:4;stroke-opacity:0.89600004;stroke-dasharray:none"
           d="m -81.723297,191.88058 c 0,0 -4.698708,2.03173 -3.995949,3.06784 1.007215,1.48496 -2.109638,4.36733 -1.719968,5.25572 0.389746,0.88837 9.467724,6.14653 9.585935,9.25698"
           id="path23537-0-7-3-3-91-6-1"
           sodipodi:nodetypes="cssc" />
        <path
           sodipodi:nodetypes="csssssc"
           style="fill:none;stroke:#379eff;stroke-width:2.36534572;stroke-linecap:round;stroke-linejoin:miter;stroke-miterlimit:4;stroke-opacity:0.89600004;stroke-dasharray:none"
           d="m 33.998807,194.4378 c 0,0 1.279994,1.41064 1.845953,2.17682 1.424232,1.92805 2.762737,3.50796 3.88022,6.0635 1.117483,2.55554 -0.567276,7.12081 -0.367969,8.98886 0.199288,1.86805 -1.455881,1.53238 -1.896575,2.06615 -0.440411,0.53405 -0.44232,0.98317 -1.044391,1.5755 -0.500091,0.49201 -1.571962,1.17483 -1.571962,1.17483"
           id="path5396-5-2" />
        <path
           sodipodi:nodetypes="csssssc"
           style="fill:none;stroke:#379eff;stroke-width:2.36534572;stroke-linecap:round;stroke-linejoin:miter;stroke-miterlimit:4;stroke-opacity:0.89600004;stroke-dasharray:none"
           d="m -78.231768,189.3209 c 0,0 -1.833433,1.09331 -3.062465,1.24122 -1.509269,0.18165 -2.658475,2.70753 -3.226916,4.28186 -0.555891,1.53965 -1.295833,5.35424 -1.294835,7.00558 9.98e-4,1.65133 -0.09426,2.65429 0.221776,3.96326 0.315958,1.309 0.944248,3.02464 1.698286,3.81609 0.754134,0.79142 2.037224,1.15054 2.037224,1.15054"
           id="path23537-0-7-6-4-7" />
        <path
           transform="matrix(0.65648856,0,0,0.65648856,-185.87729,131.16086)"
           d="m 148.8189,106.2992 a 3.5433071,7.0866141 0 1 1 -7.08662,0 3.5433071,7.0866141 0 1 1 7.08662,0 z"
           sodipodi:ry="7.0866141"
           sodipodi:rx="3.5433071"
           sodipodi:cy="106.2992"
           sodipodi:cx="145.27559"
           id="path4355-4-4-4-9"
           style="fill:#bc2122;fill-opacity:1;stroke:none"
           sodipodi:type="arc" />
        <path
           id="path23537-0-7-3-09-5-2"
           d="m -87.067747,190.07278 c 0,0 -1.968124,4.0405 -2.172634,6.24629 -0.165594,1.78608 0.302195,3.42173 0.795508,5.33685 0.492621,1.91532 -0.380564,5.07983 -0.379398,7.03094"
           style="fill:none;stroke:#379eff;stroke-width:2.79472923;stroke-linecap:round;stroke-linejoin:miter;stroke-miterlimit:4;stroke-opacity:0.89600004;stroke-dasharray:none" />
        <path
           id="path3061-2-1-5-45-6-6"
           style="fill:#3a7c0e;fill-opacity:1;fill-rule:evenodd;stroke:none"
           d="m -88.539227,204.78047 c 0.658715,-0.1765 1.013879,-0.98952 0.792759,-1.81475 -0.221123,-0.82524 -0.935211,-1.35175 -1.593926,-1.17524 -0.658734,0.1765 -1.0139,0.98951 -0.792778,1.81475 0.22112,0.82524 0.935211,1.35175 1.593945,1.17524 z" />
        <path
           style="fill:none;stroke:#379eff;stroke-width:2.79472923;stroke-linecap:round;stroke-linejoin:miter;stroke-miterlimit:4;stroke-opacity:0.89600004;stroke-dasharray:none"
           d="m 35.054638,192.45929 c 0,0 2.881394,0.90216 3.811175,2.0147 1.359608,1.62687 0.648021,3.05838 1.968397,6.07782 1.320337,3.01945 0.84963,0.59677 -0.434774,10.62061"
           id="path5392-4-9" />
        <path
           id="path3061-2-1-5-9-7-1-8"
           style="fill:#3a7c0e;fill-opacity:1;fill-rule:evenodd;stroke:none"
           d="m -86.884414,201.46236 c 0.658715,-0.1765 1.013879,-0.98952 0.792758,-1.81476 -0.221122,-0.82524 -0.935211,-1.35174 -1.593926,-1.17524 -0.658734,0.17651 -1.0139,0.98952 -0.792778,1.81476 0.221121,0.82523 0.935212,1.35174 1.593946,1.17524 z" />
        <path
           id="path3061-2-1-43-9-8"
           style="fill:#3a7c0e;fill-opacity:1;fill-rule:evenodd;stroke:none"
           d="m -86.164301,204.13157 c 0.658715,-0.1765 1.013879,-0.98952 0.792758,-1.81475 -0.221121,-0.82524 -0.935209,-1.35174 -1.593924,-1.17524 -0.658715,0.1765 -1.013882,0.98951 -0.79276,1.81475 0.221121,0.82523 0.935211,1.35174 1.593926,1.17524 z" />
        <path
           id="path3061-2-1-6-0-6-7-8-5"
           style="fill:#3a7c0e;fill-opacity:1;fill-rule:evenodd;stroke:none"
           d="m 42.300337,203.70397 c 0.658714,-0.17651 1.013881,-0.98952 0.792758,-1.81476 -0.221121,-0.82523 -0.935209,-1.35174 -1.593924,-1.17523 -0.658734,0.1765 -1.013881,0.98951 -0.79276,1.81474 0.221122,0.82524 0.935191,1.35175 1.593926,1.17525 z" />
        <path
           id="path5411-9-1"
           d="m 38.639983,188.39206 c 0,0 -2.460674,3.69333 -2.564996,5.82969 -0.103624,2.12214 0.64802,3.05838 1.968396,6.07782 1.320338,3.01944 -0.670251,8.41345 -0.434774,10.62061"
           style="fill:none;stroke:#379eff;stroke-width:2.79472923;stroke-linecap:round;stroke-linejoin:miter;stroke-miterlimit:4;stroke-opacity:0.89600004;stroke-dasharray:none" />
        <path
           id="path3061-2-1-6-19-1-8"
           style="fill:#3a7c0e;fill-opacity:1;fill-rule:evenodd;stroke:none"
           d="m 41.154143,206.53546 c 0.658734,-0.17651 1.013899,-0.98952 0.792778,-1.81476 -0.221122,-0.82524 -0.93521,-1.35174 -1.593944,-1.17523 -0.658715,0.1765 -1.013882,0.98951 -0.79276,1.81475 0.221121,0.82523 0.935211,1.35174 1.593926,1.17524 z" />
        <path
           id="path3061-2-1-6-0-62-0-2"
           style="fill:#3a7c0e;fill-opacity:1;fill-rule:evenodd;stroke:none"
           d="m 39.509512,202.55913 c 0.658715,-0.1765 1.01388,-0.98952 0.792758,-1.81476 -0.22112,-0.82523 -0.935209,-1.35174 -1.593924,-1.17523 -0.658734,0.1765 -1.013881,0.98951 -0.79276,1.81474 0.221122,0.82524 0.935192,1.35175 1.593926,1.17525 z" />
      </g>
      <rect
         ry="10.981745"
         rx="13.362948"
         y="840.38519"
         x="232.84357"
         height="21.96349"
         width="66.778656"
         id="rect6077-7"
         style="fill:none;stroke:#000000;stroke-width:0.77815896;stroke-linecap:round;stroke-linejoin:round;stroke-miterlimit:4;stroke-opacity:0.8960001;stroke-dasharray:none;stroke-dashoffset:0;display:inline" />
      <path
         sodipodi:nodetypes="cc"
         id="path19910-7-6-1-7-3"
         d="m 242.08009,851.54719 -5.30394,5.91259"
         style="fill:none;stroke:#dacf2f;stroke-width:0.51807672;stroke-linecap:butt;stroke-linejoin:miter;stroke-miterlimit:4;stroke-opacity:1;stroke-dasharray:none;display:inline" />
    </g>
    <g
       id="g6830"
       transform="translate(-208.0101,112.83677)">
      <path
         sodipodi:nodetypes="cszzzc"
         style="fill:#379eff;stroke:#379eff;stroke-width:0.85095805;stroke-linecap:round;stroke-linejoin:miter;stroke-miterlimit:4;stroke-opacity:0.89600004;stroke-dasharray:none;display:inline"
         d="m 246.52339,902.13113 c 10.26323,-8.17107 -4.4941,-7.56126 -5.58634,-6.82279 -0.45413,0.30704 -1.0342,2.08853 -1.03384,2.68262 3.6e-4,0.59408 -0.0339,0.9549 0.0798,1.42582 0.11369,0.47092 0.33969,1.08815 0.61098,1.37288 0.27129,0.28472 1.32901,2.52443 5.9294,1.34147 z"
         id="path23537-0-7-6-4-7-2" />
      <path
         sodipodi:nodetypes="cszzzc"
         style="fill:#379eff;stroke:#379eff;stroke-width:0.85095805;stroke-linecap:round;stroke-linejoin:miter;stroke-miterlimit:4;stroke-opacity:0.89600004;stroke-dasharray:none;display:inline"
         d="m 280.71395,903.84602 c -10.26323,-8.17107 4.4941,-7.56126 5.58634,-6.82279 0.45413,0.30704 1.0342,2.08853 1.03384,2.68262 -3.6e-4,0.59408 0.0339,0.9549 -0.0798,1.42582 -0.11369,0.47092 -0.33969,1.08815 -0.61098,1.37288 -0.27129,0.28472 -1.32901,2.52443 -5.9294,1.34147 z"
         id="path23537-0-7-6-4-7-2-9" />
      <path
         sodipodi:type="arc"
         style="fill:#bc2122;fill-opacity:1;stroke:none;display:inline"
         id="path4355-4-2-6-4"
         sodipodi:cx="145.27559"
         sodipodi:cy="106.2992"
         sodipodi:rx="3.5433071"
         sodipodi:ry="7.0866141"
         d="m 148.8189,106.2992 a 3.5433071,7.0866141 0 1 1 -7.08662,0 3.5433071,7.0866141 0 1 1 7.08662,0 z"
         transform="matrix(0.24345345,0,0,0.24345345,204.58451,873.18439)" />
      <path
         sodipodi:type="arc"
         style="fill:#bc2122;fill-opacity:1;stroke:none;display:inline"
         id="path4355-4-1-2-5-7"
         sodipodi:cx="145.27559"
         sodipodi:cy="106.2992"
         sodipodi:rx="3.5433071"
         sodipodi:ry="7.0866141"
         d="m 148.8189,106.2992 a 3.5433071,7.0866141 0 1 1 -7.08662,0 3.5433071,7.0866141 0 1 1 7.08662,0 z"
         transform="matrix(0.24345345,0,0,0.24345345,252.47143,873.94517)" />
      <rect
         ry="10.981745"
         rx="13.362948"
         y="887.20544"
         x="230.08943"
         height="21.96349"
         width="66.778656"
         id="rect6077-71"
         style="fill:none;stroke:#000000;stroke-width:0.77815896;stroke-linecap:round;stroke-linejoin:round;stroke-miterlimit:4;stroke-opacity:0.8960001;stroke-dasharray:none;stroke-dashoffset:0;display:inline" />
      <path
         sodipodi:nodetypes="cc"
         id="rect6077-71-5"
         d="m 264.6283,887.63877 0,20.98977"
         style="fill:none;stroke:#000000;stroke-width:0.77815896;stroke-linecap:round;stroke-linejoin:round;stroke-miterlimit:4;stroke-opacity:0.89600004;stroke-dashoffset:0;display:inline" />
    </g>
  </g>
  <g
     inkscape:groupmode="layer"
     id="layer3"
     inkscape:label="aneuploid"
     style="display:inline"
     transform="translate(0,-191.33837)">
    <path
       sodipodi:nodetypes="cc"
       id="path7126"
       d="m 31.721576,209.39495 -5.56766,0.11076"
       style="fill:none;stroke:#da2f2f;stroke-width:0.51732284;stroke-linecap:butt;stroke-linejoin:miter;stroke-miterlimit:4;stroke-opacity:1;stroke-dasharray:none;display:inline" />
    <path
       style="fill:none;stroke:#da2f2f;stroke-width:0.51732284;stroke-linecap:butt;stroke-linejoin:miter;stroke-miterlimit:4;stroke-opacity:1;stroke-dasharray:none"
       d="m 55.356746,227.31019 c -3.78796,-0.36109 -4.59219,-0.92943 -6.21765,-1.58477"
       id="path7138"
       sodipodi:nodetypes="cc" />
    <g
       id="g7359"
       transform="matrix(0.78682724,0.61717331,-0.61717331,0.78682724,-104.45358,-12.102686)">
      <path
         id="path7130"
         d="M 267.57169,92.672165 C 256.1509,89.933076 256.5368,90.138761 247.89691,90.013859"
         style="fill:none;stroke:#da2f2f;stroke-width:0.51807672;stroke-linecap:butt;stroke-linejoin:miter;stroke-miterlimit:4;stroke-opacity:1;stroke-dasharray:none" />
      <path
         id="path7132"
         d="m 244.0776,90.119532 23.50232,2.585656"
         style="fill:none;stroke:#dacf2f;stroke-width:0.51807672;stroke-linecap:butt;stroke-linejoin:miter;stroke-miterlimit:4;stroke-opacity:1;stroke-dasharray:none" />
      <path
         id="path7134"
         d="m 244.0776,90.119532 c 7.14706,1.739952 11.64271,3.51582 19.82418,2.804023"
         style="fill:none;stroke:#da2f2f;stroke-width:0.51807672;stroke-linecap:butt;stroke-linejoin:miter;stroke-miterlimit:4;stroke-opacity:1;stroke-dasharray:none" />
      <path
         id="path7136"
         d="m 244.0776,90.119532 c 8.76201,-0.762545 12.63422,-1.126585 20.40275,1.885789"
         style="fill:none;stroke:#da2f2f;stroke-width:0.51732284;stroke-linecap:butt;stroke-linejoin:miter;stroke-miterlimit:4;stroke-opacity:1;stroke-dasharray:none" />
      <path
         id="path7140"
         d="m 244.0776,90.119532 23.50232,2.585656"
         style="fill:none;stroke:#da2f2f;stroke-width:0.51732284;stroke-linecap:butt;stroke-linejoin:miter;stroke-miterlimit:4;stroke-opacity:1;stroke-dasharray:none" />
      <g
         id="g7142"
         transform="matrix(0.07794595,0.29089826,-0.28380325,0.07604485,332.06602,42.268849)">
        <path
           sodipodi:nodetypes="cazzzzzcazzzzz"
           d="m 81.544406,285.60993 c 0,0 2.085781,-1.09971 3.177463,-1.53942 2.747166,-1.10652 5.052935,-2.22224 8.448691,-2.74981 3.395755,-0.52756 8.28884,3.01777 10.57425,3.38503 2.28541,0.36726 1.93693,0.10808 2.7854,0.0246 0.84848,-0.0835 1.52382,-0.0481 2.28118,-0.47401 0.75736,-0.42594 1.96777,-2.10784 1.96777,-2.10784 m -28.297842,6.14448 c 0,0 3.272376,-3.61287 5.502027,-4.22823 1.807522,-0.49886 3.526085,0.63423 5.587066,0.65471 2.06098,0.0205 5.011096,1.79717 6.975549,2.3354 1.96445,0.53824 3.12703,0.98199 4.78467,1.02431 1.65765,0.0423 3.89849,-0.16303 5.08017,-0.82388 1.18168,-0.66086 2.01775,-2.10784 2.01775,-2.10784"
           style="fill:none;stroke:#ff3737;stroke-width:2.94881773;stroke-linecap:round;stroke-linejoin:miter;stroke-miterlimit:4;stroke-opacity:0.8960001;stroke-dasharray:none"
           id="path7144" />
        <path
           d="m 99.707482,286.74954 c 0,-0.86074 -0.853827,-1.55933 -1.905849,-1.55933 -1.052027,0 -1.905844,0.69859 -1.905844,1.55933 0,0.86075 0.853817,1.55933 1.905844,1.55933 1.052022,0 1.905849,-0.69858 1.905849,-1.55933 z"
           style="fill:#7c0e0e;fill-opacity:1;fill-rule:evenodd;stroke:none"
           id="path7146" />
        <path
           d="m 98.703549,280.54875 c 0,-0.86074 -0.853827,-1.55933 -1.905849,-1.55933 -1.052027,0 -1.905844,0.69859 -1.905844,1.55933 0,0.86075 0.853817,1.55933 1.905844,1.55933 1.052022,0 1.905849,-0.69858 1.905849,-1.55933 z"
           style="fill:#7c0e0e;fill-opacity:1;fill-rule:evenodd;stroke:none"
           id="path7148" />
      </g>
      <g
         id="g7150"
         transform="matrix(0.07794595,0.29089826,-0.28380325,0.07604485,333.42247,27.23071)">
        <path
           sodipodi:nodetypes="cazzcazz"
           d="m 130.50994,282.39879 c 0,0 3.60869,4.20646 6.11647,5.03152 2.49109,0.81957 3.84422,0.20901 7.85641,-0.41433 4.01219,-0.62333 9.79352,3.56559 12.4938,3.99951 m -25.35969,-5.44658 c 0,0 4.1786,3.71936 6.73704,4.68926 2.07162,0.78535 4.16618,0.74936 6.60129,0.77356 2.43511,0.0242 5.92076,2.12341 8.24182,2.75935"
           style="fill:none;stroke:#ff3737;stroke-width:3.48411965;stroke-linecap:round;stroke-linejoin:miter;stroke-miterlimit:4;stroke-opacity:0.8960001;stroke-dasharray:none"
           id="path7152" />
        <path
           d="m 148.64159,292.16747 c 0,-0.86074 -0.85383,-1.55933 -1.90585,-1.55933 -1.05203,0 -1.90585,0.69859 -1.90585,1.55933 0,0.86075 0.85382,1.55933 1.90585,1.55933 1.05202,0 1.90585,-0.69858 1.90585,-1.55933 z"
           style="fill:#7c0e0e;fill-opacity:1;fill-rule:evenodd;stroke:none"
           id="path7154" />
        <path
           d="m 147.63765,285.96668 c 0,-0.86074 -0.85382,-1.55933 -1.90585,-1.55933 -1.05202,0 -1.90584,0.69859 -1.90584,1.55933 0,0.86075 0.85382,1.55933 1.90584,1.55933 1.05203,0 1.90585,-0.69858 1.90585,-1.55933 z"
           style="fill:#7c0e0e;fill-opacity:1;fill-rule:evenodd;stroke:none"
           id="path7156" />
      </g>
      <g
         id="g7158"
         transform="matrix(0.07794595,0.29089826,-0.28380325,0.07604485,322.02087,16.00558)">
        <path
           id="path7160"
           d="m 171.09825,293.78911 c 0,0 1.99137,-3.21817 3.61097,-3.98827 2.36834,-1.12612 3.84422,0.209 7.85641,-0.41433 4.01219,-0.62333 0.98059,-0.84088 12.4938,3.99951"
           style="fill:none;stroke:#ff3737;stroke-width:3.48411965;stroke-linecap:round;stroke-linejoin:miter;stroke-miterlimit:4;stroke-opacity:0.8960001;stroke-dasharray:none" />
        <path
           id="path7162"
           d="m 173.20743,295.95703 c 0,0 1.773,-2.81002 3.22935,-3.32833 2.08724,-0.74285 5.42043,0.9584 6.60129,0.77356 1.18086,-0.18484 9.68255,3.22364 13.41985,4.09561"
           style="fill:none;stroke:#ff3737;stroke-width:3.48411965;stroke-linecap:round;stroke-linejoin:miter;stroke-miterlimit:4;stroke-opacity:0.8960001;stroke-dasharray:none" />
        <path
           d="m 186.7244,294.538 c 0,-0.86074 -0.85383,-1.55933 -1.90585,-1.55933 -1.05203,0 -1.90585,0.69859 -1.90585,1.55933 0,0.86075 0.85382,1.55933 1.90585,1.55933 1.05202,0 1.90585,-0.69858 1.90585,-1.55933 z"
           style="fill:#7c0e0e;fill-opacity:1;fill-rule:evenodd;stroke:none"
           id="path7164" />
        <path
           d="m 185.72046,288.33721 c 0,-0.86074 -0.85382,-1.55933 -1.90585,-1.55933 -1.05202,0 -1.90584,0.69859 -1.90584,1.55933 0,0.86075 0.85382,1.55933 1.90584,1.55933 1.05203,0 1.90585,-0.69858 1.90585,-1.55933 z"
           style="fill:#7c0e0e;fill-opacity:1;fill-rule:evenodd;stroke:none"
           id="path7166" />
      </g>
      <path
         transform="matrix(0.24345345,0,0,0.24345345,208.68598,64.03276)"
         d="m 148.8189,106.2992 a 3.5433071,7.0866141 0 1 1 -7.08662,0 3.5433071,7.0866141 0 1 1 7.08662,0 z"
         sodipodi:ry="7.0866141"
         sodipodi:rx="3.5433071"
         sodipodi:cy="106.2992"
         sodipodi:cx="145.27559"
         id="path7168"
         style="fill:#bc2122;fill-opacity:1;stroke:none;display:inline"
         sodipodi:type="arc" />
      <path
         transform="matrix(0.24345345,0,0,0.24345345,232.06727,66.74101)"
         d="m 148.8189,106.2992 a 3.5433071,7.0866141 0 1 1 -7.08662,0 3.5433071,7.0866141 0 1 1 7.08662,0 z"
         sodipodi:ry="7.0866141"
         sodipodi:rx="3.5433071"
         sodipodi:cy="106.2992"
         sodipodi:cx="145.27559"
         id="path7170"
         style="fill:#bc2122;fill-opacity:1;stroke:none;display:inline"
         sodipodi:type="arc" />
    </g>
    <rect
       ry="10.981745"
       rx="13.362948"
       y="206.36768"
       x="22.079315"
       height="21.96349"
       width="66.778656"
       id="rect7172"
       style="fill:none;stroke:#000000;stroke-width:0.77815896;stroke-linecap:round;stroke-linejoin:round;stroke-miterlimit:4;stroke-opacity:0.8960001;stroke-dasharray:none;stroke-dashoffset:0;display:inline" />
    <g
       style="display:inline"
       transform="translate(-210.76423,-586.19599)"
       id="g7174">
      <path
         transform="matrix(0.11808934,0.20453674,-0.20453674,0.11808934,270.74168,818.2317)"
         d="m 148.8189,106.2992 a 3.5433071,7.0866141 0 1 1 -7.08662,0 3.5433071,7.0866141 0 1 1 7.08662,0 z"
         sodipodi:ry="7.0866141"
         sodipodi:rx="3.5433071"
         sodipodi:cy="106.2992"
         sodipodi:cx="145.27559"
         id="path7180"
         style="fill:#bc2122;fill-opacity:1;stroke:none"
         sodipodi:type="arc" />
      <path
         id="path7182"
         style="fill:none;stroke:#da2f2f;stroke-width:0.50259578;stroke-linecap:butt;stroke-linejoin:miter;stroke-miterlimit:4;stroke-opacity:1;stroke-dasharray:none"
         d="m 265.61071,859.33995 c -11.34088,-0.86258 -12.60475,-8.83075 -20.77324,-9.05853 m -1.75926,0.55674 22.71564,8.59221 m -22.71564,-8.59221 c 6.99162,0.2928 12.80897,9.34167 20.36839,9.27806 m -20.36839,-9.27806 c 7.53683,-0.2143 19.34456,8.85469 20.72132,8.79944 m -15.21643,-6.2112 c 7.99832,-0.54335 5.57111,5.63742 17.21075,6.00399 m -22.71564,-8.59221 22.71564,8.59221 m -3.81263,2.164 c 11.54223,-0.0713 -4.96686,2.02964 4.16884,-2.15278"
         sodipodi:nodetypes="cccccccccccccc" />
      <path
         style="fill:none;stroke:#ff3737;stroke-width:1.00543332;stroke-linecap:round;stroke-linejoin:miter;stroke-miterlimit:4;stroke-opacity:0.8960001;stroke-dasharray:none"
         d="m 245.98447,847.37545 c 0,0 -1.69041,0.73094 -1.43758,1.10369 0.36235,0.53423 -0.75897,1.57119 -0.61878,1.8908 0.14022,0.3196 3.40611,2.21128 3.44864,3.3303"
         id="path7184"
         sodipodi:nodetypes="cssc" />
      <path
         sodipodi:nodetypes="csssssc"
         style="fill:none;stroke:#ff3737;stroke-width:0.85095805;stroke-linecap:round;stroke-linejoin:miter;stroke-miterlimit:4;stroke-opacity:0.8960001;stroke-dasharray:none"
         d="m 267.25401,856.20195 c 0,0 -0.20922,0.65255 -0.34619,0.96667 -0.34453,0.79055 -0.59599,1.49179 -1.19118,2.29963 -0.5952,0.80787 -2.32062,1.10417 -2.86678,1.50229 -0.54617,0.39812 -0.73933,-0.17791 -0.98489,-0.21928 -0.24565,-0.0411 -0.38587,0.039 -0.67872,-0.042 -0.24326,-0.0673 -0.64881,-0.27841 -0.64881,-0.27841"
         id="path7186" />
      <path
         sodipodi:nodetypes="csssssc"
         style="fill:none;stroke:#ff3737;stroke-width:0.85095805;stroke-linecap:round;stroke-linejoin:miter;stroke-miterlimit:4;stroke-opacity:0.8960001;stroke-dasharray:none"
         d="m 247.24059,846.45458 c 0,0 -0.6596,0.39333 -1.10176,0.44654 -0.54297,0.0653 -0.95641,0.97406 -1.16091,1.54045 -0.19999,0.5539 -0.46619,1.92624 -0.46583,2.52033 3.5e-4,0.59408 -0.0339,0.95491 0.0798,1.42582 0.11367,0.47093 0.3397,1.08815 0.61098,1.37288 0.27131,0.28472 0.73291,0.41392 0.73291,0.41392"
         id="path7188" />
      <path
         transform="matrix(0.23617868,0,0,0.23617868,208.51398,825.53089)"
         d="m 148.8189,106.2992 a 3.5433071,7.0866141 0 1 1 -7.08662,0 3.5433071,7.0866141 0 1 1 7.08662,0 z"
         sodipodi:ry="7.0866141"
         sodipodi:rx="3.5433071"
         sodipodi:cy="106.2992"
         sodipodi:cx="145.27559"
         id="path7190"
         style="fill:#bc2122;fill-opacity:1;stroke:none"
         sodipodi:type="arc" />
      <path
         id="path7192"
         d="m 244.06175,846.72508 c 0,0 -0.70805,1.45361 -0.78163,2.24716 -0.0596,0.64257 0.10872,1.23101 0.28619,1.91999 0.17723,0.68906 -0.13691,1.82753 -0.13649,2.52946"
         style="fill:none;stroke:#ff3737;stroke-width:1.00543332;stroke-linecap:round;stroke-linejoin:miter;stroke-miterlimit:4;stroke-opacity:0.8960001;stroke-dasharray:none" />
      <path
         id="path7194"
         style="fill:#7c0e0e;fill-opacity:1;fill-rule:evenodd;stroke:none"
         d="m 243.53237,852.01632 c 0.23698,-0.0635 0.36475,-0.35599 0.2852,-0.65287 -0.0795,-0.29689 -0.33645,-0.48631 -0.57343,-0.42281 -0.23698,0.0635 -0.36476,0.35599 -0.28521,0.65288 0.0795,0.29689 0.33645,0.4863 0.57344,0.4228 z" />
      <path
         style="fill:none;stroke:#ff3737;stroke-width:1.00543332;stroke-linecap:round;stroke-linejoin:miter;stroke-miterlimit:4;stroke-opacity:0.8960001;stroke-dasharray:none"
         d="m 268.06036,856.17501 c 0,0 0.23722,1.06001 0.0579,1.54982 -0.26232,0.71624 -0.83632,0.75203 -1.53955,1.70656 -0.70325,0.9545 -0.0331,0.37204 -3.38718,1.77497"
         id="path7196" />
      <path
         id="path7198"
         style="fill:#7c0e0e;fill-opacity:1;fill-rule:evenodd;stroke:none"
         d="m 244.12771,850.8226 c 0.23698,-0.0635 0.36475,-0.35599 0.2852,-0.65288 -0.0796,-0.29689 -0.33645,-0.4863 -0.57343,-0.42281 -0.23699,0.0635 -0.36476,0.35599 -0.28521,0.65288 0.0795,0.29689 0.33645,0.48631 0.57344,0.42281 z" />
      <path
         id="path7200"
         style="fill:#7c0e0e;fill-opacity:1;fill-rule:evenodd;stroke:none"
         d="m 244.38677,851.78287 c 0.23698,-0.0635 0.36476,-0.35599 0.28521,-0.65287 -0.0795,-0.29689 -0.33645,-0.4863 -0.57343,-0.42281 -0.23698,0.0635 -0.36476,0.35599 -0.28521,0.65288 0.0795,0.29688 0.33645,0.4863 0.57343,0.4228 z" />
      <path
         id="path7202"
         style="fill:#7c0e0e;fill-opacity:1;fill-rule:evenodd;stroke:none"
         d="m 265.8603,860.45518 c 0.17348,0.17348 0.49073,0.13771 0.70802,-0.0795 0.2173,-0.21737 0.25294,-0.5345 0.0794,-0.708 -0.17348,-0.17348 -0.49072,-0.1377 -0.708,0.0794 -0.21737,0.2173 -0.25295,0.53452 -0.0795,0.70801 z" />
      <path
         id="path7204"
         d="m 269.97248,856.56044 c 0,0 -1.59332,-0.10229 -2.27768,0.2495 -0.67983,0.34943 -0.83633,0.75204 -1.53955,1.70655 -0.70326,0.95451 -2.74188,1.3046 -3.38718,1.77499"
         style="fill:none;stroke:#ff3737;stroke-width:1.00543332;stroke-linecap:round;stroke-linejoin:miter;stroke-miterlimit:4;stroke-opacity:0.8960001;stroke-dasharray:none" />
      <path
         id="path7206"
         style="fill:#7c0e0e;fill-opacity:1;fill-rule:evenodd;stroke:none"
         d="m 264.77195,860.60741 c 0.17348,0.17349 0.49072,0.1377 0.70801,-0.0794 0.21737,-0.21729 0.25294,-0.53451 0.0794,-0.70802 -0.17348,-0.17349 -0.49073,-0.1377 -0.70801,0.0794 -0.21736,0.21729 -0.25294,0.53452 -0.0794,0.70801 z" />
      <path
         id="path7208"
         style="fill:#7c0e0e;fill-opacity:1;fill-rule:evenodd;stroke:none"
         d="m 265.71499,859.37974 c 0.17348,0.17348 0.49072,0.1377 0.70801,-0.0794 0.21737,-0.2173 0.25294,-0.53452 0.0794,-0.70803 -0.17349,-0.17348 -0.49074,-0.1377 -0.70801,0.0795 -0.21737,0.2173 -0.25294,0.53453 -0.0794,0.70802 z" />
      <rect
         style="fill:none;stroke:#000000;stroke-width:0.77815896;stroke-linecap:round;stroke-linejoin:round;stroke-miterlimit:4;stroke-opacity:0.8960001;stroke-dasharray:none;stroke-dashoffset:0;display:inline"
         id="rect7210"
         width="66.778656"
         height="21.96349"
         x="232.84357"
         y="840.38519"
         rx="13.362948"
         ry="10.981745" />
      <path
         style="fill:none;stroke:#da2f2f;stroke-width:0.51807672;stroke-linecap:butt;stroke-linejoin:miter;stroke-miterlimit:4;stroke-opacity:1;stroke-dasharray:none;display:inline"
         d="m 242.08009,851.54719 -5.30394,5.91259"
         id="path7212"
         sodipodi:nodetypes="cc" />
    </g>
    <g
       style="display:inline"
       transform="translate(-208.01009,-585.19472)"
       id="g7214">
      <path
         id="path7216"
         d="m 246.52339,902.13113 c 10.26323,-8.17107 -4.4941,-7.56126 -5.58634,-6.82279 -0.45413,0.30704 -1.0342,2.08853 -1.03384,2.68262 3.6e-4,0.59408 -0.0339,0.9549 0.0798,1.42582 0.11369,0.47092 0.33969,1.08815 0.61098,1.37288 0.27129,0.28472 1.32901,2.52443 5.9294,1.34147 z"
         style="fill:#379eff;stroke:#379eff;stroke-width:0.85095805;stroke-linecap:round;stroke-linejoin:miter;stroke-miterlimit:4;stroke-opacity:0.89600004;stroke-dasharray:none;display:inline"
         sodipodi:nodetypes="cszzzc" />
      <path
         id="path7218"
         d="m 261.2055,907.97722 c -10.26323,-8.17107 4.4941,-7.56126 5.58634,-6.82279 0.45413,0.30704 1.0342,2.08853 1.03384,2.68262 -3.6e-4,0.59408 0.0339,0.9549 -0.0798,1.42582 -0.11369,0.47092 -0.33969,1.08815 -0.61098,1.37288 -0.27129,0.28472 -1.32901,2.52443 -5.9294,1.34147 z"
         style="fill:#ff3737;fill-opacity:1;stroke:none;display:inline"
         sodipodi:nodetypes="cszzzc" />
      <path
         transform="matrix(0.24345345,0,0,0.24345345,204.58451,873.18439)"
         d="m 148.8189,106.2992 a 3.5433071,7.0866141 0 1 1 -7.08662,0 3.5433071,7.0866141 0 1 1 7.08662,0 z"
         sodipodi:ry="7.0866141"
         sodipodi:rx="3.5433071"
         sodipodi:cy="106.2992"
         sodipodi:cx="145.27559"
         id="path7220"
         style="fill:#bc2122;fill-opacity:1;stroke:none;display:inline"
         sodipodi:type="arc" />
      <path
         transform="matrix(0.24345345,0,0,0.24345345,231.35641,880.8305)"
         d="m 148.8189,106.2992 a 3.5433071,7.0866141 0 1 1 -7.08662,0 3.5433071,7.0866141 0 1 1 7.08662,0 z"
         sodipodi:ry="7.0866141"
         sodipodi:rx="3.5433071"
         sodipodi:cy="106.2992"
         sodipodi:cx="145.27559"
         id="path7222"
         style="fill:#bc2122;fill-opacity:1;stroke:none;display:inline"
         sodipodi:type="arc" />
      <rect
         style="fill:none;stroke:#000000;stroke-width:0.77815896;stroke-linecap:round;stroke-linejoin:round;stroke-miterlimit:4;stroke-opacity:0.8960001;stroke-dasharray:none;stroke-dashoffset:0;display:inline"
         id="rect7224"
         width="66.778656"
         height="21.96349"
         x="230.08943"
         y="887.20544"
         rx="13.362948"
         ry="10.981745" />
      <path
         style="fill:none;stroke:#000000;stroke-width:0.77815896;stroke-linecap:round;stroke-linejoin:round;stroke-miterlimit:4;stroke-opacity:0.8960001;stroke-dashoffset:0;display:inline"
         d="m 264.6283,887.63877 0,20.98977"
         id="path7226"
         sodipodi:nodetypes="cc" />
    </g>
  </g>
</svg>
