<?xml version="1.0" encoding="UTF-8" standalone="no"?>
<!-- Created with Inkscape (http://www.inkscape.org/) -->
<svg
   xmlns:dc="http://purl.org/dc/elements/1.1/"
   xmlns:cc="http://creativecommons.org/ns#"
   xmlns:rdf="http://www.w3.org/1999/02/22-rdf-syntax-ns#"
   xmlns:svg="http://www.w3.org/2000/svg"
   xmlns="http://www.w3.org/2000/svg"
   xmlns:sodipodi="http://sodipodi.sourceforge.net/DTD/sodipodi-0.dtd"
   xmlns:inkscape="http://www.inkscape.org/namespaces/inkscape"
   width="210mm"
   height="297mm"
   id="svg2"
   sodipodi:version="0.32"
   inkscape:version="0.46"
   sodipodi:docname="gnu.svg"
   inkscape:output_extension="org.inkscape.output.svg.inkscape">
  <defs
     id="defs4">
    <inkscape:perspective
       sodipodi:type="inkscape:persp3d"
       inkscape:vp_x="0 : 526.18109 : 1"
       inkscape:vp_y="0 : 1000 : 0"
       inkscape:vp_z="744.09448 : 526.18109 : 1"
       inkscape:persp3d-origin="372.04724 : 350.78739 : 1"
       id="perspective10" />
    <inkscape:perspective
       id="perspective2447"
       inkscape:persp3d-origin="372.04724 : 350.78739 : 1"
       inkscape:vp_z="744.09448 : 526.18109 : 1"
       inkscape:vp_y="0 : 1000 : 0"
       inkscape:vp_x="0 : 526.18109 : 1"
       sodipodi:type="inkscape:persp3d" />
    <clipPath
       clipPathUnits="userSpaceOnUse"
       id="clipPath2457">
      <rect
         style="opacity:1;fill:none;fill-opacity:1;fill-rule:nonzero;stroke:#000000;stroke-width:1;stroke-linecap:round;stroke-linejoin:miter;stroke-miterlimit:4;stroke-dasharray:none;stroke-dashoffset:0;stroke-opacity:1"
         id="rect2459"
         width="282.85718"
         height="248.5714"
         x="145.71428"
         y="123.79075" />
    </clipPath>
    <filter
       inkscape:collect="always"
       id="filter3319">
      <feGaussianBlur
         inkscape:collect="always"
         stdDeviation="1.0835808e-06"
         id="feGaussianBlur3321" />
    </filter>
  </defs>
  <sodipodi:namedview
     id="base"
     pagecolor="#ffffff"
     bordercolor="#666666"
     borderopacity="1.0"
     inkscape:pageopacity="0.0"
     inkscape:pageshadow="2"
     inkscape:zoom="0.7"
     inkscape:cx="333.30853"
     inkscape:cy="404.09428"
     inkscape:document-units="px"
     inkscape:current-layer="g2465"
     showgrid="false"
     inkscape:window-width="692"
     inkscape:window-height="678"
     inkscape:window-x="290"
     inkscape:window-y="41" />
  <metadata
     id="metadata7">
    <rdf:RDF>
      <cc:Work
         rdf:about="">
        <dc:format>image/svg+xml</dc:format>
        <dc:type
           rdf:resource="http://purl.org/dc/dcmitype/StillImage" />
      </cc:Work>
    </rdf:RDF>
  </metadata>
  <g
     inkscape:label="Calque 1"
     inkscape:groupmode="layer"
     id="layer1">
    <g
       id="g2465"
       transform="translate(-100,417.14286)">
      <path
         style="fill:#aba197;stroke:#000000;stroke-opacity:1;"
         d="M 213.5862,355.38682 C 207.84633,349.64696 208.12797,347.86424 216.31099,338.13928 C 225.66435,327.02343 222.97714,323.69802 206.4165,325.89487 C 191.10022,327.92664 177.65301,323.64102 175.21198,315.95 C 174.33899,313.19946 177.39233,302.10793 182.00922,291.25839 C 187.75191,277.76326 189.5092,270.6783 187.58979,268.75889 C 182.61679,263.78589 184.60561,249.00724 191.64352,238.63631 C 198.28345,228.85183 198.54363,223.46071 192.37591,223.46071 C 186.28584,223.46071 170.92976,209.16654 165.13612,198.10462 C 154.55288,177.89783 157.68709,144.46071 170.1644,144.46071 C 172.24234,144.46071 177.87173,152.42881 182.67415,162.16761 C 188.33217,173.64148 193.0437,179.8745 196.05876,179.8745 C 198.61789,179.8745 206.55436,173.03561 213.69537,164.67697 C 221.23725,155.84911 232.45766,146.53303 240.46636,142.44955 C 252.60552,136.26004 257.673,135.40022 282.85713,135.25698 C 309.43127,135.10584 312.4804,135.65335 325.83513,142.97422 C 333.74114,147.30818 345.78808,157.38373 352.60612,165.36433 C 359.42415,173.34492 367.09637,179.8745 369.6555,179.8745 C 372.67056,179.8745 377.38209,173.64148 383.04011,162.16761 C 393.08938,141.78874 398.37744,139.92383 404.50811,154.5966 C 414.59301,178.73315 397.5001,215.35889 371.93799,224.3861 C 367.38602,225.99362 367.53187,226.96318 373.9811,237.96795 C 381.16692,250.22963 383.00373,263.87963 378.12447,268.75889 C 376.20506,270.6783 377.96235,277.76326 383.70504,291.25839 C 388.32193,302.10793 391.37527,313.19946 390.50228,315.95 C 388.06125,323.64102 374.61404,327.92664 359.29776,325.89487 C 342.73712,323.69802 340.04991,327.02343 349.40327,338.13928 C 365.79055,357.61445 359.3498,359.66761 281.86873,359.66761 C 227.31751,359.66761 217.23488,359.0355 213.5862,355.38682 z M 254.25368,224.82278 C 254.25368,215.74233 255.2314,213.78689 260.11996,213.09019 C 263.79612,212.56629 267.60998,214.57238 270.33547,218.46357 C 273.51689,223.00567 274.68472,223.51167 274.68472,220.34801 C 274.68472,212.09486 263.86109,201.66761 255.29421,201.66761 C 244.77916,201.66761 233.82265,212.447 233.82265,222.79206 C 233.82265,232.61815 238.69739,237.53727 247.4242,236.51744 C 253.44282,235.81409 254.25368,234.42558 254.25368,224.82278 z M 328.62265,233.81243 C 338.56072,223.87436 325.98574,201.66761 310.42005,201.66761 C 301.85317,201.66761 291.02954,212.09486 291.02954,220.34801 C 291.02954,223.51167 292.19737,223.00567 295.37879,218.46357 C 298.10428,214.57238 301.91814,212.56629 305.5943,213.09019 C 310.24429,213.75289 311.52943,215.90307 311.79264,223.46071 C 311.97527,228.70467 312.28174,233.91459 312.47367,235.0383 C 313.03196,238.30687 325.03972,237.39536 328.62265,233.81243 z"
         id="path2479" />
      <path
         style="fill:#d6904b"
         d="M 219.52092,355.00917 C 212.73096,353.31521 213.62587,345.08112 221.63434,335.5636 C 230.5101,325.01536 227.38097,322.89174 202.9624,322.89174 C 182.04084,322.89174 174.88075,318.07203 179.27376,306.94607 C 181.20316,302.05958 194.85398,272.34577 197.75736,266.71273 C 198.23822,265.77979 196.12979,264.36223 193.07197,263.56259 C 185.69338,261.63305 186.07183,254.44822 194.25159,241.16761 C 202.52764,227.73063 202.72826,224.33417 195.38358,222.00306 C 183.19388,218.13421 168.53109,201.44593 164.18452,186.49425 C 159.64839,170.8905 160.98033,154.97232 167.25803,149.76228 C 170.1577,147.35577 172.14259,148.65168 176.49737,155.79454 C 179.54783,160.798 182.04824,166.25875 182.05384,167.92954 C 182.0679,172.12314 192.73581,185.32278 196.111,185.32278 C 197.62624,185.32278 206.42477,177.1758 215.66328,167.21839 C 238.30833,142.8112 247.03196,139.14729 282.67809,139.07226 C 317.97961,138.99796 327.40712,142.98341 350.45482,167.72471 C 359.47122,177.40365 368.08802,185.32278 369.60326,185.32278 C 372.97845,185.32278 383.64636,172.12314 383.66042,167.92954 C 383.66602,166.25875 386.16643,160.798 389.21689,155.79454 C 395.74536,145.08633 401.25944,147.31597 403.51045,161.5742 C 407.132,184.51358 392.55344,212.53525 372.72427,220.74875 C 362.9205,224.80961 362.78074,227.07165 371.46267,241.16761 C 379.19004,253.71372 380.08,263.00105 373.88698,266.46683 C 370.09046,268.59148 370.58142,271.10781 377.97319,287.41002 C 382.59384,297.60065 386.37437,308.86387 386.37437,312.43941 C 386.37437,321.24828 375.70812,325.01498 357.28275,322.71289 C 340.03829,320.55833 336.10171,325.16753 345.25158,336.79972 C 352.68953,346.25553 352.52925,353.24478 344.83127,355.12876 C 337.69077,356.87629 226.57997,356.77026 219.52092,355.00917 z M 214.20885,261.05381 C 218.38875,256.87392 218.43543,250.70209 214.28715,250.70209 C 210.48476,250.70209 201.13299,258.74901 201.13299,262.02085 C 201.13299,265.47927 210.47423,264.78843 214.20885,261.05381 z M 361.36146,257.51243 C 358.15017,250.46441 348.23644,247.99526 348.23644,254.24347 C 348.23644,259.2777 353.93405,264.32278 359.61942,264.32278 C 363.79884,264.32278 364.03817,263.38716 361.36146,257.51243 z M 267.32606,233.90174 C 273.0176,231.02034 278.3514,226.89835 279.17897,224.74175 C 281.4014,218.95017 271.45194,203.57482 262.76616,199.37831 C 248.06638,192.27615 231.09851,205.0247 231.09851,223.17131 C 231.09851,242.60573 243.10738,246.1627 267.32606,233.90174 z M 258.48215,227.71833 C 254.88452,223.38346 256.29308,215.2883 260.64497,215.2883 C 262.00682,215.2883 264.69818,217.18861 266.62577,219.51122 C 269.50666,222.98248 269.40315,224.46149 266.04428,227.82036 C 262.4121,231.45254 261.57186,231.4412 258.48215,227.71833 z M 329.63401,238.02126 C 335.76787,232.47019 336.25018,216.10991 330.5211,207.93049 C 324.82993,199.80522 309.37891,194.95485 301.91372,198.95009 C 295.8434,202.19883 285.60856,217.10173 285.59145,222.71688 C 285.57877,226.87949 296.04213,233.87087 309.44221,238.65341 C 322.70478,243.38687 323.74093,243.35443 329.63401,238.02126 z M 297.67833,225.92344 C 294.79953,221.26544 303.88258,213.43099 307.71663,217.26504 C 309.42455,218.97296 310.08471,222.29154 309.18365,224.63967 C 307.29832,229.55278 300.39728,230.3228 297.67833,225.92344 z"
         id="path2477" />
      <path
         style="fill:#b0885f"
         d="M 219.52092,355.00917 C 212.73096,353.31521 213.62587,345.08112 221.63434,335.5636 C 230.5101,325.01536 227.38097,322.89174 202.9624,322.89174 C 182.04084,322.89174 174.88075,318.07203 179.27376,306.94607 C 181.20316,302.05958 194.85398,272.34577 197.75736,266.71273 C 198.23822,265.77979 196.12979,264.36223 193.07197,263.56259 C 185.69338,261.63305 186.07183,254.44822 194.25159,241.16761 C 202.52764,227.73063 202.72826,224.33417 195.38358,222.00306 C 183.19388,218.13421 168.53109,201.44593 164.18452,186.49425 C 159.64839,170.8905 160.98033,154.97232 167.25803,149.76228 C 170.1577,147.35577 172.14259,148.65168 176.49737,155.79454 C 179.54783,160.798 182.04824,166.25875 182.05384,167.92954 C 182.0679,172.12314 192.73581,185.32278 196.111,185.32278 C 197.62624,185.32278 206.42477,177.1758 215.66328,167.21839 C 238.30833,142.8112 247.03196,139.14729 282.67809,139.07226 C 317.97961,138.99796 327.40712,142.98341 350.45482,167.72471 C 359.47122,177.40365 368.08802,185.32278 369.60326,185.32278 C 372.97845,185.32278 383.64636,172.12314 383.66042,167.92954 C 383.66602,166.25875 386.16643,160.798 389.21689,155.79454 C 395.74536,145.08633 401.25944,147.31597 403.51045,161.5742 C 407.132,184.51358 392.55344,212.53525 372.72427,220.74875 C 362.9205,224.80961 362.78074,227.07165 371.46267,241.16761 C 378.39753,252.42701 380.14784,262.79862 375.58863,265.61636 C 371.99668,267.83631 362.12946,261.2999 360.28105,255.47607 C 358.30817,249.2601 347.49819,248.98083 348.71773,255.17735 C 349.20216,257.63874 351.4373,260.51008 353.68472,261.55811 C 355.93213,262.60613 360.22265,264.65949 363.2192,266.12113 C 369.89477,269.37728 385.94519,300.99728 386.19358,311.38158 C 386.43147,321.32764 376.70556,325.13961 357.28275,322.71289 C 340.03829,320.55833 336.10171,325.16753 345.25158,336.79972 C 352.68953,346.25553 352.52925,353.24478 344.83127,355.12876 C 337.69077,356.87629 226.57997,356.77026 219.52092,355.00917 z M 314.13935,330.2323 L 341.33535,322.81271 L 345.25555,305.8438 C 349.3316,288.20032 348.70153,284.93767 338.59542,271.35605 C 334.07572,265.282 329.66065,266.80042 311.16516,280.78978 C 299.5909,289.54416 283.04315,293.56891 271.02527,290.55262 C 267.33331,289.62599 258.10136,283.95814 250.50984,277.95738 C 242.91831,271.95662 234.85712,267.04692 232.59608,267.04692 C 230.33504,267.04692 225.88285,272.14776 222.70231,278.38212 C 217.36137,288.85123 217.18147,290.95165 220.3478,305.87208 C 224.15982,323.83515 222.99811,322.96425 254.25368,331.29011 C 282.70652,338.86937 282.46506,338.87364 314.13935,330.2323 z M 214.20885,261.05381 C 218.38875,256.87392 218.43543,250.70209 214.28715,250.70209 C 210.48476,250.70209 201.13299,258.74901 201.13299,262.02085 C 201.13299,265.47927 210.47423,264.78843 214.20885,261.05381 z M 267.32606,233.90174 C 273.0176,231.02034 278.3514,226.89835 279.17897,224.74175 C 281.4014,218.95017 271.45194,203.57482 262.76616,199.37831 C 248.06638,192.27615 231.09851,205.0247 231.09851,223.17131 C 231.09851,242.60573 243.10738,246.1627 267.32606,233.90174 z M 258.48215,227.71833 C 254.88452,223.38346 256.29308,215.2883 260.64497,215.2883 C 262.00682,215.2883 264.69818,217.18861 266.62577,219.51122 C 269.50666,222.98248 269.40315,224.46149 266.04428,227.82036 C 262.4121,231.45254 261.57186,231.4412 258.48215,227.71833 z M 329.63401,238.02126 C 335.76787,232.47019 336.25018,216.10991 330.5211,207.93049 C 324.82993,199.80522 309.37891,194.95485 301.91372,198.95009 C 295.8434,202.19883 285.60856,217.10173 285.59145,222.71688 C 285.57877,226.87949 296.04213,233.87087 309.44221,238.65341 C 322.70478,243.38687 323.74093,243.35443 329.63401,238.02126 z M 297.67833,225.92344 C 294.79953,221.26544 303.88258,213.43099 307.71663,217.26504 C 309.42455,218.97296 310.08471,222.29154 309.18365,224.63967 C 307.29832,229.55278 300.39728,230.3228 297.67833,225.92344 z"
         id="path2475" />
      <path
         style="fill:#aa794a;stroke:#000000;stroke-opacity:1"
         d="M 227.69334,354.75111 C 211.51567,353.71304 210.61939,348.39866 224.37368,335.06748 L 233.99368,325.74341 L 258.4254,332.00179 L 282.85713,338.26017 L 307.37155,331.98061 L 331.88597,325.70105 L 341.81017,335.62525 C 355.19656,349.01164 353.06515,354.15421 334.02021,354.42049 C 265.35184,355.3806 238.79077,355.46319 227.69334,354.75111 z M 182.74506,318.49138 C 177.52403,313.12551 178.52992,308.51885 189.01759,289.76514 C 196.20943,276.90493 201.45745,271.05064 209.44863,266.97385 C 217.65891,262.78527 220.20196,259.87021 220.20196,254.64743 C 220.20196,244.64898 212.98235,243.32164 204.22648,251.7103 C 200.11368,255.65061 195.89634,258.8745 194.85462,258.8745 C 190.9481,258.8745 193.28028,246.36205 198.40885,239.80554 C 206.35441,229.64773 205.1064,224.8515 193.1101,219.44193 C 173.80381,210.736 162.99506,193.22395 162.99506,170.65032 C 162.99506,144.37612 169.46905,143.31186 181.45391,167.61588 C 187.72188,180.32668 191.67723,185.32278 195.47221,185.32278 C 198.53542,185.32278 206.71198,178.47831 214.9136,169.0487 C 235.61232,145.25087 249.72397,139.01243 282.85713,139.01243 C 315.99029,139.01243 330.10194,145.25087 350.80066,169.0487 C 359.00228,178.47831 367.17884,185.32278 370.24205,185.32278 C 374.03703,185.32278 377.99238,180.32668 384.26035,167.61588 C 396.24521,143.31186 402.7192,144.37612 402.7192,170.65032 C 402.7192,193.22395 391.91045,210.736 372.60416,219.44193 C 366.69329,222.10736 361.85713,225.81565 361.85713,227.68258 C 361.85713,229.54951 364.90702,236.41204 368.63466,242.93265 C 379.85535,262.56051 375.38137,269.16553 361.84695,252.95347 C 353.47995,242.93116 345.5123,243.75743 345.5123,254.64743 C 345.5123,259.86823 348.0541,262.78464 356.24722,266.96446 C 362.15143,269.97656 368.58721,275.31691 370.54895,278.8319 C 391.69189,316.7152 391.22996,320.18034 365.04159,320.14565 C 355.92444,320.13358 347.30702,318.90772 345.89177,317.42151 C 344.27532,315.72402 344.38745,309.62351 346.19336,301.01377 C 348.81834,288.49905 348.49943,286.43092 342.52297,277.21129 C 338.92314,271.65798 334.62177,267.09918 332.96438,267.08064 C 331.307,267.06209 324.32562,271.34218 317.45021,276.59194 C 302.48806,288.01639 293.88379,291.56416 281.13863,291.56416 C 269.94084,291.56416 263.7536,288.66922 248.34694,276.22129 C 242.10168,271.17538 235.07789,267.04692 232.73851,267.04692 C 230.39914,267.04692 225.85817,272.19613 222.64748,278.4896 C 217.70748,288.17281 217.21606,291.70741 219.45159,301.47669 C 220.90455,307.82612 221.15225,314.54379 220.00204,316.40487 C 217.01235,321.24229 187.05418,322.92004 182.74506,318.49138 z M 270.24857,235.93945 L 283.51933,229.41436 L 295.71505,235.8989 C 311.81512,244.45939 325.26534,246.89858 330.84319,242.26937 C 343.3325,231.90417 340.44429,207.86598 325.62385,198.82941 C 310.0156,189.31249 301.53978,192.01635 286.83907,211.20209 C 282.7449,216.54534 282.60064,216.54994 279.3556,211.44113 C 269.39926,195.76637 257.86776,190.77302 244.4553,196.32864 C 233.49458,200.86872 227.73996,210.12448 227.38164,223.79002 C 227.15319,232.50226 228.53052,236.06801 233.75984,240.30246 C 241.67558,246.71223 250.47992,245.65949 270.24857,235.93945 z M 256.49537,224.54784 C 254.77556,220.0661 260.45751,214.59191 264.33913,216.99088 C 265.53438,217.72958 266.5123,220.71335 266.5123,223.62148 C 266.5123,229.9954 258.85745,230.70332 256.49537,224.54784 z M 299.20196,223.62148 C 299.20196,220.71335 300.17988,217.72958 301.37513,216.99088 C 305.25675,214.59191 310.9387,220.0661 309.21889,224.54784 C 306.85681,230.70332 299.20196,229.9954 299.20196,223.62148 z"
         id="path2473" />
      <path
         style="fill:#ae7237;filter:url(#filter3319)"
         d="M 216.18021,351.59949 C 213.89525,347.90235 218.94575,339.06332 226.27745,333.928 C 234.41227,328.23015 248.8611,328.60884 267.45862,335.00733 C 282.69525,340.2495 283.06465,340.25029 298.53164,335.07431 C 321.85641,327.26874 333.32338,327.99062 343.22036,337.8876 C 347.72239,342.38963 350.89772,347.59954 350.27664,349.46519 C 348.83588,353.79308 218.81491,355.86252 216.18021,351.59949 z M 184.10713,318.58734 C 177.01353,314.45569 178.28675,306.98319 188.32787,293.81592 C 193.27125,287.33348 198.11704,279.93441 199.09629,277.37352 C 200.07554,274.81264 204.91845,271.67728 209.85832,270.40606 C 215.64328,268.91737 220.13843,265.41411 222.48842,260.56287 C 225.67865,253.9771 225.54006,252.37142 221.38518,247.78033 C 215.60161,241.38956 212.5535,241.21108 206.27236,246.89544 C 197.71848,254.63659 194.53864,249.75801 202.20201,240.65061 C 206.12772,235.98517 208.68776,230.51532 207.891,228.49538 C 207.09424,226.47545 200.03782,221.75812 192.21008,218.01243 C 180.25537,212.29193 176.77899,208.83525 170.48644,196.41189 C 163.20831,182.0427 161.31648,168.71163 164.74118,155.9269 C 167.24335,146.58602 171.62738,149.84606 180.70196,167.79563 C 185.57822,177.44089 190.93763,184.34301 193.98996,184.90858 C 197.41136,185.54252 205.59098,179.4143 218.68814,166.40454 C 240.96196,144.27938 253.15166,139.01243 282.08378,139.01243 C 312.68754,139.01243 322.23773,142.98827 345.87162,165.56796 C 359.35608,178.45094 368.80287,185.44741 371.93179,184.86862 C 374.72117,184.35263 380.40628,176.99016 385.10158,167.81313 C 394.31731,149.80087 398.49414,146.67282 400.97308,155.9269 C 404.44145,168.87466 402.52333,182.35143 395.22325,196.32539 C 389.39803,207.47612 384.69246,212.32286 374.11118,218.07078 C 360.33662,225.55334 358.47072,229.44172 363.23671,240.73234 C 365.04524,245.01677 364.20769,245.62524 357.47402,244.91892 C 353.14069,244.46438 348.06365,245.03907 346.1917,246.19599 C 338.56346,250.9105 345.14551,275.21933 354.05029,275.21933 C 360.84902,275.21933 382.47864,297.42186 384.83807,306.82259 C 387.32689,316.73883 381.14795,321.56092 366.10371,321.44304 C 348.94606,321.3086 344.57003,316.49116 346.81016,300.20342 C 348.38462,288.75576 347.70072,285.20513 342.32277,276.90588 C 338.83305,271.52054 334.66689,267.09918 333.06464,267.08064 C 331.46239,267.06209 323.60445,271.93164 315.60254,277.90187 C 307.60064,283.87209 296.84116,289.54708 291.6926,290.51296 C 278.86535,292.91936 261.92153,287.36389 248.34694,276.30096 C 242.10168,271.21124 235.07789,267.04692 232.73851,267.04692 C 230.39914,267.04692 226.00404,271.91019 222.97163,277.8542 C 219.2,285.24721 216.17035,288.1673 213.38179,287.09723 C 211.13978,286.23689 209.30541,286.88999 209.30541,288.54857 C 209.30541,290.20714 211.01008,291.56416 213.09358,291.56416 C 218.77178,291.56416 220.47673,310.82706 215.32387,316.76243 C 210.68417,322.1067 192.02255,323.19765 184.10713,318.58734 z M 274.68464,271.81416 C 274.68456,268.68066 257.85601,253.42623 254.39923,253.42623 C 249.46104,253.42623 254.19446,262.13246 261.06403,265.68485 C 265.55885,268.00921 269.23644,271.10535 269.23644,272.56515 C 269.23644,274.02495 270.4623,275.21933 271.96058,275.21933 C 273.45885,275.21933 274.68468,273.687 274.68464,271.81416 z M 309.41747,263.44266 C 312.7886,260.40783 315.54679,256.29968 315.54679,254.31344 C 315.54679,252.32542 318.46276,250.70209 322.0338,250.70209 C 329.61415,250.70209 342.78816,235.15288 342.78816,226.20584 C 342.78816,223.02089 344.01403,221.17265 345.5123,222.09864 C 350.4272,225.13621 348.38456,220.16158 338.768,205.67362 C 331.26274,194.36647 327.46775,191.13996 320.46468,190.11213 C 305.67511,187.94148 295.30001,192.36858 290.22228,203.0167 C 287.7182,208.2678 284.73018,212.55641 283.58224,212.54693 C 282.43429,212.53746 279.40046,208.84879 276.84039,204.34989 C 271.10355,194.26835 260.40546,189.86929 246.08127,191.70173 C 231.59548,193.55483 224.88962,202.47527 224.24672,220.74702 C 223.81625,232.98129 224.67799,235.34707 231.72456,241.27637 C 242.15069,250.04937 251.72418,249.73401 270.21259,240.00854 C 285.32057,232.06128 285.38121,232.05371 292.03096,237.2844 C 295.69851,240.1693 301.11398,242.52967 304.06532,242.52967 C 307.01666,242.52967 310.86757,244.26016 312.62289,246.37519 C 315.18883,249.46696 313.91934,251.66613 306.1461,257.59507 C 300.82855,261.65097 296.47782,266.73507 296.47782,268.89308 C 296.47782,273.32521 300.16509,271.77206 309.41747,263.44266 z M 257.4886,227.14965 C 253.63254,223.29359 255.81453,218.01243 261.26377,218.01243 C 265.07201,218.01243 266.62489,219.49178 266.03101,222.55394 C 265.05865,227.56766 260.40839,230.06944 257.4886,227.14965 z M 301.0748,227.14965 C 297.21874,223.29359 299.40073,218.01243 304.84998,218.01243 C 308.65822,218.01243 310.2111,219.49178 309.61722,222.55394 C 308.64486,227.56766 303.99459,230.06944 301.0748,227.14965 z M 367.30541,253.42623 C 367.30541,251.92795 367.84599,250.70209 368.5067,250.70209 C 369.16742,250.70209 370.46563,251.92795 371.39161,253.42623 C 372.3176,254.9245 371.77701,256.15036 370.19031,256.15036 C 368.60362,256.15036 367.30541,254.9245 367.30541,253.42623 z"
         id="path2471" />
      <path
         style="fill:#66492c"
         d="M 216.15055,351.55149 C 213.82191,347.78368 219.25208,338.62249 226.7108,333.73535 C 232.36476,330.03072 234.92293,330.03567 251.07875,333.78245 C 261.00669,336.0849 271.96888,339.04822 275.43918,340.36763 C 279.85639,342.04705 289.06408,340.79251 306.13917,336.18477 C 324.05016,331.35147 332.11954,330.30688 336.51477,332.25263 C 343.82958,335.49086 352.07951,347.48085 349.67255,351.3754 C 347.35134,355.13119 218.46798,355.30117 216.15055,351.55149 z M 184.10713,318.58734 C 177.83764,314.9357 178.08884,309.21424 185.01034,298.01501 C 194.52478,282.62033 211.46614,286.90287 216.20771,305.90126 C 217.3586,310.51261 216.78403,314.99705 214.72432,317.47884 C 210.86057,322.13438 191.40632,322.83872 184.10713,318.58734 z M 350.98994,317.47884 C 347.0131,312.68705 349.39098,300.58723 355.68123,293.60726 C 361.9801,286.61774 373.98538,287.51859 379.12761,295.36662 C 386.71118,306.94062 387.50777,315.28313 381.34432,318.58171 C 373.28671,322.89402 354.93063,322.22708 350.98994,317.47884 z M 263.86706,256.25677 C 261.66303,254.8629 260.69077,252.89144 261.70647,251.87574 C 264.1993,249.3829 271.96058,252.55363 271.96058,256.06487 C 271.96058,259.52481 269.14031,259.59168 263.86706,256.25677 z M 294.43344,255.46933 C 295.05703,253.59649 297.87835,251.6163 300.70305,251.06892 C 305.14639,250.20788 305.34646,250.66701 302.18686,254.4741 C 297.86583,259.68062 292.8154,260.32889 294.43344,255.46933 z M 257.4886,227.14965 C 253.63254,223.29359 255.81453,218.01243 261.26377,218.01243 C 265.07201,218.01243 266.62489,219.49178 266.03101,222.55394 C 265.05865,227.56766 260.40839,230.06944 257.4886,227.14965 z M 301.0748,227.14965 C 297.21874,223.29359 299.40073,218.01243 304.84998,218.01243 C 308.65822,218.01243 310.2111,219.49178 309.61722,222.55394 C 308.64486,227.56766 303.99459,230.06944 301.0748,227.14965 z M 189.98387,217.22961 C 170.53719,207.13685 158.7145,178.42508 164.74118,155.9269 C 167.24335,146.58602 171.62738,149.84606 180.70196,167.79563 C 185.57822,177.44089 190.93763,184.34301 193.98996,184.90858 C 197.41136,185.54252 205.59098,179.4143 218.68814,166.40454 C 240.96196,144.27938 253.15166,139.01243 282.08378,139.01243 C 312.68754,139.01243 322.23773,142.98827 345.87162,165.56796 C 359.35608,178.45094 368.80287,185.44741 371.93179,184.86862 C 374.72117,184.35263 380.40628,176.99016 385.10158,167.81313 C 394.31731,149.80087 398.49414,146.67282 400.97308,155.9269 C 408.50061,184.02794 389.60803,216.96616 362.90674,222.29355 C 355.74603,223.72225 354.33221,222.63696 347.01449,210.09426 C 338.59361,195.6607 332.84155,191.82926 305.44086,182.40204 C 285.44105,175.52109 278.90086,175.76185 255.09707,184.25531 C 233.09917,192.10441 225.36199,197.95377 216.78005,213.22328 C 210.0845,225.1364 206.30688,225.7012 189.98387,217.22961 z"
         id="path2469" />
      <path
         style="fill:#4b3017;"
         d="M 217.47782,349.24591 C 217.47782,348.0088 220.49876,344.1586 224.19102,340.6899 C 229.9956,335.23678 232.66871,334.62284 243.94102,336.15383 C 251.11126,337.12768 262.79545,339.84881 269.90589,342.20078 C 280.52563,345.71354 284.6015,345.89375 292.73317,343.21006 C 298.17772,341.41319 309.29185,338.39498 317.43124,336.50292 C 331.64881,333.19793 332.54449,333.32733 340.23328,339.79702 C 344.63502,343.50084 348.23644,347.64812 348.23644,349.01321 C 348.23644,350.43748 320.37468,351.49519 282.85713,351.49519 C 246.89851,351.49519 217.47782,350.48301 217.47782,349.24591 z M 185.03449,316.29128 C 181.81544,314.25348 181.76574,312.48164 184.72707,305.33234 C 189.56816,293.64491 196.96954,289.99448 205.0673,295.30033 C 212.72872,300.32029 216.64819,313.20138 211.50648,316.46232 C 206.77935,319.46032 189.8679,319.35106 185.03449,316.29128 z M 354.03372,316.35474 C 349.13644,313.25252 353.23906,300.23933 360.66984,295.30547 C 367.9612,290.46419 378.27717,295.79287 381.72404,306.18094 C 384.85956,315.63068 381.30533,318.72211 367.30541,318.72211 C 362.06144,318.72211 356.08918,317.6568 354.03372,316.35474 z M 258.33989,222.09864 C 258.33989,219.60151 259.87222,218.06919 261.74506,218.69347 C 265.60155,219.97896 265.17761,224.35963 261.06403,225.73082 C 259.56575,226.23025 258.33989,224.59577 258.33989,222.09864 z M 301.09211,224.44282 C 298.91571,222.26642 301.37593,218.01243 304.811,218.01243 C 306.22086,218.01243 307.37437,219.85123 307.37437,222.09864 C 307.37437,226.31127 304.15999,227.5107 301.09211,224.44282 z M 192.87875,214.60726 C 172.91002,204.51937 162.82182,183.76966 167.05227,161.48657 L 168.99169,151.27105 L 178.28956,169.65899 C 186.53598,185.96751 188.47688,188.04692 195.45274,188.04692 C 201.6843,188.04692 206.28575,184.62126 217.60534,171.55489 C 238.7838,147.10828 247.97814,143.09864 282.85713,143.09864 C 317.73612,143.09864 326.93046,147.10828 348.10892,171.55489 C 359.42851,184.62126 364.02996,188.04692 370.26152,188.04692 C 377.23738,188.04692 379.17828,185.96751 387.4247,169.65899 L 396.72257,151.27105 L 398.66198,161.48657 C 403.56409,187.3074 388.62338,211.5163 363.1114,219.09034 C 358.59556,220.43102 356.05479,218.17055 349.54063,207.01678 C 340.76286,191.98717 328.61665,184.65026 297.99478,175.88056 C 281.84016,171.2541 281.75485,171.26024 258.89324,178.69702 C 233.42756,186.98089 223.25603,194.12973 214.32453,210.02119 C 211.01223,215.91465 207.56177,220.73657 206.65686,220.73657 C 205.75195,220.73657 199.5518,217.97838 192.87875,214.60726 z"
         id="path2467" />
    </g>
  </g>
</svg>
