<?xml version="1.0" encoding="UTF-8" standalone="no"?>
<!-- Created with Inkscape (http://www.inkscape.org/) -->
<svg
   xmlns:dc="http://purl.org/dc/elements/1.1/"
   xmlns:cc="http://creativecommons.org/ns#"
   xmlns:rdf="http://www.w3.org/1999/02/22-rdf-syntax-ns#"
   xmlns:svg="http://www.w3.org/2000/svg"
   xmlns="http://www.w3.org/2000/svg"
   xmlns:xlink="http://www.w3.org/1999/xlink"
   xmlns:sodipodi="http://sodipodi.sourceforge.net/DTD/sodipodi-0.dtd"
   xmlns:inkscape="http://www.inkscape.org/namespaces/inkscape"
   width="283.46457"
   height="248.03149"
   id="svg2"
   sodipodi:version="0.32"
   inkscape:version="0.46"
   version="1.0"
   sodipodi:docname="black_spider.svg"
   inkscape:output_extension="org.inkscape.output.svg.inkscape">
  <sodipodi:namedview
     id="base"
     pagecolor="#ffffff"
     bordercolor="#666666"
     borderopacity="1.0"
     inkscape:pageopacity="0.0"
     inkscape:pageshadow="2"
     inkscape:zoom="0.98994949"
     inkscape:cx="202.33052"
     inkscape:cy="123.37108"
     inkscape:document-units="px"
     inkscape:current-layer="g4806"
     showgrid="false"
     units="cm"
     inkscape:window-width="692"
     inkscape:window-height="678"
     inkscape:window-x="67"
     inkscape:window-y="45" />
  <defs
     id="defs4">
    <inkscape:perspective
       id="perspective10"
       inkscape:persp3d-origin="372.04724 : 350.78739 : 1"
       inkscape:vp_z="744.09448 : 526.18109 : 1"
       inkscape:vp_y="0 : 1000 : 0"
       inkscape:vp_x="0 : 526.18109 : 1"
       sodipodi:type="inkscape:persp3d" />
    <inkscape:perspective
       sodipodi:type="inkscape:persp3d"
       inkscape:vp_x="0 : 526.18109 : 1"
       inkscape:vp_y="0 : 1000 : 0"
       inkscape:vp_z="744.09448 : 526.18109 : 1"
       inkscape:persp3d-origin="372.04724 : 350.78739 : 1"
       id="perspective2447" />
  </defs>
  <metadata
     id="metadata7">
    <rdf:RDF>
      <cc:Work
         rdf:about="">
        <dc:format>image/svg+xml</dc:format>
        <dc:type
           rdf:resource="http://purl.org/dc/dcmitype/StillImage" />
      </cc:Work>
    </rdf:RDF>
  </metadata>
  <g
     id="layer1"
     inkscape:groupmode="layer"
     inkscape:label="Calque 1">
    <svg
       preserveAspectRatio="none"
       viewBox="0 0 1 1"
       height="8in"
       width="8in"
       id="body"
       baseProfile="full"
       version="1.0"
       sodipodi:version="0.32"
       inkscape:version="0.46" />
    <g
       id="g4806"
       transform="translate(-5.0507627,-20.203051)">
      <image
         y="33.576473"
         x="16.357159"
         id="image2449"
         height="214.58977"
         width="121.57142"
         sodipodi:absref="/home/guillaume/uniandes/enseignement/resources/Redbackwithlizard2.JPG"
         xlink:href="Redbackwithlizard2.JPG" />
      <path
         style="fill:none;fill-rule:evenodd;stroke:#000000;stroke-width:1px;stroke-linecap:butt;stroke-linejoin:miter;stroke-opacity:1"
         d="M 133.50258,35.997501 L 281.75134,35.997501"
         id="path2453"
         sodipodi:nodetypes="cc" />
      <g
         id="g2467"
         transform="translate(122.22846,5.0507623)"
         style="fill:#bfbfbf;fill-opacity:1;stroke:#595959;stroke-opacity:1">
        <path
           sodipodi:nodetypes="ccc"
           id="path2462"
           d="M 83.337582,211.74375 C 88.115432,213.22595 88.629077,216.27403 95.463431,209.46356 C 95.689032,208.47378 95.11382,204.42462 93.433854,202.48385"
           style="fill:#bfbfbf;fill-opacity:1;fill-rule:evenodd;stroke:#595959;stroke-width:1px;stroke-linecap:butt;stroke-linejoin:miter;stroke-opacity:1" />
        <path
           sodipodi:nodetypes="cccccccccccccccccccccccccc"
           id="path2455"
           d="M 88.514618,186.23739 C 87.021742,182.70439 94.068183,175.28358 87.57675,174.45922 C 82.227001,174.09806 77.396854,172.14624 72.949465,169.38382 C 66.949693,167.46258 60.55156,168.57144 54.392336,168.38695 C 47.940391,169.78426 42.873427,174.48167 38.232113,178.88851 C 33.794868,184.10221 31.098852,190.74009 29.98207,197.44849 C 29.00857,202.65556 31.526024,207.50503 34.720301,211.41008 C 37.411814,215.79154 42.158814,217.55015 47.039857,218.13206 C 53.782662,219.58096 60.904452,219.31723 67.354348,216.77282 C 74.101371,214.81536 81.671959,213.9582 86.945523,208.84783 C 89.802427,206.19223 93.410337,204.58889 97.272453,204.24597 C 101.93241,202.95746 105.49275,199.21184 107.54748,194.96628 C 110.84982,191.0122 117.08604,190.59618 119.44501,185.65598 C 123.85356,179.71635 128.3147,173.05995 128.39608,165.38449 C 127.56498,160.62336 121.88282,162.25501 118.84034,163.74765 C 114.91289,165.54594 109.08071,163.74503 106.85306,168.70035 C 105.58368,172.10293 101.54075,173.14084 98.876635,175.27104 C 95.471739,177.16736 93.875707,180.74408 92.52239,184.17688 C 90.283014,188.5397 85.199754,189.01226 81.258222,190.96825 C 76.716258,192.94308 72.673862,195.85296 68.737335,198.78034 C 64.379308,200.48964 66.891742,188.687 62.286486,193.98601 C 59.965045,198.58147 54.312852,199.21726 50.395256,196.27652 C 45.281929,192.92495 45.557174,184.06625 51.018481,181.17664 C 56.182652,176.69629 63.61154,176.43103 70.022374,177.42921 C 74.843654,180.12338 80.231884,177.79308 85.063163,179.41797 C 89.028233,181.14236 83.715191,185.42183 88.514618,186.23739 z"
           style="fill:#bfbfbf;fill-opacity:1;fill-rule:evenodd;stroke:#595959;stroke-width:1px;stroke-linecap:butt;stroke-linejoin:miter;stroke-opacity:1" />
      </g>
      <path
         style="fill:none;fill-rule:evenodd;stroke:#000000;stroke-width:2;stroke-linecap:butt;stroke-linejoin:miter;stroke-miterlimit:4;stroke-dasharray:none;stroke-opacity:1"
         d="M 150.41842,36.321712 L 192.56128,209.89314"
         id="path3241"
         sodipodi:nodetypes="cc" />
      <path
         style="fill:none;fill-rule:evenodd;stroke:#000000;stroke-width:2;stroke-linecap:butt;stroke-linejoin:miter;stroke-miterlimit:4;stroke-dasharray:none;stroke-opacity:1"
         d="M 193.27556,209.38806 L 273.98985,36.530921"
         id="path3243"
         sodipodi:nodetypes="cc" />
      <path
         sodipodi:type="arc"
         style="opacity:1;fill:none;fill-opacity:0.65425535;fill-rule:nonzero;stroke:#000000;stroke-width:1;stroke-linecap:round;stroke-linejoin:miter;stroke-miterlimit:4;stroke-dasharray:none;stroke-dashoffset:0;stroke-opacity:1"
         id="path3245"
         sodipodi:cx="155.56349"
         sodipodi:cy="33.95689"
         sodipodi:rx="23.233509"
         sodipodi:ry="23.233509"
         d="M 178.797,33.95689 A 23.233509,23.233509 0 0 1 161.82794,56.329923"
         sodipodi:start="0"
         sodipodi:end="1.2977876"
         sodipodi:open="true"
         transform="translate(-6.0609152,2.2728433)" />
      <path
         sodipodi:type="arc"
         style="opacity:1;fill:none;fill-opacity:0.65425535;fill-rule:nonzero;stroke:#000000;stroke-width:1;stroke-linecap:round;stroke-linejoin:miter;stroke-miterlimit:4;stroke-dasharray:none;stroke-dashoffset:0;stroke-opacity:1"
         id="path3247"
         sodipodi:cx="155.56349"
         sodipodi:cy="33.95689"
         sodipodi:rx="23.233509"
         sodipodi:ry="23.233509"
         d="M 178.797,33.95689 A 23.233509,23.233509 0 0 1 165.53186,54.943255"
         sodipodi:start="0"
         sodipodi:end="1.1273539"
         sodipodi:open="true"
         transform="matrix(-1,0,0,1,428.40645,2.9556183)" />
      <g
         transform="matrix(0.6144741,0,0,0.6144741,65.145023,11.827843)"
         id="g4787">
        <g
           id="g4858"
           transform="matrix(2.7100737,0,0,2.7100737,-700.02358,-467.31585)">
          <g
             word-spacing="normal"
             letter-spacing="normal"
             font-size-adjust="none"
             font-stretch="normal"
             font-weight="normal"
             font-variant="normal"
             font-style="normal"
             fill-rule="even-odd"
             stroke-miterlimit="10.433"
             xml:space="preserve"
             transform="matrix(0.3061225,0,0,-0.3061225,-53.57143,308.47659)"
             id="g4860"
             style="font-style:normal;font-variant:normal;font-weight:normal;font-stretch:normal;letter-spacing:normal;word-spacing:normal;text-anchor:start;fill:none;fill-opacity:1;stroke:#000000;stroke-linecap:butt;stroke-linejoin:miter;stroke-miterlimit:10.43299961;stroke-dasharray:none;stroke-dashoffset:0;stroke-opacity:1"><path
               id="path4862"
               d="M 1250.7,370.91 L 1250.7,371.22 L 1250.6,371.56 L 1250.6,371.92 L 1250.6,372.29 L 1250.6,372.67 L 1250.5,373.07 L 1250.5,373.48 L 1250.4,373.89 L 1250.4,374.31 L 1250.3,374.73 L 1250.2,375.16 L 1250.1,375.58 L 1250,376.01 L 1249.9,376.43 L 1249.7,376.84 L 1249.6,377.24 L 1249.4,377.64 L 1249.2,378.03 L 1249,378.4 L 1248.8,378.75 L 1248.6,379.09 L 1248.3,379.41 L 1248.1,379.71 L 1247.8,379.98 L 1247.5,380.23 L 1247.3,380.35 L 1247.1,380.46 L 1247,380.56 L 1246.8,380.65 L 1246.6,380.74 L 1246.4,380.81 L 1246.2,380.88 L 1246,380.94 L 1245.8,381 L 1245.6,381.04 L 1245.4,381.07 L 1245.2,381.1 L 1244.9,381.11 L 1244.7,381.12 L 1244.6,380.02 C 1247.1,380.02 1247.4,376.84 1247.4,374 C 1247.4,371.55 1247,369.01 1245.8,364.08 L 1235.4,364.08 C 1236.2,367.27 1237.2,371.25 1239.2,374.79 C 1240.6,377.23 1242.4,380.02 1244.6,380.02 L 1244.7,381.12 C 1237.8,381.12 1230.1,367.07 1230.1,355.66 C 1230.1,350.98 1231.5,345.45 1236.1,345.45 L 1236.1,346.55 C 1234.4,346.55 1233.4,347.99 1233.4,352.62 C 1233.4,354.72 1233.7,357.61 1235,362.49 L 1245.3,362.49 C 1244.8,360.2 1243.7,355.96 1241.8,352.38 C 1240.1,348.99 1238.2,346.55 1236.1,346.55 L 1236.1,345.45 C 1243.1,345.45 1250.7,359.75 1250.7,370.91 z"
               style="fill:#000000;stroke-width:0" /></g>        </g>
        <text
           xml:space="preserve"
           style="font-size:15.53173733px;font-style:normal;font-variant:normal;font-weight:normal;font-stretch:normal;text-align:start;line-height:100%;writing-mode:lr-tb;text-anchor:start;fill:#000000;fill-opacity:1;stroke:none;stroke-width:1px;stroke-linecap:butt;stroke-linejoin:miter;stroke-opacity:1;font-family:Sans;-inkscape-font-specification:Sans"
           x="189.0874"
           y="86.511421"
           id="text4783"
           sodipodi:linespacing="100%"><tspan
             sodipodi:role="line"
             id="tspan4785"
             x="189.0874"
             y="86.511421">1</tspan></text>
      </g>
      <g
         transform="matrix(0.6144741,0,0,0.6144741,124.44004,11.827843)"
         id="g4794">
        <g
           id="g4796"
           transform="matrix(2.7100737,0,0,2.7100737,-700.02358,-467.31585)">
          <g
             word-spacing="normal"
             letter-spacing="normal"
             font-size-adjust="none"
             font-stretch="normal"
             font-weight="normal"
             font-variant="normal"
             font-style="normal"
             fill-rule="even-odd"
             stroke-miterlimit="10.433"
             xml:space="preserve"
             transform="matrix(0.3061225,0,0,-0.3061225,-53.57143,308.47659)"
             id="g4798"
             style="font-style:normal;font-variant:normal;font-weight:normal;font-stretch:normal;letter-spacing:normal;word-spacing:normal;text-anchor:start;fill:none;fill-opacity:1;stroke:#000000;stroke-linecap:butt;stroke-linejoin:miter;stroke-miterlimit:10.43299961;stroke-dasharray:none;stroke-dashoffset:0;stroke-opacity:1"><path
               id="path4800"
               d="M 1250.7,370.91 L 1250.7,371.22 L 1250.6,371.56 L 1250.6,371.92 L 1250.6,372.29 L 1250.6,372.67 L 1250.5,373.07 L 1250.5,373.48 L 1250.4,373.89 L 1250.4,374.31 L 1250.3,374.73 L 1250.2,375.16 L 1250.1,375.58 L 1250,376.01 L 1249.9,376.43 L 1249.7,376.84 L 1249.6,377.24 L 1249.4,377.64 L 1249.2,378.03 L 1249,378.4 L 1248.8,378.75 L 1248.6,379.09 L 1248.3,379.41 L 1248.1,379.71 L 1247.8,379.98 L 1247.5,380.23 L 1247.3,380.35 L 1247.1,380.46 L 1247,380.56 L 1246.8,380.65 L 1246.6,380.74 L 1246.4,380.81 L 1246.2,380.88 L 1246,380.94 L 1245.8,381 L 1245.6,381.04 L 1245.4,381.07 L 1245.2,381.1 L 1244.9,381.11 L 1244.7,381.12 L 1244.6,380.02 C 1247.1,380.02 1247.4,376.84 1247.4,374 C 1247.4,371.55 1247,369.01 1245.8,364.08 L 1235.4,364.08 C 1236.2,367.27 1237.2,371.25 1239.2,374.79 C 1240.6,377.23 1242.4,380.02 1244.6,380.02 L 1244.7,381.12 C 1237.8,381.12 1230.1,367.07 1230.1,355.66 C 1230.1,350.98 1231.5,345.45 1236.1,345.45 L 1236.1,346.55 C 1234.4,346.55 1233.4,347.99 1233.4,352.62 C 1233.4,354.72 1233.7,357.61 1235,362.49 L 1245.3,362.49 C 1244.8,360.2 1243.7,355.96 1241.8,352.38 C 1240.1,348.99 1238.2,346.55 1236.1,346.55 L 1236.1,345.45 C 1243.1,345.45 1250.7,359.75 1250.7,370.91 z"
               style="fill:#000000;stroke-width:0" /></g>        </g>
        <text
           xml:space="preserve"
           style="font-size:15.53173733px;font-style:normal;font-variant:normal;font-weight:normal;font-stretch:normal;text-align:start;line-height:100%;writing-mode:lr-tb;text-anchor:start;fill:#000000;fill-opacity:1;stroke:none;stroke-width:1px;stroke-linecap:butt;stroke-linejoin:miter;stroke-opacity:1;font-family:Sans;-inkscape-font-specification:Sans"
           x="189.0874"
           y="86.511421"
           id="text4802"
           sodipodi:linespacing="100%"><tspan
             sodipodi:role="line"
             id="tspan4804"
             x="189.0874"
             y="86.511421">2</tspan></text>
      </g>
    </g>
  </g>
</svg>
