<?xml version="1.0" encoding="UTF-8" standalone="no"?>
<!-- Created with Inkscape (http://www.inkscape.org/) -->
<svg
   xmlns:dc="http://purl.org/dc/elements/1.1/"
   xmlns:cc="http://creativecommons.org/ns#"
   xmlns:rdf="http://www.w3.org/1999/02/22-rdf-syntax-ns#"
   xmlns:svg="http://www.w3.org/2000/svg"
   xmlns="http://www.w3.org/2000/svg"
   xmlns:sodipodi="http://sodipodi.sourceforge.net/DTD/sodipodi-0.dtd"
   xmlns:inkscape="http://www.inkscape.org/namespaces/inkscape"
   width="294.43039"
   height="409.50772"
   id="svg2"
   sodipodi:version="0.32"
   inkscape:version="0.46"
   sodipodi:docname="pez.svg"
   version="1.0"
   inkscape:output_extension="org.inkscape.output.svg.inkscape">
  <sodipodi:namedview
     id="base"
     pagecolor="#ffffff"
     bordercolor="#666666"
     borderopacity="1.0"
     inkscape:pageopacity="0.0"
     inkscape:pageshadow="2"
     inkscape:zoom="0.98994949"
     inkscape:cx="217.18948"
     inkscape:cy="187.51578"
     inkscape:document-units="px"
     inkscape:current-layer="layer1"
     showgrid="false"
     inkscape:window-width="977"
     inkscape:window-height="712"
     inkscape:window-x="5"
     inkscape:window-y="41" />
  <defs
     id="defs4">
    <marker
       inkscape:stockid="Arrow1Lstart"
       orient="auto"
       refY="0"
       refX="0"
       id="Arrow1Lstart"
       style="overflow:visible">
      <path
         id="path3162"
         d="M 0,0 L 5,-5 L -12.5,0 L 5,5 L 0,0 z"
         style="fill-rule:evenodd;stroke:#000000;stroke-width:1pt;marker-start:none"
         transform="matrix(0.8,0,0,0.8,10,0)" />
    </marker>
    <marker
       style="overflow:visible"
       id="Arrow1Lend"
       refX="0"
       refY="0"
       orient="auto"
       inkscape:stockid="Arrow1Lend">
      <path
         transform="matrix(-0.8,0,0,-0.8,-10,0)"
         style="fill-rule:evenodd;stroke:#000000;stroke-width:1pt;marker-start:none"
         d="M 0,0 L 5,-5 L -12.5,0 L 5,5 L 0,0 z"
         id="path3165" />
    </marker>
    <inkscape:perspective
       id="perspective10"
       inkscape:persp3d-origin="372.04724 : 350.78739 : 1"
       inkscape:vp_z="744.09448 : 526.18109 : 1"
       inkscape:vp_y="0 : 1000 : 0"
       inkscape:vp_x="0 : 526.18109 : 1"
       sodipodi:type="inkscape:persp3d" />
  </defs>
  <metadata
     id="metadata7">
    <rdf:RDF>
      <cc:Work
         rdf:about="">
        <dc:format>image/svg+xml</dc:format>
        <dc:type
           rdf:resource="http://purl.org/dc/dcmitype/StillImage" />
      </cc:Work>
    </rdf:RDF>
  </metadata>
  <g
     transform="translate(-0.1722262,-164.94314)"
     id="layer1"
     inkscape:groupmode="layer"
     inkscape:label="Calque 1">
    <text
       sodipodi:linespacing="100%"
       id="text3937"
       y="481.62598"
       x="220.21326"
       style="font-size:18px;font-style:normal;font-variant:normal;font-weight:normal;font-stretch:normal;text-align:start;line-height:100%;writing-mode:lr-tb;text-anchor:start;fill:#000000;fill-opacity:1;stroke:none;stroke-width:1px;stroke-linecap:butt;stroke-linejoin:miter;stroke-opacity:1;font-family:Sans;-inkscape-font-specification:Sans"
       xml:space="preserve"><tspan
         y="481.62598"
         x="220.21326"
         id="tspan3939"
         sodipodi:role="line" /></text>
    <g
       id="g4748">
      <g
         id="g4644">
        <rect
           y="227.43546"
           x="80.316895"
           height="313.49814"
           width="214.28572"
           id="rect2383"
           style="opacity:1;fill:#b5aeff;fill-opacity:1;fill-rule:nonzero;stroke:none;stroke-width:1.5;stroke-linecap:round;stroke-linejoin:miter;stroke-miterlimit:4;stroke-dasharray:none;stroke-dashoffset:0;stroke-opacity:1" />
        <path
           id="path3157"
           d="M 144.45181,500.81889 L 261.79009,433.07361"
           style="fill:none;fill-rule:evenodd;stroke:#000000;stroke-width:1px;stroke-linecap:butt;stroke-linejoin:miter;marker-end:url(#Arrow1Lend);stroke-opacity:1" />
        <g
           id="g3953"
           transform="translate(-878.83271,92.934034)">
          <g
             word-spacing="normal"
             letter-spacing="normal"
             font-size-adjust="none"
             font-stretch="normal"
             font-weight="normal"
             font-variant="normal"
             font-style="normal"
             fill-rule="even-odd"
             stroke-miterlimit="10.433"
             xml:space="preserve"
             transform="matrix(1.0629921,0,0,-1.0629921,-186.02362,789.27165)"
             id="content"
             style="font-style:normal;font-variant:normal;font-weight:normal;font-stretch:normal;letter-spacing:normal;word-spacing:normal;text-anchor:start;fill:none;fill-opacity:1;stroke:#000000;stroke-linecap:butt;stroke-linejoin:miter;stroke-miterlimit:10.43299961;stroke-dasharray:none;stroke-dashoffset:0;stroke-opacity:1"><path
               id="path3956"
               d="M 1213.3,364.53 L 1213.3,364.66 L 1213.3,364.78 L 1213.3,364.9 L 1213.3,365.01 L 1213.3,365.13 L 1213.3,365.24 L 1213.3,365.35 L 1213.3,365.45 L 1213.2,365.66 L 1213.2,365.85 L 1213.1,366.03 L 1213.1,366.21 L 1213,366.37 L 1213,366.53 L 1212.9,366.68 L 1212.9,366.81 L 1212.8,366.94 L 1212.7,367.06 L 1212.6,367.18 L 1212.6,367.28 L 1212.5,367.38 L 1212.4,367.47 L 1212.3,367.55 L 1212.2,367.62 L 1212.1,367.69 L 1212,367.75 L 1211.9,367.8 L 1211.8,367.85 L 1211.7,367.89 L 1211.7,367.92 L 1211.6,367.95 L 1211.5,367.98 L 1211.4,367.99 L 1211.3,368.01 L 1211.2,368.01 L 1211.1,368.02 C 1209.9,368.02 1208.7,366.72 1208.7,365.62 C 1208.7,364.98 1208.9,364.68 1209.5,364.13 C 1210.5,363.14 1211.2,361.84 1211.2,360.05 C 1211.2,357.96 1208.1,346.55 1202.3,346.55 C 1199.8,346.55 1198.6,348.29 1198.6,350.88 C 1198.6,353.67 1200,357.31 1201.5,361.44 C 1201.9,362.29 1202.1,362.98 1202.1,363.93 C 1202.1,366.18 1200.5,368.02 1198,368.02 C 1193.3,368.02 1191.4,360.79 1191.4,360.35 C 1191.4,359.85 1191.9,359.85 1192,359.85 C 1192.5,359.85 1192.6,359.95 1192.8,360.75 C 1194.3,365.78 1196.4,366.92 1197.9,366.92 C 1198.3,366.92 1199.1,366.92 1199.1,365.33 C 1199.1,364.08 1198.6,362.74 1198.3,361.84 C 1196.1,356.06 1195.4,353.77 1195.4,351.63 C 1195.4,346.25 1199.8,345.45 1202.1,345.45 C 1210.5,345.45 1213.3,361.94 1213.3,364.53 z"
               style="fill:#000000;stroke-width:0" /><g
               id="g3980"
               transform="matrix(0.7173358,0,0,0.7173358,342.1252,94.52413)"><path
                 style="fill:#000000;stroke-width:0"
                 d="M 1222.7,341.94 L 1223.4,342.59 C 1222.7,343.63 1222.7,343.68 1222.7,344.68 L 1222.7,355.79 C 1224.2,358.33 1226.6,359.77 1229.1,359.77 C 1232.8,359.77 1235.8,355.39 1235.8,349.76 C 1235.8,343.73 1232.3,339.55 1228.6,339.55 C 1226.7,339.55 1224.8,340.54 1223.4,342.59 L 1222.7,341.94 C 1223,341.14 1225.1,338.45 1228.8,338.45 C 1234.8,338.45 1239.9,343.33 1239.9,349.76 C 1239.9,356.09 1235.1,361.02 1229.5,361.02 C 1225.7,361.02 1223.6,358.82 1222.6,357.73 L 1222.6,361.02 L 1215.4,360.47 L 1215.4,358.93 C 1218.9,358.93 1219.3,358.62 1219.3,356.43 L 1219.3,333.12 C 1219.3,330.88 1218.7,330.88 1215.4,330.88 L 1215.4,329.34 L 1226.6,329.34 L 1226.6,330.88 C 1223.3,330.88 1222.7,330.88 1222.7,333.12 L 1222.7,341.49 L 1222.7,341.94 z"
                 id="path3958" /><path
                 style="fill:#000000;stroke-width:0"
                 d="M 1262.4,350.51 L 1262.5,350.51 L 1262.5,350.51 L 1262.6,350.51 L 1262.6,350.51 L 1262.7,350.51 L 1262.7,350.51 L 1262.8,350.51 L 1262.8,350.51 L 1262.8,350.51 L 1262.9,350.51 L 1262.9,350.51 L 1262.9,350.51 L 1263,350.52 L 1263.1,350.52 L 1263.1,350.53 L 1263.2,350.54 L 1263.3,350.55 L 1263.3,350.56 L 1263.3,350.58 L 1263.4,350.6 L 1263.4,350.62 L 1263.5,350.64 L 1263.5,350.66 L 1263.5,350.69 L 1263.5,350.73 L 1263.6,350.76 L 1263.6,350.8 L 1263.6,350.85 L 1263.6,350.87 L 1263.6,350.9 L 1263.6,350.92 L 1263.6,350.95 L 1263.6,350.98 L 1263.6,351.01 L 1263.6,351.04 L 1263.6,351.07 L 1263.7,351.1 L 1263.7,351.14 L 1263.7,351.17 L 1263.7,351.21 L 1263.7,351.25 L 1263.7,351.29 L 1263.7,351.33 L 1263.7,351.37 L 1263.7,351.41 L 1263.7,351.46 L 1263.7,351.51 L 1263.7,351.55 C 1263.7,356.48 1261,361.32 1254.8,361.32 C 1249,361.32 1244.4,356.18 1244.4,349.96 C 1244.4,343.29 1249.6,338.45 1255.4,338.45 C 1261.4,338.45 1263.7,343.98 1263.7,344.93 C 1263.7,345.43 1263.3,345.53 1263,345.53 C 1262.6,345.53 1262.5,345.23 1262.4,344.83 C 1260.6,339.7 1256.2,339.7 1255.7,339.7 C 1253.2,339.7 1251.2,341.19 1250,343.04 C 1248.5,345.43 1248.5,348.71 1248.5,350.51 L 1248.6,351.55 C 1248.9,358.98 1253.1,360.22 1254.8,360.22 C 1259.9,360.22 1260.4,353.5 1260.4,351.55 L 1248.6,351.55 L 1248.5,350.51 L 1262.4,350.51 z"
                 id="path3960" /><path
                 style="fill:#000000;stroke-width:0"
                 d="M 1285.4,358.98 L 1285.5,359 L 1285.5,359.03 L 1285.5,359.05 L 1285.5,359.07 L 1285.5,359.1 L 1285.5,359.12 L 1285.6,359.14 L 1285.6,359.16 L 1285.6,359.18 L 1285.6,359.2 L 1285.6,359.22 L 1285.6,359.24 L 1285.7,359.26 L 1285.7,359.28 L 1285.7,359.31 L 1285.7,359.34 L 1285.7,359.37 L 1285.8,359.4 L 1285.8,359.43 L 1285.8,359.46 L 1285.8,359.48 L 1285.8,359.51 L 1285.8,359.53 L 1285.8,359.55 L 1285.8,359.57 L 1285.8,359.59 L 1285.9,359.61 L 1285.9,359.63 L 1285.9,359.65 L 1285.9,359.66 L 1285.9,359.68 L 1285.9,359.72 L 1285.9,359.75 L 1285.9,359.78 L 1285.9,359.82 C 1285.9,360.47 1285.5,360.47 1284.6,360.47 L 1268.6,360.47 L 1268.1,352.45 L 1269.3,352.45 C 1269.6,357.53 1270.6,359.38 1276.1,359.38 L 1281.7,359.38 L 1267.8,340.59 C 1267.4,340.05 1267.4,339.95 1267.4,339.7 C 1267.4,339 1267.7,339 1268.7,339 L 1285.1,339 L 1286,348.32 L 1284.7,348.32 C 1284.3,342.44 1283.2,340.25 1277.5,340.25 L 1271.6,340.25 L 1285.4,358.98 z"
                 id="path3962" /></g></g>        </g>
        <path
           id="path3985"
           d="M 151.52697,269.90289 L 151.52698,345.39347"
           style="fill:none;fill-rule:evenodd;stroke:#000000;stroke-width:1px;stroke-linecap:butt;stroke-linejoin:miter;marker-end:url(#Arrow1Lend);stroke-opacity:1"
           sodipodi:nodetypes="cc" />
        <path
           id="path5955"
           d="M 139.45976,501.339 L 139.45975,429.84842"
           style="fill:none;fill-rule:evenodd;stroke:#000000;stroke-width:1px;stroke-linecap:butt;stroke-linejoin:miter;marker-end:url(#Arrow1Lend);stroke-opacity:1"
           sodipodi:nodetypes="cc" />
      </g>
      <g
         transform="translate(-210,85.714286)"
         id="g4065">
        <g
           id="g4662">
          <path
             style="font-style:normal;font-variant:normal;font-weight:normal;font-stretch:normal;letter-spacing:normal;word-spacing:normal;text-anchor:start;fill:#000000;fill-opacity:1;stroke:#000000;stroke-width:0;stroke-linecap:butt;stroke-linejoin:miter;stroke-miterlimit:10.43299961;stroke-dasharray:none;stroke-dashoffset:0;stroke-opacity:1"
             d="M 411.24326,200.82006 L 411.24326,200.68187 L 411.24326,200.55431 L 411.24326,200.42675 L 411.24326,200.30982 L 411.24326,200.18226 L 411.24326,200.06534 L 411.24326,199.94841 L 411.24326,199.84211 L 411.13696,199.61888 L 411.13696,199.41691 L 411.03066,199.22557 L 411.03066,199.03423 L 410.92436,198.86415 L 410.92436,198.69408 L 410.81806,198.53463 L 410.81806,198.39644 L 410.71177,198.25825 L 410.60547,198.13069 L 410.49917,198.00313 L 410.49917,197.89683 L 410.39287,197.79053 L 410.28657,197.69486 L 410.18027,197.60982 L 410.07397,197.53541 L 409.96767,197.461 L 409.86137,197.39723 L 409.75507,197.34408 L 409.64877,197.29093 L 409.54247,197.24841 L 409.54247,197.21652 L 409.43618,197.18463 L 409.32988,197.15274 L 409.22358,197.14211 L 409.11728,197.12085 L 409.01098,197.12085 L 408.90468,197.11022 C 407.62909,197.11022 406.3535,198.49211 406.3535,199.6614 C 406.3535,200.34171 406.5661,200.66061 407.20389,201.24526 C 408.26688,202.29762 409.01098,203.67951 409.01098,205.58226 C 409.01098,207.80392 405.7157,219.93266 399.55035,219.93266 C 396.89287,219.93266 395.61728,218.08305 395.61728,215.3299 C 395.61728,212.36415 397.10547,208.49486 398.69995,204.10471 C 399.12515,203.20116 399.33775,202.4677 399.33775,201.45786 C 399.33775,199.06612 397.63696,197.11022 394.97948,197.11022 C 389.98342,197.11022 387.96373,204.79565 387.96373,205.26337 C 387.96373,205.79486 388.49523,205.79486 388.60153,205.79486 C 389.13303,205.79486 389.23933,205.68856 389.45192,204.83817 C 391.04641,199.49132 393.2787,198.27951 394.87318,198.27951 C 395.29838,198.27951 396.14877,198.27951 396.14877,199.96967 C 396.14877,201.29841 395.61728,202.72282 395.29838,203.67951 C 392.9598,209.8236 392.2157,212.25785 392.2157,214.53266 C 392.2157,220.25156 396.89287,221.10195 399.33775,221.10195 C 408.26688,221.10195 411.24326,203.57321 411.24326,200.82006 z"
             id="path4069" />
          <g
             style="font-style:normal;font-variant:normal;font-weight:normal;font-stretch:normal;letter-spacing:normal;word-spacing:normal;text-anchor:start;fill-opacity:1;stroke:#000000;stroke-linecap:butt;stroke-linejoin:miter;stroke-miterlimit:10.43299961;stroke-dasharray:none;stroke-dashoffset:0;stroke-opacity:1"
             transform="matrix(0.8166875,0,0,-0.8166875,-586.73043,503.42095)"
             id="g4109">
            <path
               id="path4071"
               d="M 1230.6,332.89 L 1230.6,340.55 C 1230.6,345.49 1232.7,349.92 1236.4,349.92 C 1236.8,349.92 1236.9,349.92 1237,349.87 C 1236.8,349.82 1235.8,349.22 1235.8,347.93 C 1235.8,346.54 1236.9,345.79 1238,345.79 C 1238.9,345.79 1240.1,346.38 1240.1,347.98 C 1240.1,349.57 1238.6,351.02 1236.4,351.02 C 1232.8,351.02 1231,347.68 1230.3,345.54 L 1230.3,351.02 L 1223.4,350.47 L 1223.4,348.93 C 1226.9,348.93 1227.3,348.58 1227.3,346.14 L 1227.3,332.79 C 1227.3,330.54 1226.7,330.54 1223.4,330.54 L 1223.4,329 L 1235.4,329 L 1235.4,330.54 L 1234.4,330.54 C 1230.7,330.54 1230.6,331.09 1230.6,332.89 z"
               style="fill:#000000;stroke-width:0" />
            <path
               id="path4073"
               d="M 1254.7,360.48 L 1254.8,360.55 L 1254.8,360.62 L 1254.9,360.7 L 1255,360.78 L 1255.1,360.86 L 1255.1,360.91 L 1255.1,360.95 L 1255.2,361 L 1255.2,361.04 L 1255.2,361.09 L 1255.3,361.14 L 1255.3,361.18 L 1255.3,361.23 L 1255.4,361.28 L 1255.4,361.33 L 1255.4,361.38 L 1255.4,361.44 L 1255.4,361.49 L 1255.5,361.54 L 1255.5,361.59 L 1255.5,361.65 L 1255.5,361.7 L 1255.5,361.76 L 1255.5,361.81 L 1255.5,361.87 L 1255.5,361.92 L 1255.5,361.98 C 1255.5,362.87 1254.6,363.77 1253.7,363.77 C 1253,363.77 1252.4,363.22 1252.2,362.92 L 1246.3,355.3 L 1247.1,354.41 L 1254.7,360.48 z"
               style="fill:#000000;stroke-width:0" />
            <path
               id="path4075"
               d="M 1250.8,351.02 L 1243.8,350.47 L 1243.8,348.93 C 1247.1,348.93 1247.5,348.62 1247.5,346.18 L 1247.5,332.79 C 1247.5,330.54 1247,330.54 1243.6,330.54 L 1243.6,329 L 1254.3,329 L 1254.3,330.54 C 1251,330.54 1250.8,330.79 1250.8,332.73 L 1250.8,351.02 z"
               style="fill:#000000;stroke-width:0" />
            <path
               id="path4077"
               d="M 1278.5,339.66 L 1278.4,340.25 L 1278.4,340.84 L 1278.3,341.42 L 1278.2,341.99 L 1278.1,342.55 L 1278,343.1 L 1277.8,343.64 L 1277.6,344.17 L 1277.4,344.69 L 1277.1,345.19 L 1276.9,345.68 L 1276.6,346.15 L 1276.3,346.61 L 1275.9,347.05 L 1275.6,347.47 L 1275.2,347.88 L 1274.8,348.27 L 1274.4,348.63 L 1274,348.98 L 1273.6,349.31 L 1273.1,349.61 L 1272.7,349.9 L 1272.2,350.16 L 1271.7,350.39 L 1271.2,350.6 L 1270.7,350.79 L 1270.2,350.95 L 1269.7,351.08 L 1269.1,351.18 L 1268.6,351.26 L 1268,351.3 L 1267.4,351.32 L 1267.4,350.22 C 1269.6,350.22 1271.7,349.12 1273,346.98 C 1274.3,344.84 1274.3,341.95 1274.3,340.06 C 1274.3,338.27 1274.3,335.57 1273.2,333.38 C 1272.1,331.14 1269.9,329.7 1267.4,329.7 L 1267.4,329.7 C 1265.3,329.7 1263.1,330.74 1261.8,333.04 C 1260.5,335.23 1260.5,338.27 1260.5,340.06 C 1260.5,342 1260.5,344.69 1261.7,346.88 C 1263.1,349.18 1265.4,350.22 1267.4,350.22 L 1267.4,351.32 C 1261.2,351.32 1256.4,345.89 1256.4,339.66 C 1256.4,333.23 1261.6,328.45 1267.4,328.45 C 1273.4,328.45 1278.5,333.33 1278.5,339.66 z"
               style="fill:#000000;stroke-width:0" />
          </g>
        </g>
        <path
           sodipodi:nodetypes="cc"
           id="path4127"
           d="M 353.44167,488.23658 L 353.44167,79.72885"
           style="fill:none;fill-rule:evenodd;stroke:#000000;stroke-width:1px;stroke-linecap:butt;stroke-linejoin:miter;marker-end:url(#Arrow1Lend);stroke-opacity:1" />
        <path
           transform="translate(210,-85.714286)"
           id="path4670"
           d="M 264.65997,430.10821 L 143.44166,430.10821"
           style="fill:none;fill-rule:evenodd;stroke:#000000;stroke-width:1;stroke-linecap:butt;stroke-linejoin:miter;stroke-miterlimit:4;stroke-dasharray:3, 3;stroke-dashoffset:0;stroke-opacity:1" />
        <g
           id="g4705"
           transform="translate(-813.54045,-29.579778)">
          <g
             word-spacing="normal"
             letter-spacing="normal"
             font-size-adjust="none"
             font-stretch="normal"
             font-weight="normal"
             font-variant="normal"
             font-style="normal"
             fill-rule="even-odd"
             stroke-miterlimit="10.433"
             xml:space="preserve"
             transform="matrix(1.0629921,0,0,-1.0629921,-186.02362,789.27165)"
             id="g4707"
             style="font-style:normal;font-variant:normal;font-weight:normal;font-stretch:normal;letter-spacing:normal;word-spacing:normal;text-anchor:start;fill:none;fill-opacity:1;stroke:#000000;stroke-linecap:butt;stroke-linejoin:miter;stroke-miterlimit:10.43299961;stroke-dasharray:none;stroke-dashoffset:0;stroke-opacity:1"><path
               id="path4709"
               d="M 1238.3,364.53 L 1238.3,364.66 L 1238.3,364.78 L 1238.3,364.9 L 1238.3,365.01 L 1238.3,365.13 L 1238.3,365.24 L 1238.3,365.35 L 1238.3,365.45 L 1238.2,365.66 L 1238.2,365.85 L 1238.1,366.03 L 1238.1,366.21 L 1238,366.37 L 1238,366.53 L 1237.9,366.68 L 1237.9,366.81 L 1237.8,366.94 L 1237.7,367.06 L 1237.6,367.18 L 1237.6,367.28 L 1237.5,367.38 L 1237.4,367.47 L 1237.3,367.55 L 1237.2,367.62 L 1237.1,367.69 L 1237,367.75 L 1236.9,367.8 L 1236.8,367.85 L 1236.7,367.89 L 1236.7,367.92 L 1236.6,367.95 L 1236.5,367.98 L 1236.4,367.99 L 1236.3,368.01 L 1236.2,368.01 L 1236.1,368.02 C 1234.9,368.02 1233.7,366.72 1233.7,365.62 C 1233.7,364.98 1233.9,364.68 1234.5,364.13 C 1235.5,363.14 1236.2,361.84 1236.2,360.05 C 1236.2,357.96 1233.1,346.55 1227.3,346.55 C 1224.8,346.55 1223.6,348.29 1223.6,350.88 C 1223.6,353.67 1225,357.31 1226.5,361.44 C 1226.9,362.29 1227.1,362.98 1227.1,363.93 C 1227.1,366.18 1225.5,368.02 1223,368.02 C 1218.3,368.02 1216.4,360.79 1216.4,360.35 C 1216.4,359.85 1216.9,359.85 1217,359.85 C 1217.5,359.85 1217.6,359.95 1217.8,360.75 C 1219.3,365.78 1221.4,366.92 1222.9,366.92 C 1223.3,366.92 1224.1,366.92 1224.1,365.33 C 1224.1,364.08 1223.6,362.74 1223.3,361.84 C 1221.1,356.06 1220.4,353.77 1220.4,351.63 C 1220.4,346.25 1224.8,345.45 1227.1,345.45 C 1235.5,345.45 1238.3,361.94 1238.3,364.53 z"
               style="fill:#000000;stroke-width:0" /><path
               id="path4711"
               d="M 1248.7,342.7 L 1248.6,342.58 L 1248.6,342.47 L 1248.6,342.35 L 1248.5,342.22 L 1248.5,342.1 L 1248.4,341.97 L 1248.3,341.85 L 1248.3,341.72 L 1248.2,341.59 L 1248.1,341.46 L 1248,341.33 L 1248,341.21 L 1247.9,341.08 L 1247.8,340.96 L 1247.7,340.84 L 1247.6,340.72 L 1247.5,340.6 L 1247.4,340.49 L 1247.2,340.39 L 1247.1,340.29 L 1247,340.19 L 1246.9,340.1 L 1246.8,340.02 L 1246.6,339.94 L 1246.5,339.87 L 1246.3,339.81 L 1246.2,339.76 L 1246,339.71 L 1245.9,339.68 L 1245.7,339.65 L 1245.6,339.63 L 1245.4,339.63 C 1245.3,339.63 1244.2,339.63 1243.5,340.12 C 1244.9,340.57 1245.1,341.82 1245.1,342.04 C 1245.1,342.8 1244.5,343.32 1243.7,343.32 C 1242.7,343.32 1241.7,342.49 1241.7,341.2 C 1241.7,339.45 1243.6,338.65 1245.3,338.65 C 1246.9,338.65 1248.4,339.66 1249.2,341.13 C 1250.1,339.28 1252,338.65 1253.4,338.65 C 1257.4,338.65 1259.5,343.01 1259.5,343.98 C 1259.5,344.44 1259.1,344.44 1259,344.44 C 1258.5,344.44 1258.4,344.27 1258.3,343.85 C 1257.6,341.44 1255.5,339.63 1253.5,339.63 C 1252.1,339.63 1251.4,340.57 1251.4,341.89 C 1251.4,342.8 1252.2,345.97 1253.2,349.84 C 1253.9,352.53 1255.5,353.4 1256.6,353.4 C 1256.7,353.4 1257.8,353.4 1258.5,352.91 C 1257.4,352.6 1257,351.62 1257,351 C 1257,350.23 1257.6,349.7 1258.4,349.7 C 1259.2,349.7 1260.3,350.37 1260.3,351.83 C 1260.3,353.79 1258.1,354.38 1256.7,354.38 C 1255,354.38 1253.6,353.23 1252.8,351.9 C 1252.2,353.33 1250.6,354.38 1248.6,354.38 C 1244.7,354.38 1242.5,350.09 1242.5,349.04 C 1242.5,348.59 1243,348.59 1243.1,348.59 C 1243.5,348.59 1243.6,348.73 1243.7,349.18 C 1244.6,351.9 1246.8,353.4 1248.5,353.4 C 1249.7,353.4 1250.6,352.77 1250.6,351.1 C 1250.6,350.4 1250.2,348.66 1249.9,347.47 L 1248.7,342.7 z"
               style="fill:#000000;stroke-width:0" /></g>        </g>
        <path
           id="path4746"
           d="M 324.73281,109.85019 L 324.62651,109.97775 L 324.62651,110.09468 L 324.62651,110.22224 L 324.52021,110.36043 L 324.52021,110.48799 L 324.41392,110.62618 L 324.30762,110.75374 L 324.30762,110.89192 L 324.20132,111.03011 L 324.09502,111.1683 L 323.98872,111.30649 L 323.98872,111.43405 L 323.88242,111.57224 L 323.77612,111.6998 L 323.66982,111.82736 L 323.56352,111.95492 L 323.45722,112.08248 L 323.35092,112.1994 L 323.13832,112.3057 L 323.03203,112.412 L 322.92573,112.5183 L 322.81943,112.61397 L 322.71313,112.69901 L 322.50053,112.78405 L 322.39423,112.85846 L 322.18163,112.92224 L 322.07533,112.97539 L 321.86273,113.02854 L 321.75643,113.06043 L 321.54384,113.09232 L 321.43754,113.11358 L 321.22494,113.11358 C 321.11864,113.11358 319.94935,113.11358 319.20525,112.59271 C 320.69344,112.11436 320.90604,110.78562 320.90604,110.55177 C 320.90604,109.74389 320.26825,109.19114 319.41785,109.19114 C 318.35486,109.19114 317.29187,110.07342 317.29187,111.44468 C 317.29187,113.30492 319.31155,114.15531 321.11864,114.15531 C 322.81943,114.15531 324.41392,113.08169 325.26431,111.51909 C 326.221,113.48562 328.24069,114.15531 329.72888,114.15531 C 333.98084,114.15531 336.21313,109.52066 336.21313,108.48956 C 336.21313,108.00059 335.78793,108.00059 335.68163,108.00059 C 335.15014,108.00059 335.04384,108.18129 334.93754,108.62775 C 334.19344,111.18956 331.96116,113.11358 329.83517,113.11358 C 328.34699,113.11358 327.60289,112.11436 327.60289,110.71122 C 327.60289,109.74389 328.45329,106.37421 329.51628,102.26043 C 330.26037,99.400981 331.96116,98.476181 333.13045,98.476181 C 333.23675,98.476181 334.40604,98.476181 335.15014,98.997041 C 333.98084,99.326571 333.55565,100.3683 333.55565,101.02736 C 333.55565,101.84586 334.19344,102.40925 335.04384,102.40925 C 335.89423,102.40925 337.06352,101.69704 337.06352,100.14507 C 337.06352,98.061611 334.72494,97.434441 333.23675,97.434441 C 331.42966,97.434441 329.94147,98.656881 329.09108,100.07066 C 328.45329,98.550591 326.7525,97.434441 324.62651,97.434441 C 320.48084,97.434441 318.14226,101.99468 318.14226,103.11082 C 318.14226,103.58917 318.67376,103.58917 318.78006,103.58917 C 319.20525,103.58917 319.31155,103.44035 319.41785,102.962 C 320.37455,100.07066 322.71313,98.476181 324.52021,98.476181 C 325.7958,98.476181 326.7525,99.145861 326.7525,100.92106 C 326.7525,101.66515 326.3273,103.51476 326.0084,104.77972 L 324.73281,109.85019 z"
           style="font-style:normal;font-variant:normal;font-weight:normal;font-stretch:normal;letter-spacing:normal;word-spacing:normal;text-anchor:start;fill:#000000;fill-opacity:1;stroke:#000000;stroke-width:0;stroke-linecap:butt;stroke-linejoin:miter;stroke-miterlimit:10.43299961;stroke-dasharray:none;stroke-dashoffset:0;stroke-opacity:1" />
      </g>
    </g>
    <path
       sodipodi:open="true"
       sodipodi:end="0.97272564"
       sodipodi:start="0"
       transform="matrix(8.5712909e-8,-0.9999999,0.9999999,8.5712909e-8,-175.33644,576.62367)"
       d="M 92.857147,318.80212 A 17.678574,19.285715 0 0 1 85.132478,334.74029"
       sodipodi:ry="19.285715"
       sodipodi:rx="17.678574"
       sodipodi:cy="318.80212"
       sodipodi:cx="75.178574"
       id="path4816"
       style="opacity:1;fill:#b5aeff;fill-opacity:1;fill-rule:nonzero;stroke:#000000;stroke-width:1;stroke-linecap:round;stroke-linejoin:miter;stroke-miterlimit:4;stroke-dasharray:3, 3;stroke-dashoffset:0;stroke-opacity:1"
       sodipodi:type="arc" />
    <g
       id="g4858"
       transform="matrix(2.7100737,0,0,2.7100737,-718.39185,-74.238505)">
      <g
         word-spacing="normal"
         letter-spacing="normal"
         font-size-adjust="none"
         font-stretch="normal"
         font-weight="normal"
         font-variant="normal"
         font-style="normal"
         fill-rule="even-odd"
         stroke-miterlimit="10.433"
         xml:space="preserve"
         transform="matrix(0.3061225,0,0,-0.3061225,-53.57143,308.47659)"
         id="g4860"
         style="font-style:normal;font-variant:normal;font-weight:normal;font-stretch:normal;letter-spacing:normal;word-spacing:normal;text-anchor:start;fill:none;fill-opacity:1;stroke:#000000;stroke-linecap:butt;stroke-linejoin:miter;stroke-miterlimit:10.43299961;stroke-dasharray:none;stroke-dashoffset:0;stroke-opacity:1"><path
           id="path4862"
           d="M 1250.7,370.91 L 1250.7,371.22 L 1250.6,371.56 L 1250.6,371.92 L 1250.6,372.29 L 1250.6,372.67 L 1250.5,373.07 L 1250.5,373.48 L 1250.4,373.89 L 1250.4,374.31 L 1250.3,374.73 L 1250.2,375.16 L 1250.1,375.58 L 1250,376.01 L 1249.9,376.43 L 1249.7,376.84 L 1249.6,377.24 L 1249.4,377.64 L 1249.2,378.03 L 1249,378.4 L 1248.8,378.75 L 1248.6,379.09 L 1248.3,379.41 L 1248.1,379.71 L 1247.8,379.98 L 1247.5,380.23 L 1247.3,380.35 L 1247.1,380.46 L 1247,380.56 L 1246.8,380.65 L 1246.6,380.74 L 1246.4,380.81 L 1246.2,380.88 L 1246,380.94 L 1245.8,381 L 1245.6,381.04 L 1245.4,381.07 L 1245.2,381.1 L 1244.9,381.11 L 1244.7,381.12 L 1244.6,380.02 C 1247.1,380.02 1247.4,376.84 1247.4,374 C 1247.4,371.55 1247,369.01 1245.8,364.08 L 1235.4,364.08 C 1236.2,367.27 1237.2,371.25 1239.2,374.79 C 1240.6,377.23 1242.4,380.02 1244.6,380.02 L 1244.7,381.12 C 1237.8,381.12 1230.1,367.07 1230.1,355.66 C 1230.1,350.98 1231.5,345.45 1236.1,345.45 L 1236.1,346.55 C 1234.4,346.55 1233.4,347.99 1233.4,352.62 C 1233.4,354.72 1233.7,357.61 1235,362.49 L 1245.3,362.49 C 1244.8,360.2 1243.7,355.96 1241.8,352.38 C 1240.1,348.99 1238.2,346.55 1236.1,346.55 L 1236.1,345.45 C 1243.1,345.45 1250.7,359.75 1250.7,370.91 z"
           style="fill:#000000;stroke-width:0" /></g>    </g>
    <path
       style="fill:none;fill-rule:evenodd;stroke:#000000;stroke-width:1px;stroke-linecap:butt;stroke-linejoin:miter;marker-start:url(#Arrow1Lstart);marker-end:url(#Arrow1Lend);stroke-opacity:1"
       d="M 57.459752,234.45085 L 57.459752,517.308"
       id="path4905"
       sodipodi:nodetypes="cc" />
    <text
       xml:space="preserve"
       style="font-size:51.22579193px;font-style:normal;font-variant:normal;font-weight:normal;font-stretch:normal;text-align:start;line-height:100%;writing-mode:lr-tb;text-anchor:start;fill:#000000;fill-opacity:1;stroke:none;stroke-width:1px;stroke-linecap:butt;stroke-linejoin:miter;stroke-opacity:1;font-family:Sans;-inkscape-font-specification:Sans"
       x="-401.65726"
       y="39.091808"
       id="text5951"
       sodipodi:linespacing="100%"
       transform="matrix(-3.6761579e-8,-1,1,-3.6761579e-8,0,0)"><tspan
         sodipodi:role="line"
         id="tspan5953"
         x="-401.65726"
         y="39.091808">d</tspan></text>
  </g>
</svg>
