<?xml version="1.0" encoding="UTF-8" standalone="no"?>
<!-- Created with Inkscape (http://www.inkscape.org/) -->

<svg
   xmlns:dc="http://purl.org/dc/elements/1.1/"
   xmlns:cc="http://creativecommons.org/ns#"
   xmlns:rdf="http://www.w3.org/1999/02/22-rdf-syntax-ns#"
   xmlns:svg="http://www.w3.org/2000/svg"
   xmlns="http://www.w3.org/2000/svg"
   xmlns:sodipodi="http://sodipodi.sourceforge.net/DTD/sodipodi-0.dtd"
   xmlns:inkscape="http://www.inkscape.org/namespaces/inkscape"
   width="320"
   height="180"
   id="svg3171"
   version="1.1"
   inkscape:version="0.48.3.1 r9886"
   sodipodi:docname="cachet.svg"
   inkscape:export-filename="/home/guillaume/Boite/cachet.png"
   inkscape:export-xdpi="90"
   inkscape:export-ydpi="90">
  <defs
     id="defs3173" />
  <sodipodi:namedview
     id="base"
     pagecolor="#ffffff"
     bordercolor="#666666"
     borderopacity="1.0"
     inkscape:pageopacity="0"
     inkscape:pageshadow="2"
     inkscape:zoom="0.72194219"
     inkscape:cx="-40.913678"
     inkscape:cy="56.035958"
     inkscape:document-units="px"
     inkscape:current-layer="layer1"
     showgrid="false"
     inkscape:window-width="1121"
     inkscape:window-height="734"
     inkscape:window-x="51"
     inkscape:window-y="85"
     inkscape:window-maximized="0"
     showguides="false"
     inkscape:guide-bbox="true">
    <sodipodi:guide
       orientation="0,1"
       position="224.29421,116.55463"
       id="guide4059" />
  </sodipodi:namedview>
  <metadata
     id="metadata3176">
    <rdf:RDF>
      <cc:Work
         rdf:about="">
        <dc:format>image/svg+xml</dc:format>
        <dc:type
           rdf:resource="http://purl.org/dc/dcmitype/StillImage" />
        <dc:title></dc:title>
      </cc:Work>
    </rdf:RDF>
  </metadata>
  <g
     inkscape:label="Calque 1"
     inkscape:groupmode="layer"
     id="layer1"
     transform="translate(0,-872.36236)">
    <g
       id="g4043"
       transform="matrix(1.0996361,0,0,1.0996361,-3.4206786,-118.27843)">
      <g
         id="g4094"
         transform="translate(2.4902738,-1.5543237)">
        <g
           transform="matrix(1.1290488,0,0,1.1290488,281.1552,875.58782)"
           style="font-size:144px;font-style:normal;font-variant:normal;font-weight:normal;font-stretch:normal;text-align:end;line-height:125%;letter-spacing:0px;word-spacing:0px;text-anchor:end;fill:#e0e1f3;fill-opacity:1;stroke:none;font-family:Nimbus Roman No9 L;-inkscape-font-specification:Nimbus Roman No9 L"
           id="text4011">
          <path
             d="m -203.55018,156.67705 c -9.93599,-2.592 -13.104,-6.91201 -13.104,-17.712 l 0,-24.192 c 0,-11.95199 -2.73601,-15.696001 -13.536,-18.431998 10.79999,-2.879997 13.536,-6.624012 13.536,-18.576 l 0,-24.192 c 0,-10.799989 3.16801,-15.120003 13.104,-17.712 l 0,-1.584 c -9.50399,0.144 -13.248,1.008003 -17.424,3.6 -4.176,2.591997 -6.336,8.208008 -6.336,16.416 l 0,25.632 c 0,10.07999 -2.59201,13.392003 -12.24,16.272 9.64799,3.023997 12.24,6.480008 12.24,16.415998 l 0,25.488 c 0,8.06399 2.304,13.968 6.336,16.56 4.032,2.592 7.92001,3.456 17.424,3.6 l 0,-1.584"
             style="fill:#cdd0f1;fill-opacity:1"
             id="path4016"
             inkscape:connector-curvature="0" />
          <path
             d="m -166.04268,35.861052 c 9.93599,2.591997 13.104,6.912011 13.104,17.712 l 0,24.192 c 0,12.095988 2.73601,15.696003 13.536,18.432 -10.79999,2.879997 -13.536,6.624008 -13.536,18.575998 l 0,24.192 c 0,10.79999 -3.16801,15.12 -13.104,17.712 l 0,1.584 c 9.50399,-0.144 13.248,-1.008 17.424,-3.6 4.176,-2.592 6.336,-8.20801 6.336,-16.416 l 0,-25.632 c 0,-10.07999 2.59201,-13.392001 12.24,-16.415998 -9.64799,-2.879997 -12.24,-6.19201 -12.24,-16.272 l 0,-25.488 c 0,-8.063992 -2.304,-13.968003 -6.336,-16.56 -4.032,-2.591997 -7.77601,-3.456 -17.424,-3.6 l 0,1.584"
             style="fill:#cdd0f1;fill-opacity:1"
             id="path4018"
             inkscape:connector-curvature="0" />
        </g>
        <text
           xml:space="preserve"
           style="font-size:32px;font-style:normal;font-variant:normal;font-weight:normal;font-stretch:normal;text-align:end;line-height:125%;letter-spacing:0px;word-spacing:0px;text-anchor:end;fill:#3139ae;fill-opacity:1;stroke:none;font-family:Ubuntu;-inkscape-font-specification:Ubuntu"
           x="281.87097"
           y="946.4494"
           id="text3179"
           sodipodi:linespacing="125%"><tspan
             sodipodi:role="line"
             id="tspan3181"
             x="281.87097"
             y="946.4494"
             style="font-weight:bold;-inkscape-font-specification:Ubuntu Bold">Guillaume Gay</tspan><tspan
             sodipodi:role="line"
             x="281.87097"
             y="986.4494"
             id="tspan3183"
             style="font-weight:bold;-inkscape-font-specification:Ubuntu Bold" /></text>
        <text
           xml:space="preserve"
           style="font-size:16px;font-style:normal;font-variant:normal;font-weight:normal;font-stretch:normal;text-align:end;line-height:125%;letter-spacing:0px;word-spacing:0px;text-anchor:end;fill:#3139ae;fill-opacity:1;stroke:none;font-family:Ubuntu;-inkscape-font-specification:Ubuntu"
           x="282.15048"
           y="993.9848"
           id="text3185"
           sodipodi:linespacing="125%"><tspan
             sodipodi:role="line"
             x="282.15048"
             y="993.9848"
             id="tspan3971"
             style="font-size:32px;font-weight:bold;fill:#3139ae;-inkscape-font-specification:Ubuntu Bold">---</tspan><tspan
             sodipodi:role="line"
             x="282.15048"
             y="1017.762"
             id="tspan3969"
             style="font-weight:bold;-inkscape-font-specification:Ubuntu Bold">analyse de donées et  modélisation</tspan><tspan
             sodipodi:role="line"
             x="282.15048"
             y="1037.762"
             id="tspan3191"
             style="font-weight:bold;-inkscape-font-specification:Ubuntu Bold">pour la Biologie</tspan></text>
      </g>
    </g>
    <rect
       style="color:#000000;fill:none;stroke:#3139ae;stroke-width:1.99999952;stroke-linecap:round;stroke-linejoin:round;stroke-miterlimit:4;stroke-opacity:1;stroke-dasharray:none;stroke-dashoffset:0;marker:none;visibility:visible;display:inline;overflow:visible;enable-background:accumulate"
       id="rect4106"
       width="306.91763"
       height="162.97842"
       x="6.5411839"
       y="880.87311"
       ry="5.7118607"
       rx="5.7118607" />
  </g>
</svg>
