<?xml version="1.0" encoding="UTF-8" standalone="no"?>
<!-- Created with Inkscape (http://www.inkscape.org/) -->

<svg
   xmlns:dc="http://purl.org/dc/elements/1.1/"
   xmlns:cc="http://creativecommons.org/ns#"
   xmlns:rdf="http://www.w3.org/1999/02/22-rdf-syntax-ns#"
   xmlns:svg="http://www.w3.org/2000/svg"
   xmlns="http://www.w3.org/2000/svg"
   xmlns:sodipodi="http://sodipodi.sourceforge.net/DTD/sodipodi-0.dtd"
   xmlns:inkscape="http://www.inkscape.org/namespaces/inkscape"
   width="270.01068"
   height="439.92599"
   id="svg2"
   version="1.1"
   inkscape:version="0.47 r22583"
   sodipodi:docname="face.svg"
   inkscape:export-filename="/home/guillaume/Images/Illustrations/face.png"
   inkscape:export-xdpi="90"
   inkscape:export-ydpi="90">
  <defs
     id="defs4">
    <inkscape:perspective
       sodipodi:type="inkscape:persp3d"
       inkscape:vp_x="0 : 526.18109 : 1"
       inkscape:vp_y="0 : 1000 : 0"
       inkscape:vp_z="744.09448 : 526.18109 : 1"
       inkscape:persp3d-origin="372.04724 : 350.78739 : 1"
       id="perspective10" />
    <inkscape:perspective
       id="perspective2824"
       inkscape:persp3d-origin="0.5 : 0.33333333 : 1"
       inkscape:vp_z="1 : 0.5 : 1"
       inkscape:vp_y="0 : 1000 : 0"
       inkscape:vp_x="0 : 0.5 : 1"
       sodipodi:type="inkscape:persp3d" />
    <inkscape:perspective
       id="perspective2938"
       inkscape:persp3d-origin="0.5 : 0.33333333 : 1"
       inkscape:vp_z="1 : 0.5 : 1"
       inkscape:vp_y="0 : 1000 : 0"
       inkscape:vp_x="0 : 0.5 : 1"
       sodipodi:type="inkscape:persp3d" />
  </defs>
  <sodipodi:namedview
     id="base"
     pagecolor="#ffffff"
     bordercolor="#666666"
     borderopacity="1.0"
     inkscape:pageopacity="0.0"
     inkscape:pageshadow="2"
     inkscape:zoom="0.49497475"
     inkscape:cx="-88.450924"
     inkscape:cy="206.92447"
     inkscape:document-units="px"
     inkscape:current-layer="layer1"
     showgrid="false"
     inkscape:window-width="1366"
     inkscape:window-height="696"
     inkscape:window-x="0"
     inkscape:window-y="25"
     inkscape:window-maximized="1" />
  <metadata
     id="metadata7">
    <rdf:RDF>
      <cc:Work
         rdf:about="">
        <dc:format>image/svg+xml</dc:format>
        <dc:type
           rdf:resource="http://purl.org/dc/dcmitype/StillImage" />
        <dc:title></dc:title>
      </cc:Work>
    </rdf:RDF>
  </metadata>
  <g
     inkscape:label="Calque 1"
     inkscape:groupmode="layer"
     id="layer1"
     transform="translate(-444.00004,-569.9004)">
    <g
       id="g3049">
      <path
         style="fill:#eae385"
         d="m 503.01624,1006.7077 c 0,-2.407 -1.4438,-4.6695 -6.54085,-10.25 -3.59746,-3.93869 -6.80495,-8.20842 -7.12774,-9.4883 -0.80186,-3.17936 1.37806,-6.87602 4.74743,-8.05059 2.35509,-0.82099 3.10333,-2.04145 4.78071,-7.79784 4.49387,-15.42199 5.42927,-25.59795 4.23755,-46.09885 -0.79111,-13.60904 -1.21785,-16.06211 -3.91415,-22.5 -1.66443,-3.97412 -3.5816,-8.72562 -4.26038,-10.55889 -0.67878,-1.83327 -3.00939,-5.20827 -5.17912,-7.5 -2.16973,-2.29173 -4.99474,-5.798 -6.2778,-7.7917 -1.28305,-1.99371 -3.48771,-3.91478 -4.89924,-4.26906 -2.64232,-0.66318 -3.32589,-2.0186 -1.56641,-3.10602 1.77225,-1.09531 1.07913,-3.24314 -2.60348,-8.06762 -1.98191,-2.59645 -4.39745,-7.02853 -5.36786,-9.84908 -2.16806,-6.30159 -6.00574,-13.962 -9.88537,-19.73227 -1.60897,-2.39307 -3.65642,-5.92603 -4.54989,-7.85103 -0.89347,-1.925 -3.2238,-6.19117 -5.17852,-9.48039 -7.02601,-11.8227 -7.27598,-28.07543 -0.5112,-33.23781 0.87797,-0.67 3.42281,-1.2325 5.65519,-1.25 2.23238,-0.0175 4.88049,-0.63258 5.88468,-1.36687 1.63223,-1.19351 1.70389,-1.85619 0.67588,-6.25 -3.08808,-13.19871 -4.20115,-21.66896 -4.11829,-31.33936 0.0498,-5.81656 -0.21044,-12.2417 -0.5784,-14.27808 -0.66188,-3.66303 1.63719,-27.17042 3.69667,-37.79749 0.58623,-3.025 1.86246,-7.525 2.83607,-10 0.97361,-2.475 2.8195,-7.81315 4.10197,-11.86255 1.28248,-4.0494 3.08418,-8.3244 4.00378,-9.5 0.91961,-1.1756 3.04531,-4.86437 4.72379,-8.19728 1.67848,-3.33291 3.7635,-6.65051 4.63338,-7.37245 0.86988,-0.72193 1.5816,-1.93741 1.5816,-2.70106 0,-3.70161 4.94012,-10.95137 13.33036,-19.56266 5.08755,-5.22158 10.40678,-10.12608 11.82052,-10.89889 6.05207,-3.30832 10.75391,-7.02052 15.57898,-12.29991 3.711,-4.06038 7.0255,-6.47645 11.862,-8.6464 3.6915,-1.65629 8.9911,-4.68709 11.7768,-6.73512 5.5621,-4.0892 10.1683,-6.35989 18.8498,-9.29219 7.815,-2.63962 10.9938,-2.46496 14.8976,0.81851 3.0923,2.60098 3.8145,2.75 13.3267,2.75 6.6364,0 10.8692,0.4621 12.4444,1.35859 1.3669,0.77792 3.7737,1.13357 5.6313,0.83212 3.0721,-0.49852 8.2374,1.29629 9.4699,3.2905 0.804,1.30082 9.7809,4.47554 20.1138,7.11326 2.9966,0.76496 6.8341,3.04324 11,6.53052 3.5188,2.94565 9.2103,7.65114 12.6478,10.45665 3.8341,3.12918 6.25,5.86414 6.25,7.07538 0,1.08596 0.5492,2.95738 1.2203,4.15872 1.9604,3.50908 3.7484,8.99434 3.7647,11.54939 0.01,1.38187 1.4117,3.66839 3.3745,5.5 1.8476,1.72418 3.653,4.35938 4.0118,5.85601 0.3588,1.49662 1.5851,3.22034 2.7252,3.83049 2.4058,1.28756 4.9035,6.68261 4.9035,10.59166 0,1.48914 1.5579,5.89109 3.462,9.78212 9.7372,19.89822 15.7568,60.6607 11.3081,76.57459 -0.8456,3.025 -2.0803,9.1 -2.7439,13.5 -0.6635,4.4 -1.6855,10.475 -2.271,13.5 -0.5856,3.025 -1.1075,7.29752 -1.1599,9.4945 -0.094,3.95701 -0.056,3.99982 4.1188,4.56244 2.3177,0.31238 5.1276,1.39481 6.2443,2.40542 2.2505,2.03666 4.0275,7.38203 4.0361,12.14084 0.01,3.15384 -3.4712,13.75932 -6.0673,18.50679 -0.7849,1.4355 -3.3955,6.374 -5.8012,10.97445 -2.4057,4.60045 -5.09,9.45717 -5.965,10.7927 -2.1709,3.31315 -6.1506,13.23107 -6.1563,15.34207 0,0.94556 -0.9027,3.44216 -2.0003,5.548 -1.2256,2.35126 -2.2473,6.89745 -2.6476,11.78079 l -0.6518,7.952 -5.1025,4.85809 c -2.8064,2.67194 -6.0025,5.72901 -7.1025,6.79349 -1.1,1.06447 -3.3652,5.40333 -5.0338,9.64191 -1.3628,4.31996 -1.7323,6.85994 -11.6615,21.86445 -6.3469,8.48322 -10.8028,17.71729 -10.8039,22.38888 0,5.89048 3.863,21.69656 6.9909,28.59513 2.8311,6.24369 7.738,13.52337 10.8434,16.08652 0.8193,0.67625 2.567,0.95775 3.8879,0.62622 1.8835,-0.47273 2.5196,-0.14314 2.9578,1.53247 0.3306,1.26432 1.6308,2.36584 3.1887,2.70157 4.4144,0.95126 7.1305,2.66052 7.1305,4.48713 0,2.31347 -9.1891,9.92419 -11.9824,9.92419 -1.3638,0 -2.4043,0.7628 -2.7278,2 -0.5058,1.9342 -1.3488,1.9988 -25.6564,1.9645 -19.9038,-0.028 -25.6535,-0.3328 -27.6334,-1.4645 -3.2883,-1.8798 -8.4773,-1.8798 -10.3571,0 -1.2678,1.2677 -6.2236,1.5 -32.0124,1.5 -19.3178,0 -30.7398,-0.3679 -31.1321,-1.0027 -0.4143,-0.6703 -1.2409,-0.6703 -2.4933,0 -1.0305,0.5514 -8.8782,1.0027 -17.43932,1.0027 l -15.56574,0 0,-3.0888 z M 686.0162,758.85547 c 0,-1.06754 -0.45,-2.2191 -1,-2.55902 -0.5671,-0.35052 -1,0.48962 -1,1.94098 0,1.40746 0.45,2.55902 1,2.55902 0.55,0 1,-0.87344 1,-1.94098 z"
         id="path3065"
         sodipodi:nodetypes="cssssssssssssssssssssssssssssssssssssssssssssssssssssssssscssssscccsccsssssssssssssssccccsssc" />
      <path
         style="fill:#efbb2e"
         d="m 503.64908,1006.8822 c 0.49241,-2.462 -0.23183,-3.8972 -4.66774,-9.24997 -2.88782,-3.48468 -5.56898,-6.56078 -5.95814,-6.83578 -1.6066,-1.13532 -3.07722,-5.20326 -2.51802,-6.96516 0.32986,-1.03929 2.12619,-2.79024 3.99184,-3.891 2.83822,-1.67459 3.72129,-3.1152 5.40811,-8.82262 2.04812,-6.92985 3.86223,-16.17999 4.7698,-24.32122 0.27592,-2.475 0.064,-11.8205 -0.47103,-20.76777 -0.87475,-14.6296 -1.27773,-16.99605 -4.00182,-23.5 -1.66602,-3.97773 -3.54699,-8.64165 -4.17994,-10.36428 -0.63295,-1.72262 -3.58698,-5.99762 -6.56451,-9.5 -2.97753,-3.50237 -5.41992,-6.75299 -5.42754,-7.22359 -0.008,-0.47061 -1.13885,-2.19263 -2.51385,-3.82673 -1.375,-1.63409 -2.5,-3.65253 -2.5,-4.48541 0,-0.83288 -1.76655,-4.06085 -3.92567,-7.17327 -2.15911,-3.11242 -4.45012,-7.65933 -5.09113,-10.10424 -0.641,-2.44492 -3.12341,-7.89591 -5.51646,-12.11332 -2.7255,-4.80332 -4.15534,-8.41619 -3.82728,-9.67067 0.28803,-1.10145 -0.35932,-4.87546 -1.43856,-8.38668 -1.07924,-3.51122 -2.27475,-8.68522 -2.65668,-11.49777 -0.62596,-4.60966 -0.49358,-5.16625 1.34296,-5.64652 1.52819,-0.39963 2.51198,0.2716 3.93634,2.68571 1.55531,2.63605 1.81263,4.56363 1.42193,10.65152 -0.54131,8.43479 1.13099,13.98375 4.80725,15.95122 2.11675,1.13285 2.18302,1.05377 1.39894,-1.66951 -0.45269,-1.57228 -0.87221,-7.58369 -0.93226,-13.35869 -0.18562,-17.84796 0.18434,-16.60553 -5.50762,-18.49609 -2.74353,-0.91126 -5.24509,-2.07242 -5.55901,-2.58037 -0.31393,-0.50795 -1.88267,-0.92354 -3.48609,-0.92354 -3.86134,0 -6.41486,4.62173 -5.66058,10.24533 0.73633,5.48975 -0.17897,4.04733 -1.8375,-2.89571 -3.35893,-14.06137 -0.0166,-21.34962 9.79063,-21.34962 4.57548,0 7.17755,-2.03918 6.49973,-5.09368 -5.47685,-24.68086 -6.65368,-47.40926 -3.72091,-71.86293 2.02864,-16.91494 2.26767,-18.13329 5.01129,-25.54339 1.01821,-2.75 2.62665,-7.63965 3.57432,-10.86588 0.94767,-3.22624 2.78413,-7.42949 4.08102,-9.34057 1.29689,-1.91107 3.68382,-6.10114 5.30428,-9.31127 1.62047,-3.21012 3.36055,-6.0926 3.86684,-6.40551 0.5063,-0.31291 1.75387,-2.90167 2.77238,-5.75281 2.73251,-7.64917 15.61287,-21.44085 27.54925,-29.49845 3.68358,-2.48658 9.06245,-7.02169 11.95295,-10.07803 3.6044,-3.8111 7.3125,-6.48215 11.8026,-8.50177 3.6009,-1.61965 8.8484,-4.66843 11.6612,-6.77507 5.3452,-4.00338 9.2057,-5.90166 18.3858,-9.04077 7.4084,-2.53325 9.7041,-2.40694 14.3138,0.78755 3.6118,2.50301 4.7207,2.7233 14.0537,2.79185 5.5729,0.0409 11.0576,0.58711 12.1882,1.21373 1.1306,0.62663 4.133,1.05892 6.6721,0.96065 3.5229,-0.13634 5.1678,0.33629 6.9443,1.99534 2.8311,2.64388 8.0532,4.66139 21.8279,8.43301 4.6434,1.27138 12.6147,6.59633 17,11.35625 1.375,1.49245 4.585,4.24742 7.1334,6.12217 2.5483,1.87475 4.8719,4.42135 5.1635,5.65911 0.2917,1.23776 1.4401,4.72547 2.5521,7.75047 1.112,3.025 2.3017,6.80603 2.6437,8.40229 0.342,1.59627 1.9203,4.11523 3.5073,5.59771 1.587,1.48248 3.1915,3.91479 3.5656,5.40513 0.374,1.49034 1.7466,3.40854 3.0502,4.26267 1.3396,0.87776 2.808,3.24409 3.3772,5.44258 0.5539,2.13929 1.4955,5.80212 2.0924,8.13962 0.597,2.3375 1.9991,5.825 3.1157,7.75 1.1167,1.925 3.728,9.35 5.803,16.5 5.7885,19.94602 8.0778,48.46658 4.7361,59.00215 -0.8719,2.74882 -2.3354,10.39785 -3.2523,16.99785 -0.9169,6.6 -2.1213,13.49183 -2.6765,15.31518 -0.5552,1.82335 -0.7195,4.86085 -0.3651,6.75 0.6051,3.22544 0.8854,3.43482 4.5991,3.43482 2.175,0 3.9549,0.3375 3.9553,0.75 4e-4,0.4125 -1.6871,0.75 -3.75,0.75 -3.1936,0 -3.8008,0.35493 -4.0885,2.3896 -0.2954,2.08912 -0.044,2.30069 2,1.68249 7.7484,-2.34361 8.8574,-2.40401 9.8567,-0.53678 0.5396,1.00826 0.9811,3.28254 0.9811,5.05394 0,3.05684 -0.093,3.13651 -1.8287,1.56574 -2.6598,-2.40705 -7.0217,-2.03061 -11.3675,0.98101 -3.9809,2.75878 -4.3701,3.95312 -3.9043,11.98049 0.1314,2.26407 -0.4672,5.80653 -1.3303,7.87212 -0.863,2.0656 -1.5692,4.88191 -1.5692,6.25847 0,1.37656 -1.1965,5.16902 -2.6589,8.4277 l -2.6589,5.92488 2.2238,4.16617 c 1.8927,3.54596 2.0104,4.32218 0.7905,5.21419 -0.7883,0.57642 -1.432,2.39172 -1.4304,4.03401 0,1.64228 -0.7747,5.01097 -1.7252,7.48597 -0.9504,2.475 -2.0532,7.85083 -2.4506,11.94629 l -0.7224,7.4463 -7.1656,6.55441 c -6.3585,5.81629 -7.4291,7.33598 -9.5066,13.49462 -2.2764,6.74822 -4.6957,9.72207 -4.6957,5.77199 0,-3.50758 3.8312,-14.04479 5.8351,-16.04867 1.5335,-1.53352 1.9449,-3.2838 1.8997,-8.08284 -0.041,-4.39934 0.3803,-6.47159 1.4966,-7.35378 0.8549,-0.67558 1.8076,-3.47832 2.1171,-6.22832 2.0563,-18.27336 3.9436,-27.30101 6.903,-33.021 1.7063,-3.29793 4.7485,-19.34346 4.7485,-25.04519 0,-1.96091 0.4813,-4.46447 1.0694,-5.56347 0.7773,-1.45229 0.7463,-2.38751 -0.1133,-3.42325 -1.6501,-1.98831 -2.9561,-0.86049 -2.9561,2.55291 0,3.45208 -1.3103,4.53592 -3.0091,2.48899 -1.8669,-2.24948 -8.8956,-1.82518 -14.5445,0.878 -6.9478,3.32472 -10.2484,4.3848 -15.6409,5.02351 -5.8362,0.69126 -19.4677,-2.60831 -22.2435,-5.38412 -1.9345,-1.93443 -1.9261,-1.97603 0.9936,-4.95082 1.6194,-1.65 3.5341,-3.0125 4.2548,-3.02778 0.8993,-0.0191 1.213,-1.20428 1,-3.77778 -0.2466,-2.97988 -0.7211,-3.75 -2.3104,-3.75 -1.5197,0 -2.12,0.83333 -2.5,3.47074 -0.4384,3.0435 -0.9923,3.61142 -4.5,4.61366 -3.0203,0.863 -3.9404,1.60491 -3.7566,3.02926 0.755,5.85252 0.3678,19.31012 -0.6081,21.13361 -0.6244,1.16669 -1.1353,3.05694 -1.1353,4.20056 0,1.14362 -0.5409,2.94543 -1.202,4.00403 -0.893,1.43001 -0.919,2.51889 -0.1009,4.23643 3.2669,6.85885 3.6198,8.80409 1.9348,10.66597 -0.8975,0.99177 -1.6319,2.55529 -1.6319,3.47448 0,3.49401 -1.8226,1.48089 -2.3347,-2.57874 -0.2948,-2.3375 -0.8418,-5.71662 -1.2155,-7.50916 -0.4294,-2.05976 -0.2241,-3.8078 0.5578,-4.75 0.8069,-0.97223 0.9068,-1.92567 0.2871,-2.74084 -1.3364,-1.75795 -4.6295,-10.84974 -4.7992,-13.25 -0.078,-1.1 -0.7463,-6.7589 -1.4855,-12.57532 -1.0974,-8.63452 -1.1108,-11.57088 -0.073,-16 1.9008,-8.11277 2.1086,-15.96999 0.4395,-16.61051 -1.536,-0.5894 -1.8833,-2.31417 -0.4661,-2.31417 1.3814,0 9.0897,-5.23882 9.0897,-6.17763 0,-0.4523 1.0249,-0.82237 2.2775,-0.82237 1.2527,0 3.3233,-0.73247 4.6014,-1.62771 1.8195,-1.27444 3.6583,-1.49103 8.4725,-0.99793 3.3818,0.34638 7.5059,0.24045 9.1647,-0.2354 2.1535,-0.61774 3.3711,-0.48513 4.2575,0.46369 1.5966,1.70919 4.2264,0.71128 4.2264,-1.60375 0,-1.53978 1.1419,-1.8419 8.25,-2.18284 4.5375,-0.21764 8.4,-0.0403 8.5834,0.39411 0.1833,0.43441 1.5905,0.78983 3.1271,0.78983 2.719,0 2.7803,-0.12041 2.2876,-4.49193 -0.3168,-2.81002 -0.042,-5.05183 0.7347,-5.98726 1.6589,-1.99887 0.5703,-4.52081 -1.9514,-4.52081 -2.4484,0 -2.4465,0.0229 -0.3865,-4.71607 0.9047,-2.08116 2.2073,-5.13393 2.8947,-6.78393 0.6875,-1.65 1.8151,-4.22216 2.5059,-5.71591 1.0103,-2.18467 1.0078,-3.01495 -0.013,-4.24467 -0.6978,-0.84082 -1.0307,-2.43908 -0.7397,-3.55168 0.2909,-1.11261 -0.029,-2.5805 -0.7101,-3.26199 -0.6815,-0.68148 -1.2039,-3.48607 -1.161,-6.23241 0.072,-4.59155 -0.1017,-4.97439 -2.1565,-4.75786 -1.6446,0.1733 -2.3993,-0.42079 -2.8584,-2.25 -0.393,-1.56563 -1.3331,-2.48548 -2.5402,-2.48548 -1.1043,0 -2.3042,-1.02011 -2.8316,-2.40737 -0.5828,-1.5328 -2.027,-2.65154 -3.9753,-3.07946 -1.9255,-0.4229 -3.06,-1.29208 -3.06,-2.34434 0,-0.96019 -1.9052,-2.683 -4.4743,-4.04592 -4.242,-2.25038 -4.8674,-2.31521 -12.0409,-1.24828 -4.1615,0.61895 -9.6856,1.13968 -12.2756,1.15717 -2.59,0.0175 -5.5953,0.7017 -6.6783,1.52046 -2.8458,2.15147 -9.14,3.67265 -16.0309,3.87432 -7.335,0.21468 -10.134,1.63098 -10.9981,5.5651 -0.7711,3.51058 -3.3052,3.98805 -5.9071,1.11297 -1.8493,-2.04339 -6.1839,-3.26097 -11.2888,-3.17096 -1.7568,0.031 -3.4708,-0.39144 -3.809,-0.93869 -0.8294,-1.34185 -5.8219,-1.2597 -8.9084,0.14659 -1.9035,0.86732 -3.5771,0.84155 -6.966,-0.10728 -3.7939,-1.06223 -5.2045,-1.00175 -9.4389,0.4047 -4.4758,1.48662 -5.0462,2.01481 -5.6497,5.23175 -0.6555,3.49418 -0.7062,3.52831 -2.1593,1.45371 -1.9442,-2.77568 -3.3747,-2.70128 -3.3747,0.17553 0,1.265 -0.3888,2.7275 -0.864,3.25 -0.4752,0.5225 -1.402,3.16815 -2.0595,5.87923 -0.6575,2.71108 -2.101,6.2009 -3.2077,7.75516 l -2.0123,2.82592 3.044,3.044 3.044,3.044 -1.6323,4.07964 c -1.226,3.0639 -1.3613,4.51379 -0.5434,5.82338 0.861,1.37875 0.5423,2.55537 -1.5226,5.62121 -1.4363,2.1326 -3.4293,4.46548 -4.4289,5.18416 -3.1553,2.26882 -2.055,3.82185 3.6055,5.08859 2.9825,0.66746 5.9626,1.86406 6.6224,2.65913 0.6599,0.79507 2.8546,1.44558 4.8773,1.44558 2.0226,0 4.2397,0.5625 4.9267,1.25 0.7133,0.71377 5.0644,1.48304 10.1428,1.79324 6.6961,0.40902 9.3973,0.99907 10.9321,2.38802 1.6616,1.50372 2.3168,1.61374 3.5442,0.59508 2.7436,-2.27701 6.3399,-0.25853 11.0347,6.19353 4.6936,6.45047 5.6598,10.57026 2.997,12.78013 -2.1361,1.77286 -1.8652,3.99817 1,8.21481 2.2084,3.24987 2.5,4.72764 2.5,12.66704 0,4.94337 -0.4486,10.16786 -0.9968,11.60997 -0.5483,1.4421 -1.0842,6.71006 -1.1908,11.70657 -0.1631,7.64466 -0.5598,9.62393 -2.5031,12.4875 -1.2701,1.87161 -2.3093,4.12115 -2.3093,4.99899 0,2.30421 -4.079,10.13149 -5.58,10.70747 -0.7006,0.26882 -1.8117,-0.15948 -2.4693,-0.95179 -1.7347,-2.09025 -4.293,-1.76956 -6.7504,0.84623 -3.1604,3.36416 -3.2423,6.80342 -0.2003,8.41167 2.6912,1.42271 9.1077,0.87575 12.1714,-1.03753 2.1892,-1.3672 7.3225,0.297 14.1098,4.57443 4.093,2.57943 5.4902,2.94498 9.7078,2.53972 3.2524,-0.31251 6.1079,-1.3743 8.4022,-3.12424 2.4196,-1.84554 4.6891,-2.65084 7.4707,-2.65084 2.3018,0 4.6626,-0.66728 5.5696,-1.5743 1.4213,-1.4213 1.6323,-1.42305 2.1715,-0.0179 0.3285,0.85601 -0.095,3.5875 -0.9407,6.06999 -0.9081,2.66525 -1.3003,5.97815 -0.9576,8.08997 l 0.5804,3.57638 -3.528,-0.66186 c -3.8765,-0.72725 -5.2561,0.36993 -4.2905,3.41222 0.7718,2.43197 7.5253,7.10553 10.2676,7.10553 1.436,0 2.2305,0.72265 2.4463,2.22497 0.4383,3.05184 3.9096,4.53089 9.03,3.84752 3.7562,-0.50134 4.2895,-0.88337 4.2895,-3.07252 0,-1.46667 -0.5166,-2.39667 -1.25,-2.25 -0.6875,0.1375 -1.25,-0.425 -1.25,-1.25 0,-0.84766 -0.8954,-1.5 -2.059,-1.5 -1.1324,0 -1.793,-0.43035 -1.4679,-0.95633 0.325,-0.52598 1.2109,-0.71843 1.9686,-0.42767 0.8105,0.311 1.6484,-0.32452 2.0354,-1.54368 0.8668,-2.73096 2.3705,-2.64002 2.938,0.17768 1.4411,7.15471 1.5184,9.71815 0.4225,14 -1.3414,5.24125 -3.014,5.98864 -5.774,2.58011 -1.7338,-2.1411 -1.8154,-2.14656 -6.1509,-0.41186 -2.4165,0.96692 -6.512,3.73947 -9.1011,6.16122 -2.589,2.42175 -6.3472,5.18517 -8.3514,6.14093 l -3.6441,1.73774 0.6765,6.31666 c 0.7389,6.9003 -0.2172,9.2252 -3.794,9.2252 -1.1311,0 -3.4385,0.41565 -5.1276,0.92366 -1.689,0.50801 -6.221,1.4037 -10.071,1.99041 -3.85,0.58671 -7.9543,1.33334 -9.1208,1.65918 -1.7116,0.47813 -2.2577,0.0469 -2.8303,-2.23481 -1.3362,-5.32353 -4.2657,-6.80969 -7.5551,-3.83277 -1.4832,1.34222 -2.0121,1.33191 -4.8724,-0.095 -2.4311,-1.21283 -2.9505,-1.91161 -2.1435,-2.88403 0.7371,-0.88816 0.7506,-2.11074 0.044,-3.9701 -1.4229,-3.74254 -1.3105,-4.24768 1.0839,-4.87384 3.58,-0.93618 1.538,-3.07226 -5.4323,-5.6827 -3.7729,-1.413 -6.9131,-3.23404 -7.222,-4.18822 -0.8342,-2.57633 -6.8349,-4.11921 -13.0169,-3.34682 -4.9897,0.62342 -5.588,0.47211 -7.8702,-1.99046 -3.263,-3.52085 -4.4277,-10.81436 -2.2897,-14.33807 2.4249,-3.99635 11.3032,-5.69189 18.6384,-3.55948 5.4192,1.57539 5.5817,1.56411 6.9402,-0.48189 0.7651,-1.15228 2.4612,-2.09506 3.7691,-2.09506 2.7152,0 3.1501,-2.11433 0.8309,-4.03912 -0.8509,-0.70621 -2.6509,-3.61723 -4,-6.46894 -3.2749,-6.92251 -3.2067,-13.26585 0.2375,-22.09514 3.0838,-7.90567 3.3622,-13.55212 1.1782,-23.8968 -1.2452,-5.89823 -1.8245,-7.05045 -3.6805,-7.32051 -2.0463,-0.29776 -2.0957,-0.47329 -0.6954,-2.47251 0.829,-1.18359 1.5073,-2.94326 1.5073,-3.91036 0,-1.51229 -0.6647,-1.67733 -4.75,-1.17935 -2.6125,0.31845 -6.2089,0.9476 -7.9921,1.39809 -2.0078,0.50724 -3.48,0.43419 -3.867,-0.19187 -0.3943,-0.63815 -3.4775,-0.75842 -8.3607,-0.32616 -6.7323,0.59594 -8.4102,0.3948 -12.93167,-1.5503 -4.64753,-1.99932 -5.60178,-2.10105 -9.04587,-0.9644 -4.40063,1.45234 -5.49635,3.20336 -7.08178,11.31705 -0.80028,4.09555 -0.82158,6.17525 -0.0725,7.07785 0.72173,0.86963 0.74768,2.36984 0.0812,4.69371 -2.15664,7.51976 -1.07009,13.83824 3.09612,18.00445 1.89908,1.89908 1.89481,1.95381 -0.32569,4.17431 -1.2375,1.2375 -2.60002,2.13333 -3.02783,1.99072 -1.57883,-0.52627 -1.82315,2.6643 -0.41496,5.41902 0.79855,1.56214 1.77528,4.41526 2.17051,6.34026 0.39523,1.925 1.44562,4.625 2.33419,6 0.88857,1.375 1.76965,3.58613 1.95796,4.91362 0.1883,1.32749 1.19847,3.50197 2.24482,4.83218 1.32423,1.6835 1.72508,3.30537 1.31887,5.33638 -0.46687,2.33452 -0.23369,2.91782 1.16647,2.91782 1.38883,0 1.63288,-0.5856 1.18251,-2.83746 -0.62219,-3.11096 1.19654,-10.44159 3.05055,-12.2956 1.80234,-1.80234 2.9068,2.08741 4.1614,14.65588 1.2882,12.90468 4.3333,21.76475 9.8597,28.68837 2.0602,2.58109 4.0309,4.71448 4.3792,4.74085 0.5806,0.044 0.9958,-0.90146 2.7821,-6.33346 0.5781,-1.75784 0.8241,-1.70858 3.746,0.75 1.72,1.44728 3.7615,2.63142 4.5367,2.63142 1.9144,0 7.8018,6.2016 7.8018,8.21815 0,0.99017 1.1697,1.87984 3,2.28185 3.0835,0.67725 3.8205,2.27952 1.9219,4.17818 -0.593,0.593 -0.9305,2.3705 -0.75,3.95 0.4281,3.74667 3.5813,4.25674 6.9596,1.12581 l 2.5188,-2.33435 1.1749,2.48954 c 0.6462,1.36925 1.1748,3.30594 1.1748,4.30375 0,4.35812 5.3948,10.78707 9.0519,10.78707 1.4868,0 3.2228,0.62605 3.8579,1.39122 1.7927,2.16017 15.0902,4.58554 15.0902,2.75236 0,-1.43893 7.7076,-3.4338 10.5301,-2.7254 2.3916,0.60027 3.8447,-1.27802 2.8977,-3.74573 -0.2801,-0.73015 -0.017,-2.62363 0.5857,-4.20772 l 1.095,-2.88018 1.2253,2.45773 c 1.5751,3.15938 4.8921,3.23691 5.6252,0.13148 l 0.5492,-2.32623 2.4255,2.58184 2.4255,2.58184 2.3204,-2.17992 c 1.2763,-1.19895 2.3204,-3.17399 2.3204,-4.38897 0,-1.30878 0.7544,-2.40633 1.851,-2.6931 1.272,-0.33263 2.0599,-1.79048 2.5188,-4.66031 0.8277,-5.17602 2.5744,-8.08891 4.8505,-8.08891 1.0441,0 2.593,-1.69829 3.8759,-4.25 1.1753,-2.3375 2.7062,-4.925 3.4021,-5.75 0.6958,-0.825 1.6083,-2.625 2.0276,-4 1.3746,-4.50728 3.5885,-7.15001 5.005,-5.97443 0.7028,0.5833 2.4459,0.76739 3.8735,0.40908 1.4515,-0.36429 2.5956,-0.22596 2.5956,0.31382 0,0.53091 -2.3202,4.06719 -5.1561,7.85841 -6.9487,9.28952 -11.8439,19.6741 -11.8439,25.1255 0,7.89693 3.8522,22.4325 8.4189,31.76762 4.0853,8.35119 4.1881,8.74769 1.4252,5.5 -1.6376,-1.925 -3.5843,-4.92628 -4.3261,-6.66951 -0.7417,-1.74323 -2.3262,-3.6927 -3.5211,-4.33216 -1.6637,-0.8904 -2.0271,-1.74173 -1.5518,-3.63549 0.4648,-1.85185 -0.058,-3.19239 -2.0837,-5.33815 l -2.7044,-2.86531 -7.7829,7.84586 c -7.6407,7.70261 -17.301,14.13395 -23.3741,15.56141 -9.1413,2.14864 -13.2717,9.00939 -13.0825,21.7308 l 0.1149,7.7325 -28.5162,-0.265 c -22.1677,-0.206 -28.4605,-0.5432 -28.2662,-1.5149 0.1375,-0.6875 -0.4515,-1.25 -1.309,-1.25 -0.8574,0 -1.31,0.4028 -1.0057,0.8952 1.0381,1.6796 -2.596,2.1048 -17.99205,2.1048 l -15.39321,0 0.58284,-2.9143 z m 71.95642,-23.1598 c 2.4186,-2.00729 1.5601,-3.80684 -2.3393,-4.90363 -2.0625,-0.58012 -4.574,-1.68631 -5.5812,-2.4582 -1.3469,-1.03224 -2.5566,-1.15059 -4.5735,-0.44747 -2.31,0.80524 -2.7307,1.5084 -2.6688,4.46014 0.061,2.89751 0.5064,3.59888 2.5735,4.05117 1.375,0.30084 2.95,0.71772 3.5,0.92641 1.7204,0.65276 7.6126,-0.40287 9.0893,-1.62842 z m 2.4107,-20.42595 c 0,-0.83333 -0.8888,-1.5 -2,-1.5 -1.9922,0 -2.6011,1.06554 -1.3333,2.33333 1.2179,1.21793 3.3333,0.68908 3.3333,-0.83333 z m -10.1051,-1.87325 c 1.4814,-1.78504 0.3693,-4.62675 -1.8107,-4.62675 -2.7284,0 -5.4851,2.51284 -4.778,4.35539 0.7658,1.99567 5.0124,2.17057 6.5887,0.27136 z m -11.2516,-12.13948 c 0.7451,-1.94162 -1.3577,-4.48727 -3.7067,-4.48727 -2.4827,0 -3.2444,1.55631 -1.9476,3.97933 1.2678,2.36896 4.8178,2.68786 5.6543,0.50794 z m -9.0272,-13.29977 c -1.3985,-1.39847 -1.6161,-1.41218 -1.6161,-0.10179 0,2.05451 2.34,4.39446 2.8536,2.85358 0.2082,-0.62465 -0.3486,-1.86295 -1.2375,-2.75179 z m 47.6737,-23.1875 c 0.2877,-1.1 0.4099,-2 0.2716,-2 -0.1383,0 -1.0659,0.9 -2.0614,2 -1.5224,1.68223 -1.5655,2 -0.2716,2 0.8461,0 1.7737,-0.9 2.0614,-2 z m 2.7102,-14.51592 c 3.296,-0.89422 9.1422,-1.427 14.5889,-1.32952 4.9989,0.0895 9.6176,-0.16411 10.2638,-0.56348 1.6247,-1.00412 -6.3907,-7.59108 -9.2373,-7.59108 -1.2075,0 -4.1844,-1.8 -6.6154,-4 -4.9666,-4.49475 -4.9842,-4.49906 -10.5,-2.5771 -2.2,0.76658 -5.6249,1.69839 -7.611,2.07067 -3.1189,0.58462 -3.6855,0.39263 -4.1564,-1.40834 -0.9024,-3.45083 -4.124,-2.40124 -8.9465,2.91477 -2.4947,2.75 -5.1771,5 -5.9609,5 -1.9668,0 -3.8252,2.04044 -3.8252,4.2 0,1.47406 0.8602,1.80857 4.75,1.84734 6.3414,0.0632 12.9761,0.7792 17.25,1.86156 1.925,0.48751 3.725,0.9271 4,0.97687 0.275,0.0498 2.975,-0.58099 6,-1.40169 z M 471.01624,842.47076 c 0,-0.72912 -1.19756,-2.41662 -2.66125,-3.75 -1.46369,-1.33337 -2.3772,-1.92664 -2.03003,-1.31839 0.34718,0.60826 1.0836,2.29576 1.6365,3.75 1.04717,2.75426 3.05478,3.62071 3.05478,1.31839 z m 35.5,-36.67431 c -0.33992,-0.55 -0.81648,-1 -1.05902,-1 -0.24254,0 -0.44098,0.45 -0.44098,1 0,0.55 0.47656,1 1.05902,1 0.58246,0 0.7809,-0.45 0.44098,-1 z m 57.49996,-8.53518 c 0,-1.67289 -3.5513,-1.99978 -4.5296,-0.41693 -0.3561,0.57633 -0.3894,1.72074 -0.074,2.54312 0.4485,1.16862 1.0139,1.25969 2.5887,0.41693 1.1081,-0.59307 2.0147,-1.73747 2.0147,-2.54312 z m -10,-8.51279 c 0,-1.0087 -0.399,-2.0806 -0.8866,-2.382 -1.3372,-0.82642 -3.2325,1.95582 -2.5478,3.74008 0.7862,2.04883 3.4344,1.00164 3.4344,-1.35808 z m 66,1.98895 c 0,-0.58246 -0.45,-0.7809 -1,-0.44098 -0.55,0.33992 -1,0.81648 -1,1.05902 0,0.24254 0.45,0.44098 1,0.44098 0.55,0 1,-0.47656 1,-1.05902 z m 68,-13.44098 c 0,-0.825 -0.4234,-1.5 -0.9409,-1.5 -1.261,0 -2.1641,1.56159 -1.3652,2.36052 1.1262,1.12618 2.3061,0.68589 2.3061,-0.86052 z m -33.5,-3.5 c 0.34,-0.55 -0.2819,-1 -1.3819,-1 -1.1,0 -2.2781,0.45 -2.6181,1 -0.3399,0.55 0.282,1 1.382,1 1.1,0 2.2781,-0.45 2.618,-1 z m 32,-15.5 c 0,-2.93742 -0.4411,-4.05757 -1.6929,-4.29865 -1.2418,-0.23913 -1.8679,0.60622 -2.3492,3.17142 -0.7604,4.05335 0.04,5.87066 2.3854,5.4189 1.2108,-0.23317 1.6567,-1.38845 1.6567,-4.29167 z m -8.75,-21.75 c -0.4718,-1.41567 -2.0799,-1.26005 -2.5833,0.25 -0.1833,0.55 0.4167,1 1.3333,1 0.9167,0 1.4792,-0.5625 1.25,-1.25 z m -64.6131,272.35575 c -1.1509,-0.7291 -1.1509,-0.9353 0,-1.3237 0.7497,-0.2531 -0.3244,-1.073 -2.3869,-1.822 -2.0625,-0.749 -3.75,-1.668 -3.75,-2.0423 0,-1.2043 6.4049,-7.04006 9.5,-8.65588 1.65,-0.86137 4.382,-3.07268 6.071,-4.914 1.6891,-1.84133 3.7141,-3.35476 4.5,-3.36318 1.2138,-0.013 1.2188,-0.14846 0.033,-0.89908 -1.6478,-1.04342 -0.8134,-3.87627 1.391,-4.72217 2.4673,-0.94677 7.5048,1.61981 7.5048,3.82362 0,2.72491 1.815,5.81294 3.4166,5.81294 1.8401,0 4.7805,-9.0575 3.4579,-10.65122 -0.6748,-0.81306 -0.5377,-2.56746 0.4226,-5.40834 2.2156,-6.5543 3.0533,-3.13041 2.828,11.55905 -0.1906,12.4329 -0.062,13.4061 2.3245,17.58096 1.3895,2.4308 2.5317,4.7571 2.5383,5.1696 0.017,1.0504 -36.1831,0.9125 -37.8511,-0.1443 z m 26.8631,-14.22819 c 0,-1.10781 -1.1038,-1.09786 -2.8781,0.0259 -0.7579,0.48009 -1.0554,1.39505 -0.6609,2.03324 0.5433,0.87922 1.059,0.87664 2.1281,-0.0106 0.776,-0.64405 1.4109,-1.5659 1.4109,-2.04855 z m 32.6038,3.5322 c -0.8615,-2.24495 0.1279,-3.40976 2.8962,-3.40976 3.104,0 3.919,1.4382 1.9378,3.41938 -2.0228,2.02287 -4.0556,2.01877 -4.834,-0.01 z m -46.2421,-66.90976 c -0.7922,-2.06442 0.2819,-4.5 1.9845,-4.5 2.0019,0 3.9839,2.6975 3.2971,4.48727 -0.7497,1.95367 -4.5333,1.9628 -5.2816,0.0127 z m 8.1383,-5.5 c -0.3399,-0.55 -0.1414,-1 0.441,-1 0.5825,0 1.059,0.45 1.059,1 0,0.55 -0.1984,1 -0.4409,1 -0.2426,0 -0.7191,-0.45 -1.0591,-1 z m 21.542,-29.71482 c 0.023,-0.98185 0.9042,-3.36018 1.958,-5.28518 l 1.9162,-3.5 0.042,4.21482 c 0.032,3.21811 -0.431,4.46793 -1.9581,5.28518 -1.6557,0.88615 -1.9928,0.76312 -1.958,-0.71482 z M 509.02681,868.30918 c -0.71916,-0.86653 -0.91689,-2.22296 -0.47376,-3.25 0.41831,-0.9695 0.66145,-2.77523 0.54031,-4.01273 -0.14412,-1.4723 0.32295,-2.25 1.35131,-2.25 0.98762,0 1.57157,0.88249 1.57157,2.375 0,1.30625 0.28125,3.78125 0.625,5.5 0.47816,2.39078 0.27197,3.125 -0.87756,3.125 -0.8264,0 -2.05799,-0.66927 -2.73687,-1.48727 z m 10.53214,-37.44363 c -0.31644,-0.512 -0.11799,-1.21356 0.44098,-1.55902 1.19337,-0.73755 3.01627,0.19857 3.01627,1.54894 0,1.2168 -2.7066,1.22469 -3.45725,0.0101 z m 177.05725,-16.6691 c -0.3558,-0.92744 -0.422,-1.91126 -0.147,-2.18626 0.275,-0.275 0.7912,0.25882 1.147,1.18626 0.3559,0.92744 0.4221,1.91126 0.1471,2.18626 -0.275,0.275 -0.7912,-0.25882 -1.1471,-1.18626 z M 538.6226,704.38001 c 0.3342,-0.87096 1.047,-1.58356 1.584,-1.58356 1.3144,0 0.4913,2.27278 -1.0035,2.77106 -0.7308,0.24358 -0.9543,-0.21359 -0.5805,-1.1875 z"
         id="path3057" />
      <path
         style="fill:#f2bc2e"
         d="m 503.73121,1006.1655 c 0.47509,-2.9277 0.18466,-3.9446 -1.49931,-5.25 -3.09102,-2.39618 -12.21566,-14.15821 -12.21566,-15.74651 0,-1.78412 3.60103,-5.37254 5.39142,-5.37254 1.65783,0 3.79072,-5.08908 5.86756,-14 3.70303,-15.88829 4.01109,-19.94472 2.92555,-38.52258 -0.96322,-16.48441 -1.29908,-18.55877 -4.04418,-24.97742 -1.64655,-3.85 -3.50932,-8.40942 -4.1395,-10.13205 -0.63018,-1.72262 -3.58193,-5.99762 -6.55946,-9.5 -2.97753,-3.50237 -5.41992,-6.75299 -5.42754,-7.22359 -0.008,-0.47061 -1.13885,-2.19263 -2.51385,-3.82673 -1.375,-1.63409 -2.5,-3.65253 -2.5,-4.48541 0,-0.83288 -1.7728,-4.06085 -3.93955,-7.17327 -2.16676,-3.11242 -4.23359,-7.00895 -4.59295,-8.65895 -0.35936,-1.65 -0.86689,-3.7875 -1.12783,-4.75 -0.30476,-1.12413 0.0861,-1.75 1.09294,-1.75 1.07488,0 1.56739,-0.94268 1.56739,-3 0,-1.96797 -0.50391,-3 -1.46482,-3 -1.27987,0 -3.53518,-2.82889 -3.53518,-4.43426 0,-0.31116 1.125,-0.56574 2.5,-0.56574 2.85253,0 2.84093,0.0269 1.50338,-3.4911 -0.73126,-1.92337 -0.62276,-3.34425 0.4075,-5.33656 1.19327,-2.30753 1.19808,-3.08744 0.032,-5.1938 -0.75463,-1.3632 -1.39478,-4.72854 -1.42255,-7.47854 -0.0757,-7.49418 -2.19355,-12.4633 -6.70474,-15.73119 -7.46974,-5.41105 -16.14068,-4.3544 -16.44701,2.00424 -0.0832,1.7272 -0.49587,0.83538 -1.12558,-2.43258 -0.84122,-4.36562 -0.7056,-5.73988 0.88137,-8.9311 2.18802,-4.39983 2.93607,-4.84749 10.72404,-6.4177 6.75767,-1.36249 6.46987,0.43964 2.87324,-17.99167 -3.05676,-15.66469 -3.5327,-39.37023 -1.18367,-58.95661 2.02864,-16.91494 2.26767,-18.13329 5.01129,-25.54339 1.01821,-2.75 2.62665,-7.63965 3.57432,-10.86588 0.94767,-3.22624 2.78413,-7.42949 4.08102,-9.34057 1.29689,-1.91107 3.68382,-6.10114 5.30428,-9.31127 1.62047,-3.21012 3.36055,-6.0926 3.86684,-6.40551 0.5063,-0.31291 1.75387,-2.90167 2.77238,-5.75281 2.73251,-7.64917 15.61287,-21.44085 27.54925,-29.49845 3.68358,-2.48658 9.0624,-7.02169 11.953,-10.07803 3.6044,-3.8111 7.3124,-6.48215 11.8026,-8.50177 3.6008,-1.61965 8.8483,-4.66843 11.6611,-6.77507 5.3453,-4.00338 9.2058,-5.90166 18.3859,-9.04077 7.4084,-2.53325 9.7041,-2.40694 14.3137,0.78755 3.6119,2.50301 4.7208,2.7233 14.0538,2.79185 5.5729,0.0409 11.0575,0.58711 12.1881,1.21373 1.1306,0.62663 4.1331,1.05892 6.6721,0.96065 3.523,-0.13634 5.1679,0.33629 6.9444,1.99534 2.831,2.64388 8.0531,4.66139 21.8279,8.43301 4.6433,1.27138 12.6147,6.59633 17,11.35625 1.375,1.49245 4.585,4.24742 7.1333,6.12217 2.5484,1.87475 4.872,4.42135 5.1636,5.65911 0.2916,1.23776 1.44,4.72547 2.552,7.75047 1.1121,3.025 2.3017,6.80603 2.6438,8.40229 0.342,1.59627 1.9203,4.11523 3.5073,5.59771 1.587,1.48248 3.1915,3.91479 3.5656,5.40513 0.374,1.49034 1.7466,3.40854 3.0502,4.26267 1.3396,0.87776 2.808,3.24409 3.3772,5.44258 0.5539,2.13929 1.4955,5.80212 2.0924,8.13962 0.597,2.3375 1.9991,5.825 3.1157,7.75 3.6743,6.33401 9.4916,28.67877 10.8043,41.5 1.5539,15.17735 1.5557,29.12645 0,33 -1.4477,3.61438 -6.3078,32.56782 -6.2947,37.5 0,1.925 0.077,4.4 0.1592,5.5 0.082,1.1 -0.1382,3.75985 -0.4903,5.91078 l -0.64,3.91077 3.4962,-2.16077 c 6.0993,-3.76954 10.7602,-2.63422 10.7602,2.62101 0,1.25861 -0.2666,1.35154 -1.2,0.41821 -0.66,-0.66 -3.1279,-1.2 -5.4842,-1.2 -3.2796,0 -5.0192,0.65668 -7.4185,2.80051 -2.9071,2.59751 -3.1565,3.34049 -3.4408,10.25 -0.306,7.4385 -3.1446,20.6297 -5.3098,24.67552 -3.0408,5.68169 -3.0891,6.89442 -0.4305,10.80684 2.2376,3.29302 2.375,3.92729 1.0591,4.88953 -0.8317,0.60811 -1.5108,2.44934 -1.5092,4.09163 0,1.64228 -0.7747,5.01097 -1.7252,7.48597 -0.9504,2.475 -2.0532,7.85083 -2.4506,11.94629 l -0.7224,7.4463 -7.1656,6.55441 c -6.3585,5.81629 -7.4291,7.33598 -9.5066,13.49462 -2.6962,7.99287 -5.3961,10.34042 -4.347,3.77967 0.6213,-3.88537 2.5436,-8.54293 6.7636,-16.38718 1.0846,-2.01624 2.0858,-5.62227 2.2247,-8.0134 0.1389,-2.39114 0.5303,-4.79689 0.8697,-5.34612 0.3395,-0.54922 1.1277,-4.81819 1.7516,-9.48659 1.6372,-12.25107 3.9573,-22.6172 6.5996,-29.488 2.2063,-5.73678 3.8468,-14.18979 4.8534,-25.00839 0.2564,-2.75461 0.7286,-5.69253 1.0495,-6.52869 0.8166,-2.12803 -2.1267,-5.91025 -3.2631,-4.19305 -0.4621,0.69843 -1.7082,1.16463 -2.769,1.03599 -2.418,-0.29323 -13.2634,2.99911 -15.9012,4.82715 -2.5852,1.79166 -4.9796,1.73201 -6.5525,-0.16323 -1.1267,-1.35759 -1.4842,-1.30033 -3.1684,0.50752 -1.2845,1.37874 -2.6352,1.85282 -4.1767,1.46593 -1.4335,-0.35978 -2.7656,0.0154 -3.5925,1.01182 -0.9687,1.16716 -2.2641,1.41514 -4.9258,0.94299 -1.9864,-0.35234 -4.0391,-1.03604 -4.5616,-1.51933 -0.5225,-0.48329 -2.0975,-0.89302 -3.5,-0.91051 -1.4025,-0.0175 -3.3738,-0.65617 -4.3807,-1.41928 -1.772,-1.343 -1.7706,-1.4476 0.046,-3.26408 1.3644,-1.36439 3.0924,-1.81554 6.3307,-1.65284 2.4498,0.12308 3.4743,0.004 2.2768,-0.26414 -2.8691,-0.64294 -4.0723,-2.21734 -4.4842,-5.86786 -0.4736,-4.19777 -3.3773,-3.93813 -5.5919,0.5 -1.3199,2.64507 -2.4793,3.58268 -4.7465,3.83849 -4.4357,0.50046 -5.5,1.88635 -5.5,7.16151 0,5.76922 -2.2147,8.45348 -4.454,5.39838 -1.441,-1.96584 -2.0333,-4.1646 -3.5692,-13.24871 -0.7499,-4.43506 -0.5486,-6.37904 1.1765,-11.36388 1.4232,-4.11256 1.9209,-7.43484 1.5743,-10.50958 -0.4672,-4.14498 -0.2816,-4.62406 2.3765,-6.13611 1.5858,-0.90205 2.8861,-1.9776 2.8895,-2.3901 0,-0.4125 0.6614,-0.75 1.4619,-0.75 0.8006,0 2.9668,-1.02549 4.8137,-2.27887 2.9672,-2.01356 4.4567,-2.25868 12.7944,-2.10554 5.19,0.0953 9.8864,0.27411 10.4364,0.39729 2.2741,0.50932 3.5,-0.11494 3.5,-1.78231 0,-1.57285 0.861,-1.72748 7.75,-1.39182 4.2625,0.20769 8.2,0.72026 8.75,1.13904 1.5591,1.1872 8.0511,2.1317 9.8657,1.43535 1.0028,-0.38481 1.6343,-1.77034 1.6343,-3.58587 0,-1.62731 0.5365,-3.94167 1.1922,-5.14301 1.7623,-3.22849 1.3096,-33.80444 -0.5543,-37.44391 -0.7719,-1.50719 -1.7173,-5.05833 -2.1009,-7.89141 -0.4903,-3.62109 -1.4455,-5.84874 -3.2157,-7.5 -1.385,-1.29192 -3.2118,-4.07149 -4.0595,-6.17682 -1.7344,-4.30743 -4.2828,-5.67212 -10.5918,-5.67212 -2.3098,0 -5.768,-0.8381 -7.6849,-1.86244 -3.2498,-1.73669 -4.0253,-1.76671 -11.4852,-0.44462 -4.4,0.7798 -9.6547,1.21511 -11.6772,0.96735 -2.2833,-0.2797 -4.475,0.10829 -5.7817,1.02351 -2.9953,2.09799 -7.4742,3.33159 -15.7346,4.33371 -8.6331,1.04734 -12.8509,3.03114 -13.7083,6.44758 -0.7703,3.06915 -1.8276,3.16451 -5.4437,0.49102 -1.6362,-1.20971 -4.7827,-2.19291 -7.7095,-2.409 -2.7197,-0.2008 -5.7525,-0.6869 -6.7396,-1.08022 -0.987,-0.39332 -4.4067,-0.4196 -7.5992,-0.0584 -3.434,0.38852 -6.9687,0.21407 -8.6553,-0.42717 -1.7876,-0.67964 -5.7917,-0.82733 -10.7364,-0.396 -8.834,0.7706 -11.9014,2.58231 -16.3777,9.6732 -2.2572,3.57576 -2.6265,3.78924 -4.1576,2.40359 -1.2008,-1.08669 -2.1759,-1.24342 -3.4165,-0.54913 -1.0774,0.60294 -2.4052,0.62096 -3.49941,0.0475 -1.9814,-1.03848 -6.26325,0.1971 -6.26325,1.8073 0,0.56772 1.35,1.03222 3,1.03222 2.54833,0 3,0.38358 3,2.54775 0,1.47353 -1.12081,3.58648 -2.65826,5.01134 -2.62728,2.43488 -2.64499,2.54213 -1.51938,9.20225 0.62638,3.70626 1.38911,8.31366 1.69495,10.23866 0.30584,1.925 0.81393,4.72589 1.12909,6.22419 0.32519,1.54597 -0.21606,4.91855 -1.25142,7.7978 -3.05217,8.4878 -3.59568,8.23797 22.60498,10.39085 2.475,0.20336 6.075,0.63216 8,0.95287 1.925,0.32071 6.8396,0.81361 10.9214,1.09533 5.7174,0.39461 7.9395,0.99903 9.6782,2.63252 2.0882,1.96176 2.4235,2.00371 4.4833,0.56094 2.9281,-2.05093 4.7556,-1.01009 9.2774,5.2839 4.5303,6.30577 5.3175,9.24101 3.0788,11.4797 -1.7633,1.76324 -1.7024,4.55626 0.3942,18.0819 0.6344,4.09302 0.3288,6.26977 -1.6849,12 -1.3529,3.85 -3.0659,7.71179 -3.8068,8.58175 -0.7408,0.86996 -1.358,2.66996 -1.3713,4 -0.028,2.74714 -0.011,5.69815 0.082,14.82351 0.045,4.35783 -0.4015,6.87239 -1.3958,7.86666 -1.2819,1.28188 -1.6006,1.20138 -2.5942,-0.65526 -0.6231,-1.16416 -1.9045,-2.09103 -2.8476,-2.05971 -1.6725,0.0555 -8.9768,8.61202 -10.4564,12.24885 -0.4079,1.00248 -1.1954,1.54222 -1.75,1.19943 -3.1926,-1.97314 3.2598,-14.91981 7.4915,-15.03166 2.0276,-0.0536 3.5,-1.65112 3.5,-3.7974 0,-1.21318 0.8669,-3.82324 1.9265,-5.80013 2.2625,-4.22136 1.605,-9.11366 -1.808,-13.45256 -1.1651,-1.48126 -2.1185,-3.53251 -2.1185,-4.55834 0,-1.2972 -0.7239,-1.86514 -2.3775,-1.86514 -2.7404,0 -4.0831,-1.39498 -4.9862,-5.18072 -0.5276,-2.21115 -0.1138,-3.05512 2.3621,-4.8181 3.2809,-2.3362 3.8871,-4.72417 1.4379,-5.66402 -2.9127,-1.11769 -6.4363,1.35944 -6.4363,4.52477 0,3.30265 -1.8766,4.28422 -8.6754,4.53755 -2.2965,0.0856 -4.9965,0.87693 -6,1.75859 -1.1776,1.03465 -2.5337,1.34232 -3.8246,0.86776 -1.1,-0.40439 -3.347,-0.35063 -4.9934,0.11946 -4.8481,1.3843 -7.2862,1.02375 -14.5066,-2.14529 -3.75933,-1.65 -7.78191,-3 -8.93901,-3 -1.15711,0 -3.91623,-1.19939 -6.13137,-2.6653 -4.84727,-3.20777 -6.13427,-2.42775 -8.07835,4.89608 -1.16255,4.37963 -1.09229,4.95189 0.9465,7.70951 2.58839,3.50098 2.77811,5.76594 0.6774,8.08719 -1.36658,1.51006 -1.36503,2.67828 0.015,11.25434 0.84693,5.26316 1.46749,13.55982 1.37902,18.43701 -0.092,5.07419 0.32933,9.78353 0.985,11.00866 0.63022,1.17756 1.14585,3.25735 1.14585,4.62174 0,1.3644 1.8,5.8781 4,10.03046 2.2,4.15236 3.99777,8.80312 3.99505,10.33502 -0.007,3.83978 3.17792,12.39305 4.45811,11.97318 0.57576,-0.18883 1.15635,-2.33336 1.29021,-4.76561 0.49888,-9.06531 1.43072,-14.93272 2.28746,-14.40322 0.48595,0.30033 0.88748,1.76891 0.89229,3.2635 0.0116,3.6104 1.74524,16.11402 2.64114,19.04895 2.12,6.94532 14.2852,27.87733 16.6799,28.70021 1.5925,0.54723 7.6589,9.67526 12.0137,18.07687 2.5604,4.93966 7.8373,4.41737 6.2393,-0.61754 -0.3476,-1.09508 -1.2255,-1.99105 -1.951,-1.99105 -1.3813,0 -3.2135,-8.66602 -2.0732,-9.80628 1.3008,-1.30084 4.04,1.63822 4.3404,4.65713 0.2296,2.30769 0.8171,3.14915 2.1985,3.14915 1.0368,0 3.0835,1.1106 4.5481,2.468 1.4647,1.3574 3.5129,2.73772 4.5515,3.06739 1.0387,0.32966 1.8885,1.19863 1.8885,1.93103 0,1.53359 7.1624,5.53358 9.9084,5.53358 1.0157,0 2.407,0.675 3.0916,1.5 0.6847,0.825 2.0834,1.5 3.1081,1.5 1.0248,0 3.899,0.54448 6.3872,1.20996 3.9108,1.04599 4.9179,0.97718 7.4318,-0.50783 1.5994,-0.94478 4.9772,-2.00139 7.5061,-2.34802 3.9187,-0.53712 4.6819,-1.01612 5.166,-3.24217 1.1085,-5.09846 1.3774,-5.53535 2.6336,-4.27916 1.4258,1.42582 5.7672,1.5517 5.7672,0.16722 0,-0.55 0.45,-1 1,-1 0.55,0 1,0.675 1,1.5 0,0.825 0.8394,1.5 1.8652,1.5 2.2914,0 7.1348,-3.6777 7.1348,-5.41759 0,-0.69984 0.8745,-2.06384 1.9434,-3.03111 1.0688,-0.96728 2.2507,-3.17452 2.6263,-4.90499 0.3757,-1.73047 1.9249,-4.72131 3.4426,-6.64631 1.5177,-1.925 3.7574,-5.41475 4.9772,-7.75499 1.2197,-2.34025 2.6196,-4.50339 3.1108,-4.80699 0.4913,-0.3036 1.8051,-2.67174 2.9196,-5.26255 1.9129,-4.44653 2.2493,-4.71639 6.0033,-4.81482 2.1873,-0.0574 3.9768,0.22363 3.9768,0.62441 0,0.40079 -2.3202,3.8306 -5.1561,7.62182 -6.8466,9.15298 -11.8439,19.68572 -11.8439,24.96312 0,6.78384 3.6357,22.0543 6.9237,29.08057 3.2331,6.90886 3.6899,8.36626 2.1314,6.79943 -1.8095,-1.81917 -7.0551,-12.42501 -7.0551,-14.26444 0,-1.01872 -0.3206,-2.17289 -0.7125,-2.56482 -0.392,-0.39193 -1.6899,-3.02431 -2.8843,-5.84974 l -2.1716,-5.13716 -2.8658,4.56471 c -3.3472,5.33152 -19.2859,20.20767 -24.3658,22.74136 -1.925,0.96014 -5.75,2.33649 -8.5,3.05856 -7.373,1.93595 -10.5,3.75045 -10.5,6.09295 0,2.55029 -1.7434,5.90858 -3.0674,5.90858 -0.5483,0 -1.3692,-1.00615 -1.8241,-2.23589 -0.7721,-2.08715 -0.972,-1.95181 -3.0056,2.0343 -2.4591,4.82024 -1.9907,6.64125 1.4839,5.76916 2.2098,-0.55462 2.3274,-0.37571 1.7537,2.66898 -0.8335,4.4232 -3.081,6.7635 -6.4954,6.7635 -1.5648,0 -2.8451,0.4591 -2.8451,1.0202 0,0.6697 -7.1316,0.9274 -20.75,0.75 -15.953,-0.2078 -20.6922,-0.5592 -20.5,-1.5202 0.1375,-0.6875 -0.4515,-1.25 -1.309,-1.25 -0.8574,0 -1.31,0.4028 -1.0057,0.8952 1.0377,1.679 -2.5941,2.1048 -17.95418,2.1048 l -15.35534,0 0.58923,-3.631 z m 69.19419,-19.16708 c 4.2832,-2.13839 5.9476,-4.6202 4.5666,-6.80952 -1.3187,-2.0906 -8.8408,-4.9179 -15.3985,-5.78782 l -5.1834,-0.6876 0.6664,3.55245 c 0.4292,2.28808 0.2195,4.09101 -0.5894,5.06565 -1.6155,1.9465 -1.4502,2.07492 5.5977,4.35028 7.3206,2.36336 6.3031,2.33221 10.3406,0.31656 z m -44.9092,-4.14295 c 0,-1.61754 -0.3856,-3.17935 -0.857,-3.47069 -0.4714,-0.29133 -1.1161,-2.90539 -1.4326,-5.80901 -0.3165,-2.90363 -1.5373,-7.23524 -2.7129,-9.62581 -1.1756,-2.39058 -1.8857,-5.00226 -1.5782,-5.80374 0.3076,-0.80148 0.099,-1.99555 -0.4641,-2.6535 -0.5629,-0.65795 -1.63989,-2.08689 -2.39341,-3.17543 -1.34769,-1.94686 -1.40216,-1.9395 -3.33784,0.45097 -1.95717,2.41701 -1.95714,2.46549 0.006,8.97916 1.0857,3.60197 2.28414,8.12403 2.66319,10.04903 0.48344,2.45518 1.19927,3.45854 2.39796,3.36111 2.1214,-0.17243 2.1977,0.98818 0.1754,2.66654 -1.36302,1.13121 -1.30749,1.51289 0.5,3.43689 1.1183,1.1904 2.0333,2.69786 2.0333,3.34991 0,0.65205 1.125,1.18555 2.5,1.18555 2.1,0 2.5,-0.4706 2.5,-2.94098 z m 50,-19.55902 c 0,-0.83333 -0.8888,-1.5 -2,-1.5 -1.9922,0 -2.6011,1.06554 -1.3333,2.33333 1.2179,1.21793 3.3333,0.68908 3.3333,-0.83333 z m -10.1051,-1.87325 c 1.4814,-1.78504 0.3693,-4.62675 -1.8107,-4.62675 -2.7284,0 -5.4851,2.51284 -4.778,4.35539 0.7658,1.99567 5.0124,2.17057 6.5887,0.27136 z M 553.3539,790.62285 c 0.5394,-0.855 0.6693,-2.36597 0.2887,-3.35769 -0.9351,-2.43681 -3.1084,-0.31587 -3.173,3.09651 -0.05,2.65303 1.2986,2.77517 2.8843,0.26118 z m 10.6623,0.1736 c 0,-1.26441 -2.0434,-1.26441 -4,0 -1.1688,0.75538 -0.8929,0.97275 1.25,0.98469 1.5125,0.008 2.75,-0.43469 2.75,-0.98469 z m 62,0 c 0,-0.55 -1.8,-1 -4,-1 -2.2,0 -4,0.45 -4,1 0,0.55 1.8,1 4,1 2.2,0 4,-0.45 4,-1 z m -161.61708,-4.75478 c -1.28796,-2.04184 -4.41105,-3.01134 -10.13288,-3.14554 -3.15541,-0.074 -4.25,0.28664 -4.25,1.40032 0,0.96334 0.98388,1.50938 2.75,1.52622 1.5125,0.0144 4.55,0.85596 6.75,1.87009 4.39057,2.02389 6.70694,1.24064 4.88288,-1.65109 z m 223.61708,-8.74522 c 0,-0.825 -0.675,-1.5 -1.5,-1.5 -0.825,0 -1.5,0.675 -1.5,1.5 0,0.825 0.675,1.5 1.5,1.5 0.825,0 1.5,-0.675 1.5,-1.5 z m -26.5602,-2.40259 c 0.6113,-0.98897 -4.5994,-3.09741 -7.6547,-3.09741 -1.0541,0 -2.8995,0.55032 -4.1008,1.22294 -2.0975,1.17436 -2.0452,1.24859 1.3157,1.86836 5.4111,0.99783 9.8253,1.00041 10.4398,0.006 z m 25.5602,-16.59741 c 0,-4.24461 -2.41,-6.47077 -3.9302,-3.63031 -1.4115,2.63737 -1.3603,6.43977 0.1065,7.90652 1.8059,1.80592 3.8237,-0.45069 3.8237,-4.27621 z m -74,250.50005 c -1.2458,-0.8052 -1.1611,-0.9788 0.5,-1.0248 1.6385,-0.045 1.4578,-0.3644 -1,-1.7653 l -3,-1.7099 3.0828,-0.3009 c 2.3967,-0.234 3.6931,-1.2666 5.8255,-4.64014 1.9706,-3.1175 3.6112,-4.5129 5.827,-4.95606 3.841,-0.7682 4.2259,-0.38141 3.9341,3.95252 -0.3668,5.44528 3.7415,6.25378 11.5478,2.27248 1.8868,-0.96229 2.5149,-0.77303 4.2167,1.2707 1.0998,1.3207 2.0146,3.3764 2.0329,4.568 0.018,1.1917 0.5957,2.3937 1.2832,2.6711 0.6875,0.2774 -3.1,0.5399 -8.4166,0.5833 -6.8823,0.056 -9.7987,-0.2811 -10.125,-1.171 -0.3667,-1 -0.7234,-1 -1.7834,0 -1.5611,1.4727 -11.7498,1.6557 -13.925,0.25 z m 60.6667,-9.66672 c -0.3667,-0.36666 -0.6667,-1.49166 -0.6667,-2.5 0,-1.27707 0.7407,-1.83333 2.441,-1.83333 3.1582,0 3.9907,1.42552 1.9968,3.41938 -1.7107,1.71068 -2.7278,1.95717 -3.7711,0.91395 z M 587.503,927.75466 c -0.4237,-1.33502 -1.2271,-1.85802 -2.3208,-1.5109 -0.9199,0.292 -3.2306,-0.41654 -5.1347,-1.57452 l -3.4621,-2.10542 2.5918,-2.22939 c 2.1666,-1.86363 4.2117,-2.32602 12.4654,-2.81845 11.1527,-0.66538 14.339,0.24887 15.4462,4.43209 0.659,2.48981 0.4189,2.72326 -3.9353,3.82557 -2.5505,0.64568 -6.115,1.81495 -7.9212,2.59838 -4.551,1.97403 -6.9681,1.78096 -7.7293,-0.61736 z m -19.4868,-20.44444 c -2.475,-0.6809 -7.7893,-2.42505 -11.8096,-3.87589 -4.7224,-1.70424 -9.3572,-2.63788 -13.095,-2.63788 -6.1984,0 -7.594,-0.88752 -9.902,-6.29705 -2.5988,-6.09116 -1.1348,-7.96848 8.127,-10.42136 4.3511,-1.15235 5.2903,-1.07449 9.6471,0.79978 4.5047,1.93786 5.0305,1.97105 7.88,0.49751 4.067,-2.10315 5.0444,-1.99644 6.1468,0.67112 0.8147,1.97157 0.9181,1.81688 0.835,-1.25 -0.052,-1.925 0.4283,-4.80186 1.0676,-6.39303 1.0973,-2.73088 0.9085,-3.13628 -3.3672,-7.23317 -3.4128,-3.27001 -4.5297,-5.084 -4.5297,-7.35698 0,-2.9829 2.1406,-4.21639 3.5,-2.01682 0.349,0.56457 5.2185,1 11.1832,1 9.9312,0 11.0302,0.20999 18.3168,3.5 4.2635,1.925 8.8471,3.5 10.1859,3.5 1.3388,0 5.6312,-1.575 9.5387,-3.5 12.4861,-6.15119 15.8711,-4.05148 7.6455,4.74242 -4.5678,4.88334 -4.6225,5.02222 -4.0737,10.3402 0.306,2.96471 0.1364,5.64991 -0.3768,5.96711 -1.2392,0.76588 -6.9196,-3.32863 -6.9196,-4.98777 0,-1.82742 -8.184,-2.58223 -15.3991,-1.42027 -4.0093,0.64567 -6.2441,0.6151 -6.9543,-0.0951 -0.5756,-0.5756 -2.73,-1.04655 -4.7875,-1.04655 -2.0576,0 -4.007,-0.43035 -4.3321,-0.95633 -1.2213,-1.9761 -3.7163,0.18564 -3.2187,2.78876 0.6066,3.1731 -1.8911,7.16753 -4.4819,7.16753 -1.9302,0 -9.8264,5.67234 -9.8264,7.05896 0,1.14769 4.7533,2.07319 15,2.92061 5.225,0.43212 11.4002,1.50703 13.7227,2.3887 2.8928,1.09818 4.9565,1.32402 6.5528,0.71712 1.2815,-0.48726 7.7063,-1.63699 14.2773,-2.55497 15.9886,-2.23363 18.4472,-3.04771 18.4472,-6.10797 0,-2.82969 1.736,-3.16578 3.5486,-0.68699 0.8749,1.19661 2.5393,1.70215 5.3602,1.62819 2.8522,-0.0748 4.0912,0.30817 4.0912,1.26453 0,0.7545 -1.0125,1.37815 -2.25,1.38589 -1.2375,0.008 -5.625,1.86996 -9.75,4.13829 -7.4717,4.10867 -7.549,4.12619 -20.5,4.6431 -7.15,0.28538 -16.801,0.45441 -21.4467,0.37561 -5.9897,-0.10159 -9.1065,0.28902 -10.7148,1.34284 -1.2475,0.81735 -2.3964,1.43024 -2.5533,1.36198 -0.1568,-0.0683 -2.3102,-0.68121 -4.7852,-1.36212 z m 74.5428,-22.44467 c -0.3165,-0.512 -0.118,-1.21356 0.4409,-1.55902 0.559,-0.34546 1.0163,0.0734 1.0163,0.9309 0,1.75653 -0.6,2.01516 -1.4572,0.62812 z M 465.47512,839.72992 c -0.36253,-0.58659 -0.44468,-1.281 -0.18255,-1.54313 0.26212,-0.26213 0.74306,0.21781 1.06875,1.06653 0.67618,1.76211 0.0999,2.07206 -0.8862,0.4766 z m -5.94592,-21.24091 c -1.68245,-5.78742 -1.17755,-9.63149 0.80075,-6.09648 1.53085,2.73549 2.50734,9.07543 1.61916,10.51254 -0.48325,0.78191 -1.3897,-0.87226 -2.41991,-4.41606 z"
         id="path3055" />
      <path
         style="fill:#7c7616;fill-opacity:1"
         d="m 503.01624,1008.7965 c 0,-0.55 0.45,-1 1,-1 2.28883,0 0.86518,-5.2666 -2.25,-8.32366 -6.96562,-6.83553 -10.75,-12.12024 -10.75,-15.01187 0,-0.80683 1.52306,-2.3656 3.38459,-3.46392 3.9794,-2.34791 6.5126,-8.94768 9.2214,-24.0246 1.45261,-8.08509 1.54048,-11.93845 0.66129,-29 -0.95966,-18.62302 -1.17732,-20.05061 -4.06729,-26.676 -1.67935,-3.85 -3.56952,-8.41077 -4.20038,-10.13505 -0.63087,-1.72428 -2.78662,-4.87428 -4.79058,-7 -3.23204,-3.42844 -6.43619,-8.47578 -10.38877,-16.36495 -1.33113,-2.65688 -5.51576,-8.64804 -7.53098,-10.78215 -0.66589,-0.70518 -1.50819,-2.86784 -1.87178,-4.80591 -0.53319,-2.84215 -0.22705,-3.98577 1.58263,-5.91208 1.93765,-2.06253 2.15012,-3.0438 1.55772,-7.19408 -0.37728,-2.64318 -1.19164,-6.25197 -1.80969,-8.01954 -0.95956,-2.74426 -0.84592,-3.52073 0.77786,-5.31499 1.87211,-2.06866 1.86723,-2.16612 -0.31499,-6.28624 -1.21912,-2.30176 -2.21534,-5.69075 -2.21381,-7.5311 0.002,-1.84035 -0.67743,-5.68593 -1.50879,-8.54573 -1.33898,-4.60591 -2.11528,-5.56552 -6.7986,-8.40391 -5.8679,-3.55632 -10.92067,-4.13174 -14.46732,-1.64757 -2.16479,1.51628 -2.22251,1.46931 -2.22251,-1.80887 0,-3.06814 2.89395,-8.91595 2.9682,-5.99783 0.0196,0.77091 1.46906,1.25253 3.7818,1.25659 2.0625,0.004 5.1,0.90066 6.75,1.99341 4.16479,2.75823 6.5,2.59898 6.5,-0.4433 0,-2.64864 -3.28739,-5.5567 -6.28152,-5.5567 -1.01008,0 -1.5584,-0.45 -1.21848,-1 0.33992,-0.55 1.72505,-1 3.07807,-1 2.66579,0 2.65498,0.27275 0.37649,-9.5 -2.77452,-11.90031 -4.11407,-22.73445 -3.88434,-31.41634 0.13947,-5.27101 -0.10521,-10.8696 -0.54374,-12.4413 -0.47014,-1.685 -0.0969,-9.07136 0.90962,-18 1.97642,-17.53291 3.02192,-23.2279 5.53361,-30.14236 0.99894,-2.75 2.73704,-7.96357 3.86244,-11.5857 1.12541,-3.62214 3.36705,-8.79714 4.98143,-11.5 1.61439,-2.70287 4.12391,-6.9393 5.57672,-9.4143 1.45282,-2.475 3.04617,-5.175 3.54078,-6 0.49461,-0.825 2.01849,-4.00694 3.3864,-7.07097 1.3679,-3.06403 3.60516,-6.30355 4.97169,-7.19893 1.36652,-0.89538 3.4104,-3.12597 4.54195,-4.95685 1.99881,-3.23414 8.23593,-8.6741 15.79156,-13.77325 2.0374,-1.375 6.94823,-5.55775 10.91298,-9.29501 4.7127,-4.44235 9.7263,-8.00158 14.4803,-10.27986 3.9994,-1.91667 8.8944,-4.76263 10.8778,-6.32434 5.0138,-3.94778 12.6025,-7.58439 19.1062,-9.15598 6.7413,-1.62899 9.523,-1.3574 13.0873,1.2778 2.1713,1.60533 5.1489,2.21321 14.0831,2.87511 19.2325,1.42485 24.4846,2.28003 26.7842,4.36118 2.3011,2.08245 5.4202,3.35755 17.0454,6.96833 7.069,2.19558 18,8.01804 18,9.58773 0,0.3938 3.375,3.5077 7.5,6.91978 4.125,3.41209 7.5021,6.73512 7.5047,7.38453 0,0.6494 1.1168,3.88073 2.4762,7.18073 1.3594,3.3 2.4823,6.96992 2.4954,8.15539 0.013,1.18546 1.4862,3.9459 3.2737,6.1343 1.7875,2.18841 4.0209,5.26849 4.963,6.84462 0.9421,1.57613 2.6253,3.99069 3.7405,5.36569 1.1151,1.375 2.4847,4.975 3.0434,8 0.5587,3.025 2.1834,7.75 3.6104,10.5 9.158,17.64838 15.3583,59.32661 11.1066,74.65845 -0.8147,2.93785 -2.0163,8.94155 -2.6704,13.34155 -0.654,4.4 -1.8453,11.48931 -2.6475,15.75403 -0.8022,4.26471 -1.3966,9.88971 -1.321,12.5 0.1599,5.52174 -1.3443,12.91534 -2.9554,14.5264 -0.6158,0.61577 -1.1196,4.21821 -1.1196,8.00544 0,7.4418 -2.0208,17.25372 -5.1929,25.21413 -2.8921,7.25759 -3.1169,8.27882 -2.2534,10.23506 1.33,3.0129 1.2921,14.14298 -0.046,13.62934 -0.7863,-0.30173 -1.1739,0.96844 -1.1739,3.84689 0,2.36354 -0.6015,5.42041 -1.3366,6.79303 -0.7577,1.41471 -1.2294,4.81594 -1.0892,7.85256 0.1675,3.62604 -0.1007,5.14173 -0.8301,4.69099 -0.5926,-0.36625 -1.0775,-1.76435 -1.0775,-3.10689 0,-1.34254 -0.3975,-2.44098 -0.8833,-2.44098 -1.3863,0 -2.0748,3.97994 -1.122,6.486 1.0842,2.85173 -0.6709,5.53544 -5.4734,8.36895 -3.7821,2.23148 -4.1054,2.10508 -2.4634,-0.96301 0.5818,-1.08712 2.1627,-10.55749 3.5132,-21.04528 1.6313,-12.66897 3.3114,-21.46464 5.006,-26.20768 4.6125,-12.91047 6.4896,-23.99167 6.7996,-40.14147 0.1719,-8.94955 0.7583,-15.88125 1.4537,-17.18055 0.9126,-1.70512 0.8768,-2.46696 -0.1647,-3.50849 -1.7442,-1.74417 -2.8681,-11.20598 -1.4943,-12.57978 1.0867,-1.08672 0.7706,-5.38064 -1.158,-15.72869 -0.615,-3.3 -1.502,-12.3 -1.9712,-20 -0.714,-11.71922 -1.3632,-15.46011 -3.985,-22.96254 -1.7225,-4.9294 -3.7285,-9.6544 -4.4577,-10.5 -0.7291,-0.8456 -2.1316,-3.69618 -3.1165,-6.33463 -2.3027,-6.16871 -3.8629,-6.9612 -10.9159,-5.54475 -4.8412,0.97226 -6.0661,0.88947 -8.8433,-0.59773 -2.8351,-1.5182 -4.0676,-1.58582 -10.2238,-0.56099 -3.85,0.64091 -9.475,1.24075 -12.5,1.33297 -3.1036,0.0946 -6.5892,0.87294 -8,1.78638 -1.375,0.89029 -7.6668,2.60245 -13.9818,3.80482 -11.0663,2.10699 -15.0182,3.8783 -15.0182,6.73146 0,1.69323 -0.9034,1.70685 -2.9212,0.044 -1.8927,-1.55969 -10.8703,-3.94587 -12.0658,-3.207 -0.4648,0.28726 -2.0131,0.0782 -3.4407,-0.46455 -1.7588,-0.6687 -4.1715,-0.62309 -7.4838,0.14149 -3.9534,0.91253 -5.6246,0.84669 -8.7383,-0.34428 -5.9206,-2.26452 -18.1709,-1.08397 -22.5177,2.17001 -2.7615,2.06728 -4.5317,2.51374 -10.3325,2.60592 -12.93856,0.2056 -12.78375,0.16255 -15.68756,4.36305 -4.43773,6.41941 -5.37601,11.01703 -3.45004,16.90534 2.06348,6.30874 2.09988,6.00477 -0.85349,7.12764 -1.62778,0.61888 -2.50371,1.73665 -2.52744,3.22525 -0.02,1.25296 -0.23246,6.50104 -0.47219,11.66239 -0.50993,10.97841 0.37452,13.6127 4.24431,12.64145 2.15183,-0.54008 3.20778,0.0268 6.25095,3.35603 l 3.66174,4.00589 15.41692,0.65969 c 34.928,1.4946 33.082,1.26392 36.5088,4.56238 2.728,2.62595 3.2426,2.79461 4.3724,1.43323 1.5455,-1.86217 4.4231,-2.00804 5.779,-0.29294 1.545,1.95418 2.4137,6.7641 2.2685,12.55947 -0.073,2.9202 0.629,7.60378 1.5604,10.40795 1.5801,4.75725 1.5829,5.44901 0.043,10.33559 -1.1555,3.66552 -2.6758,6.01881 -5.0661,7.84204 -3.9192,2.98933 -5.1024,3.21052 -5.9104,1.10495 -0.3166,-0.825 -1.7147,-1.5 -3.107,-1.5 -3.1685,0 -3.4222,-2.88383 -0.4873,-5.53984 1.1242,-1.01739 1.9117,-2.77464 1.75,-3.90499 -0.2622,-1.8326 -0.9979,-2.05515 -6.7941,-2.05515 l -6.5,0 -0.5,-3.99032 c -0.545,-4.34967 -3.5254,-6.19525 -4.576,-2.83359 -2.1539,6.89257 -3.4309,8.47553 -6.6935,8.29753 -5.4786,-0.29891 -6.2693,-0.11246 -4.982,1.17479 0.8645,0.86455 2.5618,0.86455 6.8667,0 7.6286,-1.53203 7.5637,-1.54636 7.2013,1.58975 -0.2619,2.26586 -0.9202,2.83786 -3.8165,3.31615 -1.925,0.3179 -4.5013,1.21201 -5.7251,1.9869 -1.9886,1.25908 -2.3861,1.19888 -3.7375,-0.56616 -1.4925,-1.9491 -1.537,-1.94359 -3.3876,0.41877 -2.0488,2.61532 -4.1498,2.13292 -4.1498,-0.95284 0,-2.06028 -1.4669,-2.61244 -2.5,-0.94098 -0.9728,1.57414 -4.5,1.1673 -4.5,-0.51905 0,-1.13459 -0.6547,-1.35473 -2.5869,-0.86978 -2.3934,0.60072 -4.70989,-0.12598 -14.41306,-4.52149 -1.375,-0.62287 -4.02905,-2.24786 -5.89788,-3.61109 -3.80974,-2.77902 -6.31574,-3.12211 -8.30133,-1.13653 -0.73813,0.73814 -2.28489,1.84666 -3.43724,2.46338 -3.16419,1.69342 -3.92242,9.76035 -1.26526,13.46137 1.68931,2.35295 1.83136,3.32521 0.94965,6.5 -1.39801,5.03388 -1.31538,9.56599 0.20206,11.08207 1.96054,1.95878 5.86802,22.33649 5.87745,30.65112 0.002,2.2 0.61923,5.83808 1.37053,8.08462 0.89849,2.6867 1.09339,5.29333 0.56946,7.61635 -0.43809,1.94245 -0.41333,4.21648 0.055,5.05339 0.49522,0.8849 0.38585,2.85761 -0.26134,4.71416 -0.79257,2.27357 -0.80693,3.81697 -0.0499,5.36199 0.58467,1.19322 1.36428,3.23755 1.73247,4.54296 1.02578,3.63696 4.51575,9.12607 5.80505,9.13034 1.14897,0.004 8.44001,8.86451 10.57178,12.84775 0.6189,1.15643 1.94693,2.54234 2.95117,3.07979 1.68029,0.89927 1.79249,0.56218 1.40739,-4.22708 l -0.41849,-5.20427 2.04819,2.5 c 1.1265,1.375 3.6491,5.425 5.6058,9 12.6863,23.17894 18.0004,30.32005 24.9854,33.5752 4.4441,2.07104 8.8508,6.04813 8.0812,7.29335 -0.3705,0.59956 -0.1871,1.99942 0.4077,3.11078 1.2803,2.39231 5.2183,2.67058 7.3682,0.52067 2.2354,-2.23541 4.3463,-1.8177 5.0535,1 0.6379,2.54151 3.8575,3.49318 5.0871,1.50367 0.3868,-0.6259 1.7343,-0.41791 3.6243,0.55942 4.0098,2.07356 19.8889,1.22379 28.878,-1.54541 3.575,-1.10132 7.7271,-2.00584 9.2269,-2.01004 1.7505,-0.005 3.2764,-0.84617 4.2613,-2.34935 1.8725,-2.85777 9.4421,-9.06127 10.1694,-8.33404 2.1759,2.17597 -9.7058,15.16161 -19.9088,21.75838 -6.6591,4.30548 -12.451,5.91445 -22.8317,6.3425 -6.1174,0.25225 -8.3102,-0.10866 -12.5136,-2.05964 -2.803,-1.30102 -5.82,-2.36549 -6.7045,-2.36549 -0.8844,0 -4.6659,-1.16685 -8.4035,-2.593 -18.0814,-6.89944 -22.885,-7.79081 -26.6427,-4.94388 -2.1108,1.59923 -4.6528,1.00288 -4.6528,-1.09155 0,-0.77795 -1.1026,-1.91683 -2.4502,-2.53084 -1.3476,-0.61402 -2.9339,-2.29188 -3.525,-3.72857 -1.3411,-3.25934 -7.5132,-14.76842 -8.79513,-16.4002 -0.52366,-0.66658 -1.22173,-2.96399 -1.55127,-5.10536 -0.32954,-2.14136 -1.46434,-4.84136 -2.52179,-6 -1.05744,-1.15863 -2.66182,-3.5691 -3.56528,-5.3566 -0.90346,-1.7875 -2.05288,-3.25 -2.55427,-3.25 -1.53803,0 -0.0489,36.11011 1.59769,38.74346 0.77156,1.2339 1.56443,3.63146 1.76196,5.3279 0.19752,1.69644 0.86407,3.58938 1.48123,4.20654 0.61715,0.61715 1.13813,2.4946 1.15772,4.1721 0.0515,4.4066 2.58671,14.39001 4.12497,16.2435 1.19423,1.43896 2.28967,4.66689 4.77017,14.05655 l 0.8586,3.25 -10.39467,0 c -6.26313,0 -10.39469,-0.3975 -10.39469,-1 z M 534.562,796.72242 c 0.6428,-1.04016 -3.1605,-5.92597 -4.6131,-5.92597 -2.0334,0 -1.8492,3.55708 0.2686,5.18667 2.6904,2.07027 3.4428,2.19829 4.3445,0.7393 z m 30.4542,-5.92597 c 0,-2.25974 -0.748,-2.42648 -4.495,-1.00187 -3.2754,1.24529 -2.366,3.00187 1.5541,3.00187 2.2743,0 2.9409,-0.45336 2.9409,-2 z m -24.8125,-12.68311 c -0.7218,-0.28887 -1.5843,-0.25335 -1.9166,0.0789 -0.3323,0.33229 0.2583,0.56864 1.3125,0.52522 1.1649,-0.048 1.4019,-0.28494 0.6041,-0.60416 z m -4.9375,-3.97917 c -0.6875,-0.27741 -1.8125,-0.27741 -2.5,0 -0.6875,0.27741 -0.125,0.50439 1.25,0.50439 1.375,0 1.9375,-0.22698 1.25,-0.50439 z m -6.519,235.00633 c 0.677,-0.2739 2.027,-0.2906 3,-0.037 0.973,0.2536 0.419,0.4777 -1.231,0.4981 -1.65,0.02 -2.446,-0.1871 -1.769,-0.461 z m 9.8393,-0.2304 c -0.6319,-1.0224 2.3275,-1.9908 4.1797,-1.3676 0.6875,0.2314 1.25,0.8331 1.25,1.3373 0,1.1762 -4.7052,1.2025 -5.4297,0.03 z m -7.5703,-2.3067 c 0,-3.462 5.6061,-5.1915 7.8936,-2.4352 0.9085,1.0947 0.5797,1.4846 -1.6275,1.93 -1.5213,0.307 -3.5536,0.8629 -4.5161,1.2352 -1.1582,0.4481 -1.75,0.2013 -1.75,-0.73 z m 112.4445,-54.25139 c -0.3765,-2.00685 -0.4595,-3.87382 -0.1845,-4.14882 0.275,-0.275 0.808,1.14197 1.1845,3.14882 0.3765,2.00684 0.4595,3.87381 0.1845,4.14881 -0.275,0.275 -0.808,-1.14197 -1.1845,-3.14881 z m -1.6868,-9.05556 c -0.6838,-3.55076 2.8169,-15.07882 5.4438,-17.92723 2.9952,-3.24763 3.0788,-1.0543 0.1745,4.5778 -1.5172,2.94218 -3.272,7.82443 -3.8996,10.84943 -1.0352,4.98977 -1.1946,5.22169 -1.7187,2.5 z m -49.7251,-20.56077 c 1.2461,-2.3284 3.3043,-2.11468 3.7908,0.39364 0.2352,1.21273 -0.3877,1.66713 -2.2852,1.66713 -2.3243,0 -2.4883,-0.22455 -1.5056,-2.06077 z m 61.8105,-5.43923 c 2.6028,-4.98394 6.1051,-9.41337 6.1347,-7.75865 0.012,0.68274 -1.6026,3.38274 -3.5885,6 -4.7858,6.30745 -4.9983,6.45422 -2.5462,1.75865 z m -86.3431,-11.42826 c -2.2,-0.39319 -7.15,-1.859 -11,-3.25736 -3.85,-1.39836 -8.7111,-2.85348 -10.8025,-3.2336 -3.9756,-0.72258 -5.9396,-3.19506 -3.658,-4.60515 0.7319,-0.45238 2.9059,-1.118 4.831,-1.47915 2.819,-0.52884 3.8047,-0.26181 5.0648,1.37209 2.0399,2.64482 6.1586,4.13143 11.4462,4.13143 2.3382,0 6.6964,0.40487 9.6849,0.8997 20.6005,3.41104 19.6902,3.35236 27.2075,1.75374 3.9744,-0.84519 11.2374,-2.03955 16.14,-2.65412 4.9026,-0.61458 10.2206,-1.79315 11.8177,-2.61905 1.5971,-0.8259 3.8565,-1.36183 5.0208,-1.19095 1.6432,0.24114 0.6979,1.15081 -4.2229,4.06395 -3.487,2.06429 -7.9576,4.17581 -9.9347,4.69225 -1.9771,0.51644 -12.5162,1.18992 -23.4203,1.49663 -10.904,0.3067 -20.804,0.73468 -22,0.95106 -1.1959,0.21637 -3.9745,0.0717 -6.1745,-0.32147 z m 95.5154,-4.26272 c -0.01,-0.93004 0.4346,-1.9691 0.9846,-2.30902 1.2656,-0.78218 1.2656,0.54163 0,2.5 -0.8354,1.29269 -0.9714,1.26629 -0.9846,-0.19098 z m 2.1252,-4.80902 c 0,-0.825 0.3868,-2.4 0.8594,-3.5 0.5418,-1.26064 0.8595,-1.44548 0.8595,-0.5 0,0.825 -0.3868,2.4 -0.8595,3.5 -0.5417,1.26064 -0.8594,1.44548 -0.8594,0.5 z m -73.6383,-19.5754 c -1.6488,-0.8597 -3.7092,-2.20692 -4.5788,-2.99384 -0.8695,-0.78692 -2.3064,-1.43076 -3.1932,-1.43076 -0.8867,0 -1.8428,-0.3731 -2.1246,-0.82911 -1.0418,-1.68566 -11.1781,-3.47005 -13.2904,-2.33962 -1.9996,1.07015 -5.6253,-0.5018 -7.5499,-3.27331 -1.5527,-2.23584 -0.4825,-2.55779 8.4846,-2.55238 11.255,0.007 14.9363,0.95517 21.3171,5.49181 7.0075,4.9821 11.9629,4.49297 21.9196,-2.16356 5.1323,-3.43123 8.8464,-4.22206 10.1235,-2.1556 0.4254,0.68824 -0.2156,1.8319 -1.5412,2.75 -1.2482,0.86448 -4.1368,3.16624 -6.4192,5.11503 -2.2824,1.94879 -5.4084,4.08629 -6.9468,4.75 -3.9186,1.6906 -12.6316,1.49233 -16.2007,-0.36866 z m 49.4977,-74.34513 c -1.375,-0.37284 -4.075,-1.42563 -6,-2.33954 l -3.5,-1.66165 7.191,-0.0391 c 3.9551,-0.0215 7.4691,-0.48914 7.809,-1.03914 0.34,-0.55 -0.1809,-1 -1.1575,-1 -0.9766,0 -3.6788,-0.72683 -6.0049,-1.61517 -3.3109,-1.26447 -4.37,-2.25625 -4.8777,-4.56757 -0.7652,-3.48396 -2.7565,-4.509 -5.7773,-2.97391 -1.2004,0.61001 -4.2037,1.2323 -6.6739,1.38288 -3.3496,0.20417 -4.5758,0.71866 -4.8234,2.02377 -0.2355,1.24192 0.3426,1.77618 1.9914,1.84019 1.8733,0.0727 1.6938,0.27195 -0.9267,1.02859 -1.7875,0.51612 -3.25,1.54544 -3.25,2.28737 0,0.74193 -0.6259,1.86846 -1.391,2.5034 -1.1189,0.92862 -1.6079,0.53216 -2.5,-2.02677 -1.7689,-5.0743 -1.2996,-10.49739 1.391,-16.07484 1.375,-2.85023 2.5,-6.21353 2.5,-7.47398 0,-2.72687 10.0553,-13.05873 13.5669,-13.94009 1.2779,-0.32073 4.4856,-0.16035 7.1283,0.35639 5.0799,0.99332 15.3048,0.55222 15.3048,-0.66024 0,-0.39433 2.9745,-0.74494 6.6099,-0.77914 6.8129,-0.0641 21.2437,4.11411 24.1104,6.98076 1.9662,1.96623 3.38,12.3072 2.3247,17.00396 -1.0848,4.82791 -6.593,10.73966 -13.2617,14.23334 -6.7653,3.54422 -14.7833,3.26572 -14.7833,-0.51352 0,-0.97382 -0.6018,-2.27005 -1.3374,-2.88053 -1.0224,-0.84856 -1.8877,-0.52414 -3.6743,1.37756 l -2.3369,2.48751 3.1743,0 c 5.5442,0 3.6469,4.26895 -2.3257,5.23294 -1.65,0.26631 -3.675,0.71825 -4.5,1.0043 -0.825,0.28606 -2.625,0.21506 -4,-0.15777 z m -23.2289,-16.89265 c 0.2436,-0.73075 -0.2136,-0.95424 -1.1875,-0.58051 -0.871,0.33422 -1.5836,1.04702 -1.5836,1.58401 0,1.31439 2.2728,0.49134 2.7711,-1.0035 z m 56.2289,-5.68682 c 0,-1.375 -0.3651,-2.5 -0.8114,-2.5 -0.4463,0 -1.8069,-0.92738 -3.0235,-2.06084 -3.3129,-3.08644 -8.5283,-4.93983 -13.8829,-4.93358 -5.5408,0.006 -12.2822,1.66537 -12.2822,3.02237 0,1.07878 1.5299,1.48895 12.5811,3.37316 4.4446,0.75779 9.8446,2.30766 12,3.44415 5.0569,2.66635 5.4189,2.64328 5.4189,-0.34526 z m -26.5,-1 c 0,-1.18323 -8.0079,-1.92167 -10.3644,-0.95575 -1.428,0.58536 -1.3818,0.77778 0.3644,1.51664 2.6498,1.12112 10,0.70885 10,-0.56089 z m 55.75,10.25 c 0.2292,-0.6875 1.4667,-1.25 2.75,-1.25 1.2834,0 2.5209,0.5625 2.75,1.25 0.2749,0.82456 -0.6611,1.25 -2.75,1.25 -2.0888,0 -3.0248,-0.42544 -2.75,-1.25 z"
         id="path3053" />
      <path
         style="fill:#0c060b"
         d="m 571.0554,971.75632 c -7.8078,-2.06855 -18.0842,-6.86085 -21.6036,-10.07467 -1.1355,-1.03686 -2.7903,-1.8852 -3.6774,-1.8852 -1.584,0 -5.7582,-4.4427 -5.7582,-6.12858 0,-1.49624 3.8752,-0.33683 6.232,1.86454 3.8156,3.56392 21.9613,12.24601 25.6141,12.25542 4.8896,0.0126 14.3328,2.96874 13.8811,4.3454 -0.6212,1.89302 -6.7097,1.73679 -14.688,-0.37691 z m 22.9608,1.14712 c 0,-1.51591 3.0962,-2.17957 6.8676,-1.47205 3.0166,0.5659 3.2781,0.80057 1.6158,1.44984 -2.7732,1.08316 -8.4834,1.09811 -8.4834,0.0222 z m -89.37642,-60.64565 c -0.34295,-0.8937 -0.59502,-2.15061 -0.56015,-2.79313 0.0349,-0.64251 0.49453,-0.0904 1.02148,1.22697 0.52695,1.31735 0.77902,2.57426 0.56015,2.79313 -0.21887,0.21887 -0.67854,-0.33327 -1.02148,-1.22697 z m -13.87354,-29.59617 c -1.5125,-1.44915 -2.75,-3.49665 -2.75,-4.55 0,-1.05334 -0.55033,-2.4655 -1.22295,-3.13812 -0.67262,-0.67262 -1.09073,-2.75761 -0.92913,-4.63331 0.39198,-4.54966 -1.20382,-7.24336 -4.75291,-8.02287 -2.66361,-0.58503 -2.89428,-0.96753 -2.61207,-4.33128 0.17025,-2.02928 0.63561,-4.49333 1.03414,-5.47568 1.18073,-2.91044 -0.0304,-12.51867 -1.82846,-14.50548 -1.32788,-1.4673 -1.53132,-3.08708 -1.04363,-8.30958 0.51347,-5.49873 0.26518,-7.1546 -1.62976,-10.869 -1.22954,-2.4101 -2.61324,-6.66526 -3.07489,-9.45592 -1.87869,-11.35658 -4.86772,-24.41804 -6.88222,-30.07393 -4.38438,-12.30947 -5.39918,-20.31325 -7.22704,-57 -0.11896,-2.38762 2.91468,-28.71737 3.80216,-33 1.21014,-5.83962 9.50037,-29.99088 10.80745,-31.48447 0.72946,-0.83354 2.33012,-3.54053 3.55702,-6.01553 1.2269,-2.475 3.29343,-5.91818 4.59228,-7.65151 1.29886,-1.73334 3.30992,-5.55834 4.46904,-8.5 1.27078,-3.22505 3.86101,-7.02913 6.52423,-9.58166 2.42921,-2.32825 4.41674,-4.6518 4.41674,-5.16346 0,-1.01228 9.61804,-9.09114 15.59982,-13.10337 2.04997,-1.375 6.91614,-5.48611 10.81374,-9.13579 3.9628,-3.71084 9.9515,-8.06209 13.5864,-9.87162 3.575,-1.7797 8.525,-4.68931 11,-6.4658 5.1959,-3.72941 13.431,-7.58225 20.2341,-9.46654 4.0397,-1.11893 5.0663,-1.09508 7,0.16264 4.8746,3.17063 16.4305,5.10213 37.0454,6.19194 2.9404,0.15544 5.8583,1.05027 7.5831,2.32546 1.542,1.14004 7.9743,3.82907 14.2941,5.97562 13.2327,4.49461 17.4119,6.81661 24.3125,13.50805 2.733,2.65021 6.4282,5.81831 8.2114,7.04021 3.3037,2.26374 4.5543,4.91903 8.2113,17.43474 1.0478,3.58595 3.1384,7.71044 4.9597,9.7848 1.7316,1.97223 3.1484,4.16103 3.1484,4.864 0,0.70296 1.3396,2.56152 2.9769,4.13014 3.0526,2.92456 4.3586,6.00908 5.5134,13.02215 0.3623,2.2 1.7035,5.80043 2.9804,8.00096 8.5256,14.69192 14.6719,60.01643 10.2382,75.49904 -0.8662,3.025 -1.8612,7.975 -2.211,11 -0.3498,3.025 -1.2799,9.03721 -2.0669,13.36047 -0.787,4.32326 -1.431,9.8637 -1.431,12.3121 0,4.42006 -2.5052,13.95693 -4.1445,15.77743 -0.4705,0.5225 -0.8555,4.27252 -0.8555,8.33339 0,7.80781 -2.6114,19.8113 -6.0605,27.85785 -1.3394,3.1248 -1.9514,6.38887 -1.7497,9.3322 0.2739,3.99564 0.056,4.56274 -1.8552,4.83503 -1.191,0.16966 -2.3768,0.85919 -2.6351,1.53229 -0.7293,1.90064 1.1327,12.1033 2.2786,12.48527 1.5316,0.51052 1.2404,5.17397 -0.3231,5.17397 -0.7397,0 -2.1595,0.9 -3.155,2 -0.9954,1.1 -2.1844,2 -2.6422,2 -2.2452,0 2.2394,-28.3528 5.5003,-34.77478 3.6733,-7.23401 7.4068,-48.7367 5.5528,-61.72522 -0.4711,-3.3 -0.6349,-7.35 -0.364,-9 0.2709,-1.65 0.1184,-7.04343 -0.3389,-11.98541 -0.4662,-5.03885 -0.4414,-11.40752 0.056,-14.5 0.5888,-3.65735 0.5009,-7.36691 -0.261,-11.01459 -3.4667,-16.59772 -4.3058,-19.71905 -5.9141,-22 -0.9695,-1.375 -2.5831,-5.875 -3.5857,-10 -1.8201,-7.48807 -2.8572,-10.05828 -5.2966,-13.12635 -1.1155,-1.40299 -3.3816,-1.57857 -16.5,-1.27847 -25.251,0.57765 -32.768,1.15808 -34.5545,2.66818 -1.4953,1.26397 -14.943,5.33432 -21.1524,6.40241 -1.375,0.23652 -4.8585,1.17531 -7.7412,2.08621 -4.2297,1.33658 -5.87,1.43475 -8.5,0.50874 -3.9941,-1.40634 -12.935,-1.78708 -18.0724,-0.76959 -2.7703,0.54868 -4.8565,0.28498 -7.6262,-0.96396 -3.133,-1.41281 -5.903,-1.63811 -15.5404,-1.26399 -11.6451,0.45205 -13.4598,1.04059 -13.5045,4.37983 -0.026,1.92653 -2.4196,2.20478 -6.5625,0.76284 -5.47469,-1.90541 -10.24865,-1.74715 -14.95283,0.49571 -2.2,1.04892 -5.35,2.29464 -7,2.76828 -2.70073,0.77526 -3.17256,1.55066 -4.72974,7.77287 -1.09093,4.35914 -1.87922,12.29361 -2.13449,21.4845 -0.4194,15.09993 -0.77602,16.74475 -6.2104,28.64338 -5.28184,11.56466 -7.59151,48.21075 -4.12376,65.42941 0.83075,4.125 2.24352,11.1 3.13949,15.5 2.58427,12.69108 3.6666,21.25332 4.05006,32.03992 0.22301,6.27319 0.98375,11.60651 2.02768,14.21557 2.17184,5.42795 1.63528,6.37123 -1.76884,3.10968 z m 183.66066,-4.36517 c 1.1868,-5.11538 2.079,-5.6697 3.0295,-1.88241 0.4495,1.79082 0.1189,3.21217 -1.0466,4.5 -2.6346,2.9112 -3.1177,2.27348 -1.9829,-2.61759 z m -99.4107,-11 -3.5,-1.34784 4,-0.0406 c 2.2,-0.0224 5.125,0.60247 6.5,1.38849 l 2.5,1.42913 -3,-0.0406 c -1.65,-0.0224 -4.575,-0.64718 -6.5,-1.38849 z m -41.772,-76.07208 c -1.8854,-1.88535 -3.6555,-3.42792 -3.9336,-3.42792 -0.2781,0 -1.8426,1.125 -3.4767,2.5 -3.2503,2.73493 -10.52068,3.53821 -11.31356,1.25 -1.2647,-3.64982 -0.89901,-7.04331 0.87447,-8.1149 1.43434,-0.86668 1.98611,-0.83951 2.33333,0.1149 0.61035,1.67766 3.14686,1.57406 8.41236,-0.34359 2.4067,-0.87647 7.6795,-1.98425 11.7175,-2.46173 4.0379,-0.47747 8.2078,-1.14302 9.2664,-1.479 1.8893,-0.59966 1.8879,-0.66244 -0.077,-3.42231 -2.8608,-4.01754 -11.9438,-5.67968 -22.165,-4.05606 -4.0513,0.64353 -9.84091,1.02214 -12.86591,0.84137 -4.77307,-0.28524 -5.54114,-0.61771 -5.81127,-2.51548 -0.56629,-3.97847 3.93612,-5.8117 13.74535,-5.59666 4.89973,0.10742 10.70593,-0.41193 13.56593,-1.21342 6.8015,-1.90608 26.0224,-1.45586 27.7681,0.65043 0.6775,0.81751 2.4731,2.25521 3.9902,3.19488 1.517,0.93967 3.7067,3.72642 4.8661,6.19278 1.1593,2.46636 2.5056,4.73011 2.9917,5.03056 0.4861,0.30044 0.8839,1.47078 0.8839,2.60075 0,1.77867 -0.4363,1.97106 -3.25,1.4331 -1.7875,-0.34176 -5.2123,-0.90698 -7.6108,-1.25604 l -4.3607,-0.63465 0.6902,3.14253 c 0.6314,2.87474 0.4754,3.14254 -1.8302,3.14254 -1.3863,0 -2.7986,-0.45 -3.1385,-1 -1.2508,-2.02379 -3.6401,-0.90907 -4.9933,2.32961 -1.8252,4.36843 -3.125,5.28804 -8.4288,5.96326 -4.0476,0.5153 -4.7124,0.27268 -7.85,-2.86495 z m 105.022,1.98764 c -2.0054,-0.87704 -3.25,-2.13917 -3.25,-3.29598 0,-2.817 -2.5612,-4.38962 -6.416,-3.93958 -4.112,0.48004 -3.6333,-0.84362 1.006,-2.78203 6.9491,-2.90351 22.833,-1.45915 33.5805,3.05355 1.2445,0.52255 1.76,0.10819 2.022,-1.62507 0.3418,-2.26207 0.3828,-2.27102 1.4825,-0.32355 0.622,1.10159 1.2871,3.57659 1.478,5.5 0.3384,3.40965 0.2502,3.50505 -3.5275,3.81489 -3.1194,0.25585 -4.4358,-0.21999 -6.7547,-2.4416 l -2.8802,-2.7594 -3.2929,3.19161 c -3.6965,3.58278 -7.8068,4.07402 -13.4477,1.60716 z m -25.721,-8.40692 c 0.4175,-1.37025 2.4942,-4.54921 4.615,-7.06436 2.1208,-2.51515 3.871,-5.21903 3.8893,-6.00864 0.062,-2.6982 5.4621,-9.27376 8.4233,-10.25765 1.9981,-0.66392 4.2864,-0.62663 7.0594,0.11503 3.1203,0.83457 5.6453,0.77744 10.5435,-0.23854 4.2246,-0.87628 7.0556,-1.01039 8.2283,-0.38979 0.9833,0.52036 2.6798,0.663 3.77,0.31698 3.5734,-1.13414 20.9422,5.49588 20.9422,7.99404 0,1.96585 -5.5592,2.37266 -12.3885,0.90656 -3.3613,-0.72161 -7.8226,-1.32782 -9.914,-1.34714 -6.2909,-0.0581 -17.5813,2.95271 -20.2108,5.38963 -1.3608,1.26114 -6.0472,3.22821 -10.7036,4.49271 -5.9943,1.62781 -9.2129,3.12432 -11.6481,5.41593 -3.2557,3.06378 -3.3404,3.08571 -2.606,0.67524 z"
         id="path3051" />
    </g>
  </g>
</svg>
