<?xml version="1.0" encoding="UTF-8" standalone="no"?>
<!-- Created with Inkscape (http://www.inkscape.org/) -->

<svg
   xmlns:dc="http://purl.org/dc/elements/1.1/"
   xmlns:cc="http://creativecommons.org/ns#"
   xmlns:rdf="http://www.w3.org/1999/02/22-rdf-syntax-ns#"
   xmlns:svg="http://www.w3.org/2000/svg"
   xmlns="http://www.w3.org/2000/svg"
   xmlns:sodipodi="http://sodipodi.sourceforge.net/DTD/sodipodi-0.dtd"
   xmlns:inkscape="http://www.inkscape.org/namespaces/inkscape"
   width="562"
   height="562"
   id="svg134009"
   version="1.1"
   inkscape:version="0.47 r22583"
   sodipodi:docname="Nouveau document 110">
  <defs
     id="defs134011">
    <inkscape:perspective
       sodipodi:type="inkscape:persp3d"
       inkscape:vp_x="0 : 526.18109 : 1"
       inkscape:vp_y="0 : 1000 : 0"
       inkscape:vp_z="744.09448 : 526.18109 : 1"
       inkscape:persp3d-origin="372.04724 : 350.78739 : 1"
       id="perspective134017" />
    <inkscape:perspective
       id="perspective134001"
       inkscape:persp3d-origin="0.5 : 0.33333333 : 1"
       inkscape:vp_z="1 : 0.5 : 1"
       inkscape:vp_y="0 : 1000 : 0"
       inkscape:vp_x="0 : 0.5 : 1"
       sodipodi:type="inkscape:persp3d" />
  </defs>
  <sodipodi:namedview
     id="base"
     pagecolor="#ffffff"
     bordercolor="#666666"
     borderopacity="1.0"
     inkscape:pageopacity="0.0"
     inkscape:pageshadow="2"
     inkscape:zoom="0.175"
     inkscape:cx="138.41434"
     inkscape:cy="360.65512"
     inkscape:document-units="px"
     inkscape:current-layer="layer1"
     showgrid="false"
     inkscape:window-width="605"
     inkscape:window-height="487"
     inkscape:window-x="300"
     inkscape:window-y="158"
     inkscape:window-maximized="0" />
  <metadata
     id="metadata134014">
    <rdf:RDF>
      <cc:Work
         rdf:about="">
        <dc:format>image/svg+xml</dc:format>
        <dc:type
           rdf:resource="http://purl.org/dc/dcmitype/StillImage" />
        <dc:title></dc:title>
      </cc:Work>
    </rdf:RDF>
  </metadata>
  <g
     inkscape:label="Calque 1"
     inkscape:groupmode="layer"
     id="layer1"
     transform="translate(-164.71429,-291.36218)">
    <path
       style="fill:#ef9039;display:inline"
       d="m 164.71459,775.61218 c 1e-4,-42.7625 0.2998,-169.2125 0.6658,-281 l 0.6656,-203.25 280.3341,0 280.3342,0 0,281 0,281 -281,0 -281,0 3e-4,-77.75 z m 106.5726,25.5104 c 0.2608,-0.2608 0.1815,-1.2368 -0.1762,-2.1689 -0.4736,-1.2342 -1.3684,-1.537 -3.293,-1.1143 -4.2815,0.9404 -6.3481,-1.3786 -6.8734,-7.713 -0.391,-4.7156 -0.1362,-5.8583 1.7205,-7.715 1.6309,-1.6309 2.8863,-2.0243 4.9876,-1.5627 3.995,0.8774 5.0931,-2.1438 1.3029,-3.5849 -9.5283,-3.6226 -17.9115,7.3846 -13.6795,17.9613 2.093,5.2308 5.5287,7.3009 11.2376,6.7708 2.3647,-0.2195 4.5128,-0.6125 4.7735,-0.8733 z m 21.866,0.086 c 5.0019,-2.279 7.3956,-9.0332 5.5847,-15.7581 -2.0194,-7.4994 -8.925,-10.9358 -15.5897,-7.7577 -4.725,2.2532 -6.7627,6.6921 -6.198,13.5015 0.3833,4.6218 0.9648,5.9585 3.6261,8.3364 3.4597,3.0912 8.1126,3.712 12.5769,1.6779 z m -8.4664,-4.379 c -0.6999,-0.8433 -1.449,-3.6558 -1.6647,-6.25 -0.663,-7.9715 3.452,-12.5542 7.7666,-8.6495 2.5102,2.2716 2.753,12.4624 0.3542,14.8612 -1.996,1.9959 -4.8175,2.0126 -6.4561,0.038 z m 29.0275,-5.4669 0,-11 2.9286,0 c 5.0885,0 6.0714,2.0352 6.0714,12.5714 l 0,9.4286 3,0 3,0 0,-10.4809 0,-10.481 2.6548,-0.6663 c 4.9683,-1.247 5.8172,0.3433 6.1302,11.4845 l 0.285,10.1437 2.965,0 2.965,0 0,-10.845 c 0,-9.4291 -0.251,-11.0722 -1.9224,-12.5848 -2.6864,-2.4311 -9.2341,-3.1375 -12.7632,-1.3769 -2.3709,1.1827 -3.3873,1.2113 -5.8423,0.1644 -3.673,-1.5664 -7.8222,-1.6659 -12.7221,-0.3051 l -3.75,1.0414 0,11.953 0,11.953 3.5,0 3.5,0 0,-11 z m 46,-1.5 0,-12.5 -3.5,0 -3.5,0 0,12.5 0,12.5 3.5,0 3.5,0 0,-12.5 z m 21,10.6166 c 0,-1.0423 -0.8931,-2.1169 -2,-2.4063 -1.7922,-0.4687 -2,-1.3641 -2,-8.6167 0,-7.4269 0.1647,-8.0936 2,-8.0936 1.3333,0 2,-0.6667 2,-2 0,-1.3333 -0.6667,-2 -2,-2 -1.6191,0 -2,-0.6667 -2,-3.5 0,-3.6132 -0.6071,-3.98 -4.75,-2.8697 -1.6737,0.4485 -2.25,1.3415 -2.25,3.4863 0,1.8964 -0.5135,2.8834 -1.5,2.8834 -0.8333,0 -1.5,0.8889 -1.5,2 0,1.1111 0.6667,2 1.5,2 1.209,0 1.5,1.5606 1.5,8.0455 0,7.2087 0.2553,8.3007 2.4546,10.5 3.0773,3.0773 8.5454,3.4428 8.5454,0.5711 z m 25.4158,0.9154 c 1.7183,-0.6533 2.3525,-1.4723 1.9507,-2.5193 -0.474,-1.2351 -1.5758,-1.4212 -5.4073,-0.9129 -4.2843,0.5683 -5.0942,0.3561 -7.3856,-1.9353 -1.4155,-1.4155 -2.5736,-2.9858 -2.5736,-3.4897 0,-0.5039 3.6302,-1.3795 8.0672,-1.946 4.4369,-0.5664 8.3048,-1.2674 8.5951,-1.5578 0.9472,-0.9472 -0.7539,-6.5177 -2.7748,-9.0869 -4.0532,-5.1527 -14.3595,-4.1377 -17.9612,1.769 -3.7813,6.2014 -1.8075,16.0192 3.8363,19.0815 3.1529,1.7108 9.9433,2.0079 13.6532,0.5974 z m -13.4158,-15.252 c 0,-2.9201 2.8235,-5.78 5.7063,-5.78 2.3302,0 3.757,1.4878 4.5556,4.75 0.4497,1.8368 0.1319,2.25 -1.7305,2.25 -1.2548,0 -3.6877,0.2813 -5.4064,0.625 -2.8252,0.5651 -3.125,0.3881 -3.125,-1.845 z m 36.0352,14.7018 c 5.8931,-3.0474 4.8686,-9.9598 -1.9952,-13.4614 -6.3831,-3.2564 -4.7953,-7.6178 2.46,-6.7575 3.686,0.437 2.2098,-2.7111 -1.7274,-3.6837 -4.5149,-1.1154 -7.9199,0.1898 -10.4102,3.9905 -1.5653,2.3889 -1.5927,2.93 -0.2687,5.2955 0.811,1.4492 3.1468,3.4258 5.1905,4.3927 2.8122,1.3304 3.7158,2.3592 3.7158,4.2309 0,2.9111 -3.6402,4.3093 -6.8069,2.6146 -1.9321,-1.0341 -3.1931,0.1131 -3.1931,2.9051 0,2.1731 9.1086,2.5038 13.0352,0.4733 z m 89.3464,-18.8801 c 10.6055,-5.1888 19.1899,-16.3034 23.1277,-29.9448 1.3059,-4.5236 1.5995,-8.7013 1.3002,-18.5 -0.3301,-10.8075 -0.7658,-13.5703 -2.9824,-18.9084 -2.9454,-7.0933 -7.7367,-13.7678 -12.4381,-17.3266 l -3.1994,-2.4219 4.4716,-4.4144 c 8.5462,-8.4367 12.3388,-19.4718 12.3388,-35.9013 0,-23.9637 -8.6397,-38.4362 -26.0281,-43.6 -7.5243,-2.2345 -18.3352,-2.0248 -26.5587,0.5152 -5.7407,1.7732 -7.7528,3.0557 -12.9428,8.25 -4.4629,4.4666 -6.736,7.731 -8.3024,11.9232 -6.0403,16.166 -5.05,36.9869 2.4115,50.696 5.422,9.962 14.3796,15.2713 29.6315,17.563 12.0091,1.8045 15.958,4.446 20.789,13.9065 3.3975,6.6534 3.5101,7.2425 3.846,20.1217 0.3987,15.2843 -0.8615,21.2867 -6.0873,28.9944 -4.1553,6.1288 -9.0095,8.6734 -16.3779,8.5854 -11.3737,-0.1358 -20.7374,-7.9188 -24.5234,-20.3833 -2.1392,-7.0427 -2.1845,-11.938 -0.2673,-28.8775 0.4303,-3.8019 0.2617,-5.8524 -0.5208,-6.336 -4.926,-3.0445 -12.0001,18.5327 -10.6916,32.6114 1.1964,12.8728 6.4886,22.7283 16.1669,30.1074 6.9029,5.263 12.1966,6.7725 22.5362,6.4261 6.9947,-0.2344 9.6382,-0.8049 14.3008,-3.0861 z m -24.5562,-96.7781 c -7.6806,-4.4532 -11.5318,-17.3445 -10.5322,-35.2555 0.9375,-16.7979 5.2031,-25.9266 13.3754,-28.6237 4.5973,-1.5173 11.8346,-0.6884 15.1956,1.7403 7.307,5.2802 11.3022,22.9373 9.1657,40.5089 -1.5912,13.0863 -4.5074,18.9036 -11.2302,22.4014 -4.0355,2.0997 -11.6572,1.7316 -15.9743,-0.7714 z m -90.4108,85.5286 2.9145,-3.5035 -3.2139,0.3257 c -2.3486,0.2379 -3.7656,1.2007 -5.2628,3.5756 l -2.0488,3.25 2.3482,-0.072 c 1.4049,-0.043 3.519,-1.4795 5.2628,-3.5756 z m -44.4252,1.1605 c 1.7859,-2.1518 0.4835,-4.5127 -2.4894,-4.5127 -1.4095,0 -2.824,0.6807 -3.1433,1.5127 -0.6627,1.7271 1.2708,4.4873 3.1433,4.4873 0.6903,0 1.8105,-0.6693 2.4894,-1.4873 z m 23.0106,-30.5127 c 0,-15.343 -0.082,-16 -2.0036,-16 -1.102,0 -3.6829,0.9 -5.7352,2 -2.0524,1.1 -4.7837,2 -6.0697,2 -1.6974,0 -2.2394,0.4796 -1.9778,1.75 0.2824,1.3716 1.2714,1.7091 4.5733,1.5607 l 4.213,-0.1894 0,12.4394 0,12.4393 3.5,0 3.5,0 0,-16 z m 25.6941,13.8399 c 4.4462,-3.6872 5.9944,-17.4794 2.7336,-24.3511 -4.2897,-9.0399 -15.65,-7.9683 -19.3611,1.8263 -2.8321,7.4749 -0.1516,20.4355 4.8046,23.2306 3.0187,1.7024 9.3767,1.3229 11.8229,-0.7058 z m -8.3815,-2.6115 c -3.3748,-2.1858 -4.4622,-14.5413 -1.8334,-20.8328 1.1598,-2.7758 1.964,-3.4706 3.7249,-3.2179 3.2593,0.4677 4.7664,4.3639 4.7664,12.3223 0,9.5378 -2.6991,14.2925 -6.6579,11.7284 z m 32.4628,-11.4784 0.2754,-15.75 -2.5012,0 c -1.3757,0 -3.9746,0.8983 -5.7754,1.9963 -1.8008,1.0979 -4.2867,1.9979 -5.5242,2 -1.6225,0 -2.25,0.5932 -2.25,2.1172 0,1.9383 0.3732,2.0576 4.5,1.4388 l 4.5,-0.6748 0,12.6246 0,12.6246 3.25,-0.3133 3.25,-0.3134 0.2754,-15.75 z m 174.3566,-44.7231 c 6.7057,-2.5263 11.1444,-6.2944 14.4567,-12.2726 l 2.9113,-5.2543 0.321,-33.75 0.3209,-33.75 -8.5709,0 -8.571,0 0,32.2656 c 0,29.3392 -0.1657,32.5746 -1.8273,35.6727 -4.7575,8.871 -18.3336,9.2794 -24.6016,0.7402 -1.9788,-2.6957 -2.0855,-4.2897 -2.3938,-35.75 l -0.3226,-32.9285 -8.4274,0 -8.4273,0 0.022,33.75 c 0.02,30.4899 0.1979,34.1364 1.8437,37.75 2.1524,4.726 8.8778,11.0769 13.9948,13.2155 8.4481,3.5308 20.3891,3.6579 29.2715,0.3114 z m -356.132,-4.5269 0,-5.5 -13,0 -13,0 0,-37.5 0,-37.5 -9,0 -9,0 0,43 0,43 22,0 22,0 0,-5.5 z m 23.5,-5.5 3.6654,-11 15.3311,0 15.3312,0 3.3633,10.75 3.3632,10.75 9.2229,0.2875 c 5.0726,0.1582 9.2057,-0.067 9.1847,-0.5 -0.021,-0.4331 -6.9087,-19.6875 -15.306,-42.7875 l -15.2679,-42 -8.7872,0 -8.7873,0 -14.9148,41 c -8.2031,22.55 -15.1665,41.7875 -15.4741,42.75 -0.5009,1.5673 0.2745,1.75 7.4254,1.75 l 7.9847,0 3.6654,-11 z m 12.9752,-39.4624 c 5.4653,-16.7477 7.5248,-21.3894 7.5248,-16.9593 0,0.8681 2.2794,8.6306 5.0654,17.25 2.786,8.6194 5.2469,16.2342 5.4686,16.9217 0.3077,0.9539 -2.4971,1.25 -11.8402,1.25 l -12.2435,0 6.0249,-18.4624 z m 124.5248,44.9624 0,-5.5 -13,0 -13,0 0,-37.5 0,-37.5 -9,0 -9,0 0,43 0,43 22,0 22,0 0,-5.5 z m 32,-37.4179 0,-42.918 -6.75,-0.332 c -3.7125,-0.1827 -7.7625,-0.1883 -9,-0.012 l -2.25,0.3195 0,42.9305 0,42.9304 9,0 9,0 0,-42.9179 z m 250,37.4179 0,-5.5 -14.5,0 -14.5,0 0,-14 0,-14 13,0 13,0 0,-5.5 0,-5.5 -13,0 -13,0 0,-12.5 0,-12.5 14.5,0 14.5,0 0,-5.5 0,-5.5 -23,0 -23,0 0,43 0,43 23,0 23,0 0,-5.5 z m -251.75,-107.6122 c 3.5992,-3.8208 3.6833,-8.6252 0.223,-12.7376 -3.2398,-3.8502 -7.3433,-4.7801 -11.7876,-2.6712 -6.0204,2.8569 -7.522,10.1849 -3.1513,15.3792 4.1229,4.8998 10.1169,4.9118 14.7159,0.03 z m -55.7994,-122.6286 c 0.9082,-0.5279 1.0429,-1.4592 0.4421,-3.0572 -0.7512,-1.9986 -1.3224,-2.212 -4.3827,-1.6379 -2.5058,0.4701 -4.2613,0.1736 -6.0979,-1.0298 -6.3636,-4.1695 -7.3748,-18.0455 -1.7568,-24.1073 2.0478,-2.2097 3.1034,-2.5507 7.0083,-2.2643 3.9957,0.2932 4.7057,0.046 5.4246,-1.8855 0.7403,-1.9893 0.3946,-2.3394 -3.2897,-3.3315 -11.9462,-3.2167 -20.7287,4.8538 -20.7765,19.0924 -0.03,8.94 2.8378,14.6184 8.978,17.7762 4.4667,2.2973 10.9224,2.496 14.4506,0.4449 z m 156.7994,0.6882 c 4.116,-1.143 4.1927,-1.2518 2.7647,-3.92 -0.7751,-1.4483 -1.7884,-1.7339 -4.75,-1.339 -5.1429,0.6858 -8.6422,-2.1592 -10.1832,-8.2791 -1.545,-6.1357 -0.462,-12.8037 2.6876,-16.5468 2.1947,-2.6082 3.0925,-2.9606 6.94,-2.724 3.0157,0.1855 4.7116,-0.1904 5.3398,-1.1833 1.4249,-2.2526 1.1819,-2.6791 -2.1981,-3.8574 -4.5839,-1.5979 -7.6797,-1.359 -12.4758,0.9627 -10.4372,5.0526 -12.7297,23.7295 -4.0425,32.9337 4.1703,4.4184 9.4874,5.7389 15.9175,3.9532 z m -272.25,-2.4474 c 0,-2.3889 -0.2667,-2.5 -6,-2.5 l -6,0 0,-16.5 0,-16.5 -4,0 -4,0 0,19 0,19 10,0 c 10,0 10,0 10,-2.5 z m 45,0 c 0,-2.4103 -0.2333,-2.5 -6.5,-2.5 l -6.5,0 0,-6 0,-6 5.5,0 c 5.2,0 5.5,-0.1364 5.5,-2.5 0,-2.3636 -0.3,-2.5 -5.5,-2.5 l -5.5,0 0,-5.5 0,-5.5 6.5,0 c 6.2667,0 6.5,-0.09 6.5,-2.5 l 0,-2.5 -10.5,0 -10.5,0 0,19 0,19 10.5,0 10.5,0 0,-2.5 z m 100.8818,-2.75 1.4693,-4.75 6.6489,0 6.6489,0 1.4696,4.75 c 1.4288,4.6178 1.5897,4.7587 5.7798,5.0626 2.3706,0.1719 4.1507,-0.099 3.9559,-0.6019 -0.1948,-0.5029 -3.2792,-9.0797 -6.8542,-19.0594 l -6.5,-18.145 -4,4e-4 -4,5e-4 -6.4053,17.7464 c -3.5229,9.7605 -6.6204,18.3396 -6.8832,19.0647 -0.3542,0.977 0.5163,1.2359 3.3616,1 3.6245,-0.3005 3.9217,-0.5842 5.3087,-5.0683 z m 3.1182,-9.0934 c 0,-0.4024 3.7435,-11.4622 4.6224,-13.6566 0.3655,-0.9124 1.5364,1.2203 2.9892,5.4448 1.3136,3.8196 2.3884,7.3071 2.3884,7.75 0,0.4429 -2.25,0.8052 -5,0.8052 -2.75,0 -5,-0.1545 -5,-0.3434 z m 53.0275,1.0934 0.028,-13.25 8.6186,13.25 c 8.2304,12.6531 8.7697,13.25 11.9725,13.25 l 3.3539,0 0,-19 0,-19 -3.5,0 -3.5,0 -0.01,12.75 -0.01,12.75 -8.2447,-12.7476 c -8.1466,-12.5959 -8.2893,-12.7476 -11.9947,-12.75 l -3.7506,0 0,19 0,19 3.5,0 3.5,0 0.028,-13.25 z m 117.9725,10.75 c 0,-2.3889 -0.2667,-2.5 -6,-2.5 l -6,0 0,-6 0,-6 5.5,0 c 5.2,0 5.5,-0.1364 5.5,-2.5 0,-2.3636 -0.3,-2.5 -5.5,-2.5 l -5.5,0 0,-5.5 0,-5.5 6,0 c 5.7333,0 6,-0.1111 6,-2.5 0,-2.5 0,-2.5 -10,-2.5 l -10,0 0,19 0,19 10,0 c 10,0 10,0 10,-2.5 z m 33.2096,-5.6458 0.2904,-8.1458 5.5,8.113 c 5.4203,7.9954 5.5616,8.1135 9.75,8.1458 2.3375,0.018 4.25,-0.2646 4.25,-0.6282 0,-0.3635 -2.5133,-4.0002 -5.5852,-8.0815 -3.0718,-4.0813 -5.4343,-7.5312 -5.25,-7.6664 0.1844,-0.1353 1.8156,-0.8356 3.625,-1.5563 4.4077,-1.7557 6.2102,-4.6009 6.2102,-9.8028 0,-5.2174 -2.8177,-8.5324 -8.6223,-10.1441 -4.8796,-1.3549 -7.0303,-1.3557 -13.3285,-0.01 l -5.0492,1.0828 0,18.4172 0,18.4171 3.9596,0 3.9595,0 0.2905,-8.1458 z m -0.2096,-18.3542 0,-7.5 3.845,0 c 4.813,0 7.155,2.3989 7.155,7.3287 0,4.7778 -2.8289,7.6713 -7.5,7.6713 l -3.5,0 0,-7.5 z m -294.75,-36.5526 c 4.1381,-1.1492 4.1991,-1.2397 2.7118,-4.0188 -0.8584,-1.6039 -1.717,-1.8315 -4.9562,-1.3135 -3.4271,0.548 -4.284,0.2604 -6.8407,-2.2963 -5.1486,-5.1486 -5.1716,-18.3121 -0.041,-23.4427 1.5413,-1.5413 3.0877,-1.9526 6.5417,-1.7402 3.5276,0.2169 4.7482,-0.1238 5.5452,-1.548 1.219,-2.1783 -0.059,-3.2406 -5.0572,-4.2026 -4.556,-0.8769 -10.9817,1.2192 -14.1564,4.6178 -6.7539,7.2301 -6.6151,23.2251 0.2612,30.1014 4.3272,4.3272 9.6456,5.6053 15.9916,3.8429 z m 48.75,-1.7838 c 4.1589,-2.9623 7,-9.751 7,-16.7263 0,-10.2255 -3.0601,-16.2293 -9.7179,-19.0662 -4.4637,-1.9019 -7.9372,-1.7165 -12.9063,0.689 -5.8841,2.8485 -8.3758,8.1402 -8.3758,17.7877 0,7.9884 1.4778,12.4873 5.2404,15.9537 4.8281,4.448 13.5393,5.0805 18.7596,1.3621 z m -12.2638,-4.4136 c -2.5505,-1.9368 -3.7376,-6.2636 -3.7215,-13.5651 0.017,-7.5759 1.3473,-10.9695 5.1345,-13.0952 2.3411,-1.314 2.8937,-1.2916 5.1859,0.2103 3.9346,2.5781 5.7762,11.8936 4.0537,20.5057 -1.2005,6.003 -6.6044,9.0184 -10.6526,5.9443 z m 51.4856,-7.217 0.2782,-13.467 8.5,13.4456 c 8.0496,12.7331 8.6722,13.4467 11.75,13.467 l 3.25,0.021 0,-19 0,-19 -3.5,0 -3.5,0 -0.016,12.25 -0.016,12.25 -8.0639,-12.25 c -8.0388,-12.212 -8.076,-12.25 -11.984,-12.25 l -3.9201,0 0,19 0,19 3.4718,0 3.4718,0 0.2782,-13.467 z m 63.7782,-3.033 0,-16.5 4,0 c 3.6,0 4,-0.25 4,-2.5 l 0,-2.5 -12,0 -12,0 0,2.5 c 0,2.25 0.4,2.5 4,2.5 l 4,0 0,16.5 0,16.5 4,0 4,0 0,-16.5 z m 40,8.3029 0,-8.1971 5.6658,8.1971 c 5.6197,8.1305 5.7009,8.1971 10,8.1971 2.3838,0 4.3342,-0.1474 4.3342,-0.3276 0,-0.1802 -2.6731,-3.8927 -5.9403,-8.25 l -5.9404,-7.9224 3.0684,-1.0481 c 7.9893,-2.7292 10.2607,-11.2035 4.537,-16.9271 -4.5666,-4.5667 -12.3619,-5.5893 -21.9747,-2.8828 -1.5856,0.4465 -1.75,2.2249 -1.75,18.9254 l 0,18.4326 4,0 4,0 0,-8.1971 z m 0,-18.3029 0,-7.5 3.5,0 c 4.3888,0 7.5,2.9227 7.5,7.0455 0,4.0407 -3.9138,7.9545 -7.9546,7.9545 l -3.0454,0 0,-7.5 z m 65,24 c 0,-2.4103 -0.2333,-2.5 -6.5,-2.5 l -6.5,0 0,-6 0,-6 5.5,0 c 5.2,0 5.5,-0.1364 5.5,-2.5 0,-2.3636 -0.3,-2.5 -5.5,-2.5 l -5.5,0 0,-5.5 0,-5.5 6.5,0 c 6.2667,0 6.5,-0.09 6.5,-2.5 l 0,-2.5 -10.5,0 -10.5,0 0,19 0,19 10.5,0 10.5,0 0,-2.5 z"
       id="path133978" />
    <path
       style="fill:#5a8fbf;display:inline"
       d="m 164.71459,775.61218 c 1e-4,-42.7625 0.2998,-169.2125 0.6658,-281 l 0.6656,-203.25 280.3341,0 280.3342,0 0,281 0,281 -281,0 -281,0 3e-4,-77.75 z m 106.5726,25.5104 c 0.2608,-0.2608 0.1815,-1.2368 -0.1762,-2.1689 -0.4736,-1.2342 -1.3684,-1.537 -3.293,-1.1143 -4.2815,0.9404 -6.3481,-1.3786 -6.8734,-7.713 -0.391,-4.7156 -0.1362,-5.8583 1.7205,-7.715 1.6309,-1.6309 2.8863,-2.0243 4.9876,-1.5627 3.995,0.8774 5.0931,-2.1438 1.3029,-3.5849 -9.5283,-3.6226 -17.9115,7.3846 -13.6795,17.9613 2.093,5.2308 5.5287,7.3009 11.2376,6.7708 2.3647,-0.2195 4.5128,-0.6125 4.7735,-0.8733 z m 21.866,0.086 c 5.0019,-2.279 7.3956,-9.0332 5.5847,-15.7581 -2.0194,-7.4994 -8.925,-10.9358 -15.5897,-7.7577 -4.725,2.2532 -6.7627,6.6921 -6.198,13.5015 0.3833,4.6218 0.9648,5.9585 3.6261,8.3364 3.4597,3.0912 8.1126,3.712 12.5769,1.6779 z m -8.4664,-4.379 c -0.6999,-0.8433 -1.449,-3.6558 -1.6647,-6.25 -0.663,-7.9715 3.452,-12.5542 7.7666,-8.6495 2.5102,2.2716 2.753,12.4624 0.3542,14.8612 -1.996,1.9959 -4.8175,2.0126 -6.4561,0.038 z m 29.0275,-5.4669 0,-11 2.9286,0 c 5.0885,0 6.0714,2.0352 6.0714,12.5714 l 0,9.4286 3,0 3,0 0,-10.4809 0,-10.481 2.6548,-0.6663 c 4.9683,-1.247 5.8172,0.3433 6.1302,11.4845 l 0.285,10.1437 2.965,0 2.965,0 0,-10.845 c 0,-9.4291 -0.251,-11.0722 -1.9224,-12.5848 -2.6864,-2.4311 -9.2341,-3.1375 -12.7632,-1.3769 -2.3709,1.1827 -3.3873,1.2113 -5.8423,0.1644 -3.673,-1.5664 -7.8222,-1.6659 -12.7221,-0.3051 l -3.75,1.0414 0,11.953 0,11.953 3.5,0 3.5,0 0,-11 z m 46,-1.5 0,-12.5 -3.5,0 -3.5,0 0,12.5 0,12.5 3.5,0 3.5,0 0,-12.5 z m 21,10.6166 c 0,-1.0423 -0.8931,-2.1169 -2,-2.4063 -1.7922,-0.4687 -2,-1.3641 -2,-8.6167 0,-7.4269 0.1647,-8.0936 2,-8.0936 1.3333,0 2,-0.6667 2,-2 0,-1.3333 -0.6667,-2 -2,-2 -1.6191,0 -2,-0.6667 -2,-3.5 0,-3.6132 -0.6071,-3.98 -4.75,-2.8697 -1.6737,0.4485 -2.25,1.3415 -2.25,3.4863 0,1.8964 -0.5135,2.8834 -1.5,2.8834 -0.8333,0 -1.5,0.8889 -1.5,2 0,1.1111 0.6667,2 1.5,2 1.209,0 1.5,1.5606 1.5,8.0455 0,7.2087 0.2553,8.3007 2.4546,10.5 3.0773,3.0773 8.5454,3.4428 8.5454,0.5711 z m 25.4158,0.9154 c 1.7183,-0.6533 2.3525,-1.4723 1.9507,-2.5193 -0.474,-1.2351 -1.5758,-1.4212 -5.4073,-0.9129 -4.2843,0.5683 -5.0942,0.3561 -7.3856,-1.9353 -1.4155,-1.4155 -2.5736,-2.9858 -2.5736,-3.4897 0,-0.5039 3.6302,-1.3795 8.0672,-1.946 4.4369,-0.5664 8.3048,-1.2674 8.5951,-1.5578 0.9472,-0.9472 -0.7539,-6.5177 -2.7748,-9.0869 -4.0532,-5.1527 -14.3595,-4.1377 -17.9612,1.769 -3.7813,6.2014 -1.8075,16.0192 3.8363,19.0815 3.1529,1.7108 9.9433,2.0079 13.6532,0.5974 z m -13.4158,-15.252 c 0,-2.9201 2.8235,-5.78 5.7063,-5.78 2.3302,0 3.757,1.4878 4.5556,4.75 0.4497,1.8368 0.1319,2.25 -1.7305,2.25 -1.2548,0 -3.6877,0.2813 -5.4064,0.625 -2.8252,0.5651 -3.125,0.3881 -3.125,-1.845 z m 36.0352,14.7018 c 5.8931,-3.0474 4.8686,-9.9598 -1.9952,-13.4614 -6.3831,-3.2564 -4.7953,-7.6178 2.46,-6.7575 3.686,0.437 2.2098,-2.7111 -1.7274,-3.6837 -4.5149,-1.1154 -7.9199,0.1898 -10.4102,3.9905 -1.5653,2.3889 -1.5927,2.93 -0.2687,5.2955 0.811,1.4492 3.1468,3.4258 5.1905,4.3927 2.8122,1.3304 3.7158,2.3592 3.7158,4.2309 0,2.9111 -3.6402,4.3093 -6.8069,2.6146 -1.9321,-1.0341 -3.1931,0.1131 -3.1931,2.9051 0,2.1731 9.1086,2.5038 13.0352,0.4733 z m 89.3464,-18.8801 c 10.6055,-5.1888 19.1899,-16.3034 23.1277,-29.9448 1.3059,-4.5236 1.5995,-8.7013 1.3002,-18.5 -0.3301,-10.8075 -0.7658,-13.5703 -2.9824,-18.9084 -2.9454,-7.0933 -7.7367,-13.7678 -12.4381,-17.3266 l -3.1994,-2.4219 4.4716,-4.4144 c 8.5462,-8.4367 12.3388,-19.4718 12.3388,-35.9013 0,-23.9637 -8.6397,-38.4362 -26.0281,-43.6 -7.5243,-2.2345 -18.3352,-2.0248 -26.5587,0.5152 -5.7407,1.7732 -7.7528,3.0557 -12.9428,8.25 -4.4629,4.4666 -6.736,7.731 -8.3024,11.9232 -6.0403,16.166 -5.05,36.9869 2.4115,50.696 5.422,9.962 14.3796,15.2713 29.6315,17.563 12.0091,1.8045 15.958,4.446 20.789,13.9065 3.3975,6.6534 3.5101,7.2425 3.846,20.1217 0.3987,15.2843 -0.8615,21.2867 -6.0873,28.9944 -4.1553,6.1288 -9.0095,8.6734 -16.3779,8.5854 -11.3737,-0.1358 -20.7374,-7.9188 -24.5234,-20.3833 -2.1392,-7.0427 -2.1845,-11.938 -0.2673,-28.8775 0.4303,-3.8019 0.2617,-5.8524 -0.5208,-6.336 -4.926,-3.0445 -12.0001,18.5327 -10.6916,32.6114 1.1964,12.8728 6.4886,22.7283 16.1669,30.1074 6.9029,5.263 12.1966,6.7725 22.5362,6.4261 6.9947,-0.2344 9.6382,-0.8049 14.3008,-3.0861 z m -24.5562,-96.7781 c -7.6806,-4.4532 -11.5318,-17.3445 -10.5322,-35.2555 0.9375,-16.7979 5.2031,-25.9266 13.3754,-28.6237 4.5973,-1.5173 11.8346,-0.6884 15.1956,1.7403 7.307,5.2802 11.3022,22.9373 9.1657,40.5089 -1.5912,13.0863 -4.5074,18.9036 -11.2302,22.4014 -4.0355,2.0997 -11.6572,1.7316 -15.9743,-0.7714 z m -90.4108,85.5286 2.9145,-3.5035 -3.2139,0.3257 c -2.3486,0.2379 -3.7656,1.2007 -5.2628,3.5756 l -2.0488,3.25 2.3482,-0.072 c 1.4049,-0.043 3.519,-1.4795 5.2628,-3.5756 z m -44.4252,1.1605 c 1.7859,-2.1518 0.4835,-4.5127 -2.4894,-4.5127 -1.4095,0 -2.824,0.6807 -3.1433,1.5127 -0.6627,1.7271 1.2708,4.4873 3.1433,4.4873 0.6903,0 1.8105,-0.6693 2.4894,-1.4873 z m 23.0106,-30.5127 c 0,-15.343 -0.082,-16 -2.0036,-16 -1.102,0 -3.6829,0.9 -5.7352,2 -2.0524,1.1 -4.7837,2 -6.0697,2 -1.6974,0 -2.2394,0.4796 -1.9778,1.75 0.2824,1.3716 1.2714,1.7091 4.5733,1.5607 l 4.213,-0.1894 0,12.4394 0,12.4393 3.5,0 3.5,0 0,-16 z m 25.6941,13.8399 c 4.4462,-3.6872 5.9944,-17.4794 2.7336,-24.3511 -4.2897,-9.0399 -15.65,-7.9683 -19.3611,1.8263 -2.8321,7.4749 -0.1516,20.4355 4.8046,23.2306 3.0187,1.7024 9.3767,1.3229 11.8229,-0.7058 z m -8.3815,-2.6115 c -3.3748,-2.1858 -4.4622,-14.5413 -1.8334,-20.8328 1.1598,-2.7758 1.964,-3.4706 3.7249,-3.2179 3.2593,0.4677 4.7664,4.3639 4.7664,12.3223 0,9.5378 -2.6991,14.2925 -6.6579,11.7284 z m 32.4628,-11.4784 0.2754,-15.75 -2.5012,0 c -1.3757,0 -3.9746,0.8983 -5.7754,1.9963 -1.8008,1.0979 -4.2867,1.9979 -5.5242,2 -1.6225,0 -2.25,0.5932 -2.25,2.1172 0,1.9383 0.3732,2.0576 4.5,1.4388 l 4.5,-0.6748 0,12.6246 0,12.6246 3.25,-0.3133 3.25,-0.3134 0.2754,-15.75 z m 174.3566,-44.7231 c 6.7057,-2.5263 11.1444,-6.2944 14.4567,-12.2726 l 2.9113,-5.2543 0.321,-33.75 0.3209,-33.75 -8.5709,0 -8.571,0 0,32.2656 c 0,29.3392 -0.1657,32.5746 -1.8273,35.6727 -4.7575,8.871 -18.3336,9.2794 -24.6016,0.7402 -1.9788,-2.6957 -2.0855,-4.2897 -2.3938,-35.75 l -0.3226,-32.9285 -8.4274,0 -8.4273,0 0.022,33.75 c 0.02,30.4899 0.1979,34.1364 1.8437,37.75 2.1524,4.726 8.8778,11.0769 13.9948,13.2155 8.4481,3.5308 20.3891,3.6579 29.2715,0.3114 z m -356.132,-4.5269 0,-5.5 -13,0 -13,0 0,-37.5 0,-37.5 -9,0 -9,0 0,43 0,43 22,0 22,0 0,-5.5 z m 23.5,-5.5 3.6654,-11 15.3311,0 15.3312,0 3.3633,10.75 3.3632,10.75 9.2229,0.2875 c 5.0726,0.1582 9.2057,-0.067 9.1847,-0.5 -0.021,-0.4331 -6.9087,-19.6875 -15.306,-42.7875 l -15.2679,-42 -8.7872,0 -8.7873,0 -14.9148,41 c -8.2031,22.55 -15.1665,41.7875 -15.4741,42.75 -0.5009,1.5673 0.2745,1.75 7.4254,1.75 l 7.9847,0 3.6654,-11 z m 12.9752,-39.4624 c 5.4653,-16.7477 7.5248,-21.3894 7.5248,-16.9593 0,0.8681 2.2794,8.6306 5.0654,17.25 2.786,8.6194 5.2469,16.2342 5.4686,16.9217 0.3077,0.9539 -2.4971,1.25 -11.8402,1.25 l -12.2435,0 6.0249,-18.4624 z m 124.5248,44.9624 0,-5.5 -13,0 -13,0 0,-37.5 0,-37.5 -9,0 -9,0 0,43 0,43 22,0 22,0 0,-5.5 z m 32,-37.4179 0,-42.918 -6.75,-0.332 c -3.7125,-0.1827 -7.7625,-0.1883 -9,-0.012 l -2.25,0.3195 0,42.9305 0,42.9304 9,0 9,0 0,-42.9179 z m 250,37.4179 0,-5.5 -14.5,0 -14.5,0 0,-14 0,-14 13,0 13,0 0,-5.5 0,-5.5 -13,0 -13,0 0,-12.5 0,-12.5 14.5,0 14.5,0 0,-5.5 0,-5.5 -23,0 -23,0 0,43 0,43 23,0 23,0 0,-5.5 z m -251.75,-107.6122 c 3.5992,-3.8208 3.6833,-8.6252 0.223,-12.7376 -3.2398,-3.8502 -7.3433,-4.7801 -11.7876,-2.6712 -6.0204,2.8569 -7.522,10.1849 -3.1513,15.3792 4.1229,4.8998 10.1169,4.9118 14.7159,0.03 z m -35.5208,-67.492 c -0.3323,-0.3323 -1.1948,-0.3678 -1.9167,-0.079 -0.7977,0.3193 -0.5608,0.5562 0.6042,0.6042 1.0541,0.043 1.6448,-0.1929 1.3125,-0.5252 z m 84,0 c -0.3323,-0.3323 -1.1948,-0.3678 -1.9167,-0.079 -0.7977,0.3193 -0.5608,0.5562 0.6042,0.6042 1.0541,0.043 1.6448,-0.1929 1.3125,-0.5252 z m -36.9792,-1.1348 c -3.1625,-0.1984 -8.3375,-0.1984 -11.5,0 -3.1625,0.1985 -0.575,0.3608 5.75,0.3608 6.325,0 8.9125,-0.1623 5.75,-0.3608 z m -182.75,-55.761 0,-3.5 -5.5,0 -5.5,0 0,-16.5 0,-16.5 -4.5,0 -4.5,0 0,20 0,20 10,0 10,0 0,-3.5 z m 45,0 0,-3.5 -6.5,0 -6.5,0 0,-4.9501 0,-4.9501 5.75,-0.2999 c 5.6556,-0.295 5.75,-0.3492 5.75,-3.2999 0,-2.9507 -0.094,-3.0049 -5.75,-3.2999 l -5.75,-0.2999 0,-4.9501 0,-4.9501 6.5,0 6.5,0 0,-3.0338 0,-3.0339 -10.75,0.2839 -10.75,0.2838 -0.2734,18.4678 c -0.1504,10.1573 -0.052,19.0448 0.2186,19.75 0.3571,0.9306 3.3799,1.2822 11.0234,1.2822 l 10.5314,0 0,-3.5 z m 71.1878,1.7122 c 0.8717,-0.8717 0.8755,-1.7779 0.015,-3.6661 -0.9615,-2.1102 -1.6178,-2.4131 -4.1361,-1.9095 -7.5975,1.5195 -11.0763,-2.521 -11.0522,-12.8369 0.017,-7.2435 1.3925,-10.6096 5.2115,-12.7532 2.186,-1.2269 3.2827,-1.2929 5.786,-0.348 2.8911,1.0913 3.1534,0.9962 4.0973,-1.4866 1.5053,-3.9592 -1.0812,-5.4591 -8.6337,-5.0067 -7.0107,0.4199 -10.2271,2.3733 -13.6581,8.2948 -2.9749,5.1342 -3.2659,17.1722 -0.5372,22.221 1.9961,3.6932 5.3181,7.0756 8.2195,8.3688 2.6918,1.1998 13.2407,0.5695 14.6878,-0.8776 z m 29.9235,-3.2122 1.6563,-4.5 6.2324,0 6.2324,0 1.6567,4.5 c 1.571,4.2675 1.8751,4.5159 5.8838,4.8075 2.9672,0.2158 4.2302,-0.082 4.2375,-1 0.01,-0.7191 -3.0167,-9.745 -6.7166,-20.0575 l -6.7271,-18.75 -4.0518,0 -4.0518,0 -7.0969,19.25 c -3.9033,10.5875 -6.8907,19.6122 -6.6387,20.0548 0.2521,0.4427 2.0939,0.6677 4.0929,0.5 3.3028,-0.277 3.7857,-0.7156 5.2909,-4.8048 z m 3.8887,-11.6621 c 0,-1.6172 3.4295,-11.3379 4,-11.3379 0.5705,0 4,9.7207 4,11.3379 0,0.3642 -1.8,0.6621 -4,0.6621 -2.2,0 -4,-0.2979 -4,-0.6621 z m 52.221,3.5566 0.279,-13.1056 8.3971,13.1056 c 8.0295,12.532 8.5438,13.1055 11.75,13.1055 l 3.3529,0 0,-20 0,-20 -3.5,0 -3.5,0 -0.019,12.75 -0.019,12.75 -8.2314,-12.7451 -8.2314,-12.7452 -4.25,0 -4.25,0 0,19.3333 c 0,10.6334 0.3,19.6334 0.6667,20 0.3666,0.3667 2.1536,0.6667 3.9709,0.6667 l 3.3044,0 0.279,-13.1055 z m 72.1598,11.8163 c 1.2413,-0.9076 1.5774,-2.0293 1.1355,-3.7897 -0.5693,-2.2685 -1.104,-2.4968 -5.7636,-2.4608 -4.7396,0.037 -5.3142,-0.2225 -7.4444,-3.3582 -1.7046,-2.5091 -2.3083,-4.8061 -2.3083,-8.7821 0,-10.2844 4.0763,-15.1467 11.5265,-13.7491 2.8044,0.5262 3.3839,0.2868 3.9991,-1.6516 1.0061,-3.1699 -1.7557,-4.9193 -7.7664,-4.9193 -8.8528,0 -14.8202,5.1601 -16.7571,14.49 -2.089,10.0626 1.1647,19.2014 8.4092,23.6191 3.6177,2.206 12.2983,2.555 14.9695,0.6017 z m 46.4326,-1.9608 c -0.3134,-3.2498 -0.3137,-3.25 -6.5634,-3.5477 l -6.25,-0.2977 0,-4.9024 0,-4.9024 5.75,-0.2999 c 5.6556,-0.295 5.75,-0.3492 5.75,-3.2999 0,-2.9507 -0.094,-3.0049 -5.75,-3.2999 l -5.75,-0.2999 0,-4.9501 0,-4.9501 6.5,0 6.5,0 0,-3 0,-3 -11,0 -11,0 0,19.3333 c 0,10.6334 0.3,19.6334 0.6667,20 0.3666,0.3667 5.3451,0.6667 11.0633,0.6667 l 10.3967,0 -0.3133,-3.25 z m 33.1866,-4.4454 0.5,-7.1954 5.0358,7.1954 c 4.9262,7.0388 5.1384,7.202 9.75,7.5002 2.5928,0.1676 4.7142,-0.091 4.7142,-0.5743 0,-0.4834 -2.475,-4.1872 -5.5,-8.2305 -3.025,-4.0433 -5.5,-7.632 -5.5,-7.9748 0,-0.3429 1.6006,-1.2022 3.5568,-1.9096 10.2243,-3.6971 7.2186,-18.5663 -4.1854,-20.7057 -3.844,-0.7211 -14.5549,-0.033 -16.3035,1.0481 -0.6966,0.4305 -1.0679,7.2662 -1.0679,19.6585 l 0,18.9985 4.25,-0.3075 4.25,-0.3075 0.5,-7.1954 z m 0.4943,-13.1436 c -0.2719,-0.2719 -0.4943,-3.5693 -0.4943,-7.3277 0,-6.2391 0.1796,-6.8333 2.0657,-6.8333 2.3527,0 6.0788,1.767 7.169,3.3997 1.2185,1.8249 0.8581,6.0229 -0.7093,8.2606 -1.3562,1.9362 -6.8766,3.6552 -8.0311,2.5007 z m -293.4241,-43.8312 c 0.5723,-0.5723 0.7591,-2.1615 0.4153,-3.5316 -0.5768,-2.2983 -0.9877,-2.4569 -5.3054,-2.0488 -4.0677,0.3846 -5.0013,0.099 -7.1348,-2.1858 -1.9303,-2.0668 -2.5397,-3.9639 -2.8528,-8.8818 -0.7063,-11.0923 3.4212,-16.5953 11.334,-15.1109 2.8044,0.5262 3.3839,0.2868 3.9991,-1.6516 0.5155,-1.6241 0.2052,-2.6429 -1.0942,-3.5931 -2.4188,-1.7687 -10.8313,-1.6879 -14.3619,0.1379 -7.4071,3.8303 -11.1907,13.8183 -9.0821,23.9751 2.0679,9.961 8.0284,14.8947 17.2775,14.3011 3.1707,-0.2036 6.2331,-0.8383 6.8053,-1.4105 z m 46.6526,-0.9722 c 4.5988,-3.4335 6.7429,-8.9528 6.7429,-17.3576 0,-12.9441 -5.6326,-20 -15.9657,-20 -9.523,0 -15.35,6.2095 -16.2304,17.2959 -0.8349,10.5141 2.516,18.3325 9.1456,21.3381 4.2227,1.9144 12.9486,1.2315 16.3076,-1.2764 z m -14.3994,-6.9868 c -3.4126,-5.2082 -2.0359,-20.8597 2.0763,-23.6055 2.2461,-1.4997 5.5163,-0.6876 7.5277,1.8696 1.7137,2.1786 2.07,4.0401 2.0579,10.75 -0.019,10.2669 -1.2858,13.0109 -6.198,13.4219 -3.0687,0.2567 -3.96,-0.1407 -5.4639,-2.436 z m 53.6766,-3.2194 0.5,-12.3486 8.2465,12.6622 c 8.0007,12.2849 8.3434,12.6529 11.5,12.3486 l 3.2535,-0.3136 0.2711,-19.75 0.2712,-19.75 -3.9904,0 -3.9903,0 -0.2808,12.0374 -0.2808,12.0373 -7.8549,-12.0373 c -7.8165,-11.9785 -7.8739,-12.0374 -11.75,-12.0374 l -3.8951,0 0,20.0604 0,20.0603 3.75,-0.3103 3.75,-0.3104 0.5,-12.3486 z m 63.7742,-4.4014 0.2742,-16.75 3.4758,0 c 3.1953,0 3.4758,-0.2421 3.4758,-3 l 0,-3 -12,0 -12,0 0,3 c 0,2.7619 0.2778,3 3.5,3 l 3.5,0 0,16.3333 c 0,8.9834 0.3212,16.6545 0.7137,17.0471 0.3926,0.3925 2.5301,0.58 4.75,0.4167 l 4.0363,-0.2971 0.2742,-16.75 z m 39.2258,9.0044 0,-8.2455 5.6927,8.2455 c 5.5807,8.0833 5.7742,8.2456 9.8333,8.2456 2.2774,0 4.4156,-0.2749 4.7516,-0.6109 0.336,-0.336 -2.0756,-4.2711 -5.3591,-8.7446 l -5.9701,-8.1336 2.9629,-0.7677 c 4.2511,-1.1016 7.0887,-5.1669 7.0887,-10.1555 0,-5.0216 -2.1426,-8.3315 -6.5986,-10.1933 -3.9894,-1.6669 -13.8611,-1.8273 -18.2522,-0.2966 l -3.1492,1.0979 0,18.2355 c 0,10.0295 0.3,18.5355 0.6667,18.9021 0.3666,0.3667 2.3916,0.6667 4.5,0.6667 l 3.8333,0 0,-8.2456 z m 1.0821,-12.7037 c -0.7698,-0.4757 -1.0799,-2.9811 -0.8839,-7.1418 l 0.3018,-6.4089 3.2776,0.1505 c 1.8027,0.083 3.9402,0.7003 4.75,1.3724 1.5672,1.3007 1.9807,7.6281 0.6368,9.7454 -1.0551,1.6623 -6.5671,3.2189 -8.0823,2.2824 z m 63.9179,17.4493 0,-3.5 -6,0 -6,0 0,-5.5 0,-5.5 5.5,0 c 5.4444,0 5.5,-0.03 5.5,-3 0,-2.9697 -0.056,-3 -5.5,-3 l -5.5,0 0,-5 0,-5 6,0 c 6,0 6,0 6,-3 l 0,-3 -10.5,0 -10.5,0 0,20 0,20 10.5,0 10.5,0 0,-3.5 z"
       id="path133976" />
    <path
       style="fill:#eb7e1a;display:inline"
       d="m 165.71429,572.36218 0,-281 280.5,0 280.5,0 0,281 0,281 -280.5,0 -280.5,0 0,-281 z m 105.5055,228.9911 c 0.343,-0.555 0.368,-1.8144 0.055,-2.7988 -0.4315,-1.3597 -1.3618,-1.6972 -3.8701,-1.4044 -4.0194,0.4693 -5.6985,-1.2574 -6.32,-6.4987 -0.6808,-5.7426 1.3756,-8.7892 5.9327,-8.7892 2.7609,0 3.8752,-0.484 4.3161,-1.8748 0.7787,-2.4566 -1.1528,-3.5909 -6.1472,-3.6099 -4.9062,-0.019 -8.2257,2.1497 -10.0781,6.5833 -2.7681,6.6248 -1.1044,14.3898 3.8224,17.8407 2.4854,1.7409 11.309,2.137 12.2887,0.5518 z m 23.2777,-0.5518 c 4.9268,-3.4509 6.5905,-11.2159 3.8224,-17.8407 -1.8281,-4.3754 -5.1561,-6.5986 -9.8778,-6.5986 -6.9754,0 -9.9321,2.5907 -12.2125,10.7008 -0.9026,3.2098 1.255,10.1605 4.0087,12.9142 2.8766,2.8766 10.6847,3.328 14.2592,0.8243 z m -9.5402,-4.5963 c -0.7021,-0.7021 -1.243,-3.7423 -1.243,-6.9863 0,-4.747 0.3737,-6.0051 2.1546,-7.2524 4.5753,-3.2047 8.1971,3.3572 6.235,11.2964 -0.6928,2.8032 -1.4441,3.6641 -3.3966,3.8923 -1.3789,0.1611 -3.0664,-0.2664 -3.75,-0.95 z m 28.757,-4.236 c 0,-11.3193 0.5981,-12.4707 5.5087,-10.6037 2.4264,0.9225 2.4913,1.2083 2.4913,10.972 l 0,10.0247 3.5,0 3.5,0 0,-10.0322 c 0,-9.4404 0.1305,-10.0805 2.2127,-10.8508 1.217,-0.4502 3.017,-0.6082 4,-0.3511 1.5716,0.411 1.7873,1.7203 1.7873,10.8507 l 0,10.3834 4,0 4,0 0,-9.4529 c 0,-5.1992 -0.5084,-10.5687 -1.1297,-11.9325 -1.5796,-3.4668 -5.8952,-5.0177 -11.6369,-4.182 -5.1666,0.752 -5.045,0.7523 -13.7334,-0.035 -3.3,-0.2992 -7.2375,-0.072 -8.75,0.5047 l -2.75,1.0487 0,12.0247 0,12.0248 3.5,0 3.5,0 0,-10.393 z m 46,-2.607 0,-13 -3.5,0 -3.5,0 0,13 0,13 3.5,0 3.5,0 0,-13 z m 21.8144,10.7529 c 0.214,-1.1289 -0.5792,-2.0932 -2.2416,-2.7252 -2.4462,-0.9301 -2.5728,-1.3451 -2.5728,-8.4334 0,-6.97 0.1464,-7.476 2.25,-7.7747 1.4768,-0.2098 2.25,-1.0069 2.25,-2.3196 0,-1.3127 -0.7732,-2.1098 -2.25,-2.3196 -1.8367,-0.2608 -2.25,-0.9531 -2.25,-3.769 0,-3.2558 -0.1544,-3.4126 -2.75,-2.7922 -3.9438,0.9427 -4.25,1.2265 -4.25,3.9398 0,1.5031 -0.5763,2.441 -1.5,2.441 -0.9333,0 -1.5,0.9444 -1.5,2.5 0,1.5556 0.5667,2.5 1.5,2.5 1.2157,0 1.5,1.6111 1.5,8.5 0,7.2451 0.3037,8.8037 2.057,10.557 2.6143,2.6143 9.2436,2.4077 9.7574,-0.3041 z m 26.0426,1.3566 c 0.8014,-0.5077 1.1028,-1.6607 0.7362,-2.8158 -0.5385,-1.6968 -1.3238,-1.8977 -5.9267,-1.5159 -4.1067,0.3405 -5.6957,0.05 -7.0308,-1.285 -2.8566,-2.8566 -1.3658,-3.948 6.6894,-4.8972 7.5228,-0.8865 7.6749,-0.9599 7.6749,-3.7029 0,-6.8053 -4.5218,-10.8927 -12.0503,-10.8927 -3.3859,0 -4.7755,0.6258 -7.5497,3.4 -3.1355,3.1355 -3.4,3.8824 -3.4,9.6 0,5.7177 0.2645,6.4645 3.4,9.6 3.1577,3.1577 3.8526,3.3989 9.75,3.3847 3.4925,-0.01 6.9607,-0.4022 7.707,-0.8752 z m -14.3611,-16.057 c 1.1129,-4.6297 6.3616,-6.2294 8.7528,-2.6677 1.7167,2.5569 0.1867,4.12 -4.5689,4.6677 -4.7355,0.5454 -4.7895,0.5195 -4.1839,-2 z m 36.3534,15.3405 c 5.5254,-3.8701 4.3694,-10.1405 -2.4809,-13.4567 -5.6692,-2.7444 -5.6651,-5.4037 0.01,-5.5046 4.6183,-0.082 6.8423,-2.7089 3.712,-4.3842 -3.6764,-1.9675 -9.9595,-1.2678 -12.6343,1.4071 -4.3019,4.3019 -2.9241,9.0834 3.5455,12.3034 2.2526,1.1212 3.5,2.4548 3.5,3.742 0,1.6889 -0.6667,2 -4.286,2 -3.8861,0 -6.1459,1.3404 -6.1987,3.6767 -0.048,2.1306 11.8531,2.3042 14.834,0.2163 z m 86.7167,-17.5007 c 11.672,-4.3613 22.8361,-18.8644 25.9956,-33.7703 4.0547,-19.1289 -0.6357,-38.3266 -12.186,-49.8768 l -5.3098,-5.3098 3.779,-3.4142 c 15.7513,-14.2303 17.4795,-51.2803 3.2327,-69.3039 -11.6169,-14.6965 -40.1713,-17.1743 -54.8587,-4.7603 -8.9354,7.5523 -13.1935,18.1199 -13.9189,34.543 -0.7807,17.6771 2.3087,28.2806 10.981,37.6889 5.328,5.7802 11.8126,9.0172 20.9283,10.4471 16.1376,2.5314 20.4518,5.2606 25.2633,15.9821 5.1125,11.3921 4.6238,32.8382 -1.0012,43.9386 -6.0515,11.942 -18.2958,15.3385 -30.1825,8.3724 -11.5606,-6.7749 -15.1331,-18.8057 -12.8487,-43.2691 l 0.8722,-9.34 -2.3791,0.34 c -7.2247,1.0325 -12.4746,26.7041 -8.5082,41.604 3.6452,13.6931 14.7996,24.8044 28.3209,28.2115 5.4561,1.3749 15.0054,0.4632 21.8201,-2.0832 z m -21.1649,-97.7977 c -5.0211,-2.2803 -7.739,-5.9403 -9.7405,-13.1167 -3.7745,-13.5332 -2.8449,-31.93 2.1211,-41.9779 2.2181,-4.4879 3.5945,-5.9346 7.4801,-7.8618 3.8319,-1.9005 5.6373,-2.2305 9.2452,-1.6894 11.2136,1.6816 16.493,12.5299 16.493,33.8903 0,17.1052 -3.7777,27.2933 -11.4045,30.757 -5.1805,2.3527 -9.0115,2.3523 -14.1944,0 z m -92.3588,86.3618 c 2.8452,-2.9356 3.1792,-3.7038 1.9461,-4.4772 -1.1339,-0.7112 -5.1992,-0.4214 -5.5411,0.395 -0.029,0.069 -0.8164,1.3475 -1.75,2.8406 -0.9335,1.4932 -1.6973,3.1807 -1.6973,3.75 0,2.2115 3.7687,0.8691 7.0423,-2.5084 z m -43.1921,-0.8903 c 0.504,-2.6539 -2.5542,-4.7949 -4.9883,-3.4922 -1.8578,0.9943 -2.4993,3.9554 -1.1493,5.3053 1.4226,1.4227 5.7668,0.1393 6.1376,-1.8131 z m 22.1498,-30.0661 0,-16.5 -2.3776,0 c -1.3076,0 -2.9455,0.6844 -3.6396,1.5208 -0.6942,0.8364 -3.2478,2.0208 -5.6748,2.6319 -3.6667,0.9233 -4.3574,1.4691 -4.0865,3.2292 0.1793,1.1649 0.7653,2.0644 1.3022,1.9988 0.537,-0.066 2.4388,-0.3919 4.2263,-0.725 l 3.25,-0.6057 0,12.475 0,12.475 3.5,0 3.5,0 0,-16.5 z m 26.8288,13.0422 c 5.7673,-6.5685 5.316,-21.2294 -0.8247,-26.7922 -4.2494,-3.8495 -10.0779,-3.8301 -13.9545,0.047 -4.8905,4.8905 -6.0985,17.0856 -2.4162,24.3927 1.9693,3.908 5.239,5.8107 9.9855,5.8107 3.5085,0 4.6579,-0.5513 7.2099,-3.4578 z m -10.9603,-3.7879 c -1.5554,-2.9063 -1.5554,-15.6022 0,-18.5086 0.7369,-1.377 2.1371,-2.2457 3.6197,-2.2457 1.9421,0 2.6227,0.7378 3.4592,3.75 1.3276,4.7803 1.3276,10.7197 0,15.5 -0.8365,3.0122 -1.5171,3.75 -3.4592,3.75 -1.4826,0 -2.8828,-0.8687 -3.6197,-2.2457 z m 34.1315,-9.2543 c 0,-18.8393 0.2636,-18.401 -8.4195,-13.9958 -2.7057,1.3727 -5.7913,2.4958 -6.857,2.4958 -1.3559,0 -1.7553,0.4748 -1.3305,1.5818 0.3339,0.87 0.607,1.9809 0.607,2.4686 0,0.4878 0.5625,0.7149 1.25,0.5048 0.6875,-0.2102 2.7125,-0.6348 4.5,-0.9437 l 3.25,-0.5615 0,12.475 0,12.475 3.5,0 3.5,0 0,-16.5 z m 172.1865,-43.4759 c 7.4454,-2.2996 13.8534,-7.3147 17.098,-13.3815 2.1467,-4.0139 2.2248,-5.222 2.5137,-38.8926 l 0.2983,-34.75 -8.4871,0 -8.487,0 -0.3112,33.2963 c -0.3391,36.2824 -0.3566,36.3941 -6.3257,40.3052 -3.3789,2.2139 -11.4678,2.1128 -15.3697,-0.1922 -5.9105,-3.4914 -6.1158,-4.8616 -6.1158,-40.8104 l 0,-32.5989 -9.5,0 -9.5,0 0,32.3411 c 0,35.1165 0.422,38.5902 5.4966,45.2433 7.5867,9.9467 24.0465,13.9626 38.6899,9.4397 z m -354.1865,-5.0241 0,-6 -13,0 -13,0 0,-38 0,-38 -9.5,0 -9.5,0 0,44 0,44 22.5,0 22.5,0 0,-6 z m 23.6954,-5.25 3.9711,-11.25 14.8328,0 14.8327,0 3.6657,11 3.6657,11 9.7475,0.2872 c 8.9853,0.2647 9.7005,0.1474 9.1468,-1.5 -0.3304,-0.983 -7.4689,-20.6872 -15.8634,-43.7872 l -15.2627,-42 -8.797,0 -8.7971,0 -15.7814,43.2207 c -8.6798,23.7714 -15.5432,43.4589 -15.2521,43.75 0.2911,0.2911 3.9923,0.5293 8.2248,0.5293 l 7.6956,0 3.971,-11.25 z m 7.3117,-22 c 0.063,-2.2096 12.0308,-35.7637 12.3834,-34.7195 2.906,8.6055 10.6095,33.3205 10.6095,34.0381 0,0.5212 -5.0644,0.9314 -11.5,0.9314 -6.325,0 -11.4968,-0.1125 -11.4929,-0.25 z m 130.7928,27 0.2999,-5.75 -13.5499,0 -13.5499,0 0,-38 0,-38 -9,0 -9,0 0,44.0191 0,44.0192 22.25,-0.2692 22.25,-0.2691 0.2999,-5.75 z m 31.2001,-37.75 0,-44 -9,0 -9,0 0,44 0,44 9,0 9,0 0,-44 z m 250.7999,37.75 0.2999,-5.75 -14.5499,0 -14.5499,0 0,-13.5 0,-13.5 12.5,0 12.5,0 0,-6 0,-6 -12.5,0 -12.5,0 0,-12.5 0,-12.5 14.5499,0 14.5499,0 -0.2999,-5.75 -0.2999,-5.75 -23.75,-0.2681 -23.75,-0.2681 0,44.0362 0,44.0362 23.75,-0.2681 23.75,-0.2681 0.2999,-5.75 z m -254.0884,-105.7156 c 8.4157,-5.1313 4.3657,-19.0344 -5.5448,-19.0344 -10.4989,0 -14.667,13.6752 -5.8136,19.0737 4.0041,2.4415 7.3084,2.4301 11.3584,-0.039 z m -84.9823,-65.6386 c -0.3323,-0.3323 -1.1948,-0.3678 -1.9167,-0.079 -0.7977,0.3193 -0.5608,0.5562 0.6042,0.6042 1.0541,0.043 1.6448,-0.1929 1.3125,-0.5252 z m 10,-1 c -0.3323,-0.3323 -1.1948,-0.3678 -1.9167,-0.079 -0.7977,0.3193 -0.5608,0.5562 0.6042,0.6042 1.0541,0.043 1.6448,-0.1929 1.3125,-0.5252 z m 166,0 c -0.3323,-0.3323 -1.1948,-0.3678 -1.9167,-0.079 -0.7977,0.3193 -0.5608,0.5562 0.6042,0.6042 1.0541,0.043 1.6448,-0.1929 1.3125,-0.5252 z m -154.4792,-1.0581 c -0.6875,-0.2774 -1.8125,-0.2774 -2.5,0 -0.6875,0.2774 -0.125,0.5044 1.25,0.5044 1.375,0 1.9375,-0.227 1.25,-0.5044 z m 143,0 c -0.6875,-0.2774 -1.8125,-0.2774 -2.5,0 -0.6875,0.2774 -0.125,0.5044 1.25,0.5044 1.375,0 1.9375,-0.227 1.25,-0.5044 z m -130,-1 c -0.6875,-0.2774 -1.8125,-0.2774 -2.5,0 -0.6875,0.2774 -0.125,0.5044 1.25,0.5044 1.375,0 1.9375,-0.227 1.25,-0.5044 z m 116,0 c -0.6875,-0.2774 -1.8125,-0.2774 -2.5,0 -0.6875,0.2774 -0.125,0.5044 1.25,0.5044 1.375,0 1.9375,-0.227 1.25,-0.5044 z m -97.5,-1.027 c -0.9625,-0.2515 -2.5375,-0.2515 -3.5,0 -0.9625,0.2515 -0.175,0.4573 1.75,0.4573 1.925,0 2.7125,-0.2058 1.75,-0.4573 z m 81.0117,0 c -0.9561,-0.2503 -2.7561,-0.2594 -4,-0.02 -1.244,0.2392 -0.4617,0.444 1.7383,0.4551 2.2,0.011 3.2177,-0.1847 2.2617,-0.4349 z m -36.0117,-1.0517 c -3.1625,-0.1984 -8.3375,-0.1984 -11.5,0 -3.1625,0.1985 -0.575,0.3608 5.75,0.3608 6.325,0 8.9125,-0.1623 5.75,-0.3608 z m -182.75,-55.761 0,-3.5 -5.5,0 -5.5,0 0,-16.5 0,-16.5 -4.5,0 -4.5,0 0,20 0,20 10,0 10,0 0,-3.5 z m 45,0 0,-3.5 -6.5,0 -6.5,0 0,-4.9501 0,-4.9501 5.75,-0.2999 c 5.6556,-0.295 5.75,-0.3492 5.75,-3.2999 0,-2.9507 -0.094,-3.0049 -5.75,-3.2999 l -5.75,-0.2999 0,-4.9501 0,-4.9501 6.5,0 6.5,0 0,-3.0338 0,-3.0339 -10.75,0.2839 -10.75,0.2838 -0.2734,18.4678 c -0.1504,10.1573 -0.052,19.0448 0.2186,19.75 0.3571,0.9306 3.3799,1.2822 11.0234,1.2822 l 10.5314,0 0,-3.5 z m 71.1878,1.7122 c 0.8717,-0.8717 0.8755,-1.7779 0.015,-3.6661 -0.9615,-2.1102 -1.6178,-2.4131 -4.1361,-1.9095 -7.5975,1.5195 -11.0763,-2.521 -11.0522,-12.8369 0.017,-7.2435 1.3925,-10.6096 5.2115,-12.7532 2.186,-1.2269 3.2827,-1.2929 5.786,-0.348 2.8911,1.0913 3.1534,0.9962 4.0973,-1.4866 1.5053,-3.9592 -1.0812,-5.4591 -8.6337,-5.0067 -7.0107,0.4199 -10.2271,2.3733 -13.6581,8.2948 -2.9749,5.1342 -3.2659,17.1722 -0.5372,22.221 1.9961,3.6932 5.3181,7.0756 8.2195,8.3688 2.6918,1.1998 13.2407,0.5695 14.6878,-0.8776 z m 29.9235,-3.2122 1.6563,-4.5 6.2324,0 6.2324,0 1.6567,4.5 c 1.571,4.2675 1.8751,4.5159 5.8838,4.8075 2.9672,0.2158 4.2302,-0.082 4.2375,-1 0.01,-0.7191 -3.0167,-9.745 -6.7166,-20.0575 l -6.7271,-18.75 -4.0518,0 -4.0518,0 -7.0969,19.25 c -3.9033,10.5875 -6.8907,19.6122 -6.6387,20.0548 0.2521,0.4427 2.0939,0.6677 4.0929,0.5 3.3028,-0.277 3.7857,-0.7156 5.2909,-4.8048 z m 3.8887,-11.6621 c 0,-1.6172 3.4295,-11.3379 4,-11.3379 0.5705,0 4,9.7207 4,11.3379 0,0.3642 -1.8,0.6621 -4,0.6621 -2.2,0 -4,-0.2979 -4,-0.6621 z m 52.221,3.5566 0.279,-13.1056 8.3971,13.1056 c 8.0295,12.532 8.5438,13.1055 11.75,13.1055 l 3.3529,0 0,-20 0,-20 -3.5,0 -3.5,0 -0.019,12.75 -0.019,12.75 -8.2314,-12.7451 -8.2314,-12.7452 -4.25,0 -4.25,0 0,19.3333 c 0,10.6334 0.3,19.6334 0.6667,20 0.3666,0.3667 2.1536,0.6667 3.9709,0.6667 l 3.3044,0 0.279,-13.1055 z m 72.1598,11.8163 c 1.2413,-0.9076 1.5774,-2.0293 1.1355,-3.7897 -0.5693,-2.2685 -1.104,-2.4968 -5.7636,-2.4608 -4.7396,0.037 -5.3142,-0.2225 -7.4444,-3.3582 -1.7046,-2.5091 -2.3083,-4.8061 -2.3083,-8.7821 0,-10.2844 4.0763,-15.1467 11.5265,-13.7491 2.8044,0.5262 3.3839,0.2868 3.9991,-1.6516 1.0061,-3.1699 -1.7557,-4.9193 -7.7664,-4.9193 -8.8528,0 -14.8202,5.1601 -16.7571,14.49 -2.089,10.0626 1.1647,19.2014 8.4092,23.6191 3.6177,2.206 12.2983,2.555 14.9695,0.6017 z m 46.4326,-1.9608 c -0.3134,-3.2498 -0.3137,-3.25 -6.5634,-3.5477 l -6.25,-0.2977 0,-4.9024 0,-4.9024 5.75,-0.2999 c 5.6556,-0.295 5.75,-0.3492 5.75,-3.2999 0,-2.9507 -0.094,-3.0049 -5.75,-3.2999 l -5.75,-0.2999 0,-4.9501 0,-4.9501 6.5,0 6.5,0 0,-3 0,-3 -11,0 -11,0 0,19.3333 c 0,10.6334 0.3,19.6334 0.6667,20 0.3666,0.3667 5.3451,0.6667 11.0633,0.6667 l 10.3967,0 -0.3133,-3.25 z m 33.1866,-4.4454 0.5,-7.1954 5.0358,7.1954 c 4.9262,7.0388 5.1384,7.202 9.75,7.5002 2.5928,0.1676 4.7142,-0.091 4.7142,-0.5743 0,-0.4834 -2.475,-4.1872 -5.5,-8.2305 -3.025,-4.0433 -5.5,-7.632 -5.5,-7.9748 0,-0.3429 1.6006,-1.2022 3.5568,-1.9096 10.2243,-3.6971 7.2186,-18.5663 -4.1854,-20.7057 -3.844,-0.7211 -14.5549,-0.033 -16.3035,1.0481 -0.6966,0.4305 -1.0679,7.2662 -1.0679,19.6585 l 0,18.9985 4.25,-0.3075 4.25,-0.3075 0.5,-7.1954 z m 0.4943,-13.1436 c -0.2719,-0.2719 -0.4943,-3.5693 -0.4943,-7.3277 0,-6.2391 0.1796,-6.8333 2.0657,-6.8333 2.3527,0 6.0788,1.767 7.169,3.3997 1.2185,1.8249 0.8581,6.0229 -0.7093,8.2606 -1.3562,1.9362 -6.8766,3.6552 -8.0311,2.5007 z m -293.4241,-43.8312 c 0.5723,-0.5723 0.7591,-2.1615 0.4153,-3.5316 -0.5768,-2.2983 -0.9877,-2.4569 -5.3054,-2.0488 -4.0677,0.3846 -5.0013,0.099 -7.1348,-2.1858 -1.9303,-2.0668 -2.5397,-3.9639 -2.8528,-8.8818 -0.7063,-11.0923 3.4212,-16.5953 11.334,-15.1109 2.8044,0.5262 3.3839,0.2868 3.9991,-1.6516 0.5155,-1.6241 0.2052,-2.6429 -1.0942,-3.5931 -2.4188,-1.7687 -10.8313,-1.6879 -14.3619,0.1379 -7.4071,3.8303 -11.1907,13.8183 -9.0821,23.9751 2.0679,9.961 8.0284,14.8947 17.2775,14.3011 3.1707,-0.2036 6.2331,-0.8383 6.8053,-1.4105 z m 46.6526,-0.9722 c 4.5988,-3.4335 6.7429,-8.9528 6.7429,-17.3576 0,-12.9441 -5.6326,-20 -15.9657,-20 -9.523,0 -15.35,6.2095 -16.2304,17.2959 -0.8349,10.5141 2.516,18.3325 9.1456,21.3381 4.2227,1.9144 12.9486,1.2315 16.3076,-1.2764 z m -14.3994,-6.9868 c -3.4126,-5.2082 -2.0359,-20.8597 2.0763,-23.6055 2.2461,-1.4997 5.5163,-0.6876 7.5277,1.8696 1.7137,2.1786 2.07,4.0401 2.0579,10.75 -0.019,10.2669 -1.2858,13.0109 -6.198,13.4219 -3.0687,0.2567 -3.96,-0.1407 -5.4639,-2.436 z m 53.6766,-3.2194 0.5,-12.3486 8.2465,12.6622 c 8.0007,12.2849 8.3434,12.6529 11.5,12.3486 l 3.2535,-0.3136 0.2711,-19.75 0.2712,-19.75 -3.9904,0 -3.9903,0 -0.2808,12.0374 -0.2808,12.0373 -7.8549,-12.0373 c -7.8165,-11.9785 -7.8739,-12.0374 -11.75,-12.0374 l -3.8951,0 0,20.0604 0,20.0603 3.75,-0.3103 3.75,-0.3104 0.5,-12.3486 z m 63.7742,-4.4014 0.2742,-16.75 3.4758,0 c 3.1953,0 3.4758,-0.2421 3.4758,-3 l 0,-3 -12,0 -12,0 0,3 c 0,2.7619 0.2778,3 3.5,3 l 3.5,0 0,16.3333 c 0,8.9834 0.3212,16.6545 0.7137,17.0471 0.3926,0.3925 2.5301,0.58 4.75,0.4167 l 4.0363,-0.2971 0.2742,-16.75 z m 39.2258,9.0044 0,-8.2455 5.6927,8.2455 c 5.5807,8.0833 5.7742,8.2456 9.8333,8.2456 2.2774,0 4.4156,-0.2749 4.7516,-0.6109 0.336,-0.336 -2.0756,-4.2711 -5.3591,-8.7446 l -5.9701,-8.1336 2.9629,-0.7677 c 4.2511,-1.1016 7.0887,-5.1669 7.0887,-10.1555 0,-5.0216 -2.1426,-8.3315 -6.5986,-10.1933 -3.9894,-1.6669 -13.8611,-1.8273 -18.2522,-0.2966 l -3.1492,1.0979 0,18.2355 c 0,10.0295 0.3,18.5355 0.6667,18.9021 0.3666,0.3667 2.3916,0.6667 4.5,0.6667 l 3.8333,0 0,-8.2456 z m 1.0821,-12.7037 c -0.7698,-0.4757 -1.0799,-2.9811 -0.8839,-7.1418 l 0.3018,-6.4089 3.2776,0.1505 c 1.8027,0.083 3.9402,0.7003 4.75,1.3724 1.5672,1.3007 1.9807,7.6281 0.6368,9.7454 -1.0551,1.6623 -6.5671,3.2189 -8.0823,2.2824 z m 63.9179,17.4493 0,-3.5 -6,0 -6,0 0,-5.5 0,-5.5 5.5,0 c 5.4444,0 5.5,-0.03 5.5,-3 0,-2.9697 -0.056,-3 -5.5,-3 l -5.5,0 0,-5 0,-5 6,0 c 6,0 6,0 6,-3 l 0,-3 -10.5,0 -10.5,0 0,20 0,20 10.5,0 10.5,0 0,-3.5 z"
       id="path133974" />
    <path
       style="fill:#00519d;display:inline"
       d="m 165.71429,708.04008 0,-145.3222 19.25,-6.1295 c 62.7787,-19.9898 121.7038,-31.6065 192.25,-37.9007 28.551,-2.5474 108.1064,-2.5509 137.5,-0.01 69.8641,6.0487 129.2738,17.7933 194.25,38.4008 l 17.75,5.6295 0,145.3251 0,145.3251 -280.5,0 -280.5,0 0,-145.3221 0,0 z m 350.566,75.2144 c 11.672,-4.3613 22.8361,-18.8644 25.9956,-33.7703 4.0547,-19.1289 -0.6357,-38.3266 -12.186,-49.8768 l -5.3098,-5.3098 3.779,-3.4142 c 15.7513,-14.2303 17.4795,-51.2803 3.2327,-69.3039 -11.6169,-14.6965 -40.1713,-17.1743 -54.8587,-4.7603 -8.9354,7.5523 -13.1935,18.1199 -13.9189,34.543 -0.7807,17.6771 2.3087,28.2806 10.981,37.6889 5.328,5.7802 11.8126,9.0172 20.9283,10.4471 16.1376,2.5314 20.4518,5.2606 25.2633,15.9821 5.1125,11.3921 4.6238,32.8382 -1.0012,43.9386 -6.0515,11.942 -18.2958,15.3385 -30.1825,8.3724 -11.5606,-6.7749 -15.1331,-18.8057 -12.8487,-43.2691 l 0.8722,-9.34 -2.3791,0.34 c -7.2247,1.0325 -12.4746,26.7041 -8.5082,41.604 3.6452,13.6931 14.7996,24.8044 28.3209,28.2115 5.4561,1.3749 15.0054,0.4632 21.8201,-2.0832 z m -21.1649,-97.7977 c -5.0211,-2.2803 -7.739,-5.9403 -9.7405,-13.1167 -3.7745,-13.5332 -2.8449,-31.93 2.1211,-41.9779 2.2181,-4.4879 3.5945,-5.9346 7.4801,-7.8618 3.8319,-1.9005 5.6373,-2.2305 9.2452,-1.6894 11.2136,1.6816 16.493,12.5299 16.493,33.8903 0,17.1052 -3.7777,27.2933 -11.4045,30.757 -5.1805,2.3527 -9.0115,2.3523 -14.1944,0 l 0,0 z m 108.7854,11.9295 c 7.4454,-2.2996 13.8534,-7.3147 17.098,-13.3815 2.1467,-4.0139 2.2248,-5.222 2.5137,-38.8926 l 0.2983,-34.75 -8.4871,0 -8.487,0 -0.3112,33.2963 c -0.3391,36.2824 -0.3566,36.3941 -6.3257,40.3052 -3.3789,2.2139 -11.4678,2.1128 -15.3697,-0.1922 -5.9105,-3.4914 -6.1158,-4.8616 -6.1158,-40.8104 l 0,-32.5989 -9.5,0 -9.5,0 0,32.3411 c 0,35.1165 0.422,38.5902 5.4966,45.2433 7.5867,9.9467 24.0465,13.9626 38.6899,9.4397 z m -354.1865,-5.0241 0,-6 -13,0 -13,0 0,-38 0,-38 -9.5,0 -9.5,0 0,44 0,44 22.5,0 22.5,0 0,-6 z m 23.6954,-5.25 3.9711,-11.25 14.8328,0 14.8327,0 3.6657,11 3.6657,11 9.7475,0.2872 c 8.9853,0.2647 9.7005,0.1474 9.1468,-1.5 -0.3304,-0.983 -7.4689,-20.6872 -15.8634,-43.7872 l -15.2627,-42 -8.797,0 -8.7971,0 -15.7814,43.2207 c -8.6798,23.7714 -15.5432,43.4589 -15.2521,43.75 0.2911,0.2911 3.9923,0.5293 8.2248,0.5293 l 7.6956,0 3.971,-11.25 z m 7.3117,-22 c 0.063,-2.2096 12.0308,-35.7637 12.3834,-34.7195 2.906,8.6055 10.6095,33.3205 10.6095,34.0381 0,0.5212 -5.0644,0.9314 -11.5,0.9314 -6.325,0 -11.4968,-0.1125 -11.4929,-0.25 z m 130.7928,27 0.2999,-5.75 -13.5499,0 -13.5499,0 0,-38 0,-38 -9,0 -9,0 0,44.0191 0,44.0192 22.25,-0.2692 22.25,-0.2691 0.2999,-5.75 z m 31.2001,-37.75 0,-44 -9,0 -9,0 0,44 0,44 9,0 9,0 0,-44 z m 250.7999,37.75 0.2999,-5.75 -14.5499,0 -14.5499,0 0,-13.5 0,-13.5 12.5,0 12.5,0 0,-6 0,-6 -12.5,0 -12.5,0 0,-12.5 0,-12.5 14.5499,0 14.5499,0 -0.2999,-5.75 -0.2999,-5.75 -23.75,-0.2681 -23.75,-0.2681 0,44.0362 0,44.0362 23.75,-0.2681 23.75,-0.2681 0.2999,-5.75 z m -254.0884,-105.7156 c 8.4157,-5.1313 4.3657,-19.0344 -5.5448,-19.0344 -10.4989,0 -14.667,13.6752 -5.8136,19.0737 4.0041,2.4415 7.3084,2.4301 11.3584,-0.039 l 0,-3e-4 z"
       id="path133972"
       sodipodi:nodetypes="cccsccccccccccscccsssssssscccssccsssssscccscccccsscccccscccccccccccccccccccccscccccsccccssscccccccccccccccccccccccccccccccccccccccccccccccccsscc" />
  </g>
</svg>
