<?xml version="1.0" encoding="UTF-8" standalone="no"?>
<!-- Created with Inkscape (http://www.inkscape.org/) -->

<svg
   xmlns:dc="http://purl.org/dc/elements/1.1/"
   xmlns:cc="http://creativecommons.org/ns#"
   xmlns:rdf="http://www.w3.org/1999/02/22-rdf-syntax-ns#"
   xmlns:svg="http://www.w3.org/2000/svg"
   xmlns="http://www.w3.org/2000/svg"
   xmlns:sodipodi="http://sodipodi.sourceforge.net/DTD/sodipodi-0.dtd"
   xmlns:inkscape="http://www.inkscape.org/namespaces/inkscape"
   width="513.38336"
   height="264.39456"
   id="svg4338"
   version="1.1"
   inkscape:version="0.47 r22583"
   sodipodi:docname="droso.svg">
  <defs
     id="defs4340">
    <inkscape:perspective
       sodipodi:type="inkscape:persp3d"
       inkscape:vp_x="0 : 526.18109 : 1"
       inkscape:vp_y="0 : 1000 : 0"
       inkscape:vp_z="744.09448 : 526.18109 : 1"
       inkscape:persp3d-origin="372.04724 : 350.78739 : 1"
       id="perspective4346" />
    <inkscape:perspective
       id="perspective4395"
       inkscape:persp3d-origin="0.5 : 0.33333333 : 1"
       inkscape:vp_z="1 : 0.5 : 1"
       inkscape:vp_y="0 : 1000 : 0"
       inkscape:vp_x="0 : 0.5 : 1"
       sodipodi:type="inkscape:persp3d" />
    <filter
       inkscape:collect="always"
       id="filter5001"
       x="-0.35234041"
       width="1.7046808"
       y="-0.36800001"
       height="1.736">
      <feGaussianBlur
         inkscape:collect="always"
         stdDeviation="2.4642858"
         id="feGaussianBlur5003" />
    </filter>
  </defs>
  <sodipodi:namedview
     id="base"
     pagecolor="#ffffff"
     bordercolor="#666666"
     borderopacity="1.0"
     inkscape:pageopacity="0.0"
     inkscape:pageshadow="2"
     inkscape:zoom="0.98994949"
     inkscape:cx="297.44899"
     inkscape:cy="274.03411"
     inkscape:document-units="px"
     inkscape:current-layer="layer1"
     showgrid="false"
     inkscape:window-width="1284"
     inkscape:window-height="688"
     inkscape:window-x="0"
     inkscape:window-y="24"
     inkscape:window-maximized="0" />
  <metadata
     id="metadata4343">
    <rdf:RDF>
      <cc:Work
         rdf:about="">
        <dc:format>image/svg+xml</dc:format>
        <dc:type
           rdf:resource="http://purl.org/dc/dcmitype/StillImage" />
      </cc:Work>
    </rdf:RDF>
  </metadata>
  <g
     inkscape:label="Calque 1"
     inkscape:groupmode="layer"
     id="layer1"
     transform="translate(-376.60609,-493.03273)">
    <g
       id="g4401"
       transform="translate(254.28571,161.42857)">
      <path
         style="fill:#cbae98"
         d="m 314.41747,594.27207 c 0.73635,-0.83527 1.67737,-3.8438 2.09115,-6.68563 0.63895,-4.38846 1.26648,-5.33571 4.16492,-6.2869 3.0683,-1.00693 3.33912,-1.49498 2.68424,-4.83739 -0.4006,-2.04461 -1.59977,-4.36981 -2.66482,-5.16712 -1.62967,-1.21999 -1.67069,-1.60424 -0.25894,-2.42561 1.3298,-0.7737 1.40475,-1.63825 0.36162,-4.17135 -2.11129,-5.12697 -5.03706,-20.27582 -6.2623,-32.42453 -0.6236,-6.18309 -1.48138,-12.75965 -1.90621,-14.61458 -0.74917,-3.27115 -0.80295,-3.29493 -1.78772,-0.79052 -0.55842,1.42014 -1.37891,8.24965 -1.8233,15.17668 -0.61043,9.51494 -1.26792,12.91339 -2.68888,13.89831 -1.70339,1.1807 -1.68944,1.50284 0.14787,3.41406 2.95026,3.06893 1.52878,7.09115 -2.49827,7.0691 -6.36414,-0.0349 -6.73473,-0.95296 -6.441,-15.95701 0.14877,-7.59937 0.80161,-16.09353 1.45076,-18.87592 2.3833,-10.21541 4.78648,-27.46956 3.9257,-28.18544 -1.97847,-1.64542 -9.10958,-3.22594 -11.74528,-2.60319 -2.22742,0.52628 -3.10907,0.0551 -4.22979,-2.26043 -0.7787,-1.6089 -2.10474,-2.92528 -2.94676,-2.92528 -0.94737,0 -1.67091,-1.82123 -1.89814,-4.77785 -0.38941,-5.06667 -2.49063,-6.53665 -3.14399,-2.19949 -0.30242,2.00749 -0.91627,2.42065 -2.77251,1.86602 -1.47162,-0.4397 -3.25377,0.0286 -4.6564,1.22357 -1.94889,1.66035 -2.78353,1.73656 -5.86391,0.5354 -1.97537,-0.77027 -4.36814,-1.11996 -5.31727,-0.77709 -2.73188,0.98687 -9.06489,-1.75181 -9.06489,-3.92007 0,-4.42834 -4.46848,-3.20275 -6.36147,1.74479 -0.26217,0.6852 -0.90623,0.86854 -1.43125,0.40743 -0.52501,-0.46112 -0.314,-2.16188 0.46891,-3.77947 1.6391,-3.3866 0.32106,-5.63214 -4.27043,-7.2755 -1.8514,-0.66265 -2.736,-1.89387 -2.736,-3.80806 0,-1.61128 -1.02796,-3.43314 -2.38838,-4.23294 -1.3136,-0.77228 -2.38837,-2.23523 -2.38837,-3.25101 0,-1.89038 -4.33596,-3.62244 -6.26244,-2.50159 -1.07407,0.62491 -0.53586,6.04087 1.43548,14.44498 4.03201,17.18913 4.02844,17.08675 0.73722,21.14887 -1.68056,2.07419 -3.39971,5.39112 -3.82033,7.37095 -0.42061,1.97983 -1.76853,4.1054 -2.99537,4.72351 -1.22684,0.61811 -2.23062,1.59435 -2.23062,2.16943 0,1.70341 -7.04812,11.65255 -8.97338,12.66684 -0.97586,0.51411 -1.7743,1.69357 -1.7743,2.62101 0,2.24355 -3.07275,7.8497 -7.33291,13.37869 -10.42851,13.5345 -13.33528,18.82938 -14.76079,26.88775 -0.92606,5.23503 -5.97155,11.89709 -9.01022,11.89709 -1.18798,0 -3.32658,-1.3912 -4.75246,-3.09155 -3.85429,-4.59621 -2.8222,-13.2426 1.96448,-16.4576 5.52567,-3.71135 9.28068,-7.87823 13.43295,-14.90635 2.1374,-3.61776 5.97373,-9.86602 8.52517,-13.88503 2.55144,-4.019 4.6717,-8.82495 4.71169,-10.67988 0.081,-3.75521 2.08922,-6.86543 8.7177,-13.50118 5.05107,-5.05662 6.40591,-7.90145 4.70527,-9.87988 -0.63886,-0.74321 -1.83779,-8.62114 -2.66429,-17.50651 -1.22252,-13.14284 -1.21194,-18.53178 0.0567,-28.9007 1.26732,-10.35786 1.27314,-13.07025 0.031,-14.47918 -2.21312,-2.51037 -4.26229,-2.13825 -6.58252,1.19532 -1.7142,2.46287 -2.04085,5.90711 -2.05245,21.64082 -0.0156,21.15583 -0.16477,22.18839 -3.31781,22.96461 -1.25312,0.30849 -3.07067,2.34594 -4.03901,4.52769 -0.96834,2.18173 -3.01522,4.596 -4.54863,5.36504 -5.96583,2.99202 -15.55339,10.54852 -17.20988,13.56408 -0.95705,1.74226 -3.30915,3.93159 -5.22688,4.86517 -1.91774,0.93357 -6.26394,4.46173 -9.65822,7.84035 -4.07088,4.05208 -8.05961,6.78087 -11.71888,8.01719 -3.0511,1.03084 -8.31875,3.13495 -11.7059,4.6758 -6.11039,2.77969 -8.76889,2.7022 -8.76889,-0.25559 0,-2.12034 5.43388,-5.95306 10.19437,-7.19045 2.17087,-0.56428 6.29603,-2.54739 9.16702,-4.40691 6.32268,-4.09517 23.63089,-20.20504 23.62542,-21.9897 -0.002,-0.70309 3.98872,-4.82715 8.8686,-9.16459 l 8.87252,-7.88627 -0.66377,-7.29041 c -0.38443,-4.22228 -1.45537,-8.14423 -2.54474,-9.31922 -1.80501,-1.94686 -1.95813,-1.9325 -3.79148,0.35558 -2.15503,2.68954 -18.24965,6.33392 -23.00765,5.20972 -1.51522,-0.358 -4.73514,-2.5649 -7.15537,-4.9042 -10.72066,-10.3622 -11.84458,-11.76587 -11.22031,-14.01318 0.34426,-1.23928 -0.43543,-4.03212 -1.73263,-6.20632 -1.29721,-2.17421 -2.20959,-4.7831 -2.02751,-5.79753 0.18207,-1.01443 -0.58488,-3.07466 -1.70433,-4.57829 -1.46875,-1.9728 -1.68377,-3.13271 -0.77239,-4.1665 1.63785,-1.85783 0.33946,-3.77951 -2.55365,-3.77951 -2.82629,0 -4.74828,-3.21901 -4.74828,-7.95259 0,-2.1061 -0.85083,-4.1893 -2.04743,-5.01299 -1.83412,-1.26254 -1.91023,-2.30588 -0.73058,-10.01435 0.72754,-4.75409 2.17822,-9.50099 3.24162,-10.60716 1.05862,-1.1012 1.92476,-3.10061 1.92476,-4.44312 0,-1.53141 0.74365,-2.44092 1.99579,-2.44092 1.09769,0 2.93383,-0.79916 4.08032,-1.7759 1.61125,-1.37271 2.63149,-1.50033 4.49372,-0.5621 5.685,2.8642 11.91243,0.29102 10.36971,-4.28478 -0.8644,-2.56386 2.19632,-4.6192 6.8787,-4.6192 1.59353,0 4.87702,-1.26473 7.29666,-2.8105 2.41963,-1.54577 5.38443,-2.81049 6.58845,-2.81049 1.20401,0 2.83491,-0.73254 3.62422,-1.62786 1.64322,-1.86392 9.60502,-6.47373 9.60502,-5.56122 0,0.33247 -0.80608,1.36332 -1.79128,2.29078 -0.9852,0.92747 -1.79128,2.409 -1.79128,3.2923 0,3.17581 5.2298,1.51473 10.87122,-3.4529 5.58285,-4.91604 10.37945,-6.76133 9.04116,-3.47822 -0.77825,1.90922 2.42322,4.81006 5.89461,5.34108 1.48092,0.22654 5.90495,-1.65978 10.72712,-4.57383 11.2577,-6.80305 20.90881,-10.88873 31.71344,-13.4255 5.02441,-1.17966 12.20969,-3.46985 15.96728,-5.08931 3.75759,-1.61946 7.57312,-2.94448 8.47895,-2.94448 3.03146,0 1.69023,2.12359 -2.53268,4.01004 -2.29881,1.02693 -4.17965,2.63004 -4.17965,3.56246 0,1.47387 0.35099,1.4575 2.68692,-0.12523 4.04738,-2.74236 11.368,-6.32307 12.92727,-6.32307 0.91099,0 0.75289,0.89973 -0.46578,2.65063 l -1.84487,2.65063 4.99154,-0.8814 c 2.74537,-0.48477 6.51722,-1.42921 8.3819,-2.09876 1.86468,-0.66955 4.82029,-1.1453 6.56803,-1.05723 1.74773,0.0881 4.11811,-0.21439 5.26751,-0.67214 1.14941,-0.45776 2.08983,-0.56227 2.08983,-0.23225 0,0.87754 -7.24801,4.13731 -9.19918,4.13731 -0.91691,0 -3.29061,0.79034 -5.27487,1.75631 -2.97997,1.45069 -3.35406,2.04407 -2.14983,3.41004 1.27094,1.44164 1.77954,1.38433 3.96561,-0.44689 5.54875,-4.64805 17.01266,-7.4994 14.44852,-3.59369 -0.41223,0.62791 0.49413,1.61119 2.01414,2.18508 2.06628,0.78014 2.23631,1.06141 0.67381,1.11469 -2.50133,0.0853 -2.85036,3.44385 -0.35789,3.44385 0.95257,0 2.235,-0.84622 2.84983,-1.88048 0.71451,-1.20194 2.99819,-2.00945 6.32882,-2.23789 2.86602,-0.19658 7.47204,-1.15462 10.23561,-2.12899 2.76357,-0.97438 6.79395,-1.61147 8.9564,-1.41576 3.61995,0.32762 3.27572,0.5787 -4.34106,3.16633 -4.55003,1.54577 -8.46685,3.37507 -8.70404,4.06511 -0.24525,0.7135 1.65542,1.56873 4.40685,1.98291 3.59159,0.54066 6.00639,0.1672 9.37274,-1.44953 2.49407,-1.19781 7.99544,-3.02756 12.22526,-4.06612 9.02453,-2.21582 30.97723,-3.40323 30.97723,-1.67554 0,0.62874 -1.30436,1.14317 -2.89859,1.14317 -3.04048,0 -24.97128,8.92383 -27.28604,11.10293 -0.99308,0.93487 -0.20792,1.26325 3.02041,1.26325 2.39926,0 5.72886,0.58615 7.39909,1.30257 2.4925,1.06909 3.42912,0.96834 5.22553,-0.5621 3.04413,-2.59346 4.81102,-2.33224 6.39758,0.94583 1.66887,3.4481 2.86307,3.54605 4.66166,0.38233 1.23991,-2.18101 1.49411,-2.2369 2.49749,-0.54905 0.61438,1.0335 2.56467,1.87671 4.33398,1.87378 10.79013,-0.0178 30.5396,1.19441 36.65415,2.24992 3.94082,0.68028 8.50858,1.37666 10.15059,1.54753 1.642,0.17086 3.79154,0.61842 4.77674,0.99457 1.79249,0.68436 8.44049,1.46608 22.327,2.62537 4.14097,0.3457 8.00897,1.30889 8.78325,2.18716 1.04129,1.18114 1.96802,1.27497 3.7459,0.37924 1.82793,-0.92094 2.87324,-0.7549 4.62089,0.73399 1.93944,1.65232 2.76917,1.72506 5.87266,0.5149 2.96145,-1.15478 3.97054,-1.13081 5.58778,0.13271 1.0855,0.84809 2.8836,1.39687 3.99576,1.2195 1.11215,-0.17737 2.68862,0.43355 3.50325,1.3576 0.95896,1.08774 2.64092,1.46173 4.77066,1.06075 1.80922,-0.34064 5.92707,0.25193 9.15079,1.31681 3.22371,1.06489 9.0856,2.10299 13.02642,2.30688 6.75822,0.34966 13.22344,1.66297 19.46172,3.95334 1.50871,0.55392 4.29826,1.00712 6.19901,1.00712 1.90074,0 3.78801,0.50589 4.19394,1.1242 0.40593,0.61831 1.56918,1.1242 2.58501,1.1242 1.01583,0 3.47955,1.29322 5.47492,2.87382 2.54763,2.01805 4.00362,2.5202 4.88943,1.6863 1.83548,-1.7279 7.01426,-1.45339 10.02431,0.53136 1.60498,1.05829 3.75272,1.44814 5.58847,1.01439 2.28614,-0.54015 3.68254,0.007 5.98633,2.3476 2.16402,2.19817 3.59828,2.80802 5.12636,2.17973 1.16694,-0.4798 2.65909,-0.74048 3.31589,-0.57928 17.3978,4.26991 25.77185,7.99375 37.56309,16.70384 2.8162,2.08031 2.86945,2.35978 1.35192,7.09634 -0.86886,2.7119 -1.7682,5.5631 -1.99855,6.33599 -0.23034,0.77288 -2.11874,1.40524 -4.19643,1.40524 -2.0777,0 -5.55986,1.03693 -7.73814,2.30428 -4.06783,2.36671 -17.74598,3.62748 -36.32666,3.34837 -10.06358,-0.15116 -54.28669,-4.29622 -59.70934,-5.59659 -2.29881,-0.55126 -8.21004,-1.33697 -13.13606,-1.74603 -4.92602,-0.40906 -10.83724,-1.17733 -13.13605,-1.70728 -5.96033,-1.37405 -22.27262,-4.20807 -29.03873,-5.04505 -4.31227,-0.53344 -6.5046,-0.24738 -8.7584,1.14282 -2.77127,1.70938 -2.85841,2.00823 -1.11449,3.8223 1.04051,1.08236 1.89271,2.43398 1.89379,3.00361 0.004,1.62624 9.27472,9.42373 12.63571,10.62669 1.66676,0.59656 2.71009,1.57268 2.3185,2.16914 -0.39158,0.59647 0.53554,3.00039 2.06026,5.34205 5.42549,8.33236 6.96685,13.08583 3.88184,11.97139 -3.84027,-1.38728 -1.62562,3.00104 2.29225,4.54209 4.46294,1.75545 5.91618,3.68582 7.27683,9.66594 0.4924,2.16409 2.13562,6.49131 3.65162,9.61605 4.08616,8.42229 4.7258,15.53339 2.25728,25.09457 -1.37966,5.34376 -2.85125,8.48724 -4.31951,9.22697 -1.32409,0.6671 -5.83814,0.81392 -11.13421,0.36213 -10.12325,-0.86357 -13.51792,0.4183 -16.76589,6.3311 -1.71037,3.11365 -1.69269,3.66634 0.21463,6.70594 1.14326,1.82194 4.38909,4.87462 7.21299,6.78373 2.8239,1.90912 5.13435,3.94557 5.13435,4.52546 0,0.57989 1.58044,1.05434 3.51208,1.05434 1.93165,0 3.80131,0.44055 4.15481,0.979 0.3535,0.53845 2.25691,1.28291 4.22982,1.65437 1.9729,0.37145 6.23166,3.02507 9.4639,5.89691 7.12871,6.33387 8.48341,11.39085 4.09186,15.27471 -2.5226,2.23097 -3.12226,2.30643 -7.82277,0.98443 -8.92458,-2.51001 -14.3912,-5.73935 -24.79482,-14.64723 -5.58282,-4.78017 -11.49404,-9.08707 -13.13605,-9.57088 -1.64201,-0.48381 -6.19086,-3.39356 -10.10857,-6.46611 -3.91769,-3.07255 -8.39676,-6.04233 -9.95349,-6.5995 -1.55672,-0.55718 -8.29294,-4.49224 -14.96936,-8.74459 -12.58795,-8.0175 -23.10063,-13.42987 -31.14193,-16.03319 -2.57001,-0.83201 -7.21672,-3.66278 -10.32605,-6.2906 -3.95874,-3.34569 -6.7126,-4.77784 -9.18724,-4.77784 -2.22086,0 -5.63291,-1.50876 -9.18311,-4.06067 l -5.64919,-4.06068 -4.01041,3.65924 -4.01042,3.65923 -9.13938,-0.77965 c -12.13802,-1.03546 -14.07444,0.12754 -16.1064,9.6733 -0.82959,3.89724 -1.62169,9.61535 -1.76021,12.7069 -0.29934,6.67966 2.61145,29.90638 3.88913,31.03349 0.49125,0.43335 1.92341,0.96349 3.18259,1.17809 3.22062,0.54887 3.69251,2.86746 0.76179,3.74312 -2.8954,0.8651 -3.07633,3.32662 -1.01765,13.84464 1.20607,6.16198 1.97248,7.62519 4.77861,9.1232 2.19285,1.17062 3.08726,2.36404 2.60095,3.47046 -0.89186,2.02911 -0.85735,2.60159 0.52399,8.69198 0.59344,2.61651 1.61471,5.3989 2.26948,6.18309 0.65477,0.78419 1.52136,3.06994 1.92577,5.07945 l 0.73527,3.65364 -14.4466,0 c -11.99731,0 -14.21962,-0.25748 -13.10776,-1.51867 z M 282.13738,419.81129 c -1.46865,-2.34328 -2.8698,-3.69694 -3.1137,-3.00814 -0.44739,1.2635 4.55007,8.4302 5.35205,7.67522 0.23754,-0.22362 -0.76972,-2.32381 -2.23835,-4.66708 z m 346.49899,-0.51967 c 0,-0.61831 -0.53739,-1.1242 -1.19419,-1.1242 -0.6568,0 -1.19419,0.50589 -1.19419,1.1242 0,0.61831 0.53739,1.1242 1.19419,1.1242 0.6568,0 1.19419,-0.50589 1.19419,-1.1242 z m -340.34323,-5.05889 c 0,-0.92746 -0.80608,-1.6863 -1.79128,-1.6863 -1.86481,0 -2.36923,1.32959 -0.99515,2.62313 1.37406,1.29354 2.78643,0.81869 2.78643,-0.93683 z m 323.62461,-14.05248 c 0,-0.61831 -0.53738,-1.1242 -1.19418,-1.1242 -0.65681,0 -1.19419,0.50589 -1.19419,1.1242 0,0.61831 0.53738,1.1242 1.19419,1.1242 0.6568,0 1.19418,-0.50589 1.19418,-1.1242 z M 308.59431,334.41466 c 0,-1.22623 1.34313,-1.6863 4.92297,-1.6863 4.24058,0 4.7169,0.23375 3.43634,1.6863 -0.81765,0.92746 -3.03298,1.68629 -4.92296,1.68629 -2.2584,0 -3.43635,-0.57804 -3.43635,-1.68629 z"
         id="path4419" />
      <path
         style="fill:#af9d93"
         d="m 320.70236,594.38549 c -1.41268,-13.14107 7.14142,-22.12496 -0.46608,-36.84297 -5.71618,-13.57729 -1.59457,-36.0206 -9.94352,-44.82124 -2.82147,14.06531 -3.09196,34.24037 -7.29195,41.26775 -9.8997,-14.85522 -0.64152,-39.01848 1.31827,-56.83048 -1.71431,-6.84428 -1.73978,-21.5674 -7.94317,-8.24196 -11.65056,3.19174 -10.66299,-12.21462 -17.04136,-16.06739 -8.39195,15.04527 -25.76474,5.97851 -34.59945,-2.9233 -7.26534,-2.57255 -14.72019,-27.43995 -20.19377,-10.91737 6.64886,18.69161 3.54006,36.6563 -10.42447,50.96466 -12.51027,11.56286 -19.03055,30.38584 -28.87875,46.01153 1.48196,12.53228 -18.70092,18.51656 -12.39015,2.67113 13.43779,-14.4369 25.80899,-30.92149 30.74876,-50.02579 20.23395,-12.20232 7.11023,-33.38952 8.7818,-52.02541 -0.71685,-8.38327 7.18746,-38.24512 -7.90351,-28.03839 -6.19069,16.5468 0.90632,36.57048 -9.6808,50.82753 -17.85756,11.76761 -31.46857,28.13595 -49.68944,38.89092 -7.00785,2.08337 -24.14972,8.61199 -8.37857,-0.52368 19.99863,-6.59275 30.73629,-26.94106 46.46659,-39.63086 9.3487,-4.29959 6.91278,-20.58427 -0.4591,-24.99487 -8.90921,7.99033 -18.88089,-4.36066 -31.76595,0.91328 -13.40204,-8.18339 -10.17605,-30.75038 -22.92232,-39.03864 -5.40513,-13.66223 -5.65245,-40.05398 17.33992,-37.12536 5.59493,-7.43302 27.25579,-19.77728 32.24321,-18.11816 5.15162,11.19592 19.27479,-13.90765 19.23611,-1.62587 16.14951,4.64464 28.32696,-13.26586 44.25579,-15.6352 9.17263,-1.72099 21.7346,-9.19293 25.58333,1.02019 0.72338,-7.90579 30.54466,-4.07767 21.22576,-4.02468 -3.09546,14.92374 17.67668,-7.02851 20.32081,7.64208 9.63191,-2.55036 15.72138,-8.36477 15.10331,1.01289 16.00979,3.3627 34.65166,-12.80951 48.34672,-7.04051 -5.99053,5.09918 -37.96119,8.39285 -18.04135,14.08666 19.79384,-0.016 36.86625,11.33579 55.76141,15.28723 17.78194,5.7864 36.10556,9.3921 54.41815,13.22836 10.46221,1.22266 28.34615,8.73641 26.35784,17.966 18.59925,7.17177 39.57669,8.93505 59.38053,12.85772 20.13652,4.34716 40.21341,2.44208 60.09917,-0.71162 8.30928,-5.56807 26.68379,-2.16825 10.7188,6.80566 -16.80049,10.40959 -37.55798,7.07174 -56.49388,6.39994 -33.21569,-2.15881 -65.90538,-8.82099 -98.84407,-13.01637 -17.72569,0.778 -7.52208,21.18952 4.75255,21.03916 11.03764,9.18115 7.63474,23.42075 19.82979,30.88787 6.2413,11.95693 15.63598,40.21649 -3.17545,43.87745 -17.06458,-3.97425 -38.1182,12.71876 -15.33978,23.64797 4.67275,8.98852 33.96827,6.43218 26.30679,17.95501 -5.20253,-4.86802 -24.54146,-9.37567 -10.03572,0.2244 17.8951,15.93814 -34.36653,-14.32579 -13.44386,-9.16684 -3.33618,-11.46948 -29.91408,-13.01591 -41.65547,-22.34925 -17.35302,-13.23831 -39.38853,-18.29954 -55.84702,-32.34612 -12.52541,-3.4363 -20.59578,-12.64505 -31.60501,-1.25089 -6.43102,-0.69379 -15.7768,-29.4231 -15.03699,-11.77285 10.09815,4.88853 7.36959,12.80784 -1.98301,7.01405 -7.64125,17.03657 -7.88449,37.2466 -4.11036,55.80849 10.17162,6.93957 -2.433,24.39789 10.41975,34.8915 -5.10542,6.3911 5.38598,25.74602 -7.12853,23.30894 -2.08623,-0.24022 -4.6508,0.35517 -6.3023,-1.4023 z m 125.82052,-76.16443 c -3.65381,-3.61595 -0.38909,3.89463 0,0 z m -13.73314,-14.61457 c 23.1369,-3.5622 -4.07859,-29.5445 -1.79128,-32.14011 10.27281,-2.01703 -17.8735,-22.22981 -3.5008,-6.20717 -14.12957,4.42869 -25.88248,-23.44019 -37.57661,-9.47437 7.46522,18.25136 8.06332,40.61359 31.23895,46.49848 3.32299,1.10627 9.09843,6.23879 11.62974,1.32317 z M 322.92455,475.93094 c -3.0665,-4.06203 -2.50709,7.31117 0,0 z m 1.56746,-6.46877 c 4.51052,-8.31821 -1.11178,-17.6525 -2.20408,-3.66005 -1.35192,1.3128 -0.0573,8.2029 2.20408,3.66005 z m -30.00513,-11.94781 c 9.09702,-5.52091 4.45761,-18.0702 -0.64732,-3.13099 -4.66242,4.19434 -7.11992,6.65455 0.64732,3.13099 z m 33.81151,-5.99572 c -2.6291,-6.86183 -3.59275,7.78965 0,0 z m -131.41154,-0.82715 c -3.81945,-3.10483 -0.302,5.31998 0,0 z m 97.76401,-8.6806 c 5.06283,-3.5814 13.85205,-12.8256 5.22373,-14.31566 -3.78912,16.67514 -30.56324,0.98345 -17.53449,20.28139 4.11957,5.74247 10.40336,-2.22752 12.31076,-5.96573 z m -115.62581,4.87449 c 10.72742,-6.90069 -19.88222,1.90776 -2.48387,1.83457 l 2.48387,-1.83457 0,0 z m 209.57978,0.041 c -2.23359,-9.79816 -8.67253,2.50916 0,0 z m 26.75308,-4.31882 c 10.88002,-11.66806 -17.46428,-14.85756 -4.06354,-0.14142 -0.0215,2.54007 3.23883,1.27804 4.06354,0.14142 z m -79.2973,-5.3288 c -4.46169,-11.09137 -3.22078,10.94983 0,0 z m -44.80038,-12.82348 c 7.22385,-8.85377 -14.96645,-30.96483 -18.53948,-11.1189 -14.00195,-8.01726 4.85098,23.88872 7.62646,15.5123 3.19156,6.34632 6.71217,-4.89747 10.91302,-4.3934 z m 113.78954,4.04068 c -3.28678,-4.83973 -3.97655,5.71094 0,0 z m -7.16512,-3.79416 c -3.97654,-5.71094 -3.28679,4.83972 0,0 z m -8.99704,-3.40952 c 8.86764,-13.9243 -9.67845,-2.75358 -0.18728,1.33632 l 0.18728,-1.33632 0,0 z m -84.53419,-5.63212 c 8.83301,-14.77434 -25.8084,-14.10178 -6.96744,-1.98599 0.0639,8.05607 1.82876,7.41604 6.96744,1.98599 z m 63.35314,1.38304 c -3.65379,-3.61598 -0.38913,3.89462 0,0 z m 65.44202,-1.5072 c -4.75151,-14.51187 -9.72186,5.292 0,0 z m -121.44103,-8.1404 c -7.09132,-15.49834 -3.03378,7.76478 0,0 z m -57.38443,-2.81651 c -1.10802,-9.71799 -17.19648,5.35864 0,0 z m 220.26315,-6.08513 c -18.20082,-8.11043 -37.08082,-14.63923 -56.74921,-12.97305 -19.24038,-1.5694 -37.74187,-10.99106 -56.19237,-12.53731 -0.48483,14.64811 36.54582,9.17424 34.02448,23.82829 12.49632,6.3323 -3.17254,-11.22437 11.87028,-4.0349 21.28853,3.76236 48.70923,8.9496 67.04682,5.71697 l 0,0 z m -133.20283,-7.22961 c -1.30819,-6.56664 -9.69043,3.97674 0,0 z m 11.09724,-1.48293 c -4.92683,-5.33375 -5.64414,5.65264 0,0 z m -73.74104,-13.77143 c -2.81564,-6.30932 -1.3737,5.98571 0,0 z m 47.40234,-5.52535 c 9.06481,-9.43253 -13.11724,3.58789 -2.4932,1.81077 l 2.4932,-1.81077 z m -11.57673,-1.84828 c -2.41694,-2.49103 -2.76472,3.80568 0,0 z m 29.54092,-3.57326 c 6.3595,0.81178 23.40946,-5.82364 7.09974,-5.20753 -9.48423,-6.97812 -9.42376,4.00317 -16.17737,6.28481 2.36827,1.77471 6.6093,-0.0673 9.07763,-1.07728 z m 30.16841,-2.54349 c -5.26568,-6.10926 -19.96379,0.25844 -4.39303,1.39591 0.96554,-0.19346 4.3989,0.79707 4.39303,-1.39591 z m -78.81632,-5.12524 c -2.41696,-2.491 -2.7647,3.80569 0,0 z m -0.43102,-6.11674 c -15.11617,-7.49535 -7.29661,12.29945 0,0 z m 282.85619,56.77201 c 3.24333,-4.04947 9.56144,3.05492 1.39822,0.79397 l -1.39822,-0.79397 z m 42.63247,-0.22484 c -6.3182,-14.52957 11.27458,4.74459 0,0 z m -18.15164,-6.54161 c -8.71338,-4.54781 7.98474,0.19433 3.6122,2.12587 l -3.6122,-2.12587 0,0 z M 451.89673,378.76123 c -22.52089,-11.16131 31.97677,1.57024 7.0988,0.68014 -2.36469,-0.093 -4.84141,0.27215 -7.0988,-0.68014 z m 72.24829,0.0593 c 4.71212,-4.67714 8.64622,4.30678 0,0 z m -87.4493,-5.176 c 5.49171,-1.59862 1.05655,2.18513 0,0 z m 38.48765,-3.81759 c 0.30551,-4.13524 3.58321,3.78627 0,0 z m -19.47602,-0.91499 c -8.9377,-5.78159 23.84492,-0.61232 3.57467,0.41575 l -3.57467,-0.41575 z m -15.1554,-2.34412 c -11.45885,-4.12148 -34.42812,-1.94479 -40.04789,-8.52017 16.82427,1.02037 33.823,3.96614 49.00429,7.84459 -1.64279,3.03588 -6.47303,1.20386 -8.9564,0.67558 z M 311.30611,334.29755 c 5.49166,-1.59849 1.05655,2.18505 0,0 z"
         id="path4417" />
      <path
         style="fill:#ce9260"
         d="m 323.18687,592.1371 c -1.85269,-2.12648 -1.08946,-8.74949 1.14386,-9.92608 1.5935,-0.83949 1.83683,-2.31459 1.32917,-8.05748 -0.34179,-3.86642 -1.34235,-8.11668 -2.22348,-9.44503 -0.88112,-1.32835 -2.20138,-5.88135 -2.9339,-10.11778 -0.73253,-4.23644 -1.83069,-9.53192 -2.44038,-11.76774 -0.60968,-2.23581 -1.11258,-6.28293 -1.11754,-8.99358 -0.0107,-5.91368 -1.96808,-18.09493 -3.7438,-23.30018 -2.93321,-8.5982 -6.27786,3.60364 -6.78701,24.7601 -0.18183,7.55574 -0.50679,8.7261 -2.59623,9.35039 -2.59119,0.77421 -3.17048,3.87294 -1.09013,5.83136 0.86806,0.81719 0.89541,1.45653 0.0825,1.92948 -0.66865,0.38903 -1.64071,0.0667 -2.16013,-0.71626 -1.32916,-2.00355 -0.60529,-25.39037 0.92411,-29.85595 0.69695,-2.035 0.98551,-4.391 0.64126,-5.23554 -0.34426,-0.84454 0.0844,-4.49138 0.95264,-8.10408 3.16564,-13.17249 3.32553,-16.65508 0.86106,-18.75468 -1.52247,-1.29707 -2.06345,-2.8761 -1.66226,-4.85181 0.73281,-3.60877 -2.10657,-3.22455 -3.90754,0.52875 -1.2791,2.66574 -2.44032,3.09581 -3.59793,1.33252 -0.40592,-0.6183 -1.80356,-1.12419 -3.10587,-1.12419 -3.57799,0 -6.62151,-3.42076 -7.43239,-8.35364 -0.93282,-5.67462 -3.51317,-8.34478 -6.10629,-6.3188 -1.51595,1.18438 -1.96626,1.11837 -2.57607,-0.37763 -0.40644,-0.9971 -1.28442,-1.81291 -1.95107,-1.81291 -0.6699,0 -0.45496,1.07347 0.48055,2.39983 1.53773,2.1802 1.38045,2.73176 -1.71857,6.02701 -3.32087,3.53115 -3.52782,3.58798 -7.81644,2.14631 -2.4229,-0.81448 -5.2882,-1.50308 -6.36732,-1.53022 -1.07914,-0.0271 -2.26207,-0.78532 -2.62874,-1.68485 -0.36668,-0.89952 -2.86858,-2.69299 -5.55979,-3.98548 -2.69121,-1.29249 -5.18527,-3.0667 -5.54234,-3.94269 -0.35709,-0.876 -1.62093,-1.88304 -2.80857,-2.2379 -1.18763,-0.35484 -2.45925,-1.77009 -2.82581,-3.14499 -0.36655,-1.37489 -2.67015,-4.51857 -5.1191,-6.98595 -2.44895,-2.46737 -4.5907,-5.23111 -4.75944,-6.14163 -0.39188,-2.1146 -4.03429,-4.65353 -5.4742,-3.81578 -0.6048,0.3519 -0.73017,1.47394 -0.27858,2.49344 0.45161,1.0195 0.74063,4.13013 0.64226,6.91252 -0.0984,2.7824 0.88135,10.77055 2.17712,17.75148 l 2.35594,12.69257 -2.91679,4.04622 c -1.60423,2.22543 -2.91679,4.48153 -2.91679,5.01355 0,0.53203 -1.20911,0.96732 -2.68692,0.96732 -2.09186,0 -2.72638,-0.68467 -2.86512,-3.09155 -0.098,-1.70035 -0.82705,-5.62099 -1.62009,-8.71253 -1.62571,-6.33761 -2.25344,-42.7505 -0.84582,-49.06364 0.77766,-3.48776 0.44983,-4.61414 -2.2086,-7.58834 -1.71699,-1.92094 -3.86669,-3.49263 -4.77709,-3.49263 -0.9104,0 -2.76786,2.29915 -4.12769,5.10921 -2.07563,4.28925 -2.52646,7.76227 -2.80917,21.64081 -0.33823,16.604 -1.41998,21.85374 -4.75109,23.05709 -0.98815,0.35696 -1.96974,2.05692 -2.18131,3.7777 -0.30768,2.50251 -2.29669,4.32915 -9.93817,9.12691 -5.25442,3.29901 -10.30333,7.3593 -11.21981,9.02284 -1.85558,3.36817 -3.50145,4.66806 -5.943,4.69371 -1.29272,0.0136 -1.22589,-0.51647 0.31676,-2.51223 1.07534,-1.3912 2.5757,-3.79417 3.33414,-5.33994 0.75845,-1.54578 5.39936,-6.36596 10.31314,-10.71151 l 8.93415,-7.90102 0.14404,-8.77299 c 0.0792,-4.82514 -0.27082,-9.01434 -0.77786,-9.30935 -0.50705,-0.295 -0.9219,-2.53007 -0.9219,-4.96682 0,-3.18871 -0.50205,-4.43044 -1.79128,-4.43044 -0.98521,0 -1.79128,-0.74631 -1.79128,-1.65847 0,-1.31574 -0.63303,-1.43191 -3.06321,-0.5621 -1.68476,0.60301 -4.55081,1.09637 -6.369,1.09637 -4.08548,0 -5.28831,1.01323 -3.54726,2.98811 1.72972,1.96204 4.39354,1.89923 8.67894,-0.20465 1.90393,-0.9347 3.66678,-1.5064 3.91745,-1.27042 0.25068,0.23598 -0.9995,2.52153 -2.77817,5.079 -3.45227,4.96386 -6.39225,6.07622 -6.39225,2.41854 0,-2.04182 -0.70606,-2.20493 -8.31024,-1.91986 -4.57063,0.17135 -8.69057,0.6696 -9.15543,1.10722 -1.9197,1.80719 -4.99996,0.66435 -5.7454,-2.13165 -0.49323,-1.85001 -2.07906,-3.38874 -4.30912,-4.18117 -2.5949,-0.92205 -3.52866,-1.98756 -3.52866,-4.02648 0,-1.52494 -1.11485,-3.88977 -2.47745,-5.25518 -1.36259,-1.36542 -2.63024,-4.29553 -2.81701,-6.51138 -0.18676,-2.21584 -0.99005,-4.76666 -1.78508,-5.66847 -1.09528,-1.24238 -1.11601,-2.21924 -0.0856,-4.03177 1.74595,-3.07115 0.0796,-5.10012 -4.96948,-6.05075 -3.68472,-0.69375 -3.71481,-0.75563 -3.02684,-6.22405 0.6015,-4.78102 0.35647,-5.73486 -1.82315,-7.09726 -2.42401,-1.51516 -2.45681,-1.8337 -0.87843,-8.5314 1.88321,-7.99117 7.26405,-14.01997 12.79693,-14.33795 1.80115,-0.10351 4.45434,-0.25343 5.89598,-0.33316 1.44164,-0.0797 4.83247,-2.36597 7.53516,-5.08053 4.84322,-4.8645 17.01809,-11.07496 21.21049,-10.81958 1.13872,0.0694 4.72886,0.2279 7.97808,0.3523 4.53906,0.17377 6.73057,0.93016 9.4597,3.26493 4.1687,3.56633 5.71485,3.16707 4.77979,-1.23427 -0.75179,-3.5386 1.16674,-4.89014 5.44616,-3.83663 1.89648,0.46687 2.34553,1.19261 1.77852,2.87438 -0.50343,1.49321 -0.31389,1.99113 0.56361,1.48059 0.72717,-0.42307 1.32579,-1.37173 1.33028,-2.10813 0.005,-0.73639 2.01968,-2.57587 4.4782,-4.08772 2.45853,-1.51186 5.54481,-3.62163 6.85842,-4.68838 6.3816,-5.18239 23.32814,-11.96161 35.82826,-14.3326 3.28549,-0.62318 6.91283,-1.47234 8.06076,-1.88703 1.38113,-0.49893 2.08717,-0.21554 2.08717,0.83772 0,0.87544 0.76615,2.57371 1.70257,3.77392 1.65497,2.1212 1.80961,2.08792 5.531,-1.19038 2.53084,-2.2295 4.01126,-2.8963 4.36788,-1.96734 0.2967,0.77288 1.60564,1.40525 2.90878,1.40525 1.82267,0 2.19514,0.51665 1.61436,2.23929 -0.56465,1.67477 -0.006,2.56057 2.21604,3.51365 1.63406,0.70089 3.29129,2.4756 3.68272,3.94379 0.39144,1.4682 1.16385,2.66945 1.7165,2.66945 0.55263,0 2.96061,1.24947 5.35108,2.77661 2.39046,1.52714 4.397,2.66539 4.45897,2.52945 0.49289,-1.08121 0.0456,-9.59779 -0.57552,-10.95931 -0.43122,-0.94521 -0.0177,-2.70528 0.91912,-3.91126 1.67362,-2.15466 1.74163,-2.14799 3.91967,0.38412 1.47954,1.72007 3.99918,2.79167 7.57813,3.22299 2.9489,0.35538 6.7329,1.29641 8.40888,2.09118 3.60439,1.70924 17.14743,0.90506 20.83649,-1.23726 3.03771,-1.76406 14.91779,-5.39802 15.58715,-4.7679 0.27779,0.26152 -2.44394,1.62615 -6.0483,3.03252 -6.25388,2.44017 -8.51758,4.59046 -4.83258,4.59046 2.6717,0 3.47083,2.19138 1.56316,4.28658 -0.94971,1.04308 -2.06335,2.78941 -2.47475,3.88073 -0.4114,1.09132 -2.05996,2.45379 -3.66345,3.0277 -3.32104,1.18866 -4.41935,4.18521 -2.59248,7.07321 0.88956,1.40626 0.82198,2.60424 -0.23695,4.20049 -2.1533,3.24589 -1.81971,5.46696 0.37754,2.51379 1.02245,-1.37419 2.6346,-2.49854 3.58256,-2.49854 1.11895,0 1.72357,-1.18308 1.72357,-3.37259 0,-2.98282 0.40589,-3.3726 3.51208,-3.3726 1.93164,0 3.8632,0.53483 4.29235,1.1885 1.14926,1.75056 15.15326,11.17653 16.61678,11.18461 0.6896,0.004 2.59726,0.67653 4.23927,1.49493 1.64201,0.8184 6.34412,3.14305 10.44914,5.16589 4.10501,2.02284 7.46366,4.29066 7.46366,5.0396 0,1.47459 10.0624,5.98217 15.74076,7.05128 2.9149,0.54882 3.62069,0.24167 4.19494,-1.82559 0.51476,-1.85309 1.33269,-2.33717 3.21487,-1.9027 1.38844,0.3205 5.48006,0.93127 9.09248,1.35727 3.61241,0.42599 7.12427,1.18484 7.80415,1.68632 1.49339,1.10154 22.09302,3.1537 37.63652,3.74939 6.20575,0.23783 12.85981,1.01251 14.78679,1.7215 2.64771,0.97417 4.32825,0.96751 6.87941,-0.0273 2.97327,-1.1594 3.96078,-0.95194 8.28146,1.73977 2.92422,1.82175 7.863,3.50462 12.22757,4.16652 4.02708,0.6107 10.11287,1.52806 13.52399,2.03856 3.41112,0.51051 6.83655,1.29736 7.61207,1.74856 2.75728,1.60423 19.64027,3.77189 40.13031,5.15248 16.54022,1.11445 22.92231,1.11641 31.22911,0.01 5.74226,-0.7651 11.25268,-1.09768 12.24538,-0.73907 0.9927,0.35861 4.06488,-0.0986 6.82705,-1.01604 4.4619,-1.48204 5.02212,-1.47917 5.02212,0.0257 0,2.08693 -7.33522,5.12445 -13.65334,5.65386 -2.58331,0.21647 -5.06957,0.96118 -5.52502,1.65491 -0.60581,0.92278 -1.94914,0.87972 -5.00466,-0.16041 -4.35064,-1.48101 -8.755,-0.7922 -7.46814,1.16795 0.40879,0.62268 0.23166,1.13214 -0.39363,1.13214 -0.6253,0 -1.45712,-0.78555 -1.8485,-1.74568 -0.53845,-1.32098 -2.38531,-1.71459 -7.59142,-1.61789 -9.30115,0.17275 -36.01674,-2.05148 -39.71999,-3.30693 -1.642,-0.55666 -5.0935,-1.28945 -7.67,-1.62844 -4.1429,-0.54507 -4.41904,-0.44518 -2.38837,0.86392 1.26289,0.81413 4.98308,1.82007 8.26709,2.23541 3.28402,0.41534 9.73263,1.48683 14.33024,2.38109 l 8.35931,1.62592 -11.34477,-0.57055 c -11.02436,-0.55444 -24.59206,-2.16334 -29.07924,-3.44831 -1.60811,-0.46051 -1.85205,-0.96989 -0.89564,-1.87024 2.21626,-2.08637 1.48158,-3.03608 -2.34864,-3.03608 -3.13006,0 -3.55179,0.32997 -2.89844,2.26784 0.72359,2.14618 0.39154,2.23124 -6.189,1.58553 -3.82448,-0.37528 -8.56576,-1.09997 -10.53617,-1.61042 -1.97041,-0.51045 -11.10593,-2.0443 -20.30117,-3.40857 -15.74924,-2.33666 -16.97875,-2.37372 -21.20496,-0.63914 l -4.48636,1.84134 0.76872,6.44585 c 1.03576,8.68499 1.93155,9.95791 7.60921,10.81259 2.86089,0.43066 5.17436,1.48937 5.61461,2.56941 0.41183,1.01032 2.74121,3.53148 5.17638,5.60258 3.77005,3.20639 4.51662,4.63774 5.02699,9.63794 0.52137,5.10802 1.21973,6.39056 5.36579,9.85424 4.73418,3.95499 8.94143,11.73198 13.01548,24.05878 1.63915,4.95954 1.63224,5.95872 -0.0702,10.15536 -1.03855,2.56004 -1.88827,6.21989 -1.88827,8.13301 0,5.28886 -2.63672,6.60748 -12.56635,6.28441 -7.39795,-0.2407 -9.18982,0.0972 -12.82314,2.41837 -3.14104,2.00664 -4.56955,2.37239 -5.57371,1.42708 -1.00417,-0.94532 -2.08632,-0.41263 -4.2223,2.07842 l -2.87209,3.34951 -4.45615,-2.24839 c -6.10122,-3.07843 -7.67587,-5.65204 -4.70809,-7.69496 2.16877,-1.49289 2.18834,-1.82109 0.38736,-6.49438 -1.04325,-2.70712 -2.18649,-6.83612 -2.54053,-9.17555 -0.35404,-2.33943 -2.28672,-6.20641 -4.29484,-8.59326 -2.00815,-2.38686 -3.65116,-4.91638 -3.65116,-5.62114 0,-0.70475 -1.88085,-2.32606 -4.17966,-3.6029 -5.15782,-2.86484 -5.46171,-4.79157 -0.59709,-3.78574 4.09429,0.84655 4.24332,0.52911 1.82142,-3.87982 -1.67026,-3.04063 -1.60667,-3.30135 1.23225,-5.05245 3.47442,-2.14312 2.82431,-4.66248 -0.67263,-2.6066 -1.77481,1.04342 -3.18119,1.03828 -6.2989,-0.023 -5.87965,-2.0015 -6.66599,-1.61908 -2.79648,1.36 1.88994,1.45504 3.06734,3.20746 2.61645,3.89427 -1.48393,2.26032 -7.30474,1.37189 -10.23235,-1.56176 -1.54259,-1.54577 -3.77487,-2.8105 -4.96064,-2.8105 -1.31299,0 -3.10876,-1.75821 -4.59286,-4.49679 -2.59658,-4.79142 -4.75864,-5.48079 -10.05902,-3.20731 -2.27446,0.97557 -3.41703,0.96858 -4.69348,-0.0287 -1.32378,-1.03425 -1.84583,-0.92897 -2.42375,0.48875 -1.26145,3.09465 -0.83541,4.89289 2.24892,9.49244 1.64201,2.44866 2.98547,5.66511 2.98547,7.14765 0,1.48256 0.80607,4.51169 1.79128,6.73143 0.9852,2.21973 1.79128,5.79912 1.79128,7.9542 0,2.775 0.784,4.44907 2.68692,5.73731 7.98941,5.40869 23.23211,14.16554 26.73012,15.3563 2.2111,0.75269 4.02019,1.72765 4.02019,2.16659 0,0.43894 2.38564,1.88526 5.30141,3.21404 4.03938,1.84083 5.38973,3.12881 5.67239,5.41043 0.28719,2.31812 1.315,3.26549 4.55062,4.19447 5.64908,1.62189 11.38714,4.81965 17.04494,9.49898 5.59793,4.62982 4.1255,5.82715 -2.33316,1.89723 -2.50866,-1.52644 -6.44203,-3.1391 -8.74084,-3.58368 -6.16309,-1.19195 -21.79442,-8.89188 -34.03432,-16.76522 -13.87472,-8.92492 -20.82499,-12.51131 -26.02661,-13.42995 -2.68955,-0.475 -6.82808,-2.95117 -11.52143,-6.89354 -4.72705,-3.97065 -8.3818,-6.15227 -10.30659,-6.15227 -3.09423,0 -7.01161,-1.96262 -12.90353,-6.46471 l -3.43719,-2.62639 -2.85508,3.95538 c -3.82866,5.30414 -6.62416,6.62438 -10.50347,4.96043 -1.67954,-0.7204 -3.05371,-1.81746 -3.05371,-2.43791 0,-1.99231 -4.00736,-9.75298 -5.03613,-9.75298 -0.54666,0 -1.50471,-1.26473 -2.12899,-2.8105 -1.60082,-3.96371 -3.58869,-3.49153 -3.54969,0.84315 0.0257,2.85272 0.93469,4.26974 4.14678,6.46414 2.26265,1.54577 4.1287,3.44286 4.14678,4.21574 0.039,1.66679 -5.46987,1.90371 -6.53515,0.28105 -1.20949,-1.84229 -2.98547,-1.27718 -2.98547,0.94996 0,1.14079 -1.03562,2.95646 -2.30138,4.03481 -1.26575,1.07837 -2.66277,3.97438 -3.10448,6.43561 -0.4417,2.46122 -1.51407,4.73179 -2.38303,5.0457 -2.26279,0.81741 -3.29483,4.00338 -1.61367,4.9815 0.78431,0.45632 1.57892,3.78505 1.7658,7.39717 0.81841,15.81856 1.97937,26.0325 3.4938,30.73776 0.89554,2.78239 2.24475,9.454 2.99825,14.82579 0.75351,5.37179 2.10831,10.68362 3.01066,11.80408 2.31458,2.87399 2.24384,17.4899 -0.10532,21.76648 -1.93204,3.51717 -4.25864,4.22591 -6.27505,1.91152 z m -0.26232,-116.20616 c 0,-0.92746 -0.53738,-1.37364 -1.19418,-0.99151 -0.65681,0.38214 -1.19419,1.45363 -1.19419,2.38109 0,0.92746 0.53738,1.37365 1.19419,0.99151 0.6568,-0.38214 1.19418,-1.45362 1.19418,-2.38109 z m 1.81616,-6.08828 c 1.30064,-1.98116 1.9294,-12.3283 0.74914,-12.3283 -1.44823,0 -2.18584,1.90922 -3.20192,8.28776 -0.7867,4.9387 0.48633,7.03583 2.45278,4.04054 z m -30.25383,-12.3283 c 1.32323,0 2.81991,-1.54648 3.94082,-4.07198 3.48547,-7.85301 1.26225,-10.26094 -2.40507,-2.6049 -1.2027,2.5108 -3.16516,5.05805 -4.36101,5.66054 -1.19586,0.6025 -2.1743,1.68471 -2.1743,2.40493 0,0.97454 0.36655,0.96443 1.43303,-0.0396 0.78816,-0.74197 2.3931,-1.34904 3.56653,-1.34904 z m -97.20541,-7.21108 c -0.18899,-1.19267 -1.01535,-2.37674 -1.83635,-2.63129 -1.04373,-0.32357 -1.48131,1.00256 -1.45476,4.40875 0.0357,4.58378 0.1442,4.7392 1.83635,2.63129 0.9891,-1.23214 1.64374,-3.21606 1.45476,-4.40875 z m 131.01692,1.21536 c 0,-2.93028 -2.34168,-2.74638 -2.78741,0.21889 -0.27356,1.81999 0.10187,2.49748 1.19419,2.15472 0.87627,-0.27497 1.59322,-1.3431 1.59322,-2.37361 z m -33.64753,-9.50775 c 2.34509,-4.5884 3.15308,-5.26384 6.06072,-5.06651 2.91822,0.19805 3.2631,-0.0946 2.64965,-2.2484 -0.38788,-1.36184 -0.71258,-3.86727 -0.72155,-5.56762 -0.0226,-4.27599 -1.2327,-3.84858 -5.31406,1.87686 -2.47751,3.47551 -4.79596,5.28267 -7.90076,6.15838 -5.459,1.53969 -8.29684,1.57909 -8.29684,0.11519 0,-0.61831 -0.4382,-1.12419 -0.97378,-1.12419 -2.15258,0 -0.45625,9.17444 2.18586,11.82202 2.53458,2.53981 2.88857,2.59808 6.1472,1.01173 2.05202,-0.99895 4.55778,-3.83559 6.16356,-6.97746 z m 93.95397,4.91554 c 0,-1.79515 -1.72531,-4.02665 -3.11324,-4.02665 -1.71563,0 -2.27607,2.42121 -0.86738,3.74733 0.8697,0.81874 3.98062,1.03703 3.98062,0.27932 z m -232.86643,-2.4067 c 0,-0.27266 -0.53738,-0.49575 -1.19418,-0.49575 -0.6568,0 -1.19419,0.53575 -1.19419,1.19055 0,0.6548 0.53739,0.87789 1.19419,0.49575 0.6568,-0.38214 1.19418,-0.91789 1.19418,-1.19055 z m 259.89403,-2.17056 c 0.97849,-0.92115 2.09803,-3.52509 2.48786,-5.78652 0.68504,-3.97407 0.60509,-4.08722 -2.38829,-3.37995 -1.70339,0.40246 -3.43041,0.22401 -3.83782,-0.39657 -1.05486,-1.60677 -4.18379,-1.39923 -4.17501,0.27692 0.004,0.77289 0.81012,2.85427 1.79128,4.6253 0.98116,1.77103 1.78392,3.92106 1.78392,4.77784 0,2.04201 2.10494,1.98522 4.33806,-0.11702 z m -79.57182,-5.07038 c 0,-3.53017 -1.96943,-4.58424 -3.15071,-1.68629 -0.85415,2.09543 0.27001,5.05889 1.91905,5.05889 0.67741,0 1.23166,-1.51767 1.23166,-3.3726 z m -44.80038,-12.82348 c 3.29424,-0.77835 3.9171,-3.05067 1.37962,-5.03317 -0.90187,-0.70461 -1.379,-2.47667 -1.07284,-3.9844 0.43903,-2.16207 -0.21384,-3.08794 -3.20382,-4.5435 -2.06537,-1.00545 -4.27108,-3.10539 -4.90158,-4.66654 -1.99886,-4.94929 -6.10124,-2.61858 -7.65906,4.35139 -0.7902,3.53552 -2.48841,3.90469 -5.63405,1.22477 -1.20515,-1.02673 -2.54268,-1.53588 -2.97228,-1.13145 -1.05624,0.99433 1.65842,9.27073 3.6583,11.15341 0.88247,0.83074 2.54399,3.22076 3.69227,5.31117 l 2.0878,3.80073 1.6073,-2.7315 c 1.02773,-1.74656 1.62257,-2.10318 1.64962,-0.989 0.0233,0.95838 0.69461,2.35656 1.49184,3.10707 1.13657,1.06996 2.03499,0.66033 4.16128,-1.89734 1.49147,-1.79405 4.06349,-3.58129 5.7156,-3.97164 z m 113.78954,4.04068 c 0.25999,-0.73424 -0.37815,-1.33498 -1.4181,-1.33498 -1.03993,0 -1.89079,0.80099 -1.89079,1.77998 0,1.98525 2.5708,1.63952 3.30889,-0.445 z m -7.16512,-3.79416 c -0.73809,-2.08452 -3.30889,-2.43025 -3.30889,-0.445 0,0.97899 0.85086,1.77998 1.89079,1.77998 1.03995,0 1.67808,-0.60074 1.4181,-1.33498 z m -8.99704,-3.40952 c -0.17287,-0.93541 0.49886,-2.33607 1.49273,-3.11257 2.75252,-2.1505 2.18816,-4.50911 -1.07891,-4.50911 -2.62947,0 -2.88594,0.45514 -2.88594,5.12135 0,3.41545 0.46407,4.96808 1.39321,4.66121 0.76627,-0.25307 1.25178,-1.22547 1.07891,-2.16088 z m -84.56729,-5.69389 c 3.09273,-4.53791 2.73731,-6.6678 -1.57499,-9.43848 -4.77978,-3.07102 -8.74349,-3.33642 -11.02196,-0.73798 -1.38934,1.58446 -1.38888,1.94828 0.004,2.38892 3.51774,1.1136 6.12021,4.81723 6.12021,8.7098 0,3.62588 0.20935,3.86877 2.38837,2.77094 1.31361,-0.66182 3.152,-2.32376 4.08531,-3.6932 z m 63.38624,1.44481 c -0.40593,-0.61831 -0.97503,-1.1242 -1.26467,-1.1242 -0.28964,0 -0.52661,0.50589 -0.52661,1.1242 0,0.6183 0.5691,1.12419 1.26466,1.12419 0.69557,0 0.93255,-0.50589 0.52662,-1.12419 z m 67.97097,-0.68238 c 2.95908,-1.06895 2.24041,-2.56882 -2.18216,-4.55419 -5.53772,-2.48599 -8.33717,-1.45389 -6.47763,2.38817 1.37391,2.83866 4.57877,3.64028 8.65979,2.16602 z m 53.23899,-7.0559 c 0,-1.03707 -4.08184,-2.36352 -7.16513,-2.3284 -1.35966,0.0155 -1.23273,0.41811 0.5268,1.67094 2.55183,1.81699 6.63833,2.22172 6.63833,0.65746 z M 311.70755,407.3956 c -0.39868,-0.97804 -0.72486,-2.24276 -0.72486,-2.8105 0,-0.56774 -1.17748,-1.03225 -2.61662,-1.03225 -2.48767,0 -2.50811,0.0747 -0.41465,1.51575 1.21107,0.83366 1.81945,2.09839 1.35195,2.81049 -0.5114,0.77897 -0.0574,1.29475 1.13951,1.29475 1.32356,0 1.74689,-0.59524 1.26467,-1.77824 z m 162.1846,-1.57328 c -0.64449,-0.60671 -2.9015,-1.42878 -5.01558,-1.82682 -3.06738,-0.57752 -3.84379,-0.3547 -3.84379,1.10312 0,1.39632 1.18193,1.82682 5.01558,1.82682 3.27984,0 4.61007,-0.38176 3.84379,-1.10312 z m -219.56903,-1.24323 c 1.30225,-1.98359 -1.43798,-3.61705 -4.75361,-2.83365 -4.33588,1.02445 -4.00762,4.0558 0.43917,4.0558 1.93164,0 3.87314,-0.54997 4.31444,-1.22215 z m 87.70842,-14.49252 c 0,-1.96459 -0.34857,-2.07478 -2.98547,-0.94375 -1.642,0.7043 -2.98546,1.70524 -2.98546,2.2243 0,0.51906 1.34346,0.94375 2.98546,0.94375 2.17856,0 2.98547,-0.60118 2.98547,-2.2243 z m 10.74768,-0.66863 c 0,-1.0469 -0.81249,-1.62039 -1.99086,-1.40525 -2.99594,0.54698 -3.40732,3.17398 -0.49702,3.17398 1.46685,0 2.48788,-0.72589 2.48788,-1.76873 z m -74.03958,-13.40795 c 0,-0.92746 -0.52052,-1.6863 -1.15671,-1.6863 -0.63618,0 -0.84738,0.75884 -0.46933,1.6863 0.37807,0.92746 0.89858,1.6863 1.15672,1.6863 0.25812,0 0.46932,-0.75884 0.46932,-1.6863 z m 48.37233,-5.21216 c 3.0294,-1.68264 3.94723,-2.7563 3.06569,-3.58618 -1.68095,-1.58243 -9.64148,1.95414 -9.64148,4.28336 0,2.30149 1.45469,2.14726 6.57579,-0.69718 z m -124.80028,-1.03728 c 0,-1.2731 -0.53738,-2.00208 -1.19419,-1.61995 -0.6568,0.38214 -1.19418,1.42377 -1.19418,2.31475 0,0.89097 0.53738,1.61995 1.19418,1.61995 0.65681,0 1.19419,-1.04164 1.19419,-2.31475 z m 112.25356,-1.12419 c 0,-0.6548 -0.53739,-0.87789 -1.19419,-0.49576 -0.6568,0.38214 -1.19419,0.91788 -1.19419,1.19055 0,0.27266 0.53739,0.49575 1.19419,0.49575 0.6568,0 1.19419,-0.53574 1.19419,-1.19054 z m -10.21363,-7.89906 c -0.3845,-0.58567 -1.2081,-0.76871 -1.83024,-0.40674 -0.62213,0.36196 -0.81656,1.1373 -0.43205,1.72297 0.38449,0.58567 1.20809,0.7687 1.83023,0.40674 0.62214,-0.36196 0.81656,-1.1373 0.43206,-1.72297 z m -131.2217,205.93975 c -0.36424,-0.55481 -0.32739,-2.58492 0.0819,-4.51138 0.52164,-2.45532 1.60217,-3.70537 3.61372,-4.18065 2.11035,-0.49861 2.68623,-1.2218 2.17661,-2.73336 -0.47173,-1.3992 0.24624,-2.63467 2.24902,-3.87003 1.61808,-0.99808 3.81955,-3.55567 4.89216,-5.68354 1.0726,-2.12787 2.46236,-3.86886 3.08834,-3.86886 1.60375,0 1.4142,1.21261 -0.51335,3.28407 -0.90833,0.97615 -2.85019,5.15749 -4.31523,9.29186 -1.46505,4.13436 -3.40879,7.78618 -4.31942,8.11515 -0.91064,0.32896 -1.65571,1.62577 -1.65571,2.8818 0,2.34664 -3.96762,3.30143 -5.29803,1.27494 z m 318.76755,-18.74801 c -3.28153,-2.09938 -6.7725,-3.8427 -7.7577,-3.87406 -0.98521,-0.0314 -3.13474,-0.82798 -4.77675,-1.77026 -2.93781,-1.68587 -2.90921,-1.70339 1.79128,-1.09674 2.62721,0.33908 5.85152,0.64312 7.16512,0.67567 3.11435,0.0771 11.43336,7.00524 10.36524,8.63219 -0.54186,0.82537 -2.84829,-0.0469 -6.78719,-2.5668 z M 197.7414,526.47359 c 0.50329,-2.46021 3.9732,-2.80826 3.9732,-0.39854 0,0.919 -0.98923,1.85025 -2.19828,2.06945 -1.59591,0.28932 -2.08227,-0.16853 -1.77492,-1.67091 z m -52.75068,-10.1558 c 0,-1.2603 2.52596,-3.71772 3.8214,-3.71772 0.52544,0 0.95535,0.75884 0.95535,1.6863 0,0.92746 -0.22474,1.6863 -0.49942,1.6863 -0.27469,0 -1.34945,0.30706 -2.38838,0.68237 -1.03892,0.37531 -1.88895,0.22354 -1.88895,-0.33725 z m 57.94255,-2.5209 c -0.45342,-1.34486 0.0521,-3.57895 1.22169,-5.39913 2.92876,-4.55789 11.10042,-10.41226 14.53368,-10.41226 l 2.98262,0 -3.83514,3.37259 c -2.10933,1.85493 -4.52604,3.3726 -5.37047,3.3726 -0.84443,0 -2.35382,1.92572 -3.3542,4.27939 -1.00038,2.35367 -2.62569,4.90975 -3.61179,5.68018 -1.48158,1.15753 -1.92724,1.0024 -2.56639,-0.89337 z m -46.59115,-6.8247 c 2.376,-2.47157 3.67873,-2.2074 2.56676,0.5205 -0.38893,0.95413 -1.61337,1.73479 -2.72099,1.73479 -1.83774,0 -1.82426,-0.19721 0.15423,-2.25529 z m 277.76633,0.10309 c -2.54581,-1.51752 -0.62481,-4.81618 2.55706,-4.39084 3.43531,0.45924 4.61512,5.42798 1.28258,5.40158 -1.19509,-0.009 -2.92292,-0.4643 -3.83964,-1.01074 z m 138.40114,-81.03847 c -2.7355,-0.82472 -2.63551,-0.90802 1.19419,-0.99492 2.29881,-0.0522 4.98573,0.39555 5.97093,0.99492 1.40833,0.85679 1.15302,1.06949 -1.19419,0.99492 -1.642,-0.0522 -4.32892,-0.49988 -5.97093,-0.99492 z m -92.70061,-27.50825 c -0.40757,-0.99983 -0.38016,-2.15758 0.0609,-2.57277 0.95644,-0.90039 4.36721,0.94583 4.66066,2.52277 0.35625,1.91443 -3.943,1.95995 -4.72155,0.05 z M 469.7525,393.3781 c -0.95384,-0.56804 -2.96023,-1.04055 -4.45865,-1.05002 -3.18667,-0.0201 -4.80906,-2.95318 -2.69414,-4.87062 1.1376,-1.03139 1.87561,-0.76223 3.2897,1.19976 1.00268,1.3912 2.80057,2.52945 3.9953,2.52945 2.39566,0 4.10661,1.76706 2.5742,2.65863 -0.53468,0.31108 -1.75256,0.10085 -2.70641,-0.4672 z m -70.39999,-22.427 c 0,-0.61831 0.80607,-1.1242 1.79128,-1.1242 0.9852,0 1.79128,0.50589 1.79128,1.1242 0,0.61831 -0.80608,1.1242 -1.79128,1.1242 -0.98521,0 -1.79128,-0.50589 -1.79128,-1.1242 z m -43.54078,-3.14095 c -2.70073,-2.54244 3.88834,-4.9211 9.55306,-3.44866 2.43067,0.6318 3.95193,1.55245 3.38058,2.04589 -1.25873,1.08709 -12.02821,2.25514 -12.93364,1.40277 z m 20.46352,0.15284 c -1.26678,-1.19254 1.59643,-3.68126 3.46048,-3.00788 2.46516,0.89053 2.09513,3.74759 -0.48536,3.74759 -1.20415,0 -2.54294,-0.33287 -2.97512,-0.73971 z m -187.09962,-6.99698 c 0,-0.61831 0.53739,-1.43686 1.19419,-1.81899 0.6568,-0.38214 1.19419,-0.18891 1.19419,0.4294 0,0.61831 -0.53739,1.43686 -1.19419,1.81899 -0.6568,0.38214 -1.19419,0.18891 -1.19419,-0.4294 z"
         id="path4415" />
      <path
         style="fill:#ad886e"
         d="m 323.18687,592.1371 c 5.43371,-17.03979 -2.61129,-35.33589 -5.91027,-53.63283 0.87653,-8.79493 -5.1236,-45.43442 -9.65386,-20.0642 -0.20314,9.61797 -2.70325,35.19912 -7.37758,31.56928 -1.49972,-19.30086 2.92952,-38.07843 5.48468,-57.0151 -5.57743,-7.09221 8.15033,-12.33949 8.83539,-20.30321 8.68469,-9.94248 1.93381,21.48334 10.99044,2.87217 3.62076,15.93033 -13.60294,26.70921 -4.99888,43.75858 0.81447,20.27443 7.62334,39.77948 10.70668,59.49458 0.15133,4.02716 -0.88867,18.52532 -8.0766,13.32073 z M 173.12992,566.67705 c 1.30516,-8.82384 11.00115,-19.76908 17.16931,-23.98258 -6.01401,5.45298 -7.66498,26.7428 -17.16931,23.98258 z m 318.76755,-18.74801 c -8.58123,-4.4199 -21.23337,-8.71108 -3.57805,-6.06539 6.77443,0.51925 16.17551,14.52517 3.57805,6.06539 z m -29.05213,-15.60275 c -19.8877,-6.33174 -38.03368,-16.92216 -55.58407,-28.17665 -12.462,-5.61467 -31.56082,-11.14698 -26.65831,-23.36399 -5.75333,-14.74505 -5.07971,-33.567 -15.45265,-45.75196 -9.15419,2.27344 -10.84091,44.56443 -18.3089,21.64469 2.20624,-14.36031 -11.80339,-5.13396 -6.83818,-20.30866 3.81913,-16.04444 -2.17619,-16.35781 -8.38763,-6.57914 -3.82205,-9.57025 -10.51156,24.38893 -11.03952,32.48955 -2.1337,7.84263 -27.93334,1.4469 -17.40121,-11.63073 7.9515,-14.69213 -0.0738,-31.8319 12.58461,-42.09436 13.31249,-12.34047 -27.88325,-4.86352 -17.01716,-16.20978 14.63442,3.93962 20.63625,-15.16215 4.36959,-8.62659 -0.92848,-12.21073 -18.43972,-2.32851 -25.107,-12.76757 -11.36026,-5.34393 -18.91285,6.90609 -3.36461,8.43149 3.8554,8.96972 -23.121,6.73803 -11.15755,14.68379 15.75366,-3.67631 -11.6693,8.2716 -18.27381,6.10504 -7.20378,8.66214 -17.25231,-13.22982 -15.10032,1.83539 -3.18198,7.64063 -1.63357,16.93517 -14.58665,11.43746 -21.69971,4.34539 16.38527,27.08139 4.6419,10.94154 18.41709,2.2156 31.15328,20.17149 44.651,31.89483 11.06455,7.61852 3.00209,16.43625 -4.89369,5.3155 -5.31746,-6.68276 -21.82346,-9.82046 -8.74268,0.0286 -12.17277,5.29192 10.4278,14.44649 17.115,17.76665 11.20593,-14.07497 3.5122,6.3998 -7.34605,-1.12229 -15.33503,-5.01549 -24.94696,-19.11083 -34.26743,-31.60837 -8.27063,2.35356 0.32189,24.05623 0.83958,34.05479 3.63632,11.21251 -14.43999,22.79381 -12.07866,3.21747 -6.39592,-19.37888 6.6903,-45.85052 -7.83151,-60.14461 -14.12669,14.40464 0.0694,39.23173 -13.86926,53.58481 -7.81167,7.82609 -18.92138,17.97782 -28.00586,22.34085 5.34236,-10.79004 15.04362,-18.09726 23.80307,-25.96209 -0.14804,-7.56012 1.97734,-35.38526 -8.05878,-22.42071 -5.63384,8.77353 -15.75136,-4.32507 -27.12301,0.26907 -19.21038,-4.17103 -10.67024,-32.11355 -24.81764,-36.60726 -3.75271,-11.89243 -8.16216,-34.43591 12.2755,-35.86997 14.82679,-6.31169 31.37248,-24.43718 48.9966,-12.44054 6.39305,8.46874 5.303,-14.58529 12.00447,-2.19652 6.98128,-4.22267 24.94603,-19.14119 39.08453,-21.22528 8.40746,-0.96203 20.21782,-9.47379 23.81533,1.64327 9.31799,-15.99943 29.68596,18.4263 8.26936,8.77183 -17.66831,-8.19535 -8.1727,19.83631 0.71183,7.80026 7.24218,1.17739 13.66511,4.39409 14.46086,-2.55676 14.70227,12.35161 -2.20517,-28.79135 15.7702,-11.23231 14.11624,8.41996 37.90407,-1.54529 45.75007,-2.38337 -10.30927,3.43176 -10.43913,4.509 -7.5999,10.63988 -6.58326,6.87624 -11.48614,8.31685 -9.46724,18.94951 -12.17947,13.43795 7.51427,-3.64108 9.54588,-7.31458 14.40299,9.75076 32.54278,15.73225 46.34522,26.73244 12.28378,14.58667 21.18971,-6.38502 36.76318,3.70767 19.49369,3.56159 39.92739,3.73969 59.30272,5.44359 16.3883,4.66467 34.88848,8.7492 52.52181,12.0138 27.94371,3.71714 56.86152,5.28192 84.42,0.26539 -6.97789,9.48011 -27.92122,8.06491 -33.73604,8.55006 -17.38453,-3.7281 -37.19997,-1.2511 -54.98141,-6.55326 -7.51833,2.54658 28.7093,5.93339 26.33406,6.99398 -12.70679,-1.34598 -30.18719,0.48286 -39.08544,-5.77674 -0.85518,-8.39733 -9.12567,7.09716 -17.39944,0.0628 -16.16859,-1.63089 -33.35859,-9.45372 -49.18319,-3.62953 -6.4499,13.93799 12.21766,19.06648 20.091,28.15316 3.32246,17.72215 22.88441,29.19681 21.99356,48.89105 0.98925,21.78853 -22.01885,16.04529 -35.49788,20.67324 -7.65253,12.07473 -18.22283,-2.16147 -14.18679,-10.76037 -7.61613,-8.31581 6.25455,-21.90467 -7.61317,-18.61956 -8.93879,-4.56695 -3.72993,-29.74549 -4.4389,-24.06105 -13.86465,5.34773 -8.12715,-20.04376 -16.04644,-21.70255 8.46061,-10.93187 -15.55436,0.49034 -9.15876,-15.31036 5.04709,-18.18821 -10.93883,-25.73906 -24.69363,-14.65015 -11.05977,-14.78998 -7.28802,8.55567 -3.26555,13.44709 -10.3991,4.38986 7.69408,4.99189 -1.13473,13.9398 3.78519,9.99654 2.72256,21.90414 -2.91591,5.90309 -7.67201,-9.36096 3.16001,35.75455 6.80463,22.2003 -5.8198,-22.47851 9.93514,4.49519 10.55478,13.73797 -0.59688,22.04537 27.63171,21.6231 41.34947,33.4141 6.46548,9.71122 29.67852,15.47367 30.38324,23.87139 l -3.83629,-2.18914 -2e-4,-3.9e-4 z M 396.96413,493.4887 c -5.34219,-8.66995 -13.2184,0.0574 0,0 z M 196.93785,467.63214 c -4.96705,-3.99118 -1.7694,4.07609 0,0 z m 47.17038,-6.74518 c -3.17451,-4.53145 -2.84882,4.38561 0,0 z m -48.19878,-4.11648 c 2.20142,-27.77024 -6.7911,16.06066 0,0 z m -15.57215,-8.93989 c 8.83446,-6.55887 12.28727,-12.52435 -1.49147,-5.54179 -17.09634,-0.47525 -10.33718,10.59256 1.49147,5.54179 z m -23.52819,-3.70579 c 6.60686,-9.39632 -11.4985,6.64509 0,0 z m 217.46547,-15.77325 c -4.45007,-7.07335 -4.14444,4.17106 0,0 z m 50.15585,-1.19054 c -2.90454,-4.48498 -4.86087,4.63627 0,0 z m -53.73841,-3.3726 c 20.38559,-1.3082 -18.84233,-20.59424 -9.57776,-7.86938 4.17954,-0.82093 6.46386,12.13815 9.57776,7.86938 z m 63.71435,-3.73278 c 9.90294,-8.59162 -15.27358,-14.55543 -6.5115,0.66011 0.92452,5.8697 3.90558,0.0907 6.5115,-0.66011 z m -99.53995,-4.51134 c -3.20604,-7.92429 -6.95947,6.02142 0,0 z m 154.0501,-6.23934 c -10.52421,-7.41398 -9.48983,3.14102 0,0 z m -125.07347,-4.79672 c 6.68266,-9.23531 -27.56021,-2.90737 -9.158,-14.50814 -6.65921,-6.18897 -17.94186,12.26919 -17.38824,10.25407 8.67892,0.0391 18.8109,12.19297 26.54624,4.25407 z m 110.0491,1.31409 c -12.55901,-7.06228 -10.91932,5.25367 0,0 z m -94.84082,-7.89046 c -5.47587,-4.83556 -2.38597,4.49512 0,0 z M 147.00455,395.0759 c -3.17237,-14.17759 -13.27223,8.20494 0,0 z m 101.64147,-5.30541 c 0.62715,-4.85943 8.76133,-13.68608 -0.95523,-10.3879 -17.03424,-0.16454 0.43269,29.04006 0.95523,10.3879 z m 8.59826,3.10247 c -5.45804,-5.7975 -7.4545,6.42178 0,0 z m 81.50325,-0.54674 c 12.91154,-8.34825 -19.84812,2.16054 -3.15559,0.22152 l 3.15559,-0.22152 z m -181.81494,-7.32264 c -4.76177,-6.79719 -4.27321,6.57844 0,0 z m 102.16728,-1.58835 c -9.17588,-5.1507 -0.71609,8.59694 0,0 z m 56.65956,-9.16284 c 4.33659,-10.86976 -12.26287,-4.23965 -13.2678,-12.44418 -6.78259,5.25577 10.48649,22.77238 13.2678,12.44418 z m -7.16512,-2.11075 c 2.52779,-4.07718 3.38539,2.47078 0,0 z m 19.14162,-1.7695 c 9.90574,-11.27627 -20.40216,4.21866 -5.8449,4.04819 l 2.66445,-2.14657 3.18045,-1.90162 0,0 z m -125.42424,-0.61159 c -3.08332,-5.9081 -2.1783,7.27271 0,0 z m -12.47465,-2.08409 c -10.03444,-5.87155 0.81581,8.57069 0,0 z m 135.2649,-10.58995 c -9.14658,-8.99685 -4.79548,8.45595 0,0 z m 10.95867,-1.87419 c -3.04664,-4.31797 -7.66851,4.50913 0,0 z m -75.23377,-3.93469 c -5.39146,-6.34072 -2.92667,5.77982 0,0 z M 197.7414,526.47359 c 5.13372,-6.8054 3.27158,6.273 0,0 z m -52.75068,-10.1558 c 4.0625,-9.02386 7.25949,2.61999 0,0 z m 57.94255,-2.5209 c -2.52049,-13.29545 31.77587,-21.29744 9.53238,-9.0662 -3.62905,0.77107 -5.60065,14.52558 -9.53238,9.0662 z m -46.59115,-6.8247 c 8.60476,-5.70054 -3.96981,7.59756 0,0 z m 277.76633,0.10309 c -2.71045,-13.12139 13.37815,5.32669 0,0 z M 294.86116,486.74351 c -13.43607,2.68897 -10.05746,-22.71997 -6.06347,-11.28905 -4.74533,4.45425 11.2484,13.86634 6.06347,11.28905 z m 48.36457,-1.12419 c 4.16321,-4.61722 8.32396,3.67053 0,0 z m 22.68955,-1.98335 c -6.57588,-2.41511 -18.26361,-10.64741 -6.24877,-8.07479 1.01152,0.9119 15.62498,13.98914 6.24877,8.07479 z M 304.2587,472.7138 c -1.10398,-7.22179 5.51364,4.51641 0,0 z m 19.87832,-0.79956 c -1.12187,-11.46597 5.95109,2.45541 0,0 z m -48.93867,-1.96111 c 0.14526,-7.85073 7.877,5.00084 0,0 z m 125.67273,-24.76124 c -10.59915,-8.91528 19.31948,2.48893 0,0 l 0,0 z m -139.24954,-3.41316 c -8.82723,-6.24412 -19.87548,-15.09478 -15.1245,-25.58091 -17.52432,-2.16578 -11.52587,-12.12991 2.69895,-6.27984 16.96217,-13.28801 10.21716,22.70564 21.47222,20.40632 3.29595,-5.62483 0.31801,24.99523 -9.04667,11.45443 z m 310.88805,-15.74192 c -2.58422,-3.91585 16.74127,3.71806 0,0 z m -359.84828,-1.87366 c -3.85032,-8.76438 8.76522,2.61647 0,0 z m 76.82601,-12.74092 c 0.0956,-4.85697 9.5195,3.97122 0,0 z m -20.25776,-3.88544 c -2.51492,-12.43465 8.00809,6.41778 0,0 z m 6.49281,-4.03238 c -10.2974,-20.04227 28.25437,-15.00253 14.07226,-5.84473 -8.45014,-19.17579 -0.77525,14.1473 -14.07226,5.84473 z m 204.08661,-4.97585 c -0.24569,-8.83802 9.94486,5.93704 0,0 z M 469.7525,393.3781 c -14.48505,-3.12184 -3.522,-8.67531 3.28757,-0.32434 -0.37019,1.56113 -2.45862,0.80564 -3.28757,0.32434 z m -70.39999,-22.427 c 4.33763,-4.52716 4.63393,4.39943 0,0 z m -43.54078,-3.14095 c -1.71927,-8.68516 23.435,-0.36795 6.33433,0.0259 l -4.10848,0.26737 -2.22585,-0.29328 0,0 z m 20.46352,0.15284 c 0.97612,-8.2414 9.95596,3.73543 0,0 z m -187.09962,-6.99698 c 3.39874,-6.39472 2.65358,2.90041 0,0 z m 78.81633,-2.38109 c 2.90454,-4.48498 4.86088,4.63627 0,0 z"
         id="path4413" />
      <path
         style="fill:#a37356"
         d="m 323.48932,590.12051 c 1.101,-7.4027 3.92027,-14.85463 3.80139,-22.89985 4.15106,4.748 5.37162,25.46163 -3.80139,22.89985 z M 174.31261,566.65954 c -1.48836,-8.19344 6.97975,1.95934 0,0 z m 150.18519,-2.50413 c -6.18534,-5.14378 -3.63718,-30.63527 0.15284,-11.86704 -0.45649,1.81113 3.97809,14.59337 -0.15284,11.86704 z m -143.68147,-11.0842 c 3.17453,-4.53147 2.84878,4.38565 0,0 z m 308.26644,-7.90679 c -6.90882,-8.48639 14.87637,7.82491 0,0 z m -188.27119,-2.24225 c 0.005,-18.12006 3.22523,-36.48131 7.36532,-54.09243 4.25275,-3.96078 11.90247,-29.32629 9.8316,-11.2248 1.75986,7.9441 -1.28853,14.83352 -2.19355,22.55555 -13.1085,7.95859 -8.51347,28.46333 -10.66934,42.23681 -0.42233,1.95392 -3.28669,1.83256 -4.33403,0.52487 z m 16.83904,-13.70187 c -2.70122,-7.35607 -1.97421,-34.91369 1.75794,-14.33302 0.81647,4.26482 2.49577,32.43484 -1.75794,14.33302 z m 130.96209,-3.87438 c -5.34898,-7.22289 11.46668,2.80844 0,0 z m -7.29736,-2.92785 c -9.61778,-7.71723 -17.78468,-7.13608 -28.19604,-16.68505 -9.47134,-13.0481 -26.95841,-3.40799 -31.082,-21.59864 -5.78135,-14.33708 -7.19631,-30.09486 -12.81022,-44.60954 -10.97227,-13.40565 -11.05469,17.11584 -16.76914,23.32946 -8.38525,5.92222 -2.92699,-21.87996 -12.58566,-16.14282 -2.7507,-6.88688 6.57762,-25.46173 -2.95253,-24.68522 0.14046,5.78104 -5.94773,12.33801 -6.22054,3.44845 -6.00827,12.03614 -10.03526,26.25448 -10.04492,39.90904 -9.87709,0.20793 -24.71185,-0.70673 -17.47943,-14.73435 9.51256,-11.80161 -2.20012,-29.09552 9.83254,-37.49556 4.0496,-5.04042 10.06888,-14.86571 -2.47825,-11.8834 -7.32854,1.78276 -23.01935,-11.08891 -7.18187,-8.80634 11.51492,2.78468 16.02952,-14.03361 3.71334,-8.50045 -6.86444,2.08953 -4.08659,-13.30632 -13.91514,-5.63288 -7.27118,-3.55461 -28.11873,-15.90617 -27.26082,-2.21202 12.24557,-1.45505 10.20371,13.14471 1.00723,9.06997 -4.78473,2.15176 -11.59836,10.55984 -1.31904,7.71046 10.67962,-0.1155 -12.25011,8.39211 -17.70372,6.6691 -6.90548,3.38056 -12.58173,3.06386 -15.40952,-3.68262 -8.35158,2.987 1.36136,24.41172 -14.55284,17.84985 -12.46109,1.65799 -18.24966,19.02091 -18.32776,30.95347 -0.15392,9.69194 -0.21216,-19.79493 -5.01203,-4.85662 -10.24795,-0.72555 -24.61828,4.24572 -35.6837,8.35819 -6.34157,2.18867 5.73807,-12.15863 -5.35018,-6.13348 -14.6319,2.20527 -15.22891,-17.58484 -14.75085,-27.12937 -2.84371,-9.62684 -12.44848,-1.36361 -8.85084,-12.62042 -10.50486,-15.46771 10.96258,-22.3641 21.88269,-26.60431 10.07097,-10.0992 24.59274,-15.27476 36.4785,-5.39736 8.86145,-4.8788 12.30739,15.77377 15.49291,-0.20968 5.86164,-15.41301 24.1368,-21.02929 38.47971,-25.94442 9.62059,-5.66803 25.87912,-1.17376 28.82514,5.03661 -6.95692,-3.94556 -20.02173,2.40184 -6.85464,3.74129 -4.26681,10.52555 7.9716,13.98931 13.67508,8.65539 6.29309,3.72365 10.76502,2.74469 11.32768,-2.64264 11.86457,13.76752 7.53675,-19.75872 15.21636,-4.58917 9.91338,0.40639 19.5821,8.5837 24.45547,-1.03645 4.87398,5.48724 17.763,-1.71294 6.27352,8.24547 -4.06759,3.74942 -24.36413,7.84758 -13.52502,14.26758 7.36791,-5.75083 10.8764,-3.08314 3.27989,2.90823 -4.5217,7.06975 22.83577,6.00673 6.13524,10.99876 -7.137,7.59705 9.90629,1.57688 6.77207,11.18835 8.23113,0.29151 27.73158,14.11982 26.12496,-0.93275 -8.7036,3.17794 -22.68436,-7.95201 -6.30788,-7.05597 13.3534,-1.02547 -6.30931,-12.68219 -11.17701,-11.79792 -10.94277,0.51784 -12.23258,-5.61262 -1.49987,-6.29662 -6.78509,-11.6294 15.17992,8.15832 20.34245,9.96709 2.16211,5.45041 22.76851,7.27481 10.47105,12.37138 6.0005,3.17822 25.21464,-1.92754 23.46754,6.084 -8.93053,-0.38797 -14.4257,9 -20.19459,-1.15385 -8.25381,7.65851 9.00852,18.60996 -1.25796,23.31628 8.96381,-2.4327 3.28274,29.50997 -1.30179,13.05485 -4.57613,5.36871 2.33609,22.68208 6.46643,28.89555 2.80792,-3.57868 -3.8508,-21.55947 4.78153,-9.58151 8.83685,11.77164 3.00793,32.64397 18.54071,37.72661 11.90857,9.00075 31.21099,11.60135 37.07847,26.30145 1.03058,1.74752 -1.81211,2.03834 -2.06471,0.59455 z m -43.38021,-28.64832 c -7.84634,-9.3916 -10.89057,0.91728 0.0532,1.34226 l -0.0532,-1.34226 z m -24.70049,-66.91321 c -6.47894,-2.35541 3.64811,7.38983 0,0 z m -2.54263,-3.06813 c 16.66386,-0.46911 -8.27794,-17.5738 -11.71456,-10.51478 2.14712,1.37782 9.83323,12.68556 11.71456,10.51478 z m -35.8256,-8.24412 c -2.63899,-8.53539 -8.6583,6.10207 0,0 z M 146.81446,395.63402 c -4.58603,-6.48039 0.64741,-7.72825 2.26314,-12.09763 -11.91185,-5.69344 -14.46203,17.97553 -2.26314,12.09763 z m 101.83156,-5.86353 c -1.31029,-5.73373 10.63389,-10.82493 -0.52638,-11.55819 -5.9308,4.41148 -12.35039,9.15888 -4.01141,16.60363 2.17699,5.86284 5.65885,-2.86723 4.53779,-5.04544 z m 77.86109,5.35087 c -9.01394,-6.86063 -7.19179,6.37942 0,0 z m -69.26283,-2.2484 c -5.45804,-5.7975 -7.4545,6.42178 0,0 z m -99.92464,-7.75947 c -2.00331,-10.61343 -10.23581,6.28455 0,0 z m 101.78023,-1.69826 c -9.17588,-5.1507 -0.71609,8.59694 0,0 z m 56.65956,-9.16284 c 6.60906,-13.23051 -15.26594,0.17813 -10.60184,-14.27499 -14.69833,-3.20452 7.10261,28.25992 10.60184,14.27499 z m -7.16512,-2.11075 c 2.52779,-4.07718 3.38539,2.47078 0,0 z M 166.78463,371.4978 c -3.61412,-4.40253 -5.79996,5.83428 0,0 z m 283.10005,142.89496 c -4.30136,-5.42987 3.83554,-14.8076 -3.5156,-22.06425 2.92442,-8.68477 -5.82184,-9.3801 -4.787,-15.20849 -11.54381,-2.04196 -4.006,-15.5079 -4.48861,-19.56221 -14.50015,7.47765 -9.93682,-12.91862 -16.81976,-20.0386 -0.45083,-13.18008 9.25737,-12.87081 17.83917,-13.55368 4.95003,-6.42498 13.3015,8.77445 8.92654,-5.31676 -4.19024,-3.60688 -22.02053,-12.8108 -5.64795,-11.78296 4.8875,-0.90846 23.07064,1.8835 10.64661,5.83723 -5.46977,19.94328 15.99553,22.50785 22.44005,37.21345 6.58941,14.16661 20.86598,24.0582 21.40496,41.00095 -1.43501,12.0025 -6.34166,22.19971 -20.5962,18.03519 -9.41047,1.57998 -15.31438,4.72057 -22.56408,7.37438 l -2.83813,-1.93429 0,4e-5 z m 7.98298,-34.31868 c -2.11263,-8.46866 -17.44202,-11.83329 -4.94515,-1.85192 1.69641,2.08581 4.58923,8.6878 4.94515,1.85192 z m -16.99229,-26.84572 c -1.49219,-4.43692 -4.31696,5.74211 0,0 z m -237.36949,58.37205 c 4.44819,-14.26382 8.12437,0.0427 0.36441,1.52161 l -0.36441,-1.52161 0,0 z m 231.67223,-6.24128 c 2.96718,-4.37613 3.31052,2.35597 0,0 z M 172.11854,490.08899 c 1.84382,-8.21673 16.61914,-7.47948 5.13896,-0.54908 -1.16895,0.29119 -6.93572,5.28405 -5.13896,0.54908 z m 47.12395,0.17437 c -7.39035,-17.07756 -4.1979,-37.29972 -4.01561,-55.6553 -1.82854,-12.15917 6.42101,-2.99726 7.92624,-4.62379 -8.10201,-14.63807 20.7286,4.55375 24.86502,10.33169 5.44575,7.03647 26.34161,18.9892 20.34473,26.8527 -7.63522,-1.63382 -16.64889,-16.07506 -22.77673,-10.98181 14.12979,6.98371 -8.10121,13.61763 -8.4025,0.90284 -3.24004,-4.93076 -16.83843,-20.84842 -14.50726,-6.10978 -2.35307,11.92796 11.96307,35.98806 -3.43389,39.28345 l 0,0 z m 24.86574,-29.3764 c -3.17451,-4.53145 -2.84882,4.38561 0,0 z m 78.83262,21.86565 c 2.28077,-18.52522 5.49365,3.96562 0,0 z m -139.25994,-0.69002 c 3.60592,-14.27441 17.53289,1.80672 0,0 z m 103.41804,-8.181 c 2.83485,-7.73023 2.79821,5.6823 0,0 z m 17.15975,-1.16779 c -1.10398,-7.22179 5.51364,4.51641 0,0 z m -56.97992,-3.76493 c -5.77896,-11.31588 12.09104,8.04871 0,0 z m -71.01529,-16.00156 c 4.92928,-6.53486 2.63329,3.67514 0,0 z m -9.45398,-2.85735 c 3.83738,-1.23704 3.29398,2.08801 0,0 z m 214.6302,-0.44499 c 3.17454,-4.53145 2.84877,4.38565 0,0 z m 19.43137,-4.45308 c -11.81759,-6.52135 17.06989,-2.33044 3.00013,1.07546 l -3.00013,-1.07546 0,0 z m -139.24954,-3.41316 c -8.82723,-6.24412 -19.87548,-15.09478 -15.1245,-25.58091 -8.19898,1.53588 -18.70823,-11.67392 -3.92769,-7.09284 8.98286,3.47245 19.54493,-7.46434 18.33989,5.58081 1.89171,8.75545 8.04311,19.24297 11.5544,15.4905 -2.55948,5.86344 -0.41511,21.73613 -10.8421,11.60244 z M 411.53081,430.2397 c -7.95657,-10.57695 9.38935,-23.23467 -5.80391,-27.4414 7.40651,-2.903 33.25027,-0.72073 17.20264,9.1855 -0.61881,5.83614 -1.61026,24.19095 -11.39873,18.2559 z m -198.8695,-6.07655 c -3.18248,-8.81346 7.94059,2.82267 0,0 z m 287.59998,-7.11992 c 0.75351,-3.77904 6.65335,2.69531 1.04743,0.79396 l -1.04743,-0.79396 z m -16.99229,-2.9276 c 3.83743,-1.23707 3.294,2.08774 0,0 z m -20.30117,-3.3726 c 3.83739,-1.23706 3.29398,2.08805 0,0 z m -193.73827,-3.20624 c -2.51492,-12.43465 8.00809,6.41778 0,0 z m 5.86748,-4.13388 c -8.16909,-18.31747 25.56481,-17.94709 16.21029,-5.07686 -1.42226,-5.727 -9.22445,-8.68864 -6.89583,0.89578 3.39239,5.67486 -7.03619,2.5427 -9.31446,4.18108 z m 64.54613,-7.15735 c 3.00786,-5.88146 2.4599,5.66579 0,0 z m -140.91404,-31.9733 c 2.52775,-4.07719 3.38538,2.47075 0,0 z m 69.26283,-5.68734 c 2.26771,-4.08542 5.08513,4.39833 0,0 z"
         id="path4411" />
      <path
         style="fill:#cc6a26"
         d="m 302.71766,539.11241 c -0.0518,-1.18508 0.23038,-1.84907 0.62721,-1.47551 0.39682,0.37356 0.43923,1.34318 0.0942,2.15472 -0.38121,0.8968 -0.66418,0.63042 -0.72148,-0.67921 z m 131.99031,-23.79578 c -0.4463,-1.09487 -0.17941,-1.60882 0.69324,-1.33498 1.78512,0.56016 2.76799,3.11522 1.19836,3.11522 -0.64126,0 -1.49248,-0.80111 -1.8916,-1.78024 z m 16.52136,-2.15529 c -2.1823,-1.58831 -2.19568,-1.75618 -0.22825,-2.86636 2.70747,-1.52774 2.77937,-8.62359 0.14017,-13.83367 -1.7022,-3.36033 -1.74009,-4.30399 -0.29855,-7.43446 1.47567,-3.20459 2.06352,-3.52391 5.53223,-3.00514 3.80301,0.56877 3.8811,0.49494 3.8811,-3.66968 0,-3.71063 -0.74725,-4.84331 -5.88663,-8.92291 -7.10577,-5.64052 -10.13337,-6.11271 -9.40914,-1.46746 l 0.49973,3.20532 -3.94675,-2.19216 c -4.81153,-2.67249 -5.46716,-6.4287 -0.98121,-5.62141 1.63106,0.29353 3.91494,0.15374 5.0753,-0.31064 1.82347,-0.72975 1.70611,-0.94427 -0.86501,-1.58102 -4.29322,-1.06323 -5.85472,-5.94301 -3.23676,-10.11511 1.11752,-1.78095 2.03186,-4.07393 2.03186,-5.09553 0,-1.70299 -0.29377,-1.69409 -3.5328,0.10713 -3.49198,1.94188 -3.56785,1.92896 -6.56803,-1.11855 -1.66938,-1.69574 -3.03523,-3.4699 -3.03523,-3.94258 0,-0.47269 -1.93792,-2.47458 -4.3065,-4.44866 -3.62581,-3.02191 -4.17965,-4.07634 -3.50398,-6.67099 0.4414,-1.69497 1.60367,-3.84059 2.58283,-4.76805 1.88856,-1.78883 2.14878,-1.56621 5.80944,4.97011 1.93976,3.46355 3.82543,3.26622 5.2379,-0.54811 0.77036,-2.08034 1.93871,-3.33056 2.82265,-3.02046 0.82955,0.291 3.52344,1.20811 5.98645,2.03801 2.92146,0.98438 4.4782,2.21202 4.4782,3.53148 0,1.54487 0.94506,2.02255 4.00146,2.02255 9.18472,0 13.94096,3.62655 18.82511,14.35379 1.33214,2.92582 3.31707,6.25081 4.41096,7.38885 1.09388,1.13803 2.56836,3.40376 3.27662,5.03494 0.86538,1.99306 2.19864,2.97364 4.06505,2.98973 2.27278,0.0196 3.07558,0.98395 4.41924,5.3086 0.90307,2.90656 2.17077,5.59233 2.81711,5.96839 0.64634,0.37605 1.17518,1.88874 1.17518,3.36153 0,1.47279 0.53738,2.99046 1.19418,3.3726 1.7827,1.03718 1.44123,6.57007 -0.55912,9.05976 -0.9643,1.20022 -1.77038,4.06631 -1.79128,6.36909 -0.0494,5.45323 -4.42095,7.97113 -11.30248,6.51005 -3.10969,-0.66024 -6.25044,-0.46789 -10.06268,0.6163 -3.04811,0.86687 -6.38407,1.32723 -7.41326,1.02304 -1.03925,-0.30717 -3.12288,0.70116 -4.68636,2.26787 -3.29625,3.30306 -3.59764,3.35446 -6.64875,1.13381 z m -2.91517,-71.47943 c 0,-2.73973 -2.79054,-2.35247 -3.37157,0.46789 -0.22854,1.10931 0.38066,1.87418 1.49274,1.87418 1.10776,0 1.87883,-0.96119 1.87883,-2.34207 z m -10.74768,-1.65897 c 0,-0.96396 -0.53738,-1.43999 -1.19418,-1.05785 -0.65681,0.38214 -1.19419,1.17083 -1.19419,1.75265 0,0.58182 0.53738,1.05785 1.19419,1.05785 0.6568,0 1.19418,-0.7887 1.19418,-1.75265 z m -12.24041,70.71024 c -1.80621,-0.89561 -3.28401,-2.10668 -3.28401,-2.69125 0,-1.99359 3.16057,-1.06853 5.97093,1.74765 3.10607,3.11248 2.27541,3.40418 -2.68692,0.9436 z m -33.67226,-21.42871 c -0.63731,-1.5635 -0.98324,-1.6401 -1.79852,-0.39829 -1.77218,2.6994 -4.52922,0.41835 -6.99594,-5.78813 -3.16447,-7.96213 -3.4161,-9.1979 -2.00863,-9.86491 0.65234,-0.30916 1.35269,0.53941 1.55631,1.8857 0.54796,3.62268 3.35157,5.4925 5.6007,3.73529 2.31293,-1.80706 2.2772,-4.37639 -0.0952,-6.8442 -1.56895,-1.63206 -1.63577,-2.40333 -0.39701,-4.58232 1.11031,-1.95305 1.61437,-2.19148 1.98016,-0.93667 0.2699,0.92582 1.52774,4.06325 2.7952,6.97207 3.0016,6.88867 4.09828,17.7573 1.79176,17.7573 -0.90186,0 -1.99485,-0.87113 -2.42886,-1.93584 z m -216.80842,-1.37041 c 0,-0.6548 0.53739,-1.19055 1.19419,-1.19055 0.6568,0 1.19419,0.22309 1.19419,0.49575 0,0.27267 -0.53739,0.80841 -1.19419,1.19055 -0.6568,0.38214 -1.19419,0.15905 -1.19419,-0.49575 z m 275.27209,-4.5448 c -0.88077,-1.34159 0.23713,-3.39094 1.84973,-3.39094 1.45308,0 1.4625,3.04278 0.0121,3.88668 -0.61143,0.35575 -1.44922,0.13265 -1.86176,-0.49574 z M 304.2587,472.7138 c -1.00811,-2.47311 0.0998,-3.24246 1.83506,-1.27421 0.97678,1.10798 1.02745,1.84312 0.16174,2.34681 -0.69335,0.4034 -1.5919,-0.0793 -1.9968,-1.0726 z m -39.77606,-6.80654 c -1.60171,-0.82744 -3.61102,-2.75998 -4.46511,-4.29453 -0.88959,-1.59833 -3.05351,-3.10038 -5.06603,-3.51651 -1.93222,-0.3995 -4.15344,-1.4527 -4.93605,-2.34042 -0.78261,-0.88772 -2.20261,-1.61403 -3.15554,-1.61403 -2.63541,0 -1.33915,3.77207 1.73349,5.04442 3.60701,1.49361 3.38669,3.55986 -0.45324,4.2509 -2.36746,0.42603 -3.27705,0.046 -3.72184,-1.55525 -0.32376,-1.16549 -1.19771,-2.1282 -1.94211,-2.13935 -1.58508,-0.0237 -9.11566,-8.27811 -9.11566,-9.99181 0,-0.64334 -2.24843,-3.45694 -4.99649,-6.25245 -4.69829,-4.77938 -5.1541,-4.98552 -7.63717,-3.45391 -2.42798,1.49764 -2.69752,1.42922 -3.34651,-0.8494 -0.38821,-1.36302 -0.71317,-4.49661 -0.72214,-6.96353 l -0.0163,-4.48531 3.03379,3.08006 c 4.67028,4.7415 7.59518,3.80204 4.6808,-1.50344 -0.95902,-1.74583 -1.74366,-3.4523 -1.74366,-3.79216 0,-1.45912 4.70023,-0.43608 7.49098,1.63047 1.66998,1.23662 3.60835,2.2484 4.30747,2.2484 1.32983,0 13.4632,10.41577 25.53685,21.92186 7.83304,7.46482 10.78186,11.88654 9.69886,14.54336 -0.83397,2.04594 -1.26186,2.04864 -5.16438,0.0326 z m 45.8286,-1.76096 c -0.45248,-0.68923 -2.28399,-0.96039 -4.134,-0.61207 -2.79804,0.52681 -3.43836,0.18737 -4.06247,-2.15349 -0.79235,-2.97199 1.90059,-14.50258 4.74969,-20.33715 2.05006,-4.19825 2.2487,-12.14592 0.42654,-17.06662 -1.13364,-3.06138 -0.93931,-3.95387 1.49273,-6.85571 1.53783,-1.83488 3.73647,-3.64894 4.88588,-4.03124 1.446,-0.48096 2.08982,-1.89481 2.08982,-4.58932 0,-2.3794 0.67911,-4.13955 1.74582,-4.52489 0.96021,-0.34687 2.08246,-1.62915 2.4939,-2.84952 0.55038,-1.63244 1.62755,-2.132 4.07582,-1.89025 1.83026,0.18073 4.17521,-0.33351 5.211,-1.14277 2.33912,-1.82751 6.36067,-0.74176 8.01211,2.16312 0.92593,1.62871 2.51699,2.17226 6.35859,2.17226 3.9212,0 5.7819,0.65959 7.92837,2.81049 3.75278,3.76054 8.63853,3.69806 11.85519,-0.1516 1.36128,-1.62916 2.47505,-3.91651 2.47505,-5.083 0,-1.19508 1.36032,-2.70437 3.11629,-3.45755 2.62525,-1.12604 3.35163,-1.03367 4.60984,0.5862 0.82146,1.05758 2.16431,1.92286 2.98411,1.92286 0.9891,0 1.24129,0.93491 0.74963,2.77903 -0.40751,1.52846 -0.39702,5.53349 0.0233,8.90007 0.59731,4.78436 1.27508,6.24682 3.1037,6.69698 1.47208,0.3624 2.1852,1.33012 1.92336,2.61005 -0.61272,2.99515 -3.79384,3.06982 -5.16767,0.1213 -0.65557,-1.40698 -2.40107,-2.71981 -3.87888,-2.91739 -1.4778,-0.19759 -2.68692,-0.74009 -2.68692,-1.20556 0,-1.44815 -9.23868,-6.62062 -10.50425,-5.88102 -1.20969,0.70694 -1.83953,2.89204 -1.5791,5.47847 0.0779,0.77288 1.23535,1.40525 2.5723,1.40525 1.69283,0 3.14851,1.45052 4.79482,4.77784 1.3002,2.62781 3.37002,6.29551 4.59959,8.15043 2.3031,3.47446 4.29255,18.54928 2.44797,18.54928 -1.10104,0 -1.84339,-2.01962 -2.99974,-8.16092 -0.59574,-3.16398 -1.49514,-4.39147 -3.57835,-4.88367 -3.73701,-0.88296 -4.97243,0.0227 -5.92721,4.34494 -0.95376,4.31763 -6.24291,19.43231 -8.0601,23.03317 -0.70207,1.3912 -1.6814,2.52945 -2.17629,2.52945 -1.40926,0 -3.72876,-7.62674 -3.95615,-13.00822 -0.23273,-5.5078 -1.28689,-7.13528 -3.35853,-5.18505 -0.77721,0.73166 -1.84302,1.3303 -2.36846,1.3303 -1.33181,0 -1.19412,-10.87406 0.227,-17.92845 0.81084,-4.02496 0.78544,-6.56734 -0.0808,-8.09114 -1.7595,-3.09498 -4.01621,-2.02011 -4.4536,2.12127 -0.20165,1.90926 -1.13206,3.74789 -2.06759,4.08585 -1.19066,0.43012 -1.61807,-0.11757 -1.42465,-1.82559 0.17611,-1.55515 -0.48158,-2.58858 -1.81352,-2.84961 -1.50739,-0.29541 -2.10162,0.31836 -2.13214,2.20232 -0.0233,1.43653 -0.81031,3.8766 -1.74896,5.42237 -0.93866,1.54577 -1.73703,4.07522 -1.77416,5.62099 -0.0371,1.54578 -1.44062,6.35172 -3.11888,10.67989 -1.67825,4.32816 -3.19496,9.13411 -3.37045,10.67988 -0.49345,4.34644 -0.57652,4.49679 -2.48419,4.49679 -0.98521,0 -1.79128,0.50589 -1.79128,1.1242 0,1.51877 -3.23919,1.43253 -4.25401,-0.11325 z m 24.55518,-49.4339 c 0,-1.60884 -0.64309,-2.21424 -2.07612,-1.95444 -3.11292,0.56436 -3.46009,4.28527 -0.39981,4.28527 1.70899,0 2.47593,-0.72199 2.47593,-2.33083 z m 41.89082,45.70614 c -0.0518,-1.18509 0.23038,-1.84907 0.62721,-1.47551 0.39682,0.37357 0.43923,1.34319 0.0942,2.15471 -0.38121,0.89681 -0.66418,0.63043 -0.72148,-0.6792 z m -158.14655,-4.03613 c -0.44243,-2.08254 -0.31371,-4.24837 0.28606,-4.81299 1.61554,-1.52086 2.75755,2.90107 1.54569,5.98504 -0.97447,2.47987 -1.0687,2.41957 -1.83175,-1.17205 z m 43.01085,-14.60368 c -3.10411,-1.85319 -5.95373,-4.12969 -6.3325,-5.05889 -0.37876,-0.92919 -1.37205,-1.68944 -2.2073,-1.68944 -0.83525,0 -2.19527,-1.53782 -3.02228,-3.41737 -0.827,-1.87955 -2.51285,-4.08281 -3.74632,-4.89614 -2.06793,-1.36354 -2.1022,-1.73232 -0.43987,-4.73306 2.63479,-4.75618 2.27372,-6.0648 -1.67341,-6.0648 -4.21313,0 -11.6094,-5.34572 -9.77959,-7.06828 0.80897,-0.76157 3.4765,-0.68159 8.1328,0.24385 5.06408,1.00647 7.8338,1.05117 10.29075,0.16608 4.74417,-1.70904 7.17894,-1.54119 6.37166,0.43925 -0.36999,0.90767 -0.2325,1.90641 0.30552,2.21944 1.12971,0.65728 4.38302,10.83445 3.92121,12.26651 -0.71803,2.22661 1.37342,5.36354 4.63438,6.95102 3.39953,1.65494 4.98708,6.14189 2.17309,6.14189 -0.81091,0 -1.13555,1.52632 -0.83689,3.9347 0.60196,4.85397 -0.47655,4.93223 -7.79125,0.56524 z m 137.43242,2.59451 c -3.84954,-0.94703 -2.14219,-2.59765 2.68692,-2.59765 3.44987,0 4.77675,0.46842 4.77675,1.68629 0,1.66077 -2.95215,2.02124 -7.46367,0.91136 z m -236.15043,-1.36611 c 0,-0.71906 -1.88085,-2.35205 -4.17966,-3.6289 -2.29881,-1.27684 -4.18296,-2.90391 -4.18699,-3.61573 -0.004,-0.71181 -2.73321,-4.07659 -6.06482,-7.47729 -6.52051,-6.65573 -6.31814,-5.74725 -4.0207,-18.04967 0.54619,-2.92479 0.2381,-4.39437 -1.14837,-5.47759 -2.70326,-2.11202 -2.34086,-4.98452 0.79209,-6.27847 1.95328,-0.80672 2.84996,-2.33753 3.28402,-5.60652 0.56531,-4.25744 0.83303,-4.51522 5.0299,-4.84315 3.51859,-0.27493 5.20552,-1.26483 8.17957,-4.7998 2.06073,-2.44938 3.44847,-5.18525 3.08387,-6.07969 -0.50589,-1.24106 0.10239,-1.49974 2.5681,-1.09212 2.2504,0.37203 4.27487,-0.28483 6.67041,-2.1643 3.34316,-2.62293 3.36822,-2.7197 0.89564,-3.45847 -1.39907,-0.41803 -2.54376,-1.24772 -2.54376,-1.84377 0,-1.88666 3.29223,-2.36331 6.17617,-0.89419 1.52913,0.77897 4.17702,1.32159 5.8842,1.20583 1.84642,-0.12521 4.33368,0.86238 6.13921,2.43762 1.66938,1.45645 3.84926,2.94216 4.84418,3.30157 0.99492,0.35941 2.17101,2.20533 2.61354,4.10203 1.55268,6.655 4.15915,4.25634 7.85781,-7.23132 2.07843,-6.45538 5.16398,-10.10413 12.33236,-14.58337 7.23148,-4.51866 23.12533,-9.80798 29.62492,-9.85889 3.477,-0.0272 5.06632,0.69042 7.46015,3.36859 1.67303,1.87175 4.37912,3.71914 6.01352,4.10531 2.16796,0.51223 2.89559,1.36766 2.69044,3.16292 -0.19587,1.714 0.71541,2.92144 3.0028,3.97871 1.80621,0.83486 3.28402,1.99621 3.28402,2.58078 0,2.04764 3.42925,1.04022 4.19549,-1.23252 0.84529,-2.50717 3.5663,-2.26226 8.69097,0.78224 2.26428,1.34519 3.44365,1.38441 6.84217,0.22751 3.6748,-1.25095 4.39124,-1.15347 6.81763,0.92761 1.49123,1.279 3.92043,2.91235 5.39823,3.62968 1.47781,0.71733 2.68692,2.31074 2.68692,3.54091 0,1.35136 1.18169,2.65961 2.98547,3.30521 3.40411,1.21839 3.49356,1.4875 1.61251,4.85175 -2.82129,5.04587 -5.79216,5.42233 -5.79216,0.73396 0,-4.06301 -2.4646,-5.30194 -6.82585,-3.43128 -2.15479,0.92425 -3.46999,0.96901 -4.34234,0.14779 -0.68825,-0.64791 -2.12497,-1.17802 -3.19273,-1.17802 -1.06775,0 -3.20348,-1.26472 -4.74607,-2.8105 -1.54259,-1.54577 -4.02277,-2.81049 -5.51153,-2.81049 -1.48875,0 -3.03984,-0.50726 -3.44687,-1.12724 -0.49469,-0.75352 -1.48181,-0.75352 -2.97744,0 -1.23056,0.61998 -3.34748,1.12724 -4.70427,1.12724 -1.64576,0 -2.46688,0.72632 -2.46688,2.18205 0,2.62689 1.99636,4.00104 5.81271,4.00104 1.55497,0 3.54314,1.01178 4.41814,2.2484 1.3749,1.94312 1.26279,2.62998 -0.82565,5.05889 -1.61953,1.88355 -2.6172,2.34702 -3.02492,1.40525 -0.92404,-2.13437 -3.75155,-1.68022 -5.17973,0.83196 -0.69953,1.23046 -1.65885,2.18233 -2.13185,2.11526 -3.88045,-0.55022 -5.33463,2.78953 -2.41242,5.54047 2.26121,2.12869 -0.27845,3.5842 -7.49541,4.29569 -3.56212,0.35118 -8.24434,1.38275 -10.40495,2.29238 -5.28268,2.22405 -7.96194,1.59446 -7.99048,-1.87766 -0.0168,-2.04044 -0.75284,-2.89683 -2.71527,-3.15917 -3.07832,-0.4115 -4.95244,2.60651 -2.84851,4.58713 0.9964,0.938 0.70524,1.90607 -1.12483,3.73992 -2.07836,2.08266 -2.23623,2.8255 -0.99736,4.693 2.25822,3.40406 0.58773,5.89181 -3.94289,5.8719 -2.15522,-0.009 -4.69288,-0.47841 -5.63925,-1.0421 -2.1009,-1.25138 -8.42992,1.54486 -8.42992,3.72445 0,0.81575 -1.13195,2.4469 -2.51545,3.62477 -1.38349,1.17787 -3.5127,3.981 -4.73157,6.22918 -2.51232,4.63393 -9.25411,9.96058 -15.44253,12.20108 -2.29881,0.83227 -4.71704,1.89126 -5.37384,2.35331 -2.23064,1.5692 -18.50989,2.57078 -18.50989,1.13883 z m 85.74249,-53.23664 c 0.30709,-5.53344 0.69006,-6.45321 2.68692,-6.45321 2.60894,0 3.0746,-2.22081 0.89576,-4.27195 -1.99255,-1.87577 -4.53791,-1.6866 -4.53791,0.33726 0,0.97354 -1.08005,1.68629 -2.55528,1.68629 -2.79197,0 -5.70605,2.89475 -5.76606,5.72781 -0.0209,0.98621 1.0368,2.70875 2.3504,3.82788 1.31361,1.11912 2.38838,3.00523 2.38838,4.19136 0,1.44706 0.68756,2.03341 2.08982,1.78218 1.64851,-0.29534 2.16546,-1.73717 2.44797,-6.82762 z m 8.59826,3.10247 c 0,-1.81441 -1.09374,-2.08341 -4.08198,-1.00392 -2.90724,1.05023 -2.23879,2.69022 1.09651,2.69022 1.85763,0 2.98547,-0.63704 2.98547,-1.6863 z m 1.85559,-9.45773 c -1.16208,-1.77008 -4.24396,-1.50106 -4.24396,0.37047 0,1.89023 2.55308,2.99478 4.01589,1.7374 0.56673,-0.48714 0.66937,-1.43568 0.22807,-2.10787 z m -66.34168,-5.71894 c 0,-0.61831 -0.53738,-1.1242 -1.19418,-1.1242 -0.6568,0 -1.19419,0.50589 -1.19419,1.1242 0,0.61831 0.53739,1.1242 1.19419,1.1242 0.6568,0 1.19418,-0.50589 1.19418,-1.1242 z m -48.96165,56.20991 c 0,-0.61831 0.53738,-1.1242 1.19418,-1.1242 0.65681,0 1.19419,0.50589 1.19419,1.1242 0,0.61831 -0.53738,1.1242 -1.19419,1.1242 -0.6568,0 -1.19418,-0.50589 -1.19418,-1.1242 z m 233.65512,-3.87003 c -0.42748,-1.04871 0.25206,-2.19621 1.74641,-2.94909 2.99375,-1.5083 4.38398,-0.46824 2.71118,2.02829 -1.71837,2.5645 -3.62688,2.95874 -4.45759,0.9208 z m 36.82818,-2.87516 c 0.40593,-0.61831 1.24372,-1.1242 1.86176,-1.1242 0.61804,0 1.12371,0.50589 1.12371,1.1242 0,0.61831 -0.8378,1.1242 -1.86176,1.1242 -1.02397,0 -1.52964,-0.50589 -1.12371,-1.1242 z m -201.61853,-2.99786 c -1.53418,-1.44426 -0.80037,-3.6783 0.99515,-3.02967 0.98521,0.3559 1.79128,1.3518 1.79128,2.21311 0,1.65284 -1.44749,2.07703 -2.78643,0.81656 z m 203.11127,-0.0892 c -1.14941,-0.24772 -2.08983,-0.93507 -2.08983,-1.52745 0,-1.72715 3.61737,-2.54758 5.09586,-1.15576 1.72033,1.61951 -0.1588,3.29684 -3.00603,2.68321 z M 274.77396,398.39329 c -0.58896,-3.41667 -0.20097,-4.44631 2.53068,-6.71571 1.77445,-1.47419 4.20549,-2.99223 5.40229,-3.37343 3.50267,-1.11565 7.97458,0.4356 7.97458,2.76628 0,1.14913 0.80608,2.71911 1.79128,3.48883 2.48885,1.9445 2.23602,3.3726 -0.59709,3.3726 -1.75148,0 -2.38838,-0.74947 -2.38838,-2.8105 0,-2.21489 -0.6056,-2.81049 -2.8577,-2.81049 -2.90256,0 -4.30742,1.85036 -4.30742,5.67338 0,1.97333 -3.18929,4.4444 -5.73618,4.4444 -0.61404,0 -1.42946,-1.81591 -1.81206,-4.03536 z m 39.79129,1.22486 c 0,-2.32869 -0.57321,-2.81049 -3.34373,-2.81049 -1.83904,0 -3.95246,0.57306 -4.69647,1.27347 -1.60375,1.50975 -5.48795,0.39596 -4.85482,-1.39211 0.42809,-1.20899 8.51126,-4.32734 11.30488,-4.36123 0.76744,-0.009 2.59156,1.80515 4.05359,4.03212 2.19608,3.34509 2.36873,4.22163 0.99304,5.04168 -2.6852,1.60065 -3.45649,1.20269 -3.45649,-1.78344 z m 39.44274,-1.64238 c -0.96618,-0.57522 -1.39425,-1.38707 -0.95125,-1.8041 1.21536,-1.14412 7.0934,0.53723 6.26887,1.79314 -0.89745,1.36701 -3.0325,1.37141 -5.31762,0.0109 z m -220.54705,-1.7787 c -0.38893,-0.95413 -0.39524,-2.0284 -0.014,-2.38727 1.20499,-1.13437 4.37868,0.60551 4.37868,2.40048 0,2.24395 -3.44883,2.23352 -4.36466,-0.0132 z m 132.92485,-1.35585 c -1.12009,-1.70613 1.35611,-4.33964 2.80124,-2.9792 0.92992,0.87541 0.80568,1.60058 -0.44105,2.57464 -0.95457,0.74579 -2.01664,0.92784 -2.36019,0.40456 z m 52.06056,-3.32374 c -1.4778,-0.26795 -2.68692,-0.94761 -2.68692,-1.51035 0,-1.6281 9.22367,-5.61424 11.27569,-4.87295 2.59841,0.93866 2.32351,4.61584 -0.4495,6.01293 -2.35251,1.18524 -3.38584,1.23226 -8.13927,0.37037 z m -186.59168,-3.07756 c 0,-1.5259 4.31465,-5.12264 6.14512,-5.12264 0.46032,0 0.0327,1.51767 -0.95027,3.37259 -1.84616,3.48383 -5.19485,4.61193 -5.19485,1.75005 z m 21.49536,-10.0073 c 0,-2.03462 3.8894,-5.23312 6.36351,-5.23312 2.48403,0 2.51775,1.0466 0.1368,4.24665 -2.0314,2.73025 -6.50031,3.40845 -6.50031,0.98647 z M 306.7792,367.3633 c -0.36891,-0.905 -0.15023,-2.93427 0.48595,-4.50948 1.31048,-3.24483 7.41636,-4.91734 13.42006,-3.67599 2.10995,0.43627 4.22643,0.18711 5.25821,-0.61901 0.97433,-0.76123 3.03309,-1.04054 4.7243,-0.64095 2.64763,0.62556 2.82497,0.96821 1.51953,2.93603 -0.81285,1.2253 -2.66767,2.22781 -4.12183,2.22781 -1.45416,0 -3.96804,1.24651 -5.58639,2.77002 -2.82344,2.65795 -3.09415,2.69878 -6.69186,1.0092 -3.45434,-1.62226 -3.92987,-1.60703 -6.04331,0.19351 -1.9454,1.65737 -2.39585,1.7043 -2.96466,0.30886 z m -38.78724,-8.77838 c 0,-0.61831 0.50567,-1.1242 1.12371,-1.1242 0.61804,0 1.45583,0.50589 1.86176,1.1242 0.40593,0.61831 -0.0997,1.1242 -1.12371,1.1242 -1.02396,0 -1.86176,-0.50589 -1.86176,-1.1242 z"
         id="path4409" />
      <path
         style="fill:#e22103"
         d="m 302.71766,539.11241 c -0.0518,-1.18508 0.23038,-1.84907 0.62721,-1.47551 0.39682,0.37356 0.43923,1.34318 0.0942,2.15472 -0.38121,0.8968 -0.66418,0.63042 -0.72148,-0.67921 z m 148.88052,-25.47819 c -2.76877,-1.51815 -2.64286,-2.96579 0.33537,-3.85565 2.04834,-0.61201 2.31427,-1.3662 1.71135,-4.85359 -0.39263,-2.27095 -1.54712,-5.98755 -2.56556,-8.25911 -1.59602,-3.55985 -1.62621,-4.61991 -0.21861,-7.67737 1.45667,-3.16406 2.05234,-3.48454 5.5142,-2.96679 3.80301,0.56877 3.8811,0.49494 3.8811,-3.66968 0,-3.71063 -0.74725,-4.84331 -5.88663,-8.92291 -7.10577,-5.64052 -10.13337,-6.11271 -9.40914,-1.46746 l 0.49973,3.20532 -3.94675,-2.19216 c -5.24597,-2.9138 -5.17214,-5.34268 0.16242,-5.34268 4.68355,0 6.85732,-1.9019 2.79913,-2.44907 -4.00492,-0.53998 -5.56327,-5.70244 -2.96923,-9.83643 1.11752,-1.78095 2.03186,-4.07393 2.03186,-5.09553 0,-1.68952 -0.33191,-1.67384 -3.67123,0.17345 -3.53176,1.95376 -3.73111,1.95418 -5.24753,0.0113 -1.7826,-2.28392 -1.0574,-6.52273 1.34698,-7.87299 0.88046,-0.49446 1.60084,-2.31314 1.60084,-4.04151 0,-1.72837 0.97343,-3.9718 2.16317,-4.9854 1.82593,-1.5556 2.75679,-1.63197 5.97093,-0.48987 2.31731,0.82342 3.80777,2.13664 3.80777,3.35497 0,1.52147 0.96034,2.00193 4.00146,2.00193 9.18472,0 13.94096,3.62655 18.82511,14.35378 1.33214,2.92583 3.31707,6.25081 4.41096,7.38885 1.09388,1.13804 2.56836,3.40377 3.27662,5.03495 0.86538,1.99305 2.19864,2.97364 4.06505,2.98972 2.27278,0.0196 3.07558,0.98396 4.41924,5.3086 0.90307,2.90656 2.17077,5.59234 2.81711,5.96839 0.64634,0.37606 1.17518,1.88875 1.17518,3.36154 0,1.47279 0.53738,2.99045 1.19418,3.37259 1.7827,1.03719 1.44123,6.57007 -0.55912,9.05977 -0.9643,1.20021 -1.77038,4.0663 -1.79128,6.36909 -0.0487,5.37526 -4.43425,7.9683 -11.08742,6.55571 -2.39246,-0.50797 -6.59837,-0.44444 -9.46558,0.14298 -2.838,0.58142 -6.326,1.15243 -7.75115,1.26888 -1.42514,0.11646 -3.878,1.34998 -5.4508,2.74118 -3.25103,2.87563 -3.17448,2.85882 -5.98973,1.3152 z m -3.28402,-71.95231 c 0,-2.73973 -2.79054,-2.35247 -3.37157,0.46789 -0.22854,1.10931 0.38066,1.87418 1.49274,1.87418 1.10776,0 1.87883,-0.96119 1.87883,-2.34207 z m -273.46877,46.25215 c 0,-0.6548 0.53739,-1.19055 1.19419,-1.19055 0.6568,0 1.19419,0.22309 1.19419,0.49575 0,0.27267 -0.53739,0.80841 -1.19419,1.19055 -0.6568,0.38214 -1.19419,0.15905 -1.19419,-0.49575 z m 275.27209,-4.5448 c -0.88077,-1.34159 0.23713,-3.39094 1.84973,-3.39094 1.45308,0 1.4625,3.04278 0.0121,3.88668 -0.61143,0.35575 -1.44922,0.13265 -1.86176,-0.49574 z M 163.68756,439.20569 c -6.55953,-4.80816 -10.05419,-8.64789 -10.68196,-11.73672 -1.15048,-5.66076 0.0229,-19.90833 1.98931,-24.15532 4.65636,-10.05656 15.04687,-16.92864 27.32387,-18.0715 6.20786,-0.57788 7.25264,-0.34914 10.74769,2.35307 4.17225,3.22579 5.77671,4.98301 5.11692,5.60413 -0.22873,0.21532 -1.51853,-0.25676 -2.86622,-1.04908 -1.3477,-0.79233 -2.87699,-1.03896 -3.39843,-0.54808 -1.3566,1.2771 3.43066,4.28527 5.87084,3.68906 3.2673,-0.79829 5.1964,2.26482 3.72985,5.92245 -1.01996,2.54381 -0.74811,3.99335 1.51165,8.06031 3.5056,6.30916 3.50799,6.27337 -0.55118,8.24943 -3.58081,1.74318 -6.85126,7.39327 -5.78853,10.00037 0.89151,2.18708 -0.10316,3.19713 -7.90625,8.0285 -10.34251,6.40365 -19.52245,7.73997 -25.09756,3.65338 z m 27.14399,-8.65708 c 1.61282,-1.51829 -6.90694,-4.72473 -10.37607,-3.90506 -3.41054,0.80582 -6.7677,-2.42252 -7.88969,-7.58693 -0.85828,-3.95056 -2.80535,-4.95194 -3.45489,-1.77685 -0.56636,2.76854 3.24387,10.01528 6.83642,13.00231 2.54199,2.11353 4.00475,2.45411 8.40332,1.95656 2.92908,-0.33133 5.84549,-1.09184 6.48091,-1.69003 z"
         id="path4405" />
      <path
         style="fill:#553930"
         d="m 302.71766,539.11241 c 0.82042,-5.41028 1.26948,4.34584 0,0 z m 148.88052,-25.47819 c -4.51581,-3.45774 7.24185,-6.48062 0.99862,-12.83857 -6.1825,-8.18041 -0.40692,-16.59559 7.58761,-16.0333 3.9757,-7.29418 -17.80976,-23.52461 -14.80791,-10.13089 -3.29913,0.51074 -13.06179,-8.56494 -2.06942,-7.08211 8.64024,-1.25613 -9.75576,-5.46692 -1.80152,-12.20271 4.67559,-6.4165 0.11918,-7.48046 -5.01889,-3.45519 -6.01389,-4.9911 1.34004,-15.70553 5.70787,-19.61206 7.18153,2.2043 10.09787,7.95327 18.76759,7.29209 10.32544,4.74762 12.11492,17.56893 19.06037,25.60909 9.05007,4.31451 12.10736,15.5707 14.80984,24.98603 -3.03737,8.18599 -3.55759,22.86893 -16.66201,17.72481 -9.92603,-2.21715 -18.87458,5.37819 -26.57215,5.74281 z m -3.28402,-71.95231 c -3.85483,-6.23825 -3.14474,7.53212 0,0 l 0,0 z m -273.46877,46.25215 c 3.15948,-4.33914 2.69436,2.70152 0,0 z m 275.27209,-4.5448 c -0.0723,-9.14805 6.86252,2.16652 0,0 z"
         id="path4403" />
      <path
         sodipodi:type="arc"
         style="fill:#ffc9c9;fill-opacity:1;stroke:none;filter:url(#filter5001)"
         id="path4991"
         sodipodi:cx="62.67857"
         sodipodi:cy="82.430275"
         sodipodi:rx="8.3928576"
         sodipodi:ry="8.0357141"
         d="m 71.071427,82.430275 a 8.3928576,8.0357141 0 1 1 -16.785715,0 8.3928576,8.0357141 0 1 1 16.785715,0 z"
         transform="translate(123.91175,321.17088)" />
    </g>
  </g>
</svg>
